<?xml version="1.0" standalone="no"?>
<!DOCTYPE svg PUBLIC "-//W3C//DTD SVG 1.1//EN" "http://www.w3.org/Graphics/SVG/1.1/DTD/svg11.dtd" >
<svg xmlns="http://www.w3.org/2000/svg" xmlns:xlink="http://www.w3.org/1999/xlink" version="1.1">
<metadata>
Created by FontForge 20170731 at Wed Mar 10 14:29:52 2021
 By Aleksey,,,
(c) 2011 Klim Type Foundry. All rights reserved.
</metadata>
<defs>
<font id="Metric-BoldItalic" horiz-adv-x="1024" >
  <font-face 
    font-family="Metric Bold"
    font-weight="700"
    font-style="italic"
    font-stretch="normal"
    units-per-em="2048"
    panose-1="2 11 8 3 3 2 2 13 2 3"
    ascent="1331"
    descent="-717"
    x-height="922"
    cap-height="1257"
    bbox="-373 -483 1985 1890"
    underline-thickness="61"
    underline-position="-204"
    slope="-10"
    unicode-range="U+0020-FB02"
  />
<missing-glyph horiz-adv-x="1245" 
 />
    <glyph glyph-name="f_f" unicode="ff" horiz-adv-x="1308" 
d="M1444 1325l-47 -262q-27 18 -72 18q-117 0 -135 -110l-8 -49h178l-45 -250h-178l-117 -672h-318l117 672h-299l-117 -672h-317l117 672h-137l45 250h137l10 55q29 175 138 267.5t284 92.5q82 0 145 -24l-47 -256q-29 16 -71 16q-117 0 -134 -106l-8 -45h299l13 67
q29 175 137.5 268t283.5 93q80 0 146 -25z" />
    <glyph glyph-name=".notdef" horiz-adv-x="1245" 
 />
    <glyph glyph-name=".null" horiz-adv-x="0" 
 />
    <glyph glyph-name="nonmarkingreturn" horiz-adv-x="682" 
 />
    <glyph glyph-name="space" unicode=" " horiz-adv-x="409" 
 />
    <glyph glyph-name="exclam" unicode="!" horiz-adv-x="489" 
d="M121 422l82 835h389l-223 -835h-248zM18 168q0 76 55.5 128t135.5 52t135 -52t55 -128q0 -78 -55 -130t-135 -52t-135.5 52.5t-55.5 129.5z" />
    <glyph glyph-name="quotedbl" unicode="&#x22;" horiz-adv-x="729" 
d="M113 727l96 530h248l-97 -530h-247zM449 727l96 530h248l-97 -530h-247z" />
    <glyph glyph-name="numbersign" unicode="#" horiz-adv-x="1314" 
d="M1196 522l-43 -203h-225l-97 -319h-231l96 319h-219l-96 -319h-229l96 319h-178l47 203h192l66 213h-207l45 203h223l96 319h232l-98 -319h219l98 319h229l-96 -319h178l-47 -203h-192l-66 -213h207zM604 735l-65 -213h219l65 213h-219z" />
    <glyph glyph-name="dollar" unicode="$" horiz-adv-x="1011" 
d="M6 125l53 293q79 -64 181.5 -106t201.5 -42q86 0 139.5 26.5t53.5 84.5q0 32 -23 51.5t-67 34.5l-172 59q-126 44 -193 117t-67 188q0 87 32 160.5t88.5 124t128.5 83t156 44.5l33 184h262l-35 -194q127 -27 232 -90l-54 -289q-163 135 -350 135q-79 0 -126.5 -24.5
t-47.5 -75.5q0 -31 20.5 -48t67.5 -34l187 -68q249 -95 249 -305q0 -178 -110.5 -283.5t-280.5 -134.5l-35 -192h-262l35 194q-176 24 -297 107z" />
    <glyph glyph-name="percent" unicode="%" horiz-adv-x="1429" 
d="M432 1278q122 0 205.5 -83t83.5 -204q0 -125 -89.5 -219t-219.5 -94q-121 0 -205 83.5t-84 203.5q0 124 90 218.5t219 94.5zM418 868q44 0 78 33.5t34 81.5q0 43 -30.5 73.5t-73.5 30.5q-44 0 -78.5 -34t-34.5 -80q0 -43 31 -74t74 -31zM145 0l979 1257h193l-981 -1257
h-191zM1028 -20q-121 0 -205 83t-84 203q0 126 90.5 220t221.5 94q121 0 203.5 -83.5t82.5 -203.5q0 -124 -90 -218.5t-219 -94.5zM1042 389q-44 0 -77 -33.5t-33 -81.5q0 -43 29.5 -73.5t72.5 -30.5q44 0 78.5 34.5t34.5 80.5q0 43 -31 73.5t-74 30.5z" />
    <glyph glyph-name="ampersand" unicode="&#x26;" horiz-adv-x="1208" 
d="M682 1278q100 0 184.5 -27t126.5 -69l-47 -275q-113 109 -250 109q-68 0 -106.5 -33.5t-38.5 -93.5q0 -51 55 -129l203 -287q43 78 61 182h283q-36 -221 -190 -399l182 -256h-348l-54 72q-159 -92 -321 -92q-189 0 -296.5 93.5t-107.5 256.5q0 121 69.5 219t191.5 158
q-41 80 -41 163q0 184 127 296t317 112zM453 227q72 0 147 35l-186 250q-43 -21 -70 -63.5t-27 -92.5q0 -57 36.5 -93t99.5 -36z" />
    <glyph glyph-name="quotesingle" unicode="'" horiz-adv-x="409" 
d="M113 727l96 530h262l-94 -530h-264z" />
    <glyph glyph-name="parenleft" unicode="(" horiz-adv-x="684" 
d="M76 467q0 212 86 393.5t252 306.5t387 164l-53 -301q-164 -53 -270.5 -199t-106.5 -364q0 -132 57.5 -216.5t161.5 -121.5l-53 -301q-220 59 -340.5 223.5t-120.5 415.5z" />
    <glyph glyph-name="parenright" unicode=")" horiz-adv-x="684" 
d="M655 692q0 -212 -86 -393.5t-252 -306.5t-387 -164l54 301q164 53 270 199t106 364q0 132 -57.5 216.5t-161.5 121.5l54 301q220 -59 340 -223.5t120 -415.5z" />
    <glyph glyph-name="asterisk" unicode="*" horiz-adv-x="704" 
d="M465 700l-150 27l29 172l-164 -59l-51 143l164 59l-135 113l98 117l133 -113l31 174l151 -26l-30 -174l161 61l54 -143l-164 -60l135 -114l-98 -115l-133 110z" />
    <glyph glyph-name="plus" unicode="+" horiz-adv-x="1138" 
d="M559 1077h238l-62 -346h346l-41 -237h-348l-59 -344h-238l60 344h-344l43 237h344z" />
    <glyph glyph-name="comma" unicode="," horiz-adv-x="456" 
d="M-70 -215l181 238q-53 16 -85 57t-32 104q0 81 54 132t136 51q79 0 134 -53t55 -144t-88 -201l-146 -184h-209z" />
    <glyph glyph-name="hyphen" unicode="-" horiz-adv-x="638" 
d="M63 401l48 271h493l-47 -271h-494z" />
    <glyph glyph-name="period" unicode="." horiz-adv-x="456" 
d="M-6 178q0 81 54.5 136t133.5 55q80 0 135.5 -55t55.5 -136t-55.5 -136.5t-135.5 -55.5q-78 0 -133 55.5t-55 136.5z" />
    <glyph glyph-name="slash" unicode="/" horiz-adv-x="806" 
d="M-111 -172l770 1503h291l-772 -1503h-289z" />
    <glyph glyph-name="zero" unicode="0" horiz-adv-x="1140" 
d="M545 268q85 0 148 73.5t92.5 179.5t29.5 222q0 109 -40.5 177.5t-121.5 68.5q-85 0 -148 -73.5t-92.5 -179.5t-29.5 -222q0 -109 40.5 -177.5t121.5 -68.5zM532 -20q-144 0 -249 70t-157 189.5t-52 274.5q0 206 77 381t214 279t301 104q144 0 249 -70t157 -190t52 -275
q0 -154 -45.5 -294.5t-124 -243.5t-189 -164t-233.5 -61z" />
    <glyph glyph-name="one" unicode="1" horiz-adv-x="751" 
d="M776 1257l-221 -1257h-324l156 891l-313 -141l57 321l424 186h221z" />
    <glyph glyph-name="two" unicode="2" horiz-adv-x="976" 
d="M551 283h367l-52 -283h-925v8l462 502q14 15 51.5 55.5t55.5 61t47.5 57.5t44 63t26 59t11.5 62q0 50 -31.5 79.5t-93.5 29.5q-88 0 -196.5 -51t-194.5 -115l55 324q90 63 209.5 103t247.5 40q163 0 256.5 -87t93.5 -224q0 -72 -21 -140.5t-64.5 -135t-85.5 -118.5
t-107 -122z" />
    <glyph glyph-name="three" unicode="3" horiz-adv-x="937" 
d="M147 975l52 282h831v-6l-340 -497q90 -46 142.5 -126.5t52.5 -185.5q0 -139 -71.5 -245.5t-192 -161.5t-269.5 -55q-230 0 -368 108l53 299q61 -66 144.5 -101.5t174.5 -35.5q100 0 161 45t61 131q0 79 -66 119.5t-172 40.5q-33 0 -51 -2v6l266 385h-408z" />
    <glyph glyph-name="four" unicode="4" horiz-adv-x="1093" 
d="M911 1257l-450 -749h190l39 213h283l-39 -213h145l-49 -266h-143l-41 -242h-283l41 242h-627v8l609 1007h325z" />
    <glyph glyph-name="five" unicode="5" horiz-adv-x="944" 
d="M901 459q0 -146 -73 -256.5t-194 -166.5t-272 -56q-231 0 -372 104l53 295q55 -60 141.5 -96.5t182.5 -36.5q95 0 163 44.5t68 131.5q0 69 -54.5 105t-152.5 36q-152 0 -282 -49l131 743h739l-49 -282h-484l-28 -158q31 8 88 8q182 0 288.5 -97.5t106.5 -268.5z" />
    <glyph glyph-name="six" unicode="6" horiz-adv-x="1044" 
d="M500 -20q-99 0 -184 34t-142 91.5t-89 133t-32 158.5q0 117 47.5 224t159.5 243l328 393h368l-329 -378q12 4 26 4q159 -19 261 -129t102 -267q0 -144 -69.5 -261t-187.5 -181.5t-259 -64.5zM518 262q83 0 141 57.5t58 145.5q0 71 -47 118.5t-117 47.5q-83 0 -141 -57
t-58 -144q0 -72 47 -120t117 -48z" />
    <glyph glyph-name="seven" unicode="7" horiz-adv-x="987" 
d="M1108 1251l-760 -1251h-352l592 975h-484l50 282h954v-6z" />
    <glyph glyph-name="eight" unicode="8" horiz-adv-x="1040" 
d="M352 358q0 -57 41 -91t109 -36q72 0 123 41.5t51 112.5q0 57 -42 92t-108 35q-74 0 -124 -41.5t-50 -112.5zM494 -20q-66 0 -130 12.5t-123.5 40t-104.5 67.5t-72 98.5t-27 129.5q0 122 72 210t180 119q-60 33 -91.5 92.5t-31.5 135.5q0 93 38 169t102 124t145.5 74
t171.5 26q176 0 295.5 -91t119.5 -245q0 -109 -59 -195.5t-154 -125.5q70 -34 115 -99.5t45 -150.5q0 -94 -41.5 -170t-111 -123.5t-156 -72.5t-182.5 -25zM745 918q0 52 -37.5 84t-95.5 32q-67 0 -112 -39t-45 -106q0 -52 37 -84.5t94 -32.5q67 0 113 39.5t46 106.5z" />
    <glyph glyph-name="nine" unicode="9" horiz-adv-x="1044" 
d="M598 1278q99 0 184 -34t141.5 -92t88.5 -133.5t32 -158.5q0 -117 -47 -224t-159 -243l-328 -393h-369l330 379q-12 -4 -27 -4q-159 19 -260.5 128.5t-101.5 266.5q0 144 69.5 261t187.5 182t259 65zM580 995q-83 0 -141 -57t-58 -145q0 -71 47 -118.5t117 -47.5
q83 0 140.5 56.5t57.5 143.5q0 72 -46.5 120t-116.5 48z" />
    <glyph glyph-name="colon" unicode=":" horiz-adv-x="456" 
d="M-6 178q0 81 54.5 136t133.5 55q80 0 135.5 -55t55.5 -136t-55.5 -136.5t-135.5 -55.5q-78 0 -133 55.5t-55 136.5zM92 721q0 81 55 135.5t134 54.5q80 0 135 -54.5t55 -135.5q0 -82 -55 -137.5t-135 -55.5q-78 0 -133.5 56t-55.5 137z" />
    <glyph glyph-name="semicolon" unicode=";" horiz-adv-x="456" 
d="M-70 -215l181 238q-53 16 -85 57t-32 104q0 81 54 132t136 51q79 0 134 -53t55 -144t-88 -201l-146 -184h-209zM92 721q0 81 55 135.5t134 54.5q80 0 135 -54.5t55 -135.5q0 -82 -55 -137.5t-135 -55.5q-78 0 -133.5 56t-55.5 137z" />
    <glyph glyph-name="less" unicode="&#x3c;" horiz-adv-x="886" 
d="M86 461l53 295l760 313l-47 -272l-518 -197l448 -194l-45 -259z" />
    <glyph glyph-name="equal" unicode="=" horiz-adv-x="1175" 
d="M100 324l39 211h928l-39 -211h-928zM166 696l37 215h927l-36 -215h-928z" />
    <glyph glyph-name="greater" unicode="&#x3e;" horiz-adv-x="886" 
d="M856 756l-51 -295l-762 -314l47 273l518 196l-448 195l45 258z" />
    <glyph glyph-name="question" unicode="?" horiz-adv-x="913" 
d="M416 633q16 15 52.5 48t54.5 51t41.5 45t33.5 52t10 50q0 100 -125 100q-161 0 -368 -160l53 314q205 145 438 145q164 0 257 -86.5t93 -224.5q0 -37 -7 -72t-15 -62t-27.5 -58t-31.5 -49.5t-40.5 -48.5t-42 -43t-47.5 -44.5t-45 -42.5q-77 -69 -88 -125h-325
q14 58 42.5 105.5t86.5 105.5zM221 168q0 77 55.5 128.5t135.5 51.5q82 0 137 -51t55 -129t-55 -130t-137 -52q-80 0 -135.5 52.5t-55.5 129.5z" />
    <glyph glyph-name="at" unicode="@" horiz-adv-x="1554" 
d="M1212 801l-114 -498q-22 -84 49 -84q94 0 155.5 98.5t61.5 270.5q0 133 -65.5 231t-179 147.5t-259.5 49.5q-140 0 -260.5 -50t-206 -138t-134 -213.5t-48.5 -272.5q0 -113 36 -202.5t93 -145t134.5 -92.5t154.5 -51.5t159 -14.5q251 0 492 109l-29 -166
q-85 -41 -207.5 -67.5t-255.5 -26.5q-119 0 -226.5 23.5t-203.5 75t-166 127t-110.5 185.5t-40.5 244q0 168 61.5 320t168.5 264.5t262 178.5t333 66q194 0 345 -75t233 -206t82 -296q0 -129 -38 -232.5t-102.5 -168t-145.5 -98.5t-171 -34q-74 0 -135.5 26.5t-95.5 76.5
q-35 -48 -92.5 -73.5t-118.5 -25.5q-122 0 -191 79.5t-69 205.5q0 122 50 229t143.5 173.5t209.5 66.5q57 0 104 -21t66 -53l16 58h256zM848 354l43 176q-8 28 -33.5 46t-60.5 18q-68 0 -116 -60t-48 -145q0 -47 25 -74.5t73 -27.5q72 0 117 67z" />
    <glyph glyph-name="A" unicode="A" horiz-adv-x="1323" 
d="M651 1257h336l244 -1257h-326l-45 244h-459l-135 -244h-327zM750 868l-199 -354h262z" />
    <glyph glyph-name="B" unicode="B" horiz-adv-x="1134" 
d="M920 645q73 -30 115 -94.5t42 -151.5q0 -184 -135.5 -291.5t-347.5 -107.5h-578l222 1257h540q173 0 267 -75t94 -219q0 -115 -63.5 -201t-155.5 -117zM463 760h188q80 0 125 33.5t45 101.5q0 92 -129 92h-188zM420 514l-43 -244h221q75 0 120.5 39.5t45.5 102.5
q0 102 -123 102h-221z" />
    <glyph glyph-name="C" unicode="C" horiz-adv-x="1083" 
d="M997 377l-55 -322q-132 -75 -303 -75q-252 0 -408.5 153t-156.5 404q0 220 98.5 390.5t263 260.5t365.5 90q102 0 194 -24t146 -64l-56 -318q-121 103 -286 103q-169 0 -281 -112.5t-112 -297.5q0 -131 78.5 -205.5t207.5 -74.5q165 0 305 92z" />
    <glyph glyph-name="D" unicode="D" horiz-adv-x="1253" 
d="M391 285h137q177 0 281 115t104 302q0 130 -68.5 201.5t-201.5 71.5h-131zM16 0l222 1257h464q262 0 401.5 -138t139.5 -384q0 -159 -54.5 -295t-152 -233t-237 -152t-303.5 -55h-480z" />
    <glyph glyph-name="E" unicode="E" horiz-adv-x="1062" 
d="M238 1257h901l-49 -282h-578l-35 -197h524l-47 -276h-526l-37 -217h576l-49 -285h-902z" />
    <glyph glyph-name="F" unicode="F" horiz-adv-x="1040" 
d="M342 0h-326l222 1257h884l-51 -284h-559l-43 -250h514l-49 -279h-514z" />
    <glyph glyph-name="G" unicode="G" horiz-adv-x="1218" 
d="M641 -20q-258 0 -412.5 158t-154.5 409q0 157 54 293t148 232t226 151t284 55q250 0 414 -111l-55 -319q-66 60 -161 93.5t-198 33.5q-174 0 -277 -112.5t-103 -301.5q0 -133 67.5 -211t183.5 -78q111 0 177 41l22 127h-182l47 262h471l-100 -573q-197 -149 -451 -149z
" />
    <glyph glyph-name="H" unicode="H" horiz-adv-x="1331" 
d="M1053 1257h329l-221 -1257h-330l89 498h-486l-88 -498h-330l222 1257h329l-84 -477h486z" />
    <glyph glyph-name="I" unicode="I" horiz-adv-x="518" 
d="M567 1257l-221 -1257h-330l222 1257h329z" />
    <glyph glyph-name="J" unicode="J" horiz-adv-x="843" 
d="M-35 53l53 309q60 -44 111 -65t117 -21q90 0 134 52t66 174l134 755h329l-145 -815q-78 -462 -526 -462q-82 0 -157 22t-116 51z" />
    <glyph glyph-name="K" unicode="K" horiz-adv-x="1245" 
d="M567 1257l-94 -534l488 534h397l-588 -628l383 -629h-375l-334 563l-98 -563h-330l222 1257h329z" />
    <glyph glyph-name="L" unicode="L" horiz-adv-x="1044" 
d="M16 0l222 1257h329l-172 -972h566l-50 -285h-895z" />
    <glyph glyph-name="M" unicode="M" horiz-adv-x="1486" 
d="M717 276h-8l-244 455l-125 -731h-324l222 1257h297l253 -514l439 514h309l-221 -1257h-322l125 725z" />
    <glyph glyph-name="N" unicode="N" horiz-adv-x="1292" 
d="M1343 1257l-221 -1257h-254l-401 758l-133 -758h-318l222 1257h294l367 -714l127 714h317z" />
    <glyph glyph-name="O" unicode="O" horiz-adv-x="1316" 
d="M649 268q140 0 233 117.5t93 312.5q0 129 -66.5 210t-177.5 81q-141 0 -233 -117t-92 -313q0 -129 66 -210t177 -81zM639 -20q-258 0 -411.5 158.5t-153.5 412.5q0 155 52 290.5t141 231t212 150.5t262 55q258 0 412 -158.5t154 -412.5q0 -206 -88.5 -373t-241 -260.5
t-338.5 -93.5z" />
    <glyph glyph-name="P" unicode="P" horiz-adv-x="1144" 
d="M637 391h-227l-68 -391h-326l222 1257h524q194 0 303 -96t109 -274q0 -154 -73 -268t-193.5 -171t-270.5 -57zM514 981l-53 -315h190q94 0 147.5 50t53.5 136q0 61 -37.5 95t-114.5 34h-186z" />
    <glyph glyph-name="Q" unicode="Q" horiz-adv-x="1316" 
d="M639 -20q-258 0 -411.5 158.5t-153.5 412.5q0 155 52 290.5t141 231t212 150.5t262 55q258 0 412 -158.5t154 -412.5q0 -171 -64 -317t-176 -245l70 -110l-205 -135l-74 116q-101 -36 -219 -36zM649 258q20 0 56 4l-78 125l209 133l69 -112q70 115 70 290
q0 129 -66.5 210t-177.5 81q-141 0 -233 -117t-92 -313q0 -130 66.5 -215.5t176.5 -85.5z" />
    <glyph glyph-name="R" unicode="R" horiz-adv-x="1175" 
d="M541 416h-125l-74 -416h-326l222 1257h542q187 0 294.5 -97t107.5 -271q0 -163 -87 -276t-233 -162l228 -451h-349zM514 981l-53 -303h203q95 0 146.5 47t51.5 133q0 58 -37 90.5t-112 32.5h-199z" />
    <glyph glyph-name="S" unicode="S" horiz-adv-x="1046" 
d="M8 102l53 306q83 -67 189.5 -110.5t208.5 -43.5q198 0 198 115q0 33 -23 54t-69 40l-178 61q-131 44 -200.5 120t-69.5 198q0 103 43 187t115 137.5t163 82.5t191 29q240 0 418 -113l-54 -299q-172 140 -364 140q-81 0 -130.5 -25.5t-49.5 -79.5q0 -33 22 -52t70 -38
l192 -70q124 -46 192 -125t68 -190q0 -92 -30 -167t-81 -126t-120 -86t-145 -51t-158 -16q-144 0 -260 35t-191 87z" />
    <glyph glyph-name="T" unicode="T" horiz-adv-x="1187" 
d="M133 975l49 282h1106l-51 -282h-387l-172 -975h-330l172 975h-387z" />
    <glyph glyph-name="U" unicode="U" horiz-adv-x="1255" 
d="M578 -20q-228 0 -361 111.5t-133 314.5q0 65 12 126l129 725h328l-127 -714q-8 -54 -8 -78q0 -93 47 -143t137 -50q214 0 264 271l125 714h328l-131 -745q-46 -260 -202 -396t-408 -136z" />
    <glyph glyph-name="V" unicode="V" horiz-adv-x="1288" 
d="M705 0h-322l-223 1257h329l134 -813l448 813h348z" />
    <glyph glyph-name="W" unicode="W" horiz-adv-x="1683" 
d="M860 1257h250l45 -739l322 739h335l-581 -1257h-299l-49 737l-344 -737h-299l-80 1257h325l33 -739z" />
    <glyph glyph-name="X" unicode="X" horiz-adv-x="1224" 
d="M1356 1257l-535 -624l303 -633h-342l-180 389l-328 -389h-364l561 655l-287 602h340l164 -358l303 358h365z" />
    <glyph glyph-name="Y" unicode="Y" horiz-adv-x="1253" 
d="M676 766l352 491h358l-595 -811l-78 -446h-330l78 446l-305 811h342z" />
    <glyph glyph-name="Z" unicode="Z" horiz-adv-x="1138" 
d="M1049 285l-52 -285h-1050v8l741 967h-524l49 282h1036l-2 -8l-723 -964h525z" />
    <glyph glyph-name="bracketleft" unicode="[" horiz-adv-x="677" 
d="M508 1065l-170 -971h244l-47 -266h-545l264 1503h545l-47 -266h-244z" />
    <glyph glyph-name="backslash" unicode="\" horiz-adv-x="806" 
d="M449 1331l243 -1503h-258l-244 1503h259z" />
    <glyph glyph-name="bracketright" unicode="]" horiz-adv-x="677" 
d="M221 94l170 971h-244l48 266h544l-264 -1503h-545l47 266h244z" />
    <glyph glyph-name="asciicircum" unicode="^" horiz-adv-x="884" 
d="M449 1257h262l204 -487h-264l-102 256l-191 -256h-286z" />
    <glyph glyph-name="underscore" unicode="_" horiz-adv-x="780" 
d="M-86 -330l39 244h698l-41 -244h-696z" />
    <glyph glyph-name="grave" unicode="`" 
d="M719 1024h-273l-124 307h282z" />
    <glyph glyph-name="a" unicode="a" horiz-adv-x="991" 
d="M610 520l8 33q0 4 1.5 15.5t1.5 15.5q0 96 -164 96q-156 0 -275 -64l45 258q61 31 154.5 49.5t183.5 18.5q181 0 277 -74.5t96 -220.5q0 -28 -8 -94l-96 -553h-314l8 47q-31 -26 -87.5 -44.5t-121.5 -18.5q-131 0 -220 73t-89 195q0 100 55.5 175t142.5 111.5t191 36.5
q66 0 123 -16.5t88 -38.5zM563 256l10 55q-9 30 -42 48t-80 18q-53 0 -96.5 -26.5t-43.5 -76.5q0 -36 34.5 -56.5t80.5 -20.5q96 0 137 59z" />
    <glyph glyph-name="b" unicode="b" horiz-adv-x="1091" 
d="M342 74l-12 -74h-322l234 1331h321l-86 -487q42 42 104.5 70t131.5 28q164 0 253 -111.5t89 -283.5q0 -155 -60.5 -284t-173 -206t-254.5 -77q-74 0 -136 27t-89 67zM430 578l-41 -238q11 -39 47 -62.5t86 -23.5q91 0 149 73t58 187q0 70 -36 113t-103 43q-97 0 -160 -92
z" />
    <glyph glyph-name="c" unicode="c" horiz-adv-x="833" 
d="M739 303l-47 -268q-86 -55 -215 -55q-196 0 -318 115.5t-122 310.5q0 148 65 270t186.5 194t276.5 72q84 0 158 -21.5t117 -54.5l-49 -272q-88 78 -197 78q-102 0 -171 -64.5t-69 -183.5q0 -82 53 -130t142 -48q103 0 190 57z" />
    <glyph glyph-name="d" unicode="d" horiz-adv-x="1089" 
d="M750 848l84 483h319l-233 -1331h-320l12 78q-42 -42 -103.5 -70t-131.5 -28q-162 0 -251 111.5t-89 283.5q0 153 59.5 281.5t172.5 207t255 78.5q74 0 136.5 -27t89.5 -67zM659 346l43 238q-11 38 -47 62t-86 24q-89 0 -148 -76.5t-59 -185.5q0 -68 36.5 -111t103.5 -43
q97 0 157 92z" />
    <glyph glyph-name="e" unicode="e" horiz-adv-x="962" 
d="M913 387h-567q16 -156 217 -156q156 0 287 76l-47 -258q-121 -69 -318 -69q-208 0 -328 112.5t-120 302.5q0 149 64.5 273t185.5 199t274 75q178 0 274.5 -102t96.5 -281q0 -75 -19 -172zM543 698q-113 0 -168 -131h274q0 2 1 8.5t1 8.5q0 51 -28.5 82.5t-79.5 31.5z" />
    <glyph glyph-name="f" unicode="f" horiz-adv-x="692" 
d="M827 1325l-47 -262q-27 18 -71 18q-118 0 -136 -110l-8 -49h178l-45 -250h-178l-117 -672h-317l117 672h-137l45 250h137l12 67q29 175 138 268t284 93q79 0 145 -25z" />
    <glyph glyph-name="g" unicode="g" horiz-adv-x="1085" 
d="M616 94l7 33q-98 -94 -224 -94q-167 0 -259.5 109.5t-92.5 273.5q0 144 59 263.5t170 191t252 71.5q74 0 134 -26.5t88 -65.5l12 72h321l-141 -799q-84 -469 -571 -469q-104 0 -206.5 25.5t-160.5 66.5l57 287q122 -119 310 -119q98 0 163.5 44t81.5 136zM666 369l39 227
q-9 36 -46.5 59t-87.5 23q-89 0 -147.5 -73t-58.5 -175q0 -66 36.5 -106.5t102.5 -40.5q98 0 162 86z" />
    <glyph glyph-name="h" unicode="h" horiz-adv-x="1062" 
d="M733 942q131 0 206 -74t75 -198q0 -34 -6 -74l-105 -596h-321l92 526q4 32 4 35q0 44 -26 70t-77 26q-46 0 -86.5 -27.5t-60.5 -72.5l-98 -557h-322l234 1331h321l-86 -489q100 100 256 100z" />
    <glyph glyph-name="i" unicode="i" horiz-adv-x="495" 
d="M492 922l-162 -922h-322l162 922h322zM557 1180q0 -82 -54.5 -131.5t-131.5 -49.5q-75 0 -126.5 46t-51.5 120q0 81 55 131t131 50q75 0 126.5 -46t51.5 -120z" />
    <glyph glyph-name="j" unicode="j" horiz-adv-x="495" 
d="M-203 -324l43 244q31 -14 68 -14q43 0 67 23.5t33 78.5l162 914h322l-160 -902q-63 -366 -389 -366q-86 0 -146 22zM557 1180q0 -82 -54.5 -131.5t-131.5 -49.5q-75 0 -126.5 46t-51.5 120q0 81 55 131t131 50q75 0 126.5 -46t51.5 -120z" />
    <glyph glyph-name="k" unicode="k" horiz-adv-x="1048" 
d="M698 471l267 -471h-342l-222 408l-71 -408h-322l234 1331h321l-133 -753l318 344h385z" />
    <glyph glyph-name="l" unicode="l" horiz-adv-x="495" 
d="M563 1331l-233 -1331h-322l234 1331h321z" />
    <glyph glyph-name="m" unicode="m" horiz-adv-x="1574" 
d="M967 831q118 111 276 111q133 0 209 -75t76 -195q0 -30 -6 -68l-107 -604h-319l90 522q4 20 4 43q0 92 -84 92q-42 0 -78.5 -27.5t-58.5 -74.5l-97 -555h-321l92 522q4 40 4 43q0 92 -84 92q-42 0 -79.5 -28t-57.5 -74l-96 -555h-322l162 922h322l-15 -80
q100 100 258 100q73 0 135.5 -30t96.5 -81z" />
    <glyph glyph-name="n" unicode="n" horiz-adv-x="1062" 
d="M8 0l162 922h322l-15 -80q100 100 256 100q131 0 206 -74t75 -198q0 -34 -6 -74l-105 -596h-321l92 526q4 32 4 35q0 44 -26 70t-77 26q-46 0 -86.5 -27.5t-60.5 -72.5l-98 -557h-322z" />
    <glyph glyph-name="o" unicode="o" horiz-adv-x="1015" 
d="M475 246q84 0 136.5 80t52.5 202q0 67 -32.5 108.5t-90.5 41.5q-82 0 -134.5 -81.5t-52.5 -203.5q0 -65 32 -106t89 -41zM467 -20q-193 0 -311.5 113t-118.5 304q0 157 69 282.5t185.5 194t257.5 68.5q193 0 311.5 -113.5t118.5 -304.5q0 -118 -40 -220.5t-109 -173
t-163 -110.5t-200 -40z" />
    <glyph glyph-name="p" unicode="p" horiz-adv-x="1091" 
d="M342 74l-70 -400h-321l219 1248h322l-15 -78q42 42 104.5 70t131.5 28q164 0 253 -111.5t89 -283.5q0 -155 -60.5 -284t-173 -206t-254.5 -77q-74 0 -136 27t-89 67zM430 578l-41 -238q11 -39 47 -62.5t86 -23.5q91 0 149 73t58 187q0 70 -36 113t-103 43q-97 0 -160 -92
z" />
    <glyph glyph-name="q" unicode="q" horiz-adv-x="1085" 
d="M750 848l12 74h321l-221 -1248h-319l69 404q-42 -42 -103.5 -70t-131.5 -28q-162 0 -251 111.5t-89 283.5q0 153 59.5 281.5t172.5 207t255 78.5q74 0 136.5 -27t89.5 -67zM659 346l43 238q-11 38 -47 62t-86 24q-89 0 -148 -76.5t-59 -185.5q0 -68 36.5 -111t103.5 -43
q97 0 157 92z" />
    <glyph glyph-name="r" unicode="r" horiz-adv-x="747" 
d="M788 926l-55 -310q-51 29 -127 29q-65 0 -113.5 -27.5t-68.5 -76.5l-94 -541h-322l162 922h322l-15 -82q37 47 96 74.5t125 27.5t90 -16z" />
    <glyph glyph-name="s" unicode="s" horiz-adv-x="849" 
d="M-2 82l47 266q55 -56 145.5 -91.5t163.5 -35.5q105 0 105 62q0 22 -18 35t-56 24l-80 23q-221 62 -221 231q0 161 119 253.5t297 92.5q190 0 321 -94l-47 -256q-129 110 -270 110q-103 0 -103 -61q0 -38 66 -55l108 -37q100 -34 151.5 -87.5t51.5 -139.5
q0 -110 -58 -188.5t-152.5 -116t-213.5 -37.5q-102 0 -197.5 26.5t-158.5 75.5z" />
    <glyph glyph-name="t" unicode="t" horiz-adv-x="724" 
d="M551 672l-119 -672h-319l118 672h-159l45 250h159l43 254h320l-43 -254h180l-45 -250h-180z" />
    <glyph glyph-name="u" unicode="u" horiz-adv-x="1052" 
d="M1049 922l-162 -922h-322l15 80q-104 -100 -256 -100q-129 0 -203 73t-74 197q0 36 6 76l105 596h321l-90 -527q-6 -21 -6 -45q0 -94 96 -94q47 0 88.5 29t61.5 75l98 562h322z" />
    <glyph glyph-name="v" unicode="v" horiz-adv-x="1017" 
d="M543 0h-293l-154 922h301l78 -529l291 529h321z" />
    <glyph glyph-name="w" unicode="w" horiz-adv-x="1417" 
d="M897 922l35 -500l250 500h305l-488 -922h-266l-37 467l-227 -467h-266l-107 922h301l43 -500l244 500h213z" />
    <glyph glyph-name="x" unicode="x" 
d="M1094 922l-410 -459l242 -463h-326l-125 246l-215 -246h-344l428 477l-233 445h327l115 -228l197 228h344z" />
    <glyph glyph-name="y" unicode="y" horiz-adv-x="1017" 
d="M350 -326h-321l215 361l-150 887h303l80 -529l289 529h321z" />
    <glyph glyph-name="z" unicode="z" horiz-adv-x="909" 
d="M821 252l-43 -252h-837v8l512 664h-355l45 250h815v-9l-497 -661h360z" />
    <glyph glyph-name="braceleft" unicode="{" horiz-adv-x="749" 
d="M481 410l-45 -256q-12 -60 49 -60h166l-47 -266h-254q-120 0 -179.5 72.5t-37.5 193.5l51 293q9 59 -49 59h-90l49 267h88q61 0 70 59l51 293q22 119 108 192.5t203 73.5h254l-45 -266h-168q-60 0 -69 -59l-45 -256q-20 -112 -127 -172q87 -59 67 -168z" />
    <glyph glyph-name="bar" unicode="|" horiz-adv-x="456" 
d="M-14 -172l264 1503h268l-264 -1503h-268z" />
    <glyph glyph-name="braceright" unicode="}" horiz-adv-x="749" 
d="M317 750l45 256q12 59 -49 59h-166l48 266h254q120 0 179.5 -72.5t37.5 -193.5l-52 -293q-9 -59 50 -59h90l-49 -267h-89q-60 0 -69 -59l-51 -293q-22 -118 -108.5 -192t-203.5 -74h-254l45 266h168q61 0 70 60l45 256q20 112 127 172q-88 59 -68 168z" />
    <glyph glyph-name="asciitilde" unicode="~" horiz-adv-x="872" 
d="M653 727h201q-28 -158 -103 -246t-182 -88q-43 0 -79 18t-55.5 39.5t-45 39.5t-49.5 18q-70 0 -90 -105h-201q28 157 103 245.5t182 88.5q42 0 78 -18t56 -39t45.5 -39t49.5 -18q73 0 90 104z" />
    <glyph glyph-name="uni00A0" unicode="&#xa0;" horiz-adv-x="409" 
 />
    <glyph glyph-name="exclamdown" unicode="&#xa1;" horiz-adv-x="497" 
d="M418 639l-82 -836h-389l223 836h248zM520 893q0 -76 -55 -128t-135 -52t-135.5 52t-55.5 128q0 77 55.5 129.5t135.5 52.5t135 -52t55 -130z" />
    <glyph glyph-name="cent" unicode="&#xa2;" horiz-adv-x="851" 
d="M270 -174l37 207q-118 47 -184 148t-66 245q0 195 111.5 340t298.5 184l37 197h262l-37 -201q86 -23 131 -59l-49 -273q-88 78 -197 78q-101 0 -170 -64.5t-69 -183.5q0 -83 53 -130.5t141 -47.5q102 0 191 58l-45 -269q-64 -41 -152 -51l-31 -178h-262z" />
    <glyph glyph-name="sterling" unicode="&#xa3;" horiz-adv-x="997" 
d="M80 500l43 243h131l16 97q37 204 173 321t348 117q85 0 154.5 -17t107.5 -44l-49 -289q-87 63 -213 63q-94 0 -146.5 -51t-71.5 -158l-8 -39h240l-43 -243h-240l-8 -47q-22 -130 -76 -187h492l-47 -266h-891l45 266h92q54 72 74 187l8 47h-131z" />
    <glyph glyph-name="yen" unicode="&#xa5;" horiz-adv-x="1173" 
d="M86 213l35 188h295l18 99h-299l35 188h199l-197 569h342l133 -438l287 438h354l-403 -569h198l-34 -188h-297l-17 -99h299l-35 -188h-297l-36 -213h-320l37 213h-297z" />
    <glyph glyph-name="section" unicode="&#xa7;" horiz-adv-x="989" 
d="M602 553l-182 133q-34 -8 -54 -29.5t-20 -54.5q0 -16 9.5 -31t19.5 -24t31 -27l182 -133q35 8 54.5 29.5t19.5 54.5q0 16 -9.5 31t-19.5 24t-31 27zM262 829q-33 48 -33 119q0 148 119 239t299 91q193 0 318 -86l-45 -260q-58 48 -131.5 76t-147.5 28q-51 0 -80 -18
t-29 -53q0 -40 46 -72l200 -135q85 -58 127.5 -113.5t42.5 -132.5q0 -179 -203 -270q33 -48 33 -117q0 -148 -118.5 -239t-299.5 -91q-192 0 -317 86l45 260q58 -48 132 -76t147 -28q51 0 80.5 18.5t29.5 53.5q0 39 -47 71l-201 135q-85 58 -127.5 113.5t-42.5 132.5
q0 181 203 268z" />
    <glyph glyph-name="dieresis" unicode="&#xa8;" 
d="M172 1161q0 66 46.5 112t111.5 46t111 -46t46 -112q0 -64 -46 -109.5t-111 -45.5t-111.5 45.5t-46.5 109.5zM535 1161q0 66 45 112t110 46t112.5 -46.5t47.5 -111.5q0 -64 -47.5 -109.5t-112.5 -45.5q-64 0 -109.5 45t-45.5 110z" />
    <glyph glyph-name="copyright" unicode="&#xa9;" horiz-adv-x="1441" 
d="M1401 629q0 -184 -88 -334t-236 -232.5t-325 -82.5q-132 0 -251.5 49t-207.5 133.5t-139.5 206.5t-51.5 260t51.5 260t139.5 206.5t207.5 133.5t251.5 49q177 0 325 -82.5t236 -232.5t88 -334zM1305 629q0 157 -75 285t-201.5 199t-276.5 71t-276.5 -71t-201.5 -199
t-75 -285t75 -285t201.5 -199t276.5 -71t276.5 71t201.5 199t75 285zM369 633q0 186 113.5 297.5t301.5 111.5q120 0 197 -49v-219q-86 55 -174 55q-96 0 -151.5 -51.5t-55.5 -144.5q0 -92 55.5 -143.5t151.5 -51.5q89 0 174 54v-220q-83 -49 -197 -49q-188 0 -301.5 112
t-113.5 298z" />
    <glyph glyph-name="ordfeminine" unicode="&#xaa;" horiz-adv-x="702" 
d="M502 1010l2 16q2 4 2 18q0 29 -28.5 45.5t-80.5 16.5q-104 0 -184 -41l33 186q95 45 225 45q262 0 262 -206q0 -32 -6 -70l-63 -365h-226l4 31q-19 -17 -57.5 -30t-79.5 -13q-88 0 -147.5 50t-59.5 132q0 103 74.5 161t181.5 58q97 0 148 -34zM469 831l4 35
q-6 16 -25.5 26.5t-46.5 10.5q-30 0 -54.5 -15.5t-24.5 -43.5q0 -22 19.5 -33.5t47.5 -11.5q51 0 80 32z" />
    <glyph glyph-name="guillemotleft" unicode="&#xab;" horiz-adv-x="923" 
d="M442 119h-260l-129 336l246 336h266l-248 -349zM813 119h-262l-127 323l248 349h266l-252 -353z" />
    <glyph glyph-name="registered" unicode="&#xae;" horiz-adv-x="833" 
d="M858 903q0 -161 -108.5 -268t-262.5 -107t-262 107t-108 268t108 268t262 107t262.5 -107t108.5 -268zM791 903q0 135 -88 223t-216 88t-215.5 -88t-87.5 -223t87.5 -223t215.5 -88t216 88t88 223zM473 827h-22v-118h-121v393h188q67 0 107.5 -37.5t40.5 -103.5
q0 -87 -72 -119l86 -133h-135zM549 961q0 40 -49 40h-49v-77h49q49 0 49 37z" />
    <glyph glyph-name="macron" unicode="&#xaf;" 
d="M233 1032l39 221h516l-38 -221h-517z" />
    <glyph glyph-name="degree" unicode="&#xb0;" horiz-adv-x="741" 
d="M455 1278q114 0 190 -78t76 -192q0 -124 -89.5 -216t-215.5 -92q-112 0 -188 78.5t-76 192.5q0 123 89 215t214 92zM442 1108q-47 0 -85 -37.5t-38 -91.5q0 -46 32.5 -78.5t76.5 -32.5q47 0 85 38.5t38 92.5q0 46 -31.5 77.5t-77.5 31.5z" />
    <glyph glyph-name="plusminus" unicode="&#xb1;" horiz-adv-x="1161" 
d="M596 1149h215l-47 -262h340l-37 -213h-340l-47 -262h-215l47 262h-338l39 213h336zM72 98l39 215h893l-41 -215h-891z" />
    <glyph glyph-name="twosuperior" unicode="&#xb2;" horiz-adv-x="628" 
d="M442 729h191l-33 -188h-555v4l274 299q5 6 20.5 23t21.5 24t18.5 22.5t18 23.5t14 21t12.5 22t7 20t3 20q0 49 -57 49q-46 0 -112 -29.5t-118 -62.5l37 211q123 80 277 80q96 0 150.5 -51t54.5 -130q0 -37 -11.5 -73.5t-36 -73.5t-46 -64.5t-58.5 -68.5z" />
    <glyph glyph-name="threesuperior" unicode="&#xb3;" horiz-adv-x="595" 
d="M156 1067l32 190h500v-4l-186 -280q100 -63 100 -172q0 -123 -88.5 -198t-226.5 -75q-134 0 -219 60l36 196q74 -77 183 -77q50 0 79 21.5t29 57.5q0 76 -116 76q-25 0 -39 -2v4l137 203h-221z" />
    <glyph glyph-name="acute" unicode="&#xb4;" 
d="M547 1024h-299l221 307h309z" />
    <glyph glyph-name="paragraph" unicode="&#xb6;" horiz-adv-x="1128" 
d="M709 -184l254 1441h215l-254 -1441h-215zM385 -184l121 690q-108 0 -197.5 35t-149 112t-59.5 185q0 88 33.5 160t88 119t127 79.5t148 46.5t152.5 14h205l-254 -1441h-215z" />
    <glyph glyph-name="periodcentered" unicode="&#xb7;" horiz-adv-x="477" 
d="M59 537q0 81 55 135.5t134 54.5q80 0 135 -54.5t55 -135.5q0 -82 -55 -137.5t-135 -55.5q-78 0 -133.5 56t-55.5 137z" />
    <glyph glyph-name="cedilla" unicode="&#xb8;" 
d="M551 -371h-277l193 289h278z" />
    <glyph glyph-name="onesuperior" unicode="&#xb9;" horiz-adv-x="501" 
d="M555 1257l-127 -716h-217l82 473l-174 -78l37 215l245 106h154z" />
    <glyph glyph-name="ordmasculine" unicode="&#xba;" horiz-adv-x="733" 
d="M428 840q49 0 79 49.5t30 124.5q0 37 -18 61.5t-50 24.5q-49 0 -80 -50.5t-31 -125.5q0 -35 19 -59.5t51 -24.5zM422 641q-134 0 -217.5 77.5t-83.5 209.5q0 163 102 265.5t254 102.5q133 0 216 -77.5t83 -208.5q0 -162 -102 -265.5t-252 -103.5z" />
    <glyph glyph-name="guillemotright" unicode="&#xbb;" horiz-adv-x="923" 
d="M487 791h261l129 -336l-246 -336h-266l247 348zM117 791h262l127 -324l-248 -348h-266l252 352z" />
    <glyph glyph-name="onequarter" unicode="&#xbc;" horiz-adv-x="1472" 
d="M1280 717l-266 -420h94l16 104h187l-19 -104h90l-28 -170h-90l-23 -127h-184l20 127h-340l21 113l313 477h209zM1372 1257l-1073 -1257h-197l1074 1257h196zM578 1257l-129 -716h-209l86 477l-193 -86l37 215l256 110h152z" />
    <glyph glyph-name="onehalf" unicode="&#xbd;" horiz-adv-x="1505" 
d="M1372 1257l-1073 -1257h-197l1074 1257h196zM578 1257l-129 -716h-209l86 477l-193 -86l37 215l256 110h152zM1204 188h191l-33 -188h-553v4l272 299q79 87 98 119q21 34 21 59q0 49 -57 49q-48 0 -117.5 -31t-114.5 -63l35 211q123 80 277 80q96 0 150 -50t54 -130
q0 -69 -39 -134t-112 -145z" />
    <glyph glyph-name="threequarters" unicode="&#xbe;" horiz-adv-x="1499" 
d="M1307 717l-267 -420h95l16 104h186l-18 -104h90l-29 -170h-90l-22 -127h-185l21 127h-340l20 113l314 477h209zM1401 1257l-1075 -1257h-197l1073 1257h199zM176 1067l33 190h500v-4l-191 -278q107 -67 107 -174q0 -123 -89.5 -198t-228.5 -75q-135 0 -217 60l35 196
q74 -77 182 -77q52 0 81.5 21.5t29.5 57.5q0 76 -119 76q-25 0 -39 -2v4l143 203h-227z" />
    <glyph glyph-name="questiondown" unicode="&#xbf;" horiz-adv-x="913" 
d="M532 428q-16 -15 -52.5 -48t-54.5 -51t-41.5 -45t-33.5 -52t-10 -50q0 -100 125 -100q90 0 188 48t181 112l-54 -314q-205 -145 -438 -145q-164 0 -257 86.5t-93 224.5q0 37 7 72t15 62t27.5 58t31.5 49.5t40.5 48.5t42 43t47.5 44.5t45 42.5q77 69 88 125h326
q-14 -57 -43 -105t-87 -106zM727 893q0 -77 -55 -128.5t-135 -51.5q-82 0 -137.5 51t-55.5 129t55.5 130t137.5 52q80 0 135 -52t55 -130z" />
    <glyph glyph-name="Agrave" unicode="&#xc0;" horiz-adv-x="1323" 
d="M651 1257h336l244 -1257h-326l-45 244h-459l-135 -244h-327zM981 1364h-295l-135 266h309zM750 868l-199 -354h262z" />
    <glyph glyph-name="Aacute" unicode="&#xc1;" horiz-adv-x="1323" 
d="M651 1257h336l244 -1257h-326l-45 244h-459l-135 -244h-327zM993 1364h-323l215 266h336zM750 868l-199 -354h262z" />
    <glyph glyph-name="Acircumflex" unicode="&#xc2;" horiz-adv-x="1323" 
d="M651 1257h336l244 -1257h-326l-45 244h-459l-135 -244h-327zM999 1634l172 -270h-249l-70 92l-102 -92h-267l271 270h245zM750 868l-199 -354h262z" />
    <glyph glyph-name="Atilde" unicode="&#xc3;" horiz-adv-x="1323" 
d="M651 1257h336l244 -1257h-326l-45 244h-459l-135 -244h-327zM1030 1659h176q-22 -136 -80 -221.5t-153 -85.5q-50 0 -116.5 36.5t-94.5 36.5q-25 0 -42.5 -18t-21.5 -49h-178q24 137 81.5 222t152.5 85q51 0 117 -37t94 -37q24 0 41.5 18.5t23.5 49.5zM750 868l-199 -354
h262z" />
    <glyph glyph-name="Adieresis" unicode="&#xc4;" horiz-adv-x="1323" 
d="M651 1257h336l244 -1257h-326l-45 244h-459l-135 -244h-327zM510 1503q0 68 46.5 115t113.5 47q66 0 113.5 -47.5t47.5 -114.5t-47.5 -114.5t-113.5 -47.5q-67 0 -113.5 47t-46.5 115zM881 1503q0 67 46.5 114.5t112.5 47.5t114 -47.5t48 -114.5t-48 -114.5t-114 -47.5
t-112.5 47.5t-46.5 114.5zM750 868l-199 -354h262z" />
    <glyph glyph-name="Aring" unicode="&#xc5;" horiz-adv-x="1323" 
d="M651 1257h336l244 -1257h-326l-45 244h-459l-135 -244h-327zM848 1315q-90 0 -151.5 60t-61.5 147q0 93 67.5 158t163.5 65q90 0 151.5 -59t61.5 -146q0 -93 -67.5 -159t-163.5 -66zM750 868l-199 -354h262zM852 1456q32 0 55 23t23 57q0 28 -20 48t-50 20t-53 -22
t-23 -56q0 -29 19.5 -49.5t48.5 -20.5z" />
    <glyph glyph-name="AE" unicode="&#xc6;" horiz-adv-x="1820" 
d="M836 1257h1060l-49 -282h-530l-37 -197h479l-47 -276h-479l-39 -217h530l-49 -285h-854l43 244h-405l-172 -244h-348zM999 1008l-350 -494h262z" />
    <glyph glyph-name="Ccedilla" unicode="&#xc7;" horiz-adv-x="1083" 
d="M997 377l-55 -322q-132 -75 -303 -75q-252 0 -408.5 153t-156.5 404q0 220 98.5 390.5t263 260.5t365.5 90q102 0 194 -24t146 -64l-56 -318q-121 103 -286 103q-169 0 -281 -112.5t-112 -297.5q0 -131 78.5 -205.5t207.5 -74.5q165 0 305 92zM547 -371h-277l193 289h278
z" />
    <glyph glyph-name="Egrave" unicode="&#xc8;" horiz-adv-x="1062" 
d="M848 1364h-295l-135 266h309zM238 1257h901l-49 -282h-578l-35 -197h524l-47 -276h-526l-37 -217h576l-49 -285h-902z" />
    <glyph glyph-name="Eacute" unicode="&#xc9;" horiz-adv-x="1062" 
d="M862 1364h-323l215 266h336zM238 1257h901l-49 -282h-578l-35 -197h524l-47 -276h-526l-37 -217h576l-49 -285h-902z" />
    <glyph glyph-name="Ecircumflex" unicode="&#xca;" horiz-adv-x="1062" 
d="M238 1257h901l-49 -282h-578l-35 -197h524l-47 -276h-526l-37 -217h576l-49 -285h-902zM868 1634l172 -270h-249l-70 92l-103 -92h-266l271 270h245z" />
    <glyph glyph-name="Edieresis" unicode="&#xcb;" horiz-adv-x="1062" 
d="M387 1503q0 68 46.5 115t113.5 47q66 0 114 -47.5t48 -114.5t-48 -114.5t-114 -47.5q-67 0 -113.5 47t-46.5 115zM758 1503q0 67 47 114.5t113 47.5t113.5 -47.5t47.5 -114.5t-47.5 -114.5t-113.5 -47.5t-113 47.5t-47 114.5zM238 1257h901l-49 -282h-578l-35 -197h524
l-47 -276h-526l-37 -217h576l-49 -285h-902z" />
    <glyph glyph-name="Igrave" unicode="&#xcc;" horiz-adv-x="518" 
d="M567 1257l-221 -1257h-330l222 1257h329zM563 1364h-295l-135 266h309z" />
    <glyph glyph-name="Iacute" unicode="&#xcd;" horiz-adv-x="518" 
d="M567 1257l-221 -1257h-330l222 1257h329zM575 1364h-323l215 266h336z" />
    <glyph glyph-name="Icircumflex" unicode="&#xce;" horiz-adv-x="518" 
d="M567 1257l-221 -1257h-330l222 1257h329zM584 1634l172 -270h-250l-70 92l-102 -92h-266l270 270h246z" />
    <glyph glyph-name="Idieresis" unicode="&#xcf;" horiz-adv-x="518" 
d="M567 1257l-221 -1257h-330l222 1257h329zM100 1503q0 68 46.5 115t113.5 47q66 0 114 -47.5t48 -114.5t-48 -114.5t-114 -47.5q-67 0 -113.5 47t-46.5 115zM471 1503q0 67 47 114.5t113 47.5t114 -47.5t48 -114.5t-48 -114.5t-114 -47.5t-113 47.5t-47 114.5z" />
    <glyph glyph-name="Eth" unicode="&#xd0;" horiz-adv-x="1286" 
d="M47 514l45 254h92l86 489h465q262 0 401.5 -138t139.5 -384q0 -159 -55 -295t-152 -233t-237 -152t-304 -55h-479l90 514h-92zM424 285h137q177 0 281 115t104 302q0 130 -68.5 201.5t-201.5 71.5h-131l-37 -207h180l-45 -254h-180z" />
    <glyph glyph-name="Ntilde" unicode="&#xd1;" horiz-adv-x="1292" 
d="M1004 1659h176q-22 -136 -80.5 -221.5t-153.5 -85.5q-50 0 -116.5 36.5t-94.5 36.5q-25 0 -41.5 -18t-21.5 -49h-178q15 89 42.5 154.5t76.5 109t114 43.5q51 0 117 -37t94 -37q25 0 42.5 18.5t23.5 49.5zM1343 1257l-221 -1257h-254l-401 758l-133 -758h-318l222 1257
h294l367 -714l127 714h317z" />
    <glyph glyph-name="Ograve" unicode="&#xd2;" horiz-adv-x="1316" 
d="M956 1364h-294l-136 266h310zM649 268q140 0 233 117.5t93 312.5q0 129 -66.5 210t-177.5 81q-141 0 -233 -117t-92 -313q0 -129 66 -210t177 -81zM639 -20q-258 0 -411.5 158.5t-153.5 412.5q0 155 52 290.5t141 231t212 150.5t262 55q258 0 412 -158.5t154 -412.5
q0 -206 -88.5 -373t-241 -260.5t-338.5 -93.5z" />
    <glyph glyph-name="Oacute" unicode="&#xd3;" horiz-adv-x="1316" 
d="M971 1364h-324l215 266h336zM649 268q140 0 233 117.5t93 312.5q0 129 -66.5 210t-177.5 81q-141 0 -233 -117t-92 -313q0 -129 66 -210t177 -81zM639 -20q-258 0 -411.5 158.5t-153.5 412.5q0 155 52 290.5t141 231t212 150.5t262 55q258 0 412 -158.5t154 -412.5
q0 -206 -88.5 -373t-241 -260.5t-338.5 -93.5z" />
    <glyph glyph-name="Ocircumflex" unicode="&#xd4;" horiz-adv-x="1316" 
d="M649 268q140 0 233 117.5t93 312.5q0 129 -66.5 210t-177.5 81q-141 0 -233 -117t-92 -313q0 -129 66 -210t177 -81zM639 -20q-258 0 -411.5 158.5t-153.5 412.5q0 155 52 290.5t141 231t212 150.5t262 55q258 0 412 -158.5t154 -412.5q0 -206 -88.5 -373t-241 -260.5
t-338.5 -93.5zM979 1634l172 -270h-250l-70 92l-102 -92h-266l270 270h246z" />
    <glyph glyph-name="Otilde" unicode="&#xd5;" horiz-adv-x="1316" 
d="M995 1659h176q-22 -136 -80 -221.5t-153 -85.5q-50 0 -116.5 36.5t-94.5 36.5q-25 0 -41.5 -18t-21.5 -49h-179q24 137 81.5 222t152.5 85q51 0 117 -37t94 -37q24 0 41.5 18.5t23.5 49.5zM649 268q140 0 233 117.5t93 312.5q0 129 -66.5 210t-177.5 81q-141 0 -233 -117
t-92 -313q0 -129 66 -210t177 -81zM639 -20q-258 0 -411.5 158.5t-153.5 412.5q0 155 52 290.5t141 231t212 150.5t262 55q258 0 412 -158.5t154 -412.5q0 -206 -88.5 -373t-241 -260.5t-338.5 -93.5z" />
    <glyph glyph-name="Odieresis" unicode="&#xd6;" horiz-adv-x="1316" 
d="M487 1503q0 68 46.5 115t113.5 47q66 0 114 -47.5t48 -114.5t-48 -114.5t-114 -47.5q-67 0 -113.5 47t-46.5 115zM858 1503q0 67 47 114.5t113 47.5t114 -47.5t48 -114.5t-48 -114.5t-114 -47.5t-113 47.5t-47 114.5zM649 268q140 0 233 117.5t93 312.5q0 129 -66.5 210
t-177.5 81q-141 0 -233 -117t-92 -313q0 -129 66 -210t177 -81zM639 -20q-258 0 -411.5 158.5t-153.5 412.5q0 155 52 290.5t141 231t212 150.5t262 55q258 0 412 -158.5t154 -412.5q0 -206 -88.5 -373t-241 -260.5t-338.5 -93.5z" />
    <glyph glyph-name="multiply" unicode="&#xd7;" horiz-adv-x="1011" 
d="M373 616l-205 246l186 160l203 -246l293 246l137 -166l-291 -246l203 -248l-186 -157l-205 246l-291 -248l-137 166z" />
    <glyph glyph-name="Oslash" unicode="&#xd8;" horiz-adv-x="1335" 
d="M70 74l116 123q-104 144 -104 354q0 206 88.5 373t241 260.5t338.5 93.5q207 0 356 -111l106 113l115 -96l-117 -123q105 -148 105 -354t-88.5 -373t-241 -260.5t-338.5 -93.5q-215 0 -356 110l-107 -113zM657 262q142 0 238 120.5t96 315.5q0 57 -16 113l-471 -496
q62 -53 153 -53zM408 559q0 -64 14 -113l469 496q-66 53 -152 53q-140 0 -235.5 -120.5t-95.5 -315.5z" />
    <glyph glyph-name="Ugrave" unicode="&#xd9;" horiz-adv-x="1255" 
d="M928 1364h-295l-135 266h309zM578 -20q-228 0 -361 111.5t-133 314.5q0 65 12 126l129 725h328l-127 -714q-8 -54 -8 -78q0 -93 47 -143t137 -50q214 0 264 271l125 714h328l-131 -745q-46 -260 -202 -396t-408 -136z" />
    <glyph glyph-name="Uacute" unicode="&#xda;" horiz-adv-x="1255" 
d="M940 1364h-324l215 266h336zM578 -20q-228 0 -361 111.5t-133 314.5q0 65 12 126l129 725h328l-127 -714q-8 -54 -8 -78q0 -93 47 -143t137 -50q214 0 264 271l125 714h328l-131 -745q-46 -260 -202 -396t-408 -136z" />
    <glyph glyph-name="Ucircumflex" unicode="&#xdb;" horiz-adv-x="1255" 
d="M578 -20q-228 0 -361 111.5t-133 314.5q0 65 12 126l129 725h328l-127 -714q-8 -54 -8 -78q0 -93 47 -143t137 -50q214 0 264 271l125 714h328l-131 -745q-46 -260 -202 -396t-408 -136zM948 1634l172 -270h-250l-69 92l-103 -92h-266l270 270h246z" />
    <glyph glyph-name="Udieresis" unicode="&#xdc;" horiz-adv-x="1255" 
d="M465 1503q0 68 46.5 115t113.5 47q66 0 113.5 -47.5t47.5 -114.5t-47.5 -114.5t-113.5 -47.5q-67 0 -113.5 47t-46.5 115zM836 1503q0 67 46.5 114.5t112.5 47.5t114 -47.5t48 -114.5t-48 -114.5t-114 -47.5t-112.5 47.5t-46.5 114.5zM578 -20q-228 0 -361 111.5
t-133 314.5q0 65 12 126l129 725h328l-127 -714q-8 -54 -8 -78q0 -93 47 -143t137 -50q214 0 264 271l125 714h328l-131 -745q-46 -260 -202 -396t-408 -136z" />
    <glyph glyph-name="Yacute" unicode="&#xdd;" horiz-adv-x="1253" 
d="M676 766l352 491h358l-595 -811l-78 -446h-330l78 446l-305 811h342zM938 1364h-324l215 266h336z" />
    <glyph glyph-name="Thorn" unicode="&#xde;" horiz-adv-x="1144" 
d="M604 209h-227l-35 -209h-326l222 1257h325l-33 -182h199q194 0 303 -96t109 -274q0 -154 -72.5 -268t-193 -171t-271.5 -57zM481 799l-53 -316h190q95 0 148 50t53 137q0 129 -151 129h-187z" />
    <glyph glyph-name="germandbls" unicode="&#xdf;" horiz-adv-x="1120" 
d="M8 0l174 989q31 175 140 268t282 93q84 0 146 -25l-45 -262q-35 18 -74 18q-115 0 -133 -110l-9 -49h668v-9l-272 -440q135 -94 135 -285q0 -126 -55.5 -229t-149 -168.5t-214 -101t-253.5 -35.5l45 260q145 5 234.5 68.5t89.5 181.5q0 74 -50.5 127.5t-136.5 75.5v8
l179 297h-265l-116 -672h-320z" />
    <glyph glyph-name="agrave" unicode="&#xe0;" horiz-adv-x="991" 
d="M610 520l8 33q0 4 1.5 15.5t1.5 15.5q0 96 -164 96q-156 0 -275 -64l45 258q61 31 154.5 49.5t183.5 18.5q181 0 277 -74.5t96 -220.5q0 -28 -8 -94l-96 -553h-314l8 47q-31 -26 -87.5 -44.5t-121.5 -18.5q-131 0 -220 73t-89 195q0 100 55.5 175t142.5 111.5t191 36.5
q66 0 123 -16.5t88 -38.5zM563 256l10 55q-9 30 -42 48t-80 18q-53 0 -96.5 -26.5t-43.5 -76.5q0 -36 34.5 -56.5t80.5 -20.5q96 0 137 59zM743 1024h-272l-125 307h283z" />
    <glyph glyph-name="aacute" unicode="&#xe1;" horiz-adv-x="991" 
d="M610 520l8 33q0 4 1.5 15.5t1.5 15.5q0 96 -164 96q-156 0 -275 -64l45 258q61 31 154.5 49.5t183.5 18.5q181 0 277 -74.5t96 -220.5q0 -28 -8 -94l-96 -553h-314l8 47q-31 -26 -87.5 -44.5t-121.5 -18.5q-131 0 -220 73t-89 195q0 100 55.5 175t142.5 111.5t191 36.5
q66 0 123 -16.5t88 -38.5zM563 256l10 55q-9 30 -42 48t-80 18q-53 0 -96.5 -26.5t-43.5 -76.5q0 -36 34.5 -56.5t80.5 -20.5q96 0 137 59zM752 1024h-299l221 307h309z" />
    <glyph glyph-name="acircumflex" unicode="&#xe2;" horiz-adv-x="991" 
d="M610 520l8 33q0 4 1.5 15.5t1.5 15.5q0 96 -164 96q-156 0 -275 -64l45 258q61 31 154.5 49.5t183.5 18.5q181 0 277 -74.5t96 -220.5q0 -28 -8 -94l-96 -553h-314l8 47q-31 -26 -87.5 -44.5t-121.5 -18.5q-131 0 -220 73t-89 195q0 100 55.5 175t142.5 111.5t191 36.5
q66 0 123 -16.5t88 -38.5zM563 256l10 55q-9 30 -42 48t-80 18q-53 0 -96.5 -26.5t-43.5 -76.5q0 -36 34.5 -56.5t80.5 -20.5q96 0 137 59zM776 1329l144 -309h-232l-61 113l-103 -113h-243l251 309h244z" />
    <glyph glyph-name="atilde" unicode="&#xe3;" horiz-adv-x="991" 
d="M610 520l8 33q0 4 1.5 15.5t1.5 15.5q0 96 -164 96q-156 0 -275 -64l45 258q61 31 154.5 49.5t183.5 18.5q181 0 277 -74.5t96 -220.5q0 -28 -8 -94l-96 -553h-314l8 47q-31 -26 -87.5 -44.5t-121.5 -18.5q-131 0 -220 73t-89 195q0 100 55.5 175t142.5 111.5t191 36.5
q66 0 123 -16.5t88 -38.5zM563 256l10 55q-9 30 -42 48t-80 18q-53 0 -96.5 -26.5t-43.5 -76.5q0 -36 34.5 -56.5t80.5 -20.5q96 0 137 59zM791 1325h178q-24 -137 -82 -222t-154 -85q-39 0 -71.5 18.5t-60 37t-54.5 18.5q-24 0 -41 -18.5t-23 -49.5h-178q17 89 45 154.5
t77 109t114 43.5q40 0 73 -18.5t60.5 -37t52.5 -18.5q23 0 40.5 18.5t23.5 49.5z" />
    <glyph glyph-name="adieresis" unicode="&#xe4;" horiz-adv-x="991" 
d="M610 520l8 33q0 4 1.5 15.5t1.5 15.5q0 96 -164 96q-156 0 -275 -64l45 258q61 31 154.5 49.5t183.5 18.5q181 0 277 -74.5t96 -220.5q0 -28 -8 -94l-96 -553h-314l8 47q-31 -26 -87.5 -44.5t-121.5 -18.5q-131 0 -220 73t-89 195q0 100 55.5 175t142.5 111.5t191 36.5
q66 0 123 -16.5t88 -38.5zM563 256l10 55q-9 30 -42 48t-80 18q-53 0 -96.5 -26.5t-43.5 -76.5q0 -36 34.5 -56.5t80.5 -20.5q96 0 137 59zM297 1161q0 66 46.5 112t111.5 46t111 -46t46 -112q0 -64 -46 -109.5t-111 -45.5t-111.5 45.5t-46.5 109.5zM659 1161q0 66 45.5 112
t110.5 46t112.5 -46.5t47.5 -111.5q0 -64 -47.5 -109.5t-112.5 -45.5t-110.5 45.5t-45.5 109.5z" />
    <glyph glyph-name="aring" unicode="&#xe5;" horiz-adv-x="991" 
d="M610 520l8 33q0 4 1.5 15.5t1.5 15.5q0 96 -164 96q-156 0 -275 -64l45 258q61 31 154.5 49.5t183.5 18.5q181 0 277 -74.5t96 -220.5q0 -28 -8 -94l-96 -553h-314l8 47q-31 -26 -87.5 -44.5t-121.5 -18.5q-131 0 -220 73t-89 195q0 100 55.5 175t142.5 111.5t191 36.5
q66 0 123 -16.5t88 -38.5zM563 256l10 55q-9 30 -42 48t-80 18q-53 0 -96.5 -26.5t-43.5 -76.5q0 -36 34.5 -56.5t80.5 -20.5q96 0 137 59zM637 1135q32 0 55 22t23 55q0 29 -20.5 49.5t-49.5 20.5q-32 0 -55 -23t-23 -57q0 -28 20.5 -47.5t49.5 -19.5zM631 993
q-90 0 -150.5 59t-60.5 146q0 93 67 159t164 66q90 0 150.5 -59.5t60.5 -146.5q0 -93 -66.5 -158.5t-164.5 -65.5z" />
    <glyph glyph-name="ae" unicode="&#xe6;" horiz-adv-x="1478" 
d="M680 109q-162 -129 -358 -129q-140 0 -226 71.5t-86 190.5q0 81 39.5 145t104.5 101.5t142 57t159 19.5h163q3 18 3 23q-5 44 -47.5 70t-118.5 26q-144 0 -271 -68l45 258q136 68 324 68q187 0 258 -102q51 46 122.5 74t145.5 28q178 0 274.5 -102t96.5 -281
q0 -83 -18 -174h-566v-8q19 -146 215 -146q156 0 287 76l-47 -258q-121 -69 -311 -69q-210 0 -330 129zM412 213q50 0 90.5 20.5t64.5 55.5l19 96h-131q-59 0 -100.5 -23t-41.5 -75q0 -35 28 -54.5t71 -19.5zM1061 698q-60 0 -103.5 -36t-68.5 -97h278v17q0 51 -27.5 83.5
t-78.5 32.5z" />
    <glyph glyph-name="ccedilla" unicode="&#xe7;" horiz-adv-x="833" 
d="M739 303l-47 -268q-86 -55 -215 -55q-196 0 -318 115.5t-122 310.5q0 148 65 270t186.5 194t276.5 72q84 0 158 -21.5t117 -54.5l-49 -272q-88 78 -197 78q-102 0 -171 -64.5t-69 -183.5q0 -82 53 -130t142 -48q103 0 190 57zM360 -371h-276l192 289h279z" />
    <glyph glyph-name="egrave" unicode="&#xe8;" horiz-adv-x="962" 
d="M913 387h-567q16 -156 217 -156q156 0 287 76l-47 -258q-121 -69 -318 -69q-208 0 -328 112.5t-120 302.5q0 149 64.5 273t185.5 199t274 75q178 0 274.5 -102t96.5 -281q0 -75 -19 -172zM723 1024h-272l-125 307h282zM543 698q-113 0 -168 -131h274q0 2 1 8.5t1 8.5
q0 51 -28.5 82.5t-79.5 31.5z" />
    <glyph glyph-name="eacute" unicode="&#xe9;" horiz-adv-x="962" 
d="M913 387h-567q16 -156 217 -156q156 0 287 76l-47 -258q-121 -69 -318 -69q-208 0 -328 112.5t-120 302.5q0 149 64.5 273t185.5 199t274 75q178 0 274.5 -102t96.5 -281q0 -75 -19 -172zM731 1024h-299l221 307h310zM543 698q-113 0 -168 -131h274q0 2 1 8.5t1 8.5
q0 51 -28.5 82.5t-79.5 31.5z" />
    <glyph glyph-name="ecircumflex" unicode="&#xea;" horiz-adv-x="962" 
d="M913 387h-567q16 -156 217 -156q156 0 287 76l-47 -258q-121 -69 -318 -69q-208 0 -328 112.5t-120 302.5q0 149 64.5 273t185.5 199t274 75q178 0 274.5 -102t96.5 -281q0 -75 -19 -172zM758 1329l143 -309h-231l-62 113l-102 -113h-244l252 309h244zM543 698
q-113 0 -168 -131h274q0 2 1 8.5t1 8.5q0 51 -28.5 82.5t-79.5 31.5z" />
    <glyph glyph-name="edieresis" unicode="&#xeb;" horiz-adv-x="962" 
d="M913 387h-567q16 -156 217 -156q156 0 287 76l-47 -258q-121 -69 -318 -69q-208 0 -328 112.5t-120 302.5q0 149 64.5 273t185.5 199t274 75q178 0 274.5 -102t96.5 -281q0 -75 -19 -172zM272 1161q0 66 46.5 112t111.5 46t111.5 -46t46.5 -112q0 -64 -46.5 -109.5
t-111.5 -45.5t-111.5 45.5t-46.5 109.5zM635 1161q0 66 45.5 112t110.5 46t112 -46t47 -112q0 -64 -47 -109.5t-112 -45.5t-110.5 45.5t-45.5 109.5zM543 698q-113 0 -168 -131h274q0 2 1 8.5t1 8.5q0 51 -28.5 82.5t-79.5 31.5z" />
    <glyph glyph-name="igrave" unicode="&#xec;" horiz-adv-x="495" 
d="M492 922l-162 -922h-322l162 922h322zM483 1024h-272l-125 307h283z" />
    <glyph glyph-name="iacute" unicode="&#xed;" horiz-adv-x="495" 
d="M492 1024h-299l221 307h309zM492 922l-162 -922h-322l162 922h322z" />
    <glyph glyph-name="icircumflex" unicode="&#xee;" horiz-adv-x="495" 
d="M518 1329l129 -309h-231l-49 110l-88 -110h-242l235 309h246zM492 922l-162 -922h-322l162 922h322z" />
    <glyph glyph-name="idieresis" unicode="&#xef;" horiz-adv-x="495" 
d="M43 1161q0 66 45.5 112t110.5 46t111 -46t46 -112q0 -64 -46 -109.5t-111 -45.5t-110.5 45.5t-45.5 109.5zM393 1161q0 66 45.5 112t110.5 46q66 0 113 -46t47 -112q0 -64 -47 -109.5t-113 -45.5q-65 0 -110.5 45.5t-45.5 109.5zM492 922l-162 -922h-322l162 922h322z
" />
    <glyph glyph-name="eth" unicode="&#xf0;" horiz-adv-x="1015" 
d="M387 977l-49 133l141 43q-71 87 -160 170v8h343q43 -41 88 -92l157 49l49 -133l-118 -37q141 -234 141 -516q0 -146 -40 -265t-109.5 -196.5t-162.5 -119t-200 -41.5q-193 0 -311.5 113t-118.5 304q0 237 143.5 387t354.5 150q59 0 98 -31h4q-17 46 -70 129zM475 246
q84 0 136.5 79.5t52.5 200.5q0 65 -32.5 106.5t-90.5 41.5q-82 0 -134.5 -80.5t-52.5 -200.5q0 -65 32 -106t89 -41z" />
    <glyph glyph-name="ntilde" unicode="&#xf1;" horiz-adv-x="1062" 
d="M8 0l162 922h322l-15 -80q100 100 256 100q131 0 206 -74t75 -198q0 -34 -6 -74l-105 -596h-321l92 526q4 32 4 35q0 44 -26 70t-77 26q-46 0 -86.5 -27.5t-60.5 -72.5l-98 -557h-322zM819 1325h178q-24 -138 -81.5 -222.5t-153.5 -84.5q-39 0 -72 18.5t-60.5 37
t-54.5 18.5q-24 0 -40.5 -18t-22.5 -50h-178q17 89 44.5 154.5t77 109t113.5 43.5q40 0 73.5 -18.5t61 -37t52.5 -18.5q23 0 40 18.5t23 49.5z" />
    <glyph glyph-name="ograve" unicode="&#xf2;" horiz-adv-x="1015" 
d="M475 246q84 0 136.5 80t52.5 202q0 67 -32.5 108.5t-90.5 41.5q-82 0 -134.5 -81.5t-52.5 -203.5q0 -65 32 -106t89 -41zM467 -20q-193 0 -311.5 113t-118.5 304q0 157 69 282.5t185.5 194t257.5 68.5q193 0 311.5 -113.5t118.5 -304.5q0 -118 -40 -220.5t-109 -173
t-163 -110.5t-200 -40zM737 1024h-272l-125 307h283z" />
    <glyph glyph-name="oacute" unicode="&#xf3;" horiz-adv-x="1015" 
d="M745 1024h-299l222 307h309zM475 246q84 0 136.5 80t52.5 202q0 67 -32.5 108.5t-90.5 41.5q-82 0 -134.5 -81.5t-52.5 -203.5q0 -65 32 -106t89 -41zM467 -20q-193 0 -311.5 113t-118.5 304q0 157 69 282.5t185.5 194t257.5 68.5q193 0 311.5 -113.5t118.5 -304.5
q0 -118 -40 -220.5t-109 -173t-163 -110.5t-200 -40z" />
    <glyph glyph-name="ocircumflex" unicode="&#xf4;" horiz-adv-x="1015" 
d="M770 1329l143 -309h-231l-61 113l-103 -113h-244l252 309h244zM475 246q84 0 136.5 80t52.5 202q0 67 -32.5 108.5t-90.5 41.5q-82 0 -134.5 -81.5t-52.5 -203.5q0 -65 32 -106t89 -41zM467 -20q-193 0 -311.5 113t-118.5 304q0 157 69 282.5t185.5 194t257.5 68.5
q193 0 311.5 -113.5t118.5 -304.5q0 -118 -40 -220.5t-109 -173t-163 -110.5t-200 -40z" />
    <glyph glyph-name="otilde" unicode="&#xf5;" horiz-adv-x="1015" 
d="M475 246q84 0 136.5 80t52.5 202q0 67 -32.5 108.5t-90.5 41.5q-82 0 -134.5 -81.5t-52.5 -203.5q0 -65 32 -106t89 -41zM467 -20q-193 0 -311.5 113t-118.5 304q0 157 69 282.5t185.5 194t257.5 68.5q193 0 311.5 -113.5t118.5 -304.5q0 -118 -40 -220.5t-109 -173
t-163 -110.5t-200 -40zM784 1325h179q-24 -137 -82 -222t-154 -85q-39 0 -71.5 18.5t-60 37t-54.5 18.5q-24 0 -41 -18.5t-23 -49.5h-178q17 89 45 154.5t77 109t114 43.5q40 0 73 -18.5t60.5 -37t52.5 -18.5q23 0 40 18.5t23 49.5z" />
    <glyph glyph-name="odieresis" unicode="&#xf6;" horiz-adv-x="1015" 
d="M287 1161q0 66 46 112t111 46t111.5 -46t46.5 -112q0 -64 -46.5 -109.5t-111.5 -45.5t-111 45.5t-46 109.5zM649 1161q0 66 45.5 112t110.5 46t112.5 -46.5t47.5 -111.5q0 -64 -47.5 -109.5t-112.5 -45.5t-110.5 45.5t-45.5 109.5zM475 246q84 0 136.5 80t52.5 202
q0 67 -32.5 108.5t-90.5 41.5q-82 0 -134.5 -81.5t-52.5 -203.5q0 -65 32 -106t89 -41zM467 -20q-193 0 -311.5 113t-118.5 304q0 157 69 282.5t185.5 194t257.5 68.5q193 0 311.5 -113.5t118.5 -304.5q0 -118 -40 -220.5t-109 -173t-163 -110.5t-200 -40z" />
    <glyph glyph-name="divide" unicode="&#xf7;" horiz-adv-x="1138" 
d="M111 494l43 237h927l-41 -237h-929zM498 981q0 67 48.5 114.5t117.5 47.5q68 0 116.5 -47.5t48.5 -114.5t-48.5 -114.5t-116.5 -47.5q-69 0 -117.5 47.5t-48.5 114.5zM369 244q0 67 48.5 114.5t117.5 47.5q68 0 116.5 -47.5t48.5 -114.5t-48.5 -114.5t-116.5 -47.5
q-69 0 -117.5 47.5t-48.5 114.5z" />
    <glyph glyph-name="oslash" unicode="&#xf8;" horiz-adv-x="1036" 
d="M41 33l90 96q-84 111 -84 268t69 282.5t185.5 194t257.5 68.5q150 0 260 -74l88 95l90 -76l-92 -99q84 -108 84 -264q0 -118 -40 -220.5t-109 -173t-163 -110.5t-200 -40q-154 0 -260 71l-86 -92zM350 387v-22l283 303q-35 24 -80 24q-85 0 -144 -90t-59 -215zM485 231
q85 0 144 90t59 216v18l-280 -301q33 -23 77 -23z" />
    <glyph glyph-name="ugrave" unicode="&#xf9;" horiz-adv-x="1052" 
d="M1049 922l-162 -922h-322l15 80q-104 -100 -256 -100q-129 0 -203 73t-74 197q0 36 6 76l105 596h321l-90 -527q-6 -21 -6 -45q0 -94 96 -94q47 0 88.5 29t61.5 75l98 562h322zM758 1024h-273l-125 307h283z" />
    <glyph glyph-name="uacute" unicode="&#xfa;" horiz-adv-x="1052" 
d="M766 1024h-299l221 307h309zM1049 922l-162 -922h-322l15 80q-104 -100 -256 -100q-129 0 -203 73t-74 197q0 36 6 76l105 596h321l-90 -527q-6 -21 -6 -45q0 -94 96 -94q47 0 88.5 29t61.5 75l98 562h322z" />
    <glyph glyph-name="ucircumflex" unicode="&#xfb;" horiz-adv-x="1052" 
d="M793 1329l143 -309h-231l-62 113l-102 -113h-244l252 309h244zM1049 922l-162 -922h-322l15 80q-104 -100 -256 -100q-129 0 -203 73t-74 197q0 36 6 76l105 596h321l-90 -527q-6 -21 -6 -45q0 -94 96 -94q47 0 88.5 29t61.5 75l98 562h322z" />
    <glyph glyph-name="udieresis" unicode="&#xfc;" horiz-adv-x="1052" 
d="M311 1161q0 66 46.5 112t111.5 46t111.5 -46t46.5 -112q0 -64 -46.5 -109.5t-111.5 -45.5t-111.5 45.5t-46.5 109.5zM674 1161q0 66 45 112t110 46t112.5 -46.5t47.5 -111.5q0 -64 -47.5 -109.5t-112.5 -45.5t-110 45t-45 110zM1049 922l-162 -922h-322l15 80
q-104 -100 -256 -100q-129 0 -203 73t-74 197q0 36 6 76l105 596h321l-90 -527q-6 -21 -6 -45q0 -94 96 -94q47 0 88.5 29t61.5 75l98 562h322z" />
    <glyph glyph-name="yacute" unicode="&#xfd;" horiz-adv-x="1017" 
d="M350 -326h-321l215 361l-150 887h303l80 -529l289 529h321zM733 1024h-299l221 307h310z" />
    <glyph glyph-name="thorn" unicode="&#xfe;" horiz-adv-x="1091" 
d="M342 74l-70 -400h-321l291 1657h321l-86 -487q42 42 104.5 70t131.5 28q164 0 253 -111.5t89 -283.5q0 -155 -60.5 -284t-173 -206t-254.5 -77q-74 0 -136 27t-89 67zM430 578l-41 -238q11 -39 47 -62.5t86 -23.5q91 0 149 73t58 187q0 70 -36 113t-103 43
q-97 0 -160 -92z" />
    <glyph glyph-name="ydieresis" unicode="&#xff;" horiz-adv-x="1017" 
d="M350 -326h-321l215 361l-150 887h303l80 -529l289 529h321zM281 1161q0 66 46 112t111 46t111.5 -46t46.5 -112q0 -64 -46.5 -109.5t-111.5 -45.5t-111 45.5t-46 109.5zM643 1161q0 66 45.5 112t110.5 46t112 -46t47 -112q0 -64 -47 -109.5t-112 -45.5t-110.5 45.5
t-45.5 109.5z" />
    <glyph glyph-name="Amacron" unicode="&#x100;" horiz-adv-x="1323" 
d="M651 1257h336l244 -1257h-326l-45 244h-459l-135 -244h-327zM561 1364l39 221h545l-39 -221h-545zM750 868l-199 -354h262z" />
    <glyph glyph-name="amacron" unicode="&#x101;" horiz-adv-x="991" 
d="M610 520l8 33q0 4 1.5 15.5t1.5 15.5q0 96 -164 96q-156 0 -275 -64l45 258q61 31 154.5 49.5t183.5 18.5q181 0 277 -74.5t96 -220.5q0 -28 -8 -94l-96 -553h-314l8 47q-31 -26 -87.5 -44.5t-121.5 -18.5q-131 0 -220 73t-89 195q0 100 55.5 175t142.5 111.5t191 36.5
q66 0 123 -16.5t88 -38.5zM563 256l10 55q-9 30 -42 48t-80 18q-53 0 -96.5 -26.5t-43.5 -76.5q0 -36 34.5 -56.5t80.5 -20.5q96 0 137 59zM354 1032l39 221h516l-39 -221h-516z" />
    <glyph glyph-name="Abreve" unicode="&#x102;" horiz-adv-x="1323" 
d="M651 1257h336l244 -1257h-326l-45 244h-459l-135 -244h-327zM842 1348q-132 0 -207.5 80t-48.5 219h221q-15 -86 57 -86q75 0 90 86h222q-26 -146 -113 -222.5t-221 -76.5zM750 868l-199 -354h262z" />
    <glyph glyph-name="abreve" unicode="&#x103;" horiz-adv-x="991" 
d="M610 520l8 33q0 4 1.5 15.5t1.5 15.5q0 96 -164 96q-156 0 -275 -64l45 258q61 31 154.5 49.5t183.5 18.5q181 0 277 -74.5t96 -220.5q0 -28 -8 -94l-96 -553h-314l8 47q-31 -26 -87.5 -44.5t-121.5 -18.5q-131 0 -220 73t-89 195q0 100 55.5 175t142.5 111.5t191 36.5
q66 0 123 -16.5t88 -38.5zM563 256l10 55q-9 30 -42 48t-80 18q-53 0 -96.5 -26.5t-43.5 -76.5q0 -36 34.5 -56.5t80.5 -20.5q96 0 137 59zM618 999q-132 0 -206 82.5t-47 225.5h221q-9 -46 4.5 -71.5t48.5 -25.5q73 0 92 97h219q-27 -150 -114.5 -229t-217.5 -79z" />
    <glyph glyph-name="Aogonek" unicode="&#x104;" horiz-adv-x="1323" 
d="M651 1257h336l244 -1257q-7 -7 -22 -21t-21.5 -21t-18.5 -19t-18 -18.5t-15 -17t-13 -17.5t-8.5 -16t-6.5 -16.5t-2 -15.5q0 -31 31 -31q27 0 77 31l-30 -178q-66 -39 -142 -39q-72 0 -114.5 35t-42.5 98q0 47 24 94t50.5 77t74.5 75h-129l-45 244h-459l-135 -244h-327z
M750 868l-197 -354h260z" />
    <glyph glyph-name="aogonek" unicode="&#x105;" horiz-adv-x="991" 
d="M563 256l10 55q-9 30 -42 48t-80 18q-53 0 -96.5 -26.5t-43.5 -76.5q0 -36 34.5 -56.5t80.5 -20.5q96 0 137 59zM635 0h-115l8 47q-31 -26 -87.5 -44.5t-121.5 -18.5q-131 0 -220 73t-89 195q0 100 55.5 175t142.5 111.5t191 36.5q66 0 123 -16.5t88 -38.5l8 33
q0 4 1.5 15.5t1.5 15.5q0 96 -164 96q-156 0 -275 -64l45 258q61 31 154.5 49.5t183.5 18.5q181 0 277 -74.5t96 -220.5q0 -28 -8 -94l-96 -553q-9 -9 -28 -27t-27.5 -26.5t-22.5 -23t-21 -23.5t-14.5 -20.5t-10.5 -21.5t-3 -20q0 -31 32 -31q28 0 78 31l-33 -178
q-66 -39 -139 -39t-115.5 34.5t-42.5 98.5q0 36 11.5 69t36 66t44.5 54.5t56 56.5z" />
    <glyph glyph-name="Cacute" unicode="&#x106;" horiz-adv-x="1083" 
d="M997 377l-55 -322q-132 -75 -303 -75q-252 0 -408.5 153t-156.5 404q0 220 98.5 390.5t263 260.5t365.5 90q102 0 194 -24t146 -64l-56 -318q-121 103 -286 103q-169 0 -281 -112.5t-112 -297.5q0 -131 78.5 -205.5t207.5 -74.5q165 0 305 92zM987 1364h-323l215 266h335
z" />
    <glyph glyph-name="cacute" unicode="&#x107;" horiz-adv-x="833" 
d="M731 1024h-299l221 307h310zM739 303l-47 -268q-86 -55 -215 -55q-196 0 -318 115.5t-122 310.5q0 148 65 270t186.5 194t276.5 72q84 0 158 -21.5t117 -54.5l-49 -272q-88 78 -197 78q-102 0 -171 -64.5t-69 -183.5q0 -82 53 -130t142 -48q103 0 190 57z" />
    <glyph glyph-name="Ccircumflex" unicode="&#x108;" horiz-adv-x="1083" 
d="M997 377l-55 -322q-132 -75 -303 -75q-252 0 -408.5 153t-156.5 404q0 220 98.5 390.5t263 260.5t365.5 90q102 0 194 -24t146 -64l-56 -318q-121 103 -286 103q-169 0 -281 -112.5t-112 -297.5q0 -131 78.5 -205.5t207.5 -74.5q165 0 305 92zM997 1634l172 -270h-249
l-70 92l-102 -92h-267l271 270h245z" />
    <glyph glyph-name="ccircumflex" unicode="&#x109;" horiz-adv-x="833" 
d="M756 1329l143 -309h-231l-62 113l-102 -113h-244l252 309h244zM739 303l-47 -268q-86 -55 -215 -55q-196 0 -318 115.5t-122 310.5q0 148 65 270t186.5 194t276.5 72q84 0 158 -21.5t117 -54.5l-49 -272q-88 78 -197 78q-102 0 -171 -64.5t-69 -183.5q0 -82 53 -130
t142 -48q103 0 190 57z" />
    <glyph glyph-name="Cdotaccent" unicode="&#x10a;" horiz-adv-x="1083" 
d="M1044 1522q0 -77 -53 -125.5t-129 -48.5t-129 48.5t-53 125.5q0 76 53 124t129 48t129 -48t53 -124zM997 377l-55 -322q-132 -75 -303 -75q-252 0 -408.5 153t-156.5 404q0 220 98.5 390.5t263 260.5t365.5 90q102 0 194 -24t146 -64l-56 -318q-121 103 -286 103
q-169 0 -281 -112.5t-112 -297.5q0 -131 78.5 -205.5t207.5 -74.5q165 0 305 92z" />
    <glyph glyph-name="cdotaccent" unicode="&#x10b;" horiz-adv-x="833" 
d="M739 303l-47 -268q-86 -55 -215 -55q-196 0 -318 115.5t-122 310.5q0 148 65 270t186.5 194t276.5 72q84 0 158 -21.5t117 -54.5l-49 -272q-88 78 -197 78q-102 0 -171 -64.5t-69 -183.5q0 -82 53 -130t142 -48q103 0 190 57zM799 1186q0 -76 -53.5 -124t-129.5 -48
t-129 48t-53 124q0 77 53 125.5t129 48.5t129.5 -48.5t53.5 -125.5z" />
    <glyph glyph-name="Ccaron" unicode="&#x10c;" horiz-adv-x="1083" 
d="M997 377l-55 -322q-132 -75 -303 -75q-252 0 -408.5 153t-156.5 404q0 220 98.5 390.5t263 260.5t365.5 90q102 0 194 -24t146 -64l-56 -318q-121 103 -286 103q-169 0 -281 -112.5t-112 -297.5q0 -131 78.5 -205.5t207.5 -74.5q165 0 305 92zM717 1358l-172 272h250
l69 -94l103 94h266l-270 -272h-246z" />
    <glyph glyph-name="ccaron" unicode="&#x10d;" horiz-adv-x="833" 
d="M473 1020l-143 309h231l62 -115l102 115h244l-252 -309h-244zM739 303l-47 -268q-86 -55 -215 -55q-196 0 -318 115.5t-122 310.5q0 148 65 270t186.5 194t276.5 72q84 0 158 -21.5t117 -54.5l-49 -272q-88 78 -197 78q-102 0 -171 -64.5t-69 -183.5q0 -82 53 -130
t142 -48q103 0 190 57z" />
    <glyph glyph-name="Dcaron" unicode="&#x10e;" horiz-adv-x="1253" 
d="M608 1358l-172 272h250l70 -94l102 94h266l-270 -272h-246zM391 285h137q177 0 281 115t104 302q0 130 -68.5 201.5t-201.5 71.5h-131zM16 0l222 1257h464q262 0 401.5 -138t139.5 -384q0 -159 -54.5 -295t-152 -233t-237 -152t-303.5 -55h-480z" />
    <glyph glyph-name="dcaron" unicode="&#x10f;" horiz-adv-x="1089" 
d="M1405 989h-250l158 342h252zM750 848l84 483h319l-233 -1331h-320l12 78q-42 -42 -103.5 -70t-131.5 -28q-162 0 -251 111.5t-89 283.5q0 153 59.5 281.5t172.5 207t255 78.5q74 0 136.5 -27t89.5 -67zM659 346l43 238q-11 38 -47 62t-86 24q-89 0 -148 -76.5t-59 -185.5
q0 -68 36.5 -111t103.5 -43q97 0 157 92z" />
    <glyph glyph-name="Dcroat" unicode="&#x110;" horiz-adv-x="1286" 
d="M47 514l45 254h92l86 489h465q262 0 401.5 -138t139.5 -384q0 -159 -55 -295t-152 -233t-237 -152t-304 -55h-479l90 514h-92zM424 285h137q177 0 281 115t104 302q0 130 -68.5 201.5t-201.5 71.5h-131l-37 -207h180l-45 -254h-180z" />
    <glyph glyph-name="dcroat" unicode="&#x111;" horiz-adv-x="1089" 
d="M608 1004l35 208h170l21 119h319l-20 -119h98l-37 -208h-98l-176 -1004h-320l12 78q-42 -42 -103.5 -70t-131.5 -28q-162 0 -251 111.5t-89 283.5q0 153 59.5 281.5t172.5 207t255 78.5q74 0 136.5 -27t89.5 -67l26 156h-168zM659 346l43 238q-11 38 -47 62t-86 24
q-89 0 -148 -76.5t-59 -185.5q0 -68 36.5 -111t103.5 -43q97 0 157 92z" />
    <glyph glyph-name="Emacron" unicode="&#x112;" horiz-adv-x="1062" 
d="M436 1364l39 221h545l-39 -221h-545zM238 1257h901l-49 -282h-578l-35 -197h524l-47 -276h-526l-37 -217h576l-49 -285h-902z" />
    <glyph glyph-name="emacron" unicode="&#x113;" horiz-adv-x="962" 
d="M913 387h-567q16 -156 217 -156q156 0 287 76l-47 -258q-121 -69 -318 -69q-208 0 -328 112.5t-120 302.5q0 149 64.5 273t185.5 199t274 75q178 0 274.5 -102t96.5 -281q0 -75 -19 -172zM336 1032l39 221h516l-39 -221h-516zM543 698q-113 0 -168 -131h274q0 2 1 8.5
t1 8.5q0 51 -28.5 82.5t-79.5 31.5z" />
    <glyph glyph-name="Ebreve" unicode="&#x114;" horiz-adv-x="1062" 
d="M719 1348q-132 0 -207.5 80t-48.5 219h221q-15 -86 57 -86q75 0 90 86h222q-26 -146 -113 -222.5t-221 -76.5zM238 1257h901l-49 -282h-578l-35 -197h524l-47 -276h-526l-37 -217h576l-49 -285h-902z" />
    <glyph glyph-name="ebreve" unicode="&#x115;" horiz-adv-x="962" 
d="M913 387h-567q16 -156 217 -156q156 0 287 76l-47 -258q-121 -69 -318 -69q-208 0 -328 112.5t-120 302.5q0 149 64.5 273t185.5 199t274 75q178 0 274.5 -102t96.5 -281q0 -75 -19 -172zM600 999q-132 0 -206.5 83t-47.5 225h221q-9 -46 5 -71.5t49 -25.5q73 0 92 97
h219q-27 -150 -114.5 -229t-217.5 -79zM543 698q-113 0 -168 -131h274q0 2 1 8.5t1 8.5q0 51 -28.5 82.5t-79.5 31.5z" />
    <glyph glyph-name="Edotaccent" unicode="&#x116;" horiz-adv-x="1062" 
d="M915 1522q0 -77 -53 -125.5t-129 -48.5t-129 48.5t-53 125.5q0 76 53 124t129 48t129 -48t53 -124zM238 1257h901l-49 -282h-578l-35 -197h524l-47 -276h-526l-37 -217h576l-49 -285h-902z" />
    <glyph glyph-name="edotaccent" unicode="&#x117;" horiz-adv-x="962" 
d="M913 387h-567q16 -156 217 -156q156 0 287 76l-47 -258q-121 -69 -318 -69q-208 0 -328 112.5t-120 302.5q0 149 64.5 273t185.5 199t274 75q178 0 274.5 -102t96.5 -281q0 -75 -19 -172zM801 1186q0 -76 -53.5 -124t-129.5 -48t-129 48t-53 124q0 77 53 125.5t129 48.5
t129.5 -48.5t53.5 -125.5zM543 698q-113 0 -168 -131h274q0 2 1 8.5t1 8.5q0 51 -28.5 82.5t-79.5 31.5z" />
    <glyph glyph-name="Eogonek" unicode="&#x118;" horiz-adv-x="1062" 
d="M238 1257h901l-49 -282h-578l-35 -197h524l-47 -276h-526l-37 -217h576l-49 -285h-78q-13 -13 -38 -37t-37 -36t-27 -29.5t-21 -31.5t-6 -28q0 -31 32 -31q28 0 78 31l-33 -178q-66 -39 -139 -39t-115 34.5t-42 98.5q0 47 24 94t50.5 77t74.5 75h-625z" />
    <glyph glyph-name="eogonek" unicode="&#x119;" horiz-adv-x="962" 
d="M913 387h-563v-10q23 -146 213 -146q156 0 287 76l-47 -258q-55 -35 -90 -65q-97 -83 -97 -146q0 -14 9 -22.5t24 -8.5q28 0 78 31l-31 -178q-70 -39 -141 -39q-73 0 -115.5 34.5t-42.5 98.5q0 63 33 114.5t94 111.5h-39q-208 0 -328 112.5t-120 302.5q0 149 64.5 273
t185.5 199t274 75q178 0 274.5 -102t96.5 -281q0 -75 -19 -172zM543 698q-114 0 -172 -131h278q0 2 1 8.5t1 8.5q0 51 -28.5 82.5t-79.5 31.5z" />
    <glyph glyph-name="Ecaron" unicode="&#x11a;" horiz-adv-x="1062" 
d="M590 1358l-172 272h250l69 -94l103 94h266l-270 -272h-246zM238 1257h901l-49 -282h-578l-35 -197h524l-47 -276h-526l-37 -217h576l-49 -285h-902z" />
    <glyph glyph-name="ecaron" unicode="&#x11b;" horiz-adv-x="962" 
d="M913 387h-567q16 -156 217 -156q156 0 287 76l-47 -258q-121 -69 -318 -69q-208 0 -328 112.5t-120 302.5q0 149 64.5 273t185.5 199t274 75q178 0 274.5 -102t96.5 -281q0 -75 -19 -172zM473 1020l-143 309h231l62 -115l102 115h244l-252 -309h-244zM543 698
q-113 0 -168 -131h274q0 2 1 8.5t1 8.5q0 51 -28.5 82.5t-79.5 31.5z" />
    <glyph glyph-name="Gcircumflex" unicode="&#x11c;" horiz-adv-x="1218" 
d="M641 -20q-258 0 -412.5 158t-154.5 409q0 157 54 293t148 232t226 151t284 55q250 0 414 -111l-55 -319q-66 60 -161 93.5t-198 33.5q-174 0 -277 -112.5t-103 -301.5q0 -133 67.5 -211t183.5 -78q111 0 177 41l22 127h-182l47 262h471l-100 -573q-197 -149 -451 -149z
M995 1634l172 -270h-249l-70 92l-103 -92h-266l271 270h245z" />
    <glyph glyph-name="gcircumflex" unicode="&#x11d;" horiz-adv-x="1085" 
d="M838 1329l143 -309h-231l-62 113l-102 -113h-244l252 309h244zM616 94l7 33q-98 -94 -224 -94q-167 0 -259.5 109.5t-92.5 273.5q0 144 59 263.5t170 191t252 71.5q74 0 134 -26.5t88 -65.5l12 72h321l-141 -799q-84 -469 -571 -469q-104 0 -206.5 25.5t-160.5 66.5
l57 287q122 -119 310 -119q98 0 163.5 44t81.5 136zM666 369l39 227q-9 36 -46.5 59t-87.5 23q-89 0 -147.5 -73t-58.5 -175q0 -66 36.5 -106.5t102.5 -40.5q98 0 162 86z" />
    <glyph glyph-name="Gbreve" unicode="&#x11e;" horiz-adv-x="1218" 
d="M844 1348q-132 0 -207.5 80t-48.5 219h221q-15 -86 57 -86q75 0 90 86h222q-26 -146 -113 -222.5t-221 -76.5zM641 -20q-258 0 -412.5 158t-154.5 409q0 157 54 293t148 232t226 151t284 55q250 0 414 -111l-55 -319q-66 60 -161 93.5t-198 33.5q-174 0 -277 -112.5
t-103 -301.5q0 -133 67.5 -211t183.5 -78q111 0 177 41l22 127h-182l47 262h471l-100 -573q-197 -149 -451 -149z" />
    <glyph glyph-name="gbreve" unicode="&#x11f;" horiz-adv-x="1085" 
d="M616 94l7 33q-98 -94 -224 -94q-167 0 -259.5 109.5t-92.5 273.5q0 144 59 263.5t170 191t252 71.5q74 0 134 -26.5t88 -65.5l12 72h321l-141 -799q-84 -469 -571 -469q-104 0 -206.5 25.5t-160.5 66.5l57 287q122 -119 310 -119q98 0 163.5 44t81.5 136zM666 369l39 227
q-9 36 -46.5 59t-87.5 23q-89 0 -147.5 -73t-58.5 -175q0 -66 36.5 -106.5t102.5 -40.5q98 0 162 86zM680 999q-132 0 -206.5 83t-47.5 225h221q-9 -46 4.5 -71.5t48.5 -25.5q74 0 93 97h219q-27 -150 -114.5 -229t-217.5 -79z" />
    <glyph glyph-name="Gdotaccent" unicode="&#x120;" horiz-adv-x="1218" 
d="M1042 1522q0 -77 -53 -125.5t-129 -48.5t-129 48.5t-53 125.5q0 76 53 124t129 48t129 -48t53 -124zM641 -20q-258 0 -412.5 158t-154.5 409q0 157 54 293t148 232t226 151t284 55q250 0 414 -111l-55 -319q-66 60 -161 93.5t-198 33.5q-174 0 -277 -112.5t-103 -301.5
q0 -133 67.5 -211t183.5 -78q111 0 177 41l22 127h-182l47 262h471l-100 -573q-197 -149 -451 -149z" />
    <glyph glyph-name="gdotaccent" unicode="&#x121;" horiz-adv-x="1085" 
d="M616 94l7 33q-98 -94 -224 -94q-167 0 -259.5 109.5t-92.5 273.5q0 144 59 263.5t170 191t252 71.5q74 0 134 -26.5t88 -65.5l12 72h321l-141 -799q-84 -469 -571 -469q-104 0 -206.5 25.5t-160.5 66.5l57 287q122 -119 310 -119q98 0 163.5 44t81.5 136zM666 369l39 227
q-9 36 -46.5 59t-87.5 23q-89 0 -147.5 -73t-58.5 -175q0 -66 36.5 -106.5t102.5 -40.5q98 0 162 86zM883 1186q0 -76 -53.5 -124t-129.5 -48t-129 48t-53 124q0 77 53 125.5t129 48.5t129.5 -48.5t53.5 -125.5z" />
    <glyph glyph-name="Gcommaaccent" unicode="&#x122;" horiz-adv-x="1218" 
d="M358 -483l113 127q-41 16 -67.5 52t-26.5 87q0 65 47.5 107t118.5 42q69 0 117.5 -43.5t48.5 -117.5q0 -93 -97 -195l-55 -59h-199zM641 -20q-258 0 -412.5 158t-154.5 409q0 157 54 293t148 232t226 151t284 55q250 0 414 -111l-55 -319q-66 60 -161 93.5t-198 33.5
q-174 0 -277 -112.5t-103 -301.5q0 -133 67.5 -211t183.5 -78q111 0 177 41l22 127h-182l47 262h471l-100 -573q-197 -149 -451 -149z" />
    <glyph glyph-name="gcommaaccent" unicode="&#x123;" horiz-adv-x="1085" 
d="M885 1425l-121 -137q41 -16 66.5 -51.5t25.5 -85.5q0 -66 -46.5 -109t-117.5 -43q-70 0 -118 44t-48 118q0 93 97 195l63 69h199zM616 94l7 33q-98 -94 -224 -94q-167 0 -259.5 109.5t-92.5 273.5q0 144 59 263.5t170 191t252 71.5q74 0 134 -26.5t88 -65.5l12 72h321
l-141 -799q-84 -469 -571 -469q-104 0 -206.5 25.5t-160.5 66.5l57 287q122 -119 310 -119q98 0 163.5 44t81.5 136zM666 369l39 227q-9 36 -46.5 59t-87.5 23q-89 0 -147.5 -73t-58.5 -175q0 -66 36.5 -106.5t102.5 -40.5q98 0 162 86z" />
    <glyph glyph-name="Hcircumflex" unicode="&#x124;" horiz-adv-x="1331" 
d="M1053 1257h329l-221 -1257h-330l89 498h-486l-88 -498h-330l222 1257h329l-84 -477h486zM991 1634l172 -270h-250l-69 92l-103 -92h-266l270 270h246z" />
    <glyph glyph-name="hcircumflex" unicode="&#x125;" horiz-adv-x="1062" 
d="M733 942q131 0 206 -74t75 -198q0 -34 -6 -74l-105 -596h-321l92 526q4 32 4 35q0 44 -26 70t-77 26q-46 0 -86.5 -27.5t-60.5 -72.5l-98 -557h-322l234 1331h321l-86 -489q100 100 256 100zM797 1653l172 -271h-250l-70 93l-102 -93h-266l270 271h246z" />
    <glyph glyph-name="Hbar" unicode="&#x126;" horiz-adv-x="1398" 
d="M1085 1257h330l-29 -163h95l-45 -252h-95l-147 -842h-330l72 408h-485l-72 -408h-330l148 842h-93l43 252h95l28 163h330l-29 -163h486zM494 657h485l33 185h-486z" />
    <glyph glyph-name="hbar" unicode="&#x127;" horiz-adv-x="1062" 
d="M88 1004l37 208h96l21 119h321l-20 -119h168l-37 -208h-168l-29 -162q100 100 256 100q131 0 206 -74t75 -198q0 -34 -6 -74l-105 -596h-321l92 526q4 32 4 35q0 44 -26 70t-77 26q-46 0 -86.5 -27.5t-60.5 -72.5l-98 -557h-322l176 1004h-96z" />
    <glyph glyph-name="Itilde" unicode="&#x128;" horiz-adv-x="518" 
d="M567 1257l-221 -1257h-330l222 1257h329zM614 1659h177q-22 -136 -80.5 -221.5t-153.5 -85.5q-50 0 -116.5 36.5t-94.5 36.5q-25 0 -41.5 -18t-21.5 -49h-179q24 137 81.5 222t152.5 85q51 0 117 -37t94 -37q24 0 41.5 18.5t23.5 49.5z" />
    <glyph glyph-name="itilde" unicode="&#x129;" horiz-adv-x="495" 
d="M516 1325h178q-15 -88 -42.5 -154t-75 -109.5t-109.5 -43.5q-38 0 -68.5 18t-55 36t-48.5 18q-23 0 -39.5 -17.5t-22.5 -48.5h-176q24 137 80.5 222t147.5 85q38 0 68.5 -17.5t55 -35.5t48.5 -18q22 0 38.5 17.5t20.5 47.5zM492 922l-162 -922h-322l162 922h322z" />
    <glyph glyph-name="Imacron" unicode="&#x12a;" horiz-adv-x="518" 
d="M567 1257l-221 -1257h-330l222 1257h329zM152 1364l38 221h545l-39 -221h-544z" />
    <glyph glyph-name="imacron" unicode="&#x12b;" horiz-adv-x="495" 
d="M102 1032l39 221h498l-39 -221h-498zM492 922l-162 -922h-322l162 922h322z" />
    <glyph glyph-name="Ibreve" unicode="&#x12c;" horiz-adv-x="518" 
d="M567 1257l-221 -1257h-330l222 1257h329zM434 1348q-132 0 -207.5 80t-48.5 219h221q-7 -42 8.5 -64t49.5 -22q75 0 90 86h221q-26 -146 -113 -222.5t-221 -76.5z" />
    <glyph glyph-name="ibreve" unicode="&#x12d;" horiz-adv-x="495" 
d="M356 999q-128 0 -198 82.5t-43 225.5h219q-19 -97 45 -97q65 0 84 97h219q-27 -150 -113 -229t-213 -79zM492 922l-162 -922h-322l162 922h322z" />
    <glyph glyph-name="Iogonek" unicode="&#x12e;" horiz-adv-x="518" 
d="M567 1257l-221 -1257q-10 -10 -31.5 -31t-31 -30.5t-24 -26t-21 -27t-12 -23.5t-5.5 -24q0 -31 31 -31q28 0 78 31l-31 -178q-66 -39 -141 -39q-72 0 -115 35t-43 98q0 47 24 94t51 76.5t75 75.5h-134l222 1257h329z" />
    <glyph glyph-name="iogonek" unicode="&#x12f;" horiz-adv-x="495" 
d="M557 1180q0 -82 -54.5 -131.5t-131.5 -49.5q-75 0 -126.5 46t-51.5 120q0 81 55 131t131 50q75 0 126.5 -46t51.5 -120zM8 0l162 922h322l-162 -922q-11 -11 -37.5 -36.5t-37 -36.5t-25.5 -29.5t-21 -32t-6 -27.5t9 -22.5t24 -8.5q27 0 77 31l-30 -178q-66 -39 -142 -39
q-72 0 -114.5 35t-42.5 98q0 47 24 94t50.5 77t74.5 75h-125z" />
    <glyph glyph-name="Idotaccent" unicode="&#x130;" horiz-adv-x="518" 
d="M567 1257l-221 -1257h-330l222 1257h329zM631 1522q0 -77 -53 -125.5t-129 -48.5t-129.5 48.5t-53.5 125.5q0 76 53.5 124t129.5 48t129 -48t53 -124z" />
    <glyph glyph-name="dotlessi" unicode="&#x131;" horiz-adv-x="495" 
d="M492 922l-162 -922h-322l162 922h322z" />
    <glyph glyph-name="IJ" unicode="&#x132;" horiz-adv-x="1337" 
d="M567 1257l-221 -1257h-330l222 1257h329zM461 53l53 309q60 -44 110.5 -65t116.5 -21q90 0 134.5 52t66.5 174l133 755h330l-145 -815q-78 -462 -527 -462q-82 0 -156.5 22t-115.5 51z" />
    <glyph glyph-name="ij" unicode="&#x133;" horiz-adv-x="989" 
d="M492 922l-162 -922h-322l162 922h322zM557 1180q0 -82 -54.5 -131.5t-131.5 -49.5q-75 0 -126.5 46t-51.5 120q0 81 55 131t131 50q75 0 126.5 -46t51.5 -120zM293 -324l43 244q32 -14 67 -14q43 0 67.5 23.5t33.5 78.5l162 914h321l-160 -902q-63 -366 -389 -366
q-84 0 -145 22zM1053 1180q0 -82 -55 -131.5t-132 -49.5q-75 0 -126.5 46t-51.5 120q0 81 55 131t131 50q75 0 127 -46.5t52 -119.5z" />
    <glyph glyph-name="Jcircumflex" unicode="&#x134;" horiz-adv-x="843" 
d="M-35 53l53 309q60 -44 111 -65t117 -21q90 0 134 52t66 174l134 755h329l-145 -815q-78 -462 -526 -462q-82 0 -157 22t-116 51zM924 1634l172 -270h-250l-70 92l-102 -92h-266l270 270h246z" />
    <glyph glyph-name="jcircumflex" unicode="&#x135;" horiz-adv-x="495" 
d="M518 1329l129 -309h-231l-49 110l-88 -110h-242l235 309h246zM-203 -324l43 244q31 -14 68 -14q43 0 67 23.5t33 78.5l162 914h322l-160 -902q-63 -366 -389 -366q-86 0 -146 22z" />
    <glyph glyph-name="Kcommaaccent" unicode="&#x136;" horiz-adv-x="1245" 
d="M305 -483l113 127q-41 16 -67.5 52t-26.5 87q0 65 47 107t118 42q69 0 117.5 -43.5t48.5 -117.5q0 -94 -96 -195l-55 -59h-199zM567 1257l-94 -534l488 534h397l-588 -628l383 -629h-375l-334 563l-98 -563h-330l222 1257h329z" />
    <glyph glyph-name="kcommaaccent" unicode="&#x137;" horiz-adv-x="1048" 
d="M698 471l267 -471h-342l-222 408l-71 -408h-322l234 1331h321l-133 -756l318 347h385zM219 -483l113 127q-41 16 -67.5 52t-26.5 87q0 65 47 107t118 42q69 0 117.5 -43.5t48.5 -117.5q0 -94 -96 -195l-55 -59h-199z" />
    <glyph glyph-name="kgreenlandic" unicode="&#x138;" horiz-adv-x="1048" 
d="M698 471l267 -471h-342l-222 408l-71 -408h-322l162 922h322l-62 -344l318 344h385z" />
    <glyph glyph-name="Lacute" unicode="&#x139;" horiz-adv-x="1044" 
d="M592 1364h-324l215 266h336zM16 0l222 1257h329l-172 -972h566l-50 -285h-895z" />
    <glyph glyph-name="lacute" unicode="&#x13a;" horiz-adv-x="495" 
d="M573 1384h-323l215 267h336zM563 1331l-233 -1331h-322l234 1331h321z" />
    <glyph glyph-name="Lcommaaccent" unicode="&#x13b;" horiz-adv-x="1044" 
d="M244 -483l112 127q-41 16 -67.5 52t-26.5 87q0 65 47.5 107t118.5 42q69 0 117.5 -43.5t48.5 -117.5q0 -94 -96 -195l-56 -59h-198zM16 0l222 1257h329l-172 -972h566l-50 -285h-895z" />
    <glyph glyph-name="lcommaaccent" unicode="&#x13c;" horiz-adv-x="495" 
d="M-66 -483l113 127q-41 16 -67.5 52t-26.5 87q0 65 47.5 107t118.5 42q69 0 117.5 -43.5t48.5 -117.5q0 -93 -97 -195l-55 -59h-199zM563 1331l-233 -1331h-322l234 1331h321z" />
    <glyph glyph-name="Lcaron" unicode="&#x13d;" horiz-adv-x="1044" 
d="M887 915h-250l158 342h252zM16 0l222 1257h329l-172 -972h566l-50 -285h-895z" />
    <glyph glyph-name="lcaron" unicode="&#x13e;" horiz-adv-x="495" 
d="M813 989h-250l158 342h252zM563 1331l-233 -1331h-322l234 1331h321z" />
    <glyph glyph-name="Ldot" unicode="&#x13f;" horiz-adv-x="1044" 
d="M16 0l222 1257h329l-172 -972h566l-50 -285h-895zM999 651q0 -76 -53 -124t-129 -48t-129 48t-53 124q0 77 53 125.5t129 48.5t129 -48.5t53 -125.5z" />
    <glyph glyph-name="ldot" unicode="&#x140;" horiz-adv-x="897" 
d="M563 1331l-233 -1331h-322l234 1331h321zM905 666q0 -76 -53 -124t-129 -48t-129 48t-53 124q0 77 53 125.5t129 48.5t129 -48.5t53 -125.5z" />
    <glyph glyph-name="Lslash" unicode="&#x141;" horiz-adv-x="1077" 
d="M29 410l45 262l100 39l96 546h330l-78 -442l240 94l-47 -264l-240 -94l-47 -266h565l-49 -285h-895l78 449z" />
    <glyph glyph-name="lslash" unicode="&#x142;" horiz-adv-x="600" 
d="M616 1331l-79 -450l131 59l-43 -235l-129 -58l-113 -647h-322l93 524l-117 -53l43 236l115 51l100 573h321z" />
    <glyph glyph-name="Nacute" unicode="&#x143;" horiz-adv-x="1292" 
d="M965 1364h-324l215 266h336zM1343 1257l-221 -1257h-254l-401 758l-133 -758h-318l222 1257h294l367 -714l127 714h317z" />
    <glyph glyph-name="nacute" unicode="&#x144;" horiz-adv-x="1062" 
d="M780 1024h-299l221 307h310zM8 0l162 922h322l-15 -80q100 100 256 100q131 0 206 -74t75 -198q0 -34 -6 -74l-105 -596h-321l92 526q4 32 4 35q0 44 -26 70t-77 26q-46 0 -86.5 -27.5t-60.5 -72.5l-98 -557h-322z" />
    <glyph glyph-name="Ncommaaccent" unicode="&#x145;" horiz-adv-x="1292" 
d="M336 -483l113 127q-41 16 -68 52t-27 87q0 65 47.5 107t118.5 42q69 0 117.5 -43.5t48.5 -117.5q0 -94 -96 -195l-55 -59h-199zM1343 1257l-221 -1257h-254l-401 758l-133 -758h-318l222 1257h294l367 -714l127 714h317z" />
    <glyph glyph-name="ncommaaccent" unicode="&#x146;" horiz-adv-x="1062" 
d="M223 -483l113 127q-41 16 -67.5 52t-26.5 87q0 65 47.5 107t118.5 42q69 0 117 -43.5t48 -117.5q0 -94 -96 -195l-55 -59h-199zM8 0l162 922h322l-15 -80q100 100 256 100q131 0 206 -74t75 -198q0 -34 -6 -74l-105 -596h-321l92 526q4 32 4 35q0 44 -26 70t-77 26
q-46 0 -86.5 -27.5t-60.5 -72.5l-98 -557h-322z" />
    <glyph glyph-name="Ncaron" unicode="&#x147;" horiz-adv-x="1292" 
d="M692 1358l-172 272h250l70 -94l102 94h266l-270 -272h-246zM1343 1257l-221 -1257h-254l-401 758l-133 -758h-318l222 1257h294l367 -714l127 714h317z" />
    <glyph glyph-name="ncaron" unicode="&#x148;" horiz-adv-x="1062" 
d="M510 1020l-143 309h231l61 -115l103 115h244l-252 -309h-244zM8 0l162 922h322l-15 -80q100 100 256 100q131 0 206 -74t75 -198q0 -34 -6 -74l-105 -596h-321l92 526q4 32 4 35q0 44 -26 70t-77 26q-46 0 -86.5 -27.5t-60.5 -72.5l-98 -557h-322z" />
    <glyph glyph-name="Eng" unicode="&#x14a;" horiz-adv-x="1292" 
d="M813 102l-346 656l-133 -758h-318l222 1257h294l367 -714l127 714h317l-200 -1146q-82 -465 -512 -465q-93 0 -187 37l48 278q67 -31 129 -31q80 0 124.5 38t67.5 134z" />
    <glyph glyph-name="eng" unicode="&#x14b;" horiz-adv-x="1062" 
d="M371 -324l43 244q32 -14 67 -14q43 0 68 23.5t35 78.5l90 518q4 32 4 35q0 44 -26 70t-77 26q-46 0 -86.5 -27.5t-60.5 -72.5l-98 -557h-322l162 922h322l-15 -80q100 100 256 100q131 0 206 -74t75 -198q0 -34 -6 -74l-101 -576q-63 -366 -389 -366q-86 0 -147 22z" />
    <glyph glyph-name="Omacron" unicode="&#x14c;" horiz-adv-x="1316" 
d="M545 1364l39 221h544l-38 -221h-545zM649 268q140 0 233 117.5t93 312.5q0 129 -66.5 210t-177.5 81q-141 0 -233 -117t-92 -313q0 -129 66 -210t177 -81zM639 -20q-258 0 -411.5 158.5t-153.5 412.5q0 155 52 290.5t141 231t212 150.5t262 55q258 0 412 -158.5
t154 -412.5q0 -206 -88.5 -373t-241 -260.5t-338.5 -93.5z" />
    <glyph glyph-name="omacron" unicode="&#x14d;" horiz-adv-x="1015" 
d="M348 1032l39 221h516l-39 -221h-516zM475 246q84 0 136.5 80t52.5 202q0 67 -32.5 108.5t-90.5 41.5q-82 0 -134.5 -81.5t-52.5 -203.5q0 -65 32 -106t89 -41zM467 -20q-193 0 -311.5 113t-118.5 304q0 157 69 282.5t185.5 194t257.5 68.5q193 0 311.5 -113.5
t118.5 -304.5q0 -118 -40 -220.5t-109 -173t-163 -110.5t-200 -40z" />
    <glyph glyph-name="Obreve" unicode="&#x14e;" horiz-adv-x="1316" 
d="M827 1348q-132 0 -207.5 80t-48.5 219h222q-15 -86 57 -86q75 0 90 86h221q-26 -146 -113 -222.5t-221 -76.5zM649 268q140 0 233 117.5t93 312.5q0 129 -66.5 210t-177.5 81q-141 0 -233 -117t-92 -313q0 -129 66 -210t177 -81zM639 -20q-258 0 -411.5 158.5
t-153.5 412.5q0 155 52 290.5t141 231t212 150.5t262 55q258 0 412 -158.5t154 -412.5q0 -206 -88.5 -373t-241 -260.5t-338.5 -93.5z" />
    <glyph glyph-name="obreve" unicode="&#x14f;" horiz-adv-x="1015" 
d="M475 246q84 0 136.5 80t52.5 202q0 67 -32.5 108.5t-90.5 41.5q-82 0 -134.5 -81.5t-52.5 -203.5q0 -65 32 -106t89 -41zM467 -20q-193 0 -311.5 113t-118.5 304q0 157 69 282.5t185.5 194t257.5 68.5q193 0 311.5 -113.5t118.5 -304.5q0 -118 -40 -220.5t-109 -173
t-163 -110.5t-200 -40zM612 999q-132 0 -206.5 83t-47.5 225h222q-9 -46 4.5 -71.5t48.5 -25.5q73 0 92 97h219q-27 -150 -114.5 -229t-217.5 -79z" />
    <glyph glyph-name="Ohungarumlaut" unicode="&#x150;" horiz-adv-x="1316" 
d="M649 268q140 0 233 117.5t93 312.5q0 129 -66.5 210t-177.5 81q-141 0 -233 -117t-92 -313q0 -129 66 -210t177 -81zM639 -20q-258 0 -411.5 158.5t-153.5 412.5q0 155 52 290.5t141 231t212 150.5t262 55q258 0 412 -158.5t154 -412.5q0 -206 -88.5 -373t-241 -260.5
t-338.5 -93.5zM756 1364h-273l203 266h272zM1106 1364h-270l202 266h273z" />
    <glyph glyph-name="ohungarumlaut" unicode="&#x151;" horiz-adv-x="1015" 
d="M553 1024h-250l209 307h252zM883 1024h-252l211 307h252zM475 246q84 0 136.5 80t52.5 202q0 67 -32.5 108.5t-90.5 41.5q-82 0 -134.5 -81.5t-52.5 -203.5q0 -65 32 -106t89 -41zM467 -20q-193 0 -311.5 113t-118.5 304q0 157 69 282.5t185.5 194t257.5 68.5
q193 0 311.5 -113.5t118.5 -304.5q0 -118 -40 -220.5t-109 -173t-163 -110.5t-200 -40z" />
    <glyph glyph-name="OE" unicode="&#x152;" horiz-adv-x="1689" 
d="M1765 1257l-49 -282h-491l-37 -197h440l-47 -276h-440l-39 -217h491l-49 -285h-932q-261 0 -399.5 138t-138.5 384q0 159 54.5 295t151.5 233t236.5 152t304.5 55h944zM401 555q0 -129 69 -200.5t202 -71.5h110l121 690h-117q-175 0 -280 -116t-105 -302z" />
    <glyph glyph-name="oe" unicode="&#x153;" horiz-adv-x="1556" 
d="M549 942q172 0 295 -123q141 123 311 123q179 0 276 -102t97 -281q0 -65 -21 -172h-561v-10q9 -74 65 -110t148 -36q156 0 287 76l-47 -258q-121 -69 -320 -69q-96 0 -176.5 32t-132.5 88q-61 -56 -140 -88t-163 -32q-193 0 -311.5 113t-118.5 304q0 157 69 282.5
t185.5 194t257.5 68.5zM475 246q84 0 136.5 80t52.5 202q0 67 -32.5 108.5t-90.5 41.5q-82 0 -134.5 -81.5t-52.5 -203.5q0 -65 32 -106t89 -41zM1137 698q-59 0 -102 -36t-68 -95h276q2 4 2 17q0 51 -28 82.5t-80 31.5z" />
    <glyph glyph-name="Racute" unicode="&#x154;" horiz-adv-x="1175" 
d="M541 416h-125l-74 -416h-326l222 1257h542q187 0 294.5 -97t107.5 -271q0 -163 -87 -276t-233 -162l228 -451h-349zM514 981l-53 -303h203q95 0 146.5 47t51.5 133q0 58 -37 90.5t-112 32.5h-199zM883 1364h-324l215 266h336z" />
    <glyph glyph-name="racute" unicode="&#x155;" horiz-adv-x="747" 
d="M641 1024h-299l221 307h309zM788 926l-55 -310q-51 29 -127 29q-65 0 -113.5 -27.5t-68.5 -76.5l-94 -541h-322l162 922h322l-15 -82q37 47 96 74.5t125 27.5t90 -16z" />
    <glyph glyph-name="Rcommaaccent" unicode="&#x156;" horiz-adv-x="1175" 
d="M541 416h-125l-74 -416h-326l222 1257h542q187 0 294.5 -97t107.5 -271q0 -163 -87 -276t-233 -162l228 -451h-349zM293 -483l113 127q-41 16 -68 52t-27 87q0 65 47.5 107t118.5 42q69 0 117.5 -43.5t48.5 -117.5q0 -94 -96 -195l-55 -59h-199zM514 981l-53 -303h203
q95 0 146.5 47t51.5 133q0 58 -37 90.5t-112 32.5h-199z" />
    <glyph glyph-name="rcommaaccent" unicode="&#x157;" horiz-adv-x="747" 
d="M-57 -483l112 127q-41 16 -67.5 52t-26.5 87q0 65 47.5 107t118.5 42q69 0 117.5 -43.5t48.5 -117.5q0 -94 -96 -195l-56 -59h-198zM788 926l-55 -310q-51 29 -127 29q-65 0 -113.5 -27.5t-68.5 -76.5l-94 -541h-322l162 922h322l-15 -82q37 47 96 74.5t125 27.5t90 -16z
" />
    <glyph glyph-name="Rcaron" unicode="&#x158;" horiz-adv-x="1175" 
d="M541 416h-125l-74 -416h-326l222 1257h542q187 0 294.5 -97t107.5 -271q0 -163 -87 -276t-233 -162l228 -451h-349zM610 1358l-172 272h250l70 -94l102 94h266l-270 -272h-246zM514 981l-53 -303h203q95 0 146.5 47t51.5 133q0 58 -37 90.5t-112 32.5h-199z" />
    <glyph glyph-name="rcaron" unicode="&#x159;" horiz-adv-x="747" 
d="M383 1020l-143 309h231l61 -115l103 115h244l-252 -309h-244zM788 926l-55 -310q-51 29 -127 29q-65 0 -113.5 -27.5t-68.5 -76.5l-94 -541h-322l162 922h322l-15 -82q37 47 96 74.5t125 27.5t90 -16z" />
    <glyph glyph-name="Sacute" unicode="&#x15a;" horiz-adv-x="1046" 
d="M8 102l53 306q83 -67 189.5 -110.5t208.5 -43.5q198 0 198 115q0 33 -23 54t-69 40l-178 61q-131 44 -200.5 120t-69.5 198q0 103 43 187t115 137.5t163 82.5t191 29q240 0 418 -113l-54 -299q-172 140 -364 140q-81 0 -130.5 -25.5t-49.5 -79.5q0 -33 22 -52t70 -38
l192 -70q124 -46 192 -125t68 -190q0 -92 -30 -167t-81 -126t-120 -86t-145 -51t-158 -16q-144 0 -260 35t-191 87zM846 1364h-324l215 266h336z" />
    <glyph glyph-name="sacute" unicode="&#x15b;" horiz-adv-x="849" 
d="M684 1024h-299l221 307h309zM-2 82l47 266q55 -56 145.5 -91.5t163.5 -35.5q105 0 105 62q0 22 -18 35t-56 24l-80 23q-221 62 -221 231q0 161 119 253.5t297 92.5q190 0 321 -94l-47 -256q-129 110 -270 110q-103 0 -103 -61q0 -38 66 -55l108 -37q100 -34 151.5 -87.5
t51.5 -139.5q0 -110 -58 -188.5t-152.5 -116t-213.5 -37.5q-102 0 -197.5 26.5t-158.5 75.5z" />
    <glyph glyph-name="Scircumflex" unicode="&#x15c;" horiz-adv-x="1046" 
d="M8 102l53 306q83 -67 189.5 -110.5t208.5 -43.5q198 0 198 115q0 33 -23 54t-69 40l-178 61q-131 44 -200.5 120t-69.5 198q0 103 43 187t115 137.5t163 82.5t191 29q240 0 418 -113l-54 -299q-172 140 -364 140q-81 0 -130.5 -25.5t-49.5 -79.5q0 -33 22 -52t70 -38
l192 -70q124 -46 192 -125t68 -190q0 -92 -30 -167t-81 -126t-120 -86t-145 -51t-158 -16q-144 0 -260 35t-191 87zM854 1634l172 -270h-250l-69 92l-103 -92h-266l270 270h246z" />
    <glyph glyph-name="scircumflex" unicode="&#x15d;" horiz-adv-x="849" 
d="M721 1329l143 -309h-231l-62 113l-102 -113h-244l252 309h244zM-2 82l47 266q55 -56 145.5 -91.5t163.5 -35.5q105 0 105 62q0 22 -18 35t-56 24l-80 23q-221 62 -221 231q0 161 119 253.5t297 92.5q190 0 321 -94l-47 -256q-129 110 -270 110q-103 0 -103 -61
q0 -38 66 -55l108 -37q100 -34 151.5 -87.5t51.5 -139.5q0 -110 -58 -188.5t-152.5 -116t-213.5 -37.5q-102 0 -197.5 26.5t-158.5 75.5z" />
    <glyph glyph-name="Scedilla" unicode="&#x15e;" horiz-adv-x="1046" 
d="M8 102l53 306q83 -67 189.5 -110.5t208.5 -43.5q198 0 198 115q0 33 -23 54t-69 40l-178 61q-131 44 -200.5 120t-69.5 198q0 103 43 187t115 137.5t163 82.5t191 29q240 0 418 -113l-54 -299q-172 140 -364 140q-81 0 -130.5 -25.5t-49.5 -79.5q0 -33 22 -52t70 -38
l192 -70q124 -46 192 -125t68 -190q0 -92 -30 -167t-81 -126t-120 -86t-145 -51t-158 -16q-144 0 -260 35t-191 87zM377 -371h-277l193 289h278z" />
    <glyph glyph-name="scedilla" unicode="&#x15f;" horiz-adv-x="849" 
d="M-2 82l47 266q55 -56 145.5 -91.5t163.5 -35.5q105 0 105 62q0 22 -18 35t-56 24l-80 23q-221 62 -221 231q0 161 119 253.5t297 92.5q190 0 321 -94l-47 -256q-129 110 -270 110q-103 0 -103 -61q0 -38 66 -55l108 -37q100 -34 151.5 -87.5t51.5 -139.5
q0 -110 -58 -188.5t-152.5 -116t-213.5 -37.5q-102 0 -197.5 26.5t-158.5 75.5zM279 -371h-277l193 289h278z" />
    <glyph glyph-name="Scaron" unicode="&#x160;" horiz-adv-x="1046" 
d="M8 102l53 306q83 -67 189.5 -110.5t208.5 -43.5q198 0 198 115q0 33 -23 54t-69 40l-178 61q-131 44 -200.5 120t-69.5 198q0 103 43 187t115 137.5t163 82.5t191 29q240 0 418 -113l-54 -299q-172 140 -364 140q-81 0 -130.5 -25.5t-49.5 -79.5q0 -33 22 -52t70 -38
l192 -70q124 -46 192 -125t68 -190q0 -92 -30 -167t-81 -126t-120 -86t-145 -51t-158 -16q-144 0 -260 35t-191 87zM573 1358l-172 272h250l70 -94l102 94h267l-271 -272h-246z" />
    <glyph glyph-name="scaron" unicode="&#x161;" horiz-adv-x="849" 
d="M426 1020l-143 309h231l61 -115l103 115h244l-252 -309h-244zM-2 82l47 266q55 -56 145.5 -91.5t163.5 -35.5q105 0 105 62q0 22 -18 35t-56 24l-80 23q-221 62 -221 231q0 161 119 253.5t297 92.5q190 0 321 -94l-47 -256q-129 110 -270 110q-103 0 -103 -61
q0 -38 66 -55l108 -37q100 -34 151.5 -87.5t51.5 -139.5q0 -110 -58 -188.5t-152.5 -116t-213.5 -37.5q-102 0 -197.5 26.5t-158.5 75.5z" />
    <glyph glyph-name="Tcedilla" unicode="&#x162;" horiz-adv-x="1187" 
d="M293 -483l113 127q-41 16 -68 52t-27 87q0 65 47.5 107t118.5 42q69 0 117.5 -43.5t48.5 -117.5q0 -94 -96 -195l-55 -59h-199zM133 975l49 282h1106l-51 -282h-387l-172 -975h-330l172 975h-387z" />
    <glyph glyph-name="tcedilla" unicode="&#x163;" horiz-adv-x="724" 
d="M47 -483l113 127q-41 16 -67.5 52t-26.5 87q0 65 47 107t118 42q69 0 117.5 -43.5t48.5 -117.5q0 -94 -96 -195l-55 -59h-199zM551 672l-119 -672h-319l118 672h-159l45 250h159l43 254h320l-43 -254h180l-45 -250h-180z" />
    <glyph glyph-name="Tcaron" unicode="&#x164;" horiz-adv-x="1187" 
d="M639 1358l-172 272h250l69 -94l103 94h266l-270 -272h-246zM133 975l49 282h1106l-51 -282h-387l-172 -975h-330l172 975h-387z" />
    <glyph glyph-name="tcaron" unicode="&#x165;" horiz-adv-x="724" 
d="M918 997h-250l157 342h252zM551 672l-119 -672h-319l118 672h-159l45 250h159l43 254h320l-43 -254h180l-45 -250h-180z" />
    <glyph glyph-name="Tbar" unicode="&#x166;" horiz-adv-x="1187" 
d="M133 975l49 282h1106l-51 -282h-387l-41 -232h190l-47 -266h-190l-84 -477h-330l84 477h-182l47 266h182l41 232h-387z" />
    <glyph glyph-name="tbar" unicode="&#x167;" horiz-adv-x="724" 
d="M551 672l-23 -121h123l-41 -227h-121l-57 -324h-319l57 324h-102l38 227h103l22 121h-159l45 250h159l43 254h320l-43 -254h180l-45 -250h-180z" />
    <glyph glyph-name="Utilde" unicode="&#x168;" horiz-adv-x="1255" 
d="M979 1659h176q-22 -136 -80 -221.5t-153 -85.5q-50 0 -116.5 36.5t-94.5 36.5q-25 0 -42.5 -18t-21.5 -49h-178q15 89 42.5 154.5t76.5 109t114 43.5q51 0 117 -37t94 -37q25 0 42.5 18.5t23.5 49.5zM578 -20q-228 0 -361 111.5t-133 314.5q0 65 12 126l129 725h328
l-127 -714q-8 -54 -8 -78q0 -93 47 -143t137 -50q214 0 264 271l125 714h328l-131 -745q-46 -260 -202 -396t-408 -136z" />
    <glyph glyph-name="utilde" unicode="&#x169;" horiz-adv-x="1052" 
d="M1049 922l-162 -922h-322l15 80q-104 -100 -256 -100q-129 0 -203 73t-74 197q0 36 6 76l105 596h321l-90 -527q-6 -21 -6 -45q0 -94 96 -94q47 0 88.5 29t61.5 75l98 562h322zM805 1325h178q-24 -138 -81.5 -222.5t-153.5 -84.5q-39 0 -72 18.5t-60.5 37t-54.5 18.5
q-24 0 -40.5 -18t-22.5 -50h-179q17 89 45 154.5t77 109t114 43.5q40 0 73 -18.5t60.5 -37t52.5 -18.5q23 0 40.5 18.5t23.5 49.5z" />
    <glyph glyph-name="Umacron" unicode="&#x16a;" horiz-adv-x="1255" 
d="M514 1364l39 221h545l-39 -221h-545zM578 -20q-228 0 -361 111.5t-133 314.5q0 65 12 126l129 725h328l-127 -714q-8 -54 -8 -78q0 -93 47 -143t137 -50q214 0 264 271l125 714h328l-131 -745q-46 -260 -202 -396t-408 -136z" />
    <glyph glyph-name="umacron" unicode="&#x16b;" horiz-adv-x="1052" 
d="M1049 922l-162 -922h-322l15 80q-104 -100 -256 -100q-129 0 -203 73t-74 197q0 36 6 76l105 596h321l-90 -527q-6 -21 -6 -45q0 -94 96 -94q47 0 88.5 29t61.5 75l98 562h322zM369 1032l39 221h516l-39 -221h-516z" />
    <glyph glyph-name="Ubreve" unicode="&#x16c;" horiz-adv-x="1255" 
d="M788 1348q-132 0 -207.5 80t-48.5 219h222q-15 -86 57 -86q75 0 90 86h221q-26 -146 -113 -222.5t-221 -76.5zM578 -20q-228 0 -361 111.5t-133 314.5q0 65 12 126l129 725h328l-127 -714q-8 -54 -8 -78q0 -93 47 -143t137 -50q214 0 264 271l125 714h328l-131 -745
q-46 -260 -202 -396t-408 -136z" />
    <glyph glyph-name="ubreve" unicode="&#x16d;" horiz-adv-x="1052" 
d="M1049 922l-162 -922h-322l15 80q-104 -100 -256 -100q-129 0 -203 73t-74 197q0 36 6 76l105 596h321l-90 -527q-6 -21 -6 -45q0 -94 96 -94q47 0 88.5 29t61.5 75l98 562h322zM635 999q-132 0 -206.5 83t-47.5 225h221q-9 -46 4.5 -71.5t48.5 -25.5q74 0 93 97h219
q-27 -150 -114.5 -229t-217.5 -79z" />
    <glyph glyph-name="Uring" unicode="&#x16e;" horiz-adv-x="1255" 
d="M578 -20q-228 0 -361 111.5t-133 314.5q0 65 12 126l129 725h328l-127 -714q-8 -54 -8 -78q0 -93 47 -143t137 -50q214 0 264 271l125 714h328l-131 -745q-46 -260 -202 -396t-408 -136zM811 1456q32 0 55 23t23 57q0 28 -20 48t-50 20t-53 -22t-23 -56q0 -29 19.5 -49.5
t48.5 -20.5zM807 1315q-90 0 -151.5 60t-61.5 147q0 93 67.5 158t163.5 65q90 0 151.5 -59t61.5 -146q0 -93 -67.5 -159t-163.5 -66z" />
    <glyph glyph-name="uring" unicode="&#x16f;" horiz-adv-x="1052" 
d="M653 1135q32 0 55 22t23 55q0 29 -20 49.5t-49 20.5q-32 0 -55 -23t-23 -57q0 -28 20 -47.5t49 -19.5zM647 993q-90 0 -150.5 59t-60.5 146q0 93 67 159t165 66q90 0 150.5 -59.5t60.5 -146.5q0 -93 -67 -158.5t-165 -65.5zM1049 922l-162 -922h-322l15 80
q-104 -100 -256 -100q-129 0 -203 73t-74 197q0 36 6 76l105 596h321l-90 -527q-6 -21 -6 -45q0 -94 96 -94q47 0 88.5 29t61.5 75l98 562h322z" />
    <glyph glyph-name="Uhungarumlaut" unicode="&#x170;" horiz-adv-x="1255" 
d="M578 -20q-228 0 -361 111.5t-133 314.5q0 65 12 126l129 725h328l-127 -714q-8 -54 -8 -78q0 -93 47 -143t137 -50q214 0 264 271l125 714h328l-131 -745q-46 -260 -202 -396t-408 -136zM737 1364h-272l203 266h272zM1087 1364h-270l203 266h272z" />
    <glyph glyph-name="uhungarumlaut" unicode="&#x171;" horiz-adv-x="1052" 
d="M1049 922l-162 -922h-322l15 80q-104 -100 -256 -100q-129 0 -203 73t-74 197q0 36 6 76l105 596h321l-90 -527q-6 -21 -6 -45q0 -94 96 -94q47 0 88.5 29t61.5 75l98 562h322zM573 1024h-249l208 307h252zM903 1024h-252l211 307h252z" />
    <glyph glyph-name="Uogonek" unicode="&#x172;" horiz-adv-x="1255" 
d="M578 -20q-228 0 -361 111.5t-133 314.5q0 65 12 126l129 725h328l-127 -714q-8 -54 -8 -78q0 -93 47 -143t137 -50q214 0 264 271l125 714h328l-131 -745q-29 -159 -100 -270t-191 -195q-188 -132 -188 -209q0 -31 32 -31q28 0 78 31l-33 -178q-66 -39 -139 -39
t-115.5 34.5t-42.5 98.5q0 62 33 113.5t96 114.5q-8 -2 -40 -2z" />
    <glyph glyph-name="uogonek" unicode="&#x173;" horiz-adv-x="1052" 
d="M565 0l15 80q-104 -100 -256 -100q-129 0 -203 73t-74 197q0 36 6 76l105 596h321l-90 -527q-6 -21 -6 -45q0 -94 96 -94q47 0 88.5 29t61.5 75l98 562h322l-162 -922q-9 -9 -28 -27t-27.5 -26.5t-22.5 -23t-21 -23.5t-14.5 -20.5t-10.5 -21.5t-3 -20q0 -31 33 -31
q27 0 77 31l-32 -178q-66 -39 -140 -39q-73 0 -115 34.5t-42 98.5q0 36 11.5 69t35.5 66t44.5 55t55.5 56h-123z" />
    <glyph glyph-name="Wcircumflex" unicode="&#x174;" horiz-adv-x="1683" 
d="M860 1257h250l45 -739l322 739h335l-581 -1257h-299l-49 737l-344 -737h-299l-80 1257h325l33 -739zM1159 1634l172 -270h-250l-69 92l-103 -92h-266l270 270h246z" />
    <glyph glyph-name="wcircumflex" unicode="&#x175;" horiz-adv-x="1417" 
d="M969 1329l143 -309h-231l-62 113l-102 -113h-244l252 309h244zM897 922l35 -500l250 500h305l-488 -922h-266l-37 467l-227 -467h-266l-107 922h301l43 -500l244 500h213z" />
    <glyph glyph-name="Ycircumflex" unicode="&#x176;" horiz-adv-x="1253" 
d="M676 766l352 491h358l-595 -811l-78 -446h-330l78 446l-305 811h342zM944 1634l172 -270h-250l-69 92l-103 -92h-266l270 270h246z" />
    <glyph glyph-name="ycircumflex" unicode="&#x177;" horiz-adv-x="1017" 
d="M350 -326h-321l215 361l-150 887h303l80 -529l289 529h321zM760 1329l143 -309h-231l-62 113l-102 -113h-244l252 309h244z" />
    <glyph glyph-name="Ydieresis" unicode="&#x178;" horiz-adv-x="1253" 
d="M676 766l352 491h358l-595 -811l-78 -446h-330l78 446l-305 811h342zM461 1503q0 68 46.5 115t113.5 47q66 0 113.5 -47.5t47.5 -114.5t-47.5 -114.5t-113.5 -47.5q-67 0 -113.5 47t-46.5 115zM831 1503q0 67 47 114.5t113 47.5t114 -47.5t48 -114.5t-48 -114.5
t-114 -47.5t-113 47.5t-47 114.5z" />
    <glyph glyph-name="Zacute" unicode="&#x179;" horiz-adv-x="1138" 
d="M1049 285l-52 -285h-1050v8l741 967h-524l49 282h1036l-2 -8l-723 -964h525zM881 1364h-324l215 266h336z" />
    <glyph glyph-name="zacute" unicode="&#x17a;" horiz-adv-x="909" 
d="M690 1024h-299l221 307h310zM821 252l-43 -252h-837v8l512 664h-355l45 250h815v-9l-497 -661h360z" />
    <glyph glyph-name="Zdotaccent" unicode="&#x17b;" horiz-adv-x="1138" 
d="M936 1522q0 -77 -53 -125.5t-129 -48.5t-129.5 48.5t-53.5 125.5q0 76 53.5 124t129.5 48t129 -48t53 -124zM1049 285l-52 -285h-1050v8l741 967h-524l49 282h1036l-2 -8l-723 -964h525z" />
    <glyph glyph-name="zdotaccent" unicode="&#x17c;" horiz-adv-x="909" 
d="M821 252l-43 -252h-837v8l512 664h-355l45 250h815v-9l-497 -661h360zM760 1186q0 -76 -53 -124t-129 -48t-129.5 48t-53.5 124q0 77 53.5 125.5t129.5 48.5t129 -48.5t53 -125.5z" />
    <glyph glyph-name="Zcaron" unicode="&#x17d;" horiz-adv-x="1138" 
d="M608 1358l-172 272h250l70 -94l102 94h266l-270 -272h-246zM1049 285l-52 -285h-1050v8l741 967h-524l49 282h1036l-2 -8l-723 -964h525z" />
    <glyph glyph-name="zcaron" unicode="&#x17e;" horiz-adv-x="909" 
d="M430 1020l-143 309h231l62 -115l102 115h244l-252 -309h-244zM821 252l-43 -252h-837v8l512 664h-355l45 250h815v-9l-497 -661h360z" />
    <glyph glyph-name="florin" unicode="&#x192;" horiz-adv-x="860" 
d="M98 479l43 250h166l64 207q50 167 154.5 254.5t260.5 87.5q96 0 164 -27l-47 -260q-44 19 -86 19q-96 0 -129 -109l-51 -172h156l-45 -250h-187l-141 -479q-103 -340 -408 -340q-98 0 -166 27l43 245q38 -20 84 -20q49 0 77.5 26t45.5 85l137 456h-135z" />
    <glyph glyph-name="Aringacute" unicode="&#x1fa;" horiz-adv-x="1323" 
d="M651 1257h336l244 -1257h-326l-45 244h-459l-135 -244h-327zM844 1292q-90 0 -150.5 49.5t-60.5 120.5q0 76 66.5 129.5t162.5 53.5q90 0 151.5 -48.5t61.5 -119.5q0 -76 -67.5 -130.5t-163.5 -54.5zM1057 1681h-316l170 209h330zM750 868l-199 -354h262zM850 1411
q31 0 53.5 17.5t22.5 46.5q0 22 -19.5 37.5t-48.5 15.5q-32 0 -55 -18t-23 -46q0 -23 19.5 -38t50.5 -15z" />
    <glyph glyph-name="aringacute" unicode="&#x1fb;" horiz-adv-x="991" 
d="M635 1096q32 0 55 17.5t23 45.5q0 22 -20.5 37.5t-49.5 15.5q-31 0 -53.5 -17.5t-22.5 -45.5q0 -22 19.5 -37.5t48.5 -15.5zM631 977q-90 0 -151.5 49.5t-61.5 120.5q0 75 67.5 129.5t163.5 54.5q90 0 150.5 -49.5t60.5 -120.5q0 -76 -66.5 -130t-162.5 -54zM844 1366
h-318l170 209h330zM610 520l8 33q0 4 1.5 15.5t1.5 15.5q0 96 -164 96q-156 0 -275 -64l45 258q61 31 154.5 49.5t183.5 18.5q181 0 277 -74.5t96 -220.5q0 -28 -8 -94l-96 -553h-314l8 47q-31 -26 -87.5 -44.5t-121.5 -18.5q-131 0 -220 73t-89 195q0 100 55.5 175
t142.5 111.5t191 36.5q66 0 123 -16.5t88 -38.5zM563 256l10 55q-9 30 -42 48t-80 18q-53 0 -96.5 -26.5t-43.5 -76.5q0 -36 34.5 -56.5t80.5 -20.5q96 0 137 59z" />
    <glyph glyph-name="AEacute" unicode="&#x1fc;" horiz-adv-x="1820" 
d="M836 1257h1060l-49 -282h-530l-37 -197h479l-47 -276h-479l-39 -217h530l-49 -285h-854l43 244h-405l-172 -244h-348zM1516 1364h-324l215 266h336zM999 1008l-350 -494h262z" />
    <glyph glyph-name="aeacute" unicode="&#x1fd;" horiz-adv-x="1478" 
d="M680 109q-162 -129 -358 -129q-140 0 -226 71.5t-86 190.5q0 81 39.5 145t104.5 101.5t142 57t159 19.5h163q3 18 3 23q-5 44 -47.5 70t-118.5 26q-144 0 -271 -68l45 258q136 68 324 68q187 0 258 -102q51 46 122.5 74t145.5 28q178 0 274.5 -102t96.5 -281
q0 -83 -18 -174h-566v-8q19 -146 215 -146q156 0 287 76l-47 -258q-121 -69 -311 -69q-210 0 -330 129zM1014 1024h-299l221 307h309zM412 213q50 0 90.5 20.5t64.5 55.5l19 96h-131q-59 0 -100.5 -23t-41.5 -75q0 -35 28 -54.5t71 -19.5zM1061 698q-60 0 -103.5 -36
t-68.5 -97h278v17q0 51 -27.5 83.5t-78.5 32.5z" />
    <glyph glyph-name="Oslashacute" unicode="&#x1fe;" horiz-adv-x="1335" 
d="M70 74l116 123q-104 144 -104 354q0 206 88.5 373t241 260.5t338.5 93.5q207 0 356 -111l106 113l115 -96l-117 -123q105 -148 105 -354t-88.5 -373t-241 -260.5t-338.5 -93.5q-215 0 -356 110l-107 -113zM657 262q142 0 238 120.5t96 315.5q0 57 -16 113l-471 -496
q62 -53 153 -53zM408 559q0 -64 14 -113l469 496q-66 53 -152 53q-140 0 -235.5 -120.5t-95.5 -315.5zM975 1364h-324l215 266h336z" />
    <glyph glyph-name="oslashacute" unicode="&#x1ff;" horiz-adv-x="1036" 
d="M41 33l90 96q-84 111 -84 268t69 282.5t185.5 194t257.5 68.5q150 0 260 -74l88 95l90 -76l-92 -99q84 -108 84 -264q0 -118 -40 -220.5t-109 -173t-163 -110.5t-200 -40q-154 0 -260 71l-86 -92zM752 1024h-299l221 307h309zM350 387v-22l283 303q-35 24 -80 24
q-85 0 -144 -90t-59 -215zM485 231q85 0 144 90t59 216v18l-280 -301q33 -23 77 -23z" />
    <glyph glyph-name="Scommaaccent" unicode="&#x218;" horiz-adv-x="1046" 
d="M203 -483l112 127q-41 16 -67.5 52t-26.5 87q0 65 47.5 107t118.5 42q69 0 117.5 -43.5t48.5 -117.5q0 -94 -96 -195l-56 -59h-198zM8 102l53 306q83 -67 189.5 -110.5t208.5 -43.5q198 0 198 115q0 33 -23 54t-69 40l-178 61q-131 44 -200.5 120t-69.5 198q0 103 43 187
t115 137.5t163 82.5t191 29q240 0 418 -113l-54 -299q-172 140 -364 140q-81 0 -130.5 -25.5t-49.5 -79.5q0 -33 22 -52t70 -38l192 -70q124 -46 192 -125t68 -190q0 -92 -30 -167t-81 -126t-120 -86t-145 -51t-158 -16q-144 0 -260 35t-191 87z" />
    <glyph glyph-name="scommaaccent" unicode="&#x219;" horiz-adv-x="849" 
d="M109 -483l112 127q-41 16 -67.5 52t-26.5 87q0 65 47.5 107t118.5 42q69 0 117.5 -43.5t48.5 -117.5q0 -93 -97 -195l-55 -59h-198zM-2 82l47 266q55 -56 145.5 -91.5t163.5 -35.5q105 0 105 62q0 22 -18 35t-56 24l-80 23q-221 62 -221 231q0 161 119 253.5t297 92.5
q190 0 321 -94l-47 -256q-129 110 -270 110q-103 0 -103 -61q0 -38 66 -55l108 -37q100 -34 151.5 -87.5t51.5 -139.5q0 -110 -58 -188.5t-152.5 -116t-213.5 -37.5q-102 0 -197.5 26.5t-158.5 75.5z" />
    <glyph glyph-name="uni0237" unicode="&#x237;" horiz-adv-x="495" 
d="M-203 -324l43 244q31 -14 68 -14q43 0 67 23.5t33 78.5l162 914h322l-160 -902q-63 -366 -389 -366q-86 0 -146 22z" />
    <glyph glyph-name="circumflex" unicode="&#x2c6;" 
d="M688 1329l143 -309h-231l-61 113l-103 -113h-243l251 309h244z" />
    <glyph glyph-name="caron" unicode="&#x2c7;" 
d="M336 1020l-143 309h231l61 -115l103 115h243l-251 -309h-244z" />
    <glyph glyph-name="breve" unicode="&#x2d8;" 
d="M477 999q-132 0 -206.5 83t-47.5 225h221q-9 -46 5 -71.5t49 -25.5q73 0 92 97h219q-27 -150 -114.5 -229t-217.5 -79z" />
    <glyph glyph-name="dotaccent" unicode="&#x2d9;" 
d="M694 1186q0 -76 -53 -124t-129 -48t-129 48t-53 124q0 77 53 125.5t129 48.5t129 -48.5t53 -125.5z" />
    <glyph glyph-name="ring" unicode="&#x2da;" 
d="M506 1135q32 0 55 22t23 55q0 29 -20.5 49.5t-49.5 20.5q-32 0 -55 -23t-23 -57q0 -28 20.5 -47.5t49.5 -19.5zM500 993q-90 0 -150.5 59t-60.5 146q0 93 67 159t164 66q90 0 150.5 -59.5t60.5 -146.5q0 -93 -66.5 -158.5t-164.5 -65.5z" />
    <glyph glyph-name="ogonek" unicode="&#x2db;" 
d="M500 16h196q-18 -18 -51.5 -50.5t-49.5 -48.5t-30 -38.5t-14 -40.5q0 -31 33 -31q28 0 78 31l-33 -178q-66 -39 -140 -39q-73 0 -115 34.5t-42 98.5q0 48 25 96t52 77t77 76q9 9 14 13z" />
    <glyph glyph-name="tilde" unicode="&#x2dc;" 
d="M666 1325h178q-24 -137 -82 -222t-154 -85q-39 0 -71.5 18.5t-60 37t-54.5 18.5q-24 0 -41 -18.5t-23 -49.5h-178q17 89 45 154.5t77 109t114 43.5q40 0 73 -18.5t60.5 -37t52.5 -18.5q23 0 40.5 18.5t23.5 49.5z" />
    <glyph glyph-name="hungarumlaut" unicode="&#x2dd;" 
d="M367 1024h-250l209 307h252zM696 1024h-252l211 307h252z" />
    <glyph glyph-name="Wgrave" unicode="&#x1e80;" horiz-adv-x="1683" 
d="M1139 1364h-295l-135 266h309zM860 1257h250l45 -739l322 739h335l-581 -1257h-299l-49 737l-344 -737h-299l-80 1257h325l33 -739z" />
    <glyph glyph-name="wgrave" unicode="&#x1e81;" horiz-adv-x="1417" 
d="M897 922l35 -500l250 500h305l-488 -922h-266l-37 467l-227 -467h-266l-107 922h301l43 -500l244 500h213zM934 1024h-272l-125 307h282z" />
    <glyph glyph-name="Wacute" unicode="&#x1e82;" horiz-adv-x="1683" 
d="M1151 1364h-324l215 266h336zM860 1257h250l45 -739l322 739h335l-581 -1257h-299l-49 737l-344 -737h-299l-80 1257h325l33 -739z" />
    <glyph glyph-name="wacute" unicode="&#x1e83;" horiz-adv-x="1417" 
d="M944 1024h-299l221 307h310zM897 922l35 -500l250 500h305l-488 -922h-266l-37 467l-227 -467h-266l-107 922h301l43 -500l244 500h213z" />
    <glyph glyph-name="Wdieresis" unicode="&#x1e84;" horiz-adv-x="1683" 
d="M676 1503q0 68 46.5 115t113.5 47q66 0 113.5 -47.5t47.5 -114.5t-47.5 -114.5t-113.5 -47.5q-67 0 -113.5 47t-46.5 115zM1047 1503q0 67 46.5 114.5t112.5 47.5t114 -47.5t48 -114.5t-48 -114.5t-114 -47.5t-112.5 47.5t-46.5 114.5zM860 1257h250l45 -739l322 739h335
l-581 -1257h-299l-49 737l-344 -737h-299l-80 1257h325l33 -739z" />
    <glyph glyph-name="wdieresis" unicode="&#x1e85;" horiz-adv-x="1417" 
d="M487 1161q0 66 46.5 112t111.5 46t111.5 -46t46.5 -112q0 -64 -46.5 -109.5t-111.5 -45.5t-111.5 45.5t-46.5 109.5zM850 1161q0 66 45.5 112t110.5 46t112 -46t47 -112q0 -64 -47 -109.5t-112 -45.5t-110.5 45.5t-45.5 109.5zM897 922l35 -500l250 500h305l-488 -922
h-266l-37 467l-227 -467h-266l-107 922h301l43 -500l244 500h213z" />
    <glyph glyph-name="Ygrave" unicode="&#x1ef2;" horiz-adv-x="1253" 
d="M676 766l352 491h358l-595 -811l-78 -446h-330l78 446l-305 811h342zM924 1364h-295l-135 266h309z" />
    <glyph glyph-name="ygrave" unicode="&#x1ef3;" horiz-adv-x="1017" 
d="M350 -326h-321l215 361l-150 887h303l80 -529l289 529h321zM727 1024h-272l-125 307h282z" />
    <glyph glyph-name="endash" unicode="&#x2013;" horiz-adv-x="954" 
d="M63 426l37 219h809l-37 -219h-809z" />
    <glyph glyph-name="emdash" unicode="&#x2014;" horiz-adv-x="1714" 
d="M63 426l37 219h1569l-37 -219h-1569z" />
    <glyph glyph-name="quoteleft" unicode="&#x2018;" horiz-adv-x="454" 
d="M551 1257l-178 -233q52 -18 83 -59t31 -103q0 -81 -54 -132.5t-134 -51.5t-134 52t-54 144q0 93 86 201l143 182h211z" />
    <glyph glyph-name="quoteright" unicode="&#x2019;" horiz-adv-x="454" 
d="M86 698l178 234q-52 18 -83 59t-31 103q0 81 54 132.5t134 51.5t134 -52.5t54 -144.5t-86 -200l-143 -183h-211z" />
    <glyph glyph-name="quotesinglbase" unicode="&#x201a;" horiz-adv-x="454" 
d="M-68 -231l179 233q-52 18 -83.5 59t-31.5 103q0 81 54 132.5t134 51.5t134.5 -52t54.5 -144q0 -93 -86 -201l-144 -182h-211z" />
    <glyph glyph-name="quotedblleft" unicode="&#x201c;" horiz-adv-x="890" 
d="M551 1257l-178 -233q52 -18 83 -59t31 -103q0 -81 -54 -132.5t-134 -51.5t-134 52t-54 144q0 93 86 201l143 182h211zM987 1257l-178 -233q52 -18 83.5 -59t31.5 -103q0 -81 -54 -132.5t-135 -51.5q-80 0 -134 52t-54 144q0 93 86 201l143 182h211z" />
    <glyph glyph-name="quotedblright" unicode="&#x201d;" horiz-adv-x="890" 
d="M86 698l178 234q-52 18 -83 59t-31 103q0 81 54 132.5t134 51.5t134 -52.5t54 -144.5t-86 -200l-143 -183h-211zM520 698l178 234q-52 18 -83 59t-31 103q0 81 54 132.5t134 51.5t134.5 -52.5t54.5 -144.5q0 -91 -87 -200l-143 -183h-211z" />
    <glyph glyph-name="quotedblbase" unicode="&#x201e;" horiz-adv-x="890" 
d="M-68 -231l179 233q-52 18 -83.5 59t-31.5 103q0 81 54 132.5t134 51.5t134.5 -52t54.5 -144q0 -93 -86 -201l-144 -182h-211zM367 -231l178 233q-52 18 -83.5 59t-31.5 103q0 81 54 132.5t134 51.5t134.5 -52t54.5 -144q0 -93 -86 -201l-143 -182h-211z" />
    <glyph glyph-name="dagger" unicode="&#x2020;" horiz-adv-x="706" 
d="M131 944l35 199h201l34 188h205l-35 -188h205l-37 -199h-202l-66 -379h-205l66 379h-201z" />
    <glyph glyph-name="daggerdbl" unicode="&#x2021;" horiz-adv-x="714" 
d="M147 1016l31 178h207l25 137h196l-24 -137h209l-33 -178h-207l-25 -137h207l-31 -177h-206l-25 -137h-197l25 137h-207l31 177h207l24 137h-207z" />
    <glyph glyph-name="bullet" unicode="&#x2022;" horiz-adv-x="780" 
d="M739 535q0 -146 -98 -241t-240 -95q-144 0 -243 95t-99 241q0 150 98.5 246t243.5 96q142 0 240 -96t98 -246z" />
    <glyph glyph-name="ellipsis" unicode="&#x2026;" horiz-adv-x="1431" 
d="M-4 178q0 81 54.5 136t133.5 55q80 0 135.5 -55t55.5 -136t-55.5 -136.5t-135.5 -55.5q-78 0 -133 55.5t-55 136.5zM496 178q0 82 54 136.5t134 54.5q79 0 133.5 -55t54.5 -136t-55 -136.5t-133 -55.5q-80 0 -134 55t-54 137zM993 178q0 81 55 136t134 55q80 0 135 -55
t55 -136t-55 -136.5t-135 -55.5q-79 0 -134 55.5t-55 136.5z" />
    <glyph glyph-name="perthousand" unicode="&#x2030;" horiz-adv-x="2072" 
d="M432 1278q122 0 205.5 -83t83.5 -204q0 -125 -89.5 -219t-219.5 -94q-121 0 -205 83.5t-84 203.5q0 124 90 218.5t219 94.5zM418 868q44 0 78 33.5t34 81.5q0 43 -30.5 73.5t-73.5 30.5q-44 0 -78.5 -34t-34.5 -80q0 -43 31 -74t74 -31zM145 0l979 1257h193l-981 -1257
h-191zM1028 -20q-121 0 -205 83t-84 203q0 126 90.5 220t221.5 94q121 0 203.5 -83.5t82.5 -203.5q0 -124 -90 -218.5t-219 -94.5zM1042 389q-44 0 -77 -33.5t-33 -81.5q0 -43 29.5 -73.5t72.5 -30.5q44 0 78.5 34.5t34.5 80.5q0 43 -31 73.5t-74 30.5zM1675 -20
q-121 0 -205 83t-84 203q0 126 90.5 220t221.5 94q121 0 204 -83.5t83 -203.5q0 -124 -90.5 -218.5t-219.5 -94.5zM1690 389q-44 0 -77.5 -33.5t-33.5 -81.5q0 -43 29.5 -73.5t72.5 -30.5q45 0 79 34t34 81q0 43 -30.5 73.5t-73.5 30.5z" />
    <glyph glyph-name="guilsinglleft" unicode="&#x2039;" horiz-adv-x="569" 
d="M457 119h-275l-129 336l238 336h291l-250 -353z" />
    <glyph glyph-name="guilsinglright" unicode="&#x203a;" horiz-adv-x="569" 
d="M119 791h274l129 -336l-237 -336h-291l250 352z" />
    <glyph glyph-name="fraction" unicode="&#x2044;" horiz-adv-x="442" 
d="M836 1257l-1029 -1257h-180l1028 1257h181z" />
    <glyph glyph-name="Euro" unicode="&#x20ac;" horiz-adv-x="1036" 
d="M84 676l29 158h98q74 199 231.5 321.5t360.5 122.5q91 0 171.5 -26.5t135.5 -73.5l-53 -304q-115 115 -256 115q-168 0 -262 -155h315l-59 -158h-318q-9 -44 -12 -90h297l-57 -158h-230q22 -76 81.5 -118t152.5 -42q136 0 254 72l-56 -307q-95 -53 -229 -53
q-214 0 -352 120.5t-164 327.5h-121l27 158h90q2 25 10 90h-84z" />
    <glyph glyph-name="uni2117" unicode="&#x2117;" horiz-adv-x="1441" 
d="M1401 629q0 -184 -88 -334t-236 -232.5t-325 -82.5q-132 0 -251.5 49t-207.5 133.5t-139.5 206.5t-51.5 260t51.5 260t139.5 206.5t207.5 133.5t251.5 49q177 0 325 -82.5t236 -232.5t88 -334zM1305 629q0 157 -75 285t-201.5 199t-276.5 71t-276.5 -71t-201.5 -199
t-75 -285t75 -285t201.5 -199t276.5 -71t276.5 71t201.5 199t75 285zM831 471h-131v-217h-217v756h348q127 0 204 -71t77 -198q0 -129 -76.5 -199.5t-204.5 -70.5zM899 741q0 84 -92 84h-107v-170h107q92 0 92 86z" />
    <glyph glyph-name="trademark" unicode="&#x2122;" horiz-adv-x="1236" 
d="M150 1108l26 149h481l-26 -149h-158l-63 -371h-170l65 371h-155zM942 834h-6l-94 163l-47 -260h-164l92 520h149l99 -190l170 190h162l-93 -520h-163l45 260z" />
    <glyph glyph-name="uni2153" unicode="&#x2153;" horiz-adv-x="1515" 
d="M1372 1257l-1073 -1257h-197l1074 1257h196zM578 1257l-129 -716h-209l86 477l-193 -86l37 215l256 110h152zM961 526l32 191h500v-4l-190 -279q104 -68 104 -174q0 -123 -89 -197.5t-228 -74.5q-136 0 -218 61l35 197q77 -80 185 -80q50 0 79 22.5t29 59.5q0 74 -117 74
q-21 0 -39 -3v5l142 202h-225z" />
    <glyph glyph-name="uni2154" unicode="&#x2154;" horiz-adv-x="1648" 
d="M1505 1257l-1073 -1257h-199l1074 1257h198zM465 733h192l-32 -188h-555v4l274 299q4 5 23 26.5t25 28.5t20.5 25t20 27t14 23.5t11.5 25.5t3 22q0 49 -58 49q-82 0 -231 -94l37 211q117 80 276 80q95 0 150 -50.5t55 -129.5q0 -70 -38.5 -133t-114.5 -148zM1092 526
l34 191h500v-4l-190 -279q104 -68 104 -174q0 -123 -89 -197.5t-228 -74.5q-135 0 -217 61l34 197q74 -80 185 -80q50 0 79 22.5t29 59.5q0 74 -116 74q-21 0 -39 -3v5l141 202h-227z" />
    <glyph glyph-name="uni215B" unicode="&#x215b;" horiz-adv-x="1515" 
d="M1366 1257l-1075 -1257h-197l1073 1257h199zM569 1257l-127 -716h-209l84 477l-192 -86l37 215l256 110h151zM1038 213q0 -27 20.5 -44t53.5 -17q35 0 59.5 19t24.5 52q0 27 -20.5 43.5t-53.5 16.5q-36 0 -60 -19t-24 -51zM1110 -10q-69 0 -128.5 19.5t-102.5 67
t-43 116.5q0 64 36 110.5t95 69.5q-64 42 -64 125q0 110 81.5 170.5t193.5 60.5q102 0 172.5 -54t70.5 -145q0 -59 -28 -107.5t-80 -74.5q82 -46 82 -137q0 -105 -83.5 -163t-201.5 -58zM1231 514q0 26 -18 40.5t-48 14.5q-34 0 -56 -18t-22 -49q0 -26 18.5 -41t47.5 -15
q33 0 55.5 18.5t22.5 49.5z" />
    <glyph glyph-name="uni215C" unicode="&#x215c;" horiz-adv-x="1542" 
d="M1399 1257l-1073 -1257h-197l1073 1257h197zM176 1067l33 190h500v-4l-191 -278q107 -67 107 -174q0 -123 -89.5 -198t-228.5 -75q-135 0 -217 60l35 196q74 -77 182 -77q52 0 81.5 21.5t29.5 57.5q0 76 -119 76q-25 0 -39 -2v4l143 203h-227zM1077 213q0 -27 20.5 -44
t53.5 -17q35 0 59.5 19t24.5 52q0 27 -20.5 43.5t-53.5 16.5q-35 0 -59.5 -19.5t-24.5 -50.5zM1149 -10q-69 0 -128.5 19.5t-101.5 67t-42 116.5q0 64 35.5 110.5t93.5 69.5q-62 41 -62 125q0 110 80.5 170.5t192.5 60.5q104 0 174.5 -54t70.5 -145q0 -59 -29 -107.5
t-81 -74.5q84 -47 84 -137q0 -105 -84.5 -163t-202.5 -58zM1270 514q0 26 -18 40.5t-48 14.5q-32 0 -54 -18t-22 -49q0 -26 18 -41t46 -15q35 0 56.5 18t21.5 50z" />
    <glyph glyph-name="uni215D" unicode="&#x215d;" horiz-adv-x="1548" 
d="M1403 1257l-1073 -1257h-197l1073 1257h197zM1081 213q0 -27 20.5 -44t53.5 -17q36 0 60 19t24 52q0 26 -20 43t-52 17q-36 0 -61 -19.5t-25 -50.5zM1153 -10q-69 0 -128.5 19.5t-101.5 67t-42 116.5q0 64 35.5 110.5t93.5 69.5q-62 41 -62 125q0 110 80.5 170.5
t192.5 60.5q104 0 174.5 -54t70.5 -145q0 -60 -28.5 -108t-81.5 -74q84 -47 84 -137q0 -105 -84.5 -163t-202.5 -58zM1276 514q0 26 -18.5 40.5t-47.5 14.5q-33 0 -55 -18t-22 -49q0 -26 17.5 -41t47.5 -15q33 0 55.5 18.5t22.5 49.5zM627 805q0 -129 -90.5 -203t-227.5 -74
q-136 0 -219 62l33 186q30 -33 83 -55.5t107 -22.5q44 0 77.5 21t33.5 61q0 66 -105 66q-96 0 -163 -25l75 436h437l-31 -184h-266l-13 -69q20 4 39 4q108 0 169 -53.5t61 -149.5z" />
    <glyph glyph-name="uni215E" unicode="&#x215e;" horiz-adv-x="1466" 
d="M1321 1257l-1073 -1257h-199l1075 1257h197zM772 1253l-450 -712h-224l340 532h-272l33 184h575zM999 213q0 -27 20.5 -44t53.5 -17q36 0 60 19t24 52q0 26 -20 43t-52 17q-36 0 -61 -19.5t-25 -50.5zM1071 -10q-69 0 -128.5 19.5t-101.5 67t-42 116.5q0 64 35.5 110.5
t93.5 69.5q-62 41 -62 125q0 110 80.5 170.5t192.5 60.5q104 0 174.5 -54t70.5 -145q0 -60 -28.5 -108t-81.5 -74q84 -47 84 -137q0 -105 -84.5 -163t-202.5 -58zM1194 514q0 26 -18.5 40.5t-47.5 14.5q-33 0 -55 -18t-22 -49q0 -26 17.5 -41t47.5 -15q33 0 55.5 18.5
t22.5 49.5z" />
    <glyph glyph-name="minus" unicode="&#x2212;" horiz-adv-x="1138" 
d="M111 494l43 237h927l-41 -237h-929z" />
    <glyph glyph-name="approxequal" unicode="&#x2248;" horiz-adv-x="1175" 
d="M156 637l39 223q144 82 264 82q79 0 203.5 -40t203.5 -40q131 0 271 84l-39 -223q-145 -84 -269 -84q-79 0 -204.5 41t-204.5 41q-122 0 -264 -84zM94 285l39 219q141 86 262 86q79 0 205 -42t205 -42q123 0 270 86l-39 -223q-145 -82 -272 -82q-79 0 -203 40t-203 40
q-120 0 -264 -82z" />
    <glyph glyph-name="notequal" unicode="&#x2260;" horiz-adv-x="1175" 
d="M166 696l37 213h553l155 191h197l-156 -191h178l-36 -213h-316l-131 -161h420l-39 -211h-553l-156 -191h-196l156 191h-179l39 211h312l131 161h-416z" />
    <glyph glyph-name="lessequal" unicode="&#x2264;" horiz-adv-x="905" 
d="M127 610l49 285l754 250l-49 -264l-502 -138l452 -143l-40 -238zM35 86l39 229h708l-41 -229h-706z" />
    <glyph glyph-name="greaterequal" unicode="&#x2265;" horiz-adv-x="905" 
d="M782 315l-41 -229h-706l39 229h708zM885 895l-51 -283l-752 -250l49 263l502 139l-453 141l41 240z" />
    <glyph glyph-name="fi" unicode="&#xfb01;" horiz-adv-x="1187" 
d="M1184 922l-162 -922h-322l162 922h322zM1249 1180q0 -82 -54.5 -131.5t-131.5 -49.5q-75 0 -126.5 46t-51.5 120q0 81 55 131t131 50q75 0 126.5 -46t51.5 -120zM827 1325l-47 -262q-27 18 -71 18q-118 0 -136 -110l-8 -49h178l-45 -250h-178l-117 -672h-317l117 672
h-137l45 250h137l12 67q29 175 138 268t284 93q79 0 145 -25z" />
    <glyph glyph-name="fl" unicode="&#xfb02;" horiz-adv-x="1187" 
d="M1255 1331l-233 -1331h-322l234 1331h321zM827 1325l-47 -262q-27 18 -71 18q-118 0 -136 -110l-8 -49h178l-45 -250h-178l-117 -672h-317l117 672h-137l45 250h137l12 67q29 175 138 268t284 93q79 0 145 -25z" />
    <glyph glyph-name="i.dot" horiz-adv-x="495" 
d="M492 922l-162 -922h-322l162 922h322zM561 1186q0 -76 -53 -124t-129 -48t-129 48t-53 124q0 77 53 125.5t129 48.5t129 -48.5t53 -125.5z" />
    <glyph glyph-name="space_uni0326" 
d="M342 -483l113 127q-41 16 -68 52t-27 87q0 65 47.5 107t118.5 42q69 0 117.5 -43.5t48.5 -117.5q0 -94 -96 -195l-55 -59h-199z" />
    <glyph glyph-name="space_uni0326.alt" 
d="M692 1425l-121 -137q41 -16 67 -51.5t26 -85.5q0 -66 -46.5 -109t-117.5 -43q-70 0 -118 44t-48 118q0 94 96 195l64 69h198z" />
    <glyph glyph-name="space_dotbelowcomb" 
d="M690 -233q0 -76 -52 -123t-126 -47t-126 47t-52 123q0 73 52 119t126 46t126 -46t52 -119z" />
    <glyph glyph-name="acute.cap" 
d="M563 1364h-323l215 266h336z" />
    <glyph glyph-name="breve.cap" 
d="M477 1348q-132 0 -207.5 80t-48.5 219h221q-7 -42 8.5 -64t49.5 -22q75 0 90 86h221q-26 -146 -113 -222.5t-221 -76.5z" />
    <glyph glyph-name="circumflex.cap" 
d="M684 1634l172 -270h-250l-69 92l-103 -92h-266l270 270h246z" />
    <glyph glyph-name="dieresis.cap" 
d="M166 1503q0 68 46.5 115t113.5 47q66 0 113.5 -47.5t47.5 -114.5t-47.5 -114.5t-113.5 -47.5q-67 0 -113.5 47t-46.5 115zM537 1503q0 67 46.5 114.5t112.5 47.5t114 -47.5t48 -114.5t-48 -114.5t-114 -47.5t-112.5 47.5t-46.5 114.5z" />
    <glyph glyph-name="grave.cap" 
d="M733 1364h-295l-135 266h309z" />
    <glyph glyph-name="macron.cap" 
d="M219 1364l39 221h545l-39 -221h-545z" />
    <glyph glyph-name="ring.cap" 
d="M506 1456q32 0 55 23t23 57q0 28 -20 48t-50 20t-53 -22t-23 -56q0 -29 19.5 -49.5t48.5 -20.5zM502 1315q-90 0 -151.5 60t-61.5 147q0 93 67.5 158t163.5 65q90 0 151.5 -59t61.5 -146q0 -93 -67.5 -159t-163.5 -66z" />
    <glyph glyph-name="tilde.cap" 
d="M678 1659h176q-22 -136 -80 -221.5t-153 -85.5q-50 0 -116.5 36.5t-94.5 36.5q-25 0 -42.5 -18t-21.5 -49h-178q15 89 42.5 154.5t76.5 109t114 43.5q51 0 117 -37t94 -37q25 0 42.5 18.5t23.5 49.5z" />
    <glyph glyph-name="caron.cap" 
d="M340 1358l-172 272h250l69 -94l103 94h266l-270 -272h-246z" />
    <glyph glyph-name="dotaccent.cap" 
d="M694 1522q0 -77 -53 -125.5t-129 -48.5t-129 48.5t-53 125.5q0 76 53 124t129 48t129 -48t53 -124z" />
    <glyph glyph-name="caron.Slovak" 
d="M559 989h-250l158 342h252z" />
    <glyph glyph-name="hungarumlaut.cap" 
d="M371 1364h-273l203 266h272zM721 1364h-270l202 266h273z" />
    <glyph glyph-name="cedilla.alt" 
d="M551 -371h-277l193 289h278z" />
    <glyph glyph-name="exclamdown.cap" horiz-adv-x="489" 
d="M444 836l-82 -836h-389l224 836h247zM547 1090q0 -76 -55.5 -128.5t-135.5 -52.5t-135 52.5t-55 128.5q0 78 55 130t135 52t135.5 -52.5t55.5 -129.5z" />
    <glyph glyph-name="questiondown.cap" horiz-adv-x="913" 
d="M557 625q-16 -15 -52.5 -48t-54.5 -51t-41.5 -45t-33.5 -52t-10 -50q0 -100 124 -100q90 0 188 47.5t181 111.5l-53 -313q-205 -145 -438 -145q-165 0 -258 87t-93 224q0 37 7 72t15 62t27.5 58t31.5 49.5t40.5 48.5t42 43t47.5 44.5t45 42.5q77 69 88 125h326
q-14 -58 -42.5 -105.5t-86.5 -105.5zM752 1090q0 -77 -55.5 -129t-135.5 -52q-82 0 -137 51.5t-55 129.5t55 130t137 52q80 0 135.5 -52.5t55.5 -129.5z" />
    <glyph glyph-name="guilsinglleft.cap" horiz-adv-x="569" 
d="M500 283h-275l-129 335l238 336h293l-250 -352z" />
    <glyph glyph-name="guilsinglright.cap" horiz-adv-x="569" 
d="M154 954h274l129 -336l-238 -335h-292l249 352z" />
    <glyph glyph-name="guillemotleft.cap" horiz-adv-x="923" 
d="M485 283h-260l-129 335l248 336h266l-248 -348zM858 283h-264l-125 323l246 348h266l-250 -352z" />
    <glyph glyph-name="guillemotright.cap" horiz-adv-x="923" 
d="M522 954h260l129 -336l-247 -335h-265l248 348zM150 954h264l127 -323l-248 -348h-266l249 352z" />
    <glyph glyph-name="slash.cap" horiz-adv-x="806" 
d="M-102 -131l770 1503h295l-773 -1503h-292z" />
    <glyph glyph-name="backslash.cap" horiz-adv-x="806" 
d="M455 1372l243 -1503h-258l-243 1503h258z" />
    <glyph glyph-name="bar.cap" horiz-adv-x="456" 
d="M-6 -131l264 1503h266l-264 -1503h-266z" />
    <glyph glyph-name="periodcentered.cap" horiz-adv-x="477" 
d="M74 604q0 81 54.5 136t133.5 55q80 0 135.5 -55t55.5 -136t-55.5 -136.5t-135.5 -55.5q-78 0 -133 55.5t-55 136.5z" />
    <glyph glyph-name="bullet.cap" horiz-adv-x="780" 
d="M752 604q0 -147 -98.5 -241.5t-241.5 -94.5t-241.5 94.5t-98.5 241.5q0 150 98.5 246t241.5 96t241.5 -96t98.5 -246z" />
    <glyph glyph-name="hyphen.cap" horiz-adv-x="638" 
d="M74 471l47 268h493l-47 -268h-493z" />
    <glyph glyph-name="endash.cap" horiz-adv-x="954" 
d="M74 496l39 217h809l-39 -217h-809z" />
    <glyph glyph-name="emdash.cap" horiz-adv-x="1714" 
d="M74 496l39 217h1568l-39 -217h-1568z" />
    <glyph glyph-name="parenleft.cap" horiz-adv-x="684" 
d="M84 508q0 159 50.5 303t142.5 258t229.5 194t304.5 109l-53 -301q-165 -53 -272 -199.5t-107 -363.5q0 -132 58 -216.5t163 -121.5l-53 -301q-221 59 -342 223.5t-121 415.5z" />
    <glyph glyph-name="parenright.cap" horiz-adv-x="684" 
d="M666 733q0 -159 -50.5 -303t-142.5 -258t-229.5 -194t-304.5 -109l53 301q166 53 272.5 199t106.5 364q0 132 -58 216.5t-163 121.5l53 301q222 -59 342.5 -223.5t120.5 -415.5z" />
    <glyph glyph-name="bracketleft.cap" horiz-adv-x="677" 
d="M516 1106l-170 -971h244l-45 -266h-545l264 1503h545l-47 -266h-246z" />
    <glyph glyph-name="bracketright.cap" horiz-adv-x="677" 
d="M229 135l172 971h-245l47 266h545l-265 -1503h-544l47 266h243z" />
    <glyph glyph-name="braceleft.cap" horiz-adv-x="749" 
d="M492 451l-46 -256q-12 -60 50 -60h166l-48 -266h-254q-120 0 -179.5 72.5t-37.5 193.5l52 293q9 59 -50 59h-90l47 267h91q60 0 69 59l51 293q22 118 108.5 192t203.5 74h254l-48 -266h-165q-61 0 -70 -59l-45 -256q-21 -114 -127 -173q88 -59 68 -167z" />
    <glyph glyph-name="braceright.cap" horiz-adv-x="749" 
d="M328 791l45 256q12 59 -49 59h-168l47 266h256q120 0 178.5 -72t38.5 -194l-51 -293q-9 -59 49 -59h90l-49 -267h-88q-61 0 -70 -59l-51 -293q-22 -119 -108 -192.5t-203 -73.5h-256l47 266h168q60 0 69 60l45 256q20 112 127 172q-87 59 -67 168z" />
    <glyph glyph-name="at.cap" horiz-adv-x="1554" 
d="M1241 989l-115 -497q-10 -37 1.5 -60.5t48.5 -23.5q94 0 155.5 98t61.5 270q0 133 -65.5 231t-179 147.5t-259.5 49.5q-140 0 -260.5 -50t-206 -138t-134 -213.5t-48.5 -272.5q0 -113 36 -202.5t93 -145t134.5 -92t154.5 -51t159 -14.5q253 0 492 108l-29 -166
q-85 -41 -207.5 -67.5t-255.5 -26.5q-119 0 -226.5 23.5t-203.5 75t-166 127t-110.5 185.5t-40.5 244q0 168 61.5 320.5t168.5 265t262 178.5t333 66q293 0 476 -163t183 -415q0 -129 -38 -232.5t-102 -167.5t-145 -98t-171 -34q-74 0 -136 26t-96 76q-35 -48 -92.5 -73
t-118.5 -25q-122 0 -191 79.5t-69 205.5q0 122 50 229t144 173.5t210 66.5q57 0 104 -21t66 -53l16 57h256zM877 543l43 176q-8 28 -34 45.5t-61 17.5q-68 0 -115.5 -59.5t-47.5 -144.5q0 -47 25 -75t73 -28q71 0 117 68z" />
    <glyph glyph-name="Euro.lt" horiz-adv-x="1064" 
d="M82 676l27 158h100q74 199 231.5 321.5t360.5 122.5q91 0 170.5 -26.5t134.5 -73.5l-51 -304q-58 56 -118 85.5t-138 29.5q-169 0 -260 -155h313l-59 -158h-316q-9 -44 -12 -90h295l-60 -158h-225q22 -76 80.5 -118t151.5 -42q134 0 254 72l-56 -307q-95 -53 -229 -53
q-215 0 -352.5 120.5t-163.5 327.5h-123l29 158h90q2 25 10 90h-84z" />
    <glyph glyph-name="dollar.lt" horiz-adv-x="1064" 
d="M25 125l53 293q79 -64 181.5 -106t201.5 -42q85 0 138.5 26.5t53.5 84.5q0 31 -22.5 51t-65.5 35l-174 59q-126 44 -193 117t-67 188q0 171 116 279t290 133l32 184h262l-34 -194q126 -26 231 -90l-53 -289q-163 135 -350 135q-78 0 -126 -24.5t-48 -75.5q0 -31 20.5 -48
t67.5 -34l186 -68q252 -97 252 -305q0 -91 -31.5 -166t-86.5 -125t-124 -81.5t-151 -45.5l-35 -192h-262l35 194q-176 24 -297 107z" />
    <glyph glyph-name="cent.lt" horiz-adv-x="1064" 
d="M324 -174l34 209q-116 45 -181.5 146.5t-65.5 244.5q0 196 111 341t298 183l35 197h262l-35 -203q75 -17 129 -57l-47 -273q-88 78 -198 78q-102 0 -171 -64.5t-69 -183.5q0 -82 53 -130t142 -48q100 0 192 58l-47 -269q-64 -41 -150 -51l-30 -178h-262z" />
    <glyph glyph-name="sterling.lt" horiz-adv-x="1064" 
d="M102 500l43 243h131l17 97q37 204 172.5 321t347.5 117q85 0 154.5 -17t107.5 -44l-49 -289q-87 63 -213 63q-94 0 -146 -51t-71 -158l-8 -39h239l-43 -243h-239l-8 -47q-22 -130 -76 -187h491l-47 -266h-891l45 266h93q52 70 73 187l8 47h-131z" />
    <glyph glyph-name="yen.lt" horiz-adv-x="1064" 
d="M27 213l34 188h283l16 99h-284l35 188h196l-162 569h318l115 -446l266 446h325l-368 -569h196l-32 -188h-285l-16 -99h284l-33 -188h-284l-37 -213h-320l37 213h-284z" />
    <glyph glyph-name="florin.lt" horiz-adv-x="1064" 
d="M231 479l45 250h166l64 207q48 166 153.5 254t260.5 88q98 0 165 -27l-47 -260q-47 19 -86 19q-50 0 -81 -26t-48 -83l-53 -172h158l-45 -250h-187l-143 -479q-99 -340 -406 -340q-97 0 -165 27l41 245q42 -20 86 -20q49 0 77 26t45 85l138 456h-138z" />
    <glyph glyph-name="zero.lt" horiz-adv-x="1064" 
d="M496 266q58 0 105.5 50t76 129t44 167t15.5 172q0 207 -131 207q-57 0 -104.5 -50t-76.5 -128.5t-44.5 -167t-15.5 -172.5q0 -207 131 -207zM479 -20q-206 0 -316 138t-110 365q0 222 74 404t205 286.5t291 104.5q207 0 316.5 -138t109.5 -366q0 -222 -74 -404t-205 -286
t-291 -104z" />
    <glyph glyph-name="one.lt" horiz-adv-x="1064" 
d="M43 0l49 283h303l109 618l-320 -145l58 313l424 188h221l-172 -974h258l-49 -283h-881z" />
    <glyph glyph-name="two.lt" horiz-adv-x="1064" 
d="M561 283h381l-49 -283h-944v8l465 502q12 13 45 47.5t49 52t43.5 49t42 53.5t31 50.5t23.5 54.5t7 51q0 49 -32.5 79t-96.5 30q-88 0 -197 -51t-198 -115l57 324q89 63 210 103t249 40q166 0 260 -87t94 -224q0 -72 -21.5 -140.5t-65 -135t-87 -119t-108.5 -121.5z" />
    <glyph glyph-name="three.lt" horiz-adv-x="1064" 
d="M205 975l49 282h840v-6l-346 -497q91 -46 144.5 -126.5t53.5 -185.5q0 -139 -72 -245.5t-192.5 -161.5t-269.5 -55q-235 0 -373 108l53 299q63 -66 147 -101.5t175 -35.5q101 0 163 45t62 131q0 78 -66.5 119t-173.5 41q-35 0 -53 -2v6l270 385h-411z" />
    <glyph glyph-name="four.lt" horiz-adv-x="1064" 
d="M846 1257l-414 -770h182l41 234h279l-43 -234h141l-47 -266h-141l-37 -221h-279l37 221h-588l3 8l563 1028h303z" />
    <glyph glyph-name="five.lt" horiz-adv-x="1064" 
d="M954 459q0 -146 -73 -256.5t-195 -166.5t-274 -56q-234 0 -375 104l53 295q55 -60 142.5 -96.5t183.5 -36.5t164.5 44.5t68.5 131.5q0 69 -54.5 105t-152.5 36q-153 0 -286 -49l133 743h743l-49 -282h-489l-29 -160q42 10 90 10q185 0 292 -97.5t107 -268.5z" />
    <glyph glyph-name="six.lt" horiz-adv-x="1064" 
d="M504 -20q-99 0 -183.5 34t-141.5 91.5t-89.5 133t-32.5 158.5q0 117 47.5 224t159.5 243l328 393h369l-330 -378q16 4 26 4q160 -19 262.5 -129t102.5 -267q0 -144 -70 -261t-188 -181.5t-260 -64.5zM522 262q84 0 142.5 57.5t58.5 145.5q0 70 -47.5 118t-116.5 48
q-84 0 -142.5 -57t-58.5 -144q0 -72 47.5 -120t116.5 -48z" />
    <glyph glyph-name="seven.lt" horiz-adv-x="1064" 
d="M1163 1251l-776 -1251h-352l610 975h-500l50 282h968v-6z" />
    <glyph glyph-name="eight.lt" horiz-adv-x="1064" 
d="M354 358q0 -57 41 -91t109 -36q72 0 123 41.5t51 112.5q0 57 -42 92t-108 35q-72 0 -123 -41.5t-51 -112.5zM496 -20q-66 0 -130 12.5t-123.5 40t-104.5 67.5t-72 98.5t-27 129.5q0 122 72 210t180 119q-60 33 -91.5 92.5t-31.5 135.5q0 93 38 169t102 124t145.5 74
t171.5 26q176 0 295.5 -91t119.5 -245q0 -109 -59 -195.5t-154 -125.5q70 -34 115 -99.5t45 -150.5q0 -94 -41.5 -170t-111 -123.5t-156 -72.5t-182.5 -25zM748 918q0 52 -38 84t-96 32q-67 0 -112 -39t-45 -106q0 -52 37 -84.5t94 -32.5q67 0 113.5 39.5t46.5 106.5z" />
    <glyph glyph-name="nine.lt" horiz-adv-x="1064" 
d="M602 1278q99 0 184 -34.5t142 -92t89 -133t32 -158.5q0 -117 -47.5 -224t-159.5 -243l-328 -393h-369l330 379q-12 -4 -26 -4q-159 19 -261 128.5t-102 266.5q0 144 69.5 261t187.5 182t259 65zM584 995q-83 0 -141 -57t-58 -145q0 -71 47 -118.5t117 -47.5q83 0 141 57
t58 143q0 72 -47 120t-117 48z" />
    <glyph glyph-name="period.tab" horiz-adv-x="532" 
d="M18 178q0 81 55 136t134 55q80 0 135 -55t55 -136t-55 -136.5t-135 -55.5q-79 0 -134 55.5t-55 136.5z" />
    <glyph glyph-name="comma.tab" horiz-adv-x="532" 
d="M-29 -215l181 238q-52 16 -83.5 57t-31.5 104q0 81 53.5 132t134.5 51q79 0 134 -53t55 -144q0 -88 -86 -201l-146 -184h-211z" />
    <glyph glyph-name="colon.tab" horiz-adv-x="532" 
d="M18 178q0 81 55 136t134 55q80 0 135 -55t55 -136t-55 -136.5t-135 -55.5q-79 0 -134 55.5t-55 136.5zM117 721q0 81 54.5 135.5t133.5 54.5q80 0 135.5 -54.5t55.5 -135.5t-55.5 -137t-135.5 -56q-78 0 -133 56t-55 137z" />
    <glyph glyph-name="semicolon.tab" horiz-adv-x="532" 
d="M-29 -215l181 238q-52 16 -83.5 57t-31.5 104q0 81 53.5 132t134.5 51q79 0 134 -53t55 -144q0 -88 -86 -201l-146 -184h-211zM117 721q0 81 54.5 135.5t133.5 54.5q80 0 135.5 -54.5t55.5 -135.5t-55.5 -137t-135.5 -56q-78 0 -133 56t-55 137z" />
    <glyph glyph-name="space.tab" horiz-adv-x="532" 
 />
    <glyph glyph-name="percent.lt" horiz-adv-x="1064" 
d="M369 1278q101 0 170 -70t69 -172q0 -106 -74.5 -184t-185.5 -78q-101 0 -170 70t-69 170q0 105 75 184.5t185 79.5zM354 934q38 0 66.5 28t28.5 68q0 37 -25 62.5t-62 25.5q-38 0 -66 -28t-28 -68q0 -37 24.5 -62.5t61.5 -25.5zM713 -20q-101 0 -170.5 70t-69.5 171
q0 106 74.5 184t185.5 78q101 0 170.5 -69.5t69.5 -169.5q0 -105 -75 -184.5t-185 -79.5zM727 324q-37 0 -65.5 -28t-28.5 -69q0 -37 24.5 -62.5t61.5 -25.5t65.5 28.5t28.5 68.5q0 37 -24.5 62.5t-61.5 25.5zM1126 1257l-979 -1257h-192l979 1257h192z" />
    <glyph glyph-name="perthousand.lt" horiz-adv-x="1638" 
d="M401 1278q102 0 172 -70t70 -172q0 -105 -75 -183.5t-185 -78.5q-101 0 -171.5 70t-70.5 170q0 105 76 184.5t184 79.5zM389 934q38 0 66 28t28 68q0 37 -25.5 62.5t-62.5 25.5q-36 0 -65 -28t-29 -68q0 -37 25.5 -62.5t62.5 -25.5zM748 -20q-101 0 -171.5 70t-70.5 171
q0 105 75 183.5t185 78.5q102 0 172 -69.5t70 -169.5q0 -105 -76 -184.5t-184 -79.5zM760 324q-36 0 -65 -28.5t-29 -68.5q0 -37 25.5 -62.5t62.5 -25.5q36 0 65 28.5t29 68.5q0 37 -25.5 62.5t-62.5 25.5zM1161 1257l-981 -1257h-190l979 1257h192zM1296 -20
q-101 0 -170 70t-69 171q0 106 74.5 184t185.5 78q101 0 170 -69.5t69 -169.5q0 -105 -75 -184.5t-185 -79.5zM1311 324q-37 0 -65.5 -28t-28.5 -69q0 -37 24.5 -62.5t61.5 -25.5t65.5 28.5t28.5 68.5q0 37 -24.5 62.5t-61.5 25.5z" />
    <glyph glyph-name="plus.lt" horiz-adv-x="1064" 
d="M508 1077h237l-61 -346h346l-43 -237h-346l-59 -344h-238l59 344h-344l41 237h346z" />
    <glyph glyph-name="minus.lt" horiz-adv-x="1064" 
d="M59 494l41 237h930l-43 -237h-928z" />
    <glyph glyph-name="multiply.lt" horiz-adv-x="1064" 
d="M385 616l-205 246l187 160l202 -246l291 246l137 -166l-290 -246l202 -248l-186 -157l-203 246l-291 -248l-137 166z" />
    <glyph glyph-name="divide.lt" horiz-adv-x="1064" 
d="M59 494l41 237h930l-43 -237h-928zM446 981q0 67 48 114.5t116 47.5q69 0 118.5 -47.5t49.5 -114.5t-49.5 -114.5t-118.5 -47.5q-68 0 -116 47.5t-48 114.5zM317 244q0 67 48 114.5t116 47.5q69 0 117.5 -47.5t48.5 -114.5t-48.5 -114.5t-117.5 -47.5q-68 0 -116 47.5
t-48 114.5z" />
    <glyph glyph-name="equal.lt" horiz-adv-x="1064" 
d="M31 324l37 211h927l-39 -211h-925zM96 696l37 215h928l-37 -215h-928z" />
    <glyph glyph-name="less.lt" horiz-adv-x="1064" 
d="M139 461l51 295l762 313l-47 -272l-518 -197l449 -194l-45 -259z" />
    <glyph glyph-name="greater.lt" horiz-adv-x="1064" 
d="M952 756l-53 -295l-760 -314l45 273l518 196l-448 195l45 258z" />
    <glyph glyph-name="plusminus.lt" horiz-adv-x="1064" 
d="M553 1149h217l-47 -262h338l-37 -213h-340l-47 -262h-215l47 262h-338l39 213h336zM29 98l39 215h893l-39 -215h-893z" />
    <glyph glyph-name="lessequal.lt" horiz-adv-x="1064" 
d="M188 610l52 285l751 250l-49 -264l-502 -138l453 -143l-41 -238zM96 86l41 229h707l-39 -229h-709z" />
    <glyph glyph-name="greaterequal.lt" horiz-adv-x="1064" 
d="M868 315l-41 -229h-706l39 229h708zM971 895l-51 -283l-752 -250l49 263l502 139l-453 141l41 240z" />
    <glyph glyph-name="notequal.lt" horiz-adv-x="1064" 
d="M96 696l37 213h551l156 191h196l-155 -191h180l-37 -213h-315l-134 -161h420l-39 -211h-553l-153 -191h-197l154 191h-176l37 211h311l133 161h-416z" />
    <glyph glyph-name="approxequal.lt" horiz-adv-x="1064" 
d="M86 637l41 223q141 82 262 82q79 0 204 -40t204 -40q130 0 270 84l-39 -223q-145 -84 -268 -84q-79 0 -205 41t-205 41q-122 0 -264 -84zM25 285l38 219q141 86 263 86q79 0 204.5 -42t204.5 -42q124 0 271 86l-39 -223q-145 -82 -273 -82q-79 0 -202.5 40t-202.5 40
q-120 0 -264 -82z" />
    </font>
</defs>
</svg>
