<?xml version="1.0" standalone="no"?>
<!DOCTYPE svg PUBLIC "-//W3C//DTD SVG 1.1//EN" "http://www.w3.org/Graphics/SVG/1.1/DTD/svg11.dtd" >
<svg xmlns="http://www.w3.org/2000/svg" xmlns:xlink="http://www.w3.org/1999/xlink" version="1.1">
<metadata>
Created by FontForge 20170731 at Wed Mar 10 14:29:49 2021
 By Aleksey,,,
(c) 2011 Klim Type Foundry. All rights reserved.
</metadata>
<defs>
<font id="Metric-MediumItalic" horiz-adv-x="1024" >
  <font-face 
    font-family="Metric Medium"
    font-weight="500"
    font-style="italic"
    font-stretch="normal"
    units-per-em="2048"
    panose-1="2 11 6 3 3 2 2 13 2 3"
    ascent="1331"
    descent="-717"
    x-height="909"
    cap-height="1257"
    bbox="-399 -444 1894 1831"
    underline-thickness="61"
    underline-position="-204"
    slope="-10"
    unicode-range="U+0020-FB02"
  />
<missing-glyph horiz-adv-x="1245" 
 />
    <glyph glyph-name="f_f" unicode="ff" horiz-adv-x="1230" 
d="M1368 1327l-33 -178q-36 25 -88 25q-67 0 -109.5 -35.5t-54.5 -104.5l-22 -125h199l-31 -170h-199l-129 -739h-201l129 739h-380l-130 -739h-200l129 739h-158l31 170h158l22 129q25 143 122.5 222t229.5 79q79 0 131 -24l-32 -178q-35 24 -88 24q-140 0 -164 -139
l-21 -113h381l25 142q25 143 122.5 222t229.5 79q76 0 131 -25z" />
    <glyph glyph-name=".notdef" horiz-adv-x="1245" 
 />
    <glyph glyph-name=".null" horiz-adv-x="0" 
 />
    <glyph glyph-name="nonmarkingreturn" horiz-adv-x="682" 
 />
    <glyph glyph-name="space" unicode=" " horiz-adv-x="452" 
 />
    <glyph glyph-name="exclam" unicode="!" horiz-adv-x="409" 
d="M133 395l107 862h245l-209 -862h-143zM31 127q0 60 40 100.5t99 40.5t99 -40.5t40 -100.5t-40 -100.5t-99 -40.5t-99 40.5t-40 100.5z" />
    <glyph glyph-name="quotedbl" unicode="&#x22;" horiz-adv-x="624" 
d="M129 766l88 491h174l-88 -491h-174zM416 766l88 491h174l-88 -491h-174z" />
    <glyph glyph-name="numbersign" unicode="#" horiz-adv-x="1271" 
d="M1153 487l-31 -155h-235l-101 -332h-180l101 332h-263l-100 -332h-178l100 332h-174l33 155h188l86 283h-219l31 156h235l101 331h180l-102 -331h262l102 331h178l-100 -331h174l-33 -156h-188l-86 -283h219zM578 770l-86 -283h262l86 283h-262z" />
    <glyph glyph-name="dollar" unicode="$" horiz-adv-x="964" 
d="M18 133l39 213q170 -156 369 -156q118 0 192 44t74 135q0 54 -35 85.5t-110 63.5l-166 70q-110 46 -173 112t-63 172q0 84 33.5 153t90 114.5t126 73t146.5 34.5l32 191h185l-35 -199q147 -26 250 -102l-37 -201q-159 133 -344 133q-104 0 -173 -40.5t-69 -123.5
q0 -53 31 -80t106 -59l187 -78q225 -97 225 -282q0 -170 -109 -271.5t-282 -122.5l-37 -200h-184l37 202q-188 24 -306 119z" />
    <glyph glyph-name="percent" unicode="%" horiz-adv-x="1382" 
d="M438 1278q114 0 191.5 -77.5t77.5 -190.5q0 -120 -85.5 -209.5t-211.5 -89.5q-114 0 -191.5 77.5t-77.5 190.5q0 120 85.5 209.5t211.5 89.5zM418 864q54 0 94.5 40t40.5 100q0 51 -36 85.5t-87 34.5q-54 0 -94.5 -39.5t-40.5 -99.5q0 -51 36 -86t87 -35zM129 0l985 1257
h176l-985 -1257h-176zM981 -20q-114 0 -191 77.5t-77 190.5q0 120 85.5 209.5t211.5 89.5q114 0 191 -77.5t77 -190.5q0 -120 -85.5 -209.5t-211.5 -89.5zM1001 393q-54 0 -94.5 -39.5t-40.5 -99.5q0 -51 36 -86t87 -35q54 0 94.5 39.5t40.5 99.5q0 51 -36 86t-87 35z" />
    <glyph glyph-name="ampersand" unicode="&#x26;" horiz-adv-x="1179" 
d="M674 1278q172 0 287 -90l-35 -199q-114 117 -252 117q-84 0 -136.5 -49t-52.5 -133q0 -74 74 -172l260 -351q54 98 78 213h188q-42 -203 -159 -358l192 -256h-241l-86 113q-165 -133 -353 -133q-185 0 -287 93t-102 255q0 129 80.5 228t218.5 153q-61 101 -61 204
q0 158 112.5 261.5t274.5 103.5zM438 147q140 0 254 97l-243 325q-91 -21 -147 -86t-56 -155q0 -82 54.5 -131.5t137.5 -49.5z" />
    <glyph glyph-name="quotesingle" unicode="'" horiz-adv-x="346" 
d="M129 766l88 491h182l-88 -491h-182z" />
    <glyph glyph-name="parenleft" unicode="(" horiz-adv-x="651" 
d="M59 449q0 318 186.5 556.5t510.5 325.5l-39 -221q-187 -46 -320 -233t-133 -428q0 -156 72 -262.5t194 -137.5l-38 -221q-201 65 -317 224t-116 397z" />
    <glyph glyph-name="parenright" unicode=")" horiz-adv-x="651" 
d="M639 711q0 -318 -186 -557t-510 -326l39 221q121 30 224 123t165.5 236t62.5 303q0 156 -72 262t-194 137l39 221q201 -65 316.5 -223.5t115.5 -396.5z" />
    <glyph glyph-name="asterisk" unicode="*" horiz-adv-x="712" 
d="M446 707l-112 18l35 207l-195 -72l-39 107l195 71l-162 136l74 86l159 -134l35 205l113 -18l-35 -207l195 72l39 -107l-195 -72l162 -135l-74 -86l-160 133z" />
    <glyph glyph-name="plus" unicode="+" horiz-adv-x="1155" 
d="M596 1038h164l-62 -344h344l-28 -164h-344l-60 -342h-164l60 342h-344l28 164h345z" />
    <glyph glyph-name="comma" unicode="," horiz-adv-x="409" 
d="M-74 -231l187 231q-42 11 -68.5 45t-26.5 82q0 59 40.5 98t99.5 39q60 0 99.5 -39t39.5 -108q0 -72 -74 -166l-149 -182h-148z" />
    <glyph glyph-name="hyphen" unicode="-" horiz-adv-x="657" 
d="M86 444l33 187h493l-32 -187h-494z" />
    <glyph glyph-name="period" unicode="." horiz-adv-x="409" 
d="M18 127q0 60 40.5 100.5t99.5 40.5t99 -40.5t40 -100.5t-40 -100.5t-99 -40.5t-99.5 40.5t-40.5 100.5z" />
    <glyph glyph-name="slash" unicode="/" horiz-adv-x="731" 
d="M-98 -172l770 1503h209l-772 -1503h-207z" />
    <glyph glyph-name="zero" unicode="0" horiz-adv-x="1097" 
d="M506 172q84 0 153 56t111 146.5t65 198.5t23 218q0 135 -50.5 214.5t-150.5 79.5q-68 0 -126 -36.5t-99 -98t-70 -142t-43 -167.5t-14 -174q0 -135 50.5 -215t150.5 -80zM506 -20q-194 0 -301 132t-107 355q0 217 72.5 403t201.5 297t285 111q194 0 301 -132t107 -355
q0 -216 -72.5 -402t-201.5 -297.5t-285 -111.5z" />
    <glyph glyph-name="one" unicode="1" horiz-adv-x="673" 
d="M670 1257l-221 -1257h-207l176 1001l-322 -149l37 215l412 190h125z" />
    <glyph glyph-name="two" unicode="2" horiz-adv-x="905" 
d="M362 186h455l-33 -186h-835v8l448 469q16 17 57 58.5t67.5 69t63 72.5t58 82t37.5 84t16 91q0 68 -43 108.5t-127 40.5q-176 0 -391 -182l39 227q77 68 185 109t214 41q158 0 246 -83.5t88 -219.5q0 -54 -12 -107t-40 -105.5t-52.5 -92t-71.5 -93.5t-73 -82.5t-80 -84.5z
" />
    <glyph glyph-name="three" unicode="3" horiz-adv-x="897" 
d="M184 1069l33 188h744v-6l-363 -508q104 -36 164.5 -122t60.5 -209q0 -128 -68 -228t-176.5 -152t-234.5 -52q-207 0 -346 110l39 213q55 -66 137 -102.5t170 -36.5q122 0 202.5 61t80.5 187q0 96 -83 155.5t-216 59.5h-19v6l314 436h-439z" />
    <glyph glyph-name="four" unicode="4" horiz-adv-x="1056" 
d="M852 1257l-518 -819h297l53 295h197l-54 -295h187l-31 -176h-186l-45 -262h-197l45 262h-592v8l625 987h219z" />
    <glyph glyph-name="five" unicode="5" horiz-adv-x="925" 
d="M864 442q0 -198 -146 -330t-360 -132q-224 0 -342 100l41 217q112 -133 301 -133q125 0 216.5 68.5t91.5 191.5q0 97 -66 149t-178 52q-78 0 -139.5 -13.5t-139.5 -44.5l123 690h684l-32 -188h-512l-50 -276q46 12 121 12q173 0 280 -94t107 -269z" />
    <glyph glyph-name="six" unicode="6" horiz-adv-x="991" 
d="M477 -20q-180 0 -294.5 114.5t-114.5 280.5q0 118 50 227t169 250l340 405h239l-368 -426q33 11 63 11q166 0 274.5 -111.5t108.5 -275.5q0 -211 -135.5 -343t-331.5 -132zM477 160q118 0 197.5 78.5t79.5 199.5q0 99 -62.5 164.5t-156.5 65.5q-118 0 -197.5 -79
t-79.5 -200q0 -99 62.5 -164t156.5 -65z" />
    <glyph glyph-name="seven" unicode="7" horiz-adv-x="921" 
d="M1059 1251l-791 -1251h-223l678 1069h-569l32 188h873v-6z" />
    <glyph glyph-name="eight" unicode="8" horiz-adv-x="1007" 
d="M262 336q0 -84 59 -134t154 -50q107 0 179.5 61.5t72.5 169.5q0 84 -59 134t-154 50q-107 0 -179.5 -61.5t-72.5 -169.5zM467 -20q-77 0 -149 21.5t-132 61.5t-96.5 105.5t-36.5 146.5q0 140 88.5 237t204.5 116q-67 32 -107 94.5t-40 148.5q0 163 121 265t296 102
q106 0 191.5 -36t137.5 -108t52 -169q0 -122 -71.5 -209t-175.5 -117q81 -33 131.5 -102t50.5 -164q0 -96 -40 -173t-107 -124t-148.5 -71.5t-169.5 -24.5zM788 950q0 69 -50 113.5t-122 44.5q-91 0 -153 -56.5t-62 -152.5q0 -69 50 -113.5t122 -44.5q91 0 153 56.5
t62 152.5z" />
    <glyph glyph-name="nine" unicode="9" horiz-adv-x="991" 
d="M571 1278q180 0 295 -114.5t115 -280.5q0 -118 -50 -227t-169 -250l-340 -406h-240l369 426q-30 -10 -64 -10q-166 0 -274.5 111.5t-108.5 275.5q0 211 135.5 343t331.5 132zM571 1098q-118 0 -197 -79t-79 -200q0 -99 62.5 -164t156.5 -65q118 0 197.5 78.5t79.5 199.5
q0 99 -63 164.5t-157 65.5z" />
    <glyph glyph-name="colon" unicode=":" horiz-adv-x="409" 
d="M18 127q0 60 40.5 100.5t99.5 40.5t99 -40.5t40 -100.5t-40 -100.5t-99 -40.5t-99.5 40.5t-40.5 100.5zM125 741q0 60 40 101t99 41t99 -41t40 -101t-40 -100.5t-99 -40.5t-99 40.5t-40 100.5z" />
    <glyph glyph-name="semicolon" unicode=";" horiz-adv-x="409" 
d="M-74 -231l187 231q-42 11 -68.5 45t-26.5 82q0 59 40.5 98t99.5 39q60 0 99.5 -39t39.5 -108q0 -72 -74 -166l-149 -182h-148zM125 741q0 60 40 101t99 41t99 -41t40 -101t-40 -100.5t-99 -40.5t-99 40.5t-40 100.5z" />
    <glyph glyph-name="less" unicode="&#x3c;" horiz-adv-x="913" 
d="M139 500l37 219l703 311l-33 -194l-539 -234l457 -231l-33 -185z" />
    <glyph glyph-name="equal" unicode="=" horiz-adv-x="1183" 
d="M154 385l26 152h850l-26 -152h-850zM207 688l26 156h850l-26 -156h-850z" />
    <glyph glyph-name="greater" unicode="&#x3e;" horiz-adv-x="913" 
d="M825 717l-37 -219l-702 -312l33 195l538 233l-456 232l32 184z" />
    <glyph glyph-name="question" unicode="?" horiz-adv-x="847" 
d="M477 674q16 15 52 46t59 52.5t49 52.5t39.5 64t13.5 67q0 125 -164 125q-193 0 -395 -174l37 217q78 69 185.5 111.5t211.5 42.5q161 0 249.5 -80.5t88.5 -218.5q0 -51 -15.5 -100.5t-38 -88t-60.5 -80.5t-69.5 -71t-78.5 -68q-70 -59 -97 -99t-32 -77h-207
q19 85 56 145.5t116 133.5zM223 127q0 60 40 100.5t99 40.5t99.5 -40.5t40.5 -100.5t-40.5 -100.5t-99.5 -40.5t-99 40.5t-40 100.5z" />
    <glyph glyph-name="at" unicode="@" horiz-adv-x="1585" 
d="M1200 782l-108 -473q-23 -102 65 -102q100 0 167 104t67 277q0 201 -140 317.5t-364 116.5q-286 0 -471 -190t-185 -492q0 -113 36.5 -203t94.5 -146t137 -93.5t158 -52.5t162 -15q251 0 484 100l-27 -153q-83 -41 -203.5 -66.5t-253.5 -25.5q-119 0 -227.5 23.5
t-204.5 75t-166.5 127t-111.5 185.5t-41 244q0 168 61 320t167.5 264.5t260.5 178.5t330 66q297 0 479 -163t182 -418q0 -127 -37.5 -229t-99.5 -164t-138 -94.5t-157 -32.5q-73 0 -130.5 29t-86.5 81q-28 -49 -85.5 -79.5t-115.5 -30.5q-118 0 -189 79t-71 201
q0 118 51.5 222.5t144 168.5t202.5 64q59 0 104.5 -22t65.5 -54l16 55h178zM911 328l56 227q-11 37 -45 60.5t-82 23.5q-92 0 -152.5 -82.5t-60.5 -189.5q0 -60 32.5 -97t92.5 -37q91 0 159 95z" />
    <glyph glyph-name="A" unicode="A" horiz-adv-x="1253" 
d="M682 1257h205l254 -1257h-213l-66 348h-481l-193 -348h-219zM739 997l-258 -465h346z" />
    <glyph glyph-name="B" unicode="B" horiz-adv-x="1128" 
d="M883 643q74 -26 115.5 -91t41.5 -153q0 -96 -38.5 -172.5t-106 -125.5t-156 -75t-190.5 -26h-481l221 1257h440q178 0 273.5 -77t95.5 -219q0 -115 -62 -201t-153 -117zM401 729h232q122 0 189 50.5t67 152.5q0 73 -47.5 107t-147.5 34h-231zM371 553l-66 -369h270
q118 0 187 59t69 156q0 74 -47.5 114t-142.5 40h-270z" />
    <glyph glyph-name="C" unicode="C" horiz-adv-x="1116" 
d="M981 289l-41 -232q-129 -77 -291 -77q-248 0 -398.5 152.5t-150.5 406.5q0 157 55 295.5t148 235t218 152.5t261 56q107 0 201 -31t152 -80l-39 -219q-133 139 -314 139q-204 0 -335.5 -154.5t-131.5 -393.5q0 -161 92.5 -264t241.5 -103q185 0 332 117z" />
    <glyph glyph-name="D" unicode="D" horiz-adv-x="1249" 
d="M313 190h209q223 0 349 149t126 386q0 165 -85 254.5t-255 89.5h-188zM68 0l221 1257h395q257 0 392.5 -139t135.5 -393q0 -149 -50 -281t-140 -230.5t-226 -156t-298 -57.5h-430z" />
    <glyph glyph-name="E" unicode="E" horiz-adv-x="1052" 
d="M289 1257h821l-33 -188h-612l-59 -332h555l-33 -186h-555l-64 -361h613l-33 -190h-821z" />
    <glyph glyph-name="F" unicode="F" horiz-adv-x="1013" 
d="M281 0h-213l221 1257h803l-33 -188h-590l-68 -373h551l-32 -186h-551z" />
    <glyph glyph-name="G" unicode="G" horiz-adv-x="1226" 
d="M633 -20q-158 0 -280 71.5t-187.5 198.5t-65.5 289q0 156 55 294.5t148 235.5t218.5 153t262.5 56q240 0 385 -109l-39 -221q-133 139 -346 139q-201 0 -335 -152t-134 -396q0 -162 86.5 -266.5t231.5 -104.5q154 0 264 72l45 252h-237l30 178h434l-90 -514
q-176 -176 -446 -176z" />
    <glyph glyph-name="H" unicode="H" horiz-adv-x="1337" 
d="M1135 1257h213l-222 -1257h-213l97 551h-633l-96 -551h-213l221 1257h213l-92 -518h632z" />
    <glyph glyph-name="I" unicode="I" horiz-adv-x="491" 
d="M502 1257l-221 -1257h-213l221 1257h213z" />
    <glyph glyph-name="J" unicode="J" horiz-adv-x="827" 
d="M-2 49l37 215q65 -46 115.5 -68t117.5 -22q102 0 157 63t81 207l143 813h213l-145 -823q-41 -234 -159 -344t-318 -110q-70 0 -135 20.5t-107 48.5z" />
    <glyph glyph-name="K" unicode="K" horiz-adv-x="1175" 
d="M502 1257l-96 -546l587 546h279l-680 -616l481 -641h-256l-436 575l-100 -575h-213l221 1257h213z" />
    <glyph glyph-name="L" unicode="L" horiz-adv-x="1034" 
d="M68 0l221 1257h213l-189 -1067h605l-33 -190h-817z" />
    <glyph glyph-name="M" unicode="M" horiz-adv-x="1480" 
d="M723 270h-8l-283 625l-156 -895h-208l221 1257h188l293 -661l528 661h193l-221 -1257h-209l153 881z" />
    <glyph glyph-name="N" unicode="N" horiz-adv-x="1290" 
d="M1300 1257l-221 -1257h-164l-479 942l-164 -942h-204l221 1257h200l449 -899l158 899h204z" />
    <glyph glyph-name="O" unicode="O" horiz-adv-x="1304" 
d="M629 170q182 0 303 151t121 388q0 163 -85 270.5t-229 107.5q-182 0 -303 -150.5t-121 -387.5q0 -163 85 -271t229 -108zM629 -20q-240 0 -384.5 157.5t-144.5 411.5q0 153 50.5 289t136.5 232t204 152t248 56q240 0 384.5 -157.5t144.5 -411.5q0 -153 -50.5 -289
t-136.5 -232t-204 -152t-248 -56z" />
    <glyph glyph-name="P" unicode="P" horiz-adv-x="1116" 
d="M635 469h-273l-81 -469h-213l221 1257h485q172 0 268.5 -88.5t96.5 -253.5q0 -139 -68 -242t-181 -153.5t-255 -50.5zM469 1073l-74 -420h269q122 0 192 67.5t70 182.5q0 78 -47 124t-142 46h-268z" />
    <glyph glyph-name="Q" unicode="Q" horiz-adv-x="1304" 
d="M629 -20q-240 0 -384.5 157.5t-144.5 411.5q0 153 50.5 289t136.5 232t204 152t248 56q240 0 384.5 -157.5t144.5 -411.5q0 -178 -66.5 -328.5t-181.5 -251.5l80 -129l-148 -96l-80 129q-115 -53 -243 -53zM629 170q79 0 143 27l-80 133l150 94l76 -127q135 151 135 412
q0 163 -85 270.5t-229 107.5q-182 0 -303 -150.5t-121 -387.5q0 -163 85 -271t229 -108z" />
    <glyph glyph-name="R" unicode="R" horiz-adv-x="1136" 
d="M535 510h-166l-88 -510h-213l221 1257h461q190 0 286.5 -84.5t96.5 -246.5q0 -169 -103.5 -275t-277.5 -133l272 -518h-229zM469 1073l-68 -385h265q119 0 186.5 60t67.5 172q0 71 -48 112t-141 41h-262z" />
    <glyph glyph-name="S" unicode="S" horiz-adv-x="1021" 
d="M35 111l39 221q174 -164 375 -164q119 0 194.5 46t75.5 142q0 58 -37 95t-111 69l-170 72q-53 22 -92.5 46t-74 59t-52.5 82t-18 106q0 94 40 171t105 124.5t144.5 72.5t162.5 25q235 0 388 -119l-37 -207q-162 140 -351 140q-105 0 -175 -43.5t-70 -130.5
q0 -54 32.5 -85.5t106.5 -64.5l190 -82q228 -100 228 -291q0 -133 -66 -229t-172.5 -141t-240.5 -45q-131 0 -239 38.5t-175 92.5z" />
    <glyph glyph-name="T" unicode="T" horiz-adv-x="1171" 
d="M170 1069l33 188h1048l-32 -188h-418l-189 -1069h-213l189 1069h-418z" />
    <glyph glyph-name="U" unicode="U" horiz-adv-x="1245" 
d="M584 -20q-211 0 -335 105t-124 302q0 54 16 145l127 725h213l-129 -733q-10 -65 -10 -106q0 -120 60.5 -184t181.5 -64q146 0 232 86.5t118 267.5l129 733h213l-133 -757q-44 -251 -189.5 -385.5t-369.5 -134.5z" />
    <glyph glyph-name="V" unicode="V" horiz-adv-x="1234" 
d="M625 0h-205l-230 1257h216l161 -981l551 981h228z" />
    <glyph glyph-name="W" unicode="W" horiz-adv-x="1597" 
d="M862 1257h172l56 -925l409 925h209l-571 -1257h-197l-63 899l-416 -899h-195l-76 1257h205l45 -925z" />
    <glyph glyph-name="X" unicode="X" horiz-adv-x="1173" 
d="M1296 1257l-559 -624l322 -633h-223l-242 481l-426 -481h-242l582 649l-307 608h223l227 -456l404 456h241z" />
    <glyph glyph-name="Y" unicode="Y" horiz-adv-x="1183" 
d="M637 694l432 563h234l-590 -755l-88 -502h-211l88 502l-322 755h223z" />
    <glyph glyph-name="Z" unicode="Z" horiz-adv-x="1103" 
d="M973 190l-33 -190h-965v8l840 1061h-594l33 188h944l-2 -6l-836 -1061h613z" />
    <glyph glyph-name="bracketleft" unicode="[" horiz-adv-x="645" 
d="M451 1147l-199 -1135h272l-32 -184h-465l264 1503h465l-33 -184h-272z" />
    <glyph glyph-name="backslash" unicode="\" horiz-adv-x="731" 
d="M401 1331l244 -1503h-194l-244 1503h194z" />
    <glyph glyph-name="bracketright" unicode="]" horiz-adv-x="645" 
d="M248 12l198 1135h-272l33 184h465l-264 -1503h-465l32 184h273z" />
    <glyph glyph-name="asciicircum" unicode="^" horiz-adv-x="800" 
d="M434 1257h209l199 -421h-197l-125 258l-219 -258h-219z" />
    <glyph glyph-name="underscore" unicode="_" horiz-adv-x="780" 
d="M-70 -264l29 178h698l-30 -178h-697z" />
    <glyph glyph-name="grave" unicode="`" 
d="M672 1051h-170l-137 280h198z" />
    <glyph glyph-name="a" unicode="a" horiz-adv-x="950" 
d="M651 518l11 51q6 30 6 52q0 124 -176 124q-136 0 -275 -83l33 192q52 33 135.5 54.5t167.5 21.5q152 0 233.5 -68.5t81.5 -191.5q0 -34 -6 -74l-104 -596h-197l8 51q-32 -27 -90.5 -47t-128.5 -20q-132 0 -220.5 70t-88.5 192q0 144 121 235.5t287 91.5q63 0 118 -15.5
t84 -39.5zM602 242l14 75q-9 42 -56.5 67.5t-110.5 25.5q-52 0 -99 -15t-80.5 -51t-33.5 -86q0 -53 48 -80.5t117 -27.5q63 0 120 25t81 67z" />
    <glyph glyph-name="b" unicode="b" horiz-adv-x="1052" 
d="M270 80l-14 -80h-205l234 1331h204l-90 -512q41 47 107.5 79t138.5 32q165 0 254.5 -111.5t89.5 -288.5q0 -153 -63 -279t-175.5 -198.5t-250.5 -72.5q-82 0 -142.5 29t-87.5 71zM362 610l-57 -327q18 -55 67 -88t120 -33q134 0 213 103t79 265q0 96 -50.5 157t-139.5 61
q-138 0 -232 -138z" />
    <glyph glyph-name="c" unicode="c" horiz-adv-x="841" 
d="M733 248l-35 -205q-82 -63 -223 -63q-183 0 -297.5 112t-114.5 305q0 140 62 261t179.5 196.5t266.5 75.5q76 0 149 -24t118 -66l-37 -203q-97 111 -230 111q-130 0 -216.5 -97t-86.5 -254q0 -107 65 -171t165 -64q141 0 235 86z" />
    <glyph glyph-name="d" unicode="d" horiz-adv-x="1052" 
d="M782 829l88 502h205l-233 -1331h-205l16 90q-41 -47 -107 -78.5t-138 -31.5q-165 0 -255 111t-90 288q0 144 63 270t176.5 203.5t250.5 77.5q82 0 142 -29.5t87 -71.5zM690 299l58 328q-18 55 -67 88t-120 33q-87 0 -155.5 -54.5t-103 -137.5t-34.5 -177q0 -96 51 -156.5
t140 -60.5q138 0 231 137z" />
    <glyph glyph-name="e" unicode="e" horiz-adv-x="931" 
d="M860 410h-600v-25q0 -112 70.5 -171.5t181.5 -59.5q158 0 283 92l-37 -193q-111 -73 -285 -73q-193 0 -301.5 108.5t-108.5 290.5q0 144 58 268t173 203.5t265 79.5q154 0 238 -94t84 -256q0 -67 -21 -170zM549 758q-89 0 -155 -52.5t-101 -140.5h397q4 24 4 39
q0 69 -37.5 111.5t-107.5 42.5z" />
    <glyph glyph-name="f" unicode="f" horiz-adv-x="649" 
d="M786 1327l-32 -178q-36 25 -88 25q-67 0 -109.5 -35.5t-54.5 -104.5l-23 -125h199l-31 -170h-198l-130 -739h-200l129 739h-158l31 170h158l24 142q25 143 122.5 222t229.5 79q76 0 131 -25z" />
    <glyph glyph-name="g" unicode="g" horiz-adv-x="1044" 
d="M647 59l8 45q-41 -46 -108.5 -77t-138.5 -31q-165 0 -255 109.5t-90 283.5q0 141 63 265t176.5 200t250.5 76q82 0 141.5 -29t87.5 -70l15 78h204l-151 -858q-36 -205 -172.5 -312.5t-333.5 -107.5q-96 0 -184.5 24t-139.5 64l37 207q109 -114 287 -114q123 0 202.5 63
t100.5 184zM692 309l58 324q-15 51 -67 84t-122 33q-87 0 -155.5 -53t-103 -134.5t-34.5 -173.5q0 -94 51 -153.5t140 -59.5q140 0 233 133z" />
    <glyph glyph-name="h" unicode="h" horiz-adv-x="1013" 
d="M664 930q127 0 197.5 -74.5t70.5 -193.5q0 -32 -6 -70l-103 -592h-205l97 557q6 34 6 55q0 131 -143 131q-66 0 -127.5 -41.5t-90.5 -105.5l-104 -596h-205l234 1331h204l-90 -512q43 48 112 79.5t153 31.5z" />
    <glyph glyph-name="i" unicode="i" horiz-adv-x="458" 
d="M416 909l-160 -909h-205l160 909h205zM489 1184q0 -52 -37.5 -88.5t-89.5 -36.5q-51 0 -88.5 36.5t-37.5 88.5t37.5 88.5t88.5 36.5q52 0 89.5 -36.5t37.5 -88.5z" />
    <glyph glyph-name="j" unicode="j" horiz-adv-x="458" 
d="M-203 -336l31 178q46 -37 102 -37q48 0 72.5 30t36.5 97l172 977h205l-176 -991q-24 -136 -102.5 -211.5t-203.5 -75.5q-80 0 -137 33zM489 1184q0 -52 -37.5 -88.5t-89.5 -36.5q-51 0 -88.5 36.5t-37.5 88.5t37.5 88.5t88.5 36.5q52 0 89.5 -36.5t37.5 -88.5z" />
    <glyph glyph-name="k" unicode="k" horiz-adv-x="954" 
d="M537 477l342 -477h-234l-313 438l-76 -438h-205l234 1331h204l-139 -790l408 368h272z" />
    <glyph glyph-name="l" unicode="l" horiz-adv-x="458" 
d="M489 1331l-233 -1331h-205l234 1331h204z" />
    <glyph glyph-name="m" unicode="m" horiz-adv-x="1478" 
d="M860 807q48 55 119 89t151 34q130 0 198.5 -75t68.5 -191q0 -34 -6 -72l-103 -592h-205l95 545q8 44 8 71q0 127 -119 127q-59 0 -109.5 -40.5t-80.5 -106.5l-105 -596h-205l95 545q8 44 8 71q0 127 -119 127q-59 0 -110 -40.5t-81 -106.5l-104 -596h-205l160 909h205
l-17 -90q100 111 242 111q73 0 132.5 -36t86.5 -87z" />
    <glyph glyph-name="n" unicode="n" horiz-adv-x="1013" 
d="M51 0l160 909h205l-17 -90q43 48 112 79.5t153 31.5q127 0 197.5 -74.5t70.5 -193.5q0 -32 -6 -70l-103 -592h-205l97 557q6 34 6 55q0 131 -143 131q-66 0 -127.5 -41.5t-90.5 -105.5l-104 -596h-205z" />
    <glyph glyph-name="o" unicode="o" horiz-adv-x="993" 
d="M457 156q118 0 193 105.5t75 266.5q0 102 -49.5 164t-138.5 62q-118 0 -193.5 -106t-75.5 -267q0 -102 50 -163.5t139 -61.5zM455 -20q-184 0 -288 110t-104 291q0 154 64.5 280.5t173.5 197.5t238 71q184 0 287.5 -110.5t103.5 -291.5q0 -154 -64.5 -280.5t-173 -197
t-237.5 -70.5z" />
    <glyph glyph-name="p" unicode="p" horiz-adv-x="1052" 
d="M270 80l-75 -428h-205l221 1257h205l-17 -90q41 47 107.5 79t138.5 32q165 0 254.5 -111.5t89.5 -288.5q0 -153 -63 -279t-175.5 -198.5t-250.5 -72.5q-82 0 -142.5 29t-87.5 71zM362 610l-57 -327q18 -55 67 -88t120 -33q134 0 213 103t79 265q0 96 -50.5 157t-139.5 61
q-138 0 -232 -138z" />
    <glyph glyph-name="q" unicode="q" horiz-adv-x="1044" 
d="M782 829l15 80h204l-221 -1257h-205l78 438q-41 -47 -107 -78.5t-138 -31.5q-165 0 -255 111t-90 288q0 144 63 270t176.5 203.5t250.5 77.5q82 0 142 -29.5t87 -71.5zM690 299l58 328q-18 55 -67 88t-120 33q-87 0 -155.5 -54.5t-103 -137.5t-34.5 -177q0 -96 51 -156.5
t140 -60.5q138 0 231 137z" />
    <glyph glyph-name="r" unicode="r" horiz-adv-x="696" 
d="M719 913l-37 -211q-42 31 -115 31q-66 0 -123.5 -37.5t-85.5 -107.5l-102 -588h-205l160 909h205l-17 -94q34 51 96 83t128 32q71 0 96 -17z" />
    <glyph glyph-name="s" unicode="s" horiz-adv-x="833" 
d="M31 82l37 209q55 -66 130 -103.5t158 -37.5q72 0 120 25.5t48 82.5q0 61 -104 96l-92 33q-101 36 -153 89.5t-52 139.5q0 142 104.5 228t264.5 86q169 0 282 -88l-35 -197q-111 115 -247 115q-72 0 -120 -27t-48 -82q0 -33 25 -55.5t77 -40.5l113 -39q188 -64 188 -219
q0 -94 -52.5 -167.5t-137.5 -111.5t-185 -38q-202 0 -321 102z" />
    <glyph glyph-name="t" unicode="t" horiz-adv-x="698" 
d="M494 739l-129 -739h-205l129 739h-185l31 170h184l43 244h205l-43 -244h205l-31 -170h-204z" />
    <glyph glyph-name="u" unicode="u" horiz-adv-x="1007" 
d="M961 909l-160 -909h-205l16 86q-45 -45 -113 -75.5t-151 -30.5q-126 0 -195 73.5t-69 192.5q0 34 6 71l103 592h204l-98 -567q-6 -30 -6 -59q0 -127 137 -127q66 0 128.5 44.5t92.5 110.5l105 598h205z" />
    <glyph glyph-name="v" unicode="v" horiz-adv-x="974" 
d="M473 0h-211l-143 909h200l97 -665l383 665h221z" />
    <glyph glyph-name="w" unicode="w" horiz-adv-x="1331" 
d="M831 909l25 -645l311 645h209l-461 -909h-204l-29 633l-295 -633h-205l-67 909h194l41 -645l303 645h178z" />
    <glyph glyph-name="x" unicode="x" horiz-adv-x="952" 
d="M995 909l-407 -444l246 -465h-213l-168 324l-293 -324h-230l439 475l-230 434h213l152 -295l262 295h229z" />
    <glyph glyph-name="y" unicode="y" horiz-adv-x="974" 
d="M264 -348h-205l203 348l-143 909h200l101 -665l379 665h221z" />
    <glyph glyph-name="z" unicode="z" horiz-adv-x="882" 
d="M758 170l-29 -170h-747v8l575 731h-407l30 170h725v-8l-573 -731h426z" />
    <glyph glyph-name="braceleft" unicode="{" horiz-adv-x="704" 
d="M393 410l-59 -338q-9 -60 49 -60h201l-33 -184h-197q-123 0 -180.5 73t-36.5 193l58 332q9 59 -50 59h-102l35 189h102q61 0 70 59l57 332q22 119 108 192.5t203 73.5h197l-33 -184h-200q-61 0 -70 -60l-59 -337q-20 -110 -127 -170q87 -59 67 -170z" />
    <glyph glyph-name="bar" unicode="|" horiz-adv-x="475" 
d="M37 -172l264 1503h197l-265 -1503h-196z" />
    <glyph glyph-name="braceright" unicode="}" horiz-adv-x="704" 
d="M365 750l59 337q9 60 -49 60h-201l33 184h196q123 0 181 -73t37 -193l-58 -332q-9 -59 49 -59h103l-35 -189h-102q-61 0 -70 -59l-57 -332q-22 -118 -108.5 -192t-203.5 -74h-196l32 184h201q61 0 70 60l59 338q20 110 127 170q-87 59 -67 170z" />
    <glyph glyph-name="asciitilde" unicode="~" horiz-adv-x="878" 
d="M682 698h164q-26 -140 -95.5 -217.5t-168.5 -77.5q-42 0 -79.5 20t-60 43.5t-50 43.5t-52.5 20q-75 0 -96 -118h-164q25 138 94 215.5t168 77.5q41 0 78.5 -19.5t59.5 -43t50 -43t54 -19.5q77 0 98 118z" />
    <glyph glyph-name="uni00A0" unicode="&#xa0;" horiz-adv-x="452" 
 />
    <glyph glyph-name="exclamdown" unicode="&#xa1;" horiz-adv-x="430" 
d="M340 666l-107 -863h-245l209 863h143zM442 934q0 -60 -40 -100.5t-99 -40.5t-99 40.5t-40 100.5t40 100.5t99 40.5t99 -40.5t40 -100.5z" />
    <glyph glyph-name="cent" unicode="&#xa2;" horiz-adv-x="835" 
d="M293 -182l35 205q-123 39 -194 141.5t-71 253.5q0 126 51.5 238t149.5 190t225 98l35 186h185l-35 -192q103 -23 164 -78l-37 -203q-97 111 -230 111q-130 0 -216.5 -96.5t-86.5 -253.5q0 -107 65 -171.5t165 -64.5q141 0 235 86l-35 -205q-69 -54 -190 -63l-31 -182
h-184z" />
    <glyph glyph-name="sterling" unicode="&#xa3;" horiz-adv-x="956" 
d="M86 537l29 165h157l25 138q36 202 167 320t310 118q168 0 244 -59l-31 -185q-88 64 -213 64q-116 0 -187.5 -70t-94.5 -203l-23 -123h289l-29 -165h-289l-32 -181q-21 -129 -76 -186h536l-28 -170h-848l28 170h117q54 72 74 186l31 181h-156z" />
    <glyph glyph-name="yen" unicode="&#xa5;" horiz-adv-x="1130" 
d="M113 256l26 158h326l22 129h-325l28 157h232l-225 557h213l202 -538l398 538h227l-426 -557h233l-28 -157h-326l-22 -129h325l-26 -158h-328l-43 -256h-203l43 256h-323z" />
    <glyph glyph-name="section" unicode="&#xa7;" horiz-adv-x="952" 
d="M625 569l-271 197q-106 -28 -106 -127q0 -26 18 -53t35 -41.5t51 -40.5l271 -197q106 28 106 127q0 26 -18 53t-35 41.5t-51 40.5zM260 887q-14 40 -14 90q0 125 102 213t256 88q171 0 293 -92l-35 -195q-114 117 -258 117q-75 0 -118.5 -28t-43.5 -85q0 -33 23 -62
t70 -63l196 -143q45 -33 69 -53.5t54 -54t43.5 -71.5t13.5 -83q0 -88 -51.5 -161t-142.5 -118q14 -40 14 -90q0 -125 -102 -213t-256 -88q-171 0 -293 92l35 195q114 -117 258 -117q75 0 118.5 28t43.5 85q0 33 -23 62t-70 63l-196 143q-45 33 -69 53.5t-54 54t-43.5 71.5
t-13.5 83q0 88 51.5 161t142.5 118z" />
    <glyph glyph-name="dieresis" unicode="&#xa8;" 
d="M233 1171q0 52 35 86.5t86 34.5q50 0 84.5 -34.5t34.5 -86.5q0 -49 -34.5 -83.5t-84.5 -34.5q-51 0 -86 34t-35 84zM549 1171q0 52 34.5 86.5t84.5 34.5t85 -34.5t35 -86.5q0 -49 -35 -83.5t-85 -34.5t-84.5 34.5t-34.5 83.5z" />
    <glyph glyph-name="copyright" unicode="&#xa9;" horiz-adv-x="1441" 
d="M1405 629q0 -184 -88 -334t-236 -232.5t-325 -82.5q-132 0 -251.5 49t-207.5 133.5t-139.5 206.5t-51.5 260t51.5 260t139.5 206.5t207.5 133.5t251.5 49q177 0 325 -82.5t236 -232.5t88 -334zM1309 629q0 157 -75 285t-201.5 199t-276.5 71t-276.5 -71t-201.5 -199
t-75 -285t75 -285t201.5 -199t276.5 -71t276.5 71t201.5 199t75 285zM379 633q0 184 111.5 295.5t293.5 111.5q119 0 201 -53v-190q-84 63 -184 63q-101 0 -162 -62t-61 -165q0 -101 61 -163t162 -62q103 0 184 61v-190q-83 -54 -201 -54q-182 0 -293.5 112t-111.5 296z" />
    <glyph glyph-name="ordfeminine" unicode="&#xaa;" horiz-adv-x="665" 
d="M510 1004l6 24q2 8 2 27q0 71 -110 71q-99 0 -183 -49l27 156q86 47 211 47q113 0 173 -48t60 -140q0 -28 -6 -58l-65 -377h-174l4 33q-19 -17 -57.5 -30t-82.5 -13q-88 0 -146 47.5t-58 128.5q0 97 77 156t185 59q90 0 137 -34zM479 823l6 43q-6 22 -31.5 35.5
t-60.5 13.5q-42 0 -75 -20.5t-33 -58.5q0 -29 25.5 -44.5t62.5 -15.5q33 0 62 13t44 34z" />
    <glyph glyph-name="guillemotleft" unicode="&#xab;" horiz-adv-x="813" 
d="M358 131h-182l-131 324l246 323h194l-254 -334zM696 131h-182l-131 324l246 323h194l-254 -334z" />
    <glyph glyph-name="registered" unicode="&#xae;" horiz-adv-x="833" 
d="M856 903q0 -161 -108.5 -268t-262.5 -107t-262 107t-108 268t108 268t262 107t262.5 -107t108.5 -268zM788 903q0 135 -87.5 223t-215.5 88t-215.5 -88t-87.5 -223t87.5 -223t215.5 -88t215.5 88t87.5 223zM479 838h-43v-129h-102v393h182q67 0 105 -35.5t38 -99.5
q0 -94 -77 -119l92 -139h-113zM561 967q0 22 -13.5 35.5t-39.5 13.5h-72v-96h72q25 0 39 13t14 34z" />
    <glyph glyph-name="macron" unicode="&#xaf;" 
d="M266 1073l29 162h461l-29 -162h-461z" />
    <glyph glyph-name="degree" unicode="&#xb0;" horiz-adv-x="724" 
d="M461 1278q106 0 177 -72t71 -178q0 -121 -87 -208t-206 -87q-106 0 -177 72t-71 178q0 121 87 208t206 87zM449 1135q-53 0 -95.5 -41.5t-42.5 -102.5q0 -47 34 -80.5t83 -33.5q53 0 95 41t42 102q0 48 -33.5 81.5t-82.5 33.5z" />
    <glyph glyph-name="plusminus" unicode="&#xb1;" horiz-adv-x="1167" 
d="M616 1104h162l-49 -270h336l-29 -162h-336l-47 -271h-161l47 271h-336l28 162h336zM111 150l28 161h834l-29 -161h-833z" />
    <glyph glyph-name="twosuperior" unicode="&#xb2;" horiz-adv-x="620" 
d="M391 717h207l-27 -146h-495v4l250 273q3 4 27.5 29.5t32 34t26.5 32t26 37t14 33.5t7 37q0 61 -72 61q-89 0 -213 -90l29 166q105 80 243 80q90 0 140.5 -47t50.5 -123q0 -74 -40.5 -139t-115.5 -146z" />
    <glyph glyph-name="threesuperior" unicode="&#xb3;" horiz-adv-x="602" 
d="M190 1110l25 147h447v-4l-187 -272q50 -24 79.5 -68.5t29.5 -103.5q0 -111 -81.5 -179.5t-203.5 -68.5t-201 57l29 158q32 -36 78 -56t94 -20q57 0 92 26.5t35 76.5q0 43 -37.5 67.5t-97.5 24.5q-3 0 -12 -1t-13 -1v4l148 213h-224z" />
    <glyph glyph-name="acute" unicode="&#xb4;" 
d="M489 1051h-186l207 280h215z" />
    <glyph glyph-name="paragraph" unicode="&#xb6;" horiz-adv-x="1081" 
d="M672 -184l254 1441h166l-254 -1441h-166zM360 -184l129 731q-100 0 -185.5 32t-142.5 102.5t-57 168.5q0 85 32 155t85 116t124 77.5t145 45t151 13.5h139l-254 -1441h-166z" />
    <glyph glyph-name="periodcentered" unicode="&#xb7;" horiz-adv-x="409" 
d="M74 539q0 60 40 100.5t99 40.5t99 -40.5t40 -100.5t-40 -101t-99 -41t-99 41t-40 101z" />
    <glyph glyph-name="cedilla" unicode="&#xb8;" 
d="M504 -389h-201l197 280h211z" />
    <glyph glyph-name="onesuperior" unicode="&#xb9;" horiz-adv-x="497" 
d="M520 1257l-121 -686h-166l86 494l-169 -78l28 168l230 102h112z" />
    <glyph glyph-name="ordmasculine" unicode="&#xba;" horiz-adv-x="694" 
d="M410 799q64 0 103.5 59.5t39.5 149.5q0 53 -25.5 85.5t-70.5 32.5q-64 0 -104 -60.5t-40 -150.5q0 -52 25.5 -84t71.5 -32zM406 643q-126 0 -201.5 75t-75.5 200q0 157 96.5 259.5t235.5 102.5q126 0 201 -74.5t75 -197.5q0 -158 -96.5 -261.5t-234.5 -103.5z" />
    <glyph glyph-name="guillemotright" unicode="&#xbb;" horiz-adv-x="813" 
d="M481 778h183l131 -323l-246 -324h-195l254 334zM143 778h183l131 -323l-246 -324h-195l254 334z" />
    <glyph glyph-name="onequarter" unicode="&#xbc;" horiz-adv-x="1411" 
d="M1198 686l-264 -416h117l20 123h146l-21 -123h82l-25 -137h-82l-22 -133h-145l22 133h-344v4l348 549h168zM1360 1257l-1116 -1257h-183l1117 1257h182zM551 1257l-121 -686h-158l86 494l-198 -90l30 168l256 114h105z" />
    <glyph glyph-name="onehalf" unicode="&#xbd;" horiz-adv-x="1452" 
d="M1360 1257l-1116 -1257h-183l1117 1257h182zM551 1257l-121 -686h-158l86 494l-198 -90l30 168l256 114h105zM1087 145h207l-26 -145h-496v4l250 272q7 7 29 30t32.5 35t28.5 34t27 37.5t16.5 35.5t7.5 37q0 62 -71 62q-48 0 -110 -30t-112 -66l29 165q46 35 111 57.5
t133 22.5q90 0 140 -47t50 -123q0 -74 -40 -138.5t-115 -145.5z" />
    <glyph glyph-name="threequarters" unicode="&#xbe;" horiz-adv-x="1447" 
d="M1399 1257l-1116 -1257h-183l1117 1257h182zM215 1110l25 147h446v-4l-186 -272q49 -24 78.5 -68.5t29.5 -103.5q0 -112 -81.5 -180t-202.5 -68q-122 0 -201 57l29 158q32 -36 78 -56t94 -20q57 0 92 26.5t35 76.5q0 43 -37.5 66.5t-98.5 23.5h-24v4l147 213h-223z
M1235 686l-264 -416h116l21 123h145l-20 -123h82l-25 -137h-82l-22 -133h-146l23 133h-344v4l348 549h168z" />
    <glyph glyph-name="questiondown" unicode="&#xbf;" horiz-adv-x="847" 
d="M418 387q-15 -15 -51.5 -46t-59 -53t-49 -53t-40 -64t-13.5 -67q0 -124 164 -124q193 0 395 174l-37 -217q-78 -69 -185.5 -111.5t-211.5 -42.5q-161 0 -249.5 80.5t-88.5 218.5q0 51 15.5 100.5t38 87.5t60.5 80.5t69.5 71t78.5 67.5q70 59 97 99.5t32 77.5h207
q-19 -85 -56 -145.5t-116 -133.5zM672 934q0 -60 -40.5 -100.5t-99.5 -40.5t-99 40.5t-40 100.5t40 100.5t99 40.5t99.5 -40.5t40.5 -100.5z" />
    <glyph glyph-name="Agrave" unicode="&#xc0;" horiz-adv-x="1253" 
d="M682 1257h205l254 -1257h-213l-66 348h-481l-193 -348h-219zM739 997l-258 -465h346zM899 1374h-188l-154 240h225z" />
    <glyph glyph-name="Aacute" unicode="&#xc1;" horiz-adv-x="1253" 
d="M682 1257h205l254 -1257h-213l-66 348h-481l-193 -348h-219zM739 997l-258 -465h346zM893 1374h-209l199 240h245z" />
    <glyph glyph-name="Acircumflex" unicode="&#xc2;" horiz-adv-x="1253" 
d="M682 1257h205l254 -1257h-213l-66 348h-481l-193 -348h-219zM930 1628l147 -254h-174l-84 123l-125 -123h-190l237 254h189zM739 997l-258 -465h346z" />
    <glyph glyph-name="Atilde" unicode="&#xc3;" horiz-adv-x="1253" 
d="M682 1257h205l254 -1257h-213l-66 348h-481l-193 -348h-219zM995 1636h131q-21 -123 -77.5 -195.5t-139.5 -72.5q-30 0 -57 16.5t-44 37t-38.5 37t-40.5 16.5q-63 0 -82 -101h-131q22 124 78 196t139 72q30 0 58 -16.5t44.5 -36.5t37.5 -36.5t40 -16.5q63 0 82 100z
M739 997l-258 -465h346z" />
    <glyph glyph-name="Adieresis" unicode="&#xc4;" horiz-adv-x="1253" 
d="M682 1257h205l254 -1257h-213l-66 348h-481l-193 -348h-219zM739 997l-258 -465h346zM541 1491q0 52 35 86.5t86 34.5q50 0 84 -34.5t34 -86.5q0 -50 -34.5 -84.5t-83.5 -34.5q-51 0 -86 34.5t-35 84.5zM856 1491q0 52 34.5 86.5t84.5 34.5t85.5 -34.5t35.5 -86.5
q0 -49 -35.5 -84t-85.5 -35q-49 0 -84 35t-35 84z" />
    <glyph glyph-name="Aring" unicode="&#xc5;" horiz-adv-x="1253" 
d="M682 1257h205l254 -1257h-213l-66 348h-481l-193 -348h-219zM819 1329q-78 0 -130 51t-52 127q0 79 57.5 137t141.5 58q78 0 130 -51t52 -127q0 -79 -57.5 -137t-141.5 -58zM739 997l-258 -465h346zM823 1430q37 0 63.5 25t26.5 65q0 35 -24 58.5t-58 23.5
q-37 0 -63.5 -25.5t-26.5 -65.5q0 -35 24 -58t58 -23z" />
    <glyph glyph-name="AE" unicode="&#xc6;" horiz-adv-x="1785" 
d="M907 1257h936l-33 -188h-591l-60 -332h535l-33 -186h-535l-63 -361h592l-33 -190h-801l62 348h-426l-260 -348h-228zM1016 1098l-422 -566h321z" />
    <glyph glyph-name="Ccedilla" unicode="&#xc7;" horiz-adv-x="1116" 
d="M981 289l-41 -232q-129 -77 -291 -77q-248 0 -398.5 152.5t-150.5 406.5q0 157 55 295.5t148 235t218 152.5t261 56q107 0 201 -31t152 -80l-39 -219q-133 139 -314 139q-204 0 -335.5 -154.5t-131.5 -393.5q0 -161 92.5 -264t241.5 -103q185 0 332 117zM477 -389h-201
l197 280h211z" />
    <glyph glyph-name="Egrave" unicode="&#xc8;" horiz-adv-x="1052" 
d="M815 1374h-188l-154 240h225zM289 1257h821l-33 -188h-612l-59 -332h555l-33 -186h-555l-64 -361h613l-33 -190h-821z" />
    <glyph glyph-name="Eacute" unicode="&#xc9;" horiz-adv-x="1052" 
d="M809 1374h-209l199 240h245zM289 1257h821l-33 -188h-612l-59 -332h555l-33 -186h-555l-64 -361h613l-33 -190h-821z" />
    <glyph glyph-name="Ecircumflex" unicode="&#xca;" horiz-adv-x="1052" 
d="M289 1257h821l-33 -188h-612l-59 -332h555l-33 -186h-555l-64 -361h613l-33 -190h-821zM852 1628l147 -254h-174l-84 123l-125 -123h-190l238 254h188z" />
    <glyph glyph-name="Edieresis" unicode="&#xcb;" horiz-adv-x="1052" 
d="M463 1491q0 52 35 86.5t86 34.5q50 0 84 -34.5t34 -86.5q0 -50 -34.5 -84.5t-83.5 -34.5q-51 0 -86 34.5t-35 84.5zM778 1491q0 52 34.5 86.5t84.5 34.5t85.5 -34.5t35.5 -86.5q0 -49 -35.5 -84t-85.5 -35q-49 0 -84 35t-35 84zM289 1257h821l-33 -188h-612l-59 -332h555
l-33 -186h-555l-64 -361h613l-33 -190h-821z" />
    <glyph glyph-name="Igrave" unicode="&#xcc;" horiz-adv-x="491" 
d="M502 1257l-221 -1257h-213l221 1257h213zM512 1374h-188l-154 240h225z" />
    <glyph glyph-name="Iacute" unicode="&#xcd;" horiz-adv-x="491" 
d="M502 1257l-221 -1257h-213l221 1257h213zM506 1374h-209l199 240h245z" />
    <glyph glyph-name="Icircumflex" unicode="&#xce;" horiz-adv-x="491" 
d="M502 1257l-221 -1257h-213l221 1257h213zM549 1628l147 -254h-174l-84 123l-125 -123h-190l237 254h189z" />
    <glyph glyph-name="Idieresis" unicode="&#xcf;" horiz-adv-x="491" 
d="M502 1257l-221 -1257h-213l221 1257h213zM160 1491q0 52 35 86.5t86 34.5q50 0 84 -34.5t34 -86.5q0 -50 -34.5 -84.5t-83.5 -34.5q-51 0 -86 34.5t-35 84.5zM475 1491q0 52 34.5 86.5t84.5 34.5t85.5 -34.5t35.5 -86.5q0 -49 -35.5 -84t-85.5 -35t-84.5 35t-34.5 84z
" />
    <glyph glyph-name="Eth" unicode="&#xd0;" horiz-adv-x="1277" 
d="M82 559l31 180h112l92 518h396q257 0 392.5 -139t135.5 -393q0 -149 -50 -281t-140.5 -230.5t-226.5 -156t-298 -57.5h-430l99 559h-113zM342 190h209q223 0 349 149t126 386q0 165 -85 254.5t-255 89.5h-188l-60 -330h238l-31 -180h-237z" />
    <glyph glyph-name="Ntilde" unicode="&#xd1;" horiz-adv-x="1290" 
d="M1014 1636h131q-21 -123 -77.5 -195.5t-139.5 -72.5q-30 0 -57 16.5t-44 37t-38.5 37t-40.5 16.5q-63 0 -82 -101h-131q22 124 78 196t139 72q30 0 58 -16.5t44.5 -36.5t37.5 -36.5t40 -16.5q63 0 82 100zM1300 1257l-221 -1257h-164l-479 942l-164 -942h-204l221 1257
h200l449 -899l158 899h204z" />
    <glyph glyph-name="Ograve" unicode="&#xd2;" horiz-adv-x="1304" 
d="M903 1374h-188l-154 240h225zM629 170q182 0 303 151t121 388q0 163 -85 270.5t-229 107.5q-182 0 -303 -150.5t-121 -387.5q0 -163 85 -271t229 -108zM629 -20q-240 0 -384.5 157.5t-144.5 411.5q0 153 50.5 289t136.5 232t204 152t248 56q240 0 384.5 -157.5
t144.5 -411.5q0 -153 -50.5 -289t-136.5 -232t-204 -152t-248 -56z" />
    <glyph glyph-name="Oacute" unicode="&#xd3;" horiz-adv-x="1304" 
d="M897 1374h-209l199 240h246zM629 170q182 0 303 151t121 388q0 163 -85 270.5t-229 107.5q-182 0 -303 -150.5t-121 -387.5q0 -163 85 -271t229 -108zM629 -20q-240 0 -384.5 157.5t-144.5 411.5q0 153 50.5 289t136.5 232t204 152t248 56q240 0 384.5 -157.5
t144.5 -411.5q0 -153 -50.5 -289t-136.5 -232t-204 -152t-248 -56z" />
    <glyph glyph-name="Ocircumflex" unicode="&#xd4;" horiz-adv-x="1304" 
d="M629 170q182 0 303 151t121 388q0 163 -85 270.5t-229 107.5q-182 0 -303 -150.5t-121 -387.5q0 -163 85 -271t229 -108zM629 -20q-240 0 -384.5 157.5t-144.5 411.5q0 153 50.5 289t136.5 232t204 152t248 56q240 0 384.5 -157.5t144.5 -411.5q0 -153 -50.5 -289
t-136.5 -232t-204 -152t-248 -56zM940 1628l147 -254h-174l-84 123l-124 -123h-191l238 254h188z" />
    <glyph glyph-name="Otilde" unicode="&#xd5;" horiz-adv-x="1304" 
d="M1006 1636h131q-21 -123 -77.5 -195.5t-139.5 -72.5q-30 0 -57 16.5t-44.5 37t-39 37t-40.5 16.5q-63 0 -82 -101h-131q22 124 78 196t139 72q30 0 58 -16.5t45 -36.5t38 -36.5t40 -16.5q63 0 82 100zM629 170q182 0 303 151t121 388q0 163 -85 270.5t-229 107.5
q-182 0 -303 -150.5t-121 -387.5q0 -163 85 -271t229 -108zM629 -20q-240 0 -384.5 157.5t-144.5 411.5q0 153 50.5 289t136.5 232t204 152t248 56q240 0 384.5 -157.5t144.5 -411.5q0 -153 -50.5 -289t-136.5 -232t-204 -152t-248 -56z" />
    <glyph glyph-name="Odieresis" unicode="&#xd6;" horiz-adv-x="1304" 
d="M551 1491q0 52 35 86.5t86 34.5q50 0 84.5 -34.5t34.5 -86.5q0 -49 -34.5 -84t-84.5 -35q-51 0 -86 34.5t-35 84.5zM866 1491q0 52 34.5 86.5t84.5 34.5t85.5 -34.5t35.5 -86.5q0 -49 -35.5 -84t-85.5 -35q-49 0 -84 35t-35 84zM629 170q182 0 303 151t121 388
q0 163 -85 270.5t-229 107.5q-182 0 -303 -150.5t-121 -387.5q0 -163 85 -271t229 -108zM629 -20q-240 0 -384.5 157.5t-144.5 411.5q0 153 50.5 289t136.5 232t204 152t248 56q240 0 384.5 -157.5t144.5 -411.5q0 -153 -50.5 -289t-136.5 -232t-204 -152t-248 -56z" />
    <glyph glyph-name="multiply" unicode="&#xd7;" horiz-adv-x="1015" 
d="M426 610l-209 248l125 107l203 -250l299 254l92 -113l-297 -252l207 -248l-125 -108l-207 250l-295 -252l-92 114z" />
    <glyph glyph-name="Oslash" unicode="&#xd8;" horiz-adv-x="1325" 
d="M113 55l106 125q-108 148 -108 369q0 153 50.5 289t136.5 232t204 152t248 56q184 0 315 -98l90 106l119 -84l-107 -125q111 -148 111 -368q0 -153 -50.5 -289t-136.5 -232t-204 -152t-248 -56q-182 0 -317 96l-89 -105zM639 170q182 0 303 151t121 388q0 109 -41 196
l-567 -672q75 -63 184 -63zM326 549q0 -115 39 -197l567 672q-79 63 -182 63q-182 0 -303 -150.5t-121 -387.5z" />
    <glyph glyph-name="Ugrave" unicode="&#xd9;" horiz-adv-x="1245" 
d="M877 1374h-189l-153 240h225zM584 -20q-211 0 -335 105t-124 302q0 54 16 145l127 725h213l-129 -733q-10 -65 -10 -106q0 -120 60.5 -184t181.5 -64q146 0 232 86.5t118 267.5l129 733h213l-133 -757q-44 -251 -189.5 -385.5t-369.5 -134.5z" />
    <glyph glyph-name="Uacute" unicode="&#xda;" horiz-adv-x="1245" 
d="M870 1374h-208l198 240h246zM584 -20q-211 0 -335 105t-124 302q0 54 16 145l127 725h213l-129 -733q-10 -65 -10 -106q0 -120 60.5 -184t181.5 -64q146 0 232 86.5t118 267.5l129 733h213l-133 -757q-44 -251 -189.5 -385.5t-369.5 -134.5z" />
    <glyph glyph-name="Ucircumflex" unicode="&#xdb;" horiz-adv-x="1245" 
d="M584 -20q-211 0 -335 105t-124 302q0 54 16 145l127 725h213l-129 -733q-10 -65 -10 -106q0 -120 60.5 -184t181.5 -64q146 0 232 86.5t118 267.5l129 733h213l-133 -757q-44 -251 -189.5 -385.5t-369.5 -134.5zM913 1628l148 -254h-174l-84 123l-125 -123h-191l238 254
h188z" />
    <glyph glyph-name="Udieresis" unicode="&#xdc;" horiz-adv-x="1245" 
d="M524 1491q0 52 35 86.5t86 34.5q50 0 84.5 -34.5t34.5 -86.5q0 -49 -35 -84t-84 -35q-51 0 -86 34.5t-35 84.5zM840 1491q0 52 34 86.5t84 34.5t85.5 -34.5t35.5 -86.5q0 -49 -35.5 -84t-85.5 -35q-49 0 -83.5 34.5t-34.5 84.5zM584 -20q-211 0 -335 105t-124 302
q0 54 16 145l127 725h213l-129 -733q-10 -65 -10 -106q0 -120 60.5 -184t181.5 -64q146 0 232 86.5t118 267.5l129 733h213l-133 -757q-44 -251 -189.5 -385.5t-369.5 -134.5z" />
    <glyph glyph-name="Yacute" unicode="&#xdd;" horiz-adv-x="1183" 
d="M637 694l432 563h234l-590 -755l-88 -502h-211l88 502l-322 755h223zM850 1374h-209l199 240h245z" />
    <glyph glyph-name="Thorn" unicode="&#xde;" horiz-adv-x="1116" 
d="M596 252h-272l-43 -252h-213l221 1257h211l-37 -217h272q172 0 268.5 -88.5t96.5 -253.5q0 -139 -68 -242t-181 -153.5t-255 -50.5zM430 856l-74 -420h269q122 0 192 67.5t70 182.5q0 78 -47 124t-142 46h-268z" />
    <glyph glyph-name="germandbls" unicode="&#xdf;" horiz-adv-x="1052" 
d="M51 0l185 1051q26 142 123 221.5t229 79.5q76 0 131 -25l-33 -180q-39 29 -94 29q-63 0 -105.5 -37t-52.5 -103l-22 -127h661v-8l-311 -436q164 -110 164 -309q0 -124 -51.5 -224t-142 -165t-211 -99.5t-261.5 -34.5l33 181q126 2 222 36.5t155 108.5t59 180
q0 93 -57 160t-158 98v9l236 333h-369l-129 -739h-201z" />
    <glyph glyph-name="agrave" unicode="&#xe0;" horiz-adv-x="950" 
d="M651 518l11 51q6 30 6 52q0 124 -176 124q-136 0 -275 -83l33 192q52 33 135.5 54.5t167.5 21.5q152 0 233.5 -68.5t81.5 -191.5q0 -34 -6 -74l-104 -596h-197l8 51q-32 -27 -90.5 -47t-128.5 -20q-132 0 -220.5 70t-88.5 192q0 144 121 235.5t287 91.5q63 0 118 -15.5
t84 -39.5zM602 242l14 75q-9 42 -56.5 67.5t-110.5 25.5q-52 0 -99 -15t-80.5 -51t-33.5 -86q0 -53 48 -80.5t117 -27.5q63 0 120 25t81 67zM680 1051h-170l-137 280h198z" />
    <glyph glyph-name="aacute" unicode="&#xe1;" horiz-adv-x="950" 
d="M651 518l11 51q6 30 6 52q0 124 -176 124q-136 0 -275 -83l33 192q52 33 135.5 54.5t167.5 21.5q152 0 233.5 -68.5t81.5 -191.5q0 -34 -6 -74l-104 -596h-197l8 51q-32 -27 -90.5 -47t-128.5 -20q-132 0 -220.5 70t-88.5 192q0 144 121 235.5t287 91.5q63 0 118 -15.5
t84 -39.5zM602 242l14 75q-9 42 -56.5 67.5t-110.5 25.5q-52 0 -99 -15t-80.5 -51t-33.5 -86q0 -53 48 -80.5t117 -27.5q63 0 120 25t81 67zM678 1051h-186l206 280h215z" />
    <glyph glyph-name="acircumflex" unicode="&#xe2;" horiz-adv-x="950" 
d="M651 518l11 51q6 30 6 52q0 124 -176 124q-136 0 -275 -83l33 192q52 33 135.5 54.5t167.5 21.5q152 0 233.5 -68.5t81.5 -191.5q0 -34 -6 -74l-104 -596h-197l8 51q-32 -27 -90.5 -47t-128.5 -20q-132 0 -220.5 70t-88.5 192q0 144 121 235.5t287 91.5q63 0 118 -15.5
t84 -39.5zM602 242l14 75q-9 42 -56.5 67.5t-110.5 25.5q-52 0 -99 -15t-80.5 -51t-33.5 -86q0 -53 48 -80.5t117 -27.5q63 0 120 25t81 67zM733 1323l144 -287h-166l-86 162l-144 -162h-178l242 287h188z" />
    <glyph glyph-name="atilde" unicode="&#xe3;" horiz-adv-x="950" 
d="M651 518l11 51q6 30 6 52q0 124 -176 124q-136 0 -275 -83l33 192q52 33 135.5 54.5t167.5 21.5q152 0 233.5 -68.5t81.5 -191.5q0 -34 -6 -74l-104 -596h-197l8 51q-32 -27 -90.5 -47t-128.5 -20q-132 0 -220.5 70t-88.5 192q0 144 121 235.5t287 91.5q63 0 118 -15.5
t84 -39.5zM602 242l14 75q-9 42 -56.5 67.5t-110.5 25.5q-52 0 -99 -15t-80.5 -51t-33.5 -86q0 -53 48 -80.5t117 -27.5q63 0 120 25t81 67zM797 1313h131q-21 -123 -77.5 -196t-139.5 -73q-30 0 -57 16.5t-44.5 37t-39 37t-40.5 16.5q-62 0 -81 -100h-132q22 124 78.5 196
t139.5 72q30 0 58 -16.5t44.5 -37t37.5 -37t40 -16.5q30 0 51.5 26.5t30.5 74.5z" />
    <glyph glyph-name="adieresis" unicode="&#xe4;" horiz-adv-x="950" 
d="M651 518l11 51q6 30 6 52q0 124 -176 124q-136 0 -275 -83l33 192q52 33 135.5 54.5t167.5 21.5q152 0 233.5 -68.5t81.5 -191.5q0 -34 -6 -74l-104 -596h-197l8 51q-32 -27 -90.5 -47t-128.5 -20q-132 0 -220.5 70t-88.5 192q0 144 121 235.5t287 91.5q63 0 118 -15.5
t84 -39.5zM602 242l14 75q-9 42 -56.5 67.5t-110.5 25.5q-52 0 -99 -15t-80.5 -51t-33.5 -86q0 -53 48 -80.5t117 -27.5q63 0 120 25t81 67zM344 1171q0 52 35 86.5t86 34.5q50 0 84.5 -34.5t34.5 -86.5q0 -49 -34.5 -83.5t-84.5 -34.5q-51 0 -86 34t-35 84zM659 1171
q0 52 34.5 86.5t84.5 34.5t85.5 -34.5t35.5 -86.5q0 -49 -35.5 -83.5t-85.5 -34.5t-84.5 34.5t-34.5 83.5z" />
    <glyph glyph-name="aring" unicode="&#xe5;" horiz-adv-x="950" 
d="M651 518l11 51q6 30 6 52q0 124 -176 124q-136 0 -275 -83l33 192q52 33 135.5 54.5t167.5 21.5q152 0 233.5 -68.5t81.5 -191.5q0 -34 -6 -74l-104 -596h-197l8 51q-32 -27 -90.5 -47t-128.5 -20q-132 0 -220.5 70t-88.5 192q0 144 121 235.5t287 91.5q63 0 118 -15.5
t84 -39.5zM602 242l14 75q-9 42 -56.5 67.5t-110.5 25.5q-52 0 -99 -15t-80.5 -51t-33.5 -86q0 -53 48 -80.5t117 -27.5q63 0 120 25t81 67zM618 1102q37 0 64 25t27 65q0 35 -24 58.5t-58 23.5q-37 0 -63.5 -25t-26.5 -65q0 -35 23.5 -58.5t57.5 -23.5zM614 1001
q-78 0 -130 51t-52 128q0 79 57.5 136.5t141.5 57.5q78 0 130 -51t52 -127q0 -79 -57.5 -137t-141.5 -58z" />
    <glyph glyph-name="ae" unicode="&#xe6;" horiz-adv-x="1480" 
d="M692 127q-155 -145 -358 -145q-129 0 -211 66.5t-82 182.5q0 102 60.5 178.5t153.5 113t200 36.5h207q6 35 6 57q0 129 -176 129q-136 0 -275 -83l33 192q52 33 135.5 54.5t167.5 21.5q183 0 250 -131q59 57 139 94t168 37q153 0 236.5 -94t83.5 -256q0 -74 -21 -177
h-600v-18q0 -112 70.5 -171.5t181.5 -59.5q157 0 282 92l-36 -193q-111 -73 -285 -73q-224 0 -330 147zM381 147q73 0 132 34t95 95l23 127h-189q-48 0 -91.5 -12t-79 -47t-35.5 -88t41.5 -81t103.5 -28zM1098 758q-90 0 -157 -54.5t-101 -144.5h399q4 28 4 41
q0 69 -38 113.5t-107 44.5z" />
    <glyph glyph-name="ccedilla" unicode="&#xe7;" horiz-adv-x="841" 
d="M733 248l-35 -205q-82 -63 -223 -63q-183 0 -297.5 112t-114.5 305q0 140 62 261t179.5 196.5t266.5 75.5q76 0 149 -24t118 -66l-37 -203q-97 111 -230 111q-130 0 -216.5 -97t-86.5 -254q0 -107 65 -171t165 -64q141 0 235 86zM295 -389h-201l197 280h211z" />
    <glyph glyph-name="egrave" unicode="&#xe8;" horiz-adv-x="931" 
d="M860 410h-600v-25q0 -112 70.5 -171.5t181.5 -59.5q158 0 283 92l-37 -193q-111 -73 -285 -73q-193 0 -301.5 108.5t-108.5 290.5q0 144 58 268t173 203.5t265 79.5q154 0 238 -94t84 -256q0 -67 -21 -170zM549 758q-89 0 -155 -52.5t-101 -140.5h397q4 24 4 39
q0 69 -37.5 111.5t-107.5 42.5zM670 1051h-170l-138 280h199z" />
    <glyph glyph-name="eacute" unicode="&#xe9;" horiz-adv-x="931" 
d="M860 410h-600v-25q0 -112 70.5 -171.5t181.5 -59.5q158 0 283 92l-37 -193q-111 -73 -285 -73q-193 0 -301.5 108.5t-108.5 290.5q0 144 58 268t173 203.5t265 79.5q154 0 238 -94t84 -256q0 -67 -21 -170zM549 758q-89 0 -155 -52.5t-101 -140.5h397q4 24 4 39
q0 69 -37.5 111.5t-107.5 42.5zM668 1051h-187l207 280h215z" />
    <glyph glyph-name="ecircumflex" unicode="&#xea;" horiz-adv-x="931" 
d="M860 410h-600v-25q0 -112 70.5 -171.5t181.5 -59.5q158 0 283 92l-37 -193q-111 -73 -285 -73q-193 0 -301.5 108.5t-108.5 290.5q0 144 58 268t173 203.5t265 79.5q154 0 238 -94t84 -256q0 -67 -21 -170zM723 1323l143 -287h-166l-86 162l-143 -162h-178l242 287h188z
M549 758q-89 0 -155 -52.5t-101 -140.5h397q4 24 4 39q0 69 -37.5 111.5t-107.5 42.5z" />
    <glyph glyph-name="edieresis" unicode="&#xeb;" horiz-adv-x="931" 
d="M860 410h-600v-25q0 -112 70.5 -171.5t181.5 -59.5q158 0 283 92l-37 -193q-111 -73 -285 -73q-193 0 -301.5 108.5t-108.5 290.5q0 144 58 268t173 203.5t265 79.5q154 0 238 -94t84 -256q0 -67 -21 -170zM549 758q-89 0 -155 -52.5t-101 -140.5h397q4 24 4 39
q0 69 -37.5 111.5t-107.5 42.5zM336 1171q0 52 35 86.5t86 34.5q50 0 84 -34.5t34 -86.5q0 -49 -34.5 -83.5t-83.5 -34.5q-51 0 -86 34t-35 84zM651 1171q0 52 34.5 86.5t84.5 34.5t85.5 -34.5t35.5 -86.5q0 -49 -35.5 -83.5t-85.5 -34.5t-84.5 34.5t-34.5 83.5z" />
    <glyph glyph-name="igrave" unicode="&#xec;" horiz-adv-x="458" 
d="M416 909l-160 -909h-205l160 909h205zM420 1051h-170l-137 280h198z" />
    <glyph glyph-name="iacute" unicode="&#xed;" horiz-adv-x="458" 
d="M418 1051h-187l207 280h215zM416 909l-160 -909h-205l160 909h205z" />
    <glyph glyph-name="icircumflex" unicode="&#xee;" horiz-adv-x="458" 
d="M477 1323l107 -287h-164l-55 156l-109 -156h-172l205 287h188zM416 909l-160 -909h-205l160 909h205z" />
    <glyph glyph-name="idieresis" unicode="&#xef;" horiz-adv-x="458" 
d="M100 1171q0 52 35 86.5t86 34.5q50 0 84.5 -34.5t34.5 -86.5q0 -49 -34.5 -83.5t-84.5 -34.5q-51 0 -86 34t-35 84zM387 1171q0 52 34.5 86.5t84.5 34.5t85.5 -34.5t35.5 -86.5q0 -49 -35.5 -83.5t-85.5 -34.5t-84.5 34.5t-34.5 83.5zM416 909l-160 -909h-205l160 909
h205z" />
    <glyph glyph-name="eth" unicode="&#xf0;" horiz-adv-x="993" 
d="M424 1004l-41 116l152 49q-69 82 -154 154v8h233q64 -54 103 -100l172 57l39 -117l-140 -47q70 -119 106 -258.5t36 -269.5q0 -279 -137 -447.5t-338 -168.5q-184 0 -288 110t-104 291q0 232 136.5 390.5t322.5 158.5q117 0 183 -66h8q-18 82 -101 203zM457 156
q118 0 193 105.5t75 266.5q0 102 -49.5 164t-138.5 62q-118 0 -193.5 -106t-75.5 -267q0 -102 50 -163.5t139 -61.5z" />
    <glyph glyph-name="ntilde" unicode="&#xf1;" horiz-adv-x="1013" 
d="M51 0l160 909h205l-17 -90q43 48 112 79.5t153 31.5q127 0 197.5 -74.5t70.5 -193.5q0 -32 -6 -70l-103 -592h-205l97 557q6 34 6 55q0 131 -143 131q-66 0 -127.5 -41.5t-90.5 -105.5l-104 -596h-205zM827 1313h131q-21 -123 -77.5 -196t-139.5 -73q-30 0 -57 16.5
t-44 37t-38.5 37t-40.5 16.5q-63 0 -82 -100h-131q22 124 78 196t139 72q30 0 58 -16.5t44.5 -37t37.5 -37t40 -16.5q30 0 51.5 26.5t30.5 74.5z" />
    <glyph glyph-name="ograve" unicode="&#xf2;" horiz-adv-x="993" 
d="M457 156q118 0 193 105.5t75 266.5q0 102 -49.5 164t-138.5 62q-118 0 -193.5 -106t-75.5 -267q0 -102 50 -163.5t139 -61.5zM455 -20q-184 0 -288 110t-104 291q0 154 64.5 280.5t173.5 197.5t238 71q184 0 287.5 -110.5t103.5 -291.5q0 -154 -64.5 -280.5t-173 -197
t-237.5 -70.5zM674 1051h-170l-137 280h198z" />
    <glyph glyph-name="oacute" unicode="&#xf3;" horiz-adv-x="993" 
d="M674 1051h-187l207 280h215zM457 156q118 0 193 105.5t75 266.5q0 102 -49.5 164t-138.5 62q-118 0 -193.5 -106t-75.5 -267q0 -102 50 -163.5t139 -61.5zM455 -20q-184 0 -288 110t-104 291q0 154 64.5 280.5t173.5 197.5t238 71q184 0 287.5 -110.5t103.5 -291.5
q0 -154 -64.5 -280.5t-173 -197t-237.5 -70.5z" />
    <glyph glyph-name="ocircumflex" unicode="&#xf4;" horiz-adv-x="993" 
d="M729 1323l143 -287h-165l-86 162l-144 -162h-178l242 287h188zM457 156q118 0 193 105.5t75 266.5q0 102 -49.5 164t-138.5 62q-118 0 -193.5 -106t-75.5 -267q0 -102 50 -163.5t139 -61.5zM455 -20q-184 0 -288 110t-104 291q0 154 64.5 280.5t173.5 197.5t238 71
q184 0 287.5 -110.5t103.5 -291.5q0 -154 -64.5 -280.5t-173 -197t-237.5 -70.5z" />
    <glyph glyph-name="otilde" unicode="&#xf5;" horiz-adv-x="993" 
d="M457 156q118 0 193 105.5t75 266.5q0 102 -49.5 164t-138.5 62q-118 0 -193.5 -106t-75.5 -267q0 -102 50 -163.5t139 -61.5zM455 -20q-184 0 -288 110t-104 291q0 154 64.5 280.5t173.5 197.5t238 71q184 0 287.5 -110.5t103.5 -291.5q0 -154 -64.5 -280.5t-173 -197
t-237.5 -70.5zM793 1313h131q-21 -123 -77.5 -196t-139.5 -73q-30 0 -57 16.5t-44.5 37t-39 37t-40.5 16.5q-63 0 -82 -100h-131q22 124 78 196t139 72q30 0 58 -16.5t45 -37t38 -37t40 -16.5q30 0 51.5 26.5t30.5 74.5z" />
    <glyph glyph-name="odieresis" unicode="&#xf6;" horiz-adv-x="993" 
d="M340 1171q0 52 35 86.5t86 34.5q50 0 84.5 -34.5t34.5 -86.5q0 -49 -34.5 -83.5t-84.5 -34.5q-51 0 -86 34t-35 84zM655 1171q0 52 34.5 86.5t84.5 34.5t85.5 -34.5t35.5 -86.5q0 -49 -35.5 -83.5t-85.5 -34.5t-84.5 34.5t-34.5 83.5zM457 156q118 0 193 105.5t75 266.5
q0 102 -49.5 164t-138.5 62q-118 0 -193.5 -106t-75.5 -267q0 -102 50 -163.5t139 -61.5zM455 -20q-184 0 -288 110t-104 291q0 154 64.5 280.5t173.5 197.5t238 71q184 0 287.5 -110.5t103.5 -291.5q0 -154 -64.5 -280.5t-173 -197t-237.5 -70.5z" />
    <glyph glyph-name="divide" unicode="&#xf7;" horiz-adv-x="1155" 
d="M162 530l28 164h852l-28 -164h-852zM537 956q0 54 37.5 92.5t91.5 38.5t92.5 -38.5t38.5 -92.5t-38.5 -91.5t-92.5 -37.5t-91.5 37.5t-37.5 91.5zM414 268q0 54 37.5 91.5t91.5 37.5t92.5 -37.5t38.5 -91.5t-38.5 -92.5t-92.5 -38.5t-91.5 38.5t-37.5 92.5z" />
    <glyph glyph-name="oslash" unicode="&#xf8;" horiz-adv-x="1013" 
d="M53 -4l101 121q-80 106 -80 264q0 154 64.5 280.5t173 197.5t237.5 71q127 0 223 -60l92 111l99 -74l-101 -121q78 -104 78 -258t-64.5 -280.5t-173 -197t-237.5 -70.5q-128 0 -221 55l-92 -113zM268 381q0 -61 17 -105l370 451q-50 31 -108 31q-118 0 -198.5 -108.5
t-80.5 -268.5zM467 152q118 0 198 108t80 268q0 45 -14 99l-369 -449q42 -26 105 -26z" />
    <glyph glyph-name="ugrave" unicode="&#xf9;" horiz-adv-x="1007" 
d="M961 909l-160 -909h-205l16 86q-45 -45 -113 -75.5t-151 -30.5q-126 0 -195 73.5t-69 192.5q0 34 6 71l103 592h204l-98 -567q-6 -30 -6 -59q0 -127 137 -127q66 0 128.5 44.5t92.5 110.5l105 598h205zM684 1051h-170l-137 280h198z" />
    <glyph glyph-name="uacute" unicode="&#xfa;" horiz-adv-x="1007" 
d="M682 1051h-186l206 280h216zM961 909l-160 -909h-205l16 86q-45 -45 -113 -75.5t-151 -30.5q-126 0 -195 73.5t-69 192.5q0 34 6 71l103 592h204l-98 -567q-6 -30 -6 -59q0 -127 137 -127q66 0 128.5 44.5t92.5 110.5l105 598h205z" />
    <glyph glyph-name="ucircumflex" unicode="&#xfb;" horiz-adv-x="1007" 
d="M737 1323l144 -287h-166l-86 162l-144 -162h-178l242 287h188zM961 909l-160 -909h-205l16 86q-45 -45 -113 -75.5t-151 -30.5q-126 0 -195 73.5t-69 192.5q0 34 6 71l103 592h204l-98 -567q-6 -30 -6 -59q0 -127 137 -127q66 0 128.5 44.5t92.5 110.5l105 598h205z" />
    <glyph glyph-name="udieresis" unicode="&#xfc;" horiz-adv-x="1007" 
d="M348 1171q0 52 35 86.5t86 34.5q50 0 84.5 -34.5t34.5 -86.5q0 -49 -34.5 -83.5t-84.5 -34.5q-51 0 -86 34t-35 84zM664 1171q0 52 34 86.5t84 34.5t85.5 -34.5t35.5 -86.5q0 -49 -35.5 -83.5t-85.5 -34.5t-84 34.5t-34 83.5zM961 909l-160 -909h-205l16 86
q-45 -45 -113 -75.5t-151 -30.5q-126 0 -195 73.5t-69 192.5q0 34 6 71l103 592h204l-98 -567q-6 -30 -6 -59q0 -127 137 -127q66 0 128.5 44.5t92.5 110.5l105 598h205z" />
    <glyph glyph-name="yacute" unicode="&#xfd;" horiz-adv-x="974" 
d="M264 -348h-205l203 348l-143 909h200l101 -665l379 665h221zM647 1051h-186l207 280h215z" />
    <glyph glyph-name="thorn" unicode="&#xfe;" horiz-adv-x="1052" 
d="M270 80l-75 -428h-205l295 1679h204l-90 -512q41 47 107.5 79t138.5 32q165 0 254.5 -111.5t89.5 -288.5q0 -153 -63 -279t-175.5 -198.5t-250.5 -72.5q-82 0 -142.5 29t-87.5 71zM362 610l-57 -327q18 -55 67 -88t120 -33q134 0 213 103t79 265q0 96 -50.5 157
t-139.5 61q-138 0 -232 -138z" />
    <glyph glyph-name="ydieresis" unicode="&#xff;" horiz-adv-x="974" 
d="M264 -348h-205l203 348l-143 909h200l101 -665l379 665h221zM315 1171q0 52 35 86.5t86 34.5q50 0 84.5 -34.5t34.5 -86.5q0 -49 -34.5 -83.5t-84.5 -34.5q-51 0 -86 34t-35 84zM631 1171q0 52 34.5 86.5t84.5 34.5t85 -34.5t35 -86.5q0 -49 -35 -83.5t-85 -34.5
t-84.5 34.5t-34.5 83.5z" />
    <glyph glyph-name="Amacron" unicode="&#x100;" horiz-adv-x="1253" 
d="M682 1257h205l254 -1257h-213l-66 348h-481l-193 -348h-219zM739 997l-258 -465h346zM567 1374l29 162h461l-29 -162h-461z" />
    <glyph glyph-name="amacron" unicode="&#x101;" horiz-adv-x="950" 
d="M651 518l11 51q6 30 6 52q0 124 -176 124q-136 0 -275 -83l33 192q52 33 135.5 54.5t167.5 21.5q152 0 233.5 -68.5t81.5 -191.5q0 -34 -6 -74l-104 -596h-197l8 51q-32 -27 -90.5 -47t-128.5 -20q-132 0 -220.5 70t-88.5 192q0 144 121 235.5t287 91.5q63 0 118 -15.5
t84 -39.5zM602 242l14 75q-9 42 -56.5 67.5t-110.5 25.5q-52 0 -99 -15t-80.5 -51t-33.5 -86q0 -53 48 -80.5t117 -27.5q63 0 120 25t81 67zM373 1073l28 162h461l-28 -162h-461z" />
    <glyph glyph-name="Abreve" unicode="&#x102;" horiz-adv-x="1253" 
d="M682 1257h205l254 -1257h-213l-66 348h-481l-193 -348h-219zM801 1366q-114 0 -179 68t-44 186h149q-9 -52 16 -78t76 -26q53 0 87.5 26t43.5 78h150q-22 -124 -97.5 -189t-201.5 -65zM739 997l-258 -465h346z" />
    <glyph glyph-name="abreve" unicode="&#x103;" horiz-adv-x="950" 
d="M651 518l11 51q6 30 6 52q0 124 -176 124q-136 0 -275 -83l33 192q52 33 135.5 54.5t167.5 21.5q152 0 233.5 -68.5t81.5 -191.5q0 -34 -6 -74l-104 -596h-197l8 51q-32 -27 -90.5 -47t-128.5 -20q-132 0 -220.5 70t-88.5 192q0 144 121 235.5t287 91.5q63 0 118 -15.5
t84 -39.5zM602 242l14 75q-9 42 -56.5 67.5t-110.5 25.5q-52 0 -99 -15t-80.5 -51t-33.5 -86q0 -53 48 -80.5t117 -27.5q63 0 120 25t81 67zM600 1014q-114 0 -177.5 73.5t-39.5 202.5h149q-11 -61 9 -97t73 -36q54 0 87 36t44 97h150q-25 -133 -102 -204.5t-193 -71.5z" />
    <glyph glyph-name="Aogonek" unicode="&#x104;" horiz-adv-x="1253" 
d="M682 1257h205l254 -1257q-16 -21 -43.5 -54.5t-39.5 -49t-26.5 -37t-20 -37.5t-5.5 -31q0 -37 34 -37q29 0 82 33l-22 -131q-67 -45 -129 -45q-65 0 -97 32.5t-32 84.5q0 22 3.5 42t14.5 43t18 37t26.5 40t26.5 35t33 39t31 36h-67l-66 348h-481l-193 -348h-219zM739 997
l-258 -465h346z" />
    <glyph glyph-name="aogonek" unicode="&#x105;" horiz-adv-x="950" 
d="M602 242l14 75q-9 42 -56.5 67.5t-110.5 25.5q-52 0 -99 -15t-80.5 -51t-33.5 -86q0 -53 48 -80.5t117 -27.5q63 0 120 25t81 67zM612 0h-51l8 51q-32 -27 -90.5 -47t-128.5 -20q-132 0 -220.5 70t-88.5 192q0 144 121 235.5t287 91.5q63 0 118 -15.5t84 -39.5l11 51
q6 30 6 52q0 124 -176 124q-136 0 -275 -83l33 192q52 33 135.5 54.5t167.5 21.5q152 0 233.5 -68.5t81.5 -191.5q0 -34 -6 -74l-104 -596q-18 -23 -43.5 -54.5t-38.5 -48.5t-27 -38t-20 -37t-6 -31q0 -37 34 -37q29 0 82 33l-22 -131q-67 -45 -129 -45q-64 0 -96.5 32.5
t-32.5 84.5q0 22 3.5 42t14.5 43t18 37t26.5 40t26.5 35t33 39t31 36z" />
    <glyph glyph-name="Cacute" unicode="&#x106;" horiz-adv-x="1116" 
d="M981 289l-41 -232q-129 -77 -291 -77q-248 0 -398.5 152.5t-150.5 406.5q0 157 55 295.5t148 235t218 152.5t261 56q107 0 201 -31t152 -80l-39 -219q-133 139 -314 139q-204 0 -335.5 -154.5t-131.5 -393.5q0 -161 92.5 -264t241.5 -103q185 0 332 117zM913 1374h-208
l198 240h246z" />
    <glyph glyph-name="cacute" unicode="&#x107;" horiz-adv-x="841" 
d="M666 1051h-187l207 280h215zM733 248l-35 -205q-82 -63 -223 -63q-183 0 -297.5 112t-114.5 305q0 140 62 261t179.5 196.5t266.5 75.5q76 0 149 -24t118 -66l-37 -203q-97 111 -230 111q-130 0 -216.5 -97t-86.5 -254q0 -107 65 -171t165 -64q141 0 235 86z" />
    <glyph glyph-name="Ccircumflex" unicode="&#x108;" horiz-adv-x="1116" 
d="M981 289l-41 -232q-129 -77 -291 -77q-248 0 -398.5 152.5t-150.5 406.5q0 157 55 295.5t148 235t218 152.5t261 56q107 0 201 -31t152 -80l-39 -219q-133 139 -314 139q-204 0 -335.5 -154.5t-131.5 -393.5q0 -161 92.5 -264t241.5 -103q185 0 332 117zM958 1628
l148 -254h-174l-84 123l-125 -123h-191l238 254h188z" />
    <glyph glyph-name="ccircumflex" unicode="&#x109;" horiz-adv-x="841" 
d="M721 1323l143 -287h-166l-86 162l-143 -162h-178l241 287h189zM733 248l-35 -205q-82 -63 -223 -63q-183 0 -297.5 112t-114.5 305q0 140 62 261t179.5 196.5t266.5 75.5q76 0 149 -24t118 -66l-37 -203q-97 111 -230 111q-130 0 -216.5 -97t-86.5 -254q0 -107 65 -171
t165 -64q141 0 235 86z" />
    <glyph glyph-name="Cdotaccent" unicode="&#x10a;" horiz-adv-x="1116" 
d="M973 1491q0 -52 -37.5 -88.5t-89.5 -36.5t-89.5 36.5t-37.5 88.5t37.5 88.5t89.5 36.5t89.5 -36.5t37.5 -88.5zM981 289l-41 -232q-129 -77 -291 -77q-248 0 -398.5 152.5t-150.5 406.5q0 157 55 295.5t148 235t218 152.5t261 56q107 0 201 -31t152 -80l-39 -219
q-133 139 -314 139q-204 0 -335.5 -154.5t-131.5 -393.5q0 -161 92.5 -264t241.5 -103q185 0 332 117z" />
    <glyph glyph-name="cdotaccent" unicode="&#x10b;" horiz-adv-x="841" 
d="M733 248l-35 -205q-82 -63 -223 -63q-183 0 -297.5 112t-114.5 305q0 140 62 261t179.5 196.5t266.5 75.5q76 0 149 -24t118 -66l-37 -203q-97 111 -230 111q-130 0 -216.5 -97t-86.5 -254q0 -107 65 -171t165 -64q141 0 235 86zM735 1184q0 -52 -37.5 -88.5t-89.5 -36.5
t-89.5 36.5t-37.5 88.5t37.5 88.5t89.5 36.5t89.5 -36.5t37.5 -88.5z" />
    <glyph glyph-name="Ccaron" unicode="&#x10c;" horiz-adv-x="1116" 
d="M981 289l-41 -232q-129 -77 -291 -77q-248 0 -398.5 152.5t-150.5 406.5q0 157 55 295.5t148 235t218 152.5t261 56q107 0 201 -31t152 -80l-39 -219q-133 139 -314 139q-204 0 -335.5 -154.5t-131.5 -393.5q0 -161 92.5 -264t241.5 -103q185 0 332 117zM737 1374
l-147 254h174l84 -123l125 123h190l-237 -254h-189z" />
    <glyph glyph-name="ccaron" unicode="&#x10d;" horiz-adv-x="841" 
d="M494 1036l-144 287h166l86 -162l143 162h179l-242 -287h-188zM733 248l-35 -205q-82 -63 -223 -63q-183 0 -297.5 112t-114.5 305q0 140 62 261t179.5 196.5t266.5 75.5q76 0 149 -24t118 -66l-37 -203q-97 111 -230 111q-130 0 -216.5 -97t-86.5 -254q0 -107 65 -171
t165 -64q141 0 235 86z" />
    <glyph glyph-name="Dcaron" unicode="&#x10e;" horiz-adv-x="1249" 
d="M653 1374l-147 254h174l84 -123l125 123h190l-237 -254h-189zM313 190h209q223 0 349 149t126 386q0 165 -85 254.5t-255 89.5h-188zM68 0l221 1257h395q257 0 392.5 -139t135.5 -393q0 -149 -50 -281t-140 -230.5t-226 -156t-298 -57.5h-430z" />
    <glyph glyph-name="dcaron" unicode="&#x10f;" horiz-adv-x="1052" 
d="M1278 989h-168l156 342h168zM782 829l88 502h205l-233 -1331h-205l16 90q-41 -47 -107 -78.5t-138 -31.5q-165 0 -255 111t-90 288q0 144 63 270t176.5 203.5t250.5 77.5q82 0 142 -29.5t87 -71.5zM690 299l58 328q-18 55 -67 88t-120 33q-87 0 -155.5 -54.5t-103 -137.5
t-34.5 -177q0 -96 51 -156.5t140 -60.5q138 0 231 137z" />
    <glyph glyph-name="Dcroat" unicode="&#x110;" horiz-adv-x="1277" 
d="M82 559l31 180h112l92 518h396q257 0 392.5 -139t135.5 -393q0 -149 -50 -281t-140.5 -230.5t-226.5 -156t-298 -57.5h-430l99 559h-113zM342 190h209q223 0 349 149t126 386q0 165 -85 254.5t-255 89.5h-188l-60 -330h238l-31 -180h-237z" />
    <glyph glyph-name="dcroat" unicode="&#x111;" horiz-adv-x="1052" 
d="M610 1028l25 143h207l28 160h205l-28 -160h122l-24 -143h-123l-180 -1028h-205l16 90q-41 -47 -107 -78.5t-138 -31.5q-165 0 -255 111t-90 288q0 144 63 270t176.5 203.5t250.5 77.5q82 0 142 -29.5t87 -71.5l35 199h-207zM690 299l58 328q-18 55 -67 88t-120 33
q-87 0 -155.5 -54.5t-103 -137.5t-34.5 -177q0 -96 51 -156.5t140 -60.5q138 0 231 137z" />
    <glyph glyph-name="Emacron" unicode="&#x112;" horiz-adv-x="1052" 
d="M489 1374l29 162h461l-29 -162h-461zM289 1257h821l-33 -188h-612l-59 -332h555l-33 -186h-555l-64 -361h613l-33 -190h-821z" />
    <glyph glyph-name="emacron" unicode="&#x113;" horiz-adv-x="931" 
d="M860 410h-600v-25q0 -112 70.5 -171.5t181.5 -59.5q158 0 283 92l-37 -193q-111 -73 -285 -73q-193 0 -301.5 108.5t-108.5 290.5q0 144 58 268t173 203.5t265 79.5q154 0 238 -94t84 -256q0 -67 -21 -170zM362 1073l29 162h461l-29 -162h-461zM549 758q-89 0 -155 -52.5
t-101 -140.5h397q4 24 4 39q0 69 -37.5 111.5t-107.5 42.5z" />
    <glyph glyph-name="Ebreve" unicode="&#x114;" horiz-adv-x="1052" 
d="M725 1366q-114 0 -179 68t-44 186h149q-9 -52 16 -78t76 -26q53 0 87.5 26t43.5 78h150q-22 -124 -97.5 -189t-201.5 -65zM289 1257h821l-33 -188h-612l-59 -332h555l-33 -186h-555l-64 -361h613l-33 -190h-821z" />
    <glyph glyph-name="ebreve" unicode="&#x115;" horiz-adv-x="931" 
d="M860 410h-600v-25q0 -112 70.5 -171.5t181.5 -59.5q158 0 283 92l-37 -193q-111 -73 -285 -73q-193 0 -301.5 108.5t-108.5 290.5q0 144 58 268t173 203.5t265 79.5q154 0 238 -94t84 -256q0 -67 -21 -170zM590 1014q-114 0 -177.5 73.5t-39.5 202.5h149q-11 -61 9 -97
t73 -36q54 0 87 36t44 97h150q-25 -133 -102 -204.5t-193 -71.5zM549 758q-89 0 -155 -52.5t-101 -140.5h397q4 24 4 39q0 69 -37.5 111.5t-107.5 42.5z" />
    <glyph glyph-name="Edotaccent" unicode="&#x116;" horiz-adv-x="1052" 
d="M866 1491q0 -52 -37.5 -88.5t-89.5 -36.5t-89.5 36.5t-37.5 88.5t37.5 88.5t89.5 36.5t89.5 -36.5t37.5 -88.5zM289 1257h821l-33 -188h-612l-59 -332h555l-33 -186h-555l-64 -361h613l-33 -190h-821z" />
    <glyph glyph-name="edotaccent" unicode="&#x117;" horiz-adv-x="931" 
d="M860 410h-600v-25q0 -112 70.5 -171.5t181.5 -59.5q158 0 283 92l-37 -193q-111 -73 -285 -73q-193 0 -301.5 108.5t-108.5 290.5q0 144 58 268t173 203.5t265 79.5q154 0 238 -94t84 -256q0 -67 -21 -170zM549 758q-89 0 -155 -52.5t-101 -140.5h397q4 24 4 39
q0 69 -37.5 111.5t-107.5 42.5zM739 1184q0 -52 -37.5 -88.5t-89.5 -36.5t-89.5 36.5t-37.5 88.5t37.5 88.5t89.5 36.5t89.5 -36.5t37.5 -88.5z" />
    <glyph glyph-name="Eogonek" unicode="&#x118;" horiz-adv-x="1052" 
d="M289 1257h821l-33 -188h-612l-59 -332h555l-33 -186h-555l-64 -361h613l-33 -190h-78q-16 -21 -43.5 -54.5t-39.5 -49t-26.5 -37t-20 -37.5t-5.5 -31q0 -37 35 -37q29 0 82 33l-23 -131q-67 -45 -129 -45q-65 0 -97 32.5t-32 84.5q0 22 4 42.5t14.5 42.5t18 37t26.5 39.5
t27.5 35t32.5 39t31 36.5h-598z" />
    <glyph glyph-name="eogonek" unicode="&#x119;" horiz-adv-x="931" 
d="M860 410h-600v-25q0 -112 70.5 -171.5t181.5 -59.5q158 0 283 92l-37 -193q-63 -42 -88 -63q-55 -45 -92 -103.5t-37 -95.5t34 -37q29 0 82 33l-22 -131q-67 -45 -129 -45q-64 0 -96.5 32.5t-32.5 84.5q0 66 35 124.5t100 127.5h-39q-193 0 -301.5 108.5t-108.5 290.5
q0 144 58 268t173 203.5t265 79.5q154 0 238 -94t84 -256q0 -67 -21 -170zM549 758q-89 0 -155 -52.5t-101 -140.5h397q4 24 4 39q0 69 -37.5 111.5t-107.5 42.5z" />
    <glyph glyph-name="Ecaron" unicode="&#x11a;" horiz-adv-x="1052" 
d="M631 1374l-148 254h174l84 -123l125 123h191l-238 -254h-188zM289 1257h821l-33 -188h-612l-59 -332h555l-33 -186h-555l-64 -361h613l-33 -190h-821z" />
    <glyph glyph-name="ecaron" unicode="&#x11b;" horiz-adv-x="931" 
d="M860 410h-600v-25q0 -112 70.5 -171.5t181.5 -59.5q158 0 283 92l-37 -193q-111 -73 -285 -73q-193 0 -301.5 108.5t-108.5 290.5q0 144 58 268t173 203.5t265 79.5q154 0 238 -94t84 -256q0 -67 -21 -170zM496 1036l-144 287h166l86 -162l144 162h178l-242 -287h-188z
M549 758q-89 0 -155 -52.5t-101 -140.5h397q4 24 4 39q0 69 -37.5 111.5t-107.5 42.5z" />
    <glyph glyph-name="Gcircumflex" unicode="&#x11c;" horiz-adv-x="1226" 
d="M633 -20q-158 0 -280 71.5t-187.5 198.5t-65.5 289q0 156 55 294.5t148 235.5t218.5 153t262.5 56q240 0 385 -109l-39 -221q-133 139 -346 139q-201 0 -335 -152t-134 -396q0 -162 86.5 -266.5t231.5 -104.5q154 0 264 72l45 252h-237l30 178h434l-90 -514
q-176 -176 -446 -176zM969 1628l147 -254h-174l-84 123l-125 -123h-190l237 254h189z" />
    <glyph glyph-name="gcircumflex" unicode="&#x11d;" horiz-adv-x="1044" 
d="M780 1323l144 -287h-166l-86 162l-144 -162h-178l242 287h188zM647 59l8 45q-41 -46 -108.5 -77t-138.5 -31q-165 0 -255 109.5t-90 283.5q0 141 63 265t176.5 200t250.5 76q82 0 141.5 -29t87.5 -70l15 78h204l-151 -858q-36 -205 -172.5 -312.5t-333.5 -107.5
q-96 0 -184.5 24t-139.5 64l37 207q109 -114 287 -114q123 0 202.5 63t100.5 184zM692 309l58 324q-15 51 -67 84t-122 33q-87 0 -155.5 -53t-103 -134.5t-34.5 -173.5q0 -94 51 -153.5t140 -59.5q140 0 233 133z" />
    <glyph glyph-name="Gbreve" unicode="&#x11e;" horiz-adv-x="1226" 
d="M842 1366q-114 0 -179.5 68t-44.5 186h150q-9 -52 16 -78t76 -26q53 0 87.5 26t43.5 78h150q-22 -124 -97.5 -189t-201.5 -65zM633 -20q-158 0 -280 71.5t-187.5 198.5t-65.5 289q0 156 55 294.5t148 235.5t218.5 153t262.5 56q240 0 385 -109l-39 -221
q-133 139 -346 139q-201 0 -335 -152t-134 -396q0 -162 86.5 -266.5t231.5 -104.5q154 0 264 72l45 252h-237l30 178h434l-90 -514q-176 -176 -446 -176z" />
    <glyph glyph-name="gbreve" unicode="&#x11f;" horiz-adv-x="1044" 
d="M647 59l8 45q-41 -46 -108.5 -77t-138.5 -31q-165 0 -255 109.5t-90 283.5q0 141 63 265t176.5 200t250.5 76q82 0 141.5 -29t87.5 -70l15 78h204l-151 -858q-36 -205 -172.5 -312.5t-333.5 -107.5q-96 0 -184.5 24t-139.5 64l37 207q109 -114 287 -114q123 0 202.5 63
t100.5 184zM692 309l58 324q-15 51 -67 84t-122 33q-87 0 -155.5 -53t-103 -134.5t-34.5 -173.5q0 -94 51 -153.5t140 -59.5q140 0 233 133zM647 1014q-114 0 -177.5 73.5t-39.5 202.5h150q-11 -61 9 -97t73 -36q54 0 87 36t44 97h149q-25 -133 -102 -204.5t-193 -71.5z" />
    <glyph glyph-name="Gdotaccent" unicode="&#x120;" horiz-adv-x="1226" 
d="M983 1491q0 -52 -37.5 -88.5t-89.5 -36.5t-89.5 36.5t-37.5 88.5t37.5 88.5t89.5 36.5t89.5 -36.5t37.5 -88.5zM633 -20q-158 0 -280 71.5t-187.5 198.5t-65.5 289q0 156 55 294.5t148 235.5t218.5 153t262.5 56q240 0 385 -109l-39 -221q-133 139 -346 139
q-201 0 -335 -152t-134 -396q0 -162 86.5 -266.5t231.5 -104.5q154 0 264 72l45 252h-237l30 178h434l-90 -514q-176 -176 -446 -176z" />
    <glyph glyph-name="gdotaccent" unicode="&#x121;" horiz-adv-x="1044" 
d="M647 59l8 45q-41 -46 -108.5 -77t-138.5 -31q-165 0 -255 109.5t-90 283.5q0 141 63 265t176.5 200t250.5 76q82 0 141.5 -29t87.5 -70l15 78h204l-151 -858q-36 -205 -172.5 -312.5t-333.5 -107.5q-96 0 -184.5 24t-139.5 64l37 207q109 -114 287 -114q123 0 202.5 63
t100.5 184zM692 309l58 324q-15 51 -67 84t-122 33q-87 0 -155.5 -53t-103 -134.5t-34.5 -173.5q0 -94 51 -153.5t140 -59.5q140 0 233 133zM797 1184q0 -52 -37.5 -88.5t-89.5 -36.5t-89.5 36.5t-37.5 88.5t37.5 88.5t89.5 36.5t89.5 -36.5t37.5 -88.5z" />
    <glyph glyph-name="Gcommaaccent" unicode="&#x122;" horiz-adv-x="1226" 
d="M422 -444l92 114q-39 11 -62.5 41.5t-23.5 73.5q0 55 36 90t89 35q55 0 91 -36t36 -97q0 -70 -68 -150l-57 -71h-133zM633 -20q-158 0 -280 71.5t-187.5 198.5t-65.5 289q0 156 55 294.5t148 235.5t218.5 153t262.5 56q240 0 385 -109l-39 -221q-133 139 -346 139
q-201 0 -335 -152t-134 -396q0 -162 86.5 -266.5t231.5 -104.5q154 0 264 72l45 252h-237l30 178h434l-90 -514q-176 -176 -446 -176z" />
    <glyph glyph-name="gcommaaccent" unicode="&#x123;" horiz-adv-x="1044" 
d="M815 1425l-102 -127q39 -11 62.5 -41t23.5 -73q0 -55 -36 -90t-89 -35q-56 0 -91.5 35.5t-35.5 97.5q0 71 67 149l68 84h133zM647 59l8 45q-41 -46 -108.5 -77t-138.5 -31q-165 0 -255 109.5t-90 283.5q0 141 63 265t176.5 200t250.5 76q82 0 141.5 -29t87.5 -70l15 78
h204l-151 -858q-36 -205 -172.5 -312.5t-333.5 -107.5q-96 0 -184.5 24t-139.5 64l37 207q109 -114 287 -114q123 0 202.5 63t100.5 184zM692 309l58 324q-15 51 -67 84t-122 33q-87 0 -155.5 -53t-103 -134.5t-34.5 -173.5q0 -94 51 -153.5t140 -59.5q140 0 233 133z" />
    <glyph glyph-name="Hcircumflex" unicode="&#x124;" horiz-adv-x="1337" 
d="M1135 1257h213l-222 -1257h-213l97 551h-633l-96 -551h-213l221 1257h213l-92 -518h632zM971 1628l147 -254h-174l-84 123l-125 -123h-190l237 254h189z" />
    <glyph glyph-name="hcircumflex" unicode="&#x125;" horiz-adv-x="1013" 
d="M664 930q127 0 197.5 -74.5t70.5 -193.5q0 -32 -6 -70l-103 -592h-205l97 557q6 34 6 55q0 131 -143 131q-66 0 -127.5 -41.5t-90.5 -105.5l-104 -596h-205l234 1331h204l-90 -512q43 48 112 79.5t153 31.5zM750 1640l147 -254h-174l-84 123l-125 -123h-190l237 254h189z
" />
    <glyph glyph-name="Hbar" unicode="&#x126;" horiz-adv-x="1398" 
d="M1163 1257h213l-39 -215h113l-31 -176h-112l-152 -866h-213l82 473h-633l-82 -473h-213l152 866h-113l31 176h113l38 215h213l-38 -215h632zM422 645h633l39 221h-633z" />
    <glyph glyph-name="hbar" unicode="&#x127;" horiz-adv-x="1013" 
d="M109 1028l24 143h123l29 160h204l-28 -160h207l-25 -143h-207l-37 -209q43 48 112 79.5t153 31.5q127 0 197.5 -74.5t70.5 -193.5q0 -32 -6 -70l-103 -592h-205l97 557q6 34 6 55q0 131 -143 131q-66 0 -127.5 -41.5t-90.5 -105.5l-104 -596h-205l180 1028h-122z" />
    <glyph glyph-name="Itilde" unicode="&#x128;" horiz-adv-x="491" 
d="M502 1257l-221 -1257h-213l221 1257h213zM614 1636h131q-21 -123 -77.5 -195.5t-139.5 -72.5q-30 0 -57 16.5t-44 37t-38.5 37t-40.5 16.5q-63 0 -82 -101h-131q22 124 78 196t139 72q30 0 58 -16.5t44.5 -36.5t37.5 -36.5t40 -16.5q63 0 82 100z" />
    <glyph glyph-name="itilde" unicode="&#x129;" horiz-adv-x="458" 
d="M500 1313h129q-21 -122 -73.5 -195.5t-123.5 -73.5q-26 0 -48.5 16t-35 34.5t-28.5 34.5t-31 16q-54 0 -72 -94h-129q22 122 74 195t123 73q26 0 48.5 -15.5t35.5 -34.5t28.5 -34.5t30.5 -15.5q54 0 72 94zM416 909l-160 -909h-205l160 909h205z" />
    <glyph glyph-name="Imacron" unicode="&#x12a;" horiz-adv-x="491" 
d="M502 1257l-221 -1257h-213l221 1257h213zM186 1374l29 162h461l-29 -162h-461z" />
    <glyph glyph-name="imacron" unicode="&#x12b;" horiz-adv-x="458" 
d="M139 1073l29 162h405l-28 -162h-406zM416 909l-160 -909h-205l160 909h205z" />
    <glyph glyph-name="Ibreve" unicode="&#x12c;" horiz-adv-x="491" 
d="M502 1257l-221 -1257h-213l221 1257h213zM422 1366q-114 0 -179 68t-44 186h149q-9 -52 16 -78t76 -26q53 0 87.5 26t43.5 78h150q-22 -124 -97.5 -189t-201.5 -65z" />
    <glyph glyph-name="ibreve" unicode="&#x12d;" horiz-adv-x="458" 
d="M334 1014q-105 0 -156.5 73t-27.5 203h143q-14 -58 -0.5 -95.5t59.5 -37.5q85 0 109 133h147q-24 -132 -97 -204t-177 -72zM416 909l-160 -909h-205l160 909h205z" />
    <glyph glyph-name="Iogonek" unicode="&#x12e;" horiz-adv-x="491" 
d="M502 1257l-221 -1257q-19 -25 -52.5 -66t-46.5 -59t-25 -41.5t-12 -42.5q0 -37 35 -37q29 0 82 33l-22 -131q-67 -45 -129 -45q-65 0 -97 32.5t-32 84.5q0 22 3.5 42t14.5 43t18 37t26.5 40t26.5 35t33 39t31 36h-67l221 1257h213z" />
    <glyph glyph-name="iogonek" unicode="&#x12f;" horiz-adv-x="458" 
d="M489 1184q0 -52 -37.5 -88.5t-89.5 -36.5q-51 0 -88.5 36.5t-37.5 88.5t37.5 88.5t88.5 36.5q52 0 89.5 -36.5t37.5 -88.5zM51 0l160 909h205l-160 -909q-18 -23 -43.5 -54.5t-38.5 -48.5t-27 -38t-20 -37t-6 -31q0 -37 35 -37q29 0 82 33l-23 -131q-67 -45 -129 -45
q-64 0 -96.5 32.5t-32.5 84.5q0 22 4 42.5t14.5 42.5t18 37t26.5 39.5t27.5 35t32.5 39t31 36.5h-60z" />
    <glyph glyph-name="Idotaccent" unicode="&#x130;" horiz-adv-x="491" 
d="M502 1257l-221 -1257h-213l221 1257h213zM563 1491q0 -52 -37.5 -88.5t-89.5 -36.5t-89.5 36.5t-37.5 88.5t37.5 88.5t89.5 36.5t89.5 -36.5t37.5 -88.5z" />
    <glyph glyph-name="dotlessi" unicode="&#x131;" horiz-adv-x="458" 
d="M416 909l-160 -909h-205l160 909h205z" />
    <glyph glyph-name="IJ" unicode="&#x132;" horiz-adv-x="1257" 
d="M502 1257l-221 -1257h-213l221 1257h213zM428 49l37 215q65 -46 115.5 -68t117.5 -22q102 0 157 63t81 207l143 813h213l-145 -823q-41 -234 -159 -344t-318 -110q-70 0 -135 20.5t-107 48.5z" />
    <glyph glyph-name="ij" unicode="&#x133;" horiz-adv-x="917" 
d="M416 909l-160 -909h-205l160 909h205zM489 1184q0 -52 -37.5 -88.5t-89.5 -36.5q-51 0 -88.5 36.5t-37.5 88.5t37.5 88.5t88.5 36.5q52 0 89.5 -36.5t37.5 -88.5zM256 -336l31 178q46 -37 102 -37q48 0 72.5 30t36.5 97l172 977h204l-176 -991q-24 -137 -102 -212
t-203 -75q-80 0 -137 33zM948 1184q0 -52 -37.5 -88.5t-89.5 -36.5t-89.5 36.5t-37.5 88.5t37.5 88.5t89.5 36.5t89.5 -36.5t37.5 -88.5z" />
    <glyph glyph-name="Jcircumflex" unicode="&#x134;" horiz-adv-x="827" 
d="M-2 49l37 215q65 -46 115.5 -68t117.5 -22q102 0 157 63t81 207l143 813h213l-145 -823q-41 -234 -159 -344t-318 -110q-70 0 -135 20.5t-107 48.5zM909 1628l148 -254h-174l-84 123l-125 -123h-191l238 254h188z" />
    <glyph glyph-name="jcircumflex" unicode="&#x135;" horiz-adv-x="458" 
d="M477 1323l107 -287h-164l-55 156l-109 -156h-172l205 287h188zM-203 -336l31 178q46 -37 102 -37q48 0 72.5 30t36.5 97l172 977h205l-176 -991q-24 -136 -102.5 -211.5t-203.5 -75.5q-80 0 -137 33z" />
    <glyph glyph-name="Kcommaaccent" unicode="&#x136;" horiz-adv-x="1175" 
d="M336 -444l92 114q-39 11 -62.5 41.5t-23.5 73.5q0 55 36 90t89 35q55 0 91 -36t36 -97q0 -70 -68 -150l-57 -71h-133zM502 1257l-96 -546l587 546h279l-680 -616l481 -641h-256l-436 575l-100 -575h-213l221 1257h213z" />
    <glyph glyph-name="kcommaaccent" unicode="&#x137;" horiz-adv-x="954" 
d="M537 477l342 -477h-234l-313 438l-76 -438h-205l234 1331h204l-139 -788l408 366h272zM252 -444l92 114q-39 11 -62.5 41.5t-23.5 73.5q0 55 36 90t89 35q55 0 91 -36t36 -97q0 -70 -68 -150l-57 -71h-133z" />
    <glyph glyph-name="kgreenlandic" unicode="&#x138;" horiz-adv-x="954" 
d="M537 477l342 -477h-234l-313 438l-76 -438h-205l160 909h205l-66 -366l408 366h272z" />
    <glyph glyph-name="Lacute" unicode="&#x139;" horiz-adv-x="1034" 
d="M537 1374h-209l198 240h246zM68 0l221 1257h213l-189 -1067h605l-33 -190h-817z" />
    <glyph glyph-name="lacute" unicode="&#x13a;" horiz-adv-x="458" 
d="M506 1395h-209l199 239h245zM489 1331l-233 -1331h-205l234 1331h204z" />
    <glyph glyph-name="Lcommaaccent" unicode="&#x13b;" horiz-adv-x="1034" 
d="M305 -444l92 114q-39 11 -62.5 41.5t-23.5 73.5q0 55 36 90t89 35q56 0 91.5 -36t35.5 -97q0 -72 -67 -150l-58 -71h-133zM68 0l221 1257h213l-189 -1067h605l-33 -190h-817z" />
    <glyph glyph-name="lcommaaccent" unicode="&#x13c;" horiz-adv-x="458" 
d="M-18 -444l92 114q-39 11 -62.5 41.5t-23.5 73.5q0 55 36 90t89 35q55 0 91 -36t36 -97q0 -70 -68 -150l-57 -71h-133zM489 1331l-233 -1331h-205l234 1331h204z" />
    <glyph glyph-name="Lcaron" unicode="&#x13d;" horiz-adv-x="1034" 
d="M807 915h-168l156 342h168zM68 0l221 1257h213l-189 -1067h605l-33 -190h-817z" />
    <glyph glyph-name="lcaron" unicode="&#x13e;" horiz-adv-x="458" 
d="M690 989h-168l156 342h168zM489 1331l-233 -1331h-205l234 1331h204z" />
    <glyph glyph-name="Ldot" unicode="&#x13f;" horiz-adv-x="1034" 
d="M68 0l221 1257h213l-189 -1067h605l-33 -190h-817zM926 637q0 -52 -37.5 -88.5t-89.5 -36.5t-89.5 36.5t-37.5 88.5t37.5 88.5t89.5 36.5t89.5 -36.5t37.5 -88.5z" />
    <glyph glyph-name="ldot" unicode="&#x140;" horiz-adv-x="772" 
d="M489 1331l-233 -1331h-205l234 1331h204zM772 666q0 -52 -37.5 -88.5t-89.5 -36.5t-89.5 36.5t-37.5 88.5t37.5 88.5t89.5 36.5t89.5 -36.5t37.5 -88.5z" />
    <glyph glyph-name="Lslash" unicode="&#x141;" horiz-adv-x="1062" 
d="M55 418l37 200l121 52l104 587h213l-90 -509l289 120l-37 -200l-286 -121l-64 -357h604l-33 -190h-817l82 469z" />
    <glyph glyph-name="lslash" unicode="&#x142;" horiz-adv-x="532" 
d="M526 1331l-82 -467l140 66l-31 -174l-139 -66l-121 -690h-205l107 604l-125 -57l30 174l125 57l97 553h204z" />
    <glyph glyph-name="Nacute" unicode="&#x143;" horiz-adv-x="1290" 
d="M905 1374h-209l199 240h246zM1300 1257l-221 -1257h-164l-479 942l-164 -942h-204l221 1257h200l449 -899l158 899h204z" />
    <glyph glyph-name="nacute" unicode="&#x144;" horiz-adv-x="1013" 
d="M709 1051h-187l207 280h215zM51 0l160 909h205l-17 -90q43 48 112 79.5t153 31.5q127 0 197.5 -74.5t70.5 -193.5q0 -32 -6 -70l-103 -592h-205l97 557q6 34 6 55q0 131 -143 131q-66 0 -127.5 -41.5t-90.5 -105.5l-104 -596h-205z" />
    <glyph glyph-name="Ncommaaccent" unicode="&#x145;" horiz-adv-x="1290" 
d="M401 -444l93 114q-39 11 -62.5 41.5t-23.5 73.5q0 55 35.5 90t88.5 35q56 0 91.5 -36t35.5 -97q0 -72 -67 -150l-57 -71h-134zM1300 1257l-221 -1257h-164l-479 942l-164 -942h-204l221 1257h200l449 -899l158 899h204z" />
    <glyph glyph-name="ncommaaccent" unicode="&#x146;" horiz-adv-x="1013" 
d="M270 -444l92 114q-39 11 -62.5 41.5t-23.5 73.5q0 55 36 90t89 35q55 0 91 -36t36 -97q0 -72 -67 -150l-58 -71h-133zM51 0l160 909h205l-17 -90q43 48 112 79.5t153 31.5q127 0 197.5 -74.5t70.5 -193.5q0 -32 -6 -70l-103 -592h-205l97 557q6 34 6 55q0 131 -143 131
q-66 0 -127.5 -41.5t-90.5 -105.5l-104 -596h-205z" />
    <glyph glyph-name="Ncaron" unicode="&#x147;" horiz-adv-x="1290" 
d="M727 1374l-147 254h174l84 -123l125 123h190l-238 -254h-188zM1300 1257l-221 -1257h-164l-479 942l-164 -942h-204l221 1257h200l449 -899l158 899h204z" />
    <glyph glyph-name="ncaron" unicode="&#x148;" horiz-adv-x="1013" 
d="M537 1036l-144 287h166l86 -162l143 162h179l-242 -287h-188zM51 0l160 909h205l-17 -90q43 48 112 79.5t153 31.5q127 0 197.5 -74.5t70.5 -193.5q0 -32 -6 -70l-103 -592h-205l97 557q6 34 6 55q0 131 -143 131q-66 0 -127.5 -41.5t-90.5 -105.5l-104 -596h-205z" />
    <glyph glyph-name="Eng" unicode="&#x14a;" horiz-adv-x="1290" 
d="M879 70l-443 872l-164 -942h-204l221 1257h200l449 -899l158 899h204l-208 -1191q-79 -455 -459 -455q-97 0 -193 49l35 199q80 -54 168 -54q100 0 154.5 62.5t81.5 202.5z" />
    <glyph glyph-name="eng" unicode="&#x14b;" horiz-adv-x="1013" 
d="M365 -336l30 178q46 -37 103 -37q48 0 72.5 30t35.5 97l109 625q6 34 6 55q0 131 -143 131q-66 0 -127.5 -41.5t-90.5 -105.5l-104 -596h-205l160 909h205l-17 -90q43 48 112 79.5t153 31.5q127 0 197.5 -74.5t70.5 -193.5q0 -32 -6 -70l-119 -674q-24 -137 -102 -212
t-203 -75q-80 0 -137 33z" />
    <glyph glyph-name="Omacron" unicode="&#x14c;" horiz-adv-x="1304" 
d="M578 1374l28 162h461l-29 -162h-460zM629 170q182 0 303 151t121 388q0 163 -85 270.5t-229 107.5q-182 0 -303 -150.5t-121 -387.5q0 -163 85 -271t229 -108zM629 -20q-240 0 -384.5 157.5t-144.5 411.5q0 153 50.5 289t136.5 232t204 152t248 56q240 0 384.5 -157.5
t144.5 -411.5q0 -153 -50.5 -289t-136.5 -232t-204 -152t-248 -56z" />
    <glyph glyph-name="omacron" unicode="&#x14d;" horiz-adv-x="993" 
d="M367 1073l28 162h461l-29 -162h-460zM457 156q118 0 193 105.5t75 266.5q0 102 -49.5 164t-138.5 62q-118 0 -193.5 -106t-75.5 -267q0 -102 50 -163.5t139 -61.5zM455 -20q-184 0 -288 110t-104 291q0 154 64.5 280.5t173.5 197.5t238 71q184 0 287.5 -110.5
t103.5 -291.5q0 -154 -64.5 -280.5t-173 -197t-237.5 -70.5z" />
    <glyph glyph-name="Obreve" unicode="&#x14e;" horiz-adv-x="1304" 
d="M813 1366q-114 0 -179 68t-44 186h149q-9 -52 16 -78t76 -26q53 0 88 26t44 78h149q-22 -124 -97.5 -189t-201.5 -65zM629 170q182 0 303 151t121 388q0 163 -85 270.5t-229 107.5q-182 0 -303 -150.5t-121 -387.5q0 -163 85 -271t229 -108zM629 -20q-240 0 -384.5 157.5
t-144.5 411.5q0 153 50.5 289t136.5 232t204 152t248 56q240 0 384.5 -157.5t144.5 -411.5q0 -153 -50.5 -289t-136.5 -232t-204 -152t-248 -56z" />
    <glyph glyph-name="obreve" unicode="&#x14f;" horiz-adv-x="993" 
d="M457 156q118 0 193 105.5t75 266.5q0 102 -49.5 164t-138.5 62q-118 0 -193.5 -106t-75.5 -267q0 -102 50 -163.5t139 -61.5zM455 -20q-184 0 -288 110t-104 291q0 154 64.5 280.5t173.5 197.5t238 71q184 0 287.5 -110.5t103.5 -291.5q0 -154 -64.5 -280.5t-173 -197
t-237.5 -70.5zM594 1014q-114 0 -177.5 73.5t-39.5 202.5h149q-11 -61 9 -97t73 -36q54 0 87 36t44 97h150q-25 -133 -102 -204.5t-193 -71.5z" />
    <glyph glyph-name="Ohungarumlaut" unicode="&#x150;" horiz-adv-x="1304" 
d="M629 170q182 0 303 151t121 388q0 163 -85 270.5t-229 107.5q-182 0 -303 -150.5t-121 -387.5q0 -163 85 -271t229 -108zM629 -20q-240 0 -384.5 157.5t-144.5 411.5q0 153 50.5 289t136.5 232t204 152t248 56q240 0 384.5 -157.5t144.5 -411.5q0 -153 -50.5 -289
t-136.5 -232t-204 -152t-248 -56zM739 1374h-178l164 240h182zM1028 1374h-178l164 240h182z" />
    <glyph glyph-name="ohungarumlaut" unicode="&#x151;" horiz-adv-x="993" 
d="M524 1051h-168l172 280h172zM799 1051h-168l172 280h172zM457 156q118 0 193 105.5t75 266.5q0 102 -49.5 164t-138.5 62q-118 0 -193.5 -106t-75.5 -267q0 -102 50 -163.5t139 -61.5zM455 -20q-184 0 -288 110t-104 291q0 154 64.5 280.5t173.5 197.5t238 71
q184 0 287.5 -110.5t103.5 -291.5q0 -154 -64.5 -280.5t-173 -197t-237.5 -70.5z" />
    <glyph glyph-name="OE" unicode="&#x152;" horiz-adv-x="1693" 
d="M1751 1257l-33 -188h-592l-59 -332h535l-33 -186h-535l-63 -361h592l-33 -190h-901q-257 0 -393 139t-136 393q0 149 50 281t140.5 230.5t226.5 156t298 57.5h936zM315 532q0 -165 85 -254.5t255 -89.5h107l153 879h-124q-223 0 -349.5 -149t-126.5 -386z" />
    <glyph glyph-name="oe" unicode="&#x153;" horiz-adv-x="1566" 
d="M539 930q102 0 183 -43t130 -115q144 158 342 158q154 0 238 -94t84 -256q0 -67 -21 -170h-600v-25q0 -112 70.5 -171.5t181.5 -59.5q158 0 283 92l-37 -193q-111 -73 -285 -73q-219 0 -330 157q-64 -74 -148 -115.5t-175 -41.5q-184 0 -288 110t-104 291
q0 154 64.5 280.5t173.5 197.5t238 71zM457 156q118 0 193 105.5t75 266.5q0 102 -49.5 164t-138.5 62q-118 0 -193.5 -106t-75.5 -267q0 -102 50 -163.5t139 -61.5zM1184 758q-89 0 -155 -52.5t-101 -140.5h397q4 24 4 39q0 69 -37.5 111.5t-107.5 42.5z" />
    <glyph glyph-name="Racute" unicode="&#x154;" horiz-adv-x="1136" 
d="M535 510h-166l-88 -510h-213l221 1257h461q190 0 286.5 -84.5t96.5 -246.5q0 -169 -103.5 -275t-277.5 -133l272 -518h-229zM469 1073l-68 -385h265q119 0 186.5 60t67.5 172q0 71 -48 112t-141 41h-262zM821 1374h-209l199 240h246z" />
    <glyph glyph-name="racute" unicode="&#x155;" horiz-adv-x="696" 
d="M567 1051h-186l207 280h215zM719 913l-37 -211q-42 31 -115 31q-66 0 -123.5 -37.5t-85.5 -107.5l-102 -588h-205l160 909h205l-17 -94q34 51 96 83t128 32q71 0 96 -17z" />
    <glyph glyph-name="Rcommaaccent" unicode="&#x156;" horiz-adv-x="1136" 
d="M535 510h-166l-88 -510h-213l221 1257h461q190 0 286.5 -84.5t96.5 -246.5q0 -169 -103.5 -275t-277.5 -133l272 -518h-229zM469 1073l-68 -385h265q119 0 186.5 60t67.5 172q0 71 -48 112t-141 41h-262zM317 -444l93 114q-39 11 -62.5 41.5t-23.5 73.5q0 55 36 90t89 35
q55 0 90.5 -35.5t35.5 -97.5q0 -72 -67 -150l-57 -71h-134z" />
    <glyph glyph-name="rcommaaccent" unicode="&#x157;" horiz-adv-x="696" 
d="M-16 -444l92 114q-39 11 -62.5 41.5t-23.5 73.5q0 55 36 90t89 35q55 0 91 -36t36 -97q0 -70 -68 -150l-57 -71h-133zM719 913l-37 -211q-42 31 -115 31q-66 0 -123.5 -37.5t-85.5 -107.5l-102 -588h-205l160 909h205l-17 -94q34 51 96 83t128 32q71 0 96 -17z" />
    <glyph glyph-name="Rcaron" unicode="&#x158;" horiz-adv-x="1136" 
d="M535 510h-166l-88 -510h-213l221 1257h461q190 0 286.5 -84.5t96.5 -246.5q0 -169 -103.5 -275t-277.5 -133l272 -518h-229zM469 1073l-68 -385h265q119 0 186.5 60t67.5 172q0 71 -48 112t-141 41h-262zM643 1374l-147 254h174l84 -123l125 123h190l-238 -254h-188z" />
    <glyph glyph-name="rcaron" unicode="&#x159;" horiz-adv-x="696" 
d="M395 1036l-143 287h166l86 -162l143 162h178l-241 -287h-189zM719 913l-37 -211q-42 31 -115 31q-66 0 -123.5 -37.5t-85.5 -107.5l-102 -588h-205l160 909h205l-17 -94q34 51 96 83t128 32q71 0 96 -17z" />
    <glyph glyph-name="Sacute" unicode="&#x15a;" horiz-adv-x="1021" 
d="M35 111l39 221q174 -164 375 -164q119 0 194.5 46t75.5 142q0 58 -37 95t-111 69l-170 72q-53 22 -92.5 46t-74 59t-52.5 82t-18 106q0 94 40 171t105 124.5t144.5 72.5t162.5 25q235 0 388 -119l-37 -207q-162 140 -351 140q-105 0 -175 -43.5t-70 -130.5
q0 -54 32.5 -85.5t106.5 -64.5l190 -82q228 -100 228 -291q0 -133 -66 -229t-172.5 -141t-240.5 -45q-131 0 -239 38.5t-175 92.5zM772 1374h-209l199 240h246z" />
    <glyph glyph-name="sacute" unicode="&#x15b;" horiz-adv-x="833" 
d="M639 1051h-186l206 280h215zM31 82l37 209q55 -66 130 -103.5t158 -37.5q72 0 120 25.5t48 82.5q0 61 -104 96l-92 33q-101 36 -153 89.5t-52 139.5q0 142 104.5 228t264.5 86q169 0 282 -88l-35 -197q-111 115 -247 115q-72 0 -120 -27t-48 -82q0 -33 25 -55.5t77 -40.5
l113 -39q188 -64 188 -219q0 -94 -52.5 -167.5t-137.5 -111.5t-185 -38q-202 0 -321 102z" />
    <glyph glyph-name="Scircumflex" unicode="&#x15c;" horiz-adv-x="1021" 
d="M35 111l39 221q174 -164 375 -164q119 0 194.5 46t75.5 142q0 58 -37 95t-111 69l-170 72q-53 22 -92.5 46t-74 59t-52.5 82t-18 106q0 94 40 171t105 124.5t144.5 72.5t162.5 25q235 0 388 -119l-37 -207q-162 140 -351 140q-105 0 -175 -43.5t-70 -130.5
q0 -54 32.5 -85.5t106.5 -64.5l190 -82q228 -100 228 -291q0 -133 -66 -229t-172.5 -141t-240.5 -45q-131 0 -239 38.5t-175 92.5zM815 1628l148 -254h-175l-83 123l-125 -123h-191l238 254h188z" />
    <glyph glyph-name="scircumflex" unicode="&#x15d;" horiz-adv-x="833" 
d="M694 1323l144 -287h-166l-86 162l-144 -162h-178l242 287h188zM31 82l37 209q55 -66 130 -103.5t158 -37.5q72 0 120 25.5t48 82.5q0 61 -104 96l-92 33q-101 36 -153 89.5t-52 139.5q0 142 104.5 228t264.5 86q169 0 282 -88l-35 -197q-111 115 -247 115q-72 0 -120 -27
t-48 -82q0 -33 25 -55.5t77 -40.5l113 -39q188 -64 188 -219q0 -94 -52.5 -167.5t-137.5 -111.5t-185 -38q-202 0 -321 102z" />
    <glyph glyph-name="Scedilla" unicode="&#x15e;" horiz-adv-x="1021" 
d="M35 111l39 221q174 -164 375 -164q119 0 194.5 46t75.5 142q0 58 -37 95t-111 69l-170 72q-53 22 -92.5 46t-74 59t-52.5 82t-18 106q0 94 40 171t105 124.5t144.5 72.5t162.5 25q235 0 388 -119l-37 -207q-162 140 -351 140q-105 0 -175 -43.5t-70 -130.5
q0 -54 32.5 -85.5t106.5 -64.5l190 -82q228 -100 228 -291q0 -133 -66 -229t-172.5 -141t-240.5 -45q-131 0 -239 38.5t-175 92.5zM295 -389h-201l197 280h211z" />
    <glyph glyph-name="scedilla" unicode="&#x15f;" horiz-adv-x="833" 
d="M31 82l37 209q55 -66 130 -103.5t158 -37.5q72 0 120 25.5t48 82.5q0 61 -104 96l-92 33q-101 36 -153 89.5t-52 139.5q0 142 104.5 228t264.5 86q169 0 282 -88l-35 -197q-111 115 -247 115q-72 0 -120 -27t-48 -82q0 -33 25 -55.5t77 -40.5l113 -39q188 -64 188 -219
q0 -94 -52.5 -167.5t-137.5 -111.5t-185 -38q-202 0 -321 102zM209 -389h-201l197 280h211z" />
    <glyph glyph-name="Scaron" unicode="&#x160;" horiz-adv-x="1021" 
d="M35 111l39 221q174 -164 375 -164q119 0 194.5 46t75.5 142q0 58 -37 95t-111 69l-170 72q-53 22 -92.5 46t-74 59t-52.5 82t-18 106q0 94 40 171t105 124.5t144.5 72.5t162.5 25q235 0 388 -119l-37 -207q-162 140 -351 140q-105 0 -175 -43.5t-70 -130.5
q0 -54 32.5 -85.5t106.5 -64.5l190 -82q228 -100 228 -291q0 -133 -66 -229t-172.5 -141t-240.5 -45q-131 0 -239 38.5t-175 92.5zM594 1374l-148 254h175l84 -123l124 123h191l-238 -254h-188z" />
    <glyph glyph-name="scaron" unicode="&#x161;" horiz-adv-x="833" 
d="M467 1036l-143 287h165l86 -162l144 162h178l-242 -287h-188zM31 82l37 209q55 -66 130 -103.5t158 -37.5q72 0 120 25.5t48 82.5q0 61 -104 96l-92 33q-101 36 -153 89.5t-52 139.5q0 142 104.5 228t264.5 86q169 0 282 -88l-35 -197q-111 115 -247 115q-72 0 -120 -27
t-48 -82q0 -33 25 -55.5t77 -40.5l113 -39q188 -64 188 -219q0 -94 -52.5 -167.5t-137.5 -111.5t-185 -38q-202 0 -321 102z" />
    <glyph glyph-name="Tcedilla" unicode="&#x162;" horiz-adv-x="1171" 
d="M334 -444l92 114q-39 11 -62.5 41.5t-23.5 73.5q0 55 36 90t89 35q55 0 91 -36t36 -97q0 -70 -68 -150l-57 -71h-133zM170 1069l33 188h1048l-32 -188h-418l-189 -1069h-213l189 1069h-418z" />
    <glyph glyph-name="tcedilla" unicode="&#x163;" horiz-adv-x="698" 
d="M98 -444l92 114q-39 11 -62.5 41.5t-23.5 73.5q0 55 36 90t89 35q55 0 91 -36t36 -97q0 -72 -67 -150l-58 -71h-133zM494 739l-129 -739h-205l129 739h-185l31 170h184l43 244h205l-43 -244h205l-31 -170h-204z" />
    <glyph glyph-name="Tcaron" unicode="&#x164;" horiz-adv-x="1171" 
d="M662 1374l-148 254h174l84 -123l125 123h190l-237 -254h-188zM170 1069l33 188h1048l-32 -188h-418l-189 -1069h-213l189 1069h-418z" />
    <glyph glyph-name="tcaron" unicode="&#x165;" horiz-adv-x="698" 
d="M803 1010h-168l156 342h167zM494 739l-129 -739h-205l129 739h-185l31 170h184l43 244h205l-43 -244h205l-31 -170h-204z" />
    <glyph glyph-name="Tbar" unicode="&#x166;" horiz-adv-x="1171" 
d="M170 1069l33 188h1048l-32 -188h-418l-60 -330h226l-31 -180h-225l-99 -559h-213l99 559h-226l31 180h225l60 330h-418z" />
    <glyph glyph-name="tbar" unicode="&#x167;" horiz-adv-x="698" 
d="M494 739l-31 -170h168l-29 -161h-168l-69 -408h-205l69 408h-135l29 161h135l31 170h-185l31 170h184l43 244h205l-43 -244h205l-31 -170h-204z" />
    <glyph glyph-name="Utilde" unicode="&#x168;" horiz-adv-x="1245" 
d="M979 1636h131q-21 -123 -77.5 -195.5t-139.5 -72.5q-30 0 -57 16.5t-44 37t-38.5 37t-40.5 16.5q-63 0 -82 -101h-131q22 124 78 196t139 72q30 0 58 -16.5t44.5 -36.5t37.5 -36.5t40 -16.5q63 0 82 100zM584 -20q-211 0 -335 105t-124 302q0 54 16 145l127 725h213
l-129 -733q-10 -65 -10 -106q0 -120 60.5 -184t181.5 -64q146 0 232 86.5t118 267.5l129 733h213l-133 -757q-44 -251 -189.5 -385.5t-369.5 -134.5z" />
    <glyph glyph-name="utilde" unicode="&#x169;" horiz-adv-x="1007" 
d="M961 909l-160 -909h-205l16 86q-45 -45 -113 -75.5t-151 -30.5q-126 0 -195 73.5t-69 192.5q0 34 6 71l103 592h204l-98 -567q-6 -30 -6 -59q0 -127 137 -127q66 0 128.5 44.5t92.5 110.5l105 598h205zM801 1313h131q-21 -123 -77.5 -196t-139.5 -73q-30 0 -57 16.5
t-44 37t-38.5 37t-40.5 16.5q-63 0 -82 -100h-131q22 124 78 196t139 72q30 0 58 -16.5t44.5 -37t37.5 -37t40 -16.5q30 0 51.5 26.5t30.5 74.5z" />
    <glyph glyph-name="Umacron" unicode="&#x16a;" horiz-adv-x="1245" 
d="M551 1374l29 162h460l-28 -162h-461zM584 -20q-211 0 -335 105t-124 302q0 54 16 145l127 725h213l-129 -733q-10 -65 -10 -106q0 -120 60.5 -184t181.5 -64q146 0 232 86.5t118 267.5l129 733h213l-133 -757q-44 -251 -189.5 -385.5t-369.5 -134.5z" />
    <glyph glyph-name="umacron" unicode="&#x16b;" horiz-adv-x="1007" 
d="M961 909l-160 -909h-205l16 86q-45 -45 -113 -75.5t-151 -30.5q-126 0 -195 73.5t-69 192.5q0 34 6 71l103 592h204l-98 -567q-6 -30 -6 -59q0 -127 137 -127q66 0 128.5 44.5t92.5 110.5l105 598h205zM377 1073l29 162h460l-28 -162h-461z" />
    <glyph glyph-name="Ubreve" unicode="&#x16c;" horiz-adv-x="1245" 
d="M786 1366q-114 0 -179 68t-44 186h150q-9 -52 16 -78t76 -26q53 0 87.5 26t43.5 78h149q-22 -124 -97.5 -189t-201.5 -65zM584 -20q-211 0 -335 105t-124 302q0 54 16 145l127 725h213l-129 -733q-10 -65 -10 -106q0 -120 60.5 -184t181.5 -64q146 0 232 86.5t118 267.5
l129 733h213l-133 -757q-44 -251 -189.5 -385.5t-369.5 -134.5z" />
    <glyph glyph-name="ubreve" unicode="&#x16d;" horiz-adv-x="1007" 
d="M961 909l-160 -909h-205l16 86q-45 -45 -113 -75.5t-151 -30.5q-126 0 -195 73.5t-69 192.5q0 34 6 71l103 592h204l-98 -567q-6 -30 -6 -59q0 -127 137 -127q66 0 128.5 44.5t92.5 110.5l105 598h205zM604 1014q-114 0 -177.5 73.5t-39.5 202.5h150q-11 -62 8.5 -97.5
t72.5 -35.5q54 0 87.5 36t44.5 97h149q-25 -133 -102 -204.5t-193 -71.5z" />
    <glyph glyph-name="Uring" unicode="&#x16e;" horiz-adv-x="1245" 
d="M584 -20q-211 0 -335 105t-124 302q0 54 16 145l127 725h213l-129 -733q-10 -65 -10 -106q0 -120 60.5 -184t181.5 -64q146 0 232 86.5t118 267.5l129 733h213l-133 -757q-44 -251 -189.5 -385.5t-369.5 -134.5zM801 1430q37 0 63.5 25t26.5 65q0 35 -24 58.5t-58 23.5
q-37 0 -63.5 -25.5t-26.5 -65.5q0 -35 24 -58t58 -23zM797 1329q-78 0 -130.5 51t-52.5 127q0 79 57.5 137t141.5 58q78 0 130 -51t52 -127q0 -79 -57.5 -137t-140.5 -58z" />
    <glyph glyph-name="uring" unicode="&#x16f;" horiz-adv-x="1007" 
d="M623 1102q37 0 63.5 25t26.5 65q0 35 -24 58.5t-58 23.5q-37 0 -63.5 -25t-26.5 -65q0 -35 24 -58.5t58 -23.5zM618 1001q-78 0 -130 51t-52 128q0 79 57.5 136.5t141.5 57.5q78 0 130 -51t52 -127q0 -79 -57.5 -137t-141.5 -58zM961 909l-160 -909h-205l16 86
q-45 -45 -113 -75.5t-151 -30.5q-126 0 -195 73.5t-69 192.5q0 34 6 71l103 592h204l-98 -567q-6 -30 -6 -59q0 -127 137 -127q66 0 128.5 44.5t92.5 110.5l105 598h205z" />
    <glyph glyph-name="Uhungarumlaut" unicode="&#x170;" horiz-adv-x="1245" 
d="M584 -20q-211 0 -335 105t-124 302q0 54 16 145l127 725h213l-129 -733q-10 -65 -10 -106q0 -120 60.5 -184t181.5 -64q146 0 232 86.5t118 267.5l129 733h213l-133 -757q-44 -251 -189.5 -385.5t-369.5 -134.5zM713 1374h-178l163 240h183zM1001 1374h-178l164 240h182z
" />
    <glyph glyph-name="uhungarumlaut" unicode="&#x171;" horiz-adv-x="1007" 
d="M961 909l-160 -909h-205l16 86q-45 -45 -113 -75.5t-151 -30.5q-126 0 -195 73.5t-69 192.5q0 34 6 71l103 592h204l-98 -567q-6 -30 -6 -59q0 -127 137 -127q66 0 128.5 44.5t92.5 110.5l105 598h205zM535 1051h-168l172 280h172zM809 1051h-168l172 280h172z" />
    <glyph glyph-name="Uogonek" unicode="&#x172;" horiz-adv-x="1245" 
d="M584 -20q-211 0 -335 105t-124 302q0 54 16 145l127 725h213l-129 -733q-10 -65 -10 -106q0 -120 60.5 -184t181.5 -64q146 0 232 86.5t118 267.5l129 733h213l-133 -757q-50 -285 -264 -451q-97 -76 -148 -145t-51 -113q0 -37 35 -37q29 0 82 33l-23 -131
q-67 -45 -129 -45q-65 0 -97 32.5t-32 84.5q0 28 9.5 58t18 49t34 53t35 45.5t42.5 50.5q-46 -4 -71 -4z" />
    <glyph glyph-name="uogonek" unicode="&#x173;" horiz-adv-x="1007" 
d="M596 0l16 86q-45 -45 -113 -75.5t-151 -30.5q-126 0 -195 73.5t-69 192.5q0 34 6 71l103 592h204l-98 -567q-6 -30 -6 -59q0 -127 137 -127q66 0 128.5 44.5t92.5 110.5l105 598h205l-160 -909q-18 -23 -43.5 -54.5t-38.5 -48.5t-27 -38t-20 -37t-6 -31q0 -37 34 -37
q29 0 82 33l-22 -131q-67 -45 -129 -45q-65 0 -97 32.5t-32 84.5q0 22 3.5 42t14.5 43t18 37t26.5 40t26.5 35t33 39t31 36h-59z" />
    <glyph glyph-name="Wcircumflex" unicode="&#x174;" horiz-adv-x="1597" 
d="M862 1257h172l56 -925l409 925h209l-571 -1257h-197l-63 899l-416 -899h-195l-76 1257h205l45 -925zM1102 1628l147 -254h-174l-84 123l-125 -123h-190l237 254h189z" />
    <glyph glyph-name="wcircumflex" unicode="&#x175;" horiz-adv-x="1331" 
d="M901 1323l143 -287h-165l-86 162l-144 -162h-178l242 287h188zM831 909l25 -645l311 645h209l-461 -909h-204l-29 633l-295 -633h-205l-67 909h194l41 -645l303 645h178z" />
    <glyph glyph-name="Ycircumflex" unicode="&#x176;" horiz-adv-x="1183" 
d="M637 694l432 563h234l-590 -755l-88 -502h-211l88 502l-322 755h223zM893 1628l147 -254h-174l-84 123l-125 -123h-190l238 254h188z" />
    <glyph glyph-name="ycircumflex" unicode="&#x177;" horiz-adv-x="974" 
d="M264 -348h-205l203 348l-143 909h200l101 -665l379 665h221zM702 1323l144 -287h-166l-86 162l-143 -162h-179l242 287h188z" />
    <glyph glyph-name="Ydieresis" unicode="&#x178;" horiz-adv-x="1183" 
d="M637 694l432 563h234l-590 -755l-88 -502h-211l88 502l-322 755h223zM504 1491q0 52 35 86.5t86 34.5q50 0 84 -34.5t34 -86.5q0 -50 -34.5 -84.5t-83.5 -34.5q-51 0 -86 34.5t-35 84.5zM819 1491q0 52 34.5 86.5t84.5 34.5t85.5 -34.5t35.5 -86.5q0 -49 -35.5 -84
t-85.5 -35t-84.5 35t-34.5 84z" />
    <glyph glyph-name="Zacute" unicode="&#x179;" horiz-adv-x="1103" 
d="M973 190l-33 -190h-965v8l840 1061h-594l33 188h944l-2 -6l-836 -1061h613zM807 1374h-209l199 240h245z" />
    <glyph glyph-name="zacute" unicode="&#x17a;" horiz-adv-x="882" 
d="M627 1051h-187l207 280h215zM758 170l-29 -170h-747v8l575 731h-407l30 170h725v-8l-573 -731h426z" />
    <glyph glyph-name="Zdotaccent" unicode="&#x17b;" horiz-adv-x="1103" 
d="M864 1491q0 -52 -37.5 -88.5t-89.5 -36.5t-89.5 36.5t-37.5 88.5t37.5 88.5t89.5 36.5t89.5 -36.5t37.5 -88.5zM973 190l-33 -190h-965v8l840 1061h-594l33 188h944l-2 -6l-836 -1061h613z" />
    <glyph glyph-name="zdotaccent" unicode="&#x17c;" horiz-adv-x="882" 
d="M758 170l-29 -170h-747v8l575 731h-407l30 170h725v-8l-573 -731h426zM698 1184q0 -52 -37.5 -88.5t-89.5 -36.5t-89.5 36.5t-37.5 88.5t37.5 88.5t89.5 36.5t89.5 -36.5t37.5 -88.5z" />
    <glyph glyph-name="Zcaron" unicode="&#x17d;" horiz-adv-x="1103" 
d="M629 1374l-148 254h174l84 -123l125 123h191l-238 -254h-188zM973 190l-33 -190h-965v8l840 1061h-594l33 188h944l-2 -6l-836 -1061h613z" />
    <glyph glyph-name="zcaron" unicode="&#x17e;" horiz-adv-x="882" 
d="M455 1036l-144 287h166l86 -162l144 162h178l-242 -287h-188zM758 170l-29 -170h-747v8l575 731h-407l30 170h725v-8l-573 -731h426z" />
    <glyph glyph-name="florin" unicode="&#x192;" horiz-adv-x="868" 
d="M152 547l30 172h174l78 258q43 145 143 223t232 78q86 0 145 -25l-32 -180q-53 29 -113 29q-127 0 -170 -139l-74 -244h180l-30 -172h-201l-184 -615q-44 -147 -135 -224t-220 -77q-86 0 -145 25l33 180q53 -29 112 -29q60 0 93 31.5t57 108.5l180 600h-153z" />
    <glyph glyph-name="Aringacute" unicode="&#x1fa;" horiz-adv-x="1253" 
d="M682 1257h205l254 -1257h-213l-66 348h-481l-193 -348h-219zM807 1296q-78 0 -130 43t-52 109q0 67 57 115.5t139 48.5q78 0 130.5 -43t52.5 -109q0 -67 -57.5 -115.5t-139.5 -48.5zM739 997l-258 -465h346zM942 1651h-190l149 180h227zM811 1389q37 0 62.5 18t25.5 51
q0 28 -23.5 45t-58.5 17q-36 0 -62 -18.5t-26 -51.5q0 -28 23.5 -44.5t58.5 -16.5z" />
    <glyph glyph-name="aringacute" unicode="&#x1fb;" horiz-adv-x="950" 
d="M612 1061q37 0 62.5 18t25.5 51q0 28 -23.5 45t-58.5 17q-36 0 -62 -18.5t-26 -51.5q0 -28 23.5 -44.5t58.5 -16.5zM608 969q-78 0 -130 42.5t-52 108.5q0 67 57.5 115.5t139.5 48.5q78 0 130 -42.5t52 -108.5q0 -67 -57.5 -115.5t-139.5 -48.5zM743 1323h-190l149 180
h228zM651 518l11 51q6 30 6 52q0 124 -176 124q-136 0 -275 -83l33 192q52 33 135.5 54.5t167.5 21.5q152 0 233.5 -68.5t81.5 -191.5q0 -34 -6 -74l-104 -596h-197l8 51q-32 -27 -90.5 -47t-128.5 -20q-132 0 -220.5 70t-88.5 192q0 144 121 235.5t287 91.5q63 0 118 -15.5
t84 -39.5zM602 242l14 75q-9 42 -56.5 67.5t-110.5 25.5q-52 0 -99 -15t-80.5 -51t-33.5 -86q0 -53 48 -80.5t117 -27.5q63 0 120 25t81 67z" />
    <glyph glyph-name="AEacute" unicode="&#x1fc;" horiz-adv-x="1785" 
d="M907 1257h936l-33 -188h-591l-60 -332h535l-33 -186h-535l-63 -361h592l-33 -190h-801l62 348h-426l-260 -348h-228zM1016 1098l-422 -566h321zM1493 1374h-209l199 240h246z" />
    <glyph glyph-name="aeacute" unicode="&#x1fd;" horiz-adv-x="1480" 
d="M961 1051h-187l207 280h215zM692 127q-155 -145 -358 -145q-129 0 -211 66.5t-82 182.5q0 102 60.5 178.5t153.5 113t200 36.5h207q6 35 6 57q0 129 -176 129q-136 0 -275 -83l33 192q52 33 135.5 54.5t167.5 21.5q183 0 250 -131q59 57 139 94t168 37q153 0 236.5 -94
t83.5 -256q0 -74 -21 -177h-600v-18q0 -112 70.5 -171.5t181.5 -59.5q157 0 282 92l-36 -193q-111 -73 -285 -73q-224 0 -330 147zM381 147q73 0 132 34t95 95l23 127h-189q-48 0 -91.5 -12t-79 -47t-35.5 -88t41.5 -81t103.5 -28zM1098 758q-90 0 -157 -54.5t-101 -144.5
h399q4 28 4 41q0 69 -38 113.5t-107 44.5z" />
    <glyph glyph-name="Oslashacute" unicode="&#x1fe;" horiz-adv-x="1325" 
d="M113 55l106 125q-108 148 -108 369q0 153 50.5 289t136.5 232t204 152t248 56q184 0 315 -98l90 106l119 -84l-107 -125q111 -148 111 -368q0 -153 -50.5 -289t-136.5 -232t-204 -152t-248 -56q-182 0 -317 96l-89 -105zM639 170q182 0 303 151t121 388q0 109 -41 196
l-567 -672q75 -63 184 -63zM326 549q0 -115 39 -197l567 672q-79 63 -182 63q-182 0 -303 -150.5t-121 -387.5zM897 1374h-209l199 240h246z" />
    <glyph glyph-name="oslashacute" unicode="&#x1ff;" horiz-adv-x="1013" 
d="M53 -4l101 121q-80 106 -80 264q0 154 64.5 280.5t173 197.5t237.5 71q127 0 223 -60l92 111l99 -74l-101 -121q78 -104 78 -258t-64.5 -280.5t-173 -197t-237.5 -70.5q-128 0 -221 55l-92 -113zM268 381q0 -61 17 -105l370 451q-50 31 -108 31q-118 0 -198.5 -108.5
t-80.5 -268.5zM467 152q118 0 198 108t80 268q0 45 -14 99l-369 -449q42 -26 105 -26zM674 1051h-187l207 280h215z" />
    <glyph glyph-name="Scommaaccent" unicode="&#x218;" horiz-adv-x="1021" 
d="M227 -444l92 114q-39 11 -62.5 41.5t-23.5 73.5q0 55 36 90t89 35q56 0 91.5 -36t35.5 -97q0 -72 -67 -150l-58 -71h-133zM35 111l39 221q174 -164 375 -164q119 0 194.5 46t75.5 142q0 58 -37 95t-111 69l-170 72q-53 22 -92.5 46t-74 59t-52.5 82t-18 106q0 94 40 171
t105 124.5t144.5 72.5t162.5 25q235 0 388 -119l-37 -207q-162 140 -351 140q-105 0 -175 -43.5t-70 -130.5q0 -54 32.5 -85.5t106.5 -64.5l190 -82q228 -100 228 -291q0 -133 -66 -229t-172.5 -141t-240.5 -45q-131 0 -239 38.5t-175 92.5z" />
    <glyph glyph-name="scommaaccent" unicode="&#x219;" horiz-adv-x="833" 
d="M150 -444l92 114q-39 11 -62.5 41.5t-23.5 73.5q0 55 36 90t89 35q55 0 91 -36t36 -97q0 -70 -68 -150l-57 -71h-133zM31 82l37 209q55 -66 130 -103.5t158 -37.5q72 0 120 25.5t48 82.5q0 61 -104 96l-92 33q-101 36 -153 89.5t-52 139.5q0 142 104.5 228t264.5 86
q169 0 282 -88l-35 -197q-111 115 -247 115q-72 0 -120 -27t-48 -82q0 -33 25 -55.5t77 -40.5l113 -39q188 -64 188 -219q0 -94 -52.5 -167.5t-137.5 -111.5t-185 -38q-202 0 -321 102z" />
    <glyph glyph-name="uni0237" unicode="&#x237;" horiz-adv-x="458" 
d="M-203 -336l31 178q46 -37 102 -37q48 0 72.5 30t36.5 97l172 977h205l-176 -991q-24 -136 -102.5 -211.5t-203.5 -75.5q-80 0 -137 33z" />
    <glyph glyph-name="circumflex" unicode="&#x2c6;" 
d="M655 1323l144 -287h-166l-86 162l-144 -162h-178l242 287h188z" />
    <glyph glyph-name="caron" unicode="&#x2c7;" 
d="M369 1036l-144 287h166l86 -162l144 162h178l-242 -287h-188z" />
    <glyph glyph-name="breve" unicode="&#x2d8;" 
d="M477 1014q-114 0 -177.5 73.5t-39.5 202.5h150q-11 -61 9 -97t73 -36q54 0 87 36t44 97h149q-25 -133 -102 -204.5t-193 -71.5z" />
    <glyph glyph-name="dotaccent" unicode="&#x2d9;" 
d="M639 1184q0 -52 -37.5 -88.5t-89.5 -36.5t-89.5 36.5t-37.5 88.5t37.5 88.5t89.5 36.5t89.5 -36.5t37.5 -88.5z" />
    <glyph glyph-name="ring" unicode="&#x2da;" 
d="M506 1102q37 0 63.5 25t26.5 65q0 35 -24 58.5t-58 23.5q-37 0 -63.5 -25t-26.5 -65q0 -35 24 -58.5t58 -23.5zM502 1001q-78 0 -130.5 51.5t-52.5 127.5q0 79 57.5 136.5t141.5 57.5q78 0 130 -51t52 -127q0 -79 -57.5 -137t-140.5 -58z" />
    <glyph glyph-name="ogonek" unicode="&#x2db;" 
d="M520 10h146q-23 -30 -56.5 -71.5t-48.5 -60.5t-27 -43t-12 -44q0 -37 35 -37q29 0 82 33l-23 -131q-67 -45 -129 -45q-65 0 -97 32.5t-32 84.5q0 31 7.5 59.5t29.5 62.5t33 50t47.5 58.5t44.5 51.5z" />
    <glyph glyph-name="tilde" unicode="&#x2dc;" 
d="M686 1313h131q-21 -123 -77.5 -196t-139.5 -73q-30 0 -57 16.5t-44 37t-38.5 37t-40.5 16.5q-63 0 -82 -100h-131q22 124 78 196t139 72q30 0 58 -16.5t44.5 -37t37.5 -37t40 -16.5q30 0 51.5 26.5t30.5 74.5z" />
    <glyph glyph-name="hungarumlaut" unicode="&#x2dd;" 
d="M371 1051h-168l172 280h172zM645 1051h-168l172 280h172z" />
    <glyph glyph-name="Wgrave" unicode="&#x1e80;" horiz-adv-x="1597" 
d="M1065 1374h-188l-154 240h225zM862 1257h172l56 -925l409 925h209l-571 -1257h-197l-63 899l-416 -899h-195l-76 1257h205l45 -925z" />
    <glyph glyph-name="wgrave" unicode="&#x1e81;" horiz-adv-x="1331" 
d="M831 909l25 -645l311 645h209l-461 -909h-204l-29 633l-295 -633h-205l-67 909h194l41 -645l303 645h178zM846 1051h-170l-137 280h198z" />
    <glyph glyph-name="Wacute" unicode="&#x1e82;" horiz-adv-x="1597" 
d="M1059 1374h-209l199 240h245zM862 1257h172l56 -925l409 925h209l-571 -1257h-197l-63 899l-416 -899h-195l-76 1257h205l45 -925z" />
    <glyph glyph-name="wacute" unicode="&#x1e83;" horiz-adv-x="1331" 
d="M846 1051h-187l207 280h215zM831 909l25 -645l311 645h209l-461 -909h-204l-29 633l-295 -633h-205l-67 909h194l41 -645l303 645h178z" />
    <glyph glyph-name="Wdieresis" unicode="&#x1e84;" horiz-adv-x="1597" 
d="M713 1491q0 52 35 86.5t86 34.5q50 0 84 -34.5t34 -86.5q0 -50 -34.5 -84.5t-83.5 -34.5q-51 0 -86 34.5t-35 84.5zM1028 1491q0 52 34.5 86.5t84.5 34.5t85.5 -34.5t35.5 -86.5q0 -49 -35.5 -84t-85.5 -35q-49 0 -84 35t-35 84zM862 1257h172l56 -925l409 925h209
l-571 -1257h-197l-63 899l-416 -899h-195l-76 1257h205l45 -925z" />
    <glyph glyph-name="wdieresis" unicode="&#x1e85;" horiz-adv-x="1331" 
d="M512 1171q0 52 35 86.5t86 34.5q50 0 84.5 -34.5t34.5 -86.5q0 -49 -34.5 -83.5t-84.5 -34.5q-51 0 -86 34t-35 84zM827 1171q0 52 34.5 86.5t84.5 34.5t85.5 -34.5t35.5 -86.5q0 -49 -35.5 -83.5t-85.5 -34.5t-84.5 34.5t-34.5 83.5zM831 909l25 -645l311 645h209
l-461 -909h-204l-29 633l-295 -633h-205l-67 909h194l41 -645l303 645h178z" />
    <glyph glyph-name="Ygrave" unicode="&#x1ef2;" horiz-adv-x="1183" 
d="M637 694l432 563h234l-590 -755l-88 -502h-211l88 502l-322 755h223zM854 1374h-188l-154 240h225z" />
    <glyph glyph-name="ygrave" unicode="&#x1ef3;" horiz-adv-x="974" 
d="M264 -348h-205l203 348l-143 909h200l101 -665l379 665h221zM649 1051h-170l-137 280h199z" />
    <glyph glyph-name="endash" unicode="&#x2013;" horiz-adv-x="972" 
d="M86 457l29 161h809l-29 -161h-809z" />
    <glyph glyph-name="emdash" unicode="&#x2014;" horiz-adv-x="1732" 
d="M86 457l29 161h1568l-28 -161h-1569z" />
    <glyph glyph-name="quoteleft" unicode="&#x2018;" horiz-adv-x="395" 
d="M504 1257l-182 -225q42 -11 68 -45t26 -82q0 -59 -40.5 -98t-99.5 -39q-60 0 -99.5 39t-39.5 108q0 77 74 166l145 176h148z" />
    <glyph glyph-name="quoteright" unicode="&#x2019;" horiz-adv-x="395" 
d="M96 788l183 226q-42 11 -68.5 45t-26.5 82q0 59 40.5 98t99.5 39q60 0 99.5 -39.5t39.5 -108.5q0 -76 -74 -165l-145 -177h-148z" />
    <glyph glyph-name="quotesinglbase" unicode="&#x201a;" horiz-adv-x="395" 
d="M-68 -221l183 225q-42 11 -68.5 45t-26.5 82q0 59 40.5 98t99.5 39q60 0 99.5 -39t39.5 -108q0 -77 -74 -166l-145 -176h-148z" />
    <glyph glyph-name="quotedblleft" unicode="&#x201c;" horiz-adv-x="765" 
d="M504 1257l-182 -225q42 -11 68 -45t26 -82q0 -59 -40.5 -98t-99.5 -39q-60 0 -99.5 39t-39.5 108q0 77 74 166l145 176h148zM874 1257l-182 -225q42 -11 68 -45t26 -82q0 -59 -40 -98t-99 -39q-61 0 -100 39t-39 108q0 77 74 166l145 176h147z" />
    <glyph glyph-name="quotedblright" unicode="&#x201d;" horiz-adv-x="765" 
d="M96 788l183 226q-42 11 -68.5 45t-26.5 82q0 59 40.5 98t99.5 39q60 0 99.5 -39.5t39.5 -108.5q0 -76 -74 -165l-145 -177h-148zM467 788l182 226q-42 11 -68 45t-26 82q0 59 40 98t99 39q60 0 100 -40t40 -108q0 -76 -74 -165l-146 -177h-147z" />
    <glyph glyph-name="quotedblbase" unicode="&#x201e;" horiz-adv-x="765" 
d="M-68 -221l183 225q-42 11 -68.5 45t-26.5 82q0 59 40.5 98t99.5 39q60 0 99.5 -39t39.5 -108q0 -77 -74 -166l-145 -176h-148zM303 -221l182 225q-42 11 -68 45t-26 82q0 59 40 98t99 39q61 0 100.5 -39.5t39.5 -107.5q0 -77 -74 -166l-145 -176h-148z" />
    <glyph glyph-name="dagger" unicode="&#x2020;" horiz-adv-x="679" 
d="M156 995l26 148h201l35 188h151l-34 -188h204l-26 -148h-203l-76 -430h-151l75 430h-202z" />
    <glyph glyph-name="daggerdbl" unicode="&#x2021;" horiz-adv-x="706" 
d="M166 1028l24 139h205l29 164h151l-28 -164h207l-25 -139h-207l-28 -162h206l-24 -137h-207l-29 -164h-151l28 164h-204l24 137h205l29 162h-205z" />
    <glyph glyph-name="bullet" unicode="&#x2022;" horiz-adv-x="720" 
d="M670 537q0 -127 -85 -210t-210 -83t-210 83t-85 210q0 129 85 211.5t210 82.5t210 -82.5t85 -211.5z" />
    <glyph glyph-name="ellipsis" unicode="&#x2026;" horiz-adv-x="1310" 
d="M18 127q0 60 40.5 100.5t99.5 40.5t99 -40.5t40 -100.5t-40 -100.5t-99 -40.5t-99.5 40.5t-40.5 100.5zM469 127q0 60 40 100.5t99 40.5t99.5 -40.5t40.5 -100.5t-40.5 -100.5t-99.5 -40.5t-99 40.5t-40 100.5zM920 127q0 60 40 100.5t99 40.5t99 -40.5t40 -100.5
t-40 -100.5t-99 -40.5t-99 40.5t-40 100.5z" />
    <glyph glyph-name="perthousand" unicode="&#x2030;" horiz-adv-x="1986" 
d="M438 1278q114 0 191.5 -77.5t77.5 -190.5q0 -120 -85.5 -209.5t-211.5 -89.5q-114 0 -191.5 77.5t-77.5 190.5q0 120 85.5 209.5t211.5 89.5zM418 864q54 0 94.5 40t40.5 100q0 51 -36 85.5t-87 34.5q-54 0 -94.5 -39.5t-40.5 -99.5q0 -51 36 -86t87 -35zM129 0l985 1257
h176l-985 -1257h-176zM981 -20q-114 0 -191 77.5t-77 190.5q0 120 85.5 209.5t211.5 89.5q114 0 191 -77.5t77 -190.5q0 -120 -85.5 -209.5t-211.5 -89.5zM1001 393q-54 0 -94.5 -39.5t-40.5 -99.5q0 -51 36 -86t87 -35q54 0 94.5 39.5t40.5 99.5q0 51 -36 86t-87 35z
M1597 -20q-114 0 -191 77.5t-77 190.5q0 120 85.5 209.5t211.5 89.5q114 0 191 -77.5t77 -190.5q0 -120 -85.5 -209.5t-211.5 -89.5zM1618 393q-54 0 -94.5 -39.5t-40.5 -99.5q0 -51 36 -86t87 -35q54 0 94.5 39.5t40.5 99.5q0 51 -36 86t-87 35z" />
    <glyph glyph-name="guilsinglleft" unicode="&#x2039;" horiz-adv-x="483" 
d="M369 131h-193l-131 324l246 323h205l-254 -334z" />
    <glyph glyph-name="guilsinglright" unicode="&#x203a;" horiz-adv-x="483" 
d="M141 778h193l131 -323l-246 -324h-205l254 334z" />
    <glyph glyph-name="fraction" unicode="&#x2044;" horiz-adv-x="442" 
d="M899 1257l-1116 -1257h-182l1116 1257h182z" />
    <glyph glyph-name="Euro" unicode="&#x20ac;" horiz-adv-x="1015" 
d="M92 688l27 158h114q77 195 231.5 313.5t332.5 118.5q88 0 170 -28t135 -72l-37 -217q-119 131 -272 131q-111 0 -202 -66.5t-149 -179.5h402l-58 -158h-399q-13 -67 -16 -129h374l-59 -158h-303q23 -113 93 -174t179 -61q89 0 153.5 21.5t133.5 74.5l-41 -227
q-98 -55 -250 -55q-191 0 -314.5 112t-154.5 309h-141l29 158h104q3 72 14 129h-96z" />
    <glyph glyph-name="uni2117" unicode="&#x2117;" horiz-adv-x="1441" 
d="M1405 629q0 -184 -88 -334t-236 -232.5t-325 -82.5q-132 0 -251.5 49t-207.5 133.5t-139.5 206.5t-51.5 260t51.5 260t139.5 206.5t207.5 133.5t251.5 49q177 0 325 -82.5t236 -232.5t88 -334zM1309 629q0 157 -75 285t-201.5 199t-276.5 71t-276.5 -71t-201.5 -199
t-75 -285t75 -285t201.5 -199t276.5 -71t276.5 71t201.5 199t75 285zM831 489h-147v-235h-184v756h331q126 0 200.5 -68t74.5 -192t-75 -192.5t-200 -68.5zM924 750q0 45 -26.5 71.5t-78.5 26.5h-135v-197h135q52 0 78.5 27t26.5 72z" />
    <glyph glyph-name="trademark" unicode="&#x2122;" horiz-adv-x="1185" 
d="M154 1141l20 116h457l-21 -116h-159l-72 -404h-137l71 404h-159zM903 850h-12l-96 186l-54 -299h-133l92 520h121l107 -210l180 210h129l-92 -520h-133l53 299z" />
    <glyph glyph-name="uni2153" unicode="&#x2153;" horiz-adv-x="1472" 
d="M1360 1257l-1116 -1257h-183l1117 1257h182zM930 539l24 147h447v-4l-187 -272q50 -24 79.5 -68.5t29.5 -103.5q0 -111 -81.5 -179.5t-203.5 -68.5q-121 0 -200 57l28 158q32 -36 78 -56t94 -20q57 0 92 26t35 76q0 43 -37.5 67t-97.5 24h-24v4l147 213h-223zM551 1257
l-121 -686h-158l86 494l-198 -90l30 168l256 114h105z" />
    <glyph glyph-name="uni2154" unicode="&#x2154;" horiz-adv-x="1607" 
d="M1495 1257l-1116 -1257h-182l1116 1257h182zM428 727h207l-27 -145h-495v4l249 272q4 4 34 35.5t41 44.5t31 39.5t28 47.5t8 42q0 61 -72 61q-48 0 -109.5 -30t-111.5 -66l29 166q105 80 243 80q90 0 140.5 -47t50.5 -123q0 -74 -40.5 -139t-115.5 -146zM1065 539l25 147
h446v-4l-186 -272q49 -24 78.5 -68.5t29.5 -103.5q0 -112 -81.5 -180t-202.5 -68q-122 0 -201 57l28 158q32 -36 78.5 -56t94.5 -20q57 0 91.5 26t34.5 76q0 43 -37.5 67t-97.5 24h-24v4l147 213h-223z" />
    <glyph glyph-name="uni215B" unicode="&#x215b;" horiz-adv-x="1472" 
d="M1339 1257l-1116 -1257h-182l1116 1257h182zM530 1257l-120 -686h-158l86 494l-199 -90l31 168l256 114h104zM975 197q0 -34 24 -55t62 -21q43 0 72.5 24.5t29.5 65.5q0 34 -24 54t-62 20q-43 0 -72.5 -23.5t-29.5 -64.5zM1059 -8q-98 0 -172 48.5t-74 139.5
q0 68 40.5 117t98.5 63q-67 39 -67 127q0 97 71.5 154t173.5 57q95 0 159.5 -48.5t64.5 -133.5q0 -60 -33 -106.5t-86 -67.5q88 -45 88 -137q0 -101 -78 -157t-186 -56zM1200 504q0 30 -21.5 48.5t-54.5 18.5q-38 0 -64 -22.5t-26 -61.5q0 -30 21 -48.5t53 -18.5
q40 0 66 22.5t26 61.5z" />
    <glyph glyph-name="uni215C" unicode="&#x215c;" horiz-adv-x="1509" 
d="M1096 -8q-98 0 -172 48.5t-74 139.5q0 68 40.5 117t98.5 63q-67 39 -67 127q0 97 71.5 154t173.5 57q95 0 159.5 -48.5t64.5 -133.5q0 -60 -33 -106.5t-86 -67.5q88 -45 88 -137q0 -101 -78 -157t-186 -56zM1397 1257l-1116 -1257h-183l1116 1257h183zM215 1110l25 147
h446v-4l-186 -272q49 -24 78.5 -68.5t29.5 -103.5q0 -112 -81.5 -180t-202.5 -68q-122 0 -201 57l29 158q32 -36 78 -56t94 -20q57 0 92 26.5t35 76.5q0 43 -37.5 66.5t-98.5 23.5h-24v4l147 213h-223zM1012 197q0 -34 24 -55t62 -21q43 0 72.5 24.5t29.5 65.5q0 34 -24 54
t-62 20q-43 0 -72.5 -23.5t-29.5 -64.5zM1237 504q0 30 -21.5 48.5t-54.5 18.5q-38 0 -64 -22.5t-26 -61.5q0 -30 21 -48.5t53 -18.5q40 0 66 22.5t26 61.5z" />
    <glyph glyph-name="uni215D" unicode="&#x215d;" horiz-adv-x="1521" 
d="M1409 1257l-1116 -1257h-182l1116 1257h182zM1024 197q0 -34 24 -55t62 -21q43 0 72.5 24.5t29.5 65.5q0 34 -24 54t-62 20q-43 0 -72.5 -23.5t-29.5 -64.5zM1108 -8q-98 0 -172 48.5t-74 139.5q0 68 40.5 117t98.5 63q-67 39 -67 127q0 97 72 154t174 57q95 0 159 -48.5
t64 -133.5q0 -60 -33 -106.5t-86 -67.5q88 -45 88 -137q0 -101 -78 -157t-186 -56zM1249 504q0 30 -21 48.5t-54 18.5q-38 0 -64.5 -23t-26.5 -61q0 -30 21 -48.5t53 -18.5q40 0 66 22.5t26 61.5zM616 819q0 -117 -82.5 -187.5t-207.5 -70.5q-131 0 -199 55l27 156
q64 -74 174 -74q55 0 94 26t39 77q0 40 -30.5 61t-84.5 21q-86 0 -156 -27l72 401h397l-24 -147h-266l-17 -96q18 6 49 6q99 0 157 -53.5t58 -147.5z" />
    <glyph glyph-name="uni215E" unicode="&#x215e;" horiz-adv-x="1439" 
d="M1325 1257l-1116 -1257h-182l1116 1257h182zM750 1253l-431 -682h-176l342 539h-278l26 147h519zM942 197q0 -34 24 -55t62 -21q43 0 72.5 24.5t29.5 65.5q0 34 -24 54t-62 20q-43 0 -72.5 -23.5t-29.5 -64.5zM1026 -8q-98 0 -172 48.5t-74 139.5q0 68 41 117t99 63
q-68 40 -68 127q0 97 72 154t174 57q95 0 159 -48.5t64 -133.5q0 -60 -33 -106.5t-86 -67.5q88 -45 88 -137q0 -101 -78 -157t-186 -56zM1167 504q0 30 -21 48.5t-54 18.5q-38 0 -64.5 -23t-26.5 -61q0 -30 21 -48.5t53 -18.5q40 0 66 22.5t26 61.5z" />
    <glyph glyph-name="minus" unicode="&#x2212;" horiz-adv-x="1155" 
d="M162 530l28 164h852l-28 -164h-852z" />
    <glyph glyph-name="approxequal" unicode="&#x2248;" horiz-adv-x="1183" 
d="M199 639l26 156q127 75 242 75q71 0 186 -36.5t187 -36.5q116 0 250 77l-29 -155q-133 -78 -248 -78q-71 0 -186 38t-187 38q-113 0 -241 -78zM147 356l27 154q130 78 244 78q72 0 187 -38t186 -38q116 0 247 78l-26 -156q-133 -76 -250 -76q-72 0 -186 37t-185 37
q-112 0 -244 -76z" />
    <glyph glyph-name="notequal" unicode="&#x2260;" horiz-adv-x="1183" 
d="M207 690l26 150h506l172 196h148l-172 -196h196l-26 -150h-299l-135 -155h407l-26 -150h-512l-168 -195h-148l168 195h-190l26 150h295l135 155h-403z" />
    <glyph glyph-name="lessequal" unicode="&#x2264;" horiz-adv-x="927" 
d="M168 629l35 207l696 258l-35 -187l-512 -180l449 -182l-29 -172zM82 150l29 161h649l-29 -161h-649z" />
    <glyph glyph-name="greaterequal" unicode="&#x2265;" horiz-adv-x="927" 
d="M760 311l-29 -161h-649l29 161h649zM852 838l-35 -207l-696 -258l35 186l512 180l-449 183l29 172z" />
    <glyph glyph-name="fi" unicode="&#xfb01;" horiz-adv-x="1107" 
d="M1065 909l-160 -909h-205l160 909h205zM1139 1184q0 -52 -37.5 -88.5t-89.5 -36.5t-89.5 36.5t-37.5 88.5t37.5 88.5t89.5 36.5t89.5 -36.5t37.5 -88.5zM786 1327l-32 -178q-36 25 -88 25q-67 0 -109.5 -35.5t-54.5 -104.5l-23 -125h199l-31 -170h-198l-130 -739h-200
l129 739h-158l31 170h158l24 142q25 143 122.5 222t229.5 79q76 0 131 -25z" />
    <glyph glyph-name="fl" unicode="&#xfb02;" horiz-adv-x="1107" 
d="M1139 1331l-234 -1331h-205l234 1331h205zM786 1327l-32 -178q-36 25 -88 25q-67 0 -109.5 -35.5t-54.5 -104.5l-23 -125h199l-31 -170h-198l-130 -739h-200l129 739h-158l31 170h158l24 142q25 143 122.5 222t229.5 79q76 0 131 -25z" />
    <glyph glyph-name="i.dot" horiz-adv-x="458" 
d="M416 909l-160 -909h-205l160 909h205zM489 1184q0 -52 -37.5 -88.5t-89.5 -36.5q-51 0 -88.5 36.5t-37.5 88.5t37.5 88.5t88.5 36.5q52 0 89.5 -36.5t37.5 -88.5z" />
    <glyph glyph-name="space_uni0326" 
d="M381 -444l92 114q-39 11 -62.5 41.5t-23.5 73.5q0 55 36 90t89 35q56 0 91.5 -36t35.5 -97q0 -70 -68 -150l-57 -71h-133z" />
    <glyph glyph-name="space_uni0326.alt" 
d="M639 1425l-102 -127q39 -11 62.5 -41t23.5 -73q0 -55 -36 -90t-89 -35q-56 0 -91.5 35.5t-35.5 97.5q0 71 67 149l68 84h133z" />
    <glyph glyph-name="space_dotbelowcomb" 
d="M639 -215q0 -52 -37.5 -88.5t-89.5 -36.5t-89.5 36.5t-37.5 88.5t37.5 88.5t89.5 36.5t89.5 -36.5t37.5 -88.5z" />
    <glyph glyph-name="caron.Slovak" 
d="M526 989h-168l156 342h168z" />
    <glyph glyph-name="cedilla.alt" 
d="M504 -389h-201l197 280h211z" />
    <glyph glyph-name="grave.cap" 
d="M688 1374h-188l-154 240h225z" />
    <glyph glyph-name="acute.cap" 
d="M502 1374h-209l199 240h245z" />
    <glyph glyph-name="circumflex.cap" 
d="M651 1628l148 -254h-174l-84 123l-125 -123h-191l238 254h188z" />
    <glyph glyph-name="caron.cap" 
d="M373 1374l-148 254h174l84 -123l125 123h191l-238 -254h-188z" />
    <glyph glyph-name="tilde.cap" 
d="M686 1636h131q-21 -123 -77.5 -195.5t-139.5 -72.5q-30 0 -57 16.5t-44 37t-38.5 37t-40.5 16.5q-63 0 -82 -101h-131q22 124 78 196t139 72q30 0 58 -16.5t44.5 -36.5t37.5 -36.5t40 -16.5q63 0 82 100z" />
    <glyph glyph-name="macron.cap" 
d="M266 1374l29 162h461l-29 -162h-461z" />
    <glyph glyph-name="breve.cap" 
d="M477 1366q-114 0 -179 68t-44 186h149q-9 -52 16.5 -78t76.5 -26q53 0 87.5 26t43.5 78h149q-22 -124 -97.5 -189t-201.5 -65z" />
    <glyph glyph-name="dotaccent.cap" 
d="M639 1491q0 -52 -37.5 -88.5t-89.5 -36.5t-89.5 36.5t-37.5 88.5t37.5 88.5t89.5 36.5t89.5 -36.5t37.5 -88.5z" />
    <glyph glyph-name="dieresis.cap" 
d="M233 1491q0 52 35 86.5t86 34.5q50 0 84.5 -34.5t34.5 -86.5q0 -49 -34.5 -84t-84.5 -35q-51 0 -86 34.5t-35 84.5zM549 1491q0 52 34.5 86.5t84.5 34.5t85 -34.5t35 -86.5q0 -49 -35 -84t-85 -35t-84.5 35t-34.5 84z" />
    <glyph glyph-name="ring.cap" 
d="M508 1430q37 0 63.5 25t26.5 65q0 35 -24 58.5t-58 23.5q-37 0 -63.5 -25.5t-26.5 -65.5q0 -35 24 -58t58 -23zM504 1329q-78 0 -130 51t-52 127q0 79 57.5 137t140.5 58q78 0 130 -51t52 -127q0 -79 -57.5 -137t-140.5 -58z" />
    <glyph glyph-name="hungarumlaut.cap" 
d="M373 1374h-178l163 240h183zM662 1374h-179l164 240h182z" />
    <glyph glyph-name="exclamdown.cap" horiz-adv-x="409" 
d="M356 862l-106 -862h-246l209 862h143zM459 1130q0 -60 -40.5 -100.5t-99.5 -40.5t-99 40.5t-40 100.5t40 101t99 41t99.5 -41t40.5 -101z" />
    <glyph glyph-name="questiondown.cap" horiz-adv-x="847" 
d="M436 584q-15 -15 -51.5 -46t-59 -53t-49 -53t-40 -64t-13.5 -67q0 -125 164 -125q193 0 395 174l-37 -217q-78 -69 -185.5 -111t-211.5 -42q-161 0 -249.5 80.5t-88.5 218.5q0 51 15.5 100.5t38 87.5t60.5 80.5t69.5 71t78.5 67.5q70 59 97 99t32 77h207
q-19 -85 -56 -145t-116 -133zM690 1130q0 -60 -40 -100.5t-99 -40.5t-99 40.5t-40 100.5t40 101t99 41t99 -41t40 -101z" />
    <glyph glyph-name="guilsinglleft.cap" horiz-adv-x="483" 
d="M418 295h-193l-131 323l246 324h205l-254 -334z" />
    <glyph glyph-name="guilsinglright.cap" horiz-adv-x="483" 
d="M166 942h192l131 -324l-245 -323h-205l254 334z" />
    <glyph glyph-name="guillemotleft.cap" horiz-adv-x="813" 
d="M408 295h-183l-131 323l246 324h195l-254 -334zM745 295h-182l-131 323l246 324h194l-254 -334z" />
    <glyph glyph-name="guillemotright.cap" horiz-adv-x="813" 
d="M504 942h182l131 -324l-246 -323h-194l254 334zM166 942h182l131 -324l-246 -323h-194l254 334z" />
    <glyph glyph-name="slash.cap" horiz-adv-x="731" 
d="M-94 -131l770 1503h225l-772 -1503h-223z" />
    <glyph glyph-name="backslash.cap" horiz-adv-x="731" 
d="M403 1372l244 -1503h-194l-244 1503h194z" />
    <glyph glyph-name="bar.cap" horiz-adv-x="475" 
d="M45 -131l264 1503h197l-264 -1503h-197z" />
    <glyph glyph-name="periodcentered.cap" horiz-adv-x="409" 
d="M92 621q0 60 40 100.5t99 40.5t99.5 -40.5t40.5 -100.5t-40.5 -101t-99.5 -41t-99 41t-40 101z" />
    <glyph glyph-name="bullet.cap" horiz-adv-x="720" 
d="M680 618q0 -127 -85 -209.5t-210 -82.5t-210 82.5t-85 209.5q0 129 85 212t210 83t210 -83t85 -212z" />
    <glyph glyph-name="hyphen.cap" horiz-adv-x="657" 
d="M96 526l33 187h494l-33 -187h-494z" />
    <glyph glyph-name="endash.cap" horiz-adv-x="972" 
d="M96 539l29 161h809l-29 -161h-809z" />
    <glyph glyph-name="emdash.cap" horiz-adv-x="1732" 
d="M96 539l29 161h1569l-29 -161h-1569z" />
    <glyph glyph-name="parenleft.cap" horiz-adv-x="651" 
d="M72 489q0 318 186 557t510 326l-39 -221q-187 -46 -320 -233.5t-133 -428.5q0 -156 72.5 -262t194.5 -137l-39 -221q-201 65 -316.5 223.5t-115.5 396.5z" />
    <glyph glyph-name="parenright.cap" horiz-adv-x="651" 
d="M651 752q0 -318 -186 -557t-510 -326l39 221q121 30 224 123t165.5 236t62.5 303q0 156 -72 262t-194 137l39 221q201 -65 316.5 -223.5t115.5 -396.5z" />
    <glyph glyph-name="bracketleft.cap" horiz-adv-x="645" 
d="M463 1188l-199 -1135h273l-33 -184h-465l264 1503h465l-33 -184h-272z" />
    <glyph glyph-name="bracketright.cap" horiz-adv-x="645" 
d="M260 53l199 1135h-273l33 184h465l-264 -1503h-465l33 184h272z" />
    <glyph glyph-name="braceleft.cap" horiz-adv-x="704" 
d="M406 451l-60 -338q-9 -60 49 -60h201l-33 -184h-196q-123 0 -180.5 73t-36.5 193l57 332q9 59 -49 59h-103l35 189h103q60 0 69 59l57 332q22 118 108.5 192t203.5 74h196l-32 -184h-201q-61 0 -70 -60l-59 -337q-20 -110 -127 -170q88 -59 68 -170z" />
    <glyph glyph-name="braceright.cap" horiz-adv-x="704" 
d="M377 791l59 337q9 60 -49 60h-201l33 184h197q123 0 180.5 -73t36.5 -193l-58 -332q-9 -59 50 -59h102l-35 -189h-102q-61 0 -70 -59l-57 -332q-22 -119 -108 -192.5t-203 -73.5h-197l33 184h200q61 0 70 60l59 338q20 110 127 170q-87 59 -67 170z" />
    <glyph glyph-name="at.cap" horiz-adv-x="1585" 
d="M1219 971l-109 -473q-23 -103 66 -103q100 0 166.5 104t66.5 277q0 201 -140 317.5t-364 116.5q-286 0 -470.5 -190t-184.5 -492q0 -113 36.5 -203t94.5 -146t137 -93.5t158 -52.5t162 -15q247 0 483 101l-27 -154q-83 -41 -203 -66.5t-253 -25.5q-119 0 -227.5 23.5
t-205 75t-167 127t-111.5 185.5t-41 244q0 168 61 320.5t167.5 265t260.5 178.5t330 66q297 0 479.5 -163.5t182.5 -418.5q0 -127 -37.5 -229t-99.5 -164t-138 -94.5t-157 -32.5q-72 0 -130 29.5t-87 81.5q-28 -50 -86 -80.5t-115 -30.5q-118 0 -189 79.5t-71 201.5
q0 118 51 222t143.5 168t202.5 64q59 0 104.5 -22t65.5 -54l16 56h179zM930 516l55 227q-11 37 -45 60.5t-82 23.5q-92 0 -152.5 -82.5t-60.5 -189.5q0 -60 32.5 -96.5t92.5 -36.5q93 0 160 94z" />
    <glyph glyph-name="Euro.lt" horiz-adv-x="1064" 
d="M94 688l27 158h115q77 195 231 313.5t332 118.5q88 0 170 -28t135 -72l-37 -217q-119 131 -272 131q-109 0 -197.5 -66.5t-144.5 -179.5h393l-58 -158h-389q-13 -67 -16 -129h365l-60 -158h-295q23 -115 90 -175t174 -60q89 0 153.5 21.5t133.5 74.5l-41 -227
q-98 -55 -250 -55q-191 0 -314.5 112t-154.5 309h-141l29 158h104q3 72 14 129h-96z" />
    <glyph glyph-name="dollar.lt" horiz-adv-x="1064" 
d="M55 133l39 213q170 -156 369 -156q118 0 192 44t74 135q0 54 -35 85.5t-110 63.5l-166 70q-110 46 -173 112t-63 172q0 84 33.5 153t90 114.5t126 73t146.5 34.5l32 191h185l-35 -199q147 -26 250 -102l-37 -201q-159 133 -344 133q-104 0 -173 -40.5t-69 -123.5
q0 -53 31 -80t106 -59l187 -78q225 -97 225 -282q0 -170 -109 -271.5t-282 -122.5l-37 -200h-184l36 202q-187 24 -305 119z" />
    <glyph glyph-name="cent.lt" horiz-adv-x="1064" 
d="M354 -182l35 205q-123 39 -193.5 141.5t-70.5 253.5q0 126 51.5 238t149.5 190t225 98l35 186h184l-35 -192q103 -23 164 -78l-37 -203q-97 111 -229 111q-130 0 -216.5 -96.5t-86.5 -253.5q0 -107 64.5 -171.5t164.5 -64.5q142 0 236 86l-35 -205q-69 -54 -191 -63
l-30 -182h-185z" />
    <glyph glyph-name="sterling.lt" horiz-adv-x="1064" 
d="M133 537l29 165h157l25 138q36 202 167 320t310 118q168 0 244 -59l-31 -185q-88 64 -213 64q-116 0 -187.5 -70t-94.5 -203l-23 -123h289l-29 -165h-289l-32 -181q-21 -129 -76 -186h536l-28 -170h-848l29 170h116q54 72 74 186l31 181h-156z" />
    <glyph glyph-name="yen.lt" horiz-adv-x="1064" 
d="M57 256l27 158h326l22 129h-326l29 157h238l-211 557h205l194 -546l383 546h217l-411 -557h239l-28 -157h-326l-23 -129h326l-27 -158h-327l-43 -256h-203l43 256h-324z" />
    <glyph glyph-name="florin.lt" horiz-adv-x="1064" 
d="M293 547l31 172h174l77 258q43 145 143 223t232 78q87 0 146 -25l-33 -180q-53 29 -113 29q-127 0 -170 -139l-73 -244h180l-31 -172h-201l-184 -615q-44 -148 -134.5 -224.5t-219.5 -76.5q-87 0 -146 25l33 180q53 -29 113 -29t92.5 31.5t56.5 108.5l180 600h-153z" />
    <glyph glyph-name="zero.lt" horiz-adv-x="1064" 
d="M477 172q84 0 153 56t111 146.5t65 198.5t23 218q0 135 -50 214.5t-150 79.5q-84 0 -153 -56t-111.5 -146t-65.5 -198t-23 -218q0 -135 50.5 -215t150.5 -80zM477 -20q-193 0 -300 131.5t-107 355.5q0 217 72.5 403t201.5 297t285 111q193 0 300 -131.5t107 -355.5
q0 -216 -72.5 -402t-201.5 -297.5t-285 -111.5z" />
    <glyph glyph-name="one.lt" horiz-adv-x="1064" 
d="M70 0l32 186h334l144 815l-365 -170l39 216l453 210h124l-188 -1071h301l-33 -186h-841z" />
    <glyph glyph-name="two.lt" horiz-adv-x="1064" 
d="M391 186h498l-33 -186h-887v8l461 469q18 18 71.5 70t86.5 88t73.5 88.5t61 105.5t20.5 105q0 68 -47 108.5t-133 40.5q-182 0 -401 -182l39 227q78 68 189.5 109t219.5 41q162 0 253 -84t91 -219q0 -53 -12.5 -105t-39 -101.5t-53.5 -91t-70 -91t-74.5 -82t-79.5 -81.5
l-13 -13z" />
    <glyph glyph-name="three.lt" horiz-adv-x="1064" 
d="M248 1069l33 188h761v-6l-376 -508q108 -36 171.5 -122t63.5 -209q0 -128 -69.5 -228t-181 -152t-240.5 -52q-212 0 -355 110l39 213q56 -65 141 -102t175 -37q126 0 210.5 61t84.5 187q0 97 -88 156t-222 59h-20v6l325 436h-452z" />
    <glyph glyph-name="four.lt" horiz-adv-x="1064" 
d="M848 1257l-518 -819h297l53 295h197l-54 -295h187l-31 -176h-186l-45 -262h-197l45 262h-592v8l625 987h219z" />
    <glyph glyph-name="five.lt" horiz-adv-x="1064" 
d="M924 442q0 -198 -149 -330t-367 -132q-228 0 -349 100l41 217q115 -133 308 -133q82 0 152.5 28t117.5 88.5t47 143.5q0 97 -69 149t-183 52q-80 0 -143 -13.5t-142 -44.5l125 690h699l-33 -188h-526l-54 -283q78 19 129 19q178 0 287 -94t109 -269z" />
    <glyph glyph-name="six.lt" horiz-adv-x="1064" 
d="M508 -20q-180 0 -295 114.5t-115 280.5q0 118 50 227t169 250l340 405h240l-369 -426q33 11 64 11q166 0 274.5 -111.5t108.5 -275.5q0 -211 -135.5 -343t-331.5 -132zM508 160q118 0 197 78.5t79 199.5q0 99 -62.5 164.5t-156.5 65.5q-118 0 -197 -79t-79 -200
q0 -99 62.5 -164t156.5 -65z" />
    <glyph glyph-name="seven.lt" horiz-adv-x="1064" 
d="M1116 1251l-790 -1251h-224l678 1069h-610l33 188h913v-6z" />
    <glyph glyph-name="eight.lt" horiz-adv-x="1064" 
d="M279 336q0 -84 59 -134t154 -50q106 0 178.5 61.5t72.5 169.5q0 84 -59 134t-154 50q-106 0 -178.5 -61.5t-72.5 -169.5zM483 -20q-77 0 -149 21t-132 61.5t-96 106t-36 146.5q0 140 88 237t204 116q-67 32 -107 94.5t-40 148.5q0 163 121.5 265t296.5 102
q106 0 191.5 -36t137.5 -108t52 -169q0 -122 -72 -209t-176 -117q81 -33 131.5 -102t50.5 -164q0 -96 -40 -173t-107 -124t-148.5 -71.5t-169.5 -24.5zM805 950q0 69 -50 113.5t-122 44.5q-91 0 -153 -56.5t-62 -152.5q0 -69 50 -113.5t122 -44.5q91 0 153 56.5t62 152.5z
" />
    <glyph glyph-name="nine.lt" horiz-adv-x="1064" 
d="M594 1278q180 0 295 -114.5t115 -280.5q0 -118 -50.5 -226.5t-169.5 -250.5l-340 -406h-239l368 426q-30 -10 -63 -10q-166 0 -274.5 111.5t-108.5 275.5q0 211 135.5 343t331.5 132zM594 1098q-118 0 -197.5 -79t-79.5 -200q0 -99 63 -164t157 -65q118 0 197 78.5
t79 199.5q0 99 -62.5 164.5t-156.5 65.5z" />
    <glyph glyph-name="period.tab" horiz-adv-x="532" 
d="M70 127q0 60 40 100.5t99 40.5t99 -40.5t40 -100.5t-40 -100.5t-99 -40.5t-99 40.5t-40 100.5z" />
    <glyph glyph-name="comma.tab" horiz-adv-x="532" 
d="M23 -231l186 231q-42 11 -68 45t-26 82q0 59 40 98t99 39q60 0 99.5 -39t39.5 -108q0 -72 -74 -166l-149 -182h-147z" />
    <glyph glyph-name="colon.tab" horiz-adv-x="532" 
d="M70 127q0 60 40 100.5t99 40.5t99 -40.5t40 -100.5t-40 -100.5t-99 -40.5t-99 40.5t-40 100.5zM176 741q0 60 40 101t99 41t99.5 -41t40.5 -101t-40.5 -100.5t-99.5 -40.5t-99 40.5t-40 100.5z" />
    <glyph glyph-name="semicolon.tab" horiz-adv-x="532" 
d="M23 -231l186 231q-42 11 -68 45t-26 82q0 59 40 98t99 39q60 0 99.5 -39t39.5 -108q0 -72 -74 -166l-149 -182h-147zM176 741q0 60 40 101t99 41t99.5 -41t40.5 -101t-40.5 -100.5t-99.5 -40.5t-99 40.5t-40 100.5z" />
    <glyph glyph-name="space.tab" horiz-adv-x="532" 
 />
    <glyph glyph-name="percent.lt" horiz-adv-x="1064" 
d="M360 1278q99 0 167.5 -68.5t68.5 -167.5q0 -106 -74.5 -184t-185.5 -78q-99 0 -167.5 68.5t-68.5 167.5q0 105 75 183.5t185 78.5zM342 915q47 0 83 34.5t36 86.5q0 44 -31.5 75.5t-75.5 31.5q-47 0 -82.5 -34.5t-35.5 -86.5q0 -44 31 -75.5t75 -31.5zM731 -20
q-99 0 -167 68t-68 167q0 106 74.5 184t185.5 78q99 0 167 -68t68 -167q0 -105 -75 -183.5t-185 -78.5zM750 342q-47 0 -83 -34.5t-36 -86.5q0 -44 31 -75t75 -31q47 0 83 34.5t36 86.5q0 44 -31 75t-75 31zM1126 1257l-985 -1257h-176l985 1257h176z" />
    <glyph glyph-name="perthousand.lt" horiz-adv-x="1638" 
d="M393 1278q99 0 167.5 -68.5t68.5 -167.5q0 -106 -74.5 -184t-185.5 -78q-99 0 -167.5 68.5t-68.5 167.5q0 105 75 183.5t185 78.5zM375 915q47 0 83 34.5t36 86.5q0 44 -31.5 75.5t-75.5 31.5q-47 0 -83 -34.5t-36 -86.5q0 -44 31.5 -75.5t75.5 -31.5zM764 -20
q-100 0 -168 68t-68 167q0 106 74.5 184t185.5 78q100 0 168 -68.5t68 -166.5q0 -105 -75 -183.5t-185 -78.5zM782 342q-47 0 -82.5 -34.5t-35.5 -86.5q0 -44 31 -75t75 -31q47 0 83 34.5t36 86.5q0 44 -31.5 75t-75.5 31zM1159 1257l-985 -1257h-176l985 1257h176z
M1319 -20q-99 0 -167.5 68t-68.5 167q0 106 74.5 184t185.5 78q99 0 167.5 -68.5t68.5 -166.5q0 -105 -75 -183.5t-185 -78.5zM1337 342q-47 0 -82.5 -34.5t-35.5 -86.5q0 -44 31 -75t75 -31q47 0 83 34.5t36 86.5q0 44 -31.5 75t-75.5 31z" />
    <glyph glyph-name="plus.lt" horiz-adv-x="1064" 
d="M547 1038h164l-62 -344h344l-28 -164h-344l-60 -342h-164l60 342h-344l28 164h344z" />
    <glyph glyph-name="minus.lt" horiz-adv-x="1064" 
d="M113 530l28 164h852l-28 -164h-852z" />
    <glyph glyph-name="multiply.lt" horiz-adv-x="1064" 
d="M446 610l-208 248l124 107l203 -250l299 254l92 -113l-297 -252l207 -248l-125 -108l-206 250l-295 -252l-93 114z" />
    <glyph glyph-name="divide.lt" horiz-adv-x="1064" 
d="M113 530l28 164h852l-28 -164h-852zM487 956q0 54 37.5 92.5t91.5 38.5t93 -38.5t39 -92.5t-39 -91.5t-93 -37.5t-91.5 37.5t-37.5 91.5zM365 268q0 54 37.5 91.5t91.5 37.5t92.5 -37.5t38.5 -91.5t-38.5 -92.5t-92.5 -38.5t-91.5 38.5t-37.5 92.5z" />
    <glyph glyph-name="equal.lt" horiz-adv-x="1064" 
d="M88 385l27 152h850l-27 -152h-850zM141 688l27 156h850l-27 -156h-850z" />
    <glyph glyph-name="less.lt" horiz-adv-x="1064" 
d="M182 500l37 219l703 311l-33 -194l-539 -234l457 -231l-33 -185z" />
    <glyph glyph-name="greater.lt" horiz-adv-x="1064" 
d="M922 717l-37 -219l-703 -312l33 195l539 233l-457 232l33 184z" />
    <glyph glyph-name="plusminus.lt" horiz-adv-x="1064" 
d="M582 1104h161l-49 -270h336l-29 -162h-335l-48 -271h-161l47 271h-336l29 162h335zM76 150l28 161h834l-29 -161h-833z" />
    <glyph glyph-name="lessequal.lt" horiz-adv-x="1064" 
d="M229 629l35 207l697 258l-35 -187l-512 -180l448 -182l-28 -172zM143 150l29 161h649l-28 -161h-650z" />
    <glyph glyph-name="greaterequal.lt" horiz-adv-x="1064" 
d="M846 311l-29 -161h-649l29 161h649zM938 838l-35 -207l-696 -258l35 186l512 180l-449 183l29 172z" />
    <glyph glyph-name="notequal.lt" horiz-adv-x="1064" 
d="M141 690l27 150h506l172 196h147l-172 -196h197l-27 -150h-299l-135 -155h408l-27 -150h-512l-168 -195h-147l168 195h-191l27 150h295l135 155h-404z" />
    <glyph glyph-name="approxequal.lt" horiz-adv-x="1064" 
d="M133 639l27 156q127 75 241 75q71 0 186 -36.5t187 -36.5q116 0 250 77l-29 -155q-133 -78 -247 -78q-72 0 -187 38t-186 38q-114 0 -242 -78zM82 356l27 154q130 78 243 78q71 0 186.5 -38t186.5 -38q117 0 248 78l-27 -156q-133 -76 -250 -76q-72 0 -185 37t-185 37
q-112 0 -244 -76z" />
    </font>
</defs>
</svg>
