<?xml version="1.0" standalone="no"?>
<!DOCTYPE svg PUBLIC "-//W3C//DTD SVG 1.1//EN" "http://www.w3.org/Graphics/SVG/1.1/DTD/svg11.dtd" >
<svg xmlns="http://www.w3.org/2000/svg" xmlns:xlink="http://www.w3.org/1999/xlink" version="1.1">
<metadata>
Created by FontForge 20170731 at Wed Mar 10 14:29:49 2021
 By Aleksey,,,
(c) 2011 Klim Type Foundry. All rights reserved.
</metadata>
<defs>
<font id="Metric-SemiboldItalic" horiz-adv-x="1024" >
  <font-face 
    font-family="Metric Semibold"
    font-weight="600"
    font-style="italic"
    font-stretch="normal"
    units-per-em="2048"
    panose-1="2 11 7 3 3 2 2 13 2 3"
    ascent="1331"
    descent="-717"
    x-height="915"
    cap-height="1257"
    bbox="-387 -461 1933 1855"
    underline-thickness="61"
    underline-position="-204"
    slope="-10"
    unicode-range="U+0020-FB02"
  />
<missing-glyph horiz-adv-x="1245" 
 />
    <glyph glyph-name="f_f" unicode="ff" horiz-adv-x="1263" 
d="M1401 1325l-39 -213q-33 23 -82 23q-128 0 -152 -127l-16 -93h191l-37 -204h-191l-123 -711h-252l125 711h-346l-123 -711h-252l125 711h-149l37 204h149l17 97q27 157 128.5 241t252.5 84q84 0 137 -24l-37 -211q-36 22 -82 22q-128 0 -152 -127l-14 -82h346l19 109
q27 157 129.5 241.5t253.5 84.5q79 0 137 -25z" />
    <glyph glyph-name=".notdef" horiz-adv-x="1245" 
 />
    <glyph glyph-name=".null" horiz-adv-x="0" 
 />
    <glyph glyph-name="nonmarkingreturn" horiz-adv-x="682" 
 />
    <glyph glyph-name="space" unicode=" " horiz-adv-x="434" 
 />
    <glyph glyph-name="exclam" unicode="!" horiz-adv-x="444" 
d="M129 406l94 851h307l-215 -851h-186zM25 143q0 67 46.5 113.5t114.5 46.5t115 -46.5t47 -113.5q0 -66 -47 -111.5t-115 -45.5t-114.5 45.5t-46.5 111.5z" />
    <glyph glyph-name="quotedbl" unicode="&#x22;" horiz-adv-x="669" 
d="M123 750l90 507h207l-92 -507h-205zM430 750l90 507h207l-92 -507h-205z" />
    <glyph glyph-name="numbersign" unicode="#" horiz-adv-x="1290" 
d="M1171 502l-36 -176h-232l-98 -326h-201l98 326h-243l-99 -326h-200l98 326h-176l39 176h190l76 254h-213l37 176h229l101 325h202l-100 -325h244l100 325h199l-101 -325h179l-39 -176h-193l-76 -254h215zM590 756l-78 -254h244l78 254h-244z" />
    <glyph glyph-name="dollar" unicode="$" horiz-adv-x="985" 
d="M14 129l43 248q80 -69 177 -110.5t198 -41.5q106 0 171 36t65 114q0 44 -30 70t-91 51l-170 65q-116 46 -181 115t-65 178q0 86 33 157t89.5 118.5t126.5 76.5t150 39l33 189h219l-34 -199q136 -25 241 -96l-45 -238q-158 133 -346 133q-93 0 -153 -33.5t-60 -101.5
q0 -44 26.5 -67t90.5 -50l186 -71q236 -99 236 -293q0 -89 -30.5 -161.5t-85 -121t-124 -79t-152.5 -42.5l-36 -196h-217l36 198q-180 24 -301 113z" />
    <glyph glyph-name="percent" unicode="%" horiz-adv-x="1402" 
d="M436 1278q117 0 197 -80.5t80 -196.5q0 -122 -87.5 -213.5t-215.5 -91.5q-117 0 -197 80.5t-80 196.5q0 122 87.5 213.5t215.5 91.5zM418 866q51 0 88 36.5t37 92.5q0 47 -34 80t-81 33q-49 0 -87 -37t-38 -92q0 -47 34 -80t81 -33zM135 0l983 1257h182l-983 -1257h-182z
M1001 -20q-117 0 -196.5 80t-79.5 196q0 122 87 213.5t214 91.5q118 0 197.5 -80t79.5 -196q0 -122 -87 -213.5t-215 -91.5zM1020 391q-51 0 -88 -36.5t-37 -92.5q0 -47 33.5 -79.5t79.5 -32.5q51 0 89 37t38 92q0 47 -34.5 79.5t-80.5 32.5z" />
    <glyph glyph-name="ampersand" unicode="&#x26;" horiz-adv-x="1191" 
d="M678 1278q192 0 297 -92l-41 -232q-113 113 -250 113q-77 0 -123.5 -42.5t-46.5 -115.5q0 -67 66 -153l235 -324q47 83 72 201h227q-37 -206 -172 -377l188 -256h-288l-70 92q-162 -112 -342 -112q-186 0 -289.5 93.5t-103.5 256.5q0 125 75.5 223.5t204.5 153.5
q-51 88 -51 188q0 169 119 276t293 107zM444 182q114 0 211 66l-223 297q-70 -20 -113 -76t-43 -129q0 -70 47 -114t121 -44z" />
    <glyph glyph-name="quotesingle" unicode="'" horiz-adv-x="372" 
d="M123 750l90 507h217l-90 -507h-217z" />
    <glyph glyph-name="parenleft" unicode="(" horiz-adv-x="665" 
d="M66 457q0 321 190.5 560.5t517.5 313.5l-45 -256q-176 -48 -298 -217.5t-122 -400.5q0 -146 66.5 -243t179.5 -130l-45 -256q-209 63 -326.5 224t-117.5 405z" />
    <glyph glyph-name="parenright" unicode=")" horiz-adv-x="665" 
d="M647 702q0 -321 -190.5 -560.5t-517.5 -313.5l45 256q176 48 297.5 217.5t121.5 400.5q0 146 -66 243t-179 130l45 256q209 -63 326.5 -224t117.5 -405z" />
    <glyph glyph-name="asterisk" unicode="*" horiz-adv-x="708" 
d="M455 705l-129 20l32 193l-182 -66l-43 123l180 65l-149 125l84 101l149 -125l31 190l131 -20l-35 -193l183 66l45 -121l-183 -68l150 -125l-84 -100l-148 125z" />
    <glyph glyph-name="plus" unicode="+" horiz-adv-x="1146" 
d="M580 1055h196l-61 -344h344l-35 -197h-344l-59 -342h-197l59 342h-344l35 197h344z" />
    <glyph glyph-name="comma" unicode="," horiz-adv-x="430" 
d="M-72 -223l183 233q-46 12 -74.5 49.5t-28.5 92.5q0 68 46 112.5t114 44.5q69 0 115.5 -45.5t46.5 -124.5q0 -80 -80 -180l-148 -182h-174z" />
    <glyph glyph-name="hyphen" unicode="-" horiz-adv-x="649" 
d="M76 426l39 221h493l-39 -221h-493z" />
    <glyph glyph-name="period" unicode="." horiz-adv-x="430" 
d="M8 150q0 69 46 115t114 46t115 -46t47 -115t-47 -116.5t-115 -47.5q-67 0 -113.5 47.5t-46.5 116.5z" />
    <glyph glyph-name="slash" unicode="/" horiz-adv-x="763" 
d="M-102 -172l770 1503h243l-772 -1503h-241z" />
    <glyph glyph-name="zero" unicode="0" horiz-adv-x="1116" 
d="M522 213q76 0 138 50t100.5 131.5t59 178.5t20.5 197q0 125 -46 199.5t-139 74.5q-75 0 -137 -50t-100.5 -131.5t-59 -178.5t-20.5 -197q0 -124 46 -199t138 -75zM518 -20q-203 0 -316.5 139t-113.5 368q0 159 44 304t119.5 252.5t183 171t227.5 63.5q203 0 315.5 -139
t112.5 -369q0 -211 -74 -392t-206.5 -289.5t-291.5 -108.5z" />
    <glyph glyph-name="one" unicode="1" horiz-adv-x="706" 
d="M715 1257l-221 -1257h-256l168 954l-320 -147l45 262l418 188h166z" />
    <glyph glyph-name="two" unicode="2" horiz-adv-x="935" 
d="M442 227h418l-41 -227h-874v8l454 484q15 16 55.5 57.5t63 65.5t56 65.5t52 73.5t32.5 73t14 78q0 61 -39 97t-113 36q-171 0 -391 -176l47 268q80 66 193.5 107t230.5 41q160 0 250 -85t90 -222q0 -62 -19 -124.5t-44 -111.5t-72 -110t-80.5 -99t-91.5 -100z" />
    <glyph glyph-name="three" unicode="3" horiz-adv-x="915" 
d="M168 1028l41 229h782v-6l-354 -503q98 -39 155.5 -123t57.5 -201q0 -132 -69.5 -234.5t-183 -156t-249.5 -53.5q-216 0 -356 108l45 252q58 -66 140.5 -102.5t170.5 -36.5q113 0 185.5 54t72.5 163q0 89 -75.5 140.5t-196.5 51.5q-2 0 -13.5 -1t-19.5 -1v6l293 414h-426z
" />
    <glyph glyph-name="four" unicode="4" horiz-adv-x="1073" 
d="M877 1257l-488 -788h250l47 258h234l-48 -258h170l-38 -215h-168l-43 -254h-234l43 254h-606v8l616 995h265z" />
    <glyph glyph-name="five" unicode="5" horiz-adv-x="933" 
d="M881 449q0 -137 -70 -245t-188.5 -166t-262.5 -58q-230 0 -354 102l45 250q114 -133 311 -133q111 0 193 58t82 165q0 87 -60.5 131.5t-166.5 44.5q-145 0 -281 -53l127 712h707l-41 -229h-500l-39 -225q34 10 106 10q178 0 285 -95.5t107 -268.5z" />
    <glyph glyph-name="six" unicode="6" horiz-adv-x="1013" 
d="M487 -20q-94 0 -174.5 32.5t-135 88t-85.5 129t-31 155.5q0 117 49 225t164 246l336 401h295l-352 -405q21 6 47 6q164 -7 269.5 -118t105.5 -271q0 -107 -39 -199t-105 -155t-155.5 -99t-188.5 -36zM494 203q103 0 173 70.5t70 175.5q0 89 -55 145.5t-139 56.5
q-103 0 -173.5 -69.5t-70.5 -175.5q0 -87 56 -145t139 -58z" />
    <glyph glyph-name="seven" unicode="7" horiz-adv-x="950" 
d="M1079 1251l-776 -1251h-278l641 1028h-533l39 229h907v-6z" />
    <glyph glyph-name="eight" unicode="8" horiz-adv-x="1021" 
d="M301 346q0 -73 51 -116.5t133 -43.5q92 0 156 53t64 144q0 73 -51 116.5t-134 43.5q-93 0 -156 -52.5t-63 -144.5zM479 -20q-80 0 -155.5 21.5t-138.5 62t-101.5 107.5t-38.5 151q0 131 82 224t195 118q-65 33 -101.5 93.5t-36.5 143.5q0 114 61 201.5t159 131.5t214 44
q169 0 282.5 -87.5t113.5 -236.5q0 -117 -66 -203t-166 -120q76 -33 124 -100.5t48 -159.5q0 -95 -40.5 -171t-108 -123t-151.5 -72t-175 -25zM770 936q0 62 -45 101.5t-111 39.5q-80 0 -135 -49.5t-55 -132.5q0 -62 44 -101.5t110 -39.5q81 0 136.5 49.5t55.5 132.5z" />
    <glyph glyph-name="nine" unicode="9" horiz-adv-x="1013" 
d="M582 1278q124 0 222.5 -56t151 -148t52.5 -202q0 -117 -49 -225t-164 -246l-336 -401h-295l352 406q-24 -7 -47 -7q-164 7 -269.5 118t-105.5 271q0 142 66.5 255t177.5 174t244 61zM575 1055q-103 0 -173 -70.5t-70 -175.5q0 -89 55 -146t139 -57q102 0 173 70t71 176
q0 87 -56 145t-139 58z" />
    <glyph glyph-name="colon" unicode=":" horiz-adv-x="430" 
d="M8 150q0 69 46 115t114 46t115 -46t47 -115t-47 -116.5t-115 -47.5q-67 0 -113.5 47.5t-46.5 116.5zM111 733q0 69 45.5 115.5t113.5 46.5t115 -46.5t47 -115.5t-47 -116.5t-115 -47.5q-67 0 -113 47.5t-46 116.5z" />
    <glyph glyph-name="semicolon" unicode=";" horiz-adv-x="430" 
d="M-72 -223l183 233q-46 12 -74.5 49.5t-28.5 92.5q0 68 46 112.5t114 44.5q69 0 115.5 -45.5t46.5 -124.5q0 -80 -80 -180l-148 -182h-174zM111 733q0 69 45.5 115.5t113.5 46.5t115 -46.5t47 -115.5t-47 -116.5t-115 -47.5q-67 0 -113 47.5t-46 116.5z" />
    <glyph glyph-name="less" unicode="&#x3c;" horiz-adv-x="903" 
d="M117 483l43 252l727 312l-39 -228l-529 -217l453 -217l-39 -215z" />
    <glyph glyph-name="equal" unicode="=" horiz-adv-x="1179" 
d="M131 358l31 179h885l-33 -179h-883zM190 692l31 180h883l-31 -180h-883z" />
    <glyph glyph-name="greater" unicode="&#x3e;" horiz-adv-x="903" 
d="M838 733l-43 -252l-727 -311l38 227l531 217l-455 217l39 216z" />
    <glyph glyph-name="question" unicode="?" horiz-adv-x="876" 
d="M451 655q15 14 52 47t57.5 53t45.5 50t37 59.5t12 59.5q0 112 -147 112q-176 0 -385 -166l45 258q84 67 193 108.5t221 41.5q163 0 253.5 -83.5t90.5 -221.5q0 -54 -16 -105.5t-36.5 -87.5t-61.5 -81t-68 -69.5t-78 -68.5q-60 -53 -83 -87.5t-28 -67.5h-258
q17 74 50.5 128t103.5 121zM221 143q0 68 47 114t115 46q69 0 116.5 -45.5t47.5 -114.5q0 -66 -47.5 -111.5t-116.5 -45.5q-68 0 -115 45.5t-47 111.5z" />
    <glyph glyph-name="at" unicode="@" horiz-adv-x="1572" 
d="M1206 791l-112 -484q-21 -96 59 -96q97 0 162 102.5t65 274.5q0 200 -140 316t-363 116q-188 0 -337 -85.5t-233 -241t-84 -353.5q0 -112 36 -201.5t94 -145.5t136.5 -93.5t156.5 -52.5t161 -15q248 0 485 105l-26 -158q-84 -41 -205.5 -67.5t-253.5 -26.5
q-119 0 -227.5 23.5t-205 75t-167 127t-111.5 185.5t-41 244q0 168 61.5 320t168.5 264.5t262 178.5t332 66q296 0 477.5 -163t181.5 -416q0 -128 -37.5 -231t-101 -166t-141 -96.5t-162.5 -33.5q-73 0 -132.5 28.5t-91.5 80.5q-31 -49 -88 -77.5t-116 -28.5q-120 0 -190 79
t-70 203q0 120 51 225.5t143.5 170.5t204.5 65q59 0 104.5 -21.5t65.5 -54.5l16 58h213zM885 340l49 205q-9 33 -40 54.5t-73 21.5q-81 0 -136.5 -73t-55.5 -171q0 -56 29 -88.5t85 -32.5q84 0 142 84z" />
    <glyph glyph-name="A" unicode="A" horiz-adv-x="1284" 
d="M670 1257h260l250 -1257h-262l-58 303h-471l-168 -303h-264zM743 942l-231 -418h307z" />
    <glyph glyph-name="B" unicode="B" horiz-adv-x="1130" 
d="M899 643q74 -28 116 -92.5t42 -151.5q0 -187 -138.5 -293t-351.5 -106h-522l221 1257h484q175 0 270.5 -76.5t95.5 -217.5q0 -116 -63 -202.5t-154 -117.5zM428 741h213q103 0 161 43.5t58 130.5q0 63 -40.5 92t-125.5 29h-215zM391 537l-55 -316h250q99 0 158 50.5
t59 134.5q0 131 -162 131h-250z" />
    <glyph glyph-name="C" unicode="C" horiz-adv-x="1101" 
d="M989 326l-49 -271q-134 -75 -295 -75q-250 0 -403.5 152.5t-153.5 406.5q0 160 56 299t151.5 234.5t224.5 150.5t271 55q105 0 198 -27.5t148 -72.5l-45 -263q-129 123 -301 123q-190 0 -313.5 -136t-123.5 -353q0 -147 87 -237.5t227 -90.5q174 0 321 105z" />
    <glyph glyph-name="D" unicode="D" horiz-adv-x="1251" 
d="M346 231h178q203 0 320 134.5t117 349.5q0 150 -78 231.5t-232 81.5h-164zM45 0l221 1257h426q259 0 396 -138.5t137 -389.5q0 -205 -88 -370t-255.5 -262t-385.5 -97h-451z" />
    <glyph glyph-name="E" unicode="E" horiz-adv-x="1056" 
d="M266 1257h856l-41 -229h-596l-49 -274h543l-41 -224h-541l-53 -299h596l-39 -231h-856z" />
    <glyph glyph-name="F" unicode="F" horiz-adv-x="1026" 
d="M307 0h-262l221 1257h838l-39 -229h-578l-57 -319h535l-39 -228h-535z" />
    <glyph glyph-name="G" unicode="G" horiz-adv-x="1222" 
d="M637 -20q-248 0 -398.5 157t-150.5 406q0 156 55 293.5t148.5 234t221.5 152t271 55.5q248 0 398 -111l-45 -262q-65 65 -157.5 99t-195.5 34q-189 0 -309.5 -135t-120.5 -354q0 -150 78.5 -243t210.5 -93q135 0 227 57l35 199h-213l37 215h451l-97 -539
q-179 -165 -446 -165z" />
    <glyph glyph-name="H" unicode="H" horiz-adv-x="1335" 
d="M1100 1257h262l-221 -1257h-262l92 528h-570l-92 -528h-264l221 1257h264l-90 -499h572z" />
    <glyph glyph-name="I" unicode="I" horiz-adv-x="501" 
d="M530 1257l-221 -1257h-264l221 1257h264z" />
    <glyph glyph-name="J" unicode="J" horiz-adv-x="833" 
d="M-16 51l45 256q59 -45 110.5 -66.5t118.5 -21.5q97 0 147.5 58t75.5 192l137 788h265l-146 -819q-41 -235 -165 -346.5t-332 -111.5q-76 0 -145.5 21t-110.5 50z" />
    <glyph glyph-name="K" unicode="K" horiz-adv-x="1206" 
d="M530 1257l-96 -540l545 540h330l-641 -620l440 -637h-307l-393 569l-99 -569h-264l221 1257h264z" />
    <glyph glyph-name="L" unicode="L" horiz-adv-x="1038" 
d="M45 0l221 1257h264l-182 -1026h588l-41 -231h-850z" />
    <glyph glyph-name="M" unicode="M" horiz-adv-x="1482" 
d="M721 272h-8l-267 553l-143 -825h-258l221 1257h236l276 -598l490 598h241l-221 -1257h-256l142 815z" />
    <glyph glyph-name="N" unicode="N" horiz-adv-x="1292" 
d="M1319 1257l-221 -1257h-203l-446 862l-150 -862h-254l221 1257h242l414 -819l143 819h254z" />
    <glyph glyph-name="O" unicode="O" horiz-adv-x="1310" 
d="M637 213q164 0 273.5 136.5t109.5 355.5q0 148 -77.5 243.5t-207.5 95.5q-164 0 -272.5 -136t-108.5 -355q0 -148 77 -244t206 -96zM633 -20q-248 0 -396.5 158t-148.5 413q0 204 87.5 371.5t236.5 261.5t327 94q248 0 396.5 -158t148.5 -413q0 -153 -51 -288.5
t-138.5 -231.5t-207.5 -151.5t-254 -55.5z" />
    <glyph glyph-name="P" unicode="P" horiz-adv-x="1128" 
d="M635 436h-252l-76 -436h-262l221 1257h504q182 0 282.5 -91t100.5 -263q0 -145 -69.5 -252.5t-186 -161t-262.5 -53.5zM487 1034l-63 -375h233q110 0 174 60t64 162q0 72 -43 112.5t-131 40.5h-234z" />
    <glyph glyph-name="Q" unicode="Q" horiz-adv-x="1310" 
d="M633 -20q-248 0 -396.5 158t-148.5 413q0 204 87.5 371.5t236.5 261.5t327 94q248 0 396.5 -158t148.5 -413q0 -174 -65.5 -322.5t-178.5 -249.5l76 -121l-172 -112l-78 125q-109 -47 -233 -47zM637 207q52 0 108 16l-81 131l176 111l73 -123q107 138 107 363
q0 148 -77.5 243.5t-207.5 95.5q-164 0 -272.5 -136t-108.5 -355q0 -149 77 -247.5t206 -98.5z" />
    <glyph glyph-name="R" unicode="R" horiz-adv-x="1153" 
d="M539 469h-150l-82 -469h-262l221 1257h496q189 0 290 -90.5t101 -257.5q0 -166 -96 -276t-256 -148l252 -485h-281zM487 1034l-61 -350h240q108 0 168.5 54.5t60.5 154.5q0 66 -43 103.5t-129 37.5h-236z" />
    <glyph glyph-name="S" unicode="S" horiz-adv-x="1032" 
d="M25 106l45 259q80 -72 179.5 -116t203.5 -44q107 0 173 38t66 119q0 47 -31 78t-92 56l-174 67q-119 44 -185.5 115.5t-66.5 187.5q0 98 41.5 178t109.5 130t153 77t176 27q241 0 399 -117l-45 -246q-165 140 -354 140q-95 0 -157.5 -36t-62.5 -108q0 -46 27.5 -71.5
t91.5 -53.5l193 -75q241 -101 241 -303q0 -106 -41 -189.5t-112 -134.5t-160 -77.5t-190 -26.5q-136 0 -246.5 36.5t-181.5 89.5z" />
    <glyph glyph-name="T" unicode="T" horiz-adv-x="1177" 
d="M154 1028l41 229h1073l-41 -229h-406l-180 -1028h-264l182 1028h-405z" />
    <glyph glyph-name="U" unicode="U" horiz-adv-x="1249" 
d="M582 -20q-218 0 -347 108t-129 307q0 53 17 137l127 725h262l-129 -725q-8 -70 -8 -94q0 -108 54.5 -165.5t162.5 -57.5q130 0 207 78t106 239l127 725h262l-133 -751q-44 -256 -193.5 -391t-385.5 -135z" />
    <glyph glyph-name="V" unicode="V" horiz-adv-x="1257" 
d="M659 0h-256l-225 1257h264l150 -909l506 909h278z" />
    <glyph glyph-name="W" unicode="W" horiz-adv-x="1634" 
d="M860 1257h207l51 -845l371 845h264l-575 -1257h-242l-57 829l-385 -829h-240l-76 1257h256l39 -845z" />
    <glyph glyph-name="X" unicode="X" horiz-adv-x="1196" 
d="M1321 1257l-547 -624l313 -633h-274l-215 442l-385 -442h-293l572 651l-299 606h274l201 -413l360 413h293z" />
    <glyph glyph-name="Y" unicode="Y" horiz-adv-x="1214" 
d="M653 725l398 532h288l-594 -780l-83 -477h-261l82 477l-313 780h274z" />
    <glyph glyph-name="Z" unicode="Z" horiz-adv-x="1118" 
d="M1006 231l-41 -231h-1002v8l797 1020h-563l41 229h983l-2 -6l-789 -1020h576z" />
    <glyph glyph-name="bracketleft" unicode="[" horiz-adv-x="659" 
d="M475 1112l-186 -1065h260l-39 -219h-500l264 1503h500l-39 -219h-260z" />
    <glyph glyph-name="backslash" unicode="\" horiz-adv-x="763" 
d="M422 1331l244 -1503h-224l-243 1503h223z" />
    <glyph glyph-name="bracketright" unicode="]" horiz-adv-x="659" 
d="M236 47l186 1065h-260l39 219h499l-264 -1503h-499l38 219h261z" />
    <glyph glyph-name="asciicircum" unicode="^" horiz-adv-x="837" 
d="M440 1257h232l200 -450h-225l-115 258l-206 -258h-248z" />
    <glyph glyph-name="underscore" unicode="_" horiz-adv-x="780" 
d="M-78 -293l35 207h698l-37 -207h-696z" />
    <glyph glyph-name="grave" unicode="`" 
d="M692 1040h-215l-131 291h236z" />
    <glyph glyph-name="a" unicode="a" horiz-adv-x="968" 
d="M635 520l8 43q4 28 4 41q0 113 -170 113q-142 0 -274 -74l37 219q56 33 144 53.5t175 20.5q163 0 251.5 -72.5t88.5 -204.5q0 -23 -8 -81l-100 -578h-248l8 49q-29 -26 -87.5 -45.5t-125.5 -19.5q-131 0 -220 71t-89 193q0 98 56.5 173.5t146.5 113.5t196 38
q65 0 121.5 -15t85.5 -38zM586 248l12 67q-9 36 -50.5 58t-96.5 22q-71 0 -127 -33t-56 -96q0 -48 42 -72t102 -24q55 0 103 21t71 57z" />
    <glyph glyph-name="b" unicode="b" horiz-adv-x="1069" 
d="M301 78l-14 -78h-254l233 1331h254l-88 -502q41 46 106.5 76.5t135.5 30.5q164 0 254 -111t90 -286q0 -154 -62.5 -282t-175 -202.5t-252.5 -74.5q-79 0 -139.5 28.5t-87.5 69.5zM391 596l-49 -289q14 -48 57 -77t105 -29q117 0 186.5 90.5t69.5 232.5q0 85 -44.5 138
t-123.5 53q-120 0 -201 -119z" />
    <glyph glyph-name="c" unicode="c" horiz-adv-x="837" 
d="M735 272l-39 -233q-83 -59 -219 -59q-190 0 -307 113t-117 308q0 107 37 204.5t103 170.5t164 116.5t212 43.5q79 0 152.5 -23.5t116.5 -62.5l-41 -232q-93 97 -215 97q-118 0 -197.5 -82.5t-79.5 -222.5q0 -97 60 -154t155 -57q125 0 215 73z" />
    <glyph glyph-name="d" unicode="d" horiz-adv-x="1069" 
d="M768 838l86 493h254l-234 -1331h-253l16 86q-41 -46 -106 -76t-136 -30q-164 0 -253 111t-89 286q0 110 36.5 212t100 178.5t155.5 122.5t196 46q79 0 139.5 -28.5t87.5 -69.5zM678 319l51 289q-16 47 -59.5 77t-104.5 30q-113 0 -184.5 -97t-71.5 -227q0 -84 44 -137
t124 -53q120 0 201 118z" />
    <glyph glyph-name="e" unicode="e" horiz-adv-x="944" 
d="M883 399h-586v-2q0 -105 65 -158t173 -53q151 0 284 86l-43 -221q-113 -71 -299 -71q-198 0 -311 110.5t-113 296.5q0 145 60 269t177.5 202t268.5 78q165 0 254.5 -97.5t89.5 -267.5q0 -70 -20 -172zM547 733q-76 0 -132 -46t-87 -122h344q4 20 4 31q0 61 -34 99t-95 38
z" />
    <glyph glyph-name="f" unicode="f" horiz-adv-x="667" 
d="M803 1325l-37 -213q-38 23 -82 23q-62 0 -102 -32.5t-50 -94.5l-16 -93h191l-37 -204h-191l-123 -711h-252l125 711h-149l37 204h149l19 109q27 157 128.5 241.5t252.5 84.5q82 0 137 -25z" />
    <glyph glyph-name="g" unicode="g" horiz-adv-x="1062" 
d="M635 74l6 41q-41 -45 -104 -74t-134 -29q-166 0 -257 109.5t-91 279.5q0 142 61.5 264t174.5 196.5t252 74.5q78 0 138 -28t87 -68l14 75h254l-147 -833q-37 -218 -177 -329t-356 -111q-100 0 -194.5 24.5t-149.5 65.5l47 239q114 -114 297 -114q112 0 185.5 55t93.5 162
zM680 334l51 282q-14 44 -59.5 73.5t-106.5 29.5q-113 0 -184.5 -93t-71.5 -220q0 -81 45 -133t123 -52q64 0 116.5 32t86.5 81z" />
    <glyph glyph-name="h" unicode="h" horiz-adv-x="1034" 
d="M694 936q128 0 200.5 -74.5t72.5 -195.5q0 -34 -6 -72l-103 -594h-256l94 545q6 27 6 45q0 117 -124 117q-59 0 -111 -35t-78 -92l-102 -580h-254l233 1331h254l-88 -502q103 107 262 107z" />
    <glyph glyph-name="i" unicode="i" horiz-adv-x="475" 
d="M449 915l-162 -915h-254l162 915h254zM518 1182q0 -64 -44.5 -106t-106.5 -42t-106 40.5t-44 101.5q0 65 45.5 107t108.5 42q61 0 104 -41t43 -102z" />
    <glyph glyph-name="j" unicode="j" horiz-adv-x="475" 
d="M-203 -330l37 205q39 -27 86 -27q45 0 70 27.5t37 89.5l168 950h254l-170 -952q-26 -156 -112.5 -238.5t-227.5 -82.5q-88 0 -142 28zM518 1182q0 -64 -44.5 -106t-106.5 -42t-106 40.5t-44 101.5q0 65 45.5 107t108.5 42q61 0 104 -41t43 -102z" />
    <glyph glyph-name="k" unicode="k" horiz-adv-x="995" 
d="M606 475l309 -475h-280l-275 426l-73 -426h-254l233 1331h254l-137 -776l371 360h319z" />
    <glyph glyph-name="l" unicode="l" horiz-adv-x="475" 
d="M520 1331l-233 -1331h-254l233 1331h254z" />
    <glyph glyph-name="m" unicode="m" horiz-adv-x="1519" 
d="M905 817q116 119 275 119q131 0 201.5 -75t70.5 -193q0 -36 -6 -70l-103 -598h-256l95 535q6 43 6 59q0 113 -105 113q-51 0 -96 -35t-72 -92l-100 -580h-254l92 535q6 43 6 59q0 113 -104 113q-51 0 -96 -35t-70 -92l-102 -580h-254l162 915h254l-17 -86
q103 107 250 107q73 0 133.5 -34t89.5 -85z" />
    <glyph glyph-name="n" unicode="n" horiz-adv-x="1034" 
d="M33 0l162 915h254l-17 -86q103 107 262 107q128 0 200.5 -74.5t72.5 -195.5q0 -34 -6 -72l-103 -594h-256l94 545q6 27 6 45q0 117 -124 117q-59 0 -111 -35t-78 -92l-102 -580h-254z" />
    <glyph glyph-name="o" unicode="o" horiz-adv-x="1003" 
d="M465 195q102 0 167.5 94.5t65.5 238.5q0 87 -42 140t-117 53q-102 0 -168 -95.5t-66 -238.5q0 -86 42.5 -139t117.5 -53zM461 -20q-189 0 -298.5 111.5t-109.5 297.5q0 155 66 281t178 196t246 70q189 0 298 -112t109 -298q0 -116 -38.5 -218.5t-104.5 -174t-156 -112.5
t-190 -41z" />
    <glyph glyph-name="p" unicode="p" horiz-adv-x="1069" 
d="M301 78l-74 -416h-254l222 1253h254l-17 -86q41 46 106.5 76.5t135.5 30.5q164 0 254 -111t90 -286q0 -154 -62.5 -282t-175 -202.5t-252.5 -74.5q-79 0 -139.5 28.5t-87.5 69.5zM391 596l-49 -289q14 -48 57 -77t105 -29q117 0 186.5 90.5t69.5 232.5q0 85 -44.5 138
t-123.5 53q-120 0 -201 -119z" />
    <glyph glyph-name="q" unicode="q" horiz-adv-x="1062" 
d="M768 838l14 77h254l-221 -1253h-254l76 424q-41 -46 -106 -76t-136 -30q-164 0 -253 111t-89 286q0 110 36.5 212t100 178.5t155.5 122.5t196 46q79 0 139.5 -28.5t87.5 -69.5zM678 319l51 289q-16 47 -59.5 77t-104.5 30q-113 0 -184.5 -97t-71.5 -227q0 -84 44 -137
t124 -53q120 0 201 118z" />
    <glyph glyph-name="r" unicode="r" horiz-adv-x="718" 
d="M750 920l-45 -254q-47 30 -121 30q-65 0 -119 -34t-78 -95l-100 -567h-254l162 915h254l-17 -90q35 50 96 80.5t127 30.5q71 0 95 -16z" />
    <glyph glyph-name="s" unicode="s" horiz-adv-x="839" 
d="M16 82l41 233q55 -61 137.5 -98t161.5 -37q62 0 101 21t39 67q0 53 -90 80l-89 29q-101 33 -156 87.5t-55 143.5q0 150 111 239t279 89q180 0 299 -92l-41 -221q-117 112 -258 112q-61 0 -100.5 -22t-39.5 -66q0 -51 86 -80l113 -37q195 -68 195 -223q0 -151 -115 -239
t-283 -88q-211 0 -336 102z" />
    <glyph glyph-name="t" unicode="t" horiz-adv-x="708" 
d="M518 711l-125 -711h-254l125 711h-174l37 204h174l43 248h254l-43 -248h195l-37 -204h-195z" />
    <glyph glyph-name="u" unicode="u" horiz-adv-x="1026" 
d="M997 915l-159 -915h-254l14 84q-104 -104 -260 -104q-128 0 -199 73.5t-71 194.5q0 34 6 74l104 593h254l-94 -550q-6 -27 -6 -54q0 -112 119 -112q59 0 112 37.5t78 95.5l102 583h254z" />
    <glyph glyph-name="v" unicode="v" horiz-adv-x="993" 
d="M504 0h-246l-149 915h243l88 -608l344 608h265z" />
    <glyph glyph-name="w" unicode="w" horiz-adv-x="1368" 
d="M860 915l29 -583l285 583h249l-471 -915h-231l-33 561l-266 -561h-232l-84 915h240l43 -583l277 583h194z" />
    <glyph glyph-name="x" unicode="x" horiz-adv-x="983" 
d="M1038 915l-409 -450l243 -465h-260l-149 291l-260 -291h-279l434 475l-231 440h262l135 -266l234 266h280z" />
    <glyph glyph-name="y" unicode="y" horiz-adv-x="993" 
d="M301 -338h-254l207 352l-145 901h243l92 -608l340 608h265z" />
    <glyph glyph-name="z" unicode="z" horiz-adv-x="892" 
d="M784 205l-34 -205h-787v8l549 703h-385l37 204h764v-8l-541 -702h397z" />
    <glyph glyph-name="braceleft" unicode="{" horiz-adv-x="722" 
d="M430 410l-53 -304q-9 -59 49 -59h186l-39 -219h-221q-121 0 -179 72.5t-38 193.5l55 316q9 59 -49 59h-96l39 221h98q61 0 70 60l53 315q22 119 108 192.5t203 73.5h222l-39 -219h-187q-60 0 -69 -59l-54 -303q-20 -112 -127 -172q88 -59 68 -168z" />
    <glyph glyph-name="bar" unicode="|" horiz-adv-x="466" 
d="M14 -172l265 1503h227l-264 -1503h-228z" />
    <glyph glyph-name="braceright" unicode="}" horiz-adv-x="722" 
d="M346 750l53 303q9 59 -49 59h-186l39 219h221q121 0 179 -72.5t38 -193.5l-55 -315q-9 -60 49 -60h96l-39 -221h-98q-61 0 -70 -59l-53 -316q-22 -119 -108 -192.5t-203 -73.5h-221l38 219h187q60 0 69 59l54 304q20 112 127 172q-88 59 -68 168z" />
    <glyph glyph-name="asciitilde" unicode="~" horiz-adv-x="876" 
d="M670 711h180q-28 -149 -99 -230.5t-173 -81.5q-43 0 -80 19t-58.5 41.5t-48 41.5t-51.5 19q-74 0 -94 -112h-178q25 147 96 229t174 82q42 0 78.5 -19t57.5 -41.5t48 -41.5t53 -19q75 0 95 113z" />
    <glyph glyph-name="uni00A0" unicode="&#xa0;" horiz-adv-x="434" 
 />
    <glyph glyph-name="exclamdown" unicode="&#xa1;" horiz-adv-x="458" 
d="M373 655l-94 -852h-308l215 852h187zM477 918q0 -67 -47 -113.5t-115 -46.5t-114.5 46.5t-46.5 113.5q0 66 46.5 111.5t114.5 45.5t115 -45.5t47 -111.5z" />
    <glyph glyph-name="cent" unicode="&#xa2;" horiz-adv-x="843" 
d="M283 -178l36 205q-121 42 -189.5 144.5t-68.5 250.5q0 196 115 344.5t305 181.5l35 189h217l-37 -195q91 -21 152 -72l-43 -231q-93 96 -215 96q-118 0 -197.5 -82.5t-79.5 -222.5q0 -97 60 -154t155 -57q126 0 217 74l-40 -234q-64 -47 -173 -57l-30 -180h-219z" />
    <glyph glyph-name="sterling" unicode="&#xa3;" horiz-adv-x="972" 
d="M84 520l35 201h145l23 119q35 202 168 320t325 118q170 0 252 -61l-39 -228q-88 64 -213 64q-210 0 -254 -246l-16 -86h268l-35 -201h-268l-22 -123q-21 -129 -76 -186h518l-37 -211h-866l37 211h104q54 72 74 186l22 123h-145z" />
    <glyph glyph-name="yen" unicode="&#xa5;" horiz-adv-x="1148" 
d="M102 238l29 172h313l21 114h-313l30 172h217l-213 561h269l172 -495l350 495h283l-416 -561h217l-31 -172h-313l-21 -114h314l-29 -172h-313l-41 -238h-254l41 238h-312z" />
    <glyph glyph-name="section" unicode="&#xa7;" horiz-adv-x="968" 
d="M614 561l-231 170q-92 -23 -92 -108q0 -22 14 -43.5t28.5 -34t41.5 -33.5l233 -170q40 10 66 37.5t26 71.5q0 22 -14 43.5t-29 34t-43 32.5zM260 862q-22 46 -22 103q0 135 109.5 224t275.5 89q182 0 303 -90l-39 -221q-117 110 -266 110q-65 0 -102.5 -24t-37.5 -70
q0 -49 72 -102l199 -142q42 -30 69 -52.5t54 -54t40 -68t13 -79.5q0 -180 -199 -274q23 -52 23 -102q0 -135 -109.5 -224.5t-275.5 -89.5q-180 0 -304 90l39 221q120 -110 269 -110q64 0 101.5 24t37.5 70q0 51 -74 103l-198 141q-87 63 -131 118t-44 136q0 181 197 274z
" />
    <glyph glyph-name="dieresis" unicode="&#xa8;" 
d="M207 1167q0 58 40 98t97 40q56 0 95.5 -40t39.5 -98q0 -55 -39.5 -95t-95.5 -40q-57 0 -97 39.5t-40 95.5zM543 1167q0 58 39.5 98t95.5 40t96.5 -40t40.5 -98q0 -55 -40.5 -95t-96.5 -40t-95.5 40t-39.5 95z" />
    <glyph glyph-name="copyright" unicode="&#xa9;" horiz-adv-x="1441" 
d="M1403 629q0 -184 -88 -334t-236 -232.5t-325 -82.5q-132 0 -251.5 49t-207.5 133.5t-139.5 206.5t-51.5 260t51.5 260t139.5 206.5t207.5 133.5t251.5 49q177 0 325 -82.5t236 -232.5t88 -334zM1307 629q0 157 -75 285t-201.5 199t-276.5 71t-276.5 -71t-201.5 -199
t-75 -285t75 -285t201.5 -199t276.5 -71t276.5 71t201.5 199t75 285zM375 633q0 184 112 295.5t297 111.5q120 0 199 -51v-203q-83 62 -180 62q-98 0 -156.5 -58.5t-58.5 -156.5q0 -97 58.5 -155t156.5 -58q101 0 180 59v-203q-79 -51 -199 -51q-185 0 -297 112t-112 296z
" />
    <glyph glyph-name="ordfeminine" unicode="&#xaa;" horiz-adv-x="681" 
d="M506 1006l6 22v23q0 67 -109 67q-96 0 -182 -47l29 170q89 47 217 47q118 0 182 -50.5t64 -147.5q0 -28 -6 -62l-66 -373h-195l5 33q-19 -17 -58 -30t-82 -13q-89 0 -147 48.5t-58 131.5q0 99 76 157t183 58q94 0 141 -34zM475 827l6 39q-6 19 -29.5 32t-54.5 13
q-37 0 -66.5 -18.5t-29.5 -52.5q0 -26 23 -40t55 -14q66 0 96 41z" />
    <glyph glyph-name="guillemotleft" unicode="&#xab;" horiz-adv-x="860" 
d="M395 125h-217l-129 330l246 329h225l-252 -342zM748 125h-218l-129 324l246 335h225l-251 -342z" />
    <glyph glyph-name="registered" unicode="&#xae;" horiz-adv-x="833" 
d="M856 903q0 -161 -108.5 -268t-262.5 -107t-262 107t-108 268t108 268t262 107t262.5 -107t108.5 -268zM788 903q0 135 -87.5 223t-215.5 88t-215.5 -88t-87.5 -223t87.5 -223t215.5 -88t215.5 88t87.5 223zM477 834h-35v-125h-110v393h186q66 0 105 -36.5t39 -100.5
q0 -94 -76 -119l90 -137h-121zM555 965q0 45 -51 45h-62v-88h62q51 0 51 43z" />
    <glyph glyph-name="macron" unicode="&#xaf;" 
d="M252 1057l33 186h485l-33 -186h-485z" />
    <glyph glyph-name="degree" unicode="&#xb0;" horiz-adv-x="731" 
d="M459 1278q108 0 181 -74.5t73 -183.5q0 -123 -88 -212t-209 -89q-109 0 -182.5 74.5t-73.5 183.5q0 123 88 212t211 89zM446 1124q-51 0 -91 -40.5t-40 -98.5q0 -46 33 -79.5t80 -33.5q51 0 91 41t40 99q0 46 -33 79t-80 33z" />
    <glyph glyph-name="plusminus" unicode="&#xb1;" horiz-adv-x="1165" 
d="M608 1122h185l-48 -266h336l-32 -184h-336l-47 -266h-187l47 266h-336l33 184h336zM94 127l33 186h858l-33 -186h-858z" />
    <glyph glyph-name="twosuperior" unicode="&#xb2;" horiz-adv-x="624" 
d="M414 723h198l-28 -164h-521v4l261 283q5 6 23.5 26t26 28.5t22.5 26.5t22 29t15.5 26.5t12 29t3.5 26.5q0 26 -16.5 41t-49.5 15q-85 0 -219 -90l31 184q49 35 117.5 57.5t140.5 22.5q93 0 144.5 -48.5t51.5 -125.5q0 -72 -40 -138.5t-113 -144.5z" />
    <glyph glyph-name="threesuperior" unicode="&#xb3;" horiz-adv-x="600" 
d="M176 1092l29 165h469v-4l-187 -276q105 -57 105 -172q0 -116 -85 -187t-214 -71q-127 0 -207 59l31 174q72 -78 178 -78q54 0 86.5 25t32.5 70q0 41 -35 62.5t-92 21.5q-21 0 -31 -2v4l141 209h-221z" />
    <glyph glyph-name="acute" unicode="&#xb4;" 
d="M514 1040h-235l215 291h254z" />
    <glyph glyph-name="paragraph" unicode="&#xb6;" horiz-adv-x="1101" 
d="M688 -184l254 1441h186l-254 -1441h-186zM371 -184l127 714q-105 0 -192.5 33t-145.5 106t-58 175q0 86 33 157t86.5 117.5t125 78.5t146.5 46t152 14h166l-254 -1441h-186z" />
    <glyph glyph-name="periodcentered" unicode="&#xb7;" horiz-adv-x="438" 
d="M68 539q0 69 45.5 115t113.5 46t115 -46t47 -115t-47 -116.5t-115 -47.5q-67 0 -113 47.5t-46 116.5z" />
    <glyph glyph-name="cedilla" unicode="&#xb8;" 
d="M524 -381h-233l194 285h240z" />
    <glyph glyph-name="onesuperior" unicode="&#xb9;" horiz-adv-x="499" 
d="M535 1257l-123 -698h-189l86 483l-172 -77l31 188l238 104h129z" />
    <glyph glyph-name="ordmasculine" unicode="&#xba;" horiz-adv-x="710" 
d="M418 817q58 0 93.5 55t35.5 138q0 47 -23 75.5t-63 28.5q-57 0 -93 -55t-36 -139q0 -46 23 -74.5t63 -28.5zM412 641q-128 0 -207.5 77t-79.5 204q0 160 99 263t243 103q130 0 208.5 -75.5t78.5 -202.5q0 -160 -99.5 -264.5t-242.5 -104.5z" />
    <glyph glyph-name="guillemotright" unicode="&#xbb;" horiz-adv-x="860" 
d="M483 784h217l129 -329l-245 -330h-226l252 342zM131 784h217l129 -323l-246 -336h-225l252 342z" />
    <glyph glyph-name="onequarter" unicode="&#xbc;" horiz-adv-x="1437" 
d="M1233 698l-264 -417h106l19 116h163l-20 -116h86l-27 -150h-86l-22 -131h-162l23 131h-342l8 49l334 518h184zM1366 1257l-1098 -1257h-190l1098 1257h190zM561 1257l-123 -698h-180l86 485l-197 -88l35 189l256 112h123z" />
    <glyph glyph-name="onehalf" unicode="&#xbd;" horiz-adv-x="1474" 
d="M1366 1257l-1098 -1257h-190l1098 1257h190zM561 1257l-123 -698h-180l86 485l-197 -88l35 189l256 112h123zM1137 164h200l-28 -164h-521v4l259 285q82 85 106 121q27 42 27 73q0 56 -66 56q-48 0 -112 -30t-115 -65l33 185q48 36 116.5 58t141.5 22q92 0 144 -48.5
t52 -125.5q0 -72 -39.5 -136.5t-113.5 -146.5z" />
    <glyph glyph-name="threequarters" unicode="&#xbe;" horiz-adv-x="1470" 
d="M1266 698l-265 -417h107l18 116h164l-20 -116h86l-27 -150h-86l-22 -131h-162l22 131h-344l11 49l331 518h187zM1399 1257l-1098 -1257h-188l1097 1257h189zM199 1092l28 165h469v-4l-188 -274q106 -61 106 -174q0 -117 -84.5 -187.5t-214.5 -70.5q-126 0 -206 59l30 174
q72 -78 178 -78q54 0 86.5 25t32.5 70q0 41 -35 62.5t-92 21.5q-20 0 -30 -2v4l145 209h-225z" />
    <glyph glyph-name="questiondown" unicode="&#xbf;" horiz-adv-x="876" 
d="M467 406q-15 -15 -52 -47.5t-57.5 -52.5t-46 -50t-37.5 -59.5t-12 -59.5q0 -112 148 -112q178 0 385 165l-45 -258q-84 -67 -193 -108t-221 -41q-163 0 -253.5 83.5t-90.5 221.5q0 54 16 105.5t36.5 87.5t61.5 81t68 69.5t78 68.5q60 53 82.5 87.5t27.5 67.5h259
q-17 -74 -50.5 -128t-103.5 -121zM696 918q0 -69 -46.5 -114.5t-114.5 -45.5q-69 0 -116.5 45.5t-47.5 114.5q0 66 47.5 111.5t116.5 45.5q68 0 114.5 -45.5t46.5 -111.5z" />
    <glyph glyph-name="Agrave" unicode="&#xc0;" horiz-adv-x="1284" 
d="M670 1257h260l250 -1257h-262l-58 303h-471l-168 -303h-264zM743 942l-231 -418h307zM934 1370h-234l-145 250h262z" />
    <glyph glyph-name="Aacute" unicode="&#xc1;" horiz-adv-x="1284" 
d="M670 1257h260l250 -1257h-262l-58 303h-471l-168 -303h-264zM936 1370h-258l205 250h284zM743 942l-231 -418h307z" />
    <glyph glyph-name="Acircumflex" unicode="&#xc2;" horiz-adv-x="1284" 
d="M670 1257h260l250 -1257h-262l-58 303h-471l-168 -303h-264zM961 1630l157 -260h-207l-77 111l-115 -111h-223l252 260h213zM743 942l-231 -418h307z" />
    <glyph glyph-name="Atilde" unicode="&#xc3;" horiz-adv-x="1284" 
d="M670 1257h260l250 -1257h-262l-58 303h-471l-168 -303h-264zM1010 1647h151q-21 -129 -79 -208t-146 -79q-38 0 -73.5 23.5t-65 47t-54.5 23.5q-57 0 -73 -86h-152q23 129 79.5 207t143.5 78q39 0 75.5 -23t66 -46t53.5 -23q58 0 74 86zM743 942l-231 -418h307z" />
    <glyph glyph-name="Adieresis" unicode="&#xc4;" horiz-adv-x="1284" 
d="M670 1257h260l250 -1257h-262l-58 303h-471l-168 -303h-264zM743 942l-231 -418h307zM866 1495q0 59 40 99t98 40t98.5 -40t40.5 -99q0 -55 -41 -95t-98 -40t-97.5 39.5t-40.5 95.5zM528 1495q0 60 39.5 99.5t98.5 39.5q58 0 97.5 -40t39.5 -99q0 -56 -40 -95.5
t-97 -39.5q-58 0 -98 39.5t-40 95.5z" />
    <glyph glyph-name="Aring" unicode="&#xc5;" horiz-adv-x="1284" 
d="M670 1257h260l250 -1257h-262l-58 303h-471l-168 -303h-264zM829 1323q-83 0 -138.5 54t-55.5 136q0 86 61.5 146.5t151.5 60.5q84 0 139 -54t55 -136q0 -86 -61.5 -146.5t-151.5 -60.5zM743 942l-231 -418h307zM836 1442q34 0 59 23.5t25 60.5q0 32 -22 55t-54 23
q-35 0 -60.5 -24.5t-25.5 -61.5q0 -32 23 -54t55 -22z" />
    <glyph glyph-name="AE" unicode="&#xc6;" horiz-adv-x="1800" 
d="M877 1257h989l-39 -229h-565l-52 -274h512l-39 -224h-512l-51 -299h566l-41 -231h-824l53 303h-417l-221 -303h-279zM1008 1059l-392 -535h297z" />
    <glyph glyph-name="Ccedilla" unicode="&#xc7;" horiz-adv-x="1101" 
d="M989 326l-49 -271q-134 -75 -295 -75q-250 0 -403.5 152.5t-153.5 406.5q0 160 56 299t151.5 234.5t224.5 150.5t271 55q105 0 198 -27.5t148 -72.5l-45 -263q-129 123 -301 123q-190 0 -313.5 -136t-123.5 -353q0 -147 87 -237.5t227 -90.5q174 0 321 105zM508 -381
h-234l195 285h240z" />
    <glyph glyph-name="Egrave" unicode="&#xc8;" horiz-adv-x="1056" 
d="M829 1370h-233l-145 250h262zM266 1257h856l-41 -229h-596l-49 -274h543l-41 -224h-541l-53 -299h596l-39 -231h-856z" />
    <glyph glyph-name="Eacute" unicode="&#xc9;" horiz-adv-x="1056" 
d="M831 1370h-258l205 250h285zM266 1257h856l-41 -229h-596l-49 -274h543l-41 -224h-541l-53 -299h596l-39 -231h-856z" />
    <glyph glyph-name="Ecircumflex" unicode="&#xca;" horiz-adv-x="1056" 
d="M266 1257h856l-41 -229h-596l-49 -274h543l-41 -224h-541l-53 -299h596l-39 -231h-856zM860 1630l158 -260h-207l-78 111l-115 -111h-223l252 260h213z" />
    <glyph glyph-name="Edieresis" unicode="&#xcb;" horiz-adv-x="1056" 
d="M430 1495q0 60 39 99.5t98 39.5q58 0 98 -40t40 -99q0 -56 -40.5 -95.5t-97.5 -39.5q-58 0 -97.5 39.5t-39.5 95.5zM768 1495q0 59 40 99t97 40q58 0 98.5 -40t40.5 -99q0 -55 -41 -95t-98 -40t-97 39.5t-40 95.5zM266 1257h856l-41 -229h-596l-49 -274h543l-41 -224
h-541l-53 -299h596l-39 -231h-856z" />
    <glyph glyph-name="Igrave" unicode="&#xcc;" horiz-adv-x="501" 
d="M530 1257l-221 -1257h-264l221 1257h264zM532 1370h-233l-145 250h262z" />
    <glyph glyph-name="Iacute" unicode="&#xcd;" horiz-adv-x="501" 
d="M530 1257l-221 -1257h-264l221 1257h264zM537 1370h-258l204 250h285z" />
    <glyph glyph-name="Icircumflex" unicode="&#xce;" horiz-adv-x="501" 
d="M530 1257l-221 -1257h-264l221 1257h264zM565 1630l158 -260h-207l-78 111l-114 -111h-224l252 260h213z" />
    <glyph glyph-name="Idieresis" unicode="&#xcf;" horiz-adv-x="501" 
d="M530 1257l-221 -1257h-264l221 1257h264zM135 1495q0 60 39 99.5t98 39.5q58 0 98 -40t40 -99q0 -56 -40.5 -95.5t-97.5 -39.5q-58 0 -97.5 39.5t-39.5 95.5zM473 1495q0 59 39.5 99t97.5 40t99 -40t41 -99q0 -55 -41.5 -95t-98.5 -40t-97 39.5t-40 95.5z" />
    <glyph glyph-name="Eth" unicode="&#xd0;" horiz-adv-x="1282" 
d="M68 541l36 211h103l90 505h426q259 0 395.5 -138.5t136.5 -389.5q0 -205 -88 -370t-255.5 -262t-385.5 -97h-450l94 541h-102zM377 231h178q203 0 319.5 134.5t116.5 349.5q0 151 -77.5 232t-231.5 81h-164l-49 -276h211l-37 -211h-211z" />
    <glyph glyph-name="Ntilde" unicode="&#xd1;" horiz-adv-x="1292" 
d="M1008 1647h151q-21 -129 -79 -208t-146 -79q-38 0 -73.5 23.5t-65 47t-54.5 23.5q-57 0 -73 -86h-152q23 129 79.5 207t143.5 78q39 0 75.5 -23t66 -46t53.5 -23q58 0 74 86zM1319 1257l-221 -1257h-203l-446 862l-150 -862h-254l221 1257h242l414 -819l143 819h254z" />
    <glyph glyph-name="Ograve" unicode="&#xd2;" horiz-adv-x="1310" 
d="M926 1370h-234l-145 250h262zM637 213q164 0 273.5 136.5t109.5 355.5q0 148 -77.5 243.5t-207.5 95.5q-164 0 -272.5 -136t-108.5 -355q0 -148 77 -244t206 -96zM633 -20q-248 0 -396.5 158t-148.5 413q0 204 87.5 371.5t236.5 261.5t327 94q248 0 396.5 -158
t148.5 -413q0 -153 -51 -288.5t-138.5 -231.5t-207.5 -151.5t-254 -55.5z" />
    <glyph glyph-name="Oacute" unicode="&#xd3;" horiz-adv-x="1310" 
d="M928 1370h-258l204 250h285zM637 213q164 0 273.5 136.5t109.5 355.5q0 148 -77.5 243.5t-207.5 95.5q-164 0 -272.5 -136t-108.5 -355q0 -148 77 -244t206 -96zM633 -20q-248 0 -396.5 158t-148.5 413q0 204 87.5 371.5t236.5 261.5t327 94q248 0 396.5 -158t148.5 -413
q0 -153 -51 -288.5t-138.5 -231.5t-207.5 -151.5t-254 -55.5z" />
    <glyph glyph-name="Ocircumflex" unicode="&#xd4;" horiz-adv-x="1310" 
d="M637 213q164 0 273.5 136.5t109.5 355.5q0 148 -77.5 243.5t-207.5 95.5q-164 0 -272.5 -136t-108.5 -355q0 -148 77 -244t206 -96zM633 -20q-248 0 -396.5 158t-148.5 413q0 204 87.5 371.5t236.5 261.5t327 94q248 0 396.5 -158t148.5 -413q0 -153 -51 -288.5
t-138.5 -231.5t-207.5 -151.5t-254 -55.5zM956 1630l158 -260h-207l-78 111l-114 -111h-223l251 260h213z" />
    <glyph glyph-name="Otilde" unicode="&#xd5;" horiz-adv-x="1310" 
d="M1001 1647h152q-21 -129 -79 -208t-146 -79q-38 0 -73.5 23.5t-65 47t-54.5 23.5q-57 0 -73 -86h-152q23 129 79.5 207t143.5 78q39 0 75.5 -23t66 -46t53.5 -23q57 0 73 86zM637 213q164 0 273.5 136.5t109.5 355.5q0 148 -77.5 243.5t-207.5 95.5q-164 0 -272.5 -136
t-108.5 -355q0 -148 77 -244t206 -96zM633 -20q-248 0 -396.5 158t-148.5 413q0 204 87.5 371.5t236.5 261.5t327 94q248 0 396.5 -158t148.5 -413q0 -153 -51 -288.5t-138.5 -231.5t-207.5 -151.5t-254 -55.5z" />
    <glyph glyph-name="Odieresis" unicode="&#xd6;" horiz-adv-x="1310" 
d="M524 1495q0 60 39.5 99.5t98.5 39.5q58 0 97.5 -40t39.5 -99q0 -56 -40 -95.5t-97 -39.5q-58 0 -98 39.5t-40 95.5zM862 1495q0 59 40 99t97 40q58 0 99 -40t41 -99q0 -55 -41.5 -95t-98.5 -40t-97 39.5t-40 95.5zM637 213q164 0 273.5 136.5t109.5 355.5
q0 148 -77.5 243.5t-207.5 95.5q-164 0 -272.5 -136t-108.5 -355q0 -148 77 -244t206 -96zM633 -20q-248 0 -396.5 158t-148.5 413q0 204 87.5 371.5t236.5 261.5t327 94q248 0 396.5 -158t148.5 -413q0 -153 -51 -288.5t-138.5 -231.5t-207.5 -151.5t-254 -55.5z" />
    <glyph glyph-name="multiply" unicode="&#xd7;" horiz-adv-x="1013" 
d="M403 612l-206 248l151 129l203 -248l295 250l112 -135l-294 -250l204 -248l-151 -129l-205 248l-293 -250l-113 138z" />
    <glyph glyph-name="Oslash" unicode="&#xd8;" horiz-adv-x="1329" 
d="M94 63l111 125q-107 147 -107 363q0 153 51.5 288.5t138.5 231.5t207.5 151.5t254.5 55.5q197 0 333 -102l97 108l116 -90l-110 -125q108 -148 108 -362q0 -204 -87.5 -371.5t-236.5 -261.5t-327 -94q-198 0 -334 102l-96 -109zM647 209q164 0 274.5 138.5t110.5 357.5
q0 86 -28 159l-529 -596q72 -59 172 -59zM360 553q0 -89 27 -160l528 594q-72 62 -170 62q-164 0 -274.5 -138.5t-110.5 -357.5z" />
    <glyph glyph-name="Ugrave" unicode="&#xd9;" horiz-adv-x="1249" 
d="M897 1370h-233l-146 250h262zM582 -20q-218 0 -347 108t-129 307q0 53 17 137l127 725h262l-129 -725q-8 -70 -8 -94q0 -108 54.5 -165.5t162.5 -57.5q130 0 207 78t106 239l127 725h262l-133 -751q-44 -256 -193.5 -391t-385.5 -135z" />
    <glyph glyph-name="Uacute" unicode="&#xda;" horiz-adv-x="1249" 
d="M901 1370h-258l205 250h285zM582 -20q-218 0 -347 108t-129 307q0 53 17 137l127 725h262l-129 -725q-8 -70 -8 -94q0 -108 54.5 -165.5t162.5 -57.5q130 0 207 78t106 239l127 725h262l-133 -751q-44 -256 -193.5 -391t-385.5 -135z" />
    <glyph glyph-name="Ucircumflex" unicode="&#xdb;" horiz-adv-x="1249" 
d="M582 -20q-218 0 -347 108t-129 307q0 53 17 137l127 725h262l-129 -725q-8 -70 -8 -94q0 -108 54.5 -165.5t162.5 -57.5q130 0 207 78t106 239l127 725h262l-133 -751q-44 -256 -193.5 -391t-385.5 -135zM928 1630l157 -260h-206l-78 111l-115 -111h-223l252 260h213z
" />
    <glyph glyph-name="Udieresis" unicode="&#xdc;" horiz-adv-x="1249" 
d="M500 1495q0 60 39 99.5t98 39.5q57 0 97 -40t40 -99q0 -56 -40 -95.5t-97 -39.5q-58 0 -97.5 39.5t-39.5 95.5zM838 1495q0 59 40 99t97 40q58 0 98.5 -40t40.5 -99q0 -55 -41 -95t-98 -40t-97 39.5t-40 95.5zM582 -20q-218 0 -347 108t-129 307q0 53 17 137l127 725h262
l-129 -725q-8 -70 -8 -94q0 -108 54.5 -165.5t162.5 -57.5q130 0 207 78t106 239l127 725h262l-133 -751q-44 -256 -193.5 -391t-385.5 -135z" />
    <glyph glyph-name="Yacute" unicode="&#xdd;" horiz-adv-x="1214" 
d="M653 725l398 532h288l-594 -780l-83 -477h-261l82 477l-313 780h274zM887 1370h-258l205 250h284z" />
    <glyph glyph-name="Thorn" unicode="&#xde;" horiz-adv-x="1128" 
d="M600 233h-254l-39 -233h-262l221 1257h260l-34 -202h241q182 0 283.5 -92t101.5 -263q0 -145 -70 -252.5t-186.5 -161t-261.5 -53.5zM453 831l-66 -374h236q110 0 172.5 59.5t62.5 161.5q0 72 -43 112.5t-129 40.5h-233z" />
    <glyph glyph-name="germandbls" unicode="&#xdf;" horiz-adv-x="1081" 
d="M33 0l180 1024q27 156 130 241t253 85q80 0 135 -25l-37 -215q-35 25 -86 25q-59 0 -98 -32.5t-49 -94.5l-17 -93h666v-8l-295 -438q152 -107 152 -299q0 -100 -34.5 -186t-96 -148t-145.5 -106t-184 -66t-210 -22l39 215q172 3 280.5 78t108.5 215q0 85 -55 145.5
t-150 89.5v8l213 318h-325l-123 -711h-252z" />
    <glyph glyph-name="agrave" unicode="&#xe0;" horiz-adv-x="968" 
d="M635 520l8 43q4 28 4 41q0 113 -170 113q-142 0 -274 -74l37 219q56 33 144 53.5t175 20.5q163 0 251.5 -72.5t88.5 -204.5q0 -23 -8 -81l-100 -578h-248l8 49q-29 -26 -87.5 -45.5t-125.5 -19.5q-131 0 -220 71t-89 193q0 98 56.5 173.5t146.5 113.5t196 38
q65 0 121.5 -15t85.5 -38zM586 248l12 67q-9 36 -50.5 58t-96.5 22q-71 0 -127 -33t-56 -96q0 -48 42 -72t102 -24q55 0 103 21t71 57zM709 1040h-215l-132 291h236z" />
    <glyph glyph-name="aacute" unicode="&#xe1;" horiz-adv-x="968" 
d="M635 520l8 43q4 28 4 41q0 113 -170 113q-142 0 -274 -74l37 219q56 33 144 53.5t175 20.5q163 0 251.5 -72.5t88.5 -204.5q0 -23 -8 -81l-100 -578h-248l8 49q-29 -26 -87.5 -45.5t-125.5 -19.5q-131 0 -220 71t-89 193q0 98 56.5 173.5t146.5 113.5t196 38
q65 0 121.5 -15t85.5 -38zM586 248l12 67q-9 36 -50.5 58t-96.5 22q-71 0 -127 -33t-56 -96q0 -48 42 -72t102 -24q55 0 103 21t71 57zM709 1040h-236l215 291h254z" />
    <glyph glyph-name="acircumflex" unicode="&#xe2;" horiz-adv-x="968" 
d="M635 520l8 43q4 28 4 41q0 113 -170 113q-142 0 -274 -74l37 219q56 33 144 53.5t175 20.5q163 0 251.5 -72.5t88.5 -204.5q0 -23 -8 -81l-100 -578h-248l8 49q-29 -26 -87.5 -45.5t-125.5 -19.5q-131 0 -220 71t-89 193q0 98 56.5 173.5t146.5 113.5t196 38
q65 0 121.5 -15t85.5 -38zM586 248l12 67q-9 36 -50.5 58t-96.5 22q-71 0 -127 -33t-56 -96q0 -48 42 -72t102 -24q55 0 103 21t71 57zM752 1325l143 -297h-195l-75 141l-125 -141h-207l246 297h213z" />
    <glyph glyph-name="atilde" unicode="&#xe3;" horiz-adv-x="968" 
d="M635 520l8 43q4 28 4 41q0 113 -170 113q-142 0 -274 -74l37 219q56 33 144 53.5t175 20.5q163 0 251.5 -72.5t88.5 -204.5q0 -23 -8 -81l-100 -578h-248l8 49q-29 -26 -87.5 -45.5t-125.5 -19.5q-131 0 -220 71t-89 193q0 98 56.5 173.5t146.5 113.5t196 38
q65 0 121.5 -15t85.5 -38zM586 248l12 67q-9 36 -50.5 58t-96.5 22q-71 0 -127 -33t-56 -96q0 -48 42 -72t102 -24q55 0 103 21t71 57zM795 1317h149q-21 -129 -78 -207t-145 -78q-30 0 -57.5 14.5t-44.5 32.5t-38.5 32.5t-41.5 14.5q-57 0 -76 -86h-150q23 129 80 207
t144 78q39 0 72 -23.5t59.5 -47t50.5 -23.5q29 0 48.5 23t27.5 63z" />
    <glyph glyph-name="adieresis" unicode="&#xe4;" horiz-adv-x="968" 
d="M635 520l8 43q4 28 4 41q0 113 -170 113q-142 0 -274 -74l37 219q56 33 144 53.5t175 20.5q163 0 251.5 -72.5t88.5 -204.5q0 -23 -8 -81l-100 -578h-248l8 49q-29 -26 -87.5 -45.5t-125.5 -19.5q-131 0 -220 71t-89 193q0 98 56.5 173.5t146.5 113.5t196 38
q65 0 121.5 -15t85.5 -38zM586 248l12 67q-9 36 -50.5 58t-96.5 22q-71 0 -127 -33t-56 -96q0 -48 42 -72t102 -24q55 0 103 21t71 57zM324 1167q0 58 40 98t97 40q56 0 95.5 -40t39.5 -98q0 -55 -40 -95t-95 -40q-57 0 -97 39.5t-40 95.5zM659 1167q0 58 40 98t96 40
t96.5 -40t40.5 -98q0 -55 -40.5 -95t-96.5 -40t-96 40t-40 95z" />
    <glyph glyph-name="aring" unicode="&#xe5;" horiz-adv-x="968" 
d="M635 520l8 43q4 28 4 41q0 113 -170 113q-142 0 -274 -74l37 219q56 33 144 53.5t175 20.5q163 0 251.5 -72.5t88.5 -204.5q0 -23 -8 -81l-100 -578h-248l8 49q-29 -26 -87.5 -45.5t-125.5 -19.5q-131 0 -220 71t-89 193q0 98 56.5 173.5t146.5 113.5t196 38
q65 0 121.5 -15t85.5 -38zM586 248l12 67q-9 36 -50.5 58t-96.5 22q-71 0 -127 -33t-56 -96q0 -48 42 -72t102 -24q55 0 103 21t71 57zM627 1116q35 0 59.5 23.5t24.5 60.5q0 32 -22 55t-54 23q-35 0 -59.5 -24.5t-24.5 -61.5q0 -32 22 -54t54 -22zM623 997
q-84 0 -139.5 54.5t-55.5 136.5q0 85 61 146t150 61q84 0 139.5 -54.5t55.5 -136.5q0 -84 -61.5 -145.5t-149.5 -61.5z" />
    <glyph glyph-name="ae" unicode="&#xe6;" horiz-adv-x="1480" 
d="M688 119q-157 -137 -360 -137q-133 0 -216 68.5t-83 185.5q0 79 36.5 142.5t97.5 102.5t136 59.5t156 20.5h188q4 25 4 43q-2 54 -45 84.5t-127 30.5q-134 0 -272 -76l39 219q57 33 141 53.5t170 20.5q180 0 254 -119q56 52 132.5 85.5t158.5 33.5q163 0 251.5 -97.5
t88.5 -267.5q0 -83 -19 -176h-585v-14q4 -96 68.5 -145.5t166.5 -49.5q155 0 285 86l-41 -221q-113 -71 -295 -71q-219 0 -330 139zM393 176q64 0 116 28.5t83 78.5l20 112h-166q-43 0 -80.5 -10.5t-67.5 -40.5t-30 -76q0 -44 35.5 -68t89.5 -24zM1081 733q-76 0 -133 -47
t-88 -125h348q2 10 2 31q0 63 -33.5 102t-95.5 39z" />
    <glyph glyph-name="ccedilla" unicode="&#xe7;" horiz-adv-x="837" 
d="M735 272l-39 -233q-83 -59 -219 -59q-190 0 -307 113t-117 308q0 107 37 204.5t103 170.5t164 116.5t212 43.5q79 0 152.5 -23.5t116.5 -62.5l-41 -232q-93 97 -215 97q-118 0 -197.5 -82.5t-79.5 -222.5q0 -97 60 -154t155 -57q125 0 215 73zM324 -381h-234l195 285h239
z" />
    <glyph glyph-name="egrave" unicode="&#xe8;" horiz-adv-x="944" 
d="M883 399h-586v-2q0 -105 65 -158t173 -53q151 0 284 86l-43 -221q-113 -71 -299 -71q-198 0 -311 110.5t-113 296.5q0 145 60 269t177.5 202t268.5 78q165 0 254.5 -97.5t89.5 -267.5q0 -70 -20 -172zM692 1040h-215l-131 291h236zM547 733q-76 0 -132 -46t-87 -122h344
q4 20 4 31q0 61 -34 99t-95 38z" />
    <glyph glyph-name="eacute" unicode="&#xe9;" horiz-adv-x="944" 
d="M883 399h-586v-2q0 -105 65 -158t173 -53q151 0 284 86l-43 -221q-113 -71 -299 -71q-198 0 -311 110.5t-113 296.5q0 145 60 269t177.5 202t268.5 78q165 0 254.5 -97.5t89.5 -267.5q0 -70 -20 -172zM694 1040h-235l215 291h254zM547 733q-76 0 -132 -46t-87 -122h344
q4 20 4 31q0 61 -34 99t-95 38z" />
    <glyph glyph-name="ecircumflex" unicode="&#xea;" horiz-adv-x="944" 
d="M883 399h-586v-2q0 -105 65 -158t173 -53q151 0 284 86l-43 -221q-113 -71 -299 -71q-198 0 -311 110.5t-113 296.5q0 145 60 269t177.5 202t268.5 78q165 0 254.5 -97.5t89.5 -267.5q0 -70 -20 -172zM737 1325l144 -297h-195l-76 141l-125 -141h-206l245 297h213z
M547 733q-76 0 -132 -46t-87 -122h344q4 20 4 31q0 61 -34 99t-95 38z" />
    <glyph glyph-name="edieresis" unicode="&#xeb;" horiz-adv-x="944" 
d="M883 399h-586v-2q0 -105 65 -158t173 -53q151 0 284 86l-43 -221q-113 -71 -299 -71q-198 0 -311 110.5t-113 296.5q0 145 60 269t177.5 202t268.5 78q165 0 254.5 -97.5t89.5 -267.5q0 -70 -20 -172zM309 1167q0 58 40 98t97 40q56 0 96 -40t40 -98q0 -55 -40 -95
t-96 -40q-57 0 -97 39.5t-40 95.5zM645 1167q0 58 39.5 98t95.5 40t97 -40t41 -98q0 -55 -41 -95t-97 -40t-95.5 40t-39.5 95zM547 733q-76 0 -132 -46t-87 -122h344q4 20 4 31q0 61 -34 99t-95 38z" />
    <glyph glyph-name="igrave" unicode="&#xec;" horiz-adv-x="475" 
d="M449 915l-162 -915h-254l162 915h254zM446 1040h-215l-131 291h236z" />
    <glyph glyph-name="iacute" unicode="&#xed;" horiz-adv-x="475" 
d="M449 1040h-236l215 291h254zM449 915l-162 -915h-254l162 915h254z" />
    <glyph glyph-name="icircumflex" unicode="&#xee;" horiz-adv-x="475" 
d="M496 1325l114 -297h-192l-51 137l-101 -137h-203l220 297h213zM449 915l-162 -915h-254l162 915h254z" />
    <glyph glyph-name="idieresis" unicode="&#xef;" horiz-adv-x="475" 
d="M76 1167q0 58 39 98t96 40t97 -40t40 -98q0 -56 -40 -95.5t-97 -39.5t-96 39.5t-39 95.5zM389 1167q0 58 39.5 98t95.5 40q57 0 97.5 -40t40.5 -98q0 -56 -40.5 -95.5t-97.5 -39.5q-56 0 -95.5 40t-39.5 95zM449 915l-162 -915h-254l162 915h254z" />
    <glyph glyph-name="eth" unicode="&#xf0;" horiz-adv-x="1003" 
d="M408 991l-43 125l145 47q-72 85 -156 160v8h281q48 -43 94 -98l168 55l43 -125l-129 -43q139 -237 139 -522q0 -142 -38.5 -260t-105 -195.5t-155.5 -120t-190 -42.5q-189 0 -298.5 111.5t-109.5 297.5q0 155 65 280t173.5 194t236.5 69q92 0 146 -51h6q-23 73 -86 170z
M465 195q102 0 167.5 94.5t65.5 236.5q0 87 -42 140t-117 53q-102 0 -168 -95.5t-66 -238.5q0 -85 42.5 -137.5t117.5 -52.5z" />
    <glyph glyph-name="ntilde" unicode="&#xf1;" horiz-adv-x="1034" 
d="M33 0l162 915h254l-17 -86q103 107 262 107q128 0 200.5 -74.5t72.5 -195.5q0 -34 -6 -72l-103 -594h-256l94 545q6 27 6 45q0 117 -124 117q-59 0 -111 -35t-78 -92l-102 -580h-254zM825 1317h150q-21 -129 -78 -207t-145 -78q-38 0 -71 23.5t-60 47t-52 23.5
q-56 0 -75 -86h-150q23 129 79.5 207t143.5 78q31 0 59 -14.5t45 -32.5t38.5 -32.5t40.5 -14.5q59 0 75 86z" />
    <glyph glyph-name="ograve" unicode="&#xf2;" horiz-adv-x="1003" 
d="M465 195q102 0 167.5 94.5t65.5 238.5q0 87 -42 140t-117 53q-102 0 -168 -95.5t-66 -238.5q0 -86 42.5 -139t117.5 -53zM461 -20q-189 0 -298.5 111.5t-109.5 297.5q0 155 66 281t178 196t246 70q189 0 298 -112t109 -298q0 -116 -38.5 -218.5t-104.5 -174t-156 -112.5
t-190 -41zM700 1040h-215l-131 291h236z" />
    <glyph glyph-name="oacute" unicode="&#xf3;" horiz-adv-x="1003" 
d="M705 1040h-236l215 291h254zM465 195q102 0 167.5 94.5t65.5 238.5q0 87 -42 140t-117 53q-102 0 -168 -95.5t-66 -238.5q0 -86 42.5 -139t117.5 -53zM461 -20q-189 0 -298.5 111.5t-109.5 297.5q0 155 66 281t178 196t246 70q189 0 298 -112t109 -298
q0 -116 -38.5 -218.5t-104.5 -174t-156 -112.5t-190 -41z" />
    <glyph glyph-name="ocircumflex" unicode="&#xf4;" horiz-adv-x="1003" 
d="M748 1325l143 -297h-195l-75 141l-125 -141h-207l246 297h213zM465 195q102 0 167.5 94.5t65.5 238.5q0 87 -42 140t-117 53q-102 0 -168 -95.5t-66 -238.5q0 -86 42.5 -139t117.5 -53zM461 -20q-189 0 -298.5 111.5t-109.5 297.5q0 155 66 281t178 196t246 70
q189 0 298 -112t109 -298q0 -116 -38.5 -218.5t-104.5 -174t-156 -112.5t-190 -41z" />
    <glyph glyph-name="otilde" unicode="&#xf5;" horiz-adv-x="1003" 
d="M465 195q102 0 167.5 94.5t65.5 238.5q0 87 -42 140t-117 53q-102 0 -168 -95.5t-66 -238.5q0 -86 42.5 -139t117.5 -53zM461 -20q-189 0 -298.5 111.5t-109.5 297.5q0 155 66 281t178 196t246 70q189 0 298 -112t109 -298q0 -116 -38.5 -218.5t-104.5 -174t-156 -112.5
t-190 -41zM791 1317h149q-21 -129 -78 -207t-145 -78q-30 0 -57.5 14.5t-44.5 32.5t-38.5 32.5t-41.5 14.5q-57 0 -76 -86h-150q23 129 79.5 207t143.5 78q31 0 59 -14.5t45 -32.5t38.5 -32.5t40.5 -14.5q29 0 48.5 23t27.5 63z" />
    <glyph glyph-name="odieresis" unicode="&#xf6;" horiz-adv-x="1003" 
d="M317 1167q0 58 40.5 98t97.5 40q56 0 95.5 -40t39.5 -98q0 -55 -40 -95t-95 -40q-57 0 -97.5 39.5t-40.5 95.5zM653 1167q0 58 39.5 98t95.5 40t97 -40t41 -98q0 -55 -41 -95t-97 -40t-95.5 40t-39.5 95zM465 195q102 0 167.5 94.5t65.5 238.5q0 87 -42 140t-117 53
q-102 0 -168 -95.5t-66 -238.5q0 -86 42.5 -139t117.5 -53zM461 -20q-189 0 -298.5 111.5t-109.5 297.5q0 155 66 281t178 196t246 70q189 0 298 -112t109 -298q0 -116 -38.5 -218.5t-104.5 -174t-156 -112.5t-190 -41z" />
    <glyph glyph-name="divide" unicode="&#xf7;" horiz-adv-x="1146" 
d="M139 514l35 197h885l-35 -197h-885zM520 967q0 60 42 102.5t102 42.5q61 0 104 -42.5t43 -102.5t-43 -102t-104 -42q-60 0 -102 42t-42 102zM395 258q0 60 42 101.5t102 41.5t102.5 -41.5t42.5 -101.5t-42.5 -102.5t-102.5 -42.5t-102 42.5t-42 102.5z" />
    <glyph glyph-name="oslash" unicode="&#xf8;" 
d="M47 12l96 111q-80 110 -80 266q0 155 66 281t178 196t246 70q143 0 240 -66l90 103l94 -74l-96 -111q80 -107 80 -262q0 -116 -39 -218.5t-105 -174t-156 -112.5t-190 -41q-144 0 -238 61l-90 -102zM303 383q0 -41 8 -68l334 385q-40 29 -96 29q-104 0 -175 -100.5
t-71 -245.5zM475 186q104 0 175 100.5t71 245.5q0 37 -8 64l-332 -385q39 -25 94 -25z" />
    <glyph glyph-name="ugrave" unicode="&#xf9;" horiz-adv-x="1026" 
d="M997 915l-159 -915h-254l14 84q-104 -104 -260 -104q-128 0 -199 73.5t-71 194.5q0 34 6 74l104 593h254l-94 -550q-6 -27 -6 -54q0 -112 119 -112q59 0 112 37.5t78 95.5l102 583h254zM717 1040h-215l-131 291h235z" />
    <glyph glyph-name="uacute" unicode="&#xfa;" horiz-adv-x="1026" 
d="M717 1040h-236l215 291h254zM997 915l-159 -915h-254l14 84q-104 -104 -260 -104q-128 0 -199 73.5t-71 194.5q0 34 6 74l104 593h254l-94 -550q-6 -27 -6 -54q0 -112 119 -112q59 0 112 37.5t78 95.5l102 583h254z" />
    <glyph glyph-name="ucircumflex" unicode="&#xfb;" horiz-adv-x="1026" 
d="M762 1325l143 -297h-194l-76 141l-125 -141h-207l246 297h213zM997 915l-159 -915h-254l14 84q-104 -104 -260 -104q-128 0 -199 73.5t-71 194.5q0 34 6 74l104 593h254l-94 -550q-6 -27 -6 -54q0 -112 119 -112q59 0 112 37.5t78 95.5l102 583h254z" />
    <glyph glyph-name="udieresis" unicode="&#xfc;" horiz-adv-x="1026" 
d="M332 1167q0 58 40 98t97 40q56 0 95.5 -40t39.5 -98q0 -55 -40 -95t-95 -40q-57 0 -97 39.5t-40 95.5zM668 1167q0 58 39.5 98t95.5 40t96.5 -40t40.5 -98q0 -55 -40.5 -95t-96.5 -40q-55 0 -95 40t-40 95zM997 915l-159 -915h-254l14 84q-104 -104 -260 -104
q-128 0 -199 73.5t-71 194.5q0 34 6 74l104 593h254l-94 -550q-6 -27 -6 -54q0 -112 119 -112q59 0 112 37.5t78 95.5l102 583h254z" />
    <glyph glyph-name="yacute" unicode="&#xfd;" horiz-adv-x="993" 
d="M301 -338h-254l207 352l-145 901h243l92 -608l340 608h265zM684 1040h-235l215 291h254z" />
    <glyph glyph-name="thorn" unicode="&#xfe;" horiz-adv-x="1069" 
d="M301 78l-74 -416h-254l293 1669h254l-88 -502q41 46 106.5 76.5t135.5 30.5q164 0 254 -111t90 -286q0 -154 -62.5 -282t-175 -202.5t-252.5 -74.5q-79 0 -139.5 28.5t-87.5 69.5zM391 596l-49 -289q14 -48 57 -77t105 -29q117 0 186.5 90.5t69.5 232.5q0 85 -44.5 138
t-123.5 53q-120 0 -201 -119z" />
    <glyph glyph-name="ydieresis" unicode="&#xff;" horiz-adv-x="993" 
d="M301 -338h-254l207 352l-145 901h243l92 -608l340 608h265zM299 1167q0 58 40 98t97 40q56 0 95.5 -40t39.5 -98q0 -55 -39.5 -95t-95.5 -40q-57 0 -97 39.5t-40 95.5zM635 1167q0 58 39.5 98t95.5 40t96.5 -40t40.5 -98q0 -55 -40.5 -95t-96.5 -40t-95.5 40t-39.5 95z
" />
    <glyph glyph-name="Amacron" unicode="&#x100;" horiz-adv-x="1284" 
d="M670 1257h260l250 -1257h-262l-58 303h-471l-168 -303h-264zM563 1370l33 186h498l-33 -186h-498zM743 942l-231 -418h307z" />
    <glyph glyph-name="amacron" unicode="&#x101;" horiz-adv-x="968" 
d="M635 520l8 43q4 28 4 41q0 113 -170 113q-142 0 -274 -74l37 219q56 33 144 53.5t175 20.5q163 0 251.5 -72.5t88.5 -204.5q0 -23 -8 -81l-100 -578h-248l8 49q-29 -26 -87.5 -45.5t-125.5 -19.5q-131 0 -220 71t-89 193q0 98 56.5 173.5t146.5 113.5t196 38
q65 0 121.5 -15t85.5 -38zM586 248l12 67q-9 36 -50.5 58t-96.5 22q-71 0 -127 -33t-56 -96q0 -48 42 -72t102 -24q55 0 103 21t71 57zM365 1057l32 186h486l-33 -186h-485z" />
    <glyph glyph-name="Abreve" unicode="&#x102;" horiz-adv-x="1284" 
d="M670 1257h260l250 -1257h-262l-58 303h-471l-168 -303h-264zM817 1358q-122 0 -190.5 73.5t-46.5 200.5h180q-9 -49 12.5 -73.5t65.5 -24.5q45 0 75 24.5t37 73.5h180q-23 -133 -103.5 -203.5t-209.5 -70.5zM743 942l-231 -418h307z" />
    <glyph glyph-name="abreve" unicode="&#x103;" horiz-adv-x="968" 
d="M635 520l8 43q4 28 4 41q0 113 -170 113q-142 0 -274 -74l37 219q56 33 144 53.5t175 20.5q163 0 251.5 -72.5t88.5 -204.5q0 -23 -8 -81l-100 -578h-248l8 49q-29 -26 -87.5 -45.5t-125.5 -19.5q-131 0 -220 71t-89 193q0 98 56.5 173.5t146.5 113.5t196 38
q65 0 121.5 -15t85.5 -38zM586 248l12 67q-9 36 -50.5 58t-96.5 22q-71 0 -127 -33t-56 -96q0 -48 42 -72t102 -24q55 0 103 21t71 57zM608 1008q-123 0 -190.5 77t-42.5 213h180q-9 -56 8 -87t62 -31q46 0 75.5 31.5t38.5 86.5h181q-26 -141 -107.5 -215.5t-204.5 -74.5z
" />
    <glyph glyph-name="Aogonek" unicode="&#x104;" horiz-adv-x="1284" 
d="M670 1257h260l250 -1257q-14 -16 -41 -46.5t-38 -44t-26 -34t-20.5 -35t-5.5 -28.5q0 -15 8.5 -25t23.5 -10q27 0 80 33l-24 -152q-67 -43 -136 -43q-68 0 -104.5 33t-36.5 90q0 17 2.5 33t9 33t11 29.5t17 30.5t18 27t22.5 28.5t22.5 26t25.5 28t24 26.5h-94l-56 303
h-473l-168 -303h-264zM743 942l-231 -418h309z" />
    <glyph glyph-name="aogonek" unicode="&#x105;" horiz-adv-x="968" 
d="M586 248l12 67q-9 36 -50.5 58t-96.5 22q-71 0 -127 -33t-56 -96q0 -48 42 -72t102 -24q55 0 103 21t71 57zM623 0h-80l8 49q-29 -26 -87.5 -45.5t-125.5 -19.5q-131 0 -220 71t-89 193q0 98 56.5 173.5t146.5 113.5t196 38q65 0 121.5 -15t85.5 -38l8 43q4 28 4 41
q0 113 -170 113q-142 0 -274 -74l37 219q56 33 144 53.5t175 20.5q163 0 251.5 -72.5t88.5 -204.5q0 -23 -8 -81l-100 -578q-15 -17 -41.5 -46.5t-38 -43.5t-26.5 -34t-20.5 -35t-5.5 -29q0 -35 33 -35q27 0 80 33l-27 -152q-64 -43 -133 -43q-68 0 -104.5 33t-36.5 90
q0 17 2.5 33t9 33t11 29.5t17 30.5t18 27t22.5 28.5t22.5 26t25.5 28t24 26.5z" />
    <glyph glyph-name="Cacute" unicode="&#x106;" horiz-adv-x="1101" 
d="M989 326l-49 -271q-134 -75 -295 -75q-250 0 -403.5 152.5t-153.5 406.5q0 160 56 299t151.5 234.5t224.5 150.5t271 55q105 0 198 -27.5t148 -72.5l-45 -263q-129 123 -301 123q-190 0 -313.5 -136t-123.5 -353q0 -147 87 -237.5t227 -90.5q174 0 321 105zM946 1370
h-258l205 250h285z" />
    <glyph glyph-name="cacute" unicode="&#x107;" horiz-adv-x="837" 
d="M694 1040h-235l215 291h254zM735 272l-39 -233q-83 -59 -219 -59q-190 0 -307 113t-117 308q0 107 37 204.5t103 170.5t164 116.5t212 43.5q79 0 152.5 -23.5t116.5 -62.5l-41 -232q-93 97 -215 97q-118 0 -197.5 -82.5t-79.5 -222.5q0 -97 60 -154t155 -57q125 0 215 73
z" />
    <glyph glyph-name="Ccircumflex" unicode="&#x108;" horiz-adv-x="1101" 
d="M989 326l-49 -271q-134 -75 -295 -75q-250 0 -403.5 152.5t-153.5 406.5q0 160 56 299t151.5 234.5t224.5 150.5t271 55q105 0 198 -27.5t148 -72.5l-45 -263q-129 123 -301 123q-190 0 -313.5 -136t-123.5 -353q0 -147 87 -237.5t227 -90.5q174 0 321 105zM975 1630
l158 -260h-207l-78 111l-115 -111h-223l252 260h213z" />
    <glyph glyph-name="ccircumflex" unicode="&#x109;" horiz-adv-x="837" 
d="M737 1325l144 -297h-195l-76 141l-125 -141h-206l245 297h213zM735 272l-39 -233q-83 -59 -219 -59q-190 0 -307 113t-117 308q0 107 37 204.5t103 170.5t164 116.5t212 43.5q79 0 152.5 -23.5t116.5 -62.5l-41 -232q-93 97 -215 97q-118 0 -197.5 -82.5t-79.5 -222.5
q0 -97 60 -154t155 -57q125 0 215 73z" />
    <glyph glyph-name="Cdotaccent" unicode="&#x10a;" horiz-adv-x="1101" 
d="M1004 1503q0 -62 -45.5 -103.5t-106.5 -41.5t-106.5 41.5t-45.5 103.5q0 63 45 104.5t107 41.5t107 -41.5t45 -104.5zM989 326l-49 -271q-134 -75 -295 -75q-250 0 -403.5 152.5t-153.5 406.5q0 160 56 299t151.5 234.5t224.5 150.5t271 55q105 0 198 -27.5t148 -72.5
l-45 -263q-129 123 -301 123q-190 0 -313.5 -136t-123.5 -353q0 -147 87 -237.5t227 -90.5q174 0 321 105z" />
    <glyph glyph-name="cdotaccent" unicode="&#x10b;" horiz-adv-x="837" 
d="M735 272l-39 -233q-83 -59 -219 -59q-190 0 -307 113t-117 308q0 107 37 204.5t103 170.5t164 116.5t212 43.5q79 0 152.5 -23.5t116.5 -62.5l-41 -232q-93 97 -215 97q-118 0 -197.5 -82.5t-79.5 -222.5q0 -97 60 -154t155 -57q125 0 215 73zM764 1186q0 -63 -45 -104.5
t-107 -41.5t-106.5 41.5t-44.5 104.5q0 62 45 103.5t106 41.5t106.5 -41.5t45.5 -103.5z" />
    <glyph glyph-name="Ccaron" unicode="&#x10c;" horiz-adv-x="1101" 
d="M989 326l-49 -271q-134 -75 -295 -75q-250 0 -403.5 152.5t-153.5 406.5q0 160 56 299t151.5 234.5t224.5 150.5t271 55q105 0 198 -27.5t148 -72.5l-45 -263q-129 123 -301 123q-190 0 -313.5 -136t-123.5 -353q0 -147 87 -237.5t227 -90.5q174 0 321 105zM727 1368
l-158 260h207l78 -110l115 110h223l-252 -260h-213z" />
    <glyph glyph-name="ccaron" unicode="&#x10d;" horiz-adv-x="837" 
d="M483 1028l-143 297h195l75 -141l125 141h207l-246 -297h-213zM735 272l-39 -233q-83 -59 -219 -59q-190 0 -307 113t-117 308q0 107 37 204.5t103 170.5t164 116.5t212 43.5q79 0 152.5 -23.5t116.5 -62.5l-41 -232q-93 97 -215 97q-118 0 -197.5 -82.5t-79.5 -222.5
q0 -97 60 -154t155 -57q125 0 215 73z" />
    <glyph glyph-name="Dcaron" unicode="&#x10e;" horiz-adv-x="1251" 
d="M633 1368l-158 260h207l78 -110l114 110h224l-252 -260h-213zM346 231h178q203 0 320 134.5t117 349.5q0 150 -78 231.5t-232 81.5h-164zM45 0l221 1257h426q259 0 396 -138.5t137 -389.5q0 -205 -88 -370t-255.5 -262t-385.5 -97h-451z" />
    <glyph glyph-name="dcaron" unicode="&#x10f;" horiz-adv-x="1069" 
d="M1333 989h-203l156 342h205zM768 838l86 493h254l-234 -1331h-253l16 86q-41 -46 -106 -76t-136 -30q-164 0 -253 111t-89 286q0 110 36.5 212t100 178.5t155.5 122.5t196 46q79 0 139.5 -28.5t87.5 -69.5zM678 319l51 289q-16 47 -59.5 77t-104.5 30q-113 0 -184.5 -97
t-71.5 -227q0 -84 44 -137t124 -53q120 0 201 118z" />
    <glyph glyph-name="Dcroat" unicode="&#x110;" horiz-adv-x="1282" 
d="M68 541l36 211h103l90 505h426q259 0 395.5 -138.5t136.5 -389.5q0 -205 -88 -370t-255.5 -262t-385.5 -97h-450l94 541h-102zM377 231h178q203 0 319.5 134.5t116.5 349.5q0 151 -77.5 232t-231.5 81h-164l-49 -276h211l-37 -211h-211z" />
    <glyph glyph-name="dcroat" unicode="&#x111;" horiz-adv-x="1069" 
d="M608 1018l31 172h190l25 141h254l-25 -141h113l-31 -172h-112l-179 -1018h-253l16 86q-41 -46 -106 -76t-136 -30q-164 0 -253 111t-89 286q0 110 36.5 212t100 178.5t155.5 122.5t196 46q79 0 139.5 -28.5t87.5 -69.5l31 180h-191zM678 319l51 289q-16 47 -59.5 77
t-104.5 30q-113 0 -184.5 -97t-71.5 -227q0 -84 44 -137t124 -53q120 0 201 118z" />
    <glyph glyph-name="Emacron" unicode="&#x112;" horiz-adv-x="1056" 
d="M467 1370l33 186h497l-32 -186h-498zM266 1257h856l-41 -229h-596l-49 -274h543l-41 -224h-541l-53 -299h596l-39 -231h-856z" />
    <glyph glyph-name="emacron" unicode="&#x113;" horiz-adv-x="944" 
d="M883 399h-586v-2q0 -105 65 -158t173 -53q151 0 284 86l-43 -221q-113 -71 -299 -71q-198 0 -311 110.5t-113 296.5q0 145 60 269t177.5 202t268.5 78q165 0 254.5 -97.5t89.5 -267.5q0 -70 -20 -172zM350 1057l33 186h485l-32 -186h-486zM547 733q-76 0 -132 -46
t-87 -122h344q4 20 4 31q0 61 -34 99t-95 38z" />
    <glyph glyph-name="Ebreve" unicode="&#x114;" horiz-adv-x="1056" 
d="M723 1358q-122 0 -191 73.5t-47 200.5h181q-17 -98 77 -98q45 0 75.5 24.5t37.5 73.5h180q-23 -133 -103.5 -203.5t-209.5 -70.5zM266 1257h856l-41 -229h-596l-49 -274h543l-41 -224h-541l-53 -299h596l-39 -231h-856z" />
    <glyph glyph-name="ebreve" unicode="&#x115;" horiz-adv-x="944" 
d="M883 399h-586v-2q0 -105 65 -158t173 -53q151 0 284 86l-43 -221q-113 -71 -299 -71q-198 0 -311 110.5t-113 296.5q0 145 60 269t177.5 202t268.5 78q165 0 254.5 -97.5t89.5 -267.5q0 -70 -20 -172zM594 1008q-123 0 -191 77t-43 213h181q-20 -118 69 -118
q46 0 76 31.5t39 86.5h180q-26 -141 -107 -215.5t-204 -74.5zM547 733q-76 0 -132 -46t-87 -122h344q4 20 4 31q0 61 -34 99t-95 38z" />
    <glyph glyph-name="Edotaccent" unicode="&#x116;" horiz-adv-x="1056" 
d="M889 1503q0 -62 -45.5 -103.5t-106.5 -41.5t-106 41.5t-45 103.5q0 63 44.5 104.5t106.5 41.5t107 -41.5t45 -104.5zM266 1257h856l-41 -229h-596l-49 -274h543l-41 -224h-541l-53 -299h596l-39 -231h-856z" />
    <glyph glyph-name="edotaccent" unicode="&#x117;" horiz-adv-x="944" 
d="M883 399h-586v-2q0 -105 65 -158t173 -53q151 0 284 86l-43 -221q-113 -71 -299 -71q-198 0 -311 110.5t-113 296.5q0 145 60 269t177.5 202t268.5 78q165 0 254.5 -97.5t89.5 -267.5q0 -70 -20 -172zM766 1186q0 -63 -45 -104.5t-107 -41.5t-106.5 41.5t-44.5 104.5
q0 62 45 103.5t106 41.5t106.5 -41.5t45.5 -103.5zM547 733q-76 0 -132 -46t-87 -122h344q4 20 4 31q0 61 -34 99t-95 38z" />
    <glyph glyph-name="Eogonek" unicode="&#x118;" horiz-adv-x="1056" 
d="M266 1257h856l-41 -229h-596l-49 -274h543l-41 -224h-541l-53 -299h596l-39 -231h-78q-16 -19 -41.5 -47t-38 -42.5t-27 -34t-20.5 -34.5t-6 -30t9 -25t24 -10q29 0 82 33l-27 -152q-67 -43 -135 -43t-104.5 33t-36.5 90q0 19 4.5 39t8.5 34.5t17 35.5t18 30t25.5 32.5
t24.5 29t29 32t28 29.5h-612z" />
    <glyph glyph-name="eogonek" unicode="&#x119;" horiz-adv-x="944" 
d="M883 399h-584v-18q4 -95 68.5 -145t167.5 -50q151 0 284 86l-43 -221q-9 -6 -27.5 -18.5t-31.5 -22t-29 -22.5q-50 -41 -82.5 -91t-32.5 -85q0 -15 9 -25t24 -10q29 0 82 33l-26 -152q-67 -43 -136 -43q-68 0 -104.5 33t-36.5 90q0 66 34.5 122t98.5 120h-41
q-198 0 -311 110.5t-113 296.5q0 145 60 269t177.5 202t268.5 78q165 0 254.5 -97.5t89.5 -267.5q0 -70 -20 -172zM547 733q-76 0 -132 -45.5t-89 -122.5h346q4 20 4 31q0 61 -34 99t-95 38z" />
    <glyph glyph-name="Ecaron" unicode="&#x11a;" horiz-adv-x="1056" 
d="M612 1368l-157 260h207l77 -110l115 110h223l-252 -260h-213zM266 1257h856l-41 -229h-596l-49 -274h543l-41 -224h-541l-53 -299h596l-39 -231h-856z" />
    <glyph glyph-name="ecaron" unicode="&#x11b;" horiz-adv-x="944" 
d="M883 399h-586v-2q0 -105 65 -158t173 -53q151 0 284 86l-43 -221q-113 -71 -299 -71q-198 0 -311 110.5t-113 296.5q0 145 60 269t177.5 202t268.5 78q165 0 254.5 -97.5t89.5 -267.5q0 -70 -20 -172zM485 1028l-143 297h195l75 -141l125 141h207l-246 -297h-213z
M547 733q-76 0 -132 -46t-87 -122h344q4 20 4 31q0 61 -34 99t-95 38z" />
    <glyph glyph-name="Gcircumflex" unicode="&#x11c;" horiz-adv-x="1222" 
d="M637 -20q-248 0 -398.5 157t-150.5 406q0 156 55 293.5t148.5 234t221.5 152t271 55.5q248 0 398 -111l-45 -262q-65 65 -157.5 99t-195.5 34q-189 0 -309.5 -135t-120.5 -354q0 -150 78.5 -243t210.5 -93q135 0 227 57l35 199h-213l37 215h451l-97 -539
q-179 -165 -446 -165zM981 1630l158 -260h-207l-78 111l-115 -111h-223l252 260h213z" />
    <glyph glyph-name="gcircumflex" unicode="&#x11d;" horiz-adv-x="1062" 
d="M805 1325l143 -297h-194l-76 141l-125 -141h-207l246 297h213zM635 74l6 41q-41 -45 -104 -74t-134 -29q-166 0 -257 109.5t-91 279.5q0 142 61.5 264t174.5 196.5t252 74.5q78 0 138 -28t87 -68l14 75h254l-147 -833q-37 -218 -177 -329t-356 -111q-100 0 -194.5 24.5
t-149.5 65.5l47 239q114 -114 297 -114q112 0 185.5 55t93.5 162zM680 334l51 282q-14 44 -59.5 73.5t-106.5 29.5q-113 0 -184.5 -93t-71.5 -220q0 -81 45 -133t123 -52q64 0 116.5 32t86.5 81z" />
    <glyph glyph-name="Gbreve" unicode="&#x11e;" horiz-adv-x="1222" 
d="M844 1358q-122 0 -191 73.5t-47 200.5h180q-9 -49 12.5 -73.5t65.5 -24.5q45 0 75.5 24.5t37.5 73.5h180q-23 -133 -103.5 -203.5t-209.5 -70.5zM637 -20q-248 0 -398.5 157t-150.5 406q0 156 55 293.5t148.5 234t221.5 152t271 55.5q248 0 398 -111l-45 -262
q-65 65 -157.5 99t-195.5 34q-189 0 -309.5 -135t-120.5 -354q0 -150 78.5 -243t210.5 -93q135 0 227 57l35 199h-213l37 215h451l-97 -539q-179 -165 -446 -165z" />
    <glyph glyph-name="gbreve" unicode="&#x11f;" horiz-adv-x="1062" 
d="M635 74l6 41q-41 -45 -104 -74t-134 -29q-166 0 -257 109.5t-91 279.5q0 142 61.5 264t174.5 196.5t252 74.5q78 0 138 -28t87 -68l14 75h254l-147 -833q-37 -218 -177 -329t-356 -111q-100 0 -194.5 24.5t-149.5 65.5l47 239q114 -114 297 -114q112 0 185.5 55t93.5 162
zM680 334l51 282q-14 44 -59.5 73.5t-106.5 29.5q-113 0 -184.5 -93t-71.5 -220q0 -81 45 -133t123 -52q64 0 116.5 32t86.5 81zM662 1008q-123 0 -191 77t-43 213h180q-9 -56 8 -87t62 -31q46 0 76 31.5t39 86.5h180q-26 -141 -107 -215.5t-204 -74.5z" />
    <glyph glyph-name="Gdotaccent" unicode="&#x120;" horiz-adv-x="1222" 
d="M1010 1503q0 -62 -45.5 -103.5t-106.5 -41.5t-106 41.5t-45 103.5q0 63 44.5 104.5t106.5 41.5t107 -41.5t45 -104.5zM637 -20q-248 0 -398.5 157t-150.5 406q0 156 55 293.5t148.5 234t221.5 152t271 55.5q248 0 398 -111l-45 -262q-65 65 -157.5 99t-195.5 34
q-189 0 -309.5 -135t-120.5 -354q0 -150 78.5 -243t210.5 -93q135 0 227 57l35 199h-213l37 215h451l-97 -539q-179 -165 -446 -165z" />
    <glyph glyph-name="gdotaccent" unicode="&#x121;" horiz-adv-x="1062" 
d="M635 74l6 41q-41 -45 -104 -74t-134 -29q-166 0 -257 109.5t-91 279.5q0 142 61.5 264t174.5 196.5t252 74.5q78 0 138 -28t87 -68l14 75h254l-147 -833q-37 -218 -177 -329t-356 -111q-100 0 -194.5 24.5t-149.5 65.5l47 239q114 -114 297 -114q112 0 185.5 55t93.5 162
zM680 334l51 282q-14 44 -59.5 73.5t-106.5 29.5q-113 0 -184.5 -93t-71.5 -220q0 -81 45 -133t123 -52q64 0 116.5 32t86.5 81zM834 1186q0 -63 -45 -104.5t-107 -41.5t-107 41.5t-45 104.5q0 62 45.5 103.5t106.5 41.5t106.5 -41.5t45.5 -103.5z" />
    <glyph glyph-name="Gcommaaccent" unicode="&#x122;" horiz-adv-x="1222" 
d="M395 -461l101 121q-40 12 -64 44.5t-24 78.5q0 60 40.5 98.5t100.5 38.5q61 0 102 -39t41 -106q0 -80 -80 -170l-55 -66h-162zM637 -20q-248 0 -398.5 157t-150.5 406q0 156 55 293.5t148.5 234t221.5 152t271 55.5q248 0 398 -111l-45 -262q-65 65 -157.5 99t-195.5 34
q-189 0 -309.5 -135t-120.5 -354q0 -150 78.5 -243t210.5 -93q135 0 227 57l35 199h-213l37 215h451l-97 -539q-179 -165 -446 -165z" />
    <glyph glyph-name="gcommaaccent" unicode="&#x123;" horiz-adv-x="1062" 
d="M844 1425l-111 -131q40 -12 65 -45.5t25 -79.5q0 -59 -41 -97t-102 -38t-102 39.5t-41 106.5q0 82 79 168l66 77h162zM635 74l6 41q-41 -45 -104 -74t-134 -29q-166 0 -257 109.5t-91 279.5q0 142 61.5 264t174.5 196.5t252 74.5q78 0 138 -28t87 -68l14 75h254
l-147 -833q-37 -218 -177 -329t-356 -111q-100 0 -194.5 24.5t-149.5 65.5l47 239q114 -114 297 -114q112 0 185.5 55t93.5 162zM680 334l51 282q-14 44 -59.5 73.5t-106.5 29.5q-113 0 -184.5 -93t-71.5 -220q0 -81 45 -133t123 -52q64 0 116.5 32t86.5 81z" />
    <glyph glyph-name="Hcircumflex" unicode="&#x124;" horiz-adv-x="1335" 
d="M1100 1257h262l-221 -1257h-262l92 528h-570l-92 -528h-264l221 1257h264l-90 -499h572zM979 1630l158 -260h-207l-78 111l-115 -111h-223l252 260h213z" />
    <glyph glyph-name="hcircumflex" unicode="&#x125;" horiz-adv-x="1034" 
d="M694 936q128 0 200.5 -74.5t72.5 -195.5q0 -34 -6 -72l-103 -594h-256l94 545q6 27 6 45q0 117 -124 117q-59 0 -111 -35t-78 -92l-102 -580h-254l233 1331h254l-88 -502q103 107 262 107zM770 1645l158 -261h-207l-78 111l-115 -111h-223l252 261h213z" />
    <glyph glyph-name="Hbar" unicode="&#x126;" horiz-adv-x="1398" 
d="M1130 1257h263l-35 -192h104l-37 -209h-104l-150 -856h-262l78 444h-571l-76 -444h-264l149 856h-102l35 209h104l35 192h264l-35 -192h570zM453 651h569l37 205h-570z" />
    <glyph glyph-name="hbar" unicode="&#x127;" horiz-adv-x="1034" 
d="M100 1018l29 172h113l24 141h254l-24 -141h190l-31 -172h-190l-33 -189q103 107 262 107q128 0 200.5 -74.5t72.5 -195.5q0 -34 -6 -72l-103 -594h-256l94 545q6 27 6 45q0 117 -124 117q-59 0 -111 -35t-78 -92l-102 -580h-254l178 1018h-111z" />
    <glyph glyph-name="Itilde" unicode="&#x128;" horiz-adv-x="501" 
d="M530 1257l-221 -1257h-264l221 1257h264zM614 1647h152q-21 -129 -79 -208t-146 -79q-38 0 -73.5 23.5t-65 47t-54.5 23.5q-58 0 -74 -86h-151q23 129 79.5 207t143.5 78q39 0 75.5 -23t66 -46t53.5 -23q57 0 73 86z" />
    <glyph glyph-name="itilde" unicode="&#x129;" horiz-adv-x="475" 
d="M508 1317h149q-23 -128 -77 -206.5t-134 -78.5q-28 0 -51.5 14t-37 30t-31.5 30t-35 14q-51 0 -66 -80h-149q23 129 76 207t133 78q28 0 51.5 -13.5t37.5 -30.5t31.5 -30.5t34.5 -13.5q53 0 68 80zM449 915l-162 -915h-254l162 915h254z" />
    <glyph glyph-name="Imacron" unicode="&#x12a;" horiz-adv-x="501" 
d="M530 1257l-221 -1257h-264l221 1257h264zM170 1370l33 186h497l-32 -186h-498z" />
    <glyph glyph-name="imacron" unicode="&#x12b;" horiz-adv-x="475" 
d="M123 1057l35 186h444l-33 -186h-446zM449 915l-162 -915h-254l162 915h254z" />
    <glyph glyph-name="Ibreve" unicode="&#x12c;" horiz-adv-x="501" 
d="M530 1257l-221 -1257h-264l221 1257h264zM426 1358q-122 0 -191 73.5t-47 200.5h181q-17 -98 77 -98q45 0 75.5 24.5t37.5 73.5h180q-23 -133 -103.5 -203.5t-209.5 -70.5z" />
    <glyph glyph-name="ibreve" unicode="&#x12d;" horiz-adv-x="475" 
d="M344 1008q-116 0 -175.5 76.5t-33.5 213.5h176q-23 -118 54 -118q76 0 96 118h178q-24 -140 -102.5 -215t-192.5 -75zM449 915l-162 -915h-254l162 915h254z" />
    <glyph glyph-name="Iogonek" unicode="&#x12e;" horiz-adv-x="501" 
d="M530 1257l-221 -1257q-14 -16 -41 -46.5t-38 -44t-26 -34t-20.5 -35t-5.5 -28.5q0 -35 33 -35q27 0 80 33l-27 -152q-64 -43 -133 -43q-68 0 -104.5 33t-36.5 90q0 15 2.5 30.5t5.5 28t11 28.5t12.5 26t16.5 26.5t17.5 24t21 25.5t20 23.5t22.5 25.5t22 24h-96l221 1257
h264z" />
    <glyph glyph-name="iogonek" unicode="&#x12f;" horiz-adv-x="475" 
d="M518 1182q0 -64 -44.5 -106t-106.5 -42t-106 40.5t-44 101.5q0 65 45.5 107t108.5 42q61 0 104 -41t43 -102zM33 0l162 915h254l-162 -915q-16 -19 -40.5 -47t-37.5 -43t-27 -34.5t-20 -34.5t-6 -29q0 -35 34 -35q27 0 80 33l-26 -152q-64 -43 -133 -43q-68 0 -105 33
t-37 90q0 30 10.5 61.5t19.5 50.5t37.5 54.5t37.5 45t47 50.5h-88z" />
    <glyph glyph-name="Idotaccent" unicode="&#x130;" horiz-adv-x="501" 
d="M530 1257l-221 -1257h-264l221 1257h264zM594 1503q0 -62 -45.5 -103.5t-106.5 -41.5t-106 41.5t-45 103.5q0 63 44.5 104.5t106.5 41.5t107 -41.5t45 -104.5z" />
    <glyph glyph-name="dotlessi" unicode="&#x131;" horiz-adv-x="475" 
d="M449 915l-162 -915h-254l162 915h254z" />
    <glyph glyph-name="IJ" unicode="&#x132;" horiz-adv-x="1292" 
d="M530 1257l-221 -1257h-264l221 1257h264zM442 51l45 256q59 -44 111 -66t119 -22q97 0 147.5 58t75.5 192l137 788h264l-145 -819q-41 -235 -165.5 -346.5t-332.5 -111.5q-76 0 -145.5 21t-110.5 50z" />
    <glyph glyph-name="ij" unicode="&#x133;" horiz-adv-x="948" 
d="M449 915l-162 -915h-254l162 915h254zM518 1182q0 -64 -44.5 -106t-106.5 -42t-106 40.5t-44 101.5q0 65 45.5 107t108.5 42q61 0 104 -41t43 -102zM272 -330l37 205q39 -27 86 -27q45 0 70 27.5t37 89.5l168 950h254l-170 -952q-26 -156 -112.5 -238.5t-227.5 -82.5
q-88 0 -142 28zM993 1182q0 -64 -44.5 -106t-106.5 -42t-106 40.5t-44 101.5q0 65 45.5 107t108.5 42q61 0 104 -41t43 -102z" />
    <glyph glyph-name="Jcircumflex" unicode="&#x134;" horiz-adv-x="833" 
d="M-16 51l45 256q59 -45 110.5 -66.5t118.5 -21.5q97 0 147.5 58t75.5 192l137 788h265l-146 -819q-41 -235 -165 -346.5t-332 -111.5q-76 0 -145.5 21t-110.5 50zM915 1630l158 -260h-207l-78 111l-114 -111h-223l251 260h213z" />
    <glyph glyph-name="jcircumflex" unicode="&#x135;" horiz-adv-x="475" 
d="M496 1325l114 -297h-192l-51 137l-101 -137h-203l220 297h213zM-203 -330l37 205q39 -27 86 -27q45 0 70 27.5t37 89.5l168 950h254l-170 -952q-26 -156 -112.5 -238.5t-227.5 -82.5q-88 0 -142 28z" />
    <glyph glyph-name="Kcommaaccent" unicode="&#x136;" horiz-adv-x="1206" 
d="M324 -461l100 121q-40 12 -64 44.5t-24 78.5q0 60 40.5 98.5t100.5 38.5q61 0 102.5 -39t41.5 -106q0 -80 -80 -170l-56 -66h-161zM530 1257l-96 -540l545 540h330l-641 -620l440 -637h-307l-393 569l-99 -569h-264l221 1257h264z" />
    <glyph glyph-name="kcommaaccent" unicode="&#x137;" horiz-adv-x="995" 
d="M606 475l309 -475h-280l-275 426l-73 -426h-254l233 1331h254l-137 -776l371 360h319zM238 -461l100 121q-40 12 -64 44.5t-24 78.5q0 60 40.5 98.5t100.5 38.5q61 0 102.5 -39t41.5 -106q0 -80 -80 -170l-56 -66h-161z" />
    <glyph glyph-name="kgreenlandic" unicode="&#x138;" horiz-adv-x="995" 
d="M606 475l309 -475h-280l-275 424l-73 -424h-254l162 915h254l-64 -360l369 360h319z" />
    <glyph glyph-name="Lacute" unicode="&#x139;" horiz-adv-x="1038" 
d="M561 1370h-258l205 250h285zM45 0l221 1257h264l-182 -1026h588l-41 -231h-850z" />
    <glyph glyph-name="lacute" unicode="&#x13a;" horiz-adv-x="475" 
d="M535 1391h-259l205 249h285zM520 1331l-233 -1331h-254l233 1331h254z" />
    <glyph glyph-name="Lcommaaccent" unicode="&#x13b;" horiz-adv-x="1038" 
d="M279 -461l100 121q-40 12 -64 44.5t-24 78.5q0 60 40.5 98.5t100.5 38.5q61 0 102 -39t41 -106q0 -81 -79 -170l-56 -66h-161zM45 0l221 1257h264l-182 -1026h588l-41 -231h-850z" />
    <glyph glyph-name="lcommaaccent" unicode="&#x13c;" horiz-adv-x="475" 
d="M-39 -461l100 121q-40 12 -64 44.5t-24 78.5q0 60 40.5 98.5t101.5 38.5t102 -39t41 -106q0 -80 -80 -170l-55 -66h-162zM520 1331l-233 -1331h-254l233 1331h254z" />
    <glyph glyph-name="Lcaron" unicode="&#x13d;" horiz-adv-x="1038" 
d="M842 915h-203l156 342h204zM45 0l221 1257h264l-182 -1026h588l-41 -231h-850z" />
    <glyph glyph-name="lcaron" unicode="&#x13e;" horiz-adv-x="475" 
d="M743 989h-202l155 342h205zM520 1331l-233 -1331h-254l233 1331h254z" />
    <glyph glyph-name="Ldot" unicode="&#x13f;" horiz-adv-x="1038" 
d="M45 0l221 1257h264l-182 -1026h588l-41 -231h-850zM958 645q0 -63 -44.5 -104t-106.5 -41t-107 41t-45 104q0 62 45.5 104t106.5 42t106 -42t45 -104z" />
    <glyph glyph-name="ldot" unicode="&#x140;" horiz-adv-x="825" 
d="M520 1331l-233 -1331h-254l233 1331h254zM829 666q0 -63 -44.5 -104.5t-106.5 -41.5t-107 41.5t-45 104.5q0 62 45.5 103.5t106.5 41.5t106 -41.5t45 -103.5z" />
    <glyph glyph-name="Lslash" unicode="&#x141;" horiz-adv-x="1069" 
d="M43 414l41 227l113 45l100 571h264l-86 -481l268 109l-41 -228l-268 -106l-55 -320h588l-41 -231h-850l80 459z" />
    <glyph glyph-name="lslash" unicode="&#x142;" horiz-adv-x="561" 
d="M563 1331l-82 -461l140 64l-37 -201l-138 -61l-116 -672h-254l100 569l-121 -55l37 201l119 55l98 561h254z" />
    <glyph glyph-name="Nacute" unicode="&#x143;" horiz-adv-x="1292" 
d="M930 1370h-258l205 250h284zM1319 1257l-221 -1257h-203l-446 862l-150 -862h-254l221 1257h242l414 -819l143 819h254z" />
    <glyph glyph-name="nacute" unicode="&#x144;" horiz-adv-x="1034" 
d="M739 1040h-235l215 291h254zM33 0l162 915h254l-17 -86q103 107 262 107q128 0 200.5 -74.5t72.5 -195.5q0 -34 -6 -72l-103 -594h-256l94 545q6 27 6 45q0 117 -124 117q-59 0 -111 -35t-78 -92l-102 -580h-254z" />
    <glyph glyph-name="Ncommaaccent" unicode="&#x145;" horiz-adv-x="1292" 
d="M373 -461l100 121q-40 12 -64 44.5t-24 78.5q0 60 40.5 98.5t100.5 38.5q61 0 102.5 -39t41.5 -106q0 -80 -80 -170l-55 -66h-162zM1319 1257l-221 -1257h-203l-446 862l-150 -862h-254l221 1257h242l414 -819l143 819h254z" />
    <glyph glyph-name="ncommaaccent" unicode="&#x146;" horiz-adv-x="1034" 
d="M250 -461l100 121q-40 12 -64 44.5t-24 78.5q0 60 40.5 98.5t100.5 38.5q61 0 102.5 -39t41.5 -106q0 -80 -80 -170l-55 -66h-162zM33 0l162 915h254l-17 -86q103 107 262 107q128 0 200.5 -74.5t72.5 -195.5q0 -34 -6 -72l-103 -594h-256l94 545q6 27 6 45
q0 117 -124 117q-59 0 -111 -35t-78 -92l-102 -580h-254z" />
    <glyph glyph-name="Ncaron" unicode="&#x147;" horiz-adv-x="1292" 
d="M711 1368l-158 260h207l78 -110l114 110h224l-252 -260h-213zM1319 1257l-221 -1257h-203l-446 862l-150 -862h-254l221 1257h242l414 -819l143 819h254z" />
    <glyph glyph-name="ncaron" unicode="&#x148;" horiz-adv-x="1034" 
d="M524 1028l-143 297h194l76 -141l125 141h207l-246 -297h-213zM33 0l162 915h254l-17 -86q103 107 262 107q128 0 200.5 -74.5t72.5 -195.5q0 -34 -6 -72l-103 -594h-256l94 545q6 27 6 45q0 117 -124 117q-59 0 -111 -35t-78 -92l-102 -580h-254z" />
    <glyph glyph-name="Eng" unicode="&#x14a;" horiz-adv-x="1292" 
d="M850 84l-401 778l-150 -862h-254l221 1257h242l414 -819l143 819h254l-205 -1173q-83 -459 -483 -459q-93 0 -189 45l41 232q68 -43 150 -43q92 0 142 52t75 173z" />
    <glyph glyph-name="eng" unicode="&#x14b;" horiz-adv-x="1034" 
d="M367 -330l36 205q39 -27 86 -27q46 0 71 27.5t36 89.5l100 580q6 27 6 45q0 117 -124 117q-59 0 -111 -35t-78 -92l-102 -580h-254l162 915h254l-17 -86q103 107 262 107q128 0 200.5 -74.5t72.5 -195.5q0 -34 -6 -72l-111 -631q-27 -157 -113 -239t-229 -82
q-83 0 -141 28z" />
    <glyph glyph-name="Omacron" unicode="&#x14c;" horiz-adv-x="1310" 
d="M563 1370l33 186h498l-33 -186h-498zM637 213q164 0 273.5 136.5t109.5 355.5q0 148 -77.5 243.5t-207.5 95.5q-164 0 -272.5 -136t-108.5 -355q0 -148 77 -244t206 -96zM633 -20q-248 0 -396.5 158t-148.5 413q0 204 87.5 371.5t236.5 261.5t327 94q248 0 396.5 -158
t148.5 -413q0 -153 -51 -288.5t-138.5 -231.5t-207.5 -151.5t-254 -55.5z" />
    <glyph glyph-name="omacron" unicode="&#x14d;" horiz-adv-x="1003" 
d="M358 1057l33 186h486l-33 -186h-486zM465 195q102 0 167.5 94.5t65.5 238.5q0 87 -42 140t-117 53q-102 0 -168 -95.5t-66 -238.5q0 -86 42.5 -139t117.5 -53zM461 -20q-189 0 -298.5 111.5t-109.5 297.5q0 155 66 281t178 196t246 70q189 0 298 -112t109 -298
q0 -116 -38.5 -218.5t-104.5 -174t-156 -112.5t-190 -41z" />
    <glyph glyph-name="Obreve" unicode="&#x14e;" horiz-adv-x="1310" 
d="M819 1358q-122 0 -190.5 73.5t-46.5 200.5h180q-9 -49 12.5 -73.5t65.5 -24.5q45 0 75 24.5t37 73.5h181q-23 -133 -104 -203.5t-210 -70.5zM637 213q164 0 273.5 136.5t109.5 355.5q0 148 -77.5 243.5t-207.5 95.5q-164 0 -272.5 -136t-108.5 -355q0 -148 77 -244
t206 -96zM633 -20q-248 0 -396.5 158t-148.5 413q0 204 87.5 371.5t236.5 261.5t327 94q248 0 396.5 -158t148.5 -413q0 -153 -51 -288.5t-138.5 -231.5t-207.5 -151.5t-254 -55.5z" />
    <glyph glyph-name="obreve" unicode="&#x14f;" horiz-adv-x="1003" 
d="M465 195q102 0 167.5 94.5t65.5 238.5q0 87 -42 140t-117 53q-102 0 -168 -95.5t-66 -238.5q0 -86 42.5 -139t117.5 -53zM461 -20q-189 0 -298.5 111.5t-109.5 297.5q0 155 66 281t178 196t246 70q189 0 298 -112t109 -298q0 -116 -38.5 -218.5t-104.5 -174t-156 -112.5
t-190 -41zM602 1008q-123 0 -190.5 77t-42.5 213h180q-20 -118 69 -118q46 0 76 31.5t39 86.5h180q-26 -141 -107 -215.5t-204 -74.5z" />
    <glyph glyph-name="Ohungarumlaut" unicode="&#x150;" horiz-adv-x="1310" 
d="M637 213q164 0 273.5 136.5t109.5 355.5q0 148 -77.5 243.5t-207.5 95.5q-164 0 -272.5 -136t-108.5 -355q0 -148 77 -244t206 -96zM633 -20q-248 0 -396.5 158t-148.5 413q0 204 87.5 371.5t236.5 261.5t327 94q248 0 396.5 -158t148.5 -413q0 -153 -51 -288.5
t-138.5 -231.5t-207.5 -151.5t-254 -55.5zM745 1370h-217l181 250h221zM1061 1370h-217l180 250h221z" />
    <glyph glyph-name="ohungarumlaut" unicode="&#x151;" horiz-adv-x="1003" 
d="M537 1040h-203l188 291h205zM836 1040h-205l188 291h207zM465 195q102 0 167.5 94.5t65.5 238.5q0 87 -42 140t-117 53q-102 0 -168 -95.5t-66 -238.5q0 -86 42.5 -139t117.5 -53zM461 -20q-189 0 -298.5 111.5t-109.5 297.5q0 155 66 281t178 196t246 70q189 0 298 -112
t109 -298q0 -116 -38.5 -218.5t-104.5 -174t-156 -112.5t-190 -41z" />
    <glyph glyph-name="OE" unicode="&#x152;" horiz-adv-x="1691" 
d="M1757 1257l-41 -229h-547l-51 -274h496l-41 -224h-494l-51 -299h547l-39 -231h-915q-259 0 -396 138.5t-137 389.5q0 205 88.5 370t256 262t384.5 97h940zM352 543q0 -151 78.5 -232.5t233.5 -81.5h106l141 797h-123q-202 0 -319 -134t-117 -349z" />
    <glyph glyph-name="oe" unicode="&#x153;" horiz-adv-x="1562" 
d="M543 936q96 0 174.5 -38.5t130.5 -104.5q143 143 330 143q165 0 253.5 -97.5t88.5 -267.5q0 -75 -19 -172h-583v-18q3 -96 67 -145.5t166 -49.5q155 0 285 86l-41 -221q-113 -71 -299 -71q-103 0 -186.5 37.5t-135.5 103.5q-63 -66 -144.5 -103.5t-168.5 -37.5
q-189 0 -298.5 111.5t-109.5 297.5q0 155 66 281t178 196t246 70zM465 195q102 0 167.5 94.5t65.5 238.5q0 87 -42 140t-117 53q-102 0 -168 -95.5t-66 -238.5q0 -86 42.5 -139t117.5 -53zM1163 733q-75 0 -131.5 -46t-87.5 -122h346q2 10 2 31q0 61 -33.5 99t-95.5 38z" />
    <glyph glyph-name="Racute" unicode="&#x154;" horiz-adv-x="1153" 
d="M539 469h-150l-82 -469h-262l221 1257h496q189 0 290 -90.5t101 -257.5q0 -166 -96 -276t-256 -148l252 -485h-281zM487 1034l-61 -350h240q108 0 168.5 54.5t60.5 154.5q0 66 -43 103.5t-129 37.5h-236zM848 1370h-258l205 250h284z" />
    <glyph glyph-name="racute" unicode="&#x155;" horiz-adv-x="718" 
d="M600 1040h-235l215 291h254zM750 920l-45 -254q-47 30 -121 30q-65 0 -119 -34t-78 -95l-100 -567h-254l162 915h254l-17 -90q35 50 96 80.5t127 30.5q71 0 95 -16z" />
    <glyph glyph-name="Rcommaaccent" unicode="&#x156;" horiz-adv-x="1153" 
d="M539 469h-150l-82 -469h-262l221 1257h496q189 0 290 -90.5t101 -257.5q0 -166 -96 -276t-256 -148l252 -485h-281zM487 1034l-61 -350h240q108 0 168.5 54.5t60.5 154.5q0 66 -43 103.5t-129 37.5h-236zM307 -461l101 121q-40 12 -64.5 44.5t-24.5 78.5q0 60 40.5 98.5
t101.5 38.5t102 -39t41 -106q0 -80 -80 -170l-55 -66h-162z" />
    <glyph glyph-name="rcommaaccent" unicode="&#x157;" horiz-adv-x="718" 
d="M-35 -461l101 121q-40 12 -64.5 44.5t-24.5 78.5q0 60 40.5 98.5t101.5 38.5t102 -39t41 -106q0 -80 -80 -170l-55 -66h-162zM750 920l-45 -254q-47 30 -121 30q-65 0 -119 -34t-78 -95l-100 -567h-254l162 915h254l-17 -90q35 50 96 80.5t127 30.5q71 0 95 -16z" />
    <glyph glyph-name="Rcaron" unicode="&#x158;" horiz-adv-x="1153" 
d="M539 469h-150l-82 -469h-262l221 1257h496q189 0 290 -90.5t101 -257.5q0 -166 -96 -276t-256 -148l252 -485h-281zM487 1034l-61 -350h240q108 0 168.5 54.5t60.5 154.5q0 66 -43 103.5t-129 37.5h-236zM629 1368l-158 260h207l78 -110l114 110h224l-252 -260h-213z" />
    <glyph glyph-name="rcaron" unicode="&#x159;" horiz-adv-x="718" 
d="M389 1028l-143 297h194l76 -141l125 141h207l-246 -297h-213zM750 920l-45 -254q-47 30 -121 30q-65 0 -119 -34t-78 -95l-100 -567h-254l162 915h254l-17 -90q35 50 96 80.5t127 30.5q71 0 95 -16z" />
    <glyph glyph-name="Sacute" unicode="&#x15a;" horiz-adv-x="1032" 
d="M25 106l45 259q80 -72 179.5 -116t203.5 -44q107 0 173 38t66 119q0 47 -31 78t-92 56l-174 67q-119 44 -185.5 115.5t-66.5 187.5q0 98 41.5 178t109.5 130t153 77t176 27q241 0 399 -117l-45 -246q-165 140 -354 140q-95 0 -157.5 -36t-62.5 -108q0 -46 27.5 -71.5
t91.5 -53.5l193 -75q241 -101 241 -303q0 -106 -41 -189.5t-112 -134.5t-160 -77.5t-190 -26.5q-136 0 -246.5 36.5t-181.5 89.5zM805 1370h-258l205 250h284z" />
    <glyph glyph-name="sacute" unicode="&#x15b;" horiz-adv-x="839" 
d="M657 1040h-235l215 291h254zM16 82l41 233q55 -61 137.5 -98t161.5 -37q62 0 101 21t39 67q0 53 -90 80l-89 29q-101 33 -156 87.5t-55 143.5q0 150 111 239t279 89q180 0 299 -92l-41 -221q-117 112 -258 112q-61 0 -100.5 -22t-39.5 -66q0 -51 86 -80l113 -37
q195 -68 195 -223q0 -151 -115 -239t-283 -88q-211 0 -336 102z" />
    <glyph glyph-name="Scircumflex" unicode="&#x15c;" horiz-adv-x="1032" 
d="M25 106l45 259q80 -72 179.5 -116t203.5 -44q107 0 173 38t66 119q0 47 -31 78t-92 56l-174 67q-119 44 -185.5 115.5t-66.5 187.5q0 98 41.5 178t109.5 130t153 77t176 27q241 0 399 -117l-45 -246q-165 140 -354 140q-95 0 -157.5 -36t-62.5 -108q0 -46 27.5 -71.5
t91.5 -53.5l193 -75q241 -101 241 -303q0 -106 -41 -189.5t-112 -134.5t-160 -77.5t-190 -26.5q-136 0 -246.5 36.5t-181.5 89.5zM831 1630l158 -260h-207l-77 111l-115 -111h-223l251 260h213z" />
    <glyph glyph-name="scircumflex" unicode="&#x15d;" horiz-adv-x="839" 
d="M707 1325l143 -297h-195l-75 141l-125 -141h-207l246 297h213zM16 82l41 233q55 -61 137.5 -98t161.5 -37q62 0 101 21t39 67q0 53 -90 80l-89 29q-101 33 -156 87.5t-55 143.5q0 150 111 239t279 89q180 0 299 -92l-41 -221q-117 112 -258 112q-61 0 -100.5 -22
t-39.5 -66q0 -51 86 -80l113 -37q195 -68 195 -223q0 -151 -115 -239t-283 -88q-211 0 -336 102z" />
    <glyph glyph-name="Scedilla" unicode="&#x15e;" horiz-adv-x="1032" 
d="M25 106l45 259q80 -72 179.5 -116t203.5 -44q107 0 173 38t66 119q0 47 -31 78t-92 56l-174 67q-119 44 -185.5 115.5t-66.5 187.5q0 98 41.5 178t109.5 130t153 77t176 27q241 0 399 -117l-45 -246q-165 140 -354 140q-95 0 -157.5 -36t-62.5 -108q0 -46 27.5 -71.5
t91.5 -53.5l193 -75q241 -101 241 -303q0 -106 -41 -189.5t-112 -134.5t-160 -77.5t-190 -26.5q-136 0 -246.5 36.5t-181.5 89.5zM330 -381h-234l195 285h239z" />
    <glyph glyph-name="scedilla" unicode="&#x15f;" horiz-adv-x="839" 
d="M16 82l41 233q55 -61 137.5 -98t161.5 -37q62 0 101 21t39 67q0 53 -90 80l-89 29q-101 33 -156 87.5t-55 143.5q0 150 111 239t279 89q180 0 299 -92l-41 -221q-117 112 -258 112q-61 0 -100.5 -22t-39.5 -66q0 -51 86 -80l113 -37q195 -68 195 -223q0 -151 -115 -239
t-283 -88q-211 0 -336 102zM240 -381h-234l195 285h239z" />
    <glyph glyph-name="Scaron" unicode="&#x160;" horiz-adv-x="1032" 
d="M25 106l45 259q80 -72 179.5 -116t203.5 -44q107 0 173 38t66 119q0 47 -31 78t-92 56l-174 67q-119 44 -185.5 115.5t-66.5 187.5q0 98 41.5 178t109.5 130t153 77t176 27q241 0 399 -117l-45 -246q-165 140 -354 140q-95 0 -157.5 -36t-62.5 -108q0 -46 27.5 -71.5
t91.5 -53.5l193 -75q241 -101 241 -303q0 -106 -41 -189.5t-112 -134.5t-160 -77.5t-190 -26.5q-136 0 -246.5 36.5t-181.5 89.5zM586 1368l-158 260h207l78 -110l114 110h224l-252 -260h-213z" />
    <glyph glyph-name="scaron" unicode="&#x161;" horiz-adv-x="839" 
d="M449 1028l-144 297h195l75 -141l125 141h207l-245 -297h-213zM16 82l41 233q55 -61 137.5 -98t161.5 -37q62 0 101 21t39 67q0 53 -90 80l-89 29q-101 33 -156 87.5t-55 143.5q0 150 111 239t279 89q180 0 299 -92l-41 -221q-117 112 -258 112q-61 0 -100.5 -22
t-39.5 -66q0 -51 86 -80l113 -37q195 -68 195 -223q0 -151 -115 -239t-283 -88q-211 0 -336 102z" />
    <glyph glyph-name="Tcedilla" unicode="&#x162;" horiz-adv-x="1177" 
d="M315 -461l101 121q-40 12 -64 44.5t-24 78.5q0 60 40.5 98.5t100.5 38.5q61 0 102 -39t41 -106q0 -80 -80 -170l-55 -66h-162zM154 1028l41 229h1073l-41 -229h-406l-180 -1028h-264l182 1028h-405z" />
    <glyph glyph-name="tcedilla" unicode="&#x163;" horiz-adv-x="708" 
d="M78 -461l100 121q-40 12 -64 44.5t-24 78.5q0 60 40.5 98.5t100.5 38.5q61 0 102.5 -39t41.5 -106q0 -80 -80 -170l-55 -66h-162zM518 711l-125 -711h-254l125 711h-174l37 204h174l43 248h254l-43 -248h195l-37 -204h-195z" />
    <glyph glyph-name="Tcaron" unicode="&#x164;" horiz-adv-x="1177" 
d="M651 1368l-157 260h206l78 -110l115 110h223l-252 -260h-213zM154 1028l41 229h1073l-41 -229h-406l-180 -1028h-264l182 1028h-405z" />
    <glyph glyph-name="tcaron" unicode="&#x165;" horiz-adv-x="708" 
d="M852 1004h-203l156 342h205zM518 711l-125 -711h-254l125 711h-174l37 204h174l43 248h254l-43 -248h195l-37 -204h-195z" />
    <glyph glyph-name="Tbar" unicode="&#x166;" horiz-adv-x="1177" 
d="M154 1028l41 229h1073l-41 -229h-406l-51 -287h211l-39 -217h-209l-92 -524h-264l92 524h-207l39 217h207l51 287h-405z" />
    <glyph glyph-name="tbar" unicode="&#x167;" horiz-adv-x="708" 
d="M518 711l-26 -150h147l-33 -190h-147l-66 -371h-254l66 371h-123l35 190h121l26 150h-174l37 204h174l43 248h254l-43 -248h195l-37 -204h-195z" />
    <glyph glyph-name="Utilde" unicode="&#x168;" horiz-adv-x="1249" 
d="M979 1647h151q-21 -129 -79 -208t-146 -79q-38 0 -73 23.5t-64.5 47t-54.5 23.5q-58 0 -74 -86h-152q23 129 80 207t144 78q39 0 75 -23t65.5 -46t53.5 -23q58 0 74 86zM582 -20q-218 0 -347 108t-129 307q0 53 17 137l127 725h262l-129 -725q-8 -70 -8 -94
q0 -108 54.5 -165.5t162.5 -57.5q130 0 207 78t106 239l127 725h262l-133 -751q-44 -256 -193.5 -391t-385.5 -135z" />
    <glyph glyph-name="utilde" unicode="&#x169;" horiz-adv-x="1026" 
d="M997 915l-159 -915h-254l14 84q-104 -104 -260 -104q-128 0 -199 73.5t-71 194.5q0 34 6 74l104 593h254l-94 -550q-6 -27 -6 -54q0 -112 119 -112q59 0 112 37.5t78 95.5l102 583h254zM803 1317h149q-21 -129 -78 -207t-145 -78q-30 0 -57.5 14.5t-44.5 32.5t-38.5 32.5
t-41.5 14.5q-57 0 -76 -86h-149q23 129 79.5 207t143.5 78q39 0 72 -23.5t59.5 -47t50.5 -23.5q29 0 48.5 23t27.5 63z" />
    <glyph glyph-name="Umacron" unicode="&#x16a;" horiz-adv-x="1249" 
d="M535 1370l32 186h498l-33 -186h-497zM582 -20q-218 0 -347 108t-129 307q0 53 17 137l127 725h262l-129 -725q-8 -70 -8 -94q0 -108 54.5 -165.5t162.5 -57.5q130 0 207 78t106 239l127 725h262l-133 -751q-44 -256 -193.5 -391t-385.5 -135z" />
    <glyph glyph-name="umacron" unicode="&#x16b;" horiz-adv-x="1026" 
d="M997 915l-159 -915h-254l14 84q-104 -104 -260 -104q-128 0 -199 73.5t-71 194.5q0 34 6 74l104 593h254l-94 -550q-6 -27 -6 -54q0 -112 119 -112q59 0 112 37.5t78 95.5l102 583h254zM373 1057l33 186h485l-33 -186h-485z" />
    <glyph glyph-name="Ubreve" unicode="&#x16c;" horiz-adv-x="1249" 
d="M786 1358q-122 0 -190.5 73.5t-46.5 200.5h180q-9 -49 12.5 -73.5t65.5 -24.5q45 0 75.5 24.5t37.5 73.5h180q-23 -133 -104 -203.5t-210 -70.5zM582 -20q-218 0 -347 108t-129 307q0 53 17 137l127 725h262l-129 -725q-8 -70 -8 -94q0 -108 54.5 -165.5t162.5 -57.5
q130 0 207 78t106 239l127 725h262l-133 -751q-44 -256 -193.5 -391t-385.5 -135z" />
    <glyph glyph-name="ubreve" unicode="&#x16d;" horiz-adv-x="1026" 
d="M997 915l-159 -915h-254l14 84q-104 -104 -260 -104q-128 0 -199 73.5t-71 194.5q0 34 6 74l104 593h254l-94 -550q-6 -27 -6 -54q0 -112 119 -112q59 0 112 37.5t78 95.5l102 583h254zM616 1008q-123 0 -190.5 77t-42.5 213h180q-9 -56 8 -87t62 -31q46 0 76 31.5
t39 86.5h180q-26 -141 -107.5 -215.5t-204.5 -74.5z" />
    <glyph glyph-name="Uring" unicode="&#x16e;" horiz-adv-x="1249" 
d="M582 -20q-218 0 -347 108t-129 307q0 53 17 137l127 725h262l-129 -725q-8 -70 -8 -94q0 -108 54.5 -165.5t162.5 -57.5q130 0 207 78t106 239l127 725h262l-133 -751q-44 -256 -193.5 -391t-385.5 -135zM805 1442q34 0 59 23.5t25 60.5q0 32 -22 55t-54 23
q-35 0 -60.5 -24.5t-25.5 -61.5q0 -32 23 -54t55 -22zM799 1323q-83 0 -139 54t-56 136q0 86 61.5 146.5t151.5 60.5q85 0 140 -54t55 -136q0 -86 -61.5 -146.5t-151.5 -60.5z" />
    <glyph glyph-name="uring" unicode="&#x16f;" horiz-adv-x="1026" 
d="M635 1116q35 0 59.5 23.5t24.5 60.5q0 32 -22 55t-54 23q-35 0 -59.5 -24.5t-24.5 -61.5q0 -32 22 -54t54 -22zM631 997q-84 0 -139.5 54.5t-55.5 136.5q0 85 61 146t150 61q84 0 139.5 -54.5t55.5 -136.5q0 -84 -61.5 -145.5t-149.5 -61.5zM997 915l-159 -915h-254
l14 84q-104 -104 -260 -104q-128 0 -199 73.5t-71 194.5q0 34 6 74l104 593h254l-94 -550q-6 -27 -6 -54q0 -112 119 -112q59 0 112 37.5t78 95.5l102 583h254z" />
    <glyph glyph-name="Uhungarumlaut" unicode="&#x170;" horiz-adv-x="1249" 
d="M582 -20q-218 0 -347 108t-129 307q0 53 17 137l127 725h262l-129 -725q-8 -70 -8 -94q0 -108 54.5 -165.5t162.5 -57.5q130 0 207 78t106 239l127 725h262l-133 -751q-44 -256 -193.5 -391t-385.5 -135zM723 1370h-217l180 250h221zM1038 1370h-217l180 250h222z" />
    <glyph glyph-name="uhungarumlaut" unicode="&#x171;" horiz-adv-x="1026" 
d="M997 915l-159 -915h-254l14 84q-104 -104 -260 -104q-128 0 -199 73.5t-71 194.5q0 34 6 74l104 593h254l-94 -550q-6 -27 -6 -54q0 -112 119 -112q59 0 112 37.5t78 95.5l102 583h254zM551 1040h-203l189 291h204zM850 1040h-205l189 291h206z" />
    <glyph glyph-name="Uogonek" unicode="&#x172;" horiz-adv-x="1249" 
d="M582 -20q-218 0 -347 108t-129 307q0 53 17 137l127 725h262l-129 -725q-8 -70 -8 -94q0 -108 54.5 -165.5t162.5 -57.5q130 0 207 78t106 239l127 725h262l-133 -751q-28 -158 -97 -267.5t-177 -189.5q-93 -70 -144 -133t-51 -104q0 -15 9 -25t24 -10q29 0 82 33
l-27 -152q-67 -43 -135 -43t-104.5 33t-36.5 90q0 45 22 91.5t45 75t68 77.5q-8 0 -28.5 -1t-28.5 -1z" />
    <glyph glyph-name="uogonek" unicode="&#x173;" horiz-adv-x="1026" 
d="M584 0l14 84q-104 -104 -260 -104q-128 0 -199 73.5t-71 194.5q0 34 6 74l104 593h254l-94 -550q-6 -27 -6 -54q0 -112 119 -112q59 0 112 37.5t78 95.5l102 583h254l-159 -915q-14 -16 -41 -46.5t-38 -44t-26 -34t-20.5 -35t-5.5 -28.5q0 -35 32 -35q27 0 80 33
l-26 -152q-64 -43 -134 -43q-68 0 -104.5 33t-36.5 90q0 17 2.5 33t9 33t11 29.5t17 30.5t18 27t22.5 28.5t22.5 26t25.5 28t24 26.5h-86z" />
    <glyph glyph-name="Wcircumflex" unicode="&#x174;" horiz-adv-x="1634" 
d="M860 1257h207l51 -845l371 845h264l-575 -1257h-242l-57 829l-385 -829h-240l-76 1257h256l39 -845zM1126 1630l158 -260h-207l-78 111l-114 -111h-223l251 260h213z" />
    <glyph glyph-name="wcircumflex" unicode="&#x175;" horiz-adv-x="1368" 
d="M930 1325l143 -297h-194l-76 141l-125 -141h-207l246 297h213zM860 915l29 -583l285 583h249l-471 -915h-231l-33 561l-266 -561h-232l-84 915h240l43 -583l277 583h194z" />
    <glyph glyph-name="Ycircumflex" unicode="&#x176;" horiz-adv-x="1214" 
d="M653 725l398 532h288l-594 -780l-83 -477h-261l82 477l-313 780h274zM915 1630l158 -260h-207l-78 111l-114 -111h-223l251 260h213z" />
    <glyph glyph-name="ycircumflex" unicode="&#x177;" horiz-adv-x="993" 
d="M301 -338h-254l207 352l-145 901h243l92 -608l340 608h265zM727 1325l143 -297h-194l-76 141l-125 -141h-207l246 297h213z" />
    <glyph glyph-name="Ydieresis" unicode="&#x178;" horiz-adv-x="1214" 
d="M653 725l398 532h288l-594 -780l-83 -477h-261l82 477l-313 780h274zM485 1495q0 60 39.5 99.5t98.5 39.5q57 0 97 -40t40 -99q0 -56 -40 -95.5t-97 -39.5q-58 0 -98 39.5t-40 95.5zM823 1495q0 59 40 99t98 40t98.5 -40t40.5 -99q0 -55 -41 -95t-98 -40t-97.5 39.5
t-40.5 95.5z" />
    <glyph glyph-name="Zacute" unicode="&#x179;" horiz-adv-x="1118" 
d="M1006 231l-41 -231h-1002v8l797 1020h-563l41 229h983l-2 -6l-789 -1020h576zM840 1370h-258l204 250h285z" />
    <glyph glyph-name="zacute" unicode="&#x17a;" horiz-adv-x="892" 
d="M653 1040h-235l215 291h254zM784 205l-34 -205h-787v8l549 703h-385l37 204h764v-8l-541 -702h397z" />
    <glyph glyph-name="Zdotaccent" unicode="&#x17b;" horiz-adv-x="1118" 
d="M897 1503q0 -62 -45.5 -103.5t-106.5 -41.5t-106 41.5t-45 103.5q0 63 44.5 104.5t106.5 41.5t107 -41.5t45 -104.5zM1006 231l-41 -231h-1002v8l797 1020h-563l41 229h983l-2 -6l-789 -1020h576z" />
    <glyph glyph-name="zdotaccent" unicode="&#x17c;" horiz-adv-x="892" 
d="M784 205l-34 -205h-787v8l549 703h-385l37 204h764v-8l-541 -702h397zM725 1186q0 -63 -45 -104.5t-107 -41.5t-106.5 41.5t-44.5 104.5q0 62 45 103.5t106 41.5t106.5 -41.5t45.5 -103.5z" />
    <glyph glyph-name="Zcaron" unicode="&#x17d;" horiz-adv-x="1118" 
d="M621 1368l-158 260h207l78 -110l114 110h223l-251 -260h-213zM1006 231l-41 -231h-1002v8l797 1020h-563l41 229h983l-2 -6l-789 -1020h576z" />
    <glyph glyph-name="zcaron" unicode="&#x17e;" horiz-adv-x="892" 
d="M444 1028l-143 297h195l75 -141l125 141h207l-246 -297h-213zM784 205l-34 -205h-787v8l549 703h-385l37 204h764v-8l-541 -702h397z" />
    <glyph glyph-name="florin" unicode="&#x192;" horiz-adv-x="864" 
d="M129 518l37 205h170l72 238q46 153 147.5 235t243.5 82q94 0 153 -25l-39 -215q-52 25 -100 25q-58 0 -95.5 -30t-58.5 -97l-63 -213h170l-37 -205h-194l-166 -557q-46 -154 -142 -235.5t-235 -81.5q-97 0 -154 24l35 209q46 -24 102 -24q55 0 86.5 29.5t51.5 97.5
l161 538h-145z" />
    <glyph glyph-name="Aringacute" unicode="&#x1fa;" horiz-adv-x="1284" 
d="M670 1257h260l250 -1257h-262l-58 303h-471l-168 -303h-264zM823 1294q-84 0 -139 46t-55 114q0 70 61.5 121t149.5 51q83 0 138.5 -45.5t55.5 -114.5q0 -70 -61.5 -121t-149.5 -51zM743 942l-231 -418h307zM991 1663h-243l157 192h273zM827 1399q35 0 59.5 17t24.5 48
q0 26 -22 43t-55 17q-34 0 -58 -18.5t-24 -49.5q0 -26 21 -41.5t54 -15.5z" />
    <glyph glyph-name="aringacute" unicode="&#x1fb;" horiz-adv-x="968" 
d="M623 1075q34 0 58 18.5t24 49.5q0 26 -21.5 41.5t-54.5 15.5q-34 0 -58 -17t-24 -48q0 -26 22 -43t54 -17zM618 973q-85 0 -140.5 45.5t-55.5 114.5q0 70 62 121t149 51q84 0 140 -46t56 -114q0 -70 -62 -121t-149 -51zM786 1341h-243l157 193h271zM635 520l8 43
q4 28 4 41q0 113 -170 113q-142 0 -274 -74l37 219q56 33 144 53.5t175 20.5q163 0 251.5 -72.5t88.5 -204.5q0 -23 -8 -81l-100 -578h-248l8 49q-29 -26 -87.5 -45.5t-125.5 -19.5q-131 0 -220 71t-89 193q0 98 56.5 173.5t146.5 113.5t196 38q65 0 121.5 -15t85.5 -38z
M586 248l12 67q-9 36 -50.5 58t-96.5 22q-71 0 -127 -33t-56 -96q0 -48 42 -72t102 -24q55 0 103 21t71 57z" />
    <glyph glyph-name="AEacute" unicode="&#x1fc;" horiz-adv-x="1800" 
d="M877 1257h989l-39 -229h-565l-52 -274h512l-39 -224h-512l-51 -299h566l-41 -231h-824l53 303h-417l-221 -303h-279zM1008 1059l-392 -535h297zM1503 1370h-258l205 250h285z" />
    <glyph glyph-name="aeacute" unicode="&#x1fd;" horiz-adv-x="1480" 
d="M983 1040h-235l215 291h254zM688 119q-157 -137 -360 -137q-133 0 -216 68.5t-83 185.5q0 79 36.5 142.5t97.5 102.5t136 59.5t156 20.5h188q4 25 4 43q-2 54 -45 84.5t-127 30.5q-134 0 -272 -76l39 219q57 33 141 53.5t170 20.5q180 0 254 -119q56 52 132.5 85.5
t158.5 33.5q163 0 251.5 -97.5t88.5 -267.5q0 -83 -19 -176h-585v-14q4 -96 68.5 -145.5t166.5 -49.5q155 0 285 86l-41 -221q-113 -71 -295 -71q-219 0 -330 139zM393 176q64 0 116 28.5t83 78.5l20 112h-166q-43 0 -80.5 -10.5t-67.5 -40.5t-30 -76q0 -44 35.5 -68
t89.5 -24zM1081 733q-76 0 -133 -47t-88 -125h348q2 10 2 31q0 63 -33.5 102t-95.5 39z" />
    <glyph glyph-name="Oslashacute" unicode="&#x1fe;" horiz-adv-x="1329" 
d="M94 63l111 125q-107 147 -107 363q0 153 51.5 288.5t138.5 231.5t207.5 151.5t254.5 55.5q197 0 333 -102l97 108l116 -90l-110 -125q108 -148 108 -362q0 -204 -87.5 -371.5t-236.5 -261.5t-327 -94q-198 0 -334 102l-96 -109zM647 209q164 0 274.5 138.5t110.5 357.5
q0 86 -28 159l-529 -596q72 -59 172 -59zM360 553q0 -89 27 -160l528 594q-72 62 -170 62q-164 0 -274.5 -138.5t-110.5 -357.5zM932 1370h-258l205 250h284z" />
    <glyph glyph-name="oslashacute" unicode="&#x1ff;" 
d="M47 12l96 111q-80 110 -80 266q0 155 66 281t178 196t246 70q143 0 240 -66l90 103l94 -74l-96 -111q80 -107 80 -262q0 -116 -39 -218.5t-105 -174t-156 -112.5t-190 -41q-144 0 -238 61l-90 -102zM707 1040h-236l215 291h254zM303 383q0 -41 8 -68l334 385
q-40 29 -96 29q-104 0 -175 -100.5t-71 -245.5zM475 186q104 0 175 100.5t71 245.5q0 37 -8 64l-332 -385q39 -25 94 -25z" />
    <glyph glyph-name="Scommaaccent" unicode="&#x218;" horiz-adv-x="1032" 
d="M217 -461l100 121q-40 12 -64 44.5t-24 78.5q0 60 40.5 98.5t101.5 38.5t102 -39t41 -106q0 -80 -80 -170l-55 -66h-162zM25 106l45 259q80 -72 179.5 -116t203.5 -44q107 0 173 38t66 119q0 47 -31 78t-92 56l-174 67q-119 44 -185.5 115.5t-66.5 187.5q0 98 41.5 178
t109.5 130t153 77t176 27q241 0 399 -117l-45 -246q-165 140 -354 140q-95 0 -157.5 -36t-62.5 -108q0 -46 27.5 -71.5t91.5 -53.5l193 -75q241 -101 241 -303q0 -106 -41 -189.5t-112 -134.5t-160 -77.5t-190 -26.5q-136 0 -246.5 36.5t-181.5 89.5z" />
    <glyph glyph-name="scommaaccent" unicode="&#x219;" horiz-adv-x="839" 
d="M131 -461l100 121q-40 12 -64 44.5t-24 78.5q0 60 40.5 98.5t101.5 38.5t102 -39t41 -106q0 -80 -80 -170l-55 -66h-162zM16 82l41 233q55 -61 137.5 -98t161.5 -37q62 0 101 21t39 67q0 53 -90 80l-89 29q-101 33 -156 87.5t-55 143.5q0 150 111 239t279 89
q180 0 299 -92l-41 -221q-117 112 -258 112q-61 0 -100.5 -22t-39.5 -66q0 -51 86 -80l113 -37q195 -68 195 -223q0 -151 -115 -239t-283 -88q-211 0 -336 102z" />
    <glyph glyph-name="uni0237" unicode="&#x237;" horiz-adv-x="475" 
d="M-203 -330l37 205q39 -27 86 -27q45 0 70 27.5t37 89.5l168 950h254l-170 -952q-26 -156 -112.5 -238.5t-227.5 -82.5q-88 0 -142 28z" />
    <glyph glyph-name="circumflex" unicode="&#x2c6;" 
d="M670 1325l143 -297h-195l-75 141l-125 -141h-207l246 297h213z" />
    <glyph glyph-name="caron" unicode="&#x2c7;" 
d="M354 1028l-143 297h195l75 -141l125 141h207l-246 -297h-213z" />
    <glyph glyph-name="breve" unicode="&#x2d8;" 
d="M477 1008q-123 0 -190.5 77t-42.5 213h180q-9 -56 8 -87t62 -31q46 0 75.5 31.5t38.5 86.5h180q-26 -141 -107 -215.5t-204 -74.5z" />
    <glyph glyph-name="dotaccent" unicode="&#x2d9;" 
d="M664 1186q0 -63 -45 -104.5t-107 -41.5t-107 41.5t-45 104.5q0 62 45.5 103.5t106.5 41.5t106.5 -41.5t45.5 -103.5z" />
    <glyph glyph-name="ring" unicode="&#x2da;" 
d="M506 1116q35 0 59.5 23.5t24.5 60.5q0 32 -22 55t-54 23q-35 0 -59.5 -24.5t-24.5 -61.5q0 -32 22 -54t54 -22zM502 997q-84 0 -139.5 54.5t-55.5 136.5q0 85 61 146t150 61q84 0 139.5 -54.5t55.5 -136.5q0 -84 -61.5 -145.5t-149.5 -61.5z" />
    <glyph glyph-name="ogonek" unicode="&#x2db;" 
d="M512 12h166q-21 -25 -54 -62t-48 -55t-28 -41t-13 -42q0 -15 8.5 -25t23.5 -10q29 0 82 33l-26 -152q-67 -43 -136 -43q-68 0 -104.5 33t-36.5 90q0 27 8 54t16.5 46t30 47.5t32.5 41t40.5 44t38.5 41.5z" />
    <glyph glyph-name="tilde" unicode="&#x2dc;" 
d="M678 1317h149q-21 -129 -78 -207t-145 -78q-30 0 -57.5 14.5t-44.5 32.5t-38.5 32.5t-41.5 14.5q-57 0 -76 -86h-149q23 129 79.5 207t143.5 78q39 0 72 -23.5t59.5 -47t50.5 -23.5q29 0 48.5 23t27.5 63z" />
    <glyph glyph-name="hungarumlaut" unicode="&#x2dd;" 
d="M369 1040h-203l188 291h205zM668 1040h-205l188 291h207z" />
    <glyph glyph-name="Wgrave" unicode="&#x1e80;" horiz-adv-x="1634" 
d="M1096 1370h-234l-145 250h262zM860 1257h207l51 -845l371 845h264l-575 -1257h-242l-57 829l-385 -829h-240l-76 1257h256l39 -845z" />
    <glyph glyph-name="wgrave" unicode="&#x1e81;" horiz-adv-x="1368" 
d="M860 915l29 -583l285 583h249l-471 -915h-231l-33 561l-266 -561h-232l-84 915h240l43 -583l277 583h194zM885 1040h-215l-131 291h235z" />
    <glyph glyph-name="Wacute" unicode="&#x1e82;" horiz-adv-x="1634" 
d="M1098 1370h-258l204 250h285zM860 1257h207l51 -845l371 845h264l-575 -1257h-242l-57 829l-385 -829h-240l-76 1257h256l39 -845z" />
    <glyph glyph-name="wacute" unicode="&#x1e83;" horiz-adv-x="1368" 
d="M887 1040h-236l215 291h254zM860 915l29 -583l285 583h249l-471 -915h-231l-33 561l-266 -561h-232l-84 915h240l43 -583l277 583h194z" />
    <glyph glyph-name="Wdieresis" unicode="&#x1e84;" horiz-adv-x="1634" 
d="M696 1495q0 60 39.5 99.5t98.5 39.5q58 0 97.5 -40t39.5 -99q0 -56 -40 -95.5t-97 -39.5q-58 0 -98 39.5t-40 95.5zM1034 1495q0 59 40 99t97 40q58 0 99 -40t41 -99q0 -55 -41.5 -95t-98.5 -40t-97 39.5t-40 95.5zM860 1257h207l51 -845l371 845h264l-575 -1257h-242
l-57 829l-385 -829h-240l-76 1257h256l39 -845z" />
    <glyph glyph-name="wdieresis" unicode="&#x1e85;" horiz-adv-x="1368" 
d="M502 1167q0 58 40 98t97 40q56 0 95.5 -40t39.5 -98q0 -55 -40 -95t-95 -40q-57 0 -97 39.5t-40 95.5zM838 1167q0 58 39.5 98t95.5 40t96.5 -40t40.5 -98q0 -55 -40.5 -95t-96.5 -40q-55 0 -95 40t-40 95zM860 915l29 -583l285 583h249l-471 -915h-231l-33 561
l-266 -561h-232l-84 915h240l43 -583l277 583h194z" />
    <glyph glyph-name="Ygrave" unicode="&#x1ef2;" horiz-adv-x="1214" 
d="M653 725l398 532h288l-594 -780l-83 -477h-261l82 477l-313 780h274zM883 1370h-234l-145 250h262z" />
    <glyph glyph-name="ygrave" unicode="&#x1ef3;" horiz-adv-x="993" 
d="M301 -338h-254l207 352l-145 901h243l92 -608l340 608h265zM682 1040h-215l-131 291h235z" />
    <glyph glyph-name="endash" unicode="&#x2013;" horiz-adv-x="964" 
d="M76 444l33 185h809l-33 -185h-809z" />
    <glyph glyph-name="emdash" unicode="&#x2014;" horiz-adv-x="1724" 
d="M76 444l33 185h1568l-32 -185h-1569z" />
    <glyph glyph-name="quoteleft" unicode="&#x2018;" horiz-adv-x="419" 
d="M524 1257l-180 -229q46 -12 74 -49.5t28 -91.5q0 -69 -45.5 -113.5t-113.5 -44.5q-69 0 -115.5 45.5t-46.5 124.5q0 81 80 180l145 178h174z" />
    <glyph glyph-name="quoteright" unicode="&#x2019;" horiz-adv-x="419" 
d="M92 750l180 229q-46 12 -74 49.5t-28 91.5q0 68 46 113t114 45q69 0 115.5 -45.5t46.5 -124.5q0 -81 -80 -180l-146 -178h-174z" />
    <glyph glyph-name="quotesinglbase" unicode="&#x201a;" horiz-adv-x="419" 
d="M-68 -225l181 229q-46 12 -74.5 49.5t-28.5 91.5q0 68 46 113t114 45q69 0 115.5 -45.5t46.5 -124.5q0 -81 -80 -180l-146 -178h-174z" />
    <glyph glyph-name="quotedblleft" unicode="&#x201c;" horiz-adv-x="819" 
d="M524 1257l-180 -229q46 -12 74 -49.5t28 -91.5q0 -69 -45.5 -113.5t-113.5 -44.5q-69 0 -115.5 45.5t-46.5 124.5q0 81 80 180l145 178h174zM924 1257l-181 -229q46 -12 74.5 -49.5t28.5 -91.5q0 -68 -46 -113t-114 -45q-69 0 -115.5 45.5t-46.5 124.5q0 81 80 180
l146 178h174z" />
    <glyph glyph-name="quotedblright" unicode="&#x201d;" horiz-adv-x="819" 
d="M92 750l180 229q-46 12 -74 49.5t-28 91.5q0 68 46 113t114 45q69 0 115.5 -45.5t46.5 -124.5q0 -81 -80 -180l-146 -178h-174zM489 750l181 229q-46 12 -74.5 49.5t-28.5 91.5q0 68 46 113t114 45q69 0 115.5 -45.5t46.5 -124.5q0 -81 -80 -180l-145 -178h-175z" />
    <glyph glyph-name="quotedblbase" unicode="&#x201e;" horiz-adv-x="819" 
d="M-68 -225l181 229q-46 12 -74.5 49.5t-28.5 91.5q0 68 46 113t114 45q69 0 115.5 -45.5t46.5 -124.5q0 -81 -80 -180l-146 -178h-174zM330 -225l180 229q-46 12 -74 49.5t-28 91.5q0 69 45.5 113.5t113.5 44.5q69 0 115.5 -45.5t46.5 -124.5q0 -81 -80 -180l-145 -178
h-174z" />
    <glyph glyph-name="dagger" unicode="&#x2020;" horiz-adv-x="690" 
d="M145 973l31 170h201l35 188h174l-35 -188h205l-31 -170h-203l-71 -408h-175l72 408h-203z" />
    <glyph glyph-name="daggerdbl" unicode="&#x2021;" horiz-adv-x="710" 
d="M158 1022l28 156h205l27 153h170l-27 -153h209l-29 -156h-209l-26 -150h209l-27 -153h-209l-26 -154h-170l26 154h-205l27 153h205l26 150h-204z" />
    <glyph glyph-name="bullet" unicode="&#x2022;" horiz-adv-x="745" 
d="M700 537q0 -136 -91 -224t-224 -88q-132 0 -222.5 88t-90.5 224q0 137 90 225t223 88t224 -88t91 -225z" />
    <glyph glyph-name="ellipsis" unicode="&#x2026;" horiz-adv-x="1361" 
d="M8 150q0 69 47 115t115 46t114 -46t46 -115t-46.5 -116.5t-113.5 -47.5q-68 0 -115 47.5t-47 116.5zM479 150q0 69 47 115t115 46t114 -46t46 -115t-46.5 -116.5t-113.5 -47.5q-68 0 -115 47.5t-47 116.5zM950 150q0 69 47 115t115 46t114 -46t46 -115t-46.5 -116.5
t-113.5 -47.5q-68 0 -115 47.5t-47 116.5z" />
    <glyph glyph-name="perthousand" unicode="&#x2030;" horiz-adv-x="2023" 
d="M436 1278q117 0 197 -80.5t80 -196.5q0 -122 -87.5 -213.5t-215.5 -91.5q-117 0 -197 80.5t-80 196.5q0 122 87.5 213.5t215.5 91.5zM418 866q51 0 88 36.5t37 92.5q0 47 -34 80t-81 33q-49 0 -87 -37t-38 -92q0 -47 34 -80t81 -33zM135 0l983 1257h182l-983 -1257h-182z
M1001 -20q-117 0 -196.5 80t-79.5 196q0 122 87 213.5t214 91.5q118 0 197.5 -80t79.5 -196q0 -122 -87 -213.5t-215 -91.5zM1020 391q-51 0 -88 -36.5t-37 -92.5q0 -47 33.5 -79.5t79.5 -32.5q51 0 89 37t38 92q0 47 -34.5 79.5t-80.5 32.5zM1630 -20q-117 0 -196.5 80
t-79.5 196q0 122 87.5 213.5t215.5 91.5q117 0 196.5 -80t79.5 -196q0 -122 -87.5 -213.5t-215.5 -91.5zM1649 391q-49 0 -87 -37t-38 -92q0 -47 33.5 -79.5t80.5 -32.5q51 0 88 36.5t37 92.5q0 47 -33.5 79.5t-80.5 32.5z" />
    <glyph glyph-name="guilsinglleft" unicode="&#x2039;" horiz-adv-x="520" 
d="M406 125h-228l-129 330l242 329h241l-251 -342z" />
    <glyph glyph-name="guilsinglright" unicode="&#x203a;" horiz-adv-x="520" 
d="M133 784h227l129 -329l-241 -330h-242l252 342z" />
    <glyph glyph-name="fraction" unicode="&#x2044;" horiz-adv-x="442" 
d="M872 1257l-1079 -1257h-180l1077 1257h182z" />
    <glyph glyph-name="Euro" unicode="&#x20ac;" 
d="M88 682l29 158h106q76 197 231.5 317.5t344.5 120.5q90 0 171.5 -27.5t135.5 -72.5l-45 -254q-119 125 -264 125q-100 0 -180.5 -56t-133.5 -153h365l-57 -158h-365q-13 -62 -16 -113h344l-60 -157h-272q24 -97 89 -150t167 -53q80 0 142.5 19.5t129.5 66.5l-47 -262
q-100 -53 -239 -53q-201 0 -331 115.5t-159 316.5h-133l29 157h96q2 39 14 113h-92z" />
    <glyph glyph-name="uni2117" unicode="&#x2117;" horiz-adv-x="1441" 
d="M1403 629q0 -184 -88 -334t-236 -232.5t-325 -82.5q-132 0 -251.5 49t-207.5 133.5t-139.5 206.5t-51.5 260t51.5 260t139.5 206.5t207.5 133.5t251.5 49q177 0 325 -82.5t236 -232.5t88 -334zM1307 629q0 157 -75 285t-201.5 199t-276.5 71t-276.5 -71t-201.5 -199
t-75 -285t75 -285t201.5 -199t276.5 -71t276.5 71t201.5 199t75 285zM831 481h-139v-227h-198v756h337q127 0 202 -69.5t75 -195.5q0 -125 -75 -194.5t-202 -69.5zM913 745q0 43 -24.5 68t-75.5 25h-121v-185h121q100 0 100 92z" />
    <glyph glyph-name="trademark" unicode="&#x2122;" horiz-adv-x="1208" 
d="M152 1126l24 131h467l-25 -131h-157l-70 -389h-149l67 389h-157zM920 844h-11l-94 176l-51 -283h-146l93 520h133l102 -202l176 202h144l-92 -520h-148l51 283z" />
    <glyph glyph-name="uni2153" unicode="&#x2153;" horiz-adv-x="1490" 
d="M1366 1257l-1098 -1257h-190l1098 1257h190zM942 535l29 163h469v-4l-189 -274q49 -26 79 -70.5t30 -101.5q0 -116 -85 -187t-214 -71q-126 0 -209 57l33 174q70 -76 176 -76q54 0 86.5 25t32.5 68q0 41 -35 62.5t-92 21.5h-31v2l145 211h-225zM561 1257l-123 -698h-180
l86 485l-197 -88l35 189l256 112h123z" />
    <glyph glyph-name="uni2154" unicode="&#x2154;" horiz-adv-x="1626" 
d="M1499 1257l-1098 -1257h-188l1098 1257h188zM444 729h201l-31 -164h-520v4l260 285q6 7 28 31t31 34t26 31.5t25 35t14.5 31t6.5 32.5q0 57 -65 57q-48 0 -112 -30.5t-113 -65.5l32 186q113 80 256 80q93 0 145 -48.5t52 -127.5q0 -71 -40.5 -136.5t-113.5 -144.5z
M1077 535l29 163h469v-4l-189 -274q48 -26 77.5 -70.5t29.5 -101.5q0 -116 -85 -187t-214 -71q-124 0 -207 57l31 174q70 -76 178 -76q54 0 86.5 25t32.5 68q0 41 -35 62.5t-92 21.5h-31v2l143 211h-223z" />
    <glyph glyph-name="uni215B" unicode="&#x215b;" horiz-adv-x="1490" 
d="M1350 1257l-1098 -1257h-189l1098 1257h189zM547 1257l-123 -698h-180l86 485l-197 -88l33 189l256 112h125zM1001 203q0 -31 22.5 -50.5t59.5 -19.5q40 0 67.5 22.5t27.5 59.5q0 31 -22.5 49.5t-59.5 18.5q-40 0 -67.5 -21t-27.5 -59zM1081 -10q-104 0 -181 49.5
t-77 144.5q0 67 38.5 116t96.5 65q-65 41 -65 127q0 102 76 160.5t182 58.5q98 0 164.5 -50.5t66.5 -138.5q0 -60 -30.5 -107.5t-83.5 -70.5q86 -46 86 -137q0 -102 -80.5 -159.5t-192.5 -57.5zM1212 508q0 29 -19 46t-50 17q-37 0 -61.5 -20.5t-24.5 -56.5
q0 -29 19.5 -46.5t49.5 -17.5q38 0 62 21t24 57z" />
    <glyph glyph-name="uni215C" unicode="&#x215c;" horiz-adv-x="1523" 
d="M1399 1257l-1100 -1257h-188l1097 1257h191zM199 1092l28 165h469v-4l-188 -274q106 -61 106 -174q0 -117 -84.5 -187.5t-214.5 -70.5q-126 0 -206 59l30 174q72 -78 178 -78q54 0 86.5 25t32.5 70q0 41 -35 62.5t-92 21.5q-20 0 -30 -2v4l145 209h-225zM1040 203
q0 -31 22 -50.5t58 -19.5q40 0 67 22.5t27 59.5q0 31 -21 49.5t-58 18.5q-40 0 -67.5 -21t-27.5 -59zM1118 -10q-65 0 -121 19t-96.5 64.5t-40.5 110.5q0 67 39 116t98 65q-65 41 -65 127q0 102 75.5 160.5t180.5 58.5q99 0 166 -50.5t67 -138.5q0 -59 -31 -106.5t-83 -71.5
q86 -46 86 -137q0 -102 -81.5 -159.5t-193.5 -57.5zM1251 508q0 29 -20 46t-51 17q-35 0 -59.5 -21t-24.5 -56q0 -29 19.5 -46.5t49.5 -17.5q37 0 61.5 21t24.5 57z" />
    <glyph glyph-name="uni215D" unicode="&#x215d;" horiz-adv-x="1531" 
d="M1407 1257l-1098 -1257h-188l1098 1257h188zM1049 203q0 -31 22 -50.5t57 -19.5q41 0 69 22.5t28 59.5q0 31 -22.5 49.5t-59.5 18.5q-40 0 -67 -21t-27 -59zM1126 -10q-102 0 -179 49.5t-77 144.5q0 67 39 116t97 65q-66 41 -66 127q0 102 76 160.5t182 58.5
q98 0 165 -51t67 -138q0 -60 -31 -107.5t-84 -70.5q86 -46 86 -137q0 -102 -81.5 -159.5t-193.5 -57.5zM1260 508q0 29 -20 46t-50 17q-37 0 -61.5 -20.5t-24.5 -56.5q0 -29 20 -46.5t50 -17.5q38 0 62 21t24 57zM621 813q0 -123 -86 -194.5t-216 -71.5t-208 57l30 170
q30 -34 78.5 -55t102.5 -21q50 0 86 24.5t36 70.5q0 73 -110 73q-90 0 -158 -24l74 415h414l-29 -163h-266l-15 -84q18 6 45 6q103 0 162.5 -53.5t59.5 -149.5z" />
    <glyph glyph-name="uni215E" unicode="&#x215e;" horiz-adv-x="1449" 
d="M1323 1257l-1098 -1257h-188l1098 1257h188zM760 1253l-438 -694h-197l340 535h-277l31 163h543zM967 203q0 -31 22.5 -50.5t57.5 -19.5q41 0 68.5 22.5t27.5 59.5q0 31 -22.5 49.5t-59.5 18.5q-40 0 -67 -21t-27 -59zM1044 -10q-102 0 -179 49.5t-77 144.5q0 67 39 116
t97 65q-66 41 -66 127q0 102 76 160.5t182 58.5q98 0 165 -51t67 -138q0 -60 -31 -107.5t-84 -70.5q86 -46 86 -137q0 -102 -81.5 -159.5t-193.5 -57.5zM1178 508q0 29 -20 46t-50 17q-37 0 -61.5 -20.5t-24.5 -56.5q0 -29 20 -46.5t50 -17.5q38 0 62 21t24 57z" />
    <glyph glyph-name="minus" unicode="&#x2212;" horiz-adv-x="1146" 
d="M139 514l35 197h885l-35 -197h-885z" />
    <glyph glyph-name="approxequal" unicode="&#x2248;" horiz-adv-x="1179" 
d="M180 639l33 184q133 78 250 78q75 0 194.5 -38t194.5 -38q118 0 258 80l-33 -184q-138 -80 -258 -80q-75 0 -193.5 39t-193.5 39q-120 0 -252 -80zM125 326l31 182q135 80 252 80q75 0 194.5 -39t194.5 -39q122 0 258 80l-33 -184q-134 -78 -258 -78q-75 0 -193.5 37.5
t-193.5 37.5q-118 0 -252 -77z" />
    <glyph glyph-name="notequal" unicode="&#x2260;" horiz-adv-x="1179" 
d="M190 692l31 178h527l163 193h168l-164 -193h189l-31 -178h-307l-133 -157h414l-33 -177h-531l-161 -192h-168l161 192h-184l31 177h303l133 157h-408z" />
    <glyph glyph-name="lessequal" unicode="&#x2264;" horiz-adv-x="917" 
d="M150 621l43 239l718 256l-41 -219l-508 -164l451 -164l-33 -200zM61 123l33 190h676l-35 -190h-674z" />
    <glyph glyph-name="greaterequal" unicode="&#x2265;" horiz-adv-x="917" 
d="M770 313l-35 -190h-674l33 190h676zM866 862l-41 -239l-721 -254l41 219l508 162l-450 165l33 201z" />
    <glyph glyph-name="fi" unicode="&#xfb01;" horiz-adv-x="1142" 
d="M1116 915l-162 -915h-254l162 915h254zM1186 1182q0 -64 -45 -106t-107 -42t-105.5 40.5t-43.5 101.5q0 65 45 107t108 42q61 0 104.5 -41t43.5 -102zM803 1325l-37 -213q-38 23 -82 23q-62 0 -102 -32.5t-50 -94.5l-16 -93h191l-37 -204h-191l-123 -711h-252l125 711
h-149l37 204h149l19 109q27 157 128.5 241.5t252.5 84.5q82 0 137 -25z" />
    <glyph glyph-name="fl" unicode="&#xfb02;" horiz-adv-x="1142" 
d="M1188 1331l-234 -1331h-254l234 1331h254zM803 1325l-37 -213q-38 23 -82 23q-62 0 -102 -32.5t-50 -94.5l-16 -93h191l-37 -204h-191l-123 -711h-252l125 711h-149l37 204h149l19 109q27 157 128.5 241.5t252.5 84.5q82 0 137 -25z" />
    <glyph glyph-name="i.dot" horiz-adv-x="475" 
d="M449 915l-162 -915h-254l162 915h254zM520 1186q0 -63 -44.5 -104.5t-106.5 -41.5t-107 41.5t-45 104.5q0 62 45.5 103.5t106.5 41.5t106 -41.5t45 -103.5z" />
    <glyph glyph-name="space_uni0326" 
d="M365 -461l100 121q-40 12 -64 44.5t-24 78.5q0 60 40.5 98.5t100.5 38.5q61 0 102.5 -39t41.5 -106q0 -80 -80 -170l-56 -66h-161z" />
    <glyph glyph-name="space_uni0326.alt" 
d="M662 1425l-111 -131q40 -12 65 -45.5t25 -79.5q0 -59 -41 -97t-102 -38t-102.5 39.5t-41.5 106.5q0 81 80 168l66 77h162z" />
    <glyph glyph-name="space_dotbelowcomb" 
d="M662 -223q0 -62 -44.5 -103t-105.5 -41t-105.5 41t-44.5 103t44.5 102.5t105.5 40.5t105.5 -40.5t44.5 -102.5z" />
    <glyph glyph-name="caron.Slovak" 
d="M541 989h-203l156 342h204z" />
    <glyph glyph-name="cedilla.alt" 
d="M524 -381h-233l194 285h240z" />
    <glyph glyph-name="grave.cap" 
d="M707 1370h-234l-145 250h262z" />
    <glyph glyph-name="acute.cap" 
d="M528 1370h-258l205 250h285z" />
    <glyph glyph-name="circumflex.cap" 
d="M666 1630l157 -260h-207l-77 111l-115 -111h-223l252 260h213z" />
    <glyph glyph-name="caron.cap" 
d="M358 1368l-157 260h207l77 -110l115 110h223l-252 -260h-213z" />
    <glyph glyph-name="tilde.cap" 
d="M682 1647h152q-21 -128 -79.5 -207.5t-146.5 -79.5q-38 0 -73 23.5t-64.5 47t-54.5 23.5q-58 0 -74 -86h-152q23 129 80 207t144 78q39 0 75 -23t65.5 -46t53.5 -23q58 0 74 86z" />
    <glyph glyph-name="macron.cap" 
d="M246 1370l33 186h497l-33 -186h-497z" />
    <glyph glyph-name="breve.cap" 
d="M477 1358q-122 0 -190.5 73.5t-46.5 200.5h180q-9 -49 12.5 -73.5t65.5 -24.5q45 0 75 24.5t37 73.5h181q-23 -133 -104 -203.5t-210 -70.5z" />
    <glyph glyph-name="dotaccent.cap" 
d="M664 1503q0 -62 -45.5 -103.5t-106.5 -41.5t-106.5 41.5t-45.5 103.5q0 63 45 104.5t107 41.5t107 -41.5t45 -104.5z" />
    <glyph glyph-name="dieresis.cap" 
d="M205 1495q0 60 39 99.5t98 39.5q58 0 97.5 -40t39.5 -99q0 -56 -40 -95.5t-97 -39.5q-58 0 -97.5 39.5t-39.5 95.5zM543 1495q0 59 39.5 99t97.5 40t98.5 -40t40.5 -99q0 -55 -41 -95t-98 -40t-97 39.5t-40 95.5z" />
    <glyph glyph-name="ring.cap" 
d="M508 1442q34 0 59 23.5t25 60.5q0 32 -22 55t-54 23q-35 0 -60.5 -24.5t-25.5 -61.5q0 -32 23 -54t55 -22zM502 1323q-83 0 -139 54t-56 136q0 86 61.5 146.5t151.5 60.5q85 0 140 -54t55 -136q0 -86 -61.5 -146.5t-151.5 -60.5z" />
    <glyph glyph-name="hungarumlaut.cap" 
d="M371 1370h-217l180 250h221zM686 1370h-217l180 250h221z" />
    <glyph glyph-name="exclamdown.cap" horiz-adv-x="444" 
d="M393 852l-94 -852h-307l215 852h186zM498 1114q0 -67 -47 -113.5t-115 -46.5t-115 46.5t-47 113.5q0 66 47 112t115 46t115 -46t47 -112z" />
    <glyph glyph-name="questiondown.cap" horiz-adv-x="876" 
d="M487 602q-16 -15 -52.5 -47t-57 -52.5t-45.5 -50t-37 -59t-12 -59.5q0 -113 147 -113q176 0 385 166l-45 -258q-84 -67 -193 -108t-221 -41q-163 0 -253.5 83.5t-90.5 221.5q0 46 9 87t30.5 79.5t41 67t56 64.5t58 56t65.5 57q60 53 83 88t28 68h258
q-17 -74 -50.5 -128.5t-103.5 -121.5zM717 1114q0 -68 -47 -114t-115 -46q-69 0 -116.5 45.5t-47.5 114.5q0 66 47.5 112t116.5 46q68 0 115 -46t47 -112z" />
    <glyph glyph-name="guilsinglleft.cap" horiz-adv-x="520" 
d="M453 289h-228l-129 329l242 330h242l-252 -342z" />
    <glyph glyph-name="guilsinglright.cap" horiz-adv-x="520" 
d="M160 948h229l129 -330l-242 -329h-241l252 342z" />
    <glyph glyph-name="guillemotleft.cap" horiz-adv-x="860" 
d="M440 289h-215l-129 329l246 330h225l-252 -342zM795 289h-220l-126 323l245 336h226l-252 -342z" />
    <glyph glyph-name="guillemotright.cap" horiz-adv-x="860" 
d="M512 948h215l131 -330l-248 -329h-223l250 342zM160 948h217l129 -323l-248 -336h-223l252 342z" />
    <glyph glyph-name="slash.cap" horiz-adv-x="763" 
d="M-98 -131l770 1503h256l-772 -1503h-254z" />
    <glyph glyph-name="backslash.cap" horiz-adv-x="763" 
d="M426 1372l244 -1503h-224l-243 1503h223z" />
    <glyph glyph-name="bar.cap" horiz-adv-x="466" 
d="M23 -131l264 1503h227l-264 -1503h-227z" />
    <glyph glyph-name="periodcentered.cap" horiz-adv-x="438" 
d="M84 614q0 69 46 115.5t114 46.5t115 -46.5t47 -115.5t-47 -116t-115 -47t-114 47t-46 116z" />
    <glyph glyph-name="bullet.cap" horiz-adv-x="745" 
d="M711 612q0 -135 -91 -223t-223 -88q-133 0 -224 88t-91 223q0 138 90.5 227t224.5 89q132 0 223 -89t91 -227z" />
    <glyph glyph-name="hyphen.cap" horiz-adv-x="649" 
d="M86 502l39 223h493l-38 -223h-494z" />
    <glyph glyph-name="endash.cap" horiz-adv-x="964" 
d="M86 520l33 187h809l-33 -187h-809z" />
    <glyph glyph-name="emdash.cap" horiz-adv-x="1724" 
d="M86 520l33 187h1569l-33 -187h-1569z" />
    <glyph glyph-name="parenleft.cap" horiz-adv-x="665" 
d="M78 498q0 321 190.5 560.5t517.5 313.5l-45 -256q-176 -48 -297.5 -217.5t-121.5 -400.5q0 -147 65 -243.5t180 -129.5l-45 -256q-210 63 -327 224t-117 405z" />
    <glyph glyph-name="parenright.cap" horiz-adv-x="665" 
d="M657 743q0 -321 -190.5 -560.5t-517.5 -313.5l45 256q176 48 298 217.5t122 400.5q0 146 -66.5 243t-179.5 130l45 256q209 -63 326.5 -224t117.5 -405z" />
    <glyph glyph-name="bracketleft.cap" horiz-adv-x="659" 
d="M485 1153l-186 -1065h260l-39 -219h-497l264 1503h497l-39 -219h-260z" />
    <glyph glyph-name="bracketright.cap" horiz-adv-x="659" 
d="M248 88l186 1065h-260l39 219h498l-265 -1503h-497l39 219h260z" />
    <glyph glyph-name="braceleft.cap" horiz-adv-x="722" 
d="M442 451l-53 -304q-9 -59 49 -59h187l-39 -219h-221q-122 0 -181 72.5t-37 193.5l54 316q9 59 -49 59h-97l41 221h97q60 0 69 60l55 315q22 118 108.5 192t203.5 74h221l-39 -219h-186q-61 0 -70 -59l-53 -303q-21 -114 -127 -173q87 -58 67 -167z" />
    <glyph glyph-name="braceright.cap" horiz-adv-x="722" 
d="M356 791l54 303q9 59 -50 59h-186l39 219h221q122 0 179.5 -72.5t37.5 -193.5l-55 -315q-9 -60 49 -60h98l-41 -221h-96q-60 0 -69 -59l-56 -316q-22 -119 -108 -192.5t-203 -73.5h-221l39 219h186q61 0 70 59l53 304q20 112 127 172q-88 59 -68 168z" />
    <glyph glyph-name="at.cap" horiz-adv-x="1572" 
d="M1229 979l-113 -483q-21 -97 60 -97q97 0 162 102.5t65 274.5q0 200 -140.5 316t-363.5 116q-188 0 -336.5 -85.5t-232.5 -240.5t-84 -354q0 -112 36 -201.5t94 -145.5t136 -93.5t156 -52.5t161 -15q249 0 486 105l-27 -158q-84 -41 -205.5 -67.5t-253.5 -26.5
q-119 0 -227.5 23.5t-204.5 75t-166.5 127t-111.5 185.5t-41 244q0 168 61.5 320.5t168.5 265t261.5 178.5t331.5 66q296 0 478 -163.5t182 -416.5q0 -128 -38 -231t-101 -166t-141 -96t-163 -33q-73 0 -132 28t-91 80q-31 -49 -88.5 -77.5t-116.5 -28.5q-120 0 -190 79
t-70 204q0 120 51 225t143.5 170t204.5 65q59 0 104.5 -21.5t65.5 -53.5l17 57h213zM907 528l49 205q-9 33 -39.5 54.5t-72.5 21.5q-81 0 -137 -73t-56 -171q0 -55 29.5 -88t85.5 -33q83 0 141 84z" />
    <glyph glyph-name="Euro.lt" horiz-adv-x="1064" 
d="M88 682l29 158h106q76 197 231.5 317.5t344.5 120.5q90 0 171.5 -27.5t135.5 -72.5l-45 -254q-119 125 -264 125q-98 0 -177.5 -56t-130.5 -153h359l-57 -158h-357q-13 -62 -16 -113h334l-58 -157h-264q22 -97 85 -150t163 -53q80 0 142.5 19.5t129.5 66.5l-47 -262
q-100 -53 -239 -53q-201 0 -331 115.5t-159 316.5h-133l29 157h96q2 39 14 113h-92z" />
    <glyph glyph-name="dollar.lt" horiz-adv-x="1064" 
d="M43 129l43 248q80 -68 177.5 -110t197.5 -42q106 0 170.5 36t64.5 114q0 44 -30 70t-91 51l-167 65q-117 46 -182.5 115t-65.5 178q0 86 33 157.5t90 119t127.5 76.5t150.5 38l33 189h217l-35 -197q133 -23 242 -98l-43 -238q-162 133 -348 133q-93 0 -153 -33.5
t-60 -101.5q0 -44 26.5 -67.5t89.5 -49.5l187 -71q235 -98 235 -293q0 -89 -30.5 -161.5t-84.5 -121t-123.5 -79t-152.5 -42.5l-35 -196h-219l37 198q-180 24 -301 113z" />
    <glyph glyph-name="cent.lt" horiz-adv-x="1064" 
d="M342 -178l35 205q-121 42 -189.5 144.5t-68.5 250.5q0 196 115 344.5t305 181.5l34 189h218l-35 -195q88 -21 149 -72l-43 -231q-93 96 -215 96q-118 0 -197 -82.5t-79 -222.5q0 -97 60 -154t155 -57q126 0 217 74l-41 -234q-64 -47 -172 -57l-31 -180h-217z" />
    <glyph glyph-name="sterling.lt" horiz-adv-x="1064" 
d="M121 520l33 201h147l21 119q37 202 170 320t325 118q170 0 252 -61l-39 -228q-88 64 -213 64q-210 0 -254 -246l-16 -86h268l-35 -201h-268l-23 -123q-22 -130 -75 -186h518l-37 -211h-866l34 211h107q54 72 74 186l20 123h-143z" />
    <glyph glyph-name="yen.lt" horiz-adv-x="1064" 
d="M45 238l29 172h307l20 114h-307l31 172h219l-188 561h252l161 -503l332 503h264l-393 -561h221l-30 -172h-310l-20 -114h309l-29 -172h-309l-41 -238h-252l41 238h-307z" />
    <glyph glyph-name="florin.lt" horiz-adv-x="1064" 
d="M266 518l37 205h170l72 238q45 153 148 235t245 82q92 0 154 -25l-39 -215q-52 25 -101 25q-115 0 -153 -127l-66 -213h172l-37 -205h-196l-166 -557q-46 -155 -141.5 -236t-235.5 -81q-94 0 -154 24l37 209q44 -24 101 -24q56 0 86.5 29t52.5 98l160 538h-146z" />
    <glyph glyph-name="zero.lt" horiz-adv-x="1064" 
d="M485 213q73 0 133 53.5t96.5 138.5t56.5 184.5t20 198.5q0 118 -43 187t-130 69q-72 0 -132 -53.5t-96.5 -138.5t-56.5 -184.5t-20 -198.5q0 -118 42.5 -187t129.5 -69zM477 -20q-198 0 -307 134t-109 359q0 164 43.5 312.5t118 257t180 172t224.5 63.5
q198 0 306.5 -134.5t108.5 -359.5q0 -219 -73 -403t-203 -292.5t-289 -108.5z" />
    <glyph glyph-name="one.lt" horiz-adv-x="1064" 
d="M57 0l41 227h322l127 731l-344 -159l45 258l442 200h166l-182 -1030h282l-41 -227h-858z" />
    <glyph glyph-name="two.lt" horiz-adv-x="1064" 
d="M465 227h446l-39 -227h-911v8l463 484q17 18 67.5 68t79 82.5t65 79.5t54 93t17.5 90q0 60 -42 96.5t-118 36.5q-96 0 -201 -51.5t-196 -124.5l45 268q84 67 199.5 107.5t232.5 40.5q164 0 256 -85t92 -222q0 -52 -11.5 -102t-37.5 -99.5t-50.5 -88.5t-68 -90
t-71.5 -81.5t-79 -83.5z" />
    <glyph glyph-name="three.lt" horiz-adv-x="1064" 
d="M229 1028l41 229h795v-6l-365 -503q100 -40 160 -124t60 -200q0 -132 -70.5 -234.5t-186 -156t-253.5 -53.5q-215 0 -363 108l45 252q60 -66 145 -102.5t175 -36.5q115 0 189.5 54t74.5 163q0 89 -78.5 140.5t-200.5 51.5q-5 0 -17 -1t-18 -1v6l302 414h-435z" />
    <glyph glyph-name="four.lt" horiz-adv-x="1064" 
d="M848 1257l-475 -798h248l49 268h231l-49 -268h168l-39 -215h-166l-43 -244h-231l43 244h-590v8l598 1005h256z" />
    <glyph glyph-name="five.lt" horiz-adv-x="1064" 
d="M936 449q0 -137 -70 -245t-189.5 -166t-266.5 -58q-234 0 -361 102l47 250q117 -133 316 -133q114 0 197 58t83 165q0 87 -62 131.5t-169 44.5q-145 0 -287 -53l129 712h717l-39 -229h-510l-43 -229q68 14 113 14q181 0 288 -95t107 -269z" />
    <glyph glyph-name="six.lt" horiz-adv-x="1064" 
d="M506 -20q-186 0 -305 118.5t-119 286.5q0 117 49 225t164 246l334 401h295l-351 -405q18 6 48 6q162 -7 268 -118t106 -271q0 -214 -142 -351.5t-347 -137.5zM514 203q103 0 173.5 70.5t70.5 175.5q0 89 -55.5 145.5t-139.5 56.5q-104 0 -174 -69.5t-70 -175.5
q0 -87 56 -145t139 -58z" />
    <glyph glyph-name="seven.lt" horiz-adv-x="1064" 
d="M1137 1251l-785 -1251h-278l649 1028h-563l39 229h938v-6z" />
    <glyph glyph-name="eight.lt" horiz-adv-x="1064" 
d="M311 346q0 -73 51 -116.5t134 -43.5q93 0 156 52.5t63 144.5q0 73 -51 116.5t-134 43.5q-93 0 -156 -52.5t-63 -144.5zM489 -20q-80 0 -155 21.5t-138 62t-101 107.5t-38 151q0 131 81 224t194 118q-65 33 -101 93.5t-36 143.5q0 114 61 201.5t159 131.5t214 44
q169 0 282 -87.5t113 -236.5q0 -117 -65.5 -203t-165.5 -120q76 -33 124 -100.5t48 -159.5q0 -95 -40.5 -171t-108.5 -123t-152 -72t-175 -25zM780 936q0 62 -44.5 101.5t-110.5 39.5q-80 0 -135.5 -49.5t-55.5 -132.5q0 -62 45 -101.5t109 -39.5q81 0 136.5 49.5
t55.5 132.5z" />
    <glyph glyph-name="nine.lt" horiz-adv-x="1064" 
d="M596 1278q124 0 222.5 -56t151 -148t52.5 -202q0 -117 -49 -225t-164 -246l-336 -401h-295l352 406q-24 -7 -47 -7q-163 7 -268.5 117.5t-105.5 271.5q0 142 66.5 255t177 174t243.5 61zM590 1055q-103 0 -173.5 -70.5t-70.5 -175.5q0 -89 55.5 -146t139.5 -57
q102 0 172.5 70t70.5 176q0 88 -55.5 145.5t-138.5 57.5z" />
    <glyph glyph-name="period.tab" horiz-adv-x="532" 
d="M47 150q0 69 47 115t115 46t114 -46t46 -115t-46.5 -116.5t-113.5 -47.5q-68 0 -115 47.5t-47 116.5z" />
    <glyph glyph-name="comma.tab" horiz-adv-x="532" 
d="M0 -223l184 233q-46 12 -74 49.5t-28 92.5q0 68 46 112.5t114 44.5q69 0 114 -45.5t45 -124.5q0 -84 -77 -180l-150 -182h-174z" />
    <glyph glyph-name="colon.tab" horiz-adv-x="532" 
d="M47 150q0 69 47 115t115 46t114 -46t46 -115t-46.5 -116.5t-113.5 -47.5q-68 0 -115 47.5t-47 116.5zM150 733q0 69 46.5 115.5t114.5 46.5t114 -46.5t46 -115.5t-46.5 -116.5t-113.5 -47.5q-68 0 -114.5 47.5t-46.5 116.5z" />
    <glyph glyph-name="semicolon.tab" horiz-adv-x="532" 
d="M0 -223l184 233q-46 12 -74 49.5t-28 92.5q0 68 46 112.5t114 44.5q69 0 114 -45.5t45 -124.5q0 -84 -77 -180l-150 -182h-174zM150 733q0 69 46.5 115.5t114.5 46.5t114 -46.5t46 -115.5t-46.5 -116.5t-113.5 -47.5q-68 0 -114.5 47.5t-46.5 116.5z" />
    <glyph glyph-name="space.tab" horiz-adv-x="532" 
 />
    <glyph glyph-name="percent.lt" horiz-adv-x="1064" 
d="M365 1278q99 0 168 -69.5t69 -168.5q0 -105 -75 -183.5t-185 -78.5q-101 0 -169.5 69t-68.5 169q0 105 75.5 183.5t185.5 78.5zM348 924q43 0 76 31t33 79q0 40 -29.5 69.5t-69.5 29.5q-44 0 -76 -32.5t-32 -78.5q0 -41 28.5 -69.5t69.5 -28.5zM723 -20q-99 0 -168.5 69
t-69.5 168q0 106 74.5 184t185.5 78q101 0 169.5 -68.5t68.5 -168.5q0 -105 -75 -183.5t-185 -78.5zM739 334q-43 0 -75.5 -31.5t-32.5 -79.5q0 -40 28.5 -69t69.5 -29q44 0 76.5 32.5t32.5 78.5q0 41 -29 69.5t-70 28.5zM1126 1257l-983 -1257h-182l983 1257h182z" />
    <glyph glyph-name="perthousand.lt" horiz-adv-x="1638" 
d="M397 1278q99 0 168.5 -69.5t69.5 -168.5q0 -106 -74.5 -184t-185.5 -78q-101 0 -169.5 69t-68.5 169q0 105 75 183.5t185 78.5zM381 924q43 0 75.5 31t32.5 79q0 40 -28.5 69.5t-69.5 29.5q-42 0 -75 -32.5t-33 -78.5q0 -41 28.5 -69.5t69.5 -28.5zM756 -20
q-100 0 -169 69t-69 168q0 105 75 183.5t185 78.5q101 0 169.5 -68.5t68.5 -168.5q0 -105 -75 -183.5t-185 -78.5zM772 334q-43 0 -74.5 -31.5t-31.5 -79.5q0 -40 28 -69t68 -29q44 0 76 32.5t32 78.5q0 41 -28.5 69.5t-69.5 28.5zM1159 1257l-983 -1257h-182l983 1257h182z
M1309 -20q-99 0 -168.5 69t-69.5 168q0 105 75 183.5t185 78.5q101 0 169.5 -68.5t68.5 -168.5q0 -105 -75 -183.5t-185 -78.5zM1325 334q-43 0 -75.5 -31.5t-32.5 -79.5q0 -40 29 -69t69 -29q43 0 75.5 32.5t32.5 78.5q0 41 -28.5 69.5t-69.5 28.5z" />
    <glyph glyph-name="plus.lt" horiz-adv-x="1064" 
d="M530 1055h195l-61 -344h346l-35 -197h-346l-60 -342h-194l59 342h-344l35 197h344z" />
    <glyph glyph-name="minus.lt" horiz-adv-x="1064" 
d="M90 514l35 197h885l-35 -197h-885z" />
    <glyph glyph-name="multiply.lt" horiz-adv-x="1064" 
d="M420 612l-207 248l152 129l202 -248l295 250l113 -135l-295 -250l205 -248l-152 -129l-205 248l-292 -250l-113 138z" />
    <glyph glyph-name="divide.lt" horiz-adv-x="1064" 
d="M90 514l35 197h885l-35 -197h-885zM469 967q0 60 42.5 102.5t102.5 42.5t103 -42.5t43 -102.5t-43 -102t-103 -42t-102.5 42t-42.5 102zM344 258q0 60 42.5 101.5t102.5 41.5t103 -41.5t43 -101.5t-43 -102.5t-103 -42.5t-102.5 42.5t-42.5 102.5z" />
    <glyph glyph-name="equal.lt" horiz-adv-x="1064" 
d="M63 358l31 179h883l-31 -179h-883zM123 692l31 180h882l-30 -180h-883z" />
    <glyph glyph-name="less.lt" horiz-adv-x="1064" 
d="M164 483l43 252l727 312l-39 -228l-528 -217l452 -217l-39 -215z" />
    <glyph glyph-name="greater.lt" horiz-adv-x="1064" 
d="M934 733l-43 -252l-727 -311l39 227l528 217l-452 217l38 216z" />
    <glyph glyph-name="plusminus.lt" horiz-adv-x="1064" 
d="M569 1122h185l-47 -266h335l-30 -184h-338l-47 -266h-185l47 266h-337l32 184h338zM55 127l33 186h860l-35 -186h-858z" />
    <glyph glyph-name="lessequal.lt" horiz-adv-x="1064" 
d="M213 621l41 239l719 256l-39 -219l-508 -164l448 -164l-32 -200zM123 123l35 190h673l-34 -190h-674z" />
    <glyph glyph-name="greaterequal.lt" horiz-adv-x="1064" 
d="M856 313l-35 -190h-674l33 190h676zM952 862l-41 -239l-721 -254l41 219l508 162l-450 165l33 201z" />
    <glyph glyph-name="notequal.lt" horiz-adv-x="1064" 
d="M123 692l31 178h526l164 193h168l-164 -193h188l-30 -178h-308l-133 -157h412l-31 -177h-530l-162 -192h-168l162 192h-185l31 177h303l133 157h-407z" />
    <glyph glyph-name="approxequal.lt" horiz-adv-x="1064" 
d="M113 639l32 184q133 78 250 78q75 0 194.5 -38t194.5 -38q120 0 258 80l-32 -184q-138 -80 -258 -80q-75 0 -193.5 39t-193.5 39q-120 0 -252 -80zM57 326l33 182q132 80 252 80q75 0 193.5 -39t193.5 -39q122 0 258 80l-33 -184q-134 -78 -258 -78q-75 0 -193.5 37.5
t-193.5 37.5q-118 0 -252 -77z" />
    </font>
</defs>
</svg>
