<?xml version="1.0" standalone="no"?>
<!DOCTYPE svg PUBLIC "-//W3C//DTD SVG 1.1//EN" "http://www.w3.org/Graphics/SVG/1.1/DTD/svg11.dtd" >
<svg xmlns="http://www.w3.org/2000/svg" xmlns:xlink="http://www.w3.org/1999/xlink" version="1.1">
<metadata>
Created by FontForge 20170731 at Wed Mar 10 14:29:50 2021
 By Aleksey,,,
(c) 2011 Klim Type Foundry. All rights reserved.
</metadata>
<defs>
<font id="Metric-Medium" horiz-adv-x="1024" >
  <font-face 
    font-family="Metric Medium"
    font-weight="500"
    font-stretch="normal"
    units-per-em="2048"
    panose-1="2 11 6 3 3 2 2 6 2 3"
    ascent="1331"
    descent="-717"
    x-height="909"
    cap-height="1257"
    bbox="-246 -444 1929 1831"
    underline-thickness="61"
    underline-position="-204"
    unicode-range="U+0020-FB02"
  />
<missing-glyph horiz-adv-x="1245" 
 />
    <glyph glyph-name="f_f" unicode="ff" horiz-adv-x="1230" 
d="M1210 1327v-180q-45 29 -100 29q-62 0 -97.5 -36.5t-35.5 -103.5v-127h199v-170h-199v-739h-201v739h-381v-739h-200v739h-158v170h158v129q0 142 83.5 221.5t215.5 79.5q80 0 135 -24v-180q-43 28 -101 28q-62 0 -97.5 -36t-35.5 -103v-115h381v142q0 142 83.5 221.5
t215.5 79.5q77 0 135 -25z" />
    <glyph glyph-name=".notdef" horiz-adv-x="1245" 
 />
    <glyph glyph-name=".null" horiz-adv-x="0" 
 />
    <glyph glyph-name="nonmarkingreturn" horiz-adv-x="682" 
 />
    <glyph glyph-name="space" unicode=" " horiz-adv-x="452" 
 />
    <glyph glyph-name="exclam" unicode="!" horiz-adv-x="409" 
d="M66 127q0 60 40 100.5t99 40.5t99 -40.5t40 -100.5t-40 -100.5t-99 -40.5t-99 40.5t-40 100.5zM133 395l-51 862h246l-52 -862h-143z" />
    <glyph glyph-name="quotedbl" unicode="&#x22;" horiz-adv-x="624" 
d="M82 766v491h174v-491h-174zM369 766v491h174v-491h-174z" />
    <glyph glyph-name="numbersign" unicode="#" horiz-adv-x="1230" 
d="M1102 487l-31 -155h-217l-78 -332h-180l80 332h-262l-80 -332h-178l77 332h-192l33 155h196l68 283h-209l31 156h215l80 331h180l-80 -331h262l80 331h178l-80 -331h195l-33 -156h-199l-67 -283h211zM518 770l-67 -283h262l67 283h-262z" />
    <glyph glyph-name="dollar" unicode="$" horiz-adv-x="964" 
d="M391 -188v198q-185 17 -309 105v215q173 -140 381 -140q107 0 170 38.5t63 115.5q0 66 -39.5 102t-128.5 72l-174 62q-66 24 -113.5 51.5t-87.5 67t-60.5 95.5t-20.5 128q0 133 88 216.5t231 104.5v189h184v-189q138 -17 256 -92v-211q-170 129 -350 129q-95 0 -153 -36
t-58 -107q0 -62 37 -95.5t119 -62.5l195 -72q140 -51 206 -134.5t66 -213.5q0 -134 -87 -220t-231 -112v-204h-184z" />
    <glyph glyph-name="percent" unicode="%" horiz-adv-x="1355" 
d="M215 993q0 -54 37.5 -91.5t91.5 -37.5t92.5 37.5t38.5 91.5t-38.5 92.5t-92.5 38.5t-91.5 -38.5t-37.5 -92.5zM219 0l756 1257h162l-756 -1257h-162zM1294 264q0 -119 -82 -201.5t-200 -82.5q-119 0 -202 83t-83 201t83 200.5t202 82.5q118 0 200 -82t82 -201zM629 993
q0 -118 -83 -200t-202 -82t-201 82t-82 200q0 119 82.5 202t200.5 83t201.5 -83t83.5 -202zM1141 264q0 54 -37.5 91.5t-91.5 37.5t-92.5 -37.5t-38.5 -91.5t38.5 -92.5t92.5 -38.5t91.5 38.5t37.5 92.5z" />
    <glyph glyph-name="ampersand" unicode="&#x26;" horiz-adv-x="1241" 
d="M565 1108q-70 0 -117 -39.5t-47 -110.5q0 -29 8.5 -55.5t30 -56.5t34.5 -45.5t46 -50.5l316 -338q35 94 41 227h188q-6 -203 -98 -367l254 -272h-267l-110 115q-145 -135 -344 -135q-185 0 -301.5 109t-116.5 280q0 106 59.5 194.5t157.5 141.5q-94 118 -94 247
q0 149 101.5 237.5t258.5 88.5q154 0 273 -80v-207q-134 117 -273 117zM500 147q137 0 231 91l-321 342q-61 -27 -98.5 -84t-37.5 -127q0 -99 62 -160.5t164 -61.5z" />
    <glyph glyph-name="quotesingle" unicode="'" horiz-adv-x="346" 
d="M82 766v491h182v-491h-182z" />
    <glyph glyph-name="parenleft" unicode="(" horiz-adv-x="651" 
d="M61 580q0 281 148 483t401 268v-221q-153 -38 -249.5 -180.5t-96.5 -349.5q0 -208 96.5 -350.5t249.5 -180.5v-221q-252 66 -400.5 268.5t-148.5 483.5z" />
    <glyph glyph-name="parenright" unicode=")" horiz-adv-x="651" 
d="M590 580q0 -281 -148.5 -483.5t-400.5 -268.5v221q153 38 249.5 180.5t96.5 350.5q0 207 -96.5 349.5t-249.5 180.5v221q253 -66 401 -268t148 -483z" />
    <glyph glyph-name="asterisk" unicode="*" horiz-adv-x="712" 
d="M242 1024l-181 104l58 99l180 -105v209h115v-209l180 105l57 -99l-182 -104l182 -104l-57 -99l-180 105v-209h-115v209l-180 -105l-58 99z" />
    <glyph glyph-name="plus" unicode="+" horiz-adv-x="1155" 
d="M496 1038h163v-344h345v-164h-345v-342h-163v342h-344v164h344v344z" />
    <glyph glyph-name="comma" unicode="," horiz-adv-x="409" 
d="M33 -231l147 227q-51 8 -82.5 42.5t-31.5 88.5q0 59 40 98t99 39q61 0 100 -40t39 -113q0 -76 -59 -164l-119 -178h-133z" />
    <glyph glyph-name="hyphen" unicode="-" horiz-adv-x="657" 
d="M82 444v187h493v-187h-493z" />
    <glyph glyph-name="period" unicode="." horiz-adv-x="409" 
d="M66 127q0 60 40 100.5t99 40.5t99 -40.5t40 -100.5t-40 -100.5t-99 -40.5t-99 40.5t-40 100.5z" />
    <glyph glyph-name="slash" unicode="/" horiz-adv-x="731" 
d="M10 -172l508 1503h203l-508 -1503h-203z" />
    <glyph glyph-name="zero" unicode="0" horiz-adv-x="1105" 
d="M553 -20q-213 0 -344 180.5t-131 468.5t131 468.5t344 180.5t344 -180.5t131 -468.5t-131 -468.5t-344 -180.5zM553 1085q-134 0 -201 -124t-67 -332t67 -332.5t201 -124.5q89 0 150 60t88.5 160.5t27.5 236.5t-27.5 236t-88.5 160t-150 60z" />
    <glyph glyph-name="one" unicode="1" horiz-adv-x="673" 
d="M541 1257v-1257h-207v1001l-295 -149v215l377 190h125z" />
    <glyph glyph-name="two" unicode="2" horiz-adv-x="919" 
d="M412 186h446v-186h-817v8l365 469q50 63 72 91t58 80.5t51.5 86t28.5 78.5t13 88q0 84 -52 135t-149 51q-184 0 -358 -174v211q66 70 166 112t210 42q178 0 284 -99.5t106 -269.5q0 -61 -18.5 -123t-58.5 -129.5t-75 -117.5t-96 -129z" />
    <glyph glyph-name="three" unicode="3" horiz-adv-x="897" 
d="M70 1069v188h745v-6l-272 -503q130 -29 206 -125t76 -234q0 -183 -123.5 -296t-298.5 -113q-207 0 -346 106v217q68 -66 154 -102.5t178 -36.5q114 0 179 55.5t65 167.5q0 118 -97 179t-257 61v6l235 436h-444z" />
    <glyph glyph-name="four" unicode="4" horiz-adv-x="1056" 
d="M696 1257l-372 -819h303v295h196v-295h187v-176h-187v-262h-196v262h-590v8l450 987h209z" />
    <glyph glyph-name="five" unicode="5" horiz-adv-x="925" 
d="M403 805q199 0 328 -109.5t129 -302.5t-131.5 -303t-335.5 -110q-187 0 -321 100v223q142 -139 311 -139q122 0 201.5 60t79.5 169t-80.5 170.5t-202.5 61.5q-76 0 -133.5 -13.5t-134.5 -44.5v690h684v-188h-512v-276q40 12 118 12z" />
    <glyph glyph-name="six" unicode="6" horiz-adv-x="991" 
d="M496 -20q-190 0 -312.5 123.5t-122.5 310.5q0 171 129 393l261 450h219l-248 -430q34 17 90 17q184 0 301 -122.5t117 -307.5q0 -187 -122.5 -310.5t-311.5 -123.5zM737 414q0 106 -67.5 178t-173.5 72q-105 0 -173.5 -72.5t-68.5 -177.5q0 -107 68.5 -178.5t173.5 -71.5
q106 0 173.5 71.5t67.5 178.5z" />
    <glyph glyph-name="seven" unicode="7" horiz-adv-x="921" 
d="M905 1251l-571 -1251h-213l489 1069h-573v188h868v-6z" />
    <glyph glyph-name="eight" unicode="8" horiz-adv-x="1007" 
d="M504 152q101 0 165 55.5t64 150.5q0 96 -64 151.5t-165 55.5t-165.5 -55.5t-64.5 -151.5q0 -95 64.5 -150.5t165.5 -55.5zM504 743q80 0 136 49t56 132q0 86 -55.5 135t-136.5 49t-137 -49t-56 -135q0 -83 56.5 -132t136.5 -49zM504 -20q-187 0 -310.5 98t-123.5 264
q0 120 66.5 202t164.5 107q-84 32 -138 107t-54 176q0 159 114.5 251.5t280.5 92.5t280.5 -92.5t114.5 -251.5q0 -101 -54 -176t-138 -107q98 -25 164.5 -107t66.5 -202q0 -166 -123.5 -264t-310.5 -98z" />
    <glyph glyph-name="nine" unicode="9" horiz-adv-x="991" 
d="M496 1278q189 0 311.5 -123.5t122.5 -310.5q0 -171 -129 -393l-260 -451h-219l247 430q-32 -16 -90 -16q-184 0 -301 122.5t-117 307.5q0 187 122.5 310.5t312.5 123.5zM254 844q0 -106 68 -178t174 -72q105 0 173 72t68 178q0 107 -68 178.5t-173 71.5
q-106 0 -174 -71.5t-68 -178.5z" />
    <glyph glyph-name="colon" unicode=":" horiz-adv-x="409" 
d="M66 127q0 60 40 100.5t99 40.5t99 -40.5t40 -100.5t-40 -100.5t-99 -40.5t-99 40.5t-40 100.5zM66 741q0 60 40 101t99 41t99 -41t40 -101t-40 -100.5t-99 -40.5t-99 40.5t-40 100.5z" />
    <glyph glyph-name="semicolon" unicode=";" horiz-adv-x="409" 
d="M33 -231l147 227q-51 8 -82.5 42.5t-31.5 88.5q0 59 40 98t99 39q61 0 100 -40t39 -113q0 -76 -59 -164l-119 -178h-133zM66 741q0 60 40 101t99 41t99 -41t40 -101t-40 -100.5t-99 -40.5t-99 40.5t-40 100.5z" />
    <glyph glyph-name="less" unicode="&#x3c;" horiz-adv-x="913" 
d="M133 500v219l647 311v-188l-497 -234l497 -231v-191z" />
    <glyph glyph-name="equal" unicode="=" horiz-adv-x="1183" 
d="M168 385v152h850v-152h-850zM168 688v156h850v-156h-850z" />
    <glyph glyph-name="greater" unicode="&#x3e;" horiz-adv-x="913" 
d="M782 719v-219l-649 -314v191l498 231l-498 234v188z" />
    <glyph glyph-name="question" unicode="?" horiz-adv-x="847" 
d="M436 659q14 15 43 44.5t45.5 48.5t36 46t28.5 55.5t9 59.5q0 82 -48.5 125t-143.5 43q-191 0 -365 -174v217q66 69 166.5 111.5t210.5 42.5q178 0 283.5 -97t105.5 -266q0 -52 -15.5 -100t-48 -92.5t-59 -75t-70.5 -74.5l-16 -16q-86 -88 -86 -162h-201q4 83 30 136
t95 128zM264 127q0 60 40 100.5t99 40.5t99.5 -40.5t40.5 -100.5t-40.5 -100.5t-99.5 -40.5t-99 40.5t-40 100.5z" />
    <glyph glyph-name="at" unicode="@" horiz-adv-x="1585" 
d="M1167 782l-82 -473q-9 -55 6 -78.5t62 -23.5q97 0 157 96t60 258q0 212 -148 336.5t-380 124.5q-275 0 -448 -176t-173 -457q0 -125 38.5 -223.5t100 -160t145 -102.5t167 -57t172.5 -16q237 0 459 98v-147q-83 -41 -205 -68.5t-254 -27.5q-123 0 -236 25.5t-214 81
t-175.5 136t-118 199t-43.5 262.5q0 160 57.5 303t158.5 248.5t249 167t320 61.5q150 0 278.5 -46.5t217.5 -127.5t139.5 -193t50.5 -241q0 -122 -34.5 -218.5t-92.5 -155t-129.5 -89t-151.5 -30.5q-73 0 -132 29t-89 81q-27 -50 -83.5 -80t-113.5 -30q-124 0 -200 87
t-76 218q0 113 48 211.5t135.5 158.5t193.5 60q59 0 105.5 -22t68.5 -54l12 55h178zM903 328l43 227q-12 37 -47.5 60.5t-83.5 23.5q-89 0 -145 -76.5t-56 -179.5q0 -66 35.5 -108t98.5 -42q91 0 155 95z" />
    <glyph glyph-name="A" unicode="A" horiz-adv-x="1253" 
d="M524 1257h205l483 -1257h-217l-129 348h-481l-129 -348h-215zM625 997l-172 -465h344z" />
    <glyph glyph-name="B" unicode="B" horiz-adv-x="1128" 
d="M842 649q90 -29 147.5 -109.5t57.5 -179.5q0 -174 -113 -267t-313 -93h-482v1257h441q200 0 313 -88t113 -254q0 -98 -46 -169t-118 -97zM346 729h232q223 0 223 174q0 170 -223 170h-232v-344zM346 553v-369h270q106 0 164 49.5t58 135.5q0 87 -58 135.5t-164 48.5h-270
z" />
    <glyph glyph-name="C" unicode="C" horiz-adv-x="1116" 
d="M72 629q0 190 79 338.5t217 229.5t312 81q203 0 334 -109v-221q-148 139 -332 139q-179 0 -287 -127t-108 -331q0 -203 108 -330t287 -127q186 0 332 137v-221q-130 -108 -334 -108q-174 0 -312 81t-217 229.5t-79 338.5z" />
    <glyph glyph-name="D" unicode="D" horiz-adv-x="1245" 
d="M352 190h203q195 0 300.5 117.5t105.5 321.5q0 205 -105.5 322.5t-300.5 117.5h-203v-879zM139 0v1257h424q279 0 445 -170.5t166 -457.5t-166.5 -458t-444.5 -171h-424z" />
    <glyph glyph-name="E" unicode="E" horiz-adv-x="1052" 
d="M139 1257h822v-188h-613v-332h555v-186h-555v-361h613v-190h-822v1257z" />
    <glyph glyph-name="F" unicode="F" horiz-adv-x="1013" 
d="M352 0h-213v1257h803v-188h-590v-373h551v-186h-551v-510z" />
    <glyph glyph-name="G" unicode="G" horiz-adv-x="1226" 
d="M680 168q147 0 248 82v242h-238v178h434v-504q-87 -94 -204 -140t-244 -46q-277 0 -440.5 179.5t-163.5 469.5q0 286 178 467.5t450 181.5q216 0 357 -109v-221q-157 139 -357 139q-184 0 -298.5 -127.5t-114.5 -330.5q0 -205 105 -333t288 -128z" />
    <glyph glyph-name="H" unicode="H" horiz-adv-x="1337" 
d="M985 1257h213v-1257h-213v551h-633v-551h-213v1257h213v-518h633v518z" />
    <glyph glyph-name="I" unicode="I" horiz-adv-x="491" 
d="M352 1257v-1257h-213v1257h213z" />
    <glyph glyph-name="J" unicode="J" horiz-adv-x="827" 
d="M61 49v215q71 -45 127 -67.5t123 -22.5q102 0 145.5 63t43.5 207v813h213v-823q0 -234 -99 -344t-299 -110q-69 0 -138 20.5t-116 48.5z" />
    <glyph glyph-name="K" unicode="K" horiz-adv-x="1169" 
d="M352 1257v-546l504 546h264l-567 -602l586 -655h-271l-516 575v-575h-213v1257h213z" />
    <glyph glyph-name="L" unicode="L" horiz-adv-x="1034" 
d="M139 0v1257h213v-1067h604v-190h-817z" />
    <glyph glyph-name="M" unicode="M" horiz-adv-x="1480" 
d="M748 270h-9l-391 611v-881h-209v1257h199l407 -655l406 655h190v-1257h-208v881z" />
    <glyph glyph-name="N" unicode="N" horiz-adv-x="1290" 
d="M1151 1257v-1257h-164l-643 915v-915h-205v1257h201l606 -872v872h205z" />
    <glyph glyph-name="O" unicode="O" horiz-adv-x="1304" 
d="M1233 629q0 -185 -74 -333.5t-207 -232t-301 -83.5t-300 83.5t-205.5 231.5t-73.5 334q0 283 162.5 466t416.5 183q168 0 301 -83t207 -231.5t74 -334.5zM1018 629q0 201 -101.5 329.5t-265.5 128.5t-264 -128t-100 -330t100 -330.5t264 -128.5t265.5 129t101.5 330z" />
    <glyph glyph-name="P" unicode="P" horiz-adv-x="1116" 
d="M625 469h-273v-469h-213v1257h486q199 0 314.5 -102t115.5 -293q0 -189 -115.5 -291t-314.5 -102zM844 862q0 96 -57.5 153.5t-165.5 57.5h-269v-420h269q107 0 165 57.5t58 151.5z" />
    <glyph glyph-name="Q" unicode="Q" horiz-adv-x="1302" 
d="M1018 -84l-103 127q-120 -63 -264 -63q-168 0 -300 83.5t-205.5 231.5t-73.5 334q0 283 162.5 466t416.5 183q168 0 301 -83t207 -231.5t74 -334.5q0 -143 -45.5 -264t-128.5 -209l104 -129zM1018 629q0 201 -101.5 329.5t-265.5 128.5t-264 -128t-100 -330t100 -330.5
t264 -128.5q77 0 144 25l-105 129l148 108l100 -125q80 119 80 322z" />
    <glyph glyph-name="R" unicode="R" horiz-adv-x="1136" 
d="M504 510h-152v-510h-213v1257h486q199 0 313.5 -97.5t114.5 -278.5q0 -155 -84.5 -247t-237.5 -116l365 -518h-242zM352 1073v-385h269q104 0 162.5 52t58.5 141t-58 140.5t-163 51.5h-269z" />
    <glyph glyph-name="S" unicode="S" horiz-adv-x="1015" 
d="M88 90v223q181 -145 399 -145q112 0 178 41t66 123q0 69 -41.5 106.5t-134.5 73.5l-182 66q-68 25 -117.5 53.5t-92 70t-64 100.5t-21.5 134q0 107 58.5 186t153.5 117.5t212 38.5q215 0 370 -102v-220q-177 136 -366 136q-99 0 -160 -39t-61 -113q0 -65 39 -100t125 -66
l202 -74q149 -54 218 -141t69 -223q0 -167 -126.5 -261.5t-324.5 -94.5q-120 0 -224.5 30.5t-174.5 79.5z" />
    <glyph glyph-name="T" unicode="T" horiz-adv-x="1171" 
d="M61 1069v188h1049v-188h-418v-1069h-213v1069h-418z" />
    <glyph glyph-name="U" unicode="U" horiz-adv-x="1245" 
d="M623 -20q-231 0 -367.5 134.5t-136.5 387.5v755h213v-733q0 -354 291 -354q290 0 290 354v733h213v-757q0 -252 -135.5 -386t-367.5 -134z" />
    <glyph glyph-name="V" unicode="V" horiz-adv-x="1234" 
d="M719 0h-203l-475 1257h223l357 -981l356 981h217z" />
    <glyph glyph-name="W" unicode="W" horiz-adv-x="1587" 
d="M711 1257h172l237 -925l228 925h204l-323 -1257h-197l-237 899l-242 -899h-195l-323 1257h209l227 -925z" />
    <glyph glyph-name="X" unicode="X" horiz-adv-x="1173" 
d="M1133 1257l-426 -612l446 -645h-244l-325 473l-326 -473h-238l445 641l-424 616h244l303 -444l309 444h236z" />
    <glyph glyph-name="Y" unicode="Y" horiz-adv-x="1183" 
d="M596 694l332 563h225l-457 -755v-502h-211v502l-454 755h231z" />
    <glyph glyph-name="Z" unicode="Z" horiz-adv-x="1103" 
d="M1024 190v-190h-958v8l632 1061h-604v188h938v-8l-631 -1059h623z" />
    <glyph glyph-name="bracketleft" unicode="[" horiz-adv-x="645" 
d="M332 1147v-1135h272v-184h-465v1503h465v-184h-272z" />
    <glyph glyph-name="backslash" unicode="\" horiz-adv-x="731" 
d="M213 1331l508 -1503h-203l-508 1503h203z" />
    <glyph glyph-name="bracketright" unicode="]" horiz-adv-x="645" 
d="M313 12v1135h-272v184h465v-1503h-465v184h272z" />
    <glyph glyph-name="asciicircum" unicode="^" horiz-adv-x="800" 
d="M297 1257h209l274 -421h-207l-172 258l-172 -258h-209z" />
    <glyph glyph-name="underscore" unicode="_" horiz-adv-x="780" 
d="M41 -264v178h698v-178h-698z" />
    <glyph glyph-name="grave" unicode="`" 
d="M696 1051h-182l-186 280h211z" />
    <glyph glyph-name="a" unicode="a" horiz-adv-x="942" 
d="M631 518v64q0 76 -56.5 118.5t-152.5 42.5q-133 0 -252 -79v188q46 33 125.5 55.5t163.5 22.5q176 0 272 -88.5t96 -245.5v-596h-196v51q-26 -26 -88.5 -46.5t-134.5 -20.5q-144 0 -242 81t-98 216q0 128 101 210t253 82q59 0 119.5 -17t89.5 -38zM631 242v75
q-17 42 -69.5 67.5t-115.5 25.5q-77 0 -132.5 -33t-55.5 -96q0 -64 55.5 -97.5t132.5 -33.5q63 0 115.5 25t69.5 67z" />
    <glyph glyph-name="b" unicode="b" horiz-adv-x="1048" 
d="M332 78v-78h-205v1331h205v-500q33 41 96.5 70t134.5 29q193 0 307.5 -136.5t114.5 -338.5q0 -132 -49 -239t-146.5 -171.5t-226.5 -64.5q-71 0 -134.5 28.5t-96.5 69.5zM332 627v-344q26 -54 79.5 -87.5t116.5 -33.5q116 0 184 82t68 211t-68 211t-184 82
q-63 0 -116.5 -33.5t-79.5 -87.5z" />
    <glyph glyph-name="c" unicode="c" horiz-adv-x="835" 
d="M63 455q0 107 36 197.5t97.5 150.5t144 93.5t175.5 33.5q154 0 248 -76v-201q-95 95 -234 95q-112 0 -187 -80.5t-75 -212.5t75 -212.5t187 -80.5q140 0 234 94v-201q-93 -75 -248 -75q-93 0 -175.5 33.5t-144 93.5t-97.5 150.5t-36 197.5z" />
    <glyph glyph-name="d" unicode="d" horiz-adv-x="1048" 
d="M717 0v78q-33 -41 -96.5 -69.5t-135.5 -28.5q-129 0 -226.5 64.5t-146.5 171.5t-49 239q0 202 114.5 338.5t307.5 136.5q71 0 135 -29t97 -70v500h205v-1331h-205zM717 283v344q-26 54 -80 87.5t-117 33.5q-116 0 -184 -82t-68 -211t68 -211t184 -82q63 0 117 33.5
t80 87.5z" />
    <glyph glyph-name="e" unicode="e" horiz-adv-x="931" 
d="M864 410h-602q10 -127 87.5 -190.5t193.5 -63.5q75 0 135 19.5t125 64.5v-181q-108 -79 -289 -79q-202 0 -326.5 126.5t-124.5 339.5t117.5 348.5t300.5 135.5q185 0 284 -121t99 -326v-73zM483 758q-73 0 -130 -47.5t-79 -145.5h396q-5 86 -53.5 139.5t-133.5 53.5z" />
    <glyph glyph-name="f" unicode="f" horiz-adv-x="649" 
d="M629 1327v-180q-45 29 -101 29q-62 0 -97.5 -36.5t-35.5 -103.5v-127h199v-170h-199v-739h-200v739h-158v170h158v142q0 142 83.5 221.5t215.5 79.5q77 0 135 -25z" />
    <glyph glyph-name="g" unicode="g" horiz-adv-x="1044" 
d="M713 61v29q-33 -39 -95 -66.5t-135 -27.5q-129 0 -226.5 66.5t-145.5 171.5t-48 229t48 229t145.5 171.5t226.5 66.5q73 0 135 -27.5t95 -66.5v73h205v-833q0 -96 -28 -173.5t-74 -127t-108 -83t-125.5 -47.5t-131.5 -14q-181 0 -304 78v217q128 -114 304 -114
q114 0 188 65.5t74 183.5zM713 285v356q-27 48 -80 78.5t-115 30.5q-116 0 -182 -79.5t-66 -207.5t66 -207.5t182 -79.5q62 0 115 30.5t80 78.5z" />
    <glyph glyph-name="h" unicode="h" horiz-adv-x="1013" 
d="M127 0v1331h205v-508q39 46 105 76.5t141 30.5q152 0 236.5 -92t84.5 -246v-592h-205v557q0 87 -43 136.5t-129 49.5q-67 0 -120 -39.5t-70 -105.5v-598h-205z" />
    <glyph glyph-name="i" unicode="i" horiz-adv-x="458" 
d="M332 909v-909h-205v909h205zM356 1184q0 -52 -37.5 -88.5t-89.5 -36.5t-89.5 36.5t-37.5 88.5t37.5 88.5t89.5 36.5t89.5 -36.5t37.5 -88.5z" />
    <glyph glyph-name="j" unicode="j" horiz-adv-x="454" 
d="M332 909v-991q0 -137 -75.5 -212t-221.5 -75q-55 0 -82 11v172q32 -9 61 -9q58 0 85.5 31t27.5 96v977h205zM356 1184q0 -52 -37.5 -88.5t-89.5 -36.5t-89.5 36.5t-37.5 88.5t37.5 88.5t89.5 36.5t89.5 -36.5t37.5 -88.5z" />
    <glyph glyph-name="k" unicode="k" horiz-adv-x="948" 
d="M532 496l416 -496h-248l-368 436v-436h-205v1331h205v-790l352 368h256z" />
    <glyph glyph-name="l" unicode="l" horiz-adv-x="458" 
d="M332 1331v-1331h-205v1331h205z" />
    <glyph glyph-name="m" unicode="m" horiz-adv-x="1478" 
d="M799 809q103 121 270 121q139 0 217 -91t78 -247v-592h-205v559q0 87 -38 136.5t-111 49.5q-58 0 -103.5 -35t-58.5 -100v-610h-205v559q0 87 -38 136.5t-111 49.5q-59 0 -104 -35t-58 -100v-610h-205v909h205v-75q33 44 92.5 70t134.5 26t139.5 -33.5t100.5 -87.5z" />
    <glyph glyph-name="n" unicode="n" horiz-adv-x="1013" 
d="M127 0v909h205v-86q39 46 105 76.5t141 30.5q152 0 236.5 -92t84.5 -246v-592h-205v557q0 87 -43 136.5t-129 49.5q-67 0 -120 -39.5t-70 -105.5v-598h-205z" />
    <glyph glyph-name="o" unicode="o" horiz-adv-x="991" 
d="M928 455q0 -210 -120 -342.5t-312 -132.5t-312.5 132.5t-120.5 342.5t120.5 342.5t312.5 132.5t312 -132.5t120 -342.5zM723 455q0 133 -60 216t-167 83t-167.5 -83t-60.5 -216t60.5 -216t167.5 -83t167 83t60 216z" />
    <glyph glyph-name="p" unicode="p" horiz-adv-x="1048" 
d="M332 78v-426h-205v1257h205v-78q33 41 96.5 70t134.5 29q97 0 177.5 -38.5t133.5 -104t82 -151t29 -181.5t-29 -181.5t-82 -151t-133.5 -104t-177.5 -38.5q-71 0 -134.5 28.5t-96.5 69.5zM332 627v-344q26 -54 79.5 -87.5t116.5 -33.5q116 0 184 82t68 211t-68 211
t-184 82q-63 0 -116.5 -33.5t-79.5 -87.5z" />
    <glyph glyph-name="q" unicode="q" horiz-adv-x="1048" 
d="M717 -348v426q-33 -41 -96.5 -69.5t-135.5 -28.5q-97 0 -177.5 38.5t-133.5 104t-82 151t-29 181.5t29 181.5t82 151t133.5 104t177.5 38.5q71 0 135 -29t97 -70v78h205v-1257h-205zM717 283v344q-26 54 -80 87.5t-117 33.5q-116 0 -184 -82t-68 -211t68 -211t184 -82
q63 0 117 33.5t80 87.5z" />
    <glyph glyph-name="r" unicode="r" horiz-adv-x="696" 
d="M635 913v-211q-45 31 -121 31q-67 0 -117.5 -37.5t-64.5 -107.5v-588h-205v909h205v-94q26 51 82 83t121 32q70 0 100 -17z" />
    <glyph glyph-name="s" unicode="s" horiz-adv-x="825" 
d="M86 74v209q64 -63 145.5 -98t161.5 -35q70 0 114 24t44 72q0 41 -29.5 63.5t-91.5 42.5l-98 31q-123 38 -184.5 100.5t-61.5 173.5q0 123 96.5 198t245.5 75q153 0 272 -80v-207q-134 117 -272 117q-64 0 -104.5 -25t-40.5 -69q0 -42 26 -63.5t90 -41.5l119 -37
q116 -36 174 -101t58 -167q0 -129 -101 -202.5t-258 -73.5q-87 0 -169 25t-136 69z" />
    <glyph glyph-name="t" unicode="t" horiz-adv-x="698" 
d="M440 739v-739h-204v739h-185v170h185v244h204v-244h205v-170h-205z" />
    <glyph glyph-name="u" unicode="u" horiz-adv-x="1009" 
d="M883 909v-909h-205v86q-39 -46 -104 -76t-140 -30q-152 0 -235.5 91.5t-83.5 245.5v592h204v-557q0 -88 42.5 -137t127.5 -49q67 0 119.5 39.5t69.5 105.5v598h205z" />
    <glyph glyph-name="v" unicode="v" horiz-adv-x="974" 
d="M592 0h-211l-344 909h219l236 -665l233 665h213z" />
    <glyph glyph-name="w" unicode="w" horiz-adv-x="1335" 
d="M764 909l160 -645l176 645h198l-264 -909h-205l-161 633l-162 -633h-205l-264 909h205l176 -645l160 645h186z" />
    <glyph glyph-name="x" unicode="x" horiz-adv-x="952" 
d="M903 909l-315 -434l340 -475h-232l-225 322l-227 -322h-219l337 467l-313 442h232l198 -286l205 286h219z" />
    <glyph glyph-name="y" unicode="y" horiz-adv-x="974" 
d="M459 -348h-199l129 323l-352 934h219l238 -669l233 669h211z" />
    <glyph glyph-name="z" unicode="z" horiz-adv-x="882" 
d="M803 170v-170h-748v8l439 731h-416v170h727v-8l-436 -731h434z" />
    <glyph glyph-name="braceleft" unicode="{" horiz-adv-x="704" 
d="M403 410v-338q0 -60 60 -60h201v-184h-197q-117 0 -190.5 74t-73.5 192v332q0 59 -60 59h-102v189h102q60 0 60 59v332q0 118 73.5 192t190.5 74h197v-184h-201q-60 0 -60 -60v-337q0 -110 -96 -170q96 -60 96 -170z" />
    <glyph glyph-name="bar" unicode="|" horiz-adv-x="475" 
d="M139 -172v1503h197v-1503h-197z" />
    <glyph glyph-name="braceright" unicode="}" horiz-adv-x="704" 
d="M301 72v338q0 110 96 170q-96 60 -96 170v337q0 60 -59 60h-201v184h197q117 0 190.5 -74t73.5 -192v-332q0 -59 59 -59h103v-189h-103q-59 0 -59 -59v-332q0 -118 -73.5 -192t-190.5 -74h-197v184h201q59 0 59 60z" />
    <glyph glyph-name="asciitilde" unicode="~" horiz-adv-x="878" 
d="M633 698h164q0 -140 -56 -217.5t-155 -77.5q-42 0 -83 20t-67.5 43.5t-57.5 43.5t-56 20q-76 0 -76 -118h-164q0 138 55.5 215.5t155.5 77.5q41 0 82 -19.5t67 -43t57.5 -43t57.5 -19.5q76 0 76 118z" />
    <glyph glyph-name="exclamdown" unicode="&#xa1;" horiz-adv-x="430" 
d="M66 934q0 60 40 100.5t99 40.5t99 -40.5t40 -100.5t-40 -100.5t-99 -40.5t-99 40.5t-40 100.5zM82 -197l51 863h143l52 -863h-246z" />
    <glyph glyph-name="cent" unicode="&#xa2;" horiz-adv-x="835" 
d="M406 -182v194q-152 35 -247.5 158.5t-95.5 304.5t95.5 303.5t247.5 157.5v184h184v-176q102 -13 174 -70v-200q-94 94 -234 94q-112 0 -187 -80.5t-75 -212.5t75 -212.5t187 -80.5q140 0 234 94v-200q-65 -55 -174 -72v-186h-184z" />
    <glyph glyph-name="sterling" unicode="&#xa3;" horiz-adv-x="956" 
d="M61 537v165h158v138q0 198 120.5 318t315.5 120q138 0 224 -59v-185q-99 64 -224 64q-108 0 -173.5 -72t-65.5 -201v-123h289v-165h-289v-181q0 -129 -43 -186h536v-170h-848v170h117q41 71 41 186v181h-158z" />
    <glyph glyph-name="yen" unicode="&#xa5;" horiz-adv-x="1130" 
d="M137 543v157h230l-322 557h225l299 -538l297 538h219l-323 -557h229v-157h-321v-129h321v-158h-321v-256h-211v256h-322v158h322v129h-322z" />
    <glyph glyph-name="section" unicode="&#xa7;" horiz-adv-x="952" 
d="M596 573l-285 189q-43 -10 -63.5 -41t-20.5 -70q0 -24 10 -45.5t34 -42.5t38 -31t47 -32l285 -189q43 10 63.5 41t20.5 70q0 24 -10 45.5t-34 42.5t-38 31t-47 32zM182 889q-30 53 -30 125q0 118 94 191t241 73q160 0 279 -80v-207q-134 117 -279 117q-63 0 -101 -24.5
t-38 -69.5q0 -40 27 -67.5t90 -67.5l221 -144q51 -33 86.5 -61t69.5 -65.5t51.5 -83t17.5 -97.5q0 -75 -36.5 -141t-104.5 -105q31 -60 31 -123q0 -118 -94.5 -191t-241.5 -73q-160 0 -279 80v207q134 -117 279 -117q63 0 101 24.5t38 69.5q0 41 -27 69t-90 67l-221 143
q-51 33 -86.5 61t-69.5 65.5t-51.5 83t-17.5 97.5q0 74 37 140.5t104 103.5z" />
    <glyph glyph-name="dieresis" unicode="&#xa8;" 
d="M233 1171q0 52 35 86.5t86 34.5q50 0 84.5 -34.5t34.5 -86.5q0 -49 -34.5 -83.5t-84.5 -34.5q-51 0 -86 34t-35 84zM549 1171q0 52 34.5 86.5t84.5 34.5t85 -34.5t35 -86.5q0 -49 -35 -83.5t-85 -34.5t-84.5 34.5t-34.5 83.5z" />
    <glyph glyph-name="copyright" unicode="&#xa9;" horiz-adv-x="1441" 
d="M1370 629q0 -184 -88 -334t-236 -232.5t-325 -82.5t-325 82.5t-236 232.5t-88 334t88 334t236 232.5t325 82.5t325 -82.5t236 -232.5t88 -334zM1274 629q0 157 -75 285t-201.5 199t-276.5 71t-276.5 -71t-201.5 -199t-75 -285t75 -285t201.5 -199t276.5 -71t276.5 71
t201.5 199t75 285zM344 633q0 184 112 295.5t294 111.5q118 0 200 -53v-190q-84 63 -184 63q-101 0 -162 -62t-61 -165q0 -101 61 -163t162 -62q103 0 184 61v-190q-83 -54 -200 -54q-182 0 -294 112t-112 296z" />
    <glyph glyph-name="ordfeminine" unicode="&#xaa;" horiz-adv-x="612" 
d="M389 1004v28q0 42 -35.5 67t-99.5 25q-87 0 -164 -49v156q82 49 207 49q129 0 197.5 -62t68.5 -176v-385h-174v33q-16 -16 -57.5 -29.5t-87.5 -13.5q-95 0 -159.5 52.5t-64.5 144.5q0 86 67 140t167 54q37 0 76 -10.5t59 -23.5zM389 825v41q-10 22 -38 35.5t-62 13.5
q-40 0 -69.5 -18t-29.5 -51q0 -34 29 -52t70 -18q35 0 62.5 13t37.5 36z" />
    <glyph glyph-name="guillemotleft" unicode="&#xab;" horiz-adv-x="813" 
d="M424 131h-184l-189 324l189 323h184l-188 -323zM762 131h-184l-189 324l189 323h184l-189 -323z" />
    <glyph glyph-name="registered" unicode="&#xae;" horiz-adv-x="833" 
d="M786 903q0 -161 -108 -268t-262 -107t-262.5 107t-108.5 268t108.5 268t262.5 107t262 -107t108 -268zM719 903q0 135 -87.5 223t-215.5 88t-215.5 -88t-87.5 -223t87.5 -223t215.5 -88t215.5 88t87.5 223zM410 838h-43v-129h-103v393h182q67 0 105.5 -35.5t38.5 -99.5
q0 -94 -78 -119l92 -139h-112zM492 967q0 22 -14 35.5t-40 13.5h-71v-96h71q26 0 40 13t14 34z" />
    <glyph glyph-name="macron" unicode="&#xaf;" 
d="M281 1073v162h460v-162h-460z" />
    <glyph glyph-name="degree" unicode="&#xb0;" horiz-adv-x="724" 
d="M236 1006q0 -54 36.5 -91.5t89.5 -37.5t90 37.5t37 91.5t-37 91.5t-90 37.5t-89.5 -37.5t-36.5 -91.5zM633 1006q0 -114 -79 -193.5t-192 -79.5t-191.5 79.5t-78.5 193.5t78.5 193t191.5 79t192 -79t79 -193z" />
    <glyph glyph-name="plusminus" unicode="&#xb1;" horiz-adv-x="1167" 
d="M504 1104h162v-270h335v-162h-335v-271h-162v271h-336v162h336v270zM168 150v161h833v-161h-833z" />
    <glyph glyph-name="twosuperior" unicode="&#xb2;" horiz-adv-x="583" 
d="M324 717h211v-146h-494v4l199 263q6 8 20 26.5t19 25.5t16.5 22.5t16 23t12 20.5t10.5 21t7 19t5.5 20.5t1.5 19.5q0 36 -25.5 59t-68.5 23q-85 0 -193 -94v164q40 36 101.5 58t130.5 22q101 0 160 -55t59 -148q0 -41 -19 -87.5t-39.5 -78t-60.5 -86.5z" />
    <glyph glyph-name="threesuperior" unicode="&#xb3;" horiz-adv-x="561" 
d="M57 1110v147h447v-4l-135 -268q65 -25 101 -74.5t36 -117.5q0 -105 -72.5 -168.5t-177.5 -63.5q-122 0 -203 57v158q82 -76 185 -76q53 0 81.5 23.5t28.5 67.5q0 54 -49 79.5t-125 22.5v4l109 213h-226z" />
    <glyph glyph-name="acute" unicode="&#xb4;" 
d="M510 1051h-182l157 280h211z" />
    <glyph glyph-name="paragraph" unicode="&#xb6;" horiz-adv-x="1081" 
d="M776 -184v1441h166v-1441h-166zM465 -184v731q-65 0 -127 12.5t-119 41t-100 69t-68.5 100.5t-25.5 133q0 90 38.5 160t103 111t140.5 62t158 21h166v-1441h-166z" />
    <glyph glyph-name="periodcentered" unicode="&#xb7;" horiz-adv-x="409" 
d="M66 539q0 60 40 100.5t99 40.5t99 -40.5t40 -100.5t-40 -101t-99 -41t-99 41t-40 101z" />
    <glyph glyph-name="cedilla" unicode="&#xb8;" 
d="M528 -389h-190l145 280h203z" />
    <glyph glyph-name="onesuperior" unicode="&#xb9;" horiz-adv-x="479" 
d="M389 1257v-686h-166v494l-182 -90v168l235 114h113z" />
    <glyph glyph-name="ordmasculine" unicode="&#xba;" horiz-adv-x="645" 
d="M625 963q0 -141 -84 -230.5t-219 -89.5q-134 0 -219 89.5t-85 230.5q0 139 85 228t219 89q135 0 219 -88.5t84 -228.5zM442 963q0 73 -31.5 118t-88.5 45q-56 0 -87.5 -45.5t-31.5 -117.5q0 -74 31.5 -119t87.5 -45q57 0 88.5 45t31.5 119z" />
    <glyph glyph-name="guillemotright" unicode="&#xbb;" horiz-adv-x="813" 
d="M573 131h-184l189 324l-189 323h184l189 -323zM236 131h-185l189 324l-189 323h185l188 -323z" />
    <glyph glyph-name="onequarter" unicode="&#xbc;" horiz-adv-x="1411" 
d="M1221 1257l-899 -1257h-179l899 1257h179zM1159 686l-190 -416h116v123h146v-123h82v-137h-82v-133h-146v133h-344v4l250 549h168zM420 1257v-686h-166v494l-182 -90v168l235 114h113z" />
    <glyph glyph-name="onehalf" unicode="&#xbd;" horiz-adv-x="1452" 
d="M1221 1257l-899 -1257h-179l899 1257h179zM420 1257v-686h-166v494l-182 -90v168l235 114h113zM1139 145h211v-145h-494v4l199 262q5 6 18 24t17.5 23.5t15.5 20.5t14.5 21t11.5 18.5t11 19.5t8 17.5t7 18.5t3.5 17.5t1.5 18.5q0 36 -25.5 59t-68.5 23q-84 0 -192 -94
v163q91 80 231 80q101 0 160 -54.5t59 -147.5q0 -41 -19 -87.5t-39.5 -78t-60.5 -86.5z" />
    <glyph glyph-name="threequarters" unicode="&#xbe;" horiz-adv-x="1447" 
d="M1257 1257l-899 -1257h-178l899 1257h178zM111 1110v147h448v-4l-137 -268q65 -25 101 -74.5t36 -117.5q0 -105 -72.5 -168.5t-177.5 -63.5q-122 0 -203 57v158q82 -76 185 -76q53 0 81.5 23.5t28.5 67.5q0 54 -49 79.5t-125 22.5v4l109 213h-225zM1196 686l-190 -416
h116v123h146v-123h82v-137h-82v-133h-146v133h-344v4l250 549h168z" />
    <glyph glyph-name="questiondown" unicode="&#xbf;" horiz-adv-x="847" 
d="M412 401q-14 -15 -43 -44.5t-45.5 -48.5t-36 -46t-28.5 -55.5t-9 -59.5q0 -167 192 -167q191 0 365 174v-217q-66 -69 -166.5 -111.5t-210.5 -42.5q-178 0 -283.5 96.5t-105.5 265.5q0 52 16 100.5t48.5 93.5t59 75.5t71.5 75.5l14 14q86 88 86 162h201
q-4 -83 -30 -136.5t-95 -128.5zM584 934q0 -60 -40.5 -100.5t-99.5 -40.5t-99 40.5t-40 100.5t40 100.5t99 40.5t99.5 -40.5t40.5 -100.5z" />
    <glyph glyph-name="Agrave" unicode="&#xc0;" horiz-adv-x="1253" 
d="M524 1257h205l483 -1257h-217l-129 348h-481l-129 -348h-215zM625 997l-172 -465h344zM735 1374h-200l-195 240h238z" />
    <glyph glyph-name="Aacute" unicode="&#xc1;" horiz-adv-x="1253" 
d="M524 1257h205l483 -1257h-217l-129 348h-481l-129 -348h-215zM625 997l-172 -465h344zM713 1374h-201l158 240h237z" />
    <glyph glyph-name="Acircumflex" unicode="&#xc2;" horiz-adv-x="1253" 
d="M524 1257h205l483 -1257h-217l-129 348h-481l-129 -348h-215zM721 1628l192 -254h-182l-104 123l-105 -123h-182l192 254h189zM625 997l-172 -465h344z" />
    <glyph glyph-name="Atilde" unicode="&#xc3;" horiz-adv-x="1253" 
d="M524 1257h205l483 -1257h-217l-129 348h-481l-129 -348h-215zM797 1632h123q0 -123 -43.5 -195.5t-126.5 -72.5q-42 0 -83 24.5t-78 49t-67 24.5q-62 0 -65 -92h-123q0 123 43.5 195.5t126.5 72.5q42 0 83 -24.5t77.5 -49t66.5 -24.5q63 0 66 92zM625 997l-172 -465h344z
" />
    <glyph glyph-name="Adieresis" unicode="&#xc4;" horiz-adv-x="1253" 
d="M524 1257h205l483 -1257h-217l-129 348h-481l-129 -348h-215zM625 997l-172 -465h344zM350 1491q0 52 35 86.5t86 34.5q50 0 84.5 -34.5t34.5 -86.5q0 -49 -35 -84t-84 -35q-51 0 -86 34.5t-35 84.5zM666 1491q0 52 34 86.5t84 34.5t85.5 -34.5t35.5 -86.5
q0 -49 -35.5 -84t-85.5 -35q-49 0 -83.5 34.5t-34.5 84.5z" />
    <glyph glyph-name="Aring" unicode="&#xc5;" horiz-adv-x="1253" 
d="M524 1257h205l483 -1257h-217l-129 348h-481l-129 -348h-215zM817 1516q0 -79 -55 -133t-135 -54t-135.5 54t-55.5 133t55.5 132.5t135.5 53.5t135 -53.5t55 -132.5zM625 997l-172 -465h344zM713 1516q0 36 -25 61t-61 25t-61 -25t-25 -61t25 -61t61 -25t61 25t25 61z
" />
    <glyph glyph-name="AE" unicode="&#xc6;" horiz-adv-x="1771" 
d="M768 1257h911v-188h-571v-332h514v-186h-514v-361h571v-190h-780v348h-434l-203 -348h-221zM899 1092l-328 -560h328v560z" />
    <glyph glyph-name="Ccedilla" unicode="&#xc7;" horiz-adv-x="1116" 
d="M72 629q0 190 79 338.5t217 229.5t312 81q203 0 334 -109v-221q-148 139 -332 139q-179 0 -287 -127t-108 -331q0 -203 108 -330t287 -127q186 0 332 137v-221q-130 -108 -334 -108q-174 0 -312 81t-217 229.5t-79 338.5zM633 -389h-191l146 280h203z" />
    <glyph glyph-name="Egrave" unicode="&#xc8;" horiz-adv-x="1052" 
d="M666 1374h-201l-195 240h238zM139 1257h822v-188h-613v-332h555v-186h-555v-361h613v-190h-822v1257z" />
    <glyph glyph-name="Eacute" unicode="&#xc9;" horiz-adv-x="1052" 
d="M643 1374h-201l158 240h238zM139 1257h822v-188h-613v-332h555v-186h-555v-361h613v-190h-822v1257z" />
    <glyph glyph-name="Ecircumflex" unicode="&#xca;" horiz-adv-x="1052" 
d="M139 1257h822v-188h-613v-332h555v-186h-555v-361h613v-190h-822v1257zM651 1628l193 -254h-182l-105 123l-104 -123h-183l193 254h188z" />
    <glyph glyph-name="Edieresis" unicode="&#xcb;" horiz-adv-x="1052" 
d="M281 1491q0 52 34.5 86.5t85.5 34.5q50 0 84.5 -34.5t34.5 -86.5q0 -49 -35 -84t-84 -35q-51 0 -85.5 34.5t-34.5 84.5zM596 1491q0 52 34.5 86.5t84.5 34.5t85.5 -34.5t35.5 -86.5q0 -49 -35.5 -84t-85.5 -35q-49 0 -84 35t-35 84zM139 1257h822v-188h-613v-332h555
v-186h-555v-361h613v-190h-822v1257z" />
    <glyph glyph-name="Igrave" unicode="&#xcc;" horiz-adv-x="491" 
d="M352 1257v-1257h-213v1257h213zM354 1374h-200l-195 240h238z" />
    <glyph glyph-name="Iacute" unicode="&#xcd;" horiz-adv-x="491" 
d="M352 1257v-1257h-213v1257h213zM332 1374h-201l158 240h237z" />
    <glyph glyph-name="Icircumflex" unicode="&#xce;" horiz-adv-x="491" 
d="M352 1257v-1257h-213v1257h213zM340 1628l192 -254h-182l-104 123l-105 -123h-182l193 254h188z" />
    <glyph glyph-name="Idieresis" unicode="&#xcf;" horiz-adv-x="491" 
d="M352 1257v-1257h-213v1257h213zM-31 1491q0 52 35 86.5t86 34.5q50 0 84.5 -34.5t34.5 -86.5q0 -49 -34.5 -84t-84.5 -35q-51 0 -86 34.5t-35 84.5zM285 1491q0 52 34 86.5t84 34.5t85.5 -34.5t35.5 -86.5q0 -49 -35.5 -84t-85.5 -35q-49 0 -83.5 34.5t-34.5 84.5z" />
    <glyph glyph-name="Eth" unicode="&#xd0;" horiz-adv-x="1280" 
d="M61 559v180h113v518h424q278 0 444 -170.5t166 -457.5t-166 -458t-444 -171h-424v559h-113zM387 190h203q195 0 300 117.5t105 321.5q0 206 -105 323t-300 117h-203v-330h238v-180h-238v-369z" />
    <glyph glyph-name="Ntilde" unicode="&#xd1;" horiz-adv-x="1290" 
d="M815 1632h123q0 -123 -43.5 -195.5t-126.5 -72.5q-42 0 -83 24.5t-77.5 49t-66.5 24.5q-63 0 -66 -92h-123q0 123 43.5 195.5t126.5 72.5q42 0 83 -24.5t78 -49t67 -24.5q62 0 65 92zM1151 1257v-1257h-164l-643 915v-915h-205v1257h201l606 -872v872h205z" />
    <glyph glyph-name="Ograve" unicode="&#xd2;" horiz-adv-x="1304" 
d="M760 1374h-201l-194 240h237zM1233 629q0 -185 -74 -333.5t-207 -232t-301 -83.5t-300 83.5t-205.5 231.5t-73.5 334q0 283 162.5 466t416.5 183q168 0 301 -83t207 -231.5t74 -334.5zM1018 629q0 201 -101.5 329.5t-265.5 128.5t-264 -128t-100 -330t100 -330.5
t264 -128.5t265.5 129t101.5 330z" />
    <glyph glyph-name="Oacute" unicode="&#xd3;" horiz-adv-x="1304" 
d="M737 1374h-200l157 240h238zM1233 629q0 -185 -74 -333.5t-207 -232t-301 -83.5t-300 83.5t-205.5 231.5t-73.5 334q0 283 162.5 466t416.5 183q168 0 301 -83t207 -231.5t74 -334.5zM1018 629q0 201 -101.5 329.5t-265.5 128.5t-264 -128t-100 -330t100 -330.5
t264 -128.5t265.5 129t101.5 330z" />
    <glyph glyph-name="Ocircumflex" unicode="&#xd4;" horiz-adv-x="1304" 
d="M1233 629q0 -185 -74 -333.5t-207 -232t-301 -83.5t-300 83.5t-205.5 231.5t-73.5 334q0 283 162.5 466t416.5 183q168 0 301 -83t207 -231.5t74 -334.5zM1018 629q0 201 -101.5 329.5t-265.5 128.5t-264 -128t-100 -330t100 -330.5t264 -128.5t265.5 129t101.5 330z
M745 1628l193 -254h-182l-105 123l-104 -123h-182l192 254h188z" />
    <glyph glyph-name="Otilde" unicode="&#xd5;" horiz-adv-x="1304" 
d="M821 1632h123q0 -123 -43.5 -195.5t-126.5 -72.5q-42 0 -83 24.5t-77.5 49t-66.5 24.5q-63 0 -66 -92h-123q0 123 43.5 195.5t126.5 72.5q41 0 82.5 -24.5t78.5 -49t67 -24.5q62 0 65 92zM1233 629q0 -185 -74 -333.5t-207 -232t-301 -83.5t-300 83.5t-205.5 231.5
t-73.5 334q0 283 162.5 466t416.5 183q168 0 301 -83t207 -231.5t74 -334.5zM1018 629q0 201 -101.5 329.5t-265.5 128.5t-264 -128t-100 -330t100 -330.5t264 -128.5t265.5 129t101.5 330z" />
    <glyph glyph-name="Odieresis" unicode="&#xd6;" horiz-adv-x="1304" 
d="M375 1491q0 52 35 86.5t86 34.5q50 0 84 -34.5t34 -86.5q0 -50 -34.5 -84.5t-83.5 -34.5q-51 0 -86 34.5t-35 84.5zM690 1491q0 52 34.5 86.5t84.5 34.5t85.5 -34.5t35.5 -86.5q0 -49 -35.5 -84t-85.5 -35q-49 0 -84 35t-35 84zM1233 629q0 -185 -74 -333.5t-207 -232
t-301 -83.5t-300 83.5t-205.5 231.5t-73.5 334q0 283 162.5 466t416.5 183q168 0 301 -83t207 -231.5t74 -334.5zM1018 629q0 201 -101.5 329.5t-265.5 128.5t-264 -128t-100 -330t100 -330.5t264 -128.5t265.5 129t101.5 330z" />
    <glyph glyph-name="multiply" unicode="&#xd7;" horiz-adv-x="1015" 
d="M397 608l-252 248l113 113l248 -250l250 250l112 -113l-250 -248l250 -248l-112 -114l-250 250l-248 -250l-113 114z" />
    <glyph glyph-name="Oslash" unicode="&#xd8;" horiz-adv-x="1325" 
d="M127 55l100 129q-145 178 -145 445q0 283 163 466t417 183q186 0 331 -107l88 115l123 -84l-104 -133q143 -180 143 -440q0 -185 -74 -333.5t-206.5 -232t-300.5 -83.5q-189 0 -328 100l-84 -109zM297 629q0 -170 59 -279l518 670q-86 67 -212 67q-164 0 -264.5 -128
t-100.5 -330zM1028 629q0 155 -57 272l-518 -668q85 -63 209 -63q164 0 265 129t101 330z" />
    <glyph glyph-name="Ugrave" unicode="&#xd9;" horiz-adv-x="1245" 
d="M731 1374h-201l-194 240h237zM623 -20q-231 0 -367.5 134.5t-136.5 387.5v755h213v-733q0 -354 291 -354q290 0 290 354v733h213v-757q0 -252 -135.5 -386t-367.5 -134z" />
    <glyph glyph-name="Uacute" unicode="&#xda;" horiz-adv-x="1245" 
d="M709 1374h-201l158 240h237zM623 -20q-231 0 -367.5 134.5t-136.5 387.5v755h213v-733q0 -354 291 -354q290 0 290 354v733h213v-757q0 -252 -135.5 -386t-367.5 -134z" />
    <glyph glyph-name="Ucircumflex" unicode="&#xdb;" horiz-adv-x="1245" 
d="M623 -20q-231 0 -367.5 134.5t-136.5 387.5v755h213v-733q0 -354 291 -354q290 0 290 354v733h213v-757q0 -252 -135.5 -386t-367.5 -134zM717 1628l192 -254h-182l-104 123l-105 -123h-182l192 254h189z" />
    <glyph glyph-name="Udieresis" unicode="&#xdc;" horiz-adv-x="1245" 
d="M346 1491q0 52 35 86.5t86 34.5q50 0 84.5 -34.5t34.5 -86.5q0 -49 -35 -84t-84 -35q-51 0 -86 34.5t-35 84.5zM662 1491q0 52 34 86.5t84 34.5t85.5 -34.5t35.5 -86.5q0 -49 -35.5 -84t-85.5 -35q-49 0 -83.5 34.5t-34.5 84.5zM623 -20q-231 0 -367.5 134.5
t-136.5 387.5v755h213v-733q0 -354 291 -354q290 0 290 354v733h213v-757q0 -252 -135.5 -386t-367.5 -134z" />
    <glyph glyph-name="Yacute" unicode="&#xdd;" horiz-adv-x="1183" 
d="M596 694l332 563h225l-457 -755v-502h-211v502l-454 755h231zM678 1374h-201l158 240h237z" />
    <glyph glyph-name="Thorn" unicode="&#xde;" horiz-adv-x="1116" 
d="M625 252h-273v-252h-213v1257h213v-217h273q199 0 314.5 -102t115.5 -293q0 -189 -115.5 -291t-314.5 -102zM844 645q0 96 -57.5 153.5t-165.5 57.5h-269v-420h269q107 0 165 57.5t58 151.5z" />
    <glyph glyph-name="germandbls" unicode="&#xdf;" horiz-adv-x="1052" 
d="M127 0v1051q0 142 83.5 221.5t215.5 79.5q77 0 135 -25v-180q-45 29 -100 29q-62 0 -97.5 -36.5t-35.5 -103.5v-127h663v-8l-227 -422q94 -56 154.5 -149.5t60.5 -214.5q0 -228 -158.5 -355t-425.5 -127v177q177 0 282 77.5t105 227.5q0 193 -252 282v9l175 333h-377
v-739h-201z" />
    <glyph glyph-name="agrave" unicode="&#xe0;" horiz-adv-x="942" 
d="M631 518v64q0 76 -56.5 118.5t-152.5 42.5q-133 0 -252 -79v188q46 33 125.5 55.5t163.5 22.5q176 0 272 -88.5t96 -245.5v-596h-196v51q-26 -26 -88.5 -46.5t-134.5 -20.5q-144 0 -242 81t-98 216q0 128 101 210t253 82q59 0 119.5 -17t89.5 -38zM631 242v75
q-17 42 -69.5 67.5t-115.5 25.5q-77 0 -132.5 -33t-55.5 -96q0 -64 55.5 -97.5t132.5 -33.5q63 0 115.5 25t69.5 67zM586 1051h-183l-186 280h211z" />
    <glyph glyph-name="aacute" unicode="&#xe1;" horiz-adv-x="942" 
d="M631 518v64q0 76 -56.5 118.5t-152.5 42.5q-133 0 -252 -79v188q46 33 125.5 55.5t163.5 22.5q176 0 272 -88.5t96 -245.5v-596h-196v51q-26 -26 -88.5 -46.5t-134.5 -20.5q-144 0 -242 81t-98 216q0 128 101 210t253 82q59 0 119.5 -17t89.5 -38zM631 242v75
q-17 42 -69.5 67.5t-115.5 25.5q-77 0 -132.5 -33t-55.5 -96q0 -64 55.5 -97.5t132.5 -33.5q63 0 115.5 25t69.5 67zM563 1051h-182l158 280h211z" />
    <glyph glyph-name="acircumflex" unicode="&#xe2;" horiz-adv-x="942" 
d="M631 518v64q0 76 -56.5 118.5t-152.5 42.5q-133 0 -252 -79v188q46 33 125.5 55.5t163.5 22.5q176 0 272 -88.5t96 -245.5v-596h-196v51q-26 -26 -88.5 -46.5t-134.5 -20.5q-144 0 -242 81t-98 216q0 128 101 210t253 82q59 0 119.5 -17t89.5 -38zM631 242v75
q-17 42 -69.5 67.5t-115.5 25.5q-77 0 -132.5 -33t-55.5 -96q0 -64 55.5 -97.5t132.5 -33.5q63 0 115.5 25t69.5 67zM578 1323l192 -287h-172l-115 162l-114 -162h-172l192 287h189z" />
    <glyph glyph-name="atilde" unicode="&#xe3;" horiz-adv-x="942" 
d="M631 518v64q0 76 -56.5 118.5t-152.5 42.5q-133 0 -252 -79v188q46 33 125.5 55.5t163.5 22.5q176 0 272 -88.5t96 -245.5v-596h-196v51q-26 -26 -88.5 -46.5t-134.5 -20.5q-144 0 -242 81t-98 216q0 128 101 210t253 82q59 0 119.5 -17t89.5 -38zM631 242v75
q-17 42 -69.5 67.5t-115.5 25.5q-77 0 -132.5 -33t-55.5 -96q0 -64 55.5 -97.5t132.5 -33.5q63 0 115.5 25t69.5 67zM643 1313h123q0 -124 -43.5 -196.5t-126.5 -72.5q-30 0 -61.5 16.5t-53 37t-47.5 37t-45 16.5q-62 0 -65 -100h-123q0 123 43.5 195.5t126.5 72.5
q30 0 62 -16.5t54 -37t47 -37t44 -16.5q62 0 65 101z" />
    <glyph glyph-name="adieresis" unicode="&#xe4;" horiz-adv-x="942" 
d="M631 518v64q0 76 -56.5 118.5t-152.5 42.5q-133 0 -252 -79v188q46 33 125.5 55.5t163.5 22.5q176 0 272 -88.5t96 -245.5v-596h-196v51q-26 -26 -88.5 -46.5t-134.5 -20.5q-144 0 -242 81t-98 216q0 128 101 210t253 82q59 0 119.5 -17t89.5 -38zM631 242v75
q-17 42 -69.5 67.5t-115.5 25.5q-77 0 -132.5 -33t-55.5 -96q0 -64 55.5 -97.5t132.5 -33.5q63 0 115.5 25t69.5 67zM207 1171q0 52 35 86.5t86 34.5q50 0 84 -34.5t34 -86.5q0 -49 -34 -83.5t-84 -34.5q-51 0 -86 34t-35 84zM522 1171q0 52 34.5 86.5t84.5 34.5t85.5 -34.5
t35.5 -86.5q0 -49 -35.5 -83.5t-85.5 -34.5t-84.5 34.5t-34.5 83.5z" />
    <glyph glyph-name="aring" unicode="&#xe5;" horiz-adv-x="942" 
d="M631 518v64q0 76 -56.5 118.5t-152.5 42.5q-133 0 -252 -79v188q46 33 125.5 55.5t163.5 22.5q176 0 272 -88.5t96 -245.5v-596h-196v51q-26 -26 -88.5 -46.5t-134.5 -20.5q-144 0 -242 81t-98 216q0 128 101 210t253 82q59 0 119.5 -17t89.5 -38zM631 242v75
q-17 42 -69.5 67.5t-115.5 25.5q-77 0 -132.5 -33t-55.5 -96q0 -64 55.5 -97.5t132.5 -33.5q63 0 115.5 25t69.5 67zM674 1188q0 -79 -55.5 -133t-135.5 -54t-135 54t-55 133t55 132.5t135 53.5t135.5 -53.5t55.5 -132.5zM569 1188q0 36 -25 61t-61 25t-61 -25t-25 -61
t25 -61t61 -25t61 25t25 61z" />
    <glyph glyph-name="ae" unicode="&#xe6;" horiz-adv-x="1482" 
d="M1065 -20q-214 0 -338 139q-129 -135 -319 -135q-144 0 -242 78.5t-98 205.5q0 134 101.5 212.5t256.5 78.5h205v23q0 76 -56.5 118.5t-152.5 42.5q-133 0 -252 -79v188q46 33 125.5 55.5t163.5 22.5q208 0 297 -131q108 131 276 131q184 0 283.5 -124t99.5 -329v-74
h-600q11 -124 88 -185.5t191 -61.5q75 0 135 19.5t125 64.5v-181q-108 -79 -289 -79zM426 150q73 0 126.5 33t78.5 93v127h-189q-78 0 -131 -29.5t-53 -92.5q0 -64 49 -97.5t119 -33.5zM1034 758q-75 0 -132.5 -49t-78.5 -150h398q-5 87 -53.5 143t-133.5 56z" />
    <glyph glyph-name="ccedilla" unicode="&#xe7;" horiz-adv-x="835" 
d="M63 455q0 107 36 197.5t97.5 150.5t144 93.5t175.5 33.5q154 0 248 -76v-201q-95 95 -234 95q-112 0 -187 -80.5t-75 -212.5t75 -212.5t187 -80.5q140 0 234 94v-201q-93 -75 -248 -75q-93 0 -175.5 33.5t-144 93.5t-97.5 150.5t-36 197.5zM475 -389h-190l145 280h203z
" />
    <glyph glyph-name="egrave" unicode="&#xe8;" horiz-adv-x="931" 
d="M864 410h-602q10 -127 87.5 -190.5t193.5 -63.5q75 0 135 19.5t125 64.5v-181q-108 -79 -289 -79q-202 0 -326.5 126.5t-124.5 339.5t117.5 348.5t300.5 135.5q185 0 284 -121t99 -326v-73zM483 758q-73 0 -130 -47.5t-79 -145.5h396q-5 86 -53.5 139.5t-133.5 53.5z
M594 1051h-182l-187 280h211z" />
    <glyph glyph-name="eacute" unicode="&#xe9;" horiz-adv-x="931" 
d="M864 410h-602q10 -127 87.5 -190.5t193.5 -63.5q75 0 135 19.5t125 64.5v-181q-108 -79 -289 -79q-202 0 -326.5 126.5t-124.5 339.5t117.5 348.5t300.5 135.5q185 0 284 -121t99 -326v-73zM483 758q-73 0 -130 -47.5t-79 -145.5h396q-5 86 -53.5 139.5t-133.5 53.5z
M571 1051h-182l158 280h211z" />
    <glyph glyph-name="ecircumflex" unicode="&#xea;" horiz-adv-x="931" 
d="M864 410h-602q10 -127 87.5 -190.5t193.5 -63.5q75 0 135 19.5t125 64.5v-181q-108 -79 -289 -79q-202 0 -326.5 126.5t-124.5 339.5t117.5 348.5t300.5 135.5q185 0 284 -121t99 -326v-73zM586 1323l192 -287h-172l-114 162l-115 -162h-172l192 287h189zM483 758
q-73 0 -130 -47.5t-79 -145.5h396q-5 86 -53.5 139.5t-133.5 53.5z" />
    <glyph glyph-name="edieresis" unicode="&#xeb;" horiz-adv-x="931" 
d="M864 410h-602q10 -127 87.5 -190.5t193.5 -63.5q75 0 135 19.5t125 64.5v-181q-108 -79 -289 -79q-202 0 -326.5 126.5t-124.5 339.5t117.5 348.5t300.5 135.5q185 0 284 -121t99 -326v-73zM483 758q-73 0 -130 -47.5t-79 -145.5h396q-5 86 -53.5 139.5t-133.5 53.5z
M215 1171q0 52 35 86.5t86 34.5q50 0 84.5 -34.5t34.5 -86.5q0 -49 -34.5 -83.5t-84.5 -34.5q-51 0 -86 34t-35 84zM530 1171q0 52 34.5 86.5t84.5 34.5t85.5 -34.5t35.5 -86.5q0 -49 -35.5 -83.5t-85.5 -34.5t-84.5 34.5t-34.5 83.5z" />
    <glyph glyph-name="igrave" unicode="&#xec;" horiz-adv-x="458" 
d="M332 909v-909h-205v909h205zM332 1051h-182l-187 280h211z" />
    <glyph glyph-name="iacute" unicode="&#xed;" horiz-adv-x="458" 
d="M309 1051h-182l158 280h211zM332 909v-909h-205v909h205z" />
    <glyph glyph-name="icircumflex" unicode="&#xee;" horiz-adv-x="458" 
d="M324 1323l155 -287h-168l-82 156l-82 -156h-167l155 287h189zM332 909v-909h-205v909h205z" />
    <glyph glyph-name="idieresis" unicode="&#xef;" horiz-adv-x="458" 
d="M-33 1171q0 52 35 86.5t86 34.5q50 0 84.5 -34.5t34.5 -86.5q0 -49 -34.5 -83.5t-84.5 -34.5q-51 0 -86 34t-35 84zM254 1171q0 52 34.5 86.5t84.5 34.5t85.5 -34.5t35.5 -86.5q0 -49 -35.5 -83.5t-85.5 -34.5t-84.5 34.5t-34.5 83.5zM332 909v-909h-205v909h205z" />
    <glyph glyph-name="eth" unicode="&#xf0;" horiz-adv-x="991" 
d="M287 999l-47 121l133 43q-113 91 -211 160v8h266q77 -54 135 -104l182 61l46 -121l-125 -43q124 -138 193 -306.5t69 -350.5q0 -219 -119.5 -353t-312.5 -134q-191 0 -312 131.5t-121 337.5q0 205 116.5 338t291.5 133q108 0 178 -66h8q-34 78 -174 211zM723 449
q0 132 -59.5 213t-167.5 81t-168 -81t-60 -213q0 -131 60 -212t168 -81t167.5 81t59.5 212z" />
    <glyph glyph-name="ntilde" unicode="&#xf1;" horiz-adv-x="1013" 
d="M127 0v909h205v-86q39 46 105 76.5t141 30.5q152 0 236.5 -92t84.5 -246v-592h-205v557q0 87 -43 136.5t-129 49.5q-67 0 -120 -39.5t-70 -105.5v-598h-205zM674 1313h123q0 -124 -43.5 -196.5t-126.5 -72.5q-30 0 -61.5 16.5t-53 37t-47.5 37t-45 16.5q-63 0 -66 -100
h-123q0 123 43.5 195.5t126.5 72.5q30 0 62 -16.5t54 -37t47 -37t44 -16.5q30 0 47 26.5t19 74.5z" />
    <glyph glyph-name="ograve" unicode="&#xf2;" horiz-adv-x="991" 
d="M928 455q0 -210 -120 -342.5t-312 -132.5t-312.5 132.5t-120.5 342.5t120.5 342.5t312.5 132.5t312 -132.5t120 -342.5zM723 455q0 133 -60 216t-167 83t-167.5 -83t-60.5 -216t60.5 -216t167.5 -83t167 83t60 216zM598 1051h-182l-187 280h211z" />
    <glyph glyph-name="oacute" unicode="&#xf3;" horiz-adv-x="991" 
d="M575 1051h-182l158 280h211zM928 455q0 -210 -120 -342.5t-312 -132.5t-312.5 132.5t-120.5 342.5t120.5 342.5t312.5 132.5t312 -132.5t120 -342.5zM723 455q0 133 -60 216t-167 83t-167.5 -83t-60.5 -216t60.5 -216t167.5 -83t167 83t60 216z" />
    <glyph glyph-name="ocircumflex" unicode="&#xf4;" horiz-adv-x="991" 
d="M590 1323l192 -287h-172l-114 162l-115 -162h-172l192 287h189zM928 455q0 -210 -120 -342.5t-312 -132.5t-312.5 132.5t-120.5 342.5t120.5 342.5t312.5 132.5t312 -132.5t120 -342.5zM723 455q0 133 -60 216t-167 83t-167.5 -83t-60.5 -216t60.5 -216t167.5 -83t167 83
t60 216z" />
    <glyph glyph-name="otilde" unicode="&#xf5;" horiz-adv-x="991" 
d="M928 455q0 -210 -120 -342.5t-312 -132.5t-312.5 132.5t-120.5 342.5t120.5 342.5t312.5 132.5t312 -132.5t120 -342.5zM723 455q0 133 -60 216t-167 83t-167.5 -83t-60.5 -216t60.5 -216t167.5 -83t167 83t60 216zM655 1313h123q0 -124 -43.5 -196.5t-126.5 -72.5
q-30 0 -61.5 16.5t-53 37t-47.5 37t-45 16.5q-62 0 -65 -100h-123q0 123 43.5 195.5t126.5 72.5q30 0 62 -16.5t54 -37t47 -37t44 -16.5q62 0 65 101z" />
    <glyph glyph-name="odieresis" unicode="&#xf6;" horiz-adv-x="991" 
d="M219 1171q0 52 35 86.5t86 34.5q50 0 84.5 -34.5t34.5 -86.5q0 -49 -34.5 -83.5t-84.5 -34.5q-51 0 -86 34t-35 84zM535 1171q0 52 34 86.5t84 34.5t85.5 -34.5t35.5 -86.5q0 -49 -35.5 -83.5t-85.5 -34.5q-49 0 -83.5 34.5t-34.5 83.5zM928 455q0 -210 -120 -342.5
t-312 -132.5t-312.5 132.5t-120.5 342.5t120.5 342.5t312.5 132.5t312 -132.5t120 -342.5zM723 455q0 133 -60 216t-167 83t-167.5 -83t-60.5 -216t60.5 -216t167.5 -83t167 83t60 216z" />
    <glyph glyph-name="divide" unicode="&#xf7;" horiz-adv-x="1155" 
d="M152 530v164h852v-164h-852zM449 956q0 54 37.5 92.5t91.5 38.5t92.5 -38.5t38.5 -92.5t-38.5 -91.5t-92.5 -37.5t-91.5 37.5t-37.5 91.5zM449 268q0 54 37.5 91.5t91.5 37.5t92.5 -37.5t38.5 -91.5t-38.5 -92.5t-92.5 -38.5t-91.5 38.5t-37.5 92.5z" />
    <glyph glyph-name="oslash" unicode="&#xf8;" horiz-adv-x="1011" 
d="M76 4l100 129q-102 127 -102 322q0 210 120 342.5t312 132.5q129 0 233 -68l84 111l105 -74l-94 -123q104 -129 104 -321q0 -210 -120 -342.5t-312 -132.5q-133 0 -236 67l-90 -117zM737 455q0 89 -28 159l-328 -421q52 -37 125 -37q108 0 169.5 83.5t61.5 215.5z
M274 455q0 -91 27 -158l326 422q-50 35 -121 35q-108 0 -170 -83.5t-62 -215.5z" />
    <glyph glyph-name="ugrave" unicode="&#xf9;" horiz-adv-x="1009" 
d="M883 909v-909h-205v86q-39 -46 -104 -76t-140 -30q-152 0 -235.5 91.5t-83.5 245.5v592h204v-557q0 -88 42.5 -137t127.5 -49q67 0 119.5 39.5t69.5 105.5v598h205zM608 1051h-182l-186 280h211z" />
    <glyph glyph-name="uacute" unicode="&#xfa;" horiz-adv-x="1009" 
d="M586 1051h-183l158 280h211zM883 909v-909h-205v86q-39 -46 -104 -76t-140 -30q-152 0 -235.5 91.5t-83.5 245.5v592h204v-557q0 -88 42.5 -137t127.5 -49q67 0 119.5 39.5t69.5 105.5v598h205z" />
    <glyph glyph-name="ucircumflex" unicode="&#xfb;" horiz-adv-x="1009" 
d="M600 1323l193 -287h-172l-115 162l-115 -162h-172l193 287h188zM883 909v-909h-205v86q-39 -46 -104 -76t-140 -30q-152 0 -235.5 91.5t-83.5 245.5v592h204v-557q0 -88 42.5 -137t127.5 -49q67 0 119.5 39.5t69.5 105.5v598h205z" />
    <glyph glyph-name="udieresis" unicode="&#xfc;" horiz-adv-x="1009" 
d="M229 1171q0 52 35 86.5t86 34.5q50 0 84.5 -34.5t34.5 -86.5q0 -49 -34.5 -83.5t-84.5 -34.5q-51 0 -86 34t-35 84zM545 1171q0 52 34.5 86.5t84.5 34.5t85 -34.5t35 -86.5q0 -49 -35 -83.5t-85 -34.5t-84.5 34.5t-34.5 83.5zM883 909v-909h-205v86q-39 -46 -104 -76
t-140 -30q-152 0 -235.5 91.5t-83.5 245.5v592h204v-557q0 -88 42.5 -137t127.5 -49q67 0 119.5 39.5t69.5 105.5v598h205z" />
    <glyph glyph-name="yacute" unicode="&#xfd;" horiz-adv-x="974" 
d="M459 -348h-199l129 323l-352 934h219l238 -669l233 669h211zM567 1051h-182l158 280h211z" />
    <glyph glyph-name="thorn" unicode="&#xfe;" horiz-adv-x="1048" 
d="M332 78v-426h-205v1679h205v-500q33 41 96.5 70t134.5 29q97 0 177.5 -38.5t133.5 -104t82 -151t29 -181.5t-29 -181.5t-82 -151t-133.5 -104t-177.5 -38.5q-71 0 -134.5 28.5t-96.5 69.5zM332 627v-344q26 -54 79.5 -87.5t116.5 -33.5q116 0 184 82t68 211t-68 211
t-184 82q-63 0 -116.5 -33.5t-79.5 -87.5z" />
    <glyph glyph-name="ydieresis" unicode="&#xff;" horiz-adv-x="974" 
d="M459 -348h-199l129 323l-352 934h219l238 -669l233 669h211zM211 1171q0 52 35 86.5t86 34.5q50 0 84.5 -34.5t34.5 -86.5q0 -49 -34.5 -83.5t-84.5 -34.5q-51 0 -86 34t-35 84zM526 1171q0 52 34.5 86.5t84.5 34.5t85.5 -34.5t35.5 -86.5q0 -49 -35.5 -83.5t-85.5 -34.5
t-84.5 34.5t-34.5 83.5z" />
    <glyph glyph-name="Amacron" unicode="&#x100;" horiz-adv-x="1253" 
d="M524 1257h205l483 -1257h-217l-129 348h-481l-129 -348h-215zM625 997l-172 -465h344zM397 1374v162h461v-162h-461z" />
    <glyph glyph-name="amacron" unicode="&#x101;" horiz-adv-x="942" 
d="M631 518v64q0 76 -56.5 118.5t-152.5 42.5q-133 0 -252 -79v188q46 33 125.5 55.5t163.5 22.5q176 0 272 -88.5t96 -245.5v-596h-196v51q-26 -26 -88.5 -46.5t-134.5 -20.5q-144 0 -242 81t-98 216q0 128 101 210t253 82q59 0 119.5 -17t89.5 -38zM631 242v75
q-17 42 -69.5 67.5t-115.5 25.5q-77 0 -132.5 -33t-55.5 -96q0 -64 55.5 -97.5t132.5 -33.5q63 0 115.5 25t69.5 67zM254 1073v162h461v-162h-461z" />
    <glyph glyph-name="Abreve" unicode="&#x102;" horiz-adv-x="1253" 
d="M524 1257h205l483 -1257h-217l-129 348h-481l-129 -348h-215zM627 1366q-120 0 -190 66.5t-70 187.5h149q0 -52 29.5 -78t81.5 -26q112 0 112 104h150q0 -121 -70 -187.5t-192 -66.5zM625 997l-172 -465h344z" />
    <glyph glyph-name="abreve" unicode="&#x103;" horiz-adv-x="942" 
d="M631 518v64q0 76 -56.5 118.5t-152.5 42.5q-133 0 -252 -79v188q46 33 125.5 55.5t163.5 22.5q176 0 272 -88.5t96 -245.5v-596h-196v51q-26 -26 -88.5 -46.5t-134.5 -20.5q-144 0 -242 81t-98 216q0 128 101 210t253 82q59 0 119.5 -17t89.5 -38zM631 242v75
q-17 42 -69.5 67.5t-115.5 25.5q-77 0 -132.5 -33t-55.5 -96q0 -64 55.5 -97.5t132.5 -33.5q63 0 115.5 25t69.5 67zM483 1014q-118 0 -187 72.5t-69 203.5h150q0 -61 26.5 -97t79.5 -36q54 0 80.5 36t26.5 97h149q0 -131 -69 -203.5t-187 -72.5z" />
    <glyph glyph-name="Aogonek" unicode="&#x104;" horiz-adv-x="1253" 
d="M524 1257h205l483 -1257q-79 -124 -89 -148q-11 -26 -11 -51q0 -22 11.5 -34.5t31.5 -12.5q29 0 76 33v-131q-59 -45 -121 -45q-76 0 -115 40.5t-39 106.5q0 18 2.5 35t10.5 36.5t12.5 31.5t19 36t19 31.5t24 36.5t23.5 35h-72l-129 348h-481l-129 -348h-215zM625 997
l-172 -465h344z" />
    <glyph glyph-name="aogonek" unicode="&#x105;" horiz-adv-x="942" 
d="M631 242v75q-17 42 -69.5 67.5t-115.5 25.5q-77 0 -132.5 -33t-55.5 -96q0 -64 55.5 -97.5t132.5 -33.5q63 0 115.5 25t69.5 67zM682 0h-51v51q-26 -26 -88.5 -46.5t-134.5 -20.5q-144 0 -242 81t-98 216q0 128 101 210t253 82q59 0 119.5 -17t89.5 -38v64
q0 76 -56.5 118.5t-152.5 42.5q-133 0 -252 -79v188q46 33 125.5 55.5t163.5 22.5q176 0 272 -88.5t96 -245.5v-596q-79 -124 -89 -148q-11 -26 -11 -51q0 -22 11.5 -34.5t31.5 -12.5q29 0 76 33v-131q-59 -45 -121 -45q-76 0 -115 40.5t-39 106.5q0 18 2.5 35t10.5 36.5
t12.5 31.5t19 36t19 31.5t24 36.5t23.5 35z" />
    <glyph glyph-name="Cacute" unicode="&#x106;" horiz-adv-x="1116" 
d="M72 629q0 190 79 338.5t217 229.5t312 81q203 0 334 -109v-221q-148 139 -332 139q-179 0 -287 -127t-108 -331q0 -203 108 -330t287 -127q186 0 332 137v-221q-130 -108 -334 -108q-174 0 -312 81t-217 229.5t-79 338.5zM764 1374h-201l158 240h237z" />
    <glyph glyph-name="cacute" unicode="&#x107;" horiz-adv-x="835" 
d="M600 1051h-182l157 280h211zM63 455q0 107 36 197.5t97.5 150.5t144 93.5t175.5 33.5q154 0 248 -76v-201q-95 95 -234 95q-112 0 -187 -80.5t-75 -212.5t75 -212.5t187 -80.5q140 0 234 94v-201q-93 -75 -248 -75q-93 0 -175.5 33.5t-144 93.5t-97.5 150.5t-36 197.5z
" />
    <glyph glyph-name="Ccircumflex" unicode="&#x108;" horiz-adv-x="1116" 
d="M72 629q0 190 79 338.5t217 229.5t312 81q203 0 334 -109v-221q-148 139 -332 139q-179 0 -287 -127t-108 -331q0 -203 108 -330t287 -127q186 0 332 137v-221q-130 -108 -334 -108q-174 0 -312 81t-217 229.5t-79 338.5zM772 1628l193 -254h-183l-104 123l-105 -123
h-182l193 254h188z" />
    <glyph glyph-name="ccircumflex" unicode="&#x109;" horiz-adv-x="835" 
d="M578 1323l192 -287h-172l-115 162l-114 -162h-172l192 287h189zM63 455q0 107 36 197.5t97.5 150.5t144 93.5t175.5 33.5q154 0 248 -76v-201q-95 95 -234 95q-112 0 -187 -80.5t-75 -212.5t75 -212.5t187 -80.5q140 0 234 94v-201q-93 -75 -248 -75q-93 0 -175.5 33.5
t-144 93.5t-97.5 150.5t-36 197.5z" />
    <glyph glyph-name="Cdotaccent" unicode="&#x10a;" horiz-adv-x="1116" 
d="M795 1491q0 -52 -37.5 -88.5t-89.5 -36.5t-89.5 36.5t-37.5 88.5t37.5 88.5t89.5 36.5t89.5 -36.5t37.5 -88.5zM72 629q0 190 79 338.5t217 229.5t312 81q203 0 334 -109v-221q-148 139 -332 139q-179 0 -287 -127t-108 -331q0 -203 108 -330t287 -127q186 0 332 137
v-221q-130 -108 -334 -108q-174 0 -312 81t-217 229.5t-79 338.5z" />
    <glyph glyph-name="cdotaccent" unicode="&#x10b;" horiz-adv-x="835" 
d="M63 455q0 107 36 197.5t97.5 150.5t144 93.5t175.5 33.5q154 0 248 -76v-201q-95 95 -234 95q-112 0 -187 -80.5t-75 -212.5t75 -212.5t187 -80.5q140 0 234 94v-201q-93 -75 -248 -75q-93 0 -175.5 33.5t-144 93.5t-97.5 150.5t-36 197.5zM625 1184q0 -52 -37.5 -88.5
t-89.5 -36.5t-89.5 36.5t-37.5 88.5t37.5 88.5t89.5 36.5t89.5 -36.5t37.5 -88.5z" />
    <glyph glyph-name="Ccaron" unicode="&#x10c;" horiz-adv-x="1116" 
d="M72 629q0 190 79 338.5t217 229.5t312 81q203 0 334 -109v-221q-148 139 -332 139q-179 0 -287 -127t-108 -331q0 -203 108 -330t287 -127q186 0 332 137v-221q-130 -108 -334 -108q-174 0 -312 81t-217 229.5t-79 338.5zM584 1374l-193 254h182l105 -123l104 123h183
l-193 -254h-188z" />
    <glyph glyph-name="ccaron" unicode="&#x10d;" horiz-adv-x="835" 
d="M784 1323l-192 -287h-189l-192 287h172l115 -162l114 162h172zM63 455q0 107 36 197.5t97.5 150.5t144 93.5t175.5 33.5q154 0 248 -76v-201q-95 95 -234 95q-112 0 -187 -80.5t-75 -212.5t75 -212.5t187 -80.5q140 0 234 94v-201q-93 -75 -248 -75q-93 0 -175.5 33.5
t-144 93.5t-97.5 150.5t-36 197.5z" />
    <glyph glyph-name="Dcaron" unicode="&#x10e;" horiz-adv-x="1245" 
d="M483 1374l-192 254h182l105 -123l104 123h182l-192 -254h-189zM352 190h203q195 0 300.5 117.5t105.5 321.5q0 205 -105.5 322.5t-300.5 117.5h-203v-879zM139 0v1257h424q279 0 445 -170.5t166 -457.5t-166.5 -458t-444.5 -171h-424z" />
    <glyph glyph-name="dcaron" unicode="&#x10f;" horiz-adv-x="1048" 
d="M1184 989h-160l70 342h159zM717 0v78q-33 -41 -96.5 -69.5t-135.5 -28.5q-129 0 -226.5 64.5t-146.5 171.5t-49 239q0 202 114.5 338.5t307.5 136.5q71 0 135 -29t97 -70v500h205v-1331h-205zM717 283v344q-26 54 -80 87.5t-117 33.5q-116 0 -184 -82t-68 -211t68 -211
t184 -82q63 0 117 33.5t80 87.5z" />
    <glyph glyph-name="Dcroat" unicode="&#x110;" horiz-adv-x="1280" 
d="M61 559v180h113v518h424q278 0 444 -170.5t166 -457.5t-166 -458t-444 -171h-424v559h-113zM387 190h203q195 0 300 117.5t105 321.5q0 206 -105 323t-300 117h-203v-330h238v-180h-238v-369z" />
    <glyph glyph-name="dcroat" unicode="&#x111;" horiz-adv-x="1048" 
d="M510 1028v143h207v160h205v-160h122v-143h-122v-1028h-205v78q-33 -41 -96.5 -69.5t-135.5 -28.5q-129 0 -226.5 64.5t-146.5 171.5t-49 239q0 202 114.5 338.5t307.5 136.5q71 0 135 -29t97 -70v197h-207zM717 283v344q-26 54 -80 87.5t-117 33.5q-116 0 -184 -82
t-68 -211t68 -211t184 -82q63 0 117 33.5t80 87.5z" />
    <glyph glyph-name="Emacron" unicode="&#x112;" horiz-adv-x="1052" 
d="M328 1374v162h460v-162h-460zM139 1257h822v-188h-613v-332h555v-186h-555v-361h613v-190h-822v1257z" />
    <glyph glyph-name="emacron" unicode="&#x113;" horiz-adv-x="931" 
d="M864 410h-602q10 -127 87.5 -190.5t193.5 -63.5q75 0 135 19.5t125 64.5v-181q-108 -79 -289 -79q-202 0 -326.5 126.5t-124.5 339.5t117.5 348.5t300.5 135.5q185 0 284 -121t99 -326v-73zM262 1073v162h461v-162h-461zM483 758q-73 0 -130 -47.5t-79 -145.5h396
q-5 86 -53.5 139.5t-133.5 53.5z" />
    <glyph glyph-name="Ebreve" unicode="&#x114;" horiz-adv-x="1052" 
d="M557 1366q-120 0 -190 66.5t-70 187.5h149q0 -52 29.5 -78t81.5 -26q53 0 83 26t30 78h149q0 -121 -70 -187.5t-192 -66.5zM139 1257h822v-188h-613v-332h555v-186h-555v-361h613v-190h-822v1257z" />
    <glyph glyph-name="ebreve" unicode="&#x115;" horiz-adv-x="931" 
d="M864 410h-602q10 -127 87.5 -190.5t193.5 -63.5q75 0 135 19.5t125 64.5v-181q-108 -79 -289 -79q-202 0 -326.5 126.5t-124.5 339.5t117.5 348.5t300.5 135.5q185 0 284 -121t99 -326v-73zM492 1014q-118 0 -187 72.5t-69 203.5h149q0 -61 26.5 -97t80.5 -36
q53 0 79.5 36t26.5 97h150q0 -131 -69 -203.5t-187 -72.5zM483 758q-73 0 -130 -47.5t-79 -145.5h396q-5 86 -53.5 139.5t-133.5 53.5z" />
    <glyph glyph-name="Edotaccent" unicode="&#x116;" horiz-adv-x="1052" 
d="M684 1491q0 -52 -37.5 -88.5t-89.5 -36.5t-89.5 36.5t-37.5 88.5t37.5 88.5t89.5 36.5t89.5 -36.5t37.5 -88.5zM139 1257h822v-188h-613v-332h555v-186h-555v-361h613v-190h-822v1257z" />
    <glyph glyph-name="edotaccent" unicode="&#x117;" horiz-adv-x="931" 
d="M864 410h-602q10 -127 87.5 -190.5t193.5 -63.5q75 0 135 19.5t125 64.5v-181q-108 -79 -289 -79q-202 0 -326.5 126.5t-124.5 339.5t117.5 348.5t300.5 135.5q185 0 284 -121t99 -326v-73zM483 758q-73 0 -130 -47.5t-79 -145.5h396q-5 86 -53.5 139.5t-133.5 53.5z
M618 1184q0 -52 -37.5 -88.5t-88.5 -36.5q-52 0 -89.5 36.5t-37.5 88.5t37.5 88.5t89.5 36.5q51 0 88.5 -36.5t37.5 -88.5z" />
    <glyph glyph-name="Eogonek" unicode="&#x118;" horiz-adv-x="1052" 
d="M139 1257h822v-188h-613v-332h555v-186h-555v-361h613v-190h-70q-78 -122 -90 -151q-10 -25 -10 -48q0 -22 11.5 -34.5t31.5 -12.5q28 0 75 33v-131q-59 -45 -121 -45q-76 0 -114.5 40.5t-38.5 106.5q0 16 3 32.5t6 29t11.5 31t12.5 28t17.5 30.5l18 28t21 32t20.5 31
h-606v1257z" />
    <glyph glyph-name="eogonek" unicode="&#x119;" horiz-adv-x="931" 
d="M444 -236q0 114 97 216h-27q-202 0 -326.5 126.5t-124.5 339.5t117.5 348.5t300.5 135.5q185 0 284 -121t99 -326v-73h-602q10 -127 87.5 -190.5t193.5 -63.5q75 0 135 19.5t125 64.5v-181q-12 -8 -47 -28.5t-51 -34.5q-45 -38 -75 -86.5t-30 -93.5q0 -62 43 -62
q29 0 76 33v-131q-59 -45 -121 -45q-73 0 -113.5 42t-40.5 111zM483 758q-73 0 -130 -47.5t-79 -145.5h396q-5 86 -53.5 139.5t-133.5 53.5z" />
    <glyph glyph-name="Ecaron" unicode="&#x11a;" horiz-adv-x="1052" 
d="M463 1374l-193 254h183l104 -123l105 123h182l-193 -254h-188zM139 1257h822v-188h-613v-332h555v-186h-555v-361h613v-190h-822v1257z" />
    <glyph glyph-name="ecaron" unicode="&#x11b;" horiz-adv-x="931" 
d="M864 410h-602q10 -127 87.5 -190.5t193.5 -63.5q75 0 135 19.5t125 64.5v-181q-108 -79 -289 -79q-202 0 -326.5 126.5t-124.5 339.5t117.5 348.5t300.5 135.5q185 0 284 -121t99 -326v-73zM778 1323l-192 -287h-189l-192 287h172l115 -162l114 162h172zM483 758
q-73 0 -130 -47.5t-79 -145.5h396q-5 86 -53.5 139.5t-133.5 53.5z" />
    <glyph glyph-name="Gcircumflex" unicode="&#x11c;" horiz-adv-x="1226" 
d="M680 168q147 0 248 82v242h-238v178h434v-504q-87 -94 -204 -140t-244 -46q-277 0 -440.5 179.5t-163.5 469.5q0 286 178 467.5t450 181.5q216 0 357 -109v-221q-157 139 -357 139q-184 0 -298.5 -127.5t-114.5 -330.5q0 -205 105 -333t288 -128zM786 1628l193 -254h-182
l-105 123l-104 -123h-182l192 254h188z" />
    <glyph glyph-name="gcircumflex" unicode="&#x11d;" horiz-adv-x="1044" 
d="M641 1323l193 -287h-172l-115 162l-115 -162h-172l193 287h188zM713 61v29q-33 -39 -95 -66.5t-135 -27.5q-129 0 -226.5 66.5t-145.5 171.5t-48 229t48 229t145.5 171.5t226.5 66.5q73 0 135 -27.5t95 -66.5v73h205v-833q0 -96 -28 -173.5t-74 -127t-108 -83
t-125.5 -47.5t-131.5 -14q-181 0 -304 78v217q128 -114 304 -114q114 0 188 65.5t74 183.5zM713 285v356q-27 48 -80 78.5t-115 30.5q-116 0 -182 -79.5t-66 -207.5t66 -207.5t182 -79.5q62 0 115 30.5t80 78.5z" />
    <glyph glyph-name="Gbreve" unicode="&#x11e;" horiz-adv-x="1226" 
d="M692 1366q-120 0 -190 66.5t-70 187.5h150q0 -52 29.5 -78t80.5 -26q53 0 83 26t30 78h149q0 -121 -70 -187.5t-192 -66.5zM680 168q147 0 248 82v242h-238v178h434v-504q-87 -94 -204 -140t-244 -46q-277 0 -440.5 179.5t-163.5 469.5q0 286 178 467.5t450 181.5
q216 0 357 -109v-221q-157 139 -357 139q-184 0 -298.5 -127.5t-114.5 -330.5q0 -205 105 -333t288 -128z" />
    <glyph glyph-name="gbreve" unicode="&#x11f;" horiz-adv-x="1044" 
d="M713 61v29q-33 -39 -95 -66.5t-135 -27.5q-129 0 -226.5 66.5t-145.5 171.5t-48 229t48 229t145.5 171.5t226.5 66.5q73 0 135 -27.5t95 -66.5v73h205v-833q0 -96 -28 -173.5t-74 -127t-108 -83t-125.5 -47.5t-131.5 -14q-181 0 -304 78v217q128 -114 304 -114
q114 0 188 65.5t74 183.5zM713 285v356q-27 48 -80 78.5t-115 30.5q-116 0 -182 -79.5t-66 -207.5t66 -207.5t182 -79.5q62 0 115 30.5t80 78.5zM547 1014q-118 0 -187 72.5t-69 203.5h149q0 -61 26.5 -97t80.5 -36q53 0 79.5 36t26.5 97h150q0 -131 -69 -203.5t-187 -72.5z
" />
    <glyph glyph-name="Gdotaccent" unicode="&#x120;" horiz-adv-x="1226" 
d="M809 1491q0 -52 -37.5 -88.5t-89.5 -36.5t-89.5 36.5t-37.5 88.5t37.5 88.5t89.5 36.5t89.5 -36.5t37.5 -88.5zM680 168q147 0 248 82v242h-238v178h434v-504q-87 -94 -204 -140t-244 -46q-277 0 -440.5 179.5t-163.5 469.5q0 286 178 467.5t450 181.5q216 0 357 -109
v-221q-157 139 -357 139q-184 0 -298.5 -127.5t-114.5 -330.5q0 -205 105 -333t288 -128z" />
    <glyph glyph-name="gdotaccent" unicode="&#x121;" horiz-adv-x="1044" 
d="M713 61v29q-33 -39 -95 -66.5t-135 -27.5q-129 0 -226.5 66.5t-145.5 171.5t-48 229t48 229t145.5 171.5t226.5 66.5q73 0 135 -27.5t95 -66.5v73h205v-833q0 -96 -28 -173.5t-74 -127t-108 -83t-125.5 -47.5t-131.5 -14q-181 0 -304 78v217q128 -114 304 -114
q114 0 188 65.5t74 183.5zM713 285v356q-27 48 -80 78.5t-115 30.5q-116 0 -182 -79.5t-66 -207.5t66 -207.5t182 -79.5q62 0 115 30.5t80 78.5zM674 1184q0 -52 -37.5 -88.5t-89.5 -36.5t-89.5 36.5t-37.5 88.5t37.5 88.5t89.5 36.5t89.5 -36.5t37.5 -88.5z" />
    <glyph glyph-name="Gcommaaccent" unicode="&#x122;" horiz-adv-x="1226" 
d="M584 -444l86 122q-45 6 -75 37t-30 76q0 52 37 85.5t92 33.5q54 0 89.5 -35t35.5 -92q0 -60 -57 -145l-55 -82h-123zM680 168q147 0 248 82v242h-238v178h434v-504q-87 -94 -204 -140t-244 -46q-277 0 -440.5 179.5t-163.5 469.5q0 286 178 467.5t450 181.5
q216 0 357 -109v-221q-157 139 -357 139q-184 0 -298.5 -127.5t-114.5 -330.5q0 -205 105 -333t288 -128z" />
    <glyph glyph-name="gcommaaccent" unicode="&#x123;" horiz-adv-x="1044" 
d="M659 1425l-88 -127q47 -6 77 -38t30 -78q0 -53 -38.5 -88t-94.5 -35q-55 0 -92 36t-37 95q0 65 59 151l57 84h127zM713 61v29q-33 -39 -95 -66.5t-135 -27.5q-129 0 -226.5 66.5t-145.5 171.5t-48 229t48 229t145.5 171.5t226.5 66.5q73 0 135 -27.5t95 -66.5v73h205
v-833q0 -96 -28 -173.5t-74 -127t-108 -83t-125.5 -47.5t-131.5 -14q-181 0 -304 78v217q128 -114 304 -114q114 0 188 65.5t74 183.5zM713 285v356q-27 48 -80 78.5t-115 30.5q-116 0 -182 -79.5t-66 -207.5t66 -207.5t182 -79.5q62 0 115 30.5t80 78.5z" />
    <glyph glyph-name="Hcircumflex" unicode="&#x124;" horiz-adv-x="1337" 
d="M985 1257h213v-1257h-213v551h-633v-551h-213v1257h213v-518h633v518zM762 1628l192 -254h-182l-104 123l-105 -123h-182l192 254h189z" />
    <glyph glyph-name="hcircumflex" unicode="&#x125;" horiz-adv-x="1013" 
d="M127 0v1331h205v-508q39 46 105 76.5t141 30.5q152 0 236.5 -92t84.5 -246v-592h-205v557q0 87 -43 136.5t-129 49.5q-67 0 -120 -39.5t-70 -105.5v-598h-205zM606 1669l193 -254h-183l-104 123l-104 -123h-183l193 254h188z" />
    <glyph glyph-name="Hbar" unicode="&#x126;" horiz-adv-x="1398" 
d="M61 866v176h109v215h213v-215h633v215h213v-215h108v-176h-108v-866h-213v469h-633v-469h-213v866h-109zM383 645h633v221h-633v-221z" />
    <glyph glyph-name="hbar" unicode="&#x127;" horiz-adv-x="1013" 
d="M4 1028v143h123v160h205v-160h207v-143h-207v-205q39 46 105 76.5t141 30.5q152 0 236.5 -92t84.5 -246v-592h-205v557q0 87 -43 136.5t-129 49.5q-67 0 -120 -39.5t-70 -105.5v-598h-205v1028h-123z" />
    <glyph glyph-name="Itilde" unicode="&#x128;" horiz-adv-x="491" 
d="M352 1257v-1257h-213v1257h213zM416 1632h123q0 -123 -43.5 -195.5t-126.5 -72.5q-41 0 -82.5 24.5t-78.5 49t-67 24.5q-62 0 -65 -92h-123q0 123 43.5 195.5t126.5 72.5q42 0 83 -24.5t77.5 -49t66.5 -24.5q63 0 66 92z" />
    <glyph glyph-name="itilde" unicode="&#x129;" horiz-adv-x="458" 
d="M356 1313h119q0 -122 -39 -195.5t-110 -73.5q-33 0 -66 25t-60 50.5t-46 25.5q-53 0 -56 -94h-118q0 122 39 195t110 73q33 0 66.5 -25t60.5 -50t45 -25q52 0 55 94zM332 909v-909h-205v909h205z" />
    <glyph glyph-name="Imacron" unicode="&#x12a;" horiz-adv-x="491" 
d="M352 1257v-1257h-213v1257h213zM16 1374v162h461v-162h-461z" />
    <glyph glyph-name="imacron" unicode="&#x12b;" horiz-adv-x="458" 
d="M332 909v-909h-205v909h205zM27 1073v162h405v-162h-405z" />
    <glyph glyph-name="Ibreve" unicode="&#x12c;" horiz-adv-x="491" 
d="M352 1257v-1257h-213v1257h213zM246 1366q-120 0 -190 66.5t-70 187.5h149q0 -52 29.5 -78t81.5 -26q112 0 112 104h150q0 -121 -70 -187.5t-192 -66.5z" />
    <glyph glyph-name="ibreve" unicode="&#x12d;" horiz-adv-x="458" 
d="M229 1014q-105 0 -167 72.5t-62 203.5h145q0 -64 18.5 -98.5t65.5 -34.5t65.5 34.5t18.5 98.5h146q0 -131 -62.5 -203.5t-167.5 -72.5zM332 909v-909h-205v909h205z" />
    <glyph glyph-name="Iogonek" unicode="&#x12e;" horiz-adv-x="491" 
d="M352 1257v-1257q-79 -124 -89 -148q-11 -26 -11 -51q0 -22 11.5 -34.5t31.5 -12.5q29 0 76 33v-131q-59 -45 -121 -45q-76 0 -115 40.5t-39 106.5q0 18 2.5 35t10.5 36.5t12.5 31.5t19 36t19 31.5t24 36.5t23.5 35h-68v1257h213z" />
    <glyph glyph-name="iogonek" unicode="&#x12f;" horiz-adv-x="458" 
d="M332 909v-909q-10 -15 -24 -37t-20.5 -32.5t-16 -26t-13.5 -23t-10 -18.5t-8 -17t-5 -14.5t-3.5 -15.5t-0.5 -15q0 -22 11.5 -34.5t31.5 -12.5q29 0 76 33v-131q-59 -45 -121 -45q-76 0 -114.5 40.5t-38.5 106.5q0 16 3 32.5t6 29t11.5 31t12.5 28t17.5 30.5l18 28t21 32
t20.5 31h-59v909h205zM356 1184q0 -52 -37.5 -88.5t-89.5 -36.5t-89.5 36.5t-37.5 88.5t37.5 88.5t89.5 36.5t89.5 -36.5t37.5 -88.5z" />
    <glyph glyph-name="Idotaccent" unicode="&#x130;" horiz-adv-x="491" 
d="M352 1257v-1257h-213v1257h213zM373 1491q0 -52 -37.5 -88.5t-89.5 -36.5t-89.5 36.5t-37.5 88.5t37.5 88.5t89.5 36.5t89.5 -36.5t37.5 -88.5z" />
    <glyph glyph-name="dotlessi" unicode="&#x131;" horiz-adv-x="458" 
d="M332 909v-909h-205v909h205z" />
    <glyph glyph-name="IJ" unicode="&#x132;" horiz-adv-x="1257" 
d="M352 1257v-1257h-213v1257h213zM492 49v215q71 -45 126.5 -67.5t122.5 -22.5q102 0 145.5 63t43.5 207v813h213v-823q0 -234 -99 -344t-299 -110q-69 0 -137.5 20.5t-115.5 48.5z" />
    <glyph glyph-name="ij" unicode="&#x133;" horiz-adv-x="913" 
d="M332 909v-909h-205v909h205zM356 1184q0 -52 -37.5 -88.5t-89.5 -36.5t-89.5 36.5t-37.5 88.5t37.5 88.5t89.5 36.5t89.5 -36.5t37.5 -88.5zM791 909v-991q0 -137 -75.5 -212t-221.5 -75q-54 0 -82 11v172q32 -9 61 -9q58 0 85.5 31t27.5 96v977h205zM815 1184
q0 -52 -37.5 -88.5t-89.5 -36.5t-89.5 36.5t-37.5 88.5t37.5 88.5t89.5 36.5t89.5 -36.5t37.5 -88.5z" />
    <glyph glyph-name="Jcircumflex" unicode="&#x134;" horiz-adv-x="827" 
d="M61 49v215q71 -45 127 -67.5t123 -22.5q102 0 145.5 63t43.5 207v813h213v-823q0 -234 -99 -344t-299 -110q-69 0 -138 20.5t-116 48.5zM702 1628l193 -254h-182l-105 123l-104 -123h-182l192 254h188z" />
    <glyph glyph-name="jcircumflex" unicode="&#x135;" horiz-adv-x="454" 
d="M324 1323l155 -287h-168l-82 156l-82 -156h-167l155 287h189zM332 909v-991q0 -137 -75.5 -212t-221.5 -75q-55 0 -82 11v172q32 -9 61 -9q58 0 85.5 31t27.5 96v977h205z" />
    <glyph glyph-name="Kcommaaccent" unicode="&#x136;" horiz-adv-x="1169" 
d="M449 -444l86 122q-45 6 -75 37t-30 76q0 52 37 85.5t92 33.5q54 0 89.5 -35t35.5 -92q0 -60 -57 -145l-56 -82h-122zM352 1257v-546l504 546h264l-567 -602l586 -655h-271l-516 575v-575h-213v1257h213z" />
    <glyph glyph-name="kcommaaccent" unicode="&#x137;" horiz-adv-x="948" 
d="M532 496l416 -496h-248l-368 436v-436h-205v1331h205v-790l352 368h256zM379 -444l86 122q-45 6 -75 37t-30 76q0 52 37 85.5t92 33.5q54 0 89.5 -35t35.5 -92q0 -60 -57 -145l-55 -82h-123z" />
    <glyph glyph-name="kgreenlandic" unicode="&#x138;" horiz-adv-x="948" 
d="M532 496l416 -496h-248l-368 436v-436h-205v909h205v-368l352 368h256z" />
    <glyph glyph-name="Lacute" unicode="&#x139;" horiz-adv-x="1034" 
d="M354 1374h-200l157 240h238zM139 0v1257h213v-1067h604v-190h-817z" />
    <glyph glyph-name="lacute" unicode="&#x13a;" horiz-adv-x="458" 
d="M328 1436h-201l158 239h237zM332 1331v-1331h-205v1331h205z" />
    <glyph glyph-name="Lcommaaccent" unicode="&#x13b;" horiz-adv-x="1034" 
d="M463 -444l86 122q-45 6 -75 37t-30 76q0 52 37 85.5t92 33.5q54 0 89.5 -35t35.5 -92q0 -60 -57 -145l-55 -82h-123zM139 0v1257h213v-1067h604v-190h-817z" />
    <glyph glyph-name="lcommaaccent" unicode="&#x13c;" horiz-adv-x="458" 
d="M121 -444l86 122q-45 6 -75 37t-30 76q0 52 37 85.5t92 33.5q54 0 89.5 -35t35.5 -92q0 -60 -57 -145l-55 -82h-123zM332 1331v-1331h-205v1331h205z" />
    <glyph glyph-name="Lcaron" unicode="&#x13d;" horiz-adv-x="1034" 
d="M694 915h-159l69 342h160zM139 0v1257h213v-1067h604v-190h-817z" />
    <glyph glyph-name="lcaron" unicode="&#x13e;" horiz-adv-x="458" 
d="M594 989h-160l70 342h160zM332 1331v-1331h-205v1331h205z" />
    <glyph glyph-name="Ldot" unicode="&#x13f;" horiz-adv-x="1034" 
d="M139 0v1257h213v-1067h604v-190h-817zM879 629q0 -52 -37.5 -88.5t-89.5 -36.5t-89.5 36.5t-37.5 88.5t37.5 88.5t89.5 36.5t89.5 -36.5t37.5 -88.5z" />
    <glyph glyph-name="ldot" unicode="&#x140;" horiz-adv-x="745" 
d="M332 1331v-1331h-205v1331h205zM725 666q0 -52 -37.5 -88.5t-89.5 -36.5t-89.5 36.5t-37.5 88.5t37.5 88.5t89.5 36.5t89.5 -36.5t37.5 -88.5z" />
    <glyph glyph-name="Lslash" unicode="&#x141;" horiz-adv-x="1087" 
d="M61 424v194l132 56v583h213v-505l309 129v-195l-309 -127v-369h604v-190h-817v477z" />
    <glyph glyph-name="lslash" unicode="&#x142;" horiz-adv-x="532" 
d="M369 1331v-469l112 68v-176l-112 -68v-686h-205v594l-103 -59v176l103 59v561h205z" />
    <glyph glyph-name="Nacute" unicode="&#x143;" horiz-adv-x="1290" 
d="M731 1374h-201l158 240h238zM1151 1257v-1257h-164l-643 915v-915h-205v1257h201l606 -872v872h205z" />
    <glyph glyph-name="nacute" unicode="&#x144;" horiz-adv-x="1013" 
d="M604 1051h-182l158 280h211zM127 0v909h205v-86q39 46 105 76.5t141 30.5q152 0 236.5 -92t84.5 -246v-592h-205v557q0 87 -43 136.5t-129 49.5q-67 0 -120 -39.5t-70 -105.5v-598h-205z" />
    <glyph glyph-name="Ncommaaccent" unicode="&#x145;" horiz-adv-x="1290" 
d="M537 -444l86 122q-45 6 -75 37t-30 76q0 52 37 85.5t92 33.5q54 0 89.5 -35t35.5 -92q0 -60 -57 -145l-56 -82h-122zM1151 1257v-1257h-164l-643 915v-915h-205v1257h201l606 -872v872h205z" />
    <glyph glyph-name="ncommaaccent" unicode="&#x146;" horiz-adv-x="1013" 
d="M416 -444l86 122q-45 6 -75 37t-30 76q0 52 37 85.5t92 33.5q54 0 89.5 -35t35.5 -92q0 -60 -57 -145l-55 -82h-123zM127 0v909h205v-86q39 46 105 76.5t141 30.5q152 0 236.5 -92t84.5 -246v-592h-205v557q0 87 -43 136.5t-129 49.5q-67 0 -120 -39.5t-70 -105.5v-598
h-205z" />
    <glyph glyph-name="Ncaron" unicode="&#x147;" horiz-adv-x="1290" 
d="M551 1374l-193 254h183l104 -123l105 123h182l-193 -254h-188zM1151 1257v-1257h-164l-643 915v-915h-205v1257h201l606 -872v872h205z" />
    <glyph glyph-name="ncaron" unicode="&#x148;" horiz-adv-x="1013" 
d="M811 1323l-193 -287h-188l-192 287h172l114 -162l115 162h172zM127 0v909h205v-86q39 46 105 76.5t141 30.5q152 0 236.5 -92t84.5 -246v-592h-205v557q0 87 -43 136.5t-129 49.5q-67 0 -120 -39.5t-70 -105.5v-598h-205z" />
    <glyph glyph-name="Eng" unicode="&#x14a;" horiz-adv-x="1290" 
d="M555 -346v209q98 -58 195 -58q103 0 149 58t47 196l-602 856v-915h-205v1257h201l606 -872v872h205v-1191q0 -233 -97 -344t-292 -111q-104 0 -207 43z" />
    <glyph glyph-name="eng" unicode="&#x14b;" horiz-adv-x="1013" 
d="M694 -68v625q0 87 -43 136.5t-129 49.5q-67 0 -120 -39.5t-70 -105.5v-598h-205v909h205v-86q39 46 105 76.5t141 30.5q152 0 236.5 -92t84.5 -246v-674q0 -137 -75.5 -212t-221.5 -75q-54 0 -82 11v172q32 -9 62 -9q58 0 85 31t27 96z" />
    <glyph glyph-name="Omacron" unicode="&#x14c;" horiz-adv-x="1304" 
d="M422 1374v162h461v-162h-461zM1233 629q0 -185 -74 -333.5t-207 -232t-301 -83.5t-300 83.5t-205.5 231.5t-73.5 334q0 283 162.5 466t416.5 183q168 0 301 -83t207 -231.5t74 -334.5zM1018 629q0 201 -101.5 329.5t-265.5 128.5t-264 -128t-100 -330t100 -330.5
t264 -128.5t265.5 129t101.5 330z" />
    <glyph glyph-name="omacron" unicode="&#x14d;" horiz-adv-x="991" 
d="M266 1073v162h461v-162h-461zM928 455q0 -210 -120 -342.5t-312 -132.5t-312.5 132.5t-120.5 342.5t120.5 342.5t312.5 132.5t312 -132.5t120 -342.5zM723 455q0 133 -60 216t-167 83t-167.5 -83t-60.5 -216t60.5 -216t167.5 -83t167 83t60 216z" />
    <glyph glyph-name="Obreve" unicode="&#x14e;" horiz-adv-x="1304" 
d="M651 1366q-120 0 -190 66.5t-70 187.5h150q0 -52 29.5 -78t80.5 -26q53 0 83 26t30 78h149q0 -121 -70 -187.5t-192 -66.5zM1233 629q0 -185 -74 -333.5t-207 -232t-301 -83.5t-300 83.5t-205.5 231.5t-73.5 334q0 283 162.5 466t416.5 183q168 0 301 -83t207 -231.5
t74 -334.5zM1018 629q0 201 -101.5 329.5t-265.5 128.5t-264 -128t-100 -330t100 -330.5t264 -128.5t265.5 129t101.5 330z" />
    <glyph glyph-name="obreve" unicode="&#x14f;" horiz-adv-x="991" 
d="M928 455q0 -210 -120 -342.5t-312 -132.5t-312.5 132.5t-120.5 342.5t120.5 342.5t312.5 132.5t312 -132.5t120 -342.5zM723 455q0 133 -60 216t-167 83t-167.5 -83t-60.5 -216t60.5 -216t167.5 -83t167 83t60 216zM496 1014q-118 0 -187 72.5t-69 203.5h149
q0 -61 26.5 -97t80.5 -36q53 0 79.5 36t26.5 97h150q0 -131 -69 -203.5t-187 -72.5z" />
    <glyph glyph-name="Ohungarumlaut" unicode="&#x150;" horiz-adv-x="1304" 
d="M1233 629q0 -185 -74 -333.5t-207 -232t-301 -83.5t-300 83.5t-205.5 231.5t-73.5 334q0 283 162.5 466t416.5 183q168 0 301 -83t207 -231.5t74 -334.5zM1018 629q0 201 -101.5 329.5t-265.5 128.5t-264 -128t-100 -330t100 -330.5t264 -128.5t265.5 129t101.5 330z
M614 1374h-170l123 240h174zM887 1374h-170l123 240h174z" />
    <glyph glyph-name="ohungarumlaut" unicode="&#x151;" horiz-adv-x="991" 
d="M436 1051h-164l123 280h168zM698 1051h-163l122 280h168zM928 455q0 -210 -120 -342.5t-312 -132.5t-312.5 132.5t-120.5 342.5t120.5 342.5t312.5 132.5t312 -132.5t120 -342.5zM723 455q0 133 -60 216t-167 83t-167.5 -83t-60.5 -216t60.5 -216t167.5 -83t167 83
t60 216z" />
    <glyph glyph-name="OE" unicode="&#x152;" horiz-adv-x="1681" 
d="M1589 1257v-188h-571v-332h514v-186h-514v-361h571v-190h-907q-278 0 -444 171t-166 458t166 457.5t444 170.5h907zM690 190h119v879h-119q-195 0 -300 -117t-105 -323q0 -204 105 -321.5t300 -117.5z" />
    <glyph glyph-name="oe" unicode="&#x153;" horiz-adv-x="1583" 
d="M496 930q200 0 325 -148q57 69 138 108.5t174 39.5q185 0 284 -121t99 -326v-73h-603q10 -127 87.5 -190.5t193.5 -63.5q75 0 135 19.5t125 64.5v-181q-108 -79 -289 -79q-221 0 -346 147q-121 -147 -323 -147q-192 0 -312.5 132.5t-120.5 342.5t120.5 342.5t312.5 132.5
zM723 455q0 133 -60 216t-167 83t-167.5 -83t-60.5 -216t60.5 -216t167.5 -83t167 83t60 216zM1135 758q-73 0 -130 -47.5t-79 -145.5h395q-5 87 -53 140t-133 53z" />
    <glyph glyph-name="Racute" unicode="&#x154;" horiz-adv-x="1136" 
d="M504 510h-152v-510h-213v1257h486q199 0 313.5 -97.5t114.5 -278.5q0 -155 -84.5 -247t-237.5 -116l365 -518h-242zM352 1073v-385h269q104 0 162.5 52t58.5 141t-58 140.5t-163 51.5h-269zM653 1374h-200l157 240h238z" />
    <glyph glyph-name="racute" unicode="&#x155;" horiz-adv-x="696" 
d="M461 1051h-182l157 280h211zM635 913v-211q-45 31 -121 31q-67 0 -117.5 -37.5t-64.5 -107.5v-588h-205v909h205v-94q26 51 82 83t121 32q70 0 100 -17z" />
    <glyph glyph-name="Rcommaaccent" unicode="&#x156;" horiz-adv-x="1136" 
d="M504 510h-152v-510h-213v1257h486q199 0 313.5 -97.5t114.5 -278.5q0 -155 -84.5 -247t-237.5 -116l365 -518h-242zM352 1073v-385h269q104 0 162.5 52t58.5 141t-58 140.5t-163 51.5h-269zM459 -444l86 122q-45 6 -75 37t-30 76q0 52 37 85.5t92 33.5q54 0 89.5 -35
t35.5 -92q0 -60 -57 -145l-55 -82h-123z" />
    <glyph glyph-name="rcommaaccent" unicode="&#x157;" horiz-adv-x="696" 
d="M117 -444l86 122q-45 6 -75 37t-30 76q0 52 37 85.5t92 33.5q54 0 89.5 -35t35.5 -92q0 -60 -57 -145l-55 -82h-123zM635 913v-211q-45 31 -121 31q-67 0 -117.5 -37.5t-64.5 -107.5v-588h-205v909h205v-94q26 51 82 83t121 32q70 0 100 -17z" />
    <glyph glyph-name="Rcaron" unicode="&#x158;" horiz-adv-x="1136" 
d="M504 510h-152v-510h-213v1257h486q199 0 313.5 -97.5t114.5 -278.5q0 -155 -84.5 -247t-237.5 -116l365 -518h-242zM352 1073v-385h269q104 0 162.5 52t58.5 141t-58 140.5t-163 51.5h-269zM473 1374l-192 254h182l104 -123l105 123h182l-192 -254h-189z" />
    <glyph glyph-name="rcaron" unicode="&#x159;" horiz-adv-x="696" 
d="M668 1323l-193 -287h-188l-193 287h172l115 -162l115 162h172zM635 913v-211q-45 31 -121 31q-67 0 -117.5 -37.5t-64.5 -107.5v-588h-205v909h205v-94q26 51 82 83t121 32q70 0 100 -17z" />
    <glyph glyph-name="Sacute" unicode="&#x15a;" horiz-adv-x="1015" 
d="M88 90v223q181 -145 399 -145q112 0 178 41t66 123q0 69 -41.5 106.5t-134.5 73.5l-182 66q-68 25 -117.5 53.5t-92 70t-64 100.5t-21.5 134q0 107 58.5 186t153.5 117.5t212 38.5q215 0 370 -102v-220q-177 136 -366 136q-99 0 -160 -39t-61 -113q0 -65 39 -100t125 -66
l202 -74q149 -54 218 -141t69 -223q0 -167 -126.5 -261.5t-324.5 -94.5q-120 0 -224.5 30.5t-174.5 79.5zM610 1374h-200l157 240h238z" />
    <glyph glyph-name="sacute" unicode="&#x15b;" horiz-adv-x="825" 
d="M514 1051h-182l157 280h211zM86 74v209q64 -63 145.5 -98t161.5 -35q70 0 114 24t44 72q0 41 -29.5 63.5t-91.5 42.5l-98 31q-123 38 -184.5 100.5t-61.5 173.5q0 123 96.5 198t245.5 75q153 0 272 -80v-207q-134 117 -272 117q-64 0 -104.5 -25t-40.5 -69
q0 -42 26 -63.5t90 -41.5l119 -37q116 -36 174 -101t58 -167q0 -129 -101 -202.5t-258 -73.5q-87 0 -169 25t-136 69z" />
    <glyph glyph-name="Scircumflex" unicode="&#x15c;" horiz-adv-x="1015" 
d="M88 90v223q181 -145 399 -145q112 0 178 41t66 123q0 69 -41.5 106.5t-134.5 73.5l-182 66q-68 25 -117.5 53.5t-92 70t-64 100.5t-21.5 134q0 107 58.5 186t153.5 117.5t212 38.5q215 0 370 -102v-220q-177 136 -366 136q-99 0 -160 -39t-61 -113q0 -65 39 -100t125 -66
l202 -74q149 -54 218 -141t69 -223q0 -167 -126.5 -261.5t-324.5 -94.5q-120 0 -224.5 30.5t-174.5 79.5zM618 1628l193 -254h-182l-105 123l-104 -123h-182l192 254h188z" />
    <glyph glyph-name="scircumflex" unicode="&#x15d;" horiz-adv-x="825" 
d="M528 1323l193 -287h-172l-115 162l-115 -162h-172l193 287h188zM86 74v209q64 -63 145.5 -98t161.5 -35q70 0 114 24t44 72q0 41 -29.5 63.5t-91.5 42.5l-98 31q-123 38 -184.5 100.5t-61.5 173.5q0 123 96.5 198t245.5 75q153 0 272 -80v-207q-134 117 -272 117
q-64 0 -104.5 -25t-40.5 -69q0 -42 26 -63.5t90 -41.5l119 -37q116 -36 174 -101t58 -167q0 -129 -101 -202.5t-258 -73.5q-87 0 -169 25t-136 69z" />
    <glyph glyph-name="Scedilla" unicode="&#x15e;" horiz-adv-x="1015" 
d="M88 90v223q181 -145 399 -145q112 0 178 41t66 123q0 69 -41.5 106.5t-134.5 73.5l-182 66q-68 25 -117.5 53.5t-92 70t-64 100.5t-21.5 134q0 107 58.5 186t153.5 117.5t212 38.5q215 0 370 -102v-220q-177 136 -366 136q-99 0 -160 -39t-61 -113q0 -65 39 -100t125 -66
l202 -74q149 -54 218 -141t69 -223q0 -167 -126.5 -261.5t-324.5 -94.5q-120 0 -224.5 30.5t-174.5 79.5zM446 -389h-190l145 280h203z" />
    <glyph glyph-name="scedilla" unicode="&#x15f;" horiz-adv-x="825" 
d="M86 74v209q64 -63 145.5 -98t161.5 -35q70 0 114 24t44 72q0 41 -29.5 63.5t-91.5 42.5l-98 31q-123 38 -184.5 100.5t-61.5 173.5q0 123 96.5 198t245.5 75q153 0 272 -80v-207q-134 117 -272 117q-64 0 -104.5 -25t-40.5 -69q0 -42 26 -63.5t90 -41.5l119 -37
q116 -36 174 -101t58 -167q0 -129 -101 -202.5t-258 -73.5q-87 0 -169 25t-136 69zM344 -389h-190l145 280h203z" />
    <glyph glyph-name="Scaron" unicode="&#x160;" horiz-adv-x="1015" 
d="M88 90v223q181 -145 399 -145q112 0 178 41t66 123q0 69 -41.5 106.5t-134.5 73.5l-182 66q-68 25 -117.5 53.5t-92 70t-64 100.5t-21.5 134q0 107 58.5 186t153.5 117.5t212 38.5q215 0 370 -102v-220q-177 136 -366 136q-99 0 -160 -39t-61 -113q0 -65 39 -100t125 -66
l202 -74q149 -54 218 -141t69 -223q0 -167 -126.5 -261.5t-324.5 -94.5q-120 0 -224.5 30.5t-174.5 79.5zM430 1374l-192 254h182l104 -123l105 123h182l-193 -254h-188z" />
    <glyph glyph-name="scaron" unicode="&#x161;" horiz-adv-x="825" 
d="M721 1323l-193 -287h-188l-193 287h172l115 -162l115 162h172zM86 74v209q64 -63 145.5 -98t161.5 -35q70 0 114 24t44 72q0 41 -29.5 63.5t-91.5 42.5l-98 31q-123 38 -184.5 100.5t-61.5 173.5q0 123 96.5 198t245.5 75q153 0 272 -80v-207q-134 117 -272 117
q-64 0 -104.5 -25t-40.5 -69q0 -42 26 -63.5t90 -41.5l119 -37q116 -36 174 -101t58 -167q0 -129 -101 -202.5t-258 -73.5q-87 0 -169 25t-136 69z" />
    <glyph glyph-name="Tcedilla" unicode="&#x162;" horiz-adv-x="1171" 
d="M477 -444l86 122q-45 6 -74.5 37t-29.5 76q0 52 37 85.5t92 33.5q54 0 89.5 -35t35.5 -92q0 -59 -58 -145l-55 -82h-123zM61 1069v188h1049v-188h-418v-1069h-213v1069h-418z" />
    <glyph glyph-name="tcedilla" unicode="&#x163;" horiz-adv-x="698" 
d="M227 -444l86 122q-45 6 -74.5 37t-29.5 76q0 52 37 85.5t92 33.5q54 0 89.5 -35t35.5 -92q0 -60 -57 -145l-56 -82h-123zM440 739v-739h-204v739h-185v170h185v244h204v-244h205v-170h-205z" />
    <glyph glyph-name="Tcaron" unicode="&#x164;" horiz-adv-x="1171" 
d="M492 1374l-193 254h182l105 -123l104 123h182l-192 -254h-188zM61 1069v188h1049v-188h-418v-1069h-213v1069h-418z" />
    <glyph glyph-name="tcaron" unicode="&#x165;" horiz-adv-x="698" 
d="M702 1010h-159l69 342h160zM440 739v-739h-204v739h-185v170h185v244h204v-244h205v-170h-205z" />
    <glyph glyph-name="Tbar" unicode="&#x166;" horiz-adv-x="1171" 
d="M61 1069v188h1049v-188h-418v-330h226v-180h-226v-559h-213v559h-225v180h225v330h-418z" />
    <glyph glyph-name="tbar" unicode="&#x167;" horiz-adv-x="698" 
d="M440 739v-170h160v-161h-160v-408h-204v408h-144v161h144v170h-185v170h185v244h204v-244h205v-170h-205z" />
    <glyph glyph-name="Utilde" unicode="&#x168;" horiz-adv-x="1245" 
d="M793 1632h122q0 -123 -43.5 -195.5t-126.5 -72.5q-41 0 -82.5 24.5t-78 49t-66.5 24.5q-62 0 -65 -92h-123q0 123 43.5 195.5t126.5 72.5q42 0 83 -24.5t77.5 -49t66.5 -24.5q63 0 66 92zM623 -20q-231 0 -367.5 134.5t-136.5 387.5v755h213v-733q0 -354 291 -354
q290 0 290 354v733h213v-757q0 -252 -135.5 -386t-367.5 -134z" />
    <glyph glyph-name="utilde" unicode="&#x169;" horiz-adv-x="1009" 
d="M883 909v-909h-205v86q-39 -46 -104 -76t-140 -30q-152 0 -235.5 91.5t-83.5 245.5v592h204v-557q0 -88 42.5 -137t127.5 -49q67 0 119.5 39.5t69.5 105.5v598h205zM666 1313h122q0 -124 -43.5 -196.5t-126.5 -72.5q-30 0 -61 16.5t-53 37t-47.5 37t-44.5 16.5
q-63 0 -66 -100h-123q0 123 43.5 195.5t126.5 72.5q30 0 62 -16.5t54 -37t47 -37t44 -16.5q30 0 47 26.5t19 74.5z" />
    <glyph glyph-name="Umacron" unicode="&#x16a;" horiz-adv-x="1245" 
d="M393 1374v162h461v-162h-461zM623 -20q-231 0 -367.5 134.5t-136.5 387.5v755h213v-733q0 -354 291 -354q290 0 290 354v733h213v-757q0 -252 -135.5 -386t-367.5 -134z" />
    <glyph glyph-name="umacron" unicode="&#x16b;" horiz-adv-x="1009" 
d="M883 909v-909h-205v86q-39 -46 -104 -76t-140 -30q-152 0 -235.5 91.5t-83.5 245.5v592h204v-557q0 -88 42.5 -137t127.5 -49q67 0 119.5 39.5t69.5 105.5v598h205zM276 1073v162h461v-162h-461z" />
    <glyph glyph-name="Ubreve" unicode="&#x16c;" horiz-adv-x="1245" 
d="M623 1366q-120 0 -190.5 66.5t-70.5 187.5h150q0 -52 29.5 -78t81.5 -26q112 0 112 104h150q0 -121 -70 -187.5t-192 -66.5zM623 -20q-231 0 -367.5 134.5t-136.5 387.5v755h213v-733q0 -354 291 -354q290 0 290 354v733h213v-757q0 -252 -135.5 -386t-367.5 -134z" />
    <glyph glyph-name="ubreve" unicode="&#x16d;" horiz-adv-x="1009" 
d="M883 909v-909h-205v86q-39 -46 -104 -76t-140 -30q-152 0 -235.5 91.5t-83.5 245.5v592h204v-557q0 -88 42.5 -137t127.5 -49q67 0 119.5 39.5t69.5 105.5v598h205zM506 1014q-118 0 -187 72.5t-69 203.5h149q0 -61 26.5 -97t80.5 -36q53 0 79.5 36t26.5 97h150
q0 -131 -69 -203.5t-187 -72.5z" />
    <glyph glyph-name="Uring" unicode="&#x16e;" horiz-adv-x="1245" 
d="M623 -20q-231 0 -367.5 134.5t-136.5 387.5v755h213v-733q0 -354 291 -354q290 0 290 354v733h213v-757q0 -252 -135.5 -386t-367.5 -134zM813 1516q0 -79 -55 -133t-135 -54t-135.5 54t-55.5 133t55.5 132.5t135.5 53.5t135 -53.5t55 -132.5zM709 1516q0 36 -25 61
t-61 25t-61 -25t-25 -61t25 -61t61 -25t61 25t25 61z" />
    <glyph glyph-name="uring" unicode="&#x16f;" horiz-adv-x="1009" 
d="M696 1188q0 -79 -55 -133t-135 -54t-135.5 54t-55.5 133t55.5 132.5t135.5 53.5t135 -53.5t55 -132.5zM592 1188q0 36 -25 61t-61 25t-61 -25t-25 -61t25 -61t61 -25t61 25t25 61zM883 909v-909h-205v86q-39 -46 -104 -76t-140 -30q-152 0 -235.5 91.5t-83.5 245.5v592
h204v-557q0 -88 42.5 -137t127.5 -49q67 0 119.5 39.5t69.5 105.5v598h205z" />
    <glyph glyph-name="Uhungarumlaut" unicode="&#x170;" horiz-adv-x="1245" 
d="M623 -20q-231 0 -367.5 134.5t-136.5 387.5v755h213v-733q0 -354 291 -354q290 0 290 354v733h213v-757q0 -252 -135.5 -386t-367.5 -134zM586 1374h-170l123 240h174zM858 1374h-170l123 240h174z" />
    <glyph glyph-name="uhungarumlaut" unicode="&#x171;" horiz-adv-x="1009" 
d="M883 909v-909h-205v86q-39 -46 -104 -76t-140 -30q-152 0 -235.5 91.5t-83.5 245.5v592h204v-557q0 -88 42.5 -137t127.5 -49q67 0 119.5 39.5t69.5 105.5v598h205zM446 1051h-163l123 280h167zM709 1051h-164l123 280h168z" />
    <glyph glyph-name="Uogonek" unicode="&#x172;" horiz-adv-x="1245" 
d="M623 -20q-231 0 -367.5 134.5t-136.5 387.5v755h213v-733q0 -354 291 -354q290 0 290 354v733h213v-757q0 -165 -53.5 -271t-169.5 -186q-190 -132 -190 -242q0 -22 11.5 -34.5t31.5 -12.5q28 0 75 33v-131q-59 -45 -120 -45q-76 0 -115 40.5t-39 106.5q0 113 109 222
h-43z" />
    <glyph glyph-name="uogonek" unicode="&#x173;" horiz-adv-x="1009" 
d="M883 909v-909q-10 -15 -24 -37t-20.5 -32.5t-16 -26t-13.5 -23t-10 -18.5t-8 -17t-5 -14.5t-3.5 -15.5t-0.5 -15q0 -22 11.5 -34.5t31.5 -12.5q29 0 76 33v-131q-59 -45 -121 -45q-76 0 -114.5 40.5t-38.5 106.5q0 16 3 32.5t6 29t11.5 31t12.5 28t17.5 30.5l18 28t21 32
t20.5 31h-59v86q-39 -46 -104 -76t-140 -30q-152 0 -235.5 91.5t-83.5 245.5v592h204v-557q0 -88 42.5 -137t127.5 -49q67 0 119.5 39.5t69.5 105.5v598h205z" />
    <glyph glyph-name="Wcircumflex" unicode="&#x174;" horiz-adv-x="1587" 
d="M711 1257h172l237 -925l228 925h204l-323 -1257h-197l-237 899l-242 -899h-195l-323 1257h209l227 -925zM887 1628l192 -254h-182l-104 123l-105 -123h-182l192 254h189z" />
    <glyph glyph-name="wcircumflex" unicode="&#x175;" horiz-adv-x="1335" 
d="M762 1323l192 -287h-172l-114 162l-115 -162h-172l192 287h189zM764 909l160 -645l176 645h198l-264 -909h-205l-161 633l-162 -633h-205l-264 909h205l176 -645l160 645h186z" />
    <glyph glyph-name="Ycircumflex" unicode="&#x176;" horiz-adv-x="1183" 
d="M596 694l332 563h225l-457 -755v-502h-211v502l-454 755h231zM686 1628l193 -254h-183l-104 123l-105 -123h-182l193 254h188z" />
    <glyph glyph-name="ycircumflex" unicode="&#x177;" horiz-adv-x="974" 
d="M459 -348h-199l129 323l-352 934h219l238 -669l233 669h211zM582 1323l192 -287h-172l-115 162l-114 -162h-172l192 287h189z" />
    <glyph glyph-name="Ydieresis" unicode="&#x178;" horiz-adv-x="1183" 
d="M596 694l332 563h225l-457 -755v-502h-211v502l-454 755h231zM315 1491q0 52 35 86.5t86 34.5q50 0 84.5 -34.5t34.5 -86.5q0 -49 -34.5 -84t-84.5 -35q-51 0 -86 34.5t-35 84.5zM631 1491q0 52 34.5 86.5t84.5 34.5t85 -34.5t35 -86.5q0 -49 -35 -84t-85 -35t-84.5 35
t-34.5 84z" />
    <glyph glyph-name="Zacute" unicode="&#x179;" horiz-adv-x="1103" 
d="M1024 190v-190h-958v8l632 1061h-604v188h938v-8l-631 -1059h623zM664 1374h-201l158 240h237z" />
    <glyph glyph-name="zacute" unicode="&#x17a;" horiz-adv-x="882" 
d="M526 1051h-182l158 280h211zM803 170v-170h-748v8l439 731h-416v170h727v-8l-436 -731h434z" />
    <glyph glyph-name="Zdotaccent" unicode="&#x17b;" horiz-adv-x="1103" 
d="M705 1491q0 -52 -37.5 -88.5t-89.5 -36.5t-89.5 36.5t-37.5 88.5t37.5 88.5t89.5 36.5t89.5 -36.5t37.5 -88.5zM1024 190v-190h-958v8l632 1061h-604v188h938v-8l-631 -1059h623z" />
    <glyph glyph-name="zdotaccent" unicode="&#x17c;" horiz-adv-x="882" 
d="M803 170v-170h-748v8l439 731h-416v170h727v-8l-436 -731h434zM573 1184q0 -52 -37.5 -88.5t-89.5 -36.5t-89.5 36.5t-37.5 88.5t37.5 88.5t89.5 36.5t89.5 -36.5t37.5 -88.5z" />
    <glyph glyph-name="Zcaron" unicode="&#x17d;" horiz-adv-x="1103" 
d="M483 1374l-192 254h182l105 -123l104 123h182l-192 -254h-189zM1024 190v-190h-958v8l632 1061h-604v188h938v-8l-631 -1059h623z" />
    <glyph glyph-name="zcaron" unicode="&#x17e;" horiz-adv-x="882" 
d="M733 1323l-192 -287h-189l-192 287h172l114 -162l115 162h172zM803 170v-170h-748v8l439 731h-416v170h727v-8l-436 -731h434z" />
    <glyph glyph-name="florin" unicode="&#x192;" horiz-adv-x="868" 
d="M141 547v172h178l46 258q26 146 117.5 223.5t234.5 77.5q69 0 131 -25v-180q-56 29 -127 29q-62 0 -104 -36t-54 -103l-43 -244h185v-172h-216l-108 -615q-27 -152 -101 -226.5t-217 -74.5q-76 0 -131 25v180q56 -29 127 -29q59 0 84.5 33t38.5 107l107 600h-148z" />
    <glyph glyph-name="Aringacute" unicode="&#x1fa;" horiz-adv-x="1253" 
d="M524 1257h205l483 -1257h-217l-129 348h-481l-129 -348h-215zM815 1454q0 -66 -55.5 -112t-134.5 -46q-80 0 -135.5 46t-55.5 112t55.5 112t135.5 46q79 0 134.5 -46t55.5 -112zM625 997l-172 -465h344zM739 1651h-200l108 180h238zM711 1454q0 30 -25 48t-61 18t-61 -18
t-25 -48t24.5 -47.5t61.5 -17.5t61.5 17.5t24.5 47.5z" />
    <glyph glyph-name="aringacute" unicode="&#x1fb;" horiz-adv-x="942" 
d="M659 1126q0 -66 -55 -111.5t-135 -45.5t-135 45.5t-55 111.5t55.5 112t134.5 46t134.5 -46t55.5 -112zM555 1126q0 30 -25 48t-61 18t-61 -18t-25 -48t24.5 -47.5t61.5 -17.5t61.5 17.5t24.5 47.5zM584 1323h-201l109 180h237zM631 518v64q0 76 -56.5 118.5t-152.5 42.5
q-133 0 -252 -79v188q46 33 125.5 55.5t163.5 22.5q176 0 272 -88.5t96 -245.5v-596h-196v51q-26 -26 -88.5 -46.5t-134.5 -20.5q-144 0 -242 81t-98 216q0 128 101 210t253 82q59 0 119.5 -17t89.5 -38zM631 242v75q-17 42 -69.5 67.5t-115.5 25.5q-77 0 -132.5 -33
t-55.5 -96q0 -64 55.5 -97.5t132.5 -33.5q63 0 115.5 25t69.5 67z" />
    <glyph glyph-name="AEacute" unicode="&#x1fc;" horiz-adv-x="1771" 
d="M768 1257h911v-188h-571v-332h514v-186h-514v-361h571v-190h-780v348h-434l-203 -348h-221zM899 1092l-328 -560h328v560zM1270 1374h-201l158 240h237z" />
    <glyph glyph-name="aeacute" unicode="&#x1fd;" horiz-adv-x="1482" 
d="M866 1051h-182l158 280h211zM1065 -20q-214 0 -338 139q-129 -135 -319 -135q-144 0 -242 78.5t-98 205.5q0 134 101.5 212.5t256.5 78.5h205v23q0 76 -56.5 118.5t-152.5 42.5q-133 0 -252 -79v188q46 33 125.5 55.5t163.5 22.5q208 0 297 -131q108 131 276 131
q184 0 283.5 -124t99.5 -329v-74h-600q11 -124 88 -185.5t191 -61.5q75 0 135 19.5t125 64.5v-181q-108 -79 -289 -79zM426 150q73 0 126.5 33t78.5 93v127h-189q-78 0 -131 -29.5t-53 -92.5q0 -64 49 -97.5t119 -33.5zM1034 758q-75 0 -132.5 -49t-78.5 -150h398
q-5 87 -53.5 143t-133.5 56z" />
    <glyph glyph-name="Oslashacute" unicode="&#x1fe;" horiz-adv-x="1325" 
d="M127 55l100 129q-145 178 -145 445q0 283 163 466t417 183q186 0 331 -107l88 115l123 -84l-104 -133q143 -180 143 -440q0 -185 -74 -333.5t-206.5 -232t-300.5 -83.5q-189 0 -328 100l-84 -109zM297 629q0 -170 59 -279l518 670q-86 67 -212 67q-164 0 -264.5 -128
t-100.5 -330zM1028 629q0 155 -57 272l-518 -668q85 -63 209 -63q164 0 265 129t101 330zM748 1374h-201l158 240h237z" />
    <glyph glyph-name="oslashacute" unicode="&#x1ff;" horiz-adv-x="1011" 
d="M76 4l100 129q-102 127 -102 322q0 210 120 342.5t312 132.5q129 0 233 -68l84 111l105 -74l-94 -123q104 -129 104 -321q0 -210 -120 -342.5t-312 -132.5q-133 0 -236 67l-90 -117zM737 455q0 89 -28 159l-328 -421q52 -37 125 -37q108 0 169.5 83.5t61.5 215.5z
M274 455q0 -91 27 -158l326 422q-50 35 -121 35q-108 0 -170 -83.5t-62 -215.5zM584 1051h-183l158 280h211z" />
    <glyph glyph-name="Scommaaccent" unicode="&#x218;" horiz-adv-x="1015" 
d="M416 -444l86 122q-45 6 -75 37t-30 76q0 52 37 85.5t92 33.5q54 0 89.5 -35t35.5 -92q0 -60 -57 -145l-55 -82h-123zM88 90v223q181 -145 399 -145q112 0 178 41t66 123q0 69 -41.5 106.5t-134.5 73.5l-182 66q-68 25 -117.5 53.5t-92 70t-64 100.5t-21.5 134
q0 107 58.5 186t153.5 117.5t212 38.5q215 0 370 -102v-220q-177 136 -366 136q-99 0 -160 -39t-61 -113q0 -65 39 -100t125 -66l202 -74q149 -54 218 -141t69 -223q0 -167 -126.5 -261.5t-324.5 -94.5q-120 0 -224.5 30.5t-174.5 79.5z" />
    <glyph glyph-name="scommaaccent" unicode="&#x219;" horiz-adv-x="825" 
d="M285 -444l86 122q-45 6 -75 37t-30 76q0 52 37 85.5t92 33.5q54 0 89.5 -35t35.5 -92q0 -60 -57 -145l-55 -82h-123zM86 74v209q64 -63 145.5 -98t161.5 -35q70 0 114 24t44 72q0 41 -29.5 63.5t-91.5 42.5l-98 31q-123 38 -184.5 100.5t-61.5 173.5q0 123 96.5 198
t245.5 75q153 0 272 -80v-207q-134 117 -272 117q-64 0 -104.5 -25t-40.5 -69q0 -42 26 -63.5t90 -41.5l119 -37q116 -36 174 -101t58 -167q0 -129 -101 -202.5t-258 -73.5q-87 0 -169 25t-136 69z" />
    <glyph glyph-name="uni0237" unicode="&#x237;" horiz-adv-x="454" 
d="M332 909v-991q0 -137 -75.5 -212t-221.5 -75q-55 0 -82 11v172q32 -9 61 -9q58 0 85.5 31t27.5 96v977h205z" />
    <glyph glyph-name="circumflex" unicode="&#x2c6;" 
d="M606 1323l193 -287h-172l-115 162l-115 -162h-172l193 287h188z" />
    <glyph glyph-name="caron" unicode="&#x2c7;" 
d="M799 1323l-193 -287h-188l-193 287h172l115 -162l115 162h172z" />
    <glyph glyph-name="breve" unicode="&#x2d8;" 
d="M512 1014q-118 0 -187 72.5t-69 203.5h150q0 -61 26.5 -97t79.5 -36t79.5 36t26.5 97h150q0 -131 -69 -203.5t-187 -72.5z" />
    <glyph glyph-name="dotaccent" unicode="&#x2d9;" 
d="M639 1184q0 -52 -37.5 -88.5t-89.5 -36.5t-89.5 36.5t-37.5 88.5t37.5 88.5t89.5 36.5t89.5 -36.5t37.5 -88.5z" />
    <glyph glyph-name="ring" unicode="&#x2da;" 
d="M702 1188q0 -79 -55 -133t-135 -54t-135 54t-55 133t55 132.5t135 53.5t135 -53.5t55 -132.5zM598 1188q0 36 -25 61t-61 25t-61 -25t-25 -61t25 -61t61 -25t61 25t25 61z" />
    <glyph glyph-name="ogonek" unicode="&#x2db;" 
d="M481 10h146q-9 -15 -24 -38t-21.5 -33t-17 -27t-14.5 -24.5t-10.5 -20t-9 -19t-5.5 -16t-4 -16.5t-1 -15q0 -22 11.5 -34.5t31.5 -12.5q29 0 76 33v-131q-59 -45 -121 -45q-76 0 -114.5 40.5t-38.5 106.5q0 21 5 43.5t11 39.5t20.5 42.5t22.5 38.5t28.5 44.5t28.5 43.5z
" />
    <glyph glyph-name="tilde" unicode="&#x2dc;" 
d="M672 1313h123q0 -124 -43.5 -196.5t-126.5 -72.5q-30 0 -61.5 16.5t-53 37t-47.5 37t-45 16.5q-63 0 -66 -100h-123q0 123 43.5 195.5t126.5 72.5q30 0 62 -16.5t54 -37t47 -37t44 -16.5q30 0 47 26.5t19 74.5z" />
    <glyph glyph-name="hungarumlaut" unicode="&#x2dd;" 
d="M399 1051h-163l122 280h168zM662 1051h-164l123 280h167z" />
    <glyph glyph-name="Wgrave" unicode="&#x1e80;" horiz-adv-x="1587" 
d="M893 1374h-201l-194 240h237zM711 1257h172l237 -925l228 925h204l-323 -1257h-197l-237 899l-242 -899h-195l-323 1257h209l227 -925z" />
    <glyph glyph-name="wgrave" unicode="&#x1e81;" horiz-adv-x="1335" 
d="M764 909l160 -645l176 645h198l-264 -909h-205l-161 633l-162 -633h-205l-264 909h205l176 -645l160 645h186zM770 1051h-182l-187 280h211z" />
    <glyph glyph-name="Wacute" unicode="&#x1e82;" horiz-adv-x="1587" 
d="M893 1374h-201l158 240h237zM711 1257h172l237 -925l228 925h204l-323 -1257h-197l-237 899l-242 -899h-195l-323 1257h209l227 -925z" />
    <glyph glyph-name="wacute" unicode="&#x1e83;" horiz-adv-x="1335" 
d="M748 1051h-183l158 280h211zM764 909l160 -645l176 645h198l-264 -909h-205l-161 633l-162 -633h-205l-264 909h205l176 -645l160 645h186z" />
    <glyph glyph-name="Wdieresis" unicode="&#x1e84;" horiz-adv-x="1587" 
d="M516 1491q0 52 35 86.5t86 34.5q50 0 84.5 -34.5t34.5 -86.5q0 -49 -35 -84t-84 -35q-51 0 -86 34.5t-35 84.5zM831 1491q0 52 34.5 86.5t84.5 34.5t85.5 -34.5t35.5 -86.5q0 -49 -35.5 -84t-85.5 -35t-84.5 35t-34.5 84zM711 1257h172l237 -925l228 925h204l-323 -1257
h-197l-237 899l-242 -899h-195l-323 1257h209l227 -925z" />
    <glyph glyph-name="wdieresis" unicode="&#x1e85;" horiz-adv-x="1335" 
d="M391 1171q0 52 35 86.5t86 34.5q50 0 84.5 -34.5t34.5 -86.5q0 -49 -34.5 -83.5t-84.5 -34.5q-51 0 -86 34t-35 84zM707 1171q0 52 34 86.5t84 34.5t85.5 -34.5t35.5 -86.5q0 -49 -35.5 -83.5t-85.5 -34.5q-49 0 -83.5 34.5t-34.5 83.5zM764 909l160 -645l176 645h198
l-264 -909h-205l-161 633l-162 -633h-205l-264 909h205l176 -645l160 645h186z" />
    <glyph glyph-name="Ygrave" unicode="&#x1ef2;" horiz-adv-x="1183" 
d="M596 694l332 563h225l-457 -755v-502h-211v502l-454 755h231zM700 1374h-200l-195 240h238z" />
    <glyph glyph-name="ygrave" unicode="&#x1ef3;" horiz-adv-x="974" 
d="M459 -348h-199l129 323l-352 934h219l238 -669l233 669h211zM590 1051h-182l-187 280h211z" />
    <glyph glyph-name="endash" unicode="&#x2013;" horiz-adv-x="972" 
d="M82 457v161h809v-161h-809z" />
    <glyph glyph-name="emdash" unicode="&#x2014;" horiz-adv-x="1732" 
d="M82 457v161h1569v-161h-1569z" />
    <glyph glyph-name="quoteleft" unicode="&#x2018;" horiz-adv-x="395" 
d="M356 1257l-141 -221q51 -8 83 -42.5t32 -88.5q0 -59 -40.5 -98t-99.5 -39q-61 0 -100 40.5t-39 113.5q0 74 60 163l112 172h133z" />
    <glyph glyph-name="quoteright" unicode="&#x2019;" horiz-adv-x="395" 
d="M39 788l141 222q-51 8 -82.5 42.5t-31.5 88.5q0 59 40 98t99 39q61 0 100 -40.5t39 -113.5q0 -75 -59 -163l-113 -173h-133z" />
    <glyph glyph-name="quotesinglbase" unicode="&#x201a;" horiz-adv-x="395" 
d="M39 -221l141 221q-51 8 -82.5 42.5t-31.5 88.5q0 59 40 98t99 39q61 0 100 -40t39 -113q0 -76 -59 -164l-113 -172h-133z" />
    <glyph glyph-name="quotedblleft" unicode="&#x201c;" horiz-adv-x="765" 
d="M356 1257l-141 -221q51 -8 83 -42.5t32 -88.5q0 -59 -40.5 -98t-99.5 -39q-61 0 -100 40.5t-39 113.5q0 74 60 163l112 172h133zM727 1257l-141 -221q51 -8 82.5 -42.5t31.5 -88.5q0 -59 -40 -98t-99 -39q-61 0 -100 40.5t-39 113.5q0 75 59 163l113 172h133z" />
    <glyph glyph-name="quotedblright" unicode="&#x201d;" horiz-adv-x="765" 
d="M39 788l141 222q-51 8 -82.5 42.5t-31.5 88.5q0 59 40 98t99 39q61 0 100 -40.5t39 -113.5q0 -75 -59 -163l-113 -173h-133zM410 788l141 222q-51 8 -83 42.5t-32 88.5q0 59 40 98t99 39q61 0 100.5 -40.5t39.5 -113.5q0 -74 -60 -163l-112 -173h-133z" />
    <glyph glyph-name="quotedblbase" unicode="&#x201e;" horiz-adv-x="765" 
d="M39 -221l141 221q-51 8 -82.5 42.5t-31.5 88.5q0 59 40 98t99 39q61 0 100 -40t39 -113q0 -76 -59 -164l-113 -172h-133zM410 -221l141 221q-51 8 -83 42.5t-32 88.5q0 59 40 98t99 39q61 0 100.5 -40.5t39.5 -112.5q0 -75 -60 -164l-112 -172h-133z" />
    <glyph glyph-name="dagger" unicode="&#x2020;" horiz-adv-x="679" 
d="M61 995v148h203v188h152v-188h202v-148h-202v-430h-152v430h-203z" />
    <glyph glyph-name="daggerdbl" unicode="&#x2021;" horiz-adv-x="706" 
d="M72 1028v139h204v164h152v-164h207v-139h-207v-162h207v-137h-207v-164h-152v164h-204v137h204v162h-204z" />
    <glyph glyph-name="bullet" unicode="&#x2022;" horiz-adv-x="720" 
d="M655 537q0 -127 -85 -210t-210 -83t-209.5 82.5t-84.5 210.5q0 129 84.5 211.5t209.5 82.5t210 -82.5t85 -211.5z" />
    <glyph glyph-name="ellipsis" unicode="&#x2026;" horiz-adv-x="1310" 
d="M66 127q0 60 40 100.5t99 40.5t99 -40.5t40 -100.5t-40 -100.5t-99 -40.5t-99 40.5t-40 100.5zM516 127q0 60 40 100.5t99 40.5t99.5 -40.5t40.5 -100.5t-40.5 -100.5t-99.5 -40.5t-99 40.5t-40 100.5zM967 127q0 60 40 100.5t99 40.5t99 -40.5t40 -100.5t-40 -100.5
t-99 -40.5t-99 40.5t-40 100.5z" />
    <glyph glyph-name="perthousand" unicode="&#x2030;" horiz-adv-x="1990" 
d="M219 0l756 1257h162l-756 -1257h-162zM1294 264q0 -119 -82 -201.5t-200 -82.5q-119 0 -202 83t-83 201t83 200.5t202 82.5q118 0 200 -82t82 -201zM61 993q0 119 82.5 202t200.5 83t201.5 -83t83.5 -202q0 -118 -83 -200t-202 -82t-201 82t-82 200zM1141 264
q0 54 -37.5 91.5t-91.5 37.5t-92.5 -37.5t-38.5 -91.5t38.5 -92.5t92.5 -38.5t91.5 38.5t37.5 92.5zM1929 264q0 -119 -82 -201.5t-200 -82.5q-119 0 -202 83t-83 201t83 200.5t202 82.5q118 0 200 -82t82 -201zM1776 264q0 54 -37.5 91.5t-91.5 37.5t-92.5 -37.5
t-38.5 -91.5t38.5 -92.5t92.5 -38.5t91.5 38.5t37.5 92.5zM215 993q0 -54 37.5 -91.5t91.5 -37.5t92.5 37.5t38.5 91.5t-38.5 92.5t-92.5 38.5t-91.5 -38.5t-37.5 -92.5z" />
    <glyph glyph-name="guilsinglleft" unicode="&#x2039;" horiz-adv-x="483" 
d="M432 131h-192l-189 324l189 323h192l-188 -323z" />
    <glyph glyph-name="guilsinglright" unicode="&#x203a;" horiz-adv-x="483" 
d="M244 131h-193l189 324l-189 323h193l188 -323z" />
    <glyph glyph-name="fraction" unicode="&#x2044;" horiz-adv-x="442" 
d="M688 1257l-756 -1257h-178l756 1257h178z" />
    <glyph glyph-name="Euro" unicode="&#x20ac;" horiz-adv-x="1015" 
d="M41 401v158h102q-2 23 -2 70q0 39 2 59h-102v158h129q56 198 203.5 315t343.5 117q133 0 237 -55v-207q-107 76 -235 76q-114 0 -201.5 -66t-132.5 -180h381l-31 -158h-387q-2 -20 -2 -59q0 -47 2 -70h369l-31 -158h-297q45 -110 131.5 -172.5t198.5 -62.5q128 0 235 76
v-207q-104 -55 -237 -55q-194 0 -340.5 113t-204.5 308h-131z" />
    <glyph glyph-name="uni2117" unicode="&#x2117;" horiz-adv-x="1441" 
d="M1370 629q0 -184 -88 -334t-236 -232.5t-325 -82.5t-325 82.5t-236 232.5t-88 334t88 334t236 232.5t325 82.5t325 -82.5t236 -232.5t88 -334zM1274 629q0 157 -75 285t-201.5 199t-276.5 71t-276.5 -71t-201.5 -199t-75 -285t75 -285t201.5 -199t276.5 -71t276.5 71
t201.5 199t75 285zM797 489h-148v-235h-184v756h332q125 0 199.5 -68t74.5 -192t-74.5 -192.5t-199.5 -68.5zM889 750q0 45 -26.5 71.5t-78.5 26.5h-135v-197h135q52 0 78.5 27t26.5 72z" />
    <glyph glyph-name="trademark" unicode="&#x2122;" horiz-adv-x="1185" 
d="M41 1141v116h457v-116h-160v-404h-137v404h-160zM842 850h-13l-129 186v-299h-133v520h125l144 -210l143 210h125v-520h-133v299z" />
    <glyph glyph-name="uni2153" unicode="&#x2153;" horiz-adv-x="1472" 
d="M1221 1257l-899 -1257h-179l899 1257h179zM420 1257v-686h-166v494l-182 -90v168l235 114h113zM915 539v147h449v-4l-137 -268q65 -25 101 -75t36 -118q0 -105 -72.5 -168t-177.5 -63q-122 0 -203 57v158q82 -76 185 -76q53 0 81.5 23t28.5 67q0 54 -49.5 80t-124.5 23v4
l109 213h-226z" />
    <glyph glyph-name="uni2154" unicode="&#x2154;" horiz-adv-x="1607" 
d="M1356 1257l-899 -1257h-178l899 1257h178zM377 727h211v-145h-494v4l199 262q5 6 18 24t17.5 23.5t15.5 20.5t14.5 21t11.5 18.5t11 19.5t8 17.5t7 18.5t3.5 17.5t1.5 18.5q0 36 -25.5 58.5t-68.5 22.5q-84 0 -192 -94v164q91 80 231 80q101 0 160 -55t59 -148
q0 -41 -19 -87.5t-39.5 -78t-60.5 -86.5zM1051 539v147h448v-4l-137 -268q65 -25 101 -75t36 -118q0 -105 -72.5 -168t-177.5 -63q-121 0 -202 57v158q82 -76 184 -76q53 0 81.5 23t28.5 67q0 54 -49.5 80t-124.5 23v4l109 213h-225z" />
    <glyph glyph-name="uni215B" unicode="&#x215b;" horiz-adv-x="1472" 
d="M1221 1257l-899 -1257h-179l899 1257h179zM1110 123q41 0 66.5 22t25.5 60q0 36 -26 58t-66 22t-66 -22t-26 -58q0 -38 25.5 -60t66.5 -22zM1110 422q34 0 57 20.5t23 53.5q0 34 -22.5 54.5t-57.5 20.5t-58.5 -20.5t-23.5 -54.5q0 -33 23.5 -53.5t58.5 -20.5zM1110 -8
q-110 0 -183 53.5t-73 144.5q0 60 32 102t81 58q-42 21 -66 60.5t-24 89.5q0 93 67 145.5t166 52.5q98 0 165.5 -52.5t67.5 -145.5q0 -50 -25 -89.5t-67 -60.5q50 -16 81.5 -58t31.5 -102q0 -91 -72.5 -144.5t-181.5 -53.5zM420 1257v-686h-166v494l-182 -90v168l235 114
h113z" />
    <glyph glyph-name="uni215C" unicode="&#x215c;" horiz-adv-x="1509" 
d="M1147 123q41 0 66.5 22t25.5 60q0 36 -26 58t-66 22t-66 -22t-26 -58q0 -38 25.5 -60t66.5 -22zM1147 422q34 0 57 20.5t23 53.5q0 34 -22.5 54.5t-57.5 20.5t-58.5 -20.5t-23.5 -54.5q0 -33 23.5 -53.5t58.5 -20.5zM1147 -8q-110 0 -183 53.5t-73 144.5q0 60 32 102
t81 58q-42 21 -66.5 60.5t-24.5 89.5q0 93 67.5 145.5t166.5 52.5q98 0 165.5 -52.5t67.5 -145.5q0 -50 -25 -89.5t-67 -60.5q50 -16 81.5 -58t31.5 -102q0 -91 -72.5 -144.5t-181.5 -53.5zM1257 1257l-899 -1257h-178l899 1257h178zM111 1110v147h448v-4l-137 -268
q65 -25 101 -74.5t36 -117.5q0 -105 -72.5 -168.5t-177.5 -63.5q-122 0 -203 57v158q82 -76 185 -76q53 0 81.5 23.5t28.5 67.5q0 54 -49 79.5t-125 22.5v4l109 213h-225z" />
    <glyph glyph-name="uni215D" unicode="&#x215d;" horiz-adv-x="1521" 
d="M1159 123q41 0 66.5 22t25.5 60q0 36 -26 58t-66 22t-66 -22t-26 -58q0 -38 25.5 -60t66.5 -22zM1159 422q34 0 57 20.5t23 53.5q0 34 -22.5 54.5t-57.5 20.5t-58.5 -20.5t-23.5 -54.5q0 -33 23.5 -53.5t58.5 -20.5zM1159 -8q-110 0 -183 53.5t-73 144.5q0 60 32 102
t81 58q-42 21 -66 60.5t-24 89.5q0 93 67 145.5t166 52.5q98 0 166 -52.5t68 -145.5q0 -50 -25.5 -89.5t-67.5 -60.5q50 -16 81.5 -58t31.5 -102q0 -91 -72.5 -144.5t-181.5 -53.5zM1270 1257l-899 -1257h-178l899 1257h178zM319 1020q108 0 178 -62t70 -167
q0 -104 -74 -167t-188 -63q-116 0 -194 55v156q81 -74 180 -74q54 0 87.5 24t33.5 69q0 44 -35 68t-92 24q-79 0 -152 -27v401h397v-147h-266v-96q21 6 55 6z" />
    <glyph glyph-name="uni215E" unicode="&#x215e;" horiz-adv-x="1439" 
d="M1077 123q41 0 66.5 22t25.5 60q0 36 -26 58t-66 22t-66 -22t-26 -58q0 -38 25.5 -60t66.5 -22zM1077 422q34 0 57 20.5t23 53.5q0 34 -22.5 54.5t-57.5 20.5t-58.5 -20.5t-23.5 -54.5q0 -33 23.5 -53.5t58.5 -20.5zM1077 -8q-110 0 -183 53.5t-73 144.5q0 60 32 102
t81 58q-42 21 -66 60.5t-24 89.5q0 93 67 145.5t166 52.5q98 0 166 -52.5t68 -145.5q0 -50 -25 -89.5t-67 -60.5q50 -16 81 -57.5t31 -102.5q0 -91 -72.5 -144.5t-181.5 -53.5zM1188 1257l-899 -1257h-178l899 1257h178zM612 1253l-311 -682h-176l248 539h-279v147h518v-4z
" />
    <glyph glyph-name="minus" unicode="&#x2212;" horiz-adv-x="1155" 
d="M152 530v164h852v-164h-852z" />
    <glyph glyph-name="approxequal" unicode="&#x2248;" horiz-adv-x="1183" 
d="M168 639v156q116 75 229 75q71 0 192 -36.5t193 -36.5q116 0 236 77v-155q-122 -78 -236 -78q-72 0 -193 38t-192 38q-113 0 -229 -78zM168 356v154q116 78 229 78q71 0 192 -38t193 -38q118 0 236 78v-156q-119 -76 -236 -76q-72 0 -193 37t-192 37q-111 0 -229 -76z
" />
    <glyph glyph-name="notequal" unicode="&#x2260;" horiz-adv-x="1183" 
d="M168 690v150h506l137 196h147l-137 -196h197v-150h-299l-109 -155h408v-150h-510l-135 -195h-148l135 195h-192v150h295l108 155h-403z" />
    <glyph glyph-name="lessequal" unicode="&#x2264;" horiz-adv-x="927" 
d="M139 629v207l649 258v-181l-481 -180l481 -182v-178zM139 150v161h649v-161h-649z" />
    <glyph glyph-name="greaterequal" unicode="&#x2265;" horiz-adv-x="927" 
d="M788 836v-207l-649 -256v178l479 182l-479 180v181zM788 311v-161h-649v161h649z" />
    <glyph glyph-name="fi" unicode="&#xfb01;" horiz-adv-x="1107" 
d="M981 909v-909h-205v909h205zM1006 1184q0 -52 -37.5 -88.5t-89.5 -36.5t-89.5 36.5t-37.5 88.5t37.5 88.5t89.5 36.5t89.5 -36.5t37.5 -88.5zM629 1327v-180q-45 29 -101 29q-62 0 -97.5 -36.5t-35.5 -103.5v-127h199v-170h-199v-739h-200v739h-158v170h158v142
q0 142 83.5 221.5t215.5 79.5q77 0 135 -25z" />
    <glyph glyph-name="fl" unicode="&#xfb02;" horiz-adv-x="1107" 
d="M981 1331v-1331h-205v1331h205zM629 1327v-180q-45 29 -101 29q-62 0 -97.5 -36.5t-35.5 -103.5v-127h199v-170h-199v-739h-200v739h-158v170h158v142q0 142 83.5 221.5t215.5 79.5q77 0 135 -25z" />
    <glyph glyph-name="i.dot" horiz-adv-x="458" 
d="M332 909v-909h-205v909h205zM356 1184q0 -52 -37.5 -88.5t-89.5 -36.5t-89.5 36.5t-37.5 88.5t37.5 88.5t89.5 36.5t89.5 -36.5t37.5 -88.5z" />
    <glyph glyph-name="space_uni0326" 
d="M403 -444l86 122q-45 6 -74.5 37t-29.5 76q0 52 37 85.5t92 33.5q54 0 89.5 -35t35.5 -92q0 -60 -57 -145l-56 -82h-123z" />
    <glyph glyph-name="space_uni0326.alt" 
d="M625 1425l-88 -127q47 -6 76.5 -37.5t29.5 -78.5q0 -53 -38.5 -88t-94.5 -35q-55 0 -92 36t-37 95q0 65 59 151l58 84h127z" />
    <glyph glyph-name="space_dotbelowcomb" 
d="M639 -215q0 -52 -37.5 -88.5t-89.5 -36.5t-89.5 36.5t-37.5 88.5t37.5 88.5t89.5 36.5t89.5 -36.5t37.5 -88.5z" />
    <glyph glyph-name="caron.Slovak" 
d="M541 989h-160l70 342h159z" />
    <glyph glyph-name="cedilla.alt" 
d="M528 -389h-190l145 280h203z" />
    <glyph glyph-name="grave.cap" 
d="M709 1374h-201l-195 240h238z" />
    <glyph glyph-name="acute.cap" 
d="M514 1374h-201l158 240h238z" />
    <glyph glyph-name="circumflex.cap" 
d="M606 1628l193 -254h-183l-104 123l-104 -123h-183l193 254h188z" />
    <glyph glyph-name="caron.cap" 
d="M418 1374l-193 254h183l104 -123l104 123h183l-193 -254h-188z" />
    <glyph glyph-name="tilde.cap" 
d="M682 1632h123q0 -123 -43.5 -195.5t-126.5 -72.5q-41 0 -82.5 24.5t-78 49t-66.5 24.5q-63 0 -66 -92h-123q0 123 43.5 195.5t126.5 72.5q41 0 82.5 -24.5t78 -49t66.5 -24.5q63 0 66 92z" />
    <glyph glyph-name="macron.cap" 
d="M281 1374v162h460v-162h-460z" />
    <glyph glyph-name="breve.cap" 
d="M510 1366q-120 0 -190 66.5t-70 187.5h149q0 -52 29.5 -78t81.5 -26q53 0 83 26t30 78h149q0 -121 -70 -187.5t-192 -66.5z" />
    <glyph glyph-name="dotaccent.cap" 
d="M639 1491q0 -52 -37.5 -88.5t-89.5 -36.5t-89.5 36.5t-37.5 88.5t37.5 88.5t89.5 36.5t89.5 -36.5t37.5 -88.5z" />
    <glyph glyph-name="dieresis.cap" 
d="M233 1491q0 52 35 86.5t86 34.5q50 0 84.5 -34.5t34.5 -86.5q0 -49 -34.5 -84t-84.5 -35q-51 0 -86 34.5t-35 84.5zM549 1491q0 52 34.5 86.5t84.5 34.5t85 -34.5t35 -86.5q0 -49 -35 -84t-85 -35t-84.5 35t-34.5 84z" />
    <glyph glyph-name="ring.cap" 
d="M702 1516q0 -79 -55 -133t-135 -54t-135 54t-55 133t55 132.5t135 53.5t135 -53.5t55 -132.5zM598 1516q0 36 -25 61t-61 25t-61 -25t-25 -61t25 -61t61 -25t61 25t25 61z" />
    <glyph glyph-name="hungarumlaut.cap" 
d="M397 1374h-170l123 240h174zM670 1374h-170l123 240h174z" />
    <glyph glyph-name="exclamdown.cap" horiz-adv-x="409" 
d="M66 1130q0 60 40 101t99 41t99 -41t40 -101t-40 -100.5t-99 -40.5t-99 40.5t-40 100.5zM82 0l51 862h143l52 -862h-246z" />
    <glyph glyph-name="questiondown.cap" horiz-adv-x="847" 
d="M412 598q-14 -15 -43 -44.5t-45.5 -48.5t-36 -46t-28.5 -55.5t-9 -59.5q0 -82 48.5 -125t143.5 -43q191 0 365 174v-217q-66 -69 -166.5 -111t-210.5 -42q-178 0 -283.5 96.5t-105.5 265.5q0 52 15.5 100t48 92.5t59 75t70.5 74.5q6 5 9.5 8.5t6.5 7.5q86 88 86 162h201
q-4 -83 -30 -136t-95 -128zM584 1130q0 -60 -40.5 -100.5t-99.5 -40.5t-99 40.5t-40 100.5t40 101t99 41t99.5 -41t40.5 -101z" />
    <glyph glyph-name="guilsinglleft.cap" horiz-adv-x="483" 
d="M432 295h-192l-189 323l189 324h192l-188 -324z" />
    <glyph glyph-name="guilsinglright.cap" horiz-adv-x="483" 
d="M244 295h-193l189 323l-189 324h193l188 -324z" />
    <glyph glyph-name="guillemotleft.cap" horiz-adv-x="813" 
d="M424 295h-184l-189 323l189 324h184l-188 -324zM762 295h-184l-189 323l189 324h184l-189 -324z" />
    <glyph glyph-name="guillemotright.cap" horiz-adv-x="813" 
d="M573 295h-184l189 323l-189 324h184l189 -324zM236 295h-185l189 323l-189 324h185l188 -324z" />
    <glyph glyph-name="slash.cap" horiz-adv-x="731" 
d="M10 -131l508 1503h203l-508 -1503h-203z" />
    <glyph glyph-name="backslash.cap" horiz-adv-x="731" 
d="M213 1372l508 -1503h-203l-508 1503h203z" />
    <glyph glyph-name="bar.cap" horiz-adv-x="475" 
d="M139 -131v1503h197v-1503h-197z" />
    <glyph glyph-name="periodcentered.cap" horiz-adv-x="409" 
d="M66 621q0 60 40 100.5t99 40.5t99 -40.5t40 -100.5t-40 -101t-99 -41t-99 41t-40 101z" />
    <glyph glyph-name="bullet.cap" horiz-adv-x="720" 
d="M655 618q0 -127 -85 -209.5t-210 -82.5t-209.5 82.5t-84.5 209.5q0 129 84.5 212t209.5 83t210 -83t85 -212z" />
    <glyph glyph-name="hyphen.cap" horiz-adv-x="657" 
d="M82 526v187h493v-187h-493z" />
    <glyph glyph-name="endash.cap" horiz-adv-x="972" 
d="M82 539v161h809v-161h-809z" />
    <glyph glyph-name="emdash.cap" horiz-adv-x="1732" 
d="M82 539v161h1569v-161h-1569z" />
    <glyph glyph-name="parenleft.cap" horiz-adv-x="651" 
d="M61 621q0 281 148 483t401 268v-221q-153 -38 -249.5 -180.5t-96.5 -349.5q0 -208 96.5 -350.5t249.5 -180.5v-221q-252 66 -400.5 268.5t-148.5 483.5z" />
    <glyph glyph-name="parenright.cap" horiz-adv-x="651" 
d="M590 621q0 -281 -148.5 -483.5t-400.5 -268.5v221q153 38 249.5 180.5t96.5 350.5q0 207 -96.5 349.5t-249.5 180.5v221q253 -66 401 -268t148 -483z" />
    <glyph glyph-name="bracketleft.cap" horiz-adv-x="645" 
d="M332 1188v-1135h272v-184h-465v1503h465v-184h-272z" />
    <glyph glyph-name="bracketright.cap" horiz-adv-x="645" 
d="M313 53v1135h-272v184h465v-1503h-465v184h272z" />
    <glyph glyph-name="braceleft.cap" horiz-adv-x="704" 
d="M403 451v-338q0 -60 60 -60h201v-184h-197q-117 0 -190.5 74t-73.5 192v332q0 59 -60 59h-102v189h102q60 0 60 59v332q0 118 73.5 192t190.5 74h197v-184h-201q-60 0 -60 -60v-337q0 -110 -96 -170q96 -60 96 -170z" />
    <glyph glyph-name="braceright.cap" horiz-adv-x="704" 
d="M301 113v338q0 110 96 170q-96 60 -96 170v337q0 60 -59 60h-201v184h197q117 0 190.5 -74t73.5 -192v-332q0 -59 59 -59h103v-189h-103q-59 0 -59 -59v-332q0 -118 -73.5 -192t-190.5 -74h-197v184h201q59 0 59 60z" />
    <glyph glyph-name="at.cap" horiz-adv-x="1585" 
d="M1167 971l-82 -473q-9 -55 6 -79t62 -24q96 0 156.5 96.5t60.5 258.5q0 212 -148 336t-380 124q-276 0 -448.5 -175.5t-172.5 -456.5q0 -125 38.5 -224t100 -160.5t145 -102.5t167 -57t172.5 -16q235 0 459 99v-148q-83 -41 -205 -68.5t-254 -27.5q-123 0 -236 25.5
t-214 81t-175.5 136.5t-118 199.5t-43.5 262.5q0 160 57.5 303t158.5 248.5t249 167t320 61.5q150 0 278.5 -46.5t217.5 -127.5t139.5 -193t50.5 -241q0 -122 -34.5 -218.5t-92.5 -155.5t-129.5 -89.5t-151.5 -30.5q-72 0 -131 29.5t-90 81.5q-27 -50 -83.5 -80.5
t-113.5 -30.5q-124 0 -200 87t-76 218q0 113 48 211.5t135.5 158.5t193.5 60q59 0 105.5 -22t68.5 -54l12 56h178zM903 516l43 227q-12 37 -47.5 60.5t-83.5 23.5q-89 0 -145 -76.5t-56 -179.5q0 -66 35.5 -107.5t98.5 -41.5q92 0 155 94z" />
    <glyph glyph-name="Euro.lt" horiz-adv-x="1064" 
d="M76 401v158h102q-2 23 -2 70q0 39 2 59h-102v158h129q56 198 203.5 315t343.5 117q133 0 237 -55v-207q-107 76 -235 76q-114 0 -201.5 -66t-132.5 -180h381l-31 -158h-387q-2 -20 -2 -59q0 -47 2 -70h369l-31 -158h-297q45 -110 131.5 -172.5t198.5 -62.5q128 0 235 76
v-207q-104 -55 -237 -55q-194 0 -340.5 113t-204.5 308h-131z" />
    <glyph glyph-name="dollar.lt" horiz-adv-x="1064" 
d="M440 -188v198q-185 17 -309 105v215q173 -140 381 -140q107 0 170 38.5t63 115.5q0 66 -39 102t-128 72l-175 62q-66 24 -113.5 51.5t-87.5 67t-60.5 95.5t-20.5 128q0 133 88 216.5t231 104.5v189h185v-189q138 -17 256 -92v-211q-170 129 -351 129q-95 0 -153 -36
t-58 -107q0 -62 37 -95.5t119 -62.5l195 -72q140 -51 206 -134.5t66 -213.5q0 -134 -86.5 -220t-230.5 -112v-204h-185z" />
    <glyph glyph-name="cent.lt" horiz-adv-x="1064" 
d="M512 -182v194q-152 35 -247 158.5t-95 304.5t95 303.5t247 157.5v184h184v-176q102 -13 174 -70v-200q-94 94 -233 94q-112 0 -187 -80.5t-75 -212.5t75 -212.5t187 -80.5q139 0 233 94v-200q-65 -55 -174 -72v-186h-184z" />
    <glyph glyph-name="sterling.lt" horiz-adv-x="1064" 
d="M127 537v165h158v138q0 198 120.5 318t315.5 120q137 0 223 -59v-185q-99 64 -223 64q-108 0 -174 -72t-66 -201v-123h289v-165h-289v-181q0 -129 -43 -186h537v-170h-848v170h117q41 71 41 186v181h-158z" />
    <glyph glyph-name="yen.lt" horiz-adv-x="1064" 
d="M104 543v157h234l-305 557h225l279 -538l276 538h219l-309 -557h235v-157h-321v-129h321v-158h-321v-256h-211v256h-322v158h322v129h-322z" />
    <glyph glyph-name="florin.lt" horiz-adv-x="1064" 
d="M283 547v172h178l45 258q26 146 117.5 223.5t234.5 77.5q68 0 131 -25v-180q-56 29 -127 29q-62 0 -103.5 -36t-53.5 -103l-43 -244h184v-172h-215l-109 -615q-27 -152 -100.5 -226.5t-216.5 -74.5q-76 0 -131 25v180q56 -29 127 -29q59 0 84.5 33t38.5 107l106 600h-147
z" />
    <glyph glyph-name="zero.lt" horiz-adv-x="1064" 
d="M532 -20q-213 0 -344 180.5t-131 468.5t131 468.5t344 180.5t344.5 -180.5t131.5 -468.5t-131.5 -468.5t-344.5 -180.5zM532 1085q-134 0 -201 -124t-67 -332t67 -332.5t201 -124.5q89 0 150 60t89 161t28 236t-28 235.5t-89 160.5t-150 60z" />
    <glyph glyph-name="one.lt" horiz-adv-x="1064" 
d="M137 0v186h334v815l-334 -170v216l416 210h125v-1071h301v-186h-842z" />
    <glyph glyph-name="two.lt" horiz-adv-x="1064" 
d="M444 186h480v-186h-850v8l364 469q44 55 60.5 76.5t51 67.5t48 72.5t32.5 65t25.5 72.5t6.5 70q0 84 -52 135t-149 51q-185 0 -359 -174v211q66 69 166.5 111.5t210.5 42.5q178 0 283.5 -99.5t105.5 -269.5q0 -61 -18.5 -123t-58 -129.5t-75 -118t-95.5 -128.5z" />
    <glyph glyph-name="three.lt" horiz-adv-x="1064" 
d="M141 1069v188h783v-6l-293 -501q137 -30 220 -127.5t83 -235.5q0 -183 -129.5 -296.5t-312.5 -113.5q-216 0 -363 107v217q71 -66 161.5 -102.5t186.5 -36.5q121 0 192.5 56t71.5 167q0 118 -106.5 180t-274.5 62v6l252 436h-471z" />
    <glyph glyph-name="four.lt" horiz-adv-x="1064" 
d="M705 1257l-373 -819h303v295h196v-295h187v-176h-187v-262h-196v262h-590v8l451 987h209z" />
    <glyph glyph-name="five.lt" horiz-adv-x="1064" 
d="M475 805q204 0 336.5 -109.5t132.5 -302.5q0 -129 -64 -223.5t-171.5 -142t-243.5 -47.5q-192 0 -330 100v223q145 -139 320 -139q125 0 209 60t84 169q0 108 -84.5 170t-210.5 62q-78 0 -137.5 -13.5t-139.5 -44.5v690h703v-188h-531v-281q56 17 127 17z" />
    <glyph glyph-name="six.lt" horiz-adv-x="1064" 
d="M532 -20q-189 0 -311.5 123.5t-122.5 310.5q0 171 129 393l260 450h220l-248 -430q34 17 90 17q184 0 301 -122.5t117 -307.5q0 -187 -122.5 -310.5t-312.5 -123.5zM774 414q0 106 -68 178t-174 72q-105 0 -173 -72t-68 -178q0 -107 68 -178.5t173 -71.5q106 0 174 71.5
t68 178.5z" />
    <glyph glyph-name="seven.lt" horiz-adv-x="1064" 
d="M1014 1251l-572 -1251h-213l490 1069h-619v188h914v-6z" />
    <glyph glyph-name="eight.lt" horiz-adv-x="1064" 
d="M537 152q103 0 170 56t67 150q0 96 -67 151.5t-170 55.5q-102 0 -169 -56t-67 -151q0 -94 67.5 -150t168.5 -56zM537 743q82 0 141 49t59 132q0 85 -58.5 134.5t-141.5 49.5q-81 0 -140 -49.5t-59 -134.5q0 -83 59 -132t140 -49zM537 -20q-123 0 -222 42.5t-158 126
t-59 193.5q0 120 67.5 202t166.5 107q-85 33 -140 107.5t-55 175.5q0 159 116 251.5t284 92.5q109 0 199 -39t146 -118.5t56 -186.5q0 -101 -55 -175.5t-140 -107.5q99 -25 166.5 -107t67.5 -202q0 -166 -125 -264t-315 -98z" />
    <glyph glyph-name="nine.lt" horiz-adv-x="1064" 
d="M532 1278q190 0 312.5 -123.5t122.5 -310.5q0 -171 -129 -393l-260 -451h-220l248 430q-32 -16 -90 -16q-184 0 -301 122.5t-117 307.5q0 187 122.5 310.5t311.5 123.5zM291 844q0 -106 67.5 -178t173.5 -72q105 0 173.5 72.5t68.5 177.5q0 107 -68.5 178.5t-173.5 71.5
q-106 0 -173.5 -71.5t-67.5 -178.5z" />
    <glyph glyph-name="period.tab" horiz-adv-x="532" 
d="M127 127q0 60 40 100.5t99 40.5t99.5 -40.5t40.5 -100.5t-40.5 -100.5t-99.5 -40.5t-99 40.5t-40 100.5z" />
    <glyph glyph-name="comma.tab" horiz-adv-x="532" 
d="M94 -231l148 227q-51 8 -83 42.5t-32 88.5q0 59 40 98t99 39q61 0 100.5 -40.5t39.5 -112.5q0 -75 -60 -164l-119 -178h-133z" />
    <glyph glyph-name="colon.tab" horiz-adv-x="532" 
d="M127 127q0 60 40 100.5t99 40.5t99.5 -40.5t40.5 -100.5t-40.5 -100.5t-99.5 -40.5t-99 40.5t-40 100.5zM127 741q0 60 40 101t99 41t99.5 -41t40.5 -101t-40.5 -100.5t-99.5 -40.5t-99 40.5t-40 100.5z" />
    <glyph glyph-name="semicolon.tab" horiz-adv-x="532" 
d="M94 -231l148 227q-51 8 -83 42.5t-32 88.5q0 59 40 98t99 39q61 0 100.5 -40.5t39.5 -112.5q0 -75 -60 -164l-119 -178h-133zM127 741q0 60 40 101t99 41t99.5 -41t40.5 -101t-40.5 -100.5t-99.5 -40.5t-99 40.5t-40 100.5z" />
    <glyph glyph-name="space.tab" horiz-adv-x="532" 
 />
    <glyph glyph-name="percent.lt" horiz-adv-x="1064" 
d="M41 1028q0 104 72.5 177t175.5 73q104 0 177 -73t73 -177q0 -103 -73 -175.5t-177 -72.5q-103 0 -175.5 72.5t-72.5 175.5zM176 1028q0 -47 33 -80t80 -33t80.5 33t33.5 80t-33.5 81t-80.5 34t-80 -34t-33 -81zM1024 229q0 -104 -72.5 -176.5t-175.5 -72.5
q-104 0 -177 72.5t-73 176.5q0 103 73 175.5t177 72.5q103 0 175.5 -72.5t72.5 -175.5zM889 229q0 47 -33 80t-80 33t-80.5 -33t-33.5 -80t33.5 -80.5t80.5 -33.5t80 33.5t33 80.5zM74 0l755 1257h162l-755 -1257h-162z" />
    <glyph glyph-name="perthousand.lt" horiz-adv-x="1638" 
d="M53 1028q0 104 72.5 177t175.5 73q104 0 177 -73t73 -177q0 -103 -73 -175.5t-177 -72.5q-103 0 -175.5 72.5t-72.5 175.5zM188 1028q0 -47 33 -80t80 -33t81 33t34 80t-34 81t-81 34t-80 -34t-33 -81zM1036 229q0 -104 -72.5 -176.5t-175.5 -72.5q-104 0 -176.5 72.5
t-72.5 176.5q0 103 72.5 175.5t176.5 72.5q103 0 175.5 -72.5t72.5 -175.5zM901 229q0 47 -33 80t-80 33t-80.5 -33t-33.5 -80t33.5 -80.5t80.5 -33.5t80 33.5t33 80.5zM86 0l756 1257h162l-756 -1257h-162zM1583 229q0 -104 -72.5 -176.5t-175.5 -72.5q-104 0 -177 72.5
t-73 176.5q0 103 73 175.5t177 72.5q103 0 175.5 -72.5t72.5 -175.5zM1448 229q0 47 -33 80t-80 33t-80.5 -33t-33.5 -80t33.5 -80.5t80.5 -33.5t80 33.5t33 80.5z" />
    <glyph glyph-name="plus.lt" horiz-adv-x="1064" 
d="M451 1038h163v-344h344v-164h-344v-342h-163v342h-345v164h345v344z" />
    <glyph glyph-name="minus.lt" horiz-adv-x="1064" 
d="M106 530v164h852v-164h-852z" />
    <glyph glyph-name="multiply.lt" horiz-adv-x="1064" 
d="M422 608l-252 248l113 113l247 -250l250 250l113 -113l-250 -248l250 -248l-113 -114l-250 250l-247 -250l-113 114z" />
    <glyph glyph-name="divide.lt" horiz-adv-x="1064" 
d="M106 530v164h852v-164h-852zM403 956q0 54 37.5 92.5t91.5 38.5t93 -38.5t39 -92.5t-39 -91.5t-93 -37.5t-91.5 37.5t-37.5 91.5zM403 268q0 54 37.5 91.5t91.5 37.5t93 -37.5t39 -91.5t-39 -92.5t-93 -38.5t-91.5 38.5t-37.5 92.5z" />
    <glyph glyph-name="equal.lt" horiz-adv-x="1064" 
d="M106 385v152h850v-152h-850zM106 688v156h850v-156h-850z" />
    <glyph glyph-name="less.lt" horiz-adv-x="1064" 
d="M209 500v219l647 311v-188l-498 -234l498 -231v-191z" />
    <glyph glyph-name="greater.lt" horiz-adv-x="1064" 
d="M856 719v-219l-649 -314v191l498 231l-498 234v188z" />
    <glyph glyph-name="plusminus.lt" horiz-adv-x="1064" 
d="M451 1104h161v-270h336v-162h-336v-271h-161v271h-336v162h336v270zM115 150v161h833v-161h-833z" />
    <glyph glyph-name="lessequal.lt" horiz-adv-x="1064" 
d="M207 629v207l649 258v-181l-481 -180l481 -182v-178zM207 150v161h649v-161h-649z" />
    <glyph glyph-name="greaterequal.lt" horiz-adv-x="1064" 
d="M856 836v-207l-649 -256v178l479 182l-479 180v181zM856 311v-161h-649v161h649z" />
    <glyph glyph-name="notequal.lt" horiz-adv-x="1064" 
d="M106 690v150h506l138 196h147l-137 -196h196v-150h-299l-108 -155h407v-150h-510l-135 -195h-147l135 195h-193v150h295l109 155h-404z" />
    <glyph glyph-name="approxequal.lt" horiz-adv-x="1064" 
d="M106 639v156q116 75 230 75q72 0 193 -36.5t192 -36.5q115 0 235 77v-155q-122 -78 -235 -78q-71 0 -192 38t-193 38q-114 0 -230 -78zM106 356v154q116 78 230 78q72 0 193 -38t192 -38q117 0 235 78v-156q-119 -76 -235 -76q-71 0 -192.5 37t-192.5 37q-112 0 -230 -76
z" />
    </font>
</defs>
</svg>
