<?xml version="1.0" encoding="utf-8"?>
<!-- Generator: Adobe Illustrator 25.0.1, SVG Export Plug-In . SVG Version: 6.00 Build 0)  -->
<svg version="1.1" xmlns="http://www.w3.org/2000/svg" xmlns:xlink="http://www.w3.org/1999/xlink" x="0px" y="0px"
	 viewBox="0 0 14 14" style="enable-background:new 0 0 14 14;" xml:space="preserve">
<style type="text/css">
	.st0{fill-rule:evenodd;clip-rule:evenodd;fill:#FFFFFF;}
	.st1{fill-rule:evenodd;clip-rule:evenodd;fill:#131721;}
</style>
<g id="Capa_2">
	<ellipse class="st0" cx="6.7" cy="7" rx="4.7" ry="5.1"/>
</g>
<g id="Capa_1">
	<path class="st1" d="M6.6,13c-3.3,0-6-2.7-6-6s2.7-6,6-6s6,2.7,6,6S9.9,13,6.6,13z M7.6,8h2c0.6,0,1-0.4,1-1s-0.4-1-1-1h-2V4
		c0-0.6-0.4-1-1-1s-1,0.4-1,1v2h-2c-0.6,0-1,0.4-1,1s0.4,1,1,1h2v2c0,0.6,0.4,1,1,1s1-0.4,1-1V8z"/>
</g>
</svg>
