<svg id="Layer_1" data-name="Layer 1" xmlns="http://www.w3.org/2000/svg" viewBox="0 0 92.85 97.89"><defs><style>.cls-1,.cls-2{fill:none;stroke:#fff;stroke-linecap:round;stroke-linejoin:round;}.cls-1{stroke-width:5px;}.cls-2{stroke-width:5px;}</style></defs><path class="cls-1" d="M61.22,69.25l10.55,9.56-20.87,23a10.84,10.84,0,0,1-8.47,3.56l-20.6-.79L19.54,84.65a10.83,10.83,0,0,1,2.75-8.54L43.25,53,53.8,62.58" transform="translate(-16.97 -9.99)"/><rect class="cls-2" x="35.58" y="51.19" width="61.48" height="10.01" transform="translate(-36.83 57.57) rotate(-47.79)"/><path class="cls-1" d="M104.45,31.84,106,30.09a5,5,0,0,0-.34-7L95.47,13.78a5,5,0,0,0-7,.34l-1.59,1.76" transform="translate(-16.97 -9.99)"/><polyline class="cls-1" points="69.86 5.89 66.28 20.07 73.7 26.8 87.47 21.86"/><line class="cls-1" x1="85.92" y1="22.31" x2="69.56" y2="7.47"/></svg>