<svg width="19" height="12" viewBox="0 0 19 12" fill="none" xmlns="http://www.w3.org/2000/svg">
<path d="M6.90164 9.3897H11.3607C11.6448 9.38994 11.9181 9.47285 12.1247 9.6215C12.3313 9.77015 12.4556 9.97331 12.4723 10.1895C12.4889 10.4056 12.3966 10.6185 12.2143 10.7845C12.0319 10.9506 11.7732 11.0573 11.4911 11.0829L11.3607 11.0888H6.90164C6.61752 11.0886 6.34423 11.0057 6.13763 10.857C5.93102 10.7084 5.80669 10.5052 5.79004 10.2891C5.77339 10.0729 5.86567 9.86004 6.04804 9.69399C6.2304 9.52794 6.48908 9.42122 6.77122 9.39565L6.90164 9.3897H11.3607H6.90164ZM4.67214 5.14187H13.5902C13.8743 5.14211 14.1476 5.22503 14.3542 5.37367C14.5608 5.52232 14.6851 5.72548 14.7018 5.94165C14.7184 6.15781 14.6261 6.37067 14.4438 6.53672C14.2614 6.70277 14.0027 6.80948 13.7206 6.83506L13.5902 6.841H4.67214C4.38801 6.84076 4.11472 6.75785 3.90812 6.6092C3.70151 6.46055 3.57719 6.25739 3.56053 6.04123C3.54388 5.82506 3.63617 5.61221 3.81853 5.44616C4.00089 5.28011 4.25957 5.17339 4.54171 5.14782L4.67214 5.14187H13.5902H4.67214ZM1.32787 0.894043H16.9344C17.2186 0.894283 17.4918 0.977198 17.6984 1.12585C17.9051 1.27449 18.0294 1.47765 18.046 1.69382C18.0627 1.90998 17.9704 2.12284 17.788 2.28889C17.6057 2.45494 17.347 2.56165 17.0649 2.58723L16.9344 2.59317H1.32787C1.04375 2.59293 0.770461 2.51002 0.563857 2.36137C0.357253 2.21272 0.232924 2.00956 0.216273 1.7934C0.199622 1.57723 0.291905 1.36438 0.474268 1.19833C0.656631 1.03228 0.915308 0.925565 1.19745 0.89999L1.32787 0.894043H16.9344H1.32787Z" fill="#785838"/>
</svg>
