<svg id="Layer_1" data-name="Layer 1" xmlns="http://www.w3.org/2000/svg" viewBox="0 0 100.21 108.04"><defs><style>.cls-1,.cls-2{fill:none;stroke:#fff;stroke-linecap:round;stroke-linejoin:round;}.cls-1{stroke-width:5px;}.cls-2{stroke-width:5px;}</style></defs><rect class="cls-1" x="23.58" y="34.16" width="58.19" height="71.12" rx="6.02" transform="matrix(0.61, -0.79, 0.79, 0.61, -41.38, 62.81)"/><path class="cls-2" d="M89.13,60.71l9.64-12.63c8.58-11.24,7.16-26.73-3.16-34.61h0C85.3,5.59,70,8.31,61.39,19.55L51.76,32.17" transform="translate(-6.67 -6.46)"/><path class="cls-2" d="M81.27,52.16,91,39.39A12.19,12.19,0,0,0,88.84,22.3h0a12.2,12.2,0,0,0-17.06,2.44L62.07,37.5" transform="translate(-6.67 -6.46)"/><circle class="cls-2" cx="48.7" cy="59.71" r="8.55"/><line class="cls-2" x1="43.51" y1="66.51" x2="36.99" y2="75.06"/></svg>