<svg id="Layer_1" data-name="Layer 1" xmlns="http://www.w3.org/2000/svg" viewBox="0 0 94.36 98.84"><defs><style>.cls-1{fill:none;stroke:#fff;stroke-linecap:round;stroke-linejoin:round;stroke-width:5px;}</style></defs><line class="cls-1" x1="70.15" y1="16.86" x2="69.92" y2="10.58"/><path class="cls-1" d="M90.74,34.64,97,34.41l.95,0a6.88,6.88,0,1,0-.32-13.76h-.2l-.94,0" transform="translate(-12.82 -10.58)"/><path class="cls-1" d="M96.5,20.65l0-.94a6.88,6.88,0,1,0-13.76.51l0,.94L83,27.44" transform="translate(-12.82 -10.58)"/><line class="cls-1" x1="84.19" y1="23.83" x2="77.91" y2="24.06"/><path class="cls-1" d="M90.74,34.64l-1.08,1.17-8.17,8.85A5.3,5.3,0,0,1,74,45h0a5.29,5.29,0,0,1-.32-7.47l8.17-8.86,1.08-1.16" transform="translate(-12.82 -10.58)"/><line class="cls-1" x1="24.21" y1="81.98" x2="24.44" y2="88.26"/><path class="cls-1" d="M29.26,85.36,23,85.59l-.95,0a6.88,6.88,0,1,0,.32,13.76h.2l.94,0" transform="translate(-12.82 -10.58)"/><path class="cls-1" d="M23.5,99.35l0,.94a6.88,6.88,0,1,0,13.76-.51l0-.94L37,92.56" transform="translate(-12.82 -10.58)"/><line class="cls-1" x1="10.16" y1="75.01" x2="16.44" y2="74.78"/><polyline class="cls-1" points="18.63 72.41 19.72 71.25 20.93 69.93"/><polyline class="cls-1" points="26.4 79.61 27.48 78.45 28.7 77.14"/><path class="cls-1" d="M89.66,35.81C98,45.71,100,57.76,93.89,64.32,87,71.74,72.24,69.3,61,58.88S46.18,34,53.11,26.51C59.19,20,71.36,21.07,81.86,28.6" transform="translate(-12.82 -10.58)"/><path class="cls-1" d="M93.89,64.32,71.78,88.19A20.22,20.22,0,0,1,43.2,89.27h0L32.09,79A20.22,20.22,0,0,1,31,50.39L53.16,26.51" transform="translate(-12.82 -10.58)"/></svg>