<svg width="57" height="43" viewBox="0 0 57 43" fill="none" xmlns="http://www.w3.org/2000/svg">
<path d="M48.2526 3.56626C44.619 1.91803 40.7241 0.699779 36.6511 0.00704716C36.6148 4.31924e-05 36.5773 0.0045568 36.5436 0.0199638C36.51 0.0353709 36.482 0.0609091 36.4635 0.0930415C35.9647 0.974484 35.409 2.12346 35.0195 3.03118C30.6997 2.38201 26.308 2.38201 21.9883 3.03118C21.5544 2.02519 21.0652 1.04429 20.5229 0.0930415C20.5045 0.0605135 20.4767 0.0343976 20.4432 0.018179C20.4097 0.00196035 20.372 -0.00358982 20.3353 0.00226947C16.2647 0.695002 12.3698 1.91326 8.73376 3.56387C8.70248 3.57707 8.67596 3.59957 8.65777 3.62837C1.26698 14.5568 -0.758837 25.2153 0.23626 35.7401C0.239029 35.7659 0.246984 35.7908 0.259641 35.8134C0.272298 35.836 0.289392 35.8557 0.309882 35.8715C4.62369 39.0304 9.43517 41.4368 14.5428 42.9899C14.5785 43.0009 14.6165 43.0009 14.6521 42.9898C14.6877 42.9787 14.7192 42.9571 14.7423 42.9278C15.8414 41.4493 16.8154 39.8808 17.654 38.2387C17.6656 38.2163 17.6724 38.1915 17.6737 38.1663C17.675 38.141 17.6709 38.1157 17.6617 38.0921C17.6524 38.0686 17.6383 38.0473 17.6202 38.0297C17.602 38.0121 17.5804 37.9987 17.5566 37.9903C16.0224 37.4092 14.5359 36.7079 13.1108 35.893C13.0852 35.8783 13.0636 35.8574 13.048 35.8322C13.0323 35.8071 13.0232 35.7784 13.0213 35.7488C13.0194 35.7192 13.0249 35.6896 13.0372 35.6627C13.0495 35.6357 13.0682 35.6122 13.0918 35.5944C13.391 35.3722 13.6902 35.1405 13.9752 34.9088C14.0009 34.888 14.0318 34.8747 14.0645 34.8705C14.0972 34.8663 14.1304 34.8713 14.1605 34.8849C23.4868 39.0986 33.5874 39.0986 42.8045 34.8849C42.8347 34.8705 42.8682 34.8648 42.9014 34.8686C42.9346 34.8724 42.966 34.8855 42.9921 34.9064C43.2771 35.1405 43.574 35.3722 43.8756 35.5944C43.8994 35.6119 43.9185 35.635 43.9311 35.6617C43.9438 35.6885 43.9497 35.7179 43.9483 35.7475C43.9469 35.7771 43.9382 35.8059 43.9231 35.8313C43.9079 35.8566 43.8867 35.8778 43.8614 35.893C42.4412 36.7147 40.964 37.4098 39.4131 37.9879C39.3893 37.9966 39.3676 38.0103 39.3495 38.0281C39.3313 38.0459 39.3172 38.0674 39.308 38.0911C39.2988 38.1149 39.2947 38.1403 39.296 38.1658C39.2974 38.1912 39.3041 38.2161 39.3158 38.2387C40.1707 39.8798 41.1492 41.442 42.225 42.9254C42.2474 42.9558 42.2786 42.9786 42.3143 42.9906C42.35 43.0025 42.3885 43.0031 42.4245 42.9923C47.541 41.4435 52.3603 39.036 56.6789 35.8715C56.6999 35.8567 56.7176 35.8375 56.7307 35.8152C56.7438 35.793 56.7521 35.7682 56.7549 35.7425C57.9423 23.5743 54.7647 13.0017 48.3262 3.63314C48.3105 3.6027 48.2843 3.57896 48.2526 3.56626ZM19.0481 29.3311C16.2409 29.3311 13.9254 26.7776 13.9254 23.6459C13.9254 20.5119 16.1958 17.9608 19.0481 17.9608C21.9218 17.9608 24.2159 20.5334 24.1708 23.6459C24.1708 26.78 21.9004 29.3311 19.0481 29.3311ZM37.9882 29.3311C35.1786 29.3311 32.8654 26.7776 32.8654 23.6459C32.8654 20.5119 35.1335 17.9608 37.9882 17.9608C40.8618 17.9608 43.156 20.5334 43.1109 23.6459C43.1109 26.78 40.8642 29.3311 37.9882 29.3311Z" fill="url(#paint0_linear_1_1051)"/>
<defs>
<linearGradient id="paint0_linear_1_1051" x1="28.5" y1="0" x2="28.5" y2="43" gradientUnits="userSpaceOnUse">
<stop stop-color="#F8D09E"/>
<stop offset="0.588542" stop-color="#F28903"/>
<stop offset="1" stop-color="#F28903"/>
</linearGradient>
</defs>
</svg>
