<svg width="49" height="41" viewBox="0 0 49 41" fill="none" xmlns="http://www.w3.org/2000/svg">
<path d="M48.1479 7.98373C48.1706 7.94667 48.1786 7.90242 48.1702 7.85975C48.1619 7.81707 48.1378 7.7791 48.1027 7.75336C48.0933 7.74386 48.0838 7.73436 48.0743 7.72961L48.06 7.72486L33.7316 0.557107C33.514 0.456626 33.2778 0.40244 33.0381 0.397983C32.7615 0.396221 32.489 0.464296 32.2457 0.595902C32.0024 0.727509 31.7963 0.918388 31.6464 1.15086L23.3956 14.5601L33.7482 31.3822L48.1479 7.98373ZM45.6209 40.1484C47.072 40.8751 48.25 40.3669 48.25 39.0131V12.1471L34.4536 34.5647L45.6209 40.1484ZM18.8522 11.5059V26.7676L32.4159 33.5482L18.8522 11.5059ZM2.06575 34.2061L14.392 40.3692C14.6661 40.5144 14.9702 40.5941 15.2803 40.602C16.0474 40.602 16.5841 40.0082 16.5841 39.0131V7.91486C16.5842 7.88618 16.5765 7.85802 16.5619 7.83335C16.5472 7.80868 16.5262 7.78843 16.501 7.77473L2.50513 0.780358C2.28561 0.662853 2.04155 0.598583 1.79262 0.592733C1.17987 0.592733 0.75 1.06536 0.75 1.86098V32.0781C0.75 32.888 1.34375 33.8451 2.06575 34.2061Z" fill="url(#paint0_linear_1_1169)"/>
<defs>
<linearGradient id="paint0_linear_1_1169" x1="24.5" y1="0.397949" x2="24.5" y2="40.602" gradientUnits="userSpaceOnUse">
<stop stop-color="#F8D09E"/>
<stop offset="0.588542" stop-color="#F28903"/>
<stop offset="1" stop-color="#F28903"/>
</linearGradient>
</defs>
</svg>
