<svg width="56" height="46" viewBox="0 0 56 46" fill="none" xmlns="http://www.w3.org/2000/svg">
<path d="M56 5.38838C54.4406 7.70795 52.5274 9.68528 50.2604 11.3204C50.2828 11.7589 50.294 12.2545 50.294 12.8073C50.294 15.8785 49.8462 18.9535 48.9507 22.0322C48.0552 25.1109 46.6872 28.0577 44.8469 30.8727C43.0065 33.6878 40.8143 36.1816 38.2703 38.3543C35.7262 40.527 32.6681 42.2594 29.0961 43.5515C25.524 44.8436 21.6957 45.4896 17.6111 45.4896C11.2365 45.4896 5.36616 43.7687 0 40.3269C0.95243 40.4329 1.86589 40.4859 2.74038 40.4859C8.06584 40.4859 12.8223 38.8456 17.0099 35.5649C14.5268 35.5194 12.3031 34.7551 10.3386 33.2719C8.37419 31.7887 7.0223 29.8935 6.28297 27.5862C7.01375 27.7254 7.735 27.795 8.44673 27.795C9.47121 27.795 10.4793 27.6614 11.471 27.3941C8.82111 26.8634 6.62282 25.5436 4.87612 23.4347C3.12947 21.3259 2.25615 18.8918 2.25615 16.1326V15.9904C3.88264 16.891 5.61755 17.37 7.46088 17.4275C5.89112 16.381 4.64654 15.0163 3.72714 13.3335C2.80768 11.6507 2.34794 9.82953 2.34794 7.87011C2.34794 5.80358 2.86578 3.87925 3.90146 2.09712C6.78313 5.63338 10.2749 8.45968 14.3767 10.576C18.4786 12.6924 22.8791 13.8677 27.5783 14.1021C27.3779 13.2668 27.2775 12.3952 27.2771 11.4871C27.2771 8.31662 28.3991 5.60947 30.6431 3.36568C32.8871 1.12189 35.5943 0 38.7648 0C42.0842 0 44.8802 1.20867 47.1527 3.62602C49.7492 3.11171 52.1804 2.18147 54.4462 0.83528C53.5733 3.58255 51.8912 5.70188 49.3999 7.19327C51.6896 6.92118 53.8896 6.31955 55.9999 5.38838H56Z" fill="url(#paint0_linear_1_1214)"/>
<defs>
<linearGradient id="paint0_linear_1_1214" x1="28" y1="0" x2="28" y2="45.4896" gradientUnits="userSpaceOnUse">
<stop stop-color="#F8D09E"/>
<stop offset="0.588542" stop-color="#F28903"/>
<stop offset="1" stop-color="#F28903"/>
</linearGradient>
</defs>
</svg>
