<svg xmlns="http://www.w3.org/2000/svg" width="24" height="24" viewBox="0 0 24 24"><defs><style>.a{fill:#a0a4a7;}</style></defs><g transform="translate(-2 -2)"><path class="a" d="M25,28H11a3,3,0,0,1-3-3V11a3,3,0,0,1,3-3H25a3,3,0,0,1,3,3V25a3,3,0,0,1-3,3ZM11,10a1,1,0,0,0-1,1V25a1,1,0,0,0,1,1H25a1,1,0,0,0,1-1V11a1,1,0,0,0-1-1Z" transform="translate(-2 -2)"/><path class="a" d="M9,24H7a3,3,0,0,1-3-3V7A3,3,0,0,1,7,4H21a3,3,0,0,1,3,3V9a1,1,0,0,1-2,0V7a1,1,0,0,0-1-1H7A1,1,0,0,0,6,7V21a1,1,0,0,0,1,1H9a1,1,0,0,1,0,2Z" transform="translate(-2 -2)"/><path class="a" d="M15,24a3,3,0,0,1-2.12-5.12l1-1a3.07,3.07,0,0,1,4.24,0,3,3,0,0,1,0,4.24l-1,1A3,3,0,0,1,15,24Zm1-5a1,1,0,0,0-.71.29h0l-1,1A1,1,0,0,0,15.7,21.7l1-1A1,1,0,0,0,16,19Zm-1.41-.41Z" transform="translate(-2 -2)"/><path class="a" d="M20,19a3,3,0,0,1-2.12-5.12l1-1a3.07,3.07,0,0,1,4.24,0,3,3,0,0,1,0,4.24l-1,1A3,3,0,0,1,20,19Zm1-5a1,1,0,0,0-.71.29h0l-1,1A1,1,0,1,0,20.7,16.7l1-1A1,1,0,0,0,21,14Zm-1.41-.41Z" transform="translate(-2 -2)"/><path class="a" d="M17,20a1,1,0,0,1-.71-1.71l2-2A1,1,0,0,1,19.7,17.7l-2,2A1,1,0,0,1,17,20Z" transform="translate(-2 -2)"/></g></svg>