<svg xmlns="http://www.w3.org/2000/svg" xmlns:xlink="http://www.w3.org/1999/xlink" viewBox="0 0 50.4 35.28"><defs><style>.cls-1{fill:#666;}.cls-2{fill:url(#Degradado_sin_nombre_750);}</style><linearGradient id="Degradado_sin_nombre_750" x1="22.54" y1="0.29" x2="27.84" y2="30.34" gradientUnits="userSpaceOnUse"><stop offset="0" stop-color="#fcfcfc"/><stop offset="1" stop-color="#ccc"/></linearGradient></defs><g id="Capa_2" data-name="Capa 2"><g id="Capa_1-2" data-name="Capa 1"><path class="cls-1" d="M2,17.49c6.8-4,13-8.27,19.77-12.27a1.59,1.59,0,0,1,.29-.15,7.87,7.87,0,0,1,5.81.08c2.92,1.2,18.36,10.51,21.46,12.39a2.23,2.23,0,0,1,1.06,1.54,2.33,2.33,0,0,1,0,.53,3.34,3.34,0,0,1-1.6,2.14c-6.44,4.43-13.47,8-19.95,12.31a6.84,6.84,0,0,1-3.35,1.21,7,7,0,0,1-3.61-.8c-7.75-3.83-18-10.23-20.81-12a2.26,2.26,0,0,1-1-1.64,4.43,4.43,0,0,1,0-1.2C.23,18.5,1.35,18,1.72,17.67A1.27,1.27,0,0,1,2,17.49Z"/><polygon class="cls-1" points="0 20.05 0 15.68 2.73 16.26 1.93 20.14 0 20.05"/><polygon class="cls-1" points="50.39 18.97 50.39 14.6 47.66 15.18 48.46 19.06 50.39 18.97"/><path class="cls-2" d="M2,12.93c6.8-4,13-8.26,19.77-12.27l.29-.14A7.82,7.82,0,0,1,27.86.6C30.78,1.8,46.22,11.11,49.32,13a2.18,2.18,0,0,1,1.06,1.54,2.25,2.25,0,0,1,0,.52,3.33,3.33,0,0,1-1.6,2.15c-6.44,4.43-13.47,8-19.95,12.31a6.84,6.84,0,0,1-3.35,1.21,7,7,0,0,1-3.61-.81c-7.75-3.82-18-10.22-20.81-12a2.28,2.28,0,0,1-1-1.64,4.51,4.51,0,0,1,0-1.21c.18-1.1,1.3-1.62,1.67-1.94Z"/></g></g></svg>