<svg width="33" height="33" viewBox="0 0 33 33" fill="none" xmlns="http://www.w3.org/2000/svg">
<path d="M16.4999 0.944458C13.4233 0.944458 10.4158 1.85678 7.8577 3.56604C5.2996 5.27531 3.3058 7.70475 2.12844 10.5472C0.951076 13.3896 0.643024 16.5173 1.24324 19.5348C1.84345 22.5522 3.32498 25.324 5.50046 27.4995C7.67594 29.6749 10.4477 31.1565 13.4652 31.7567C16.4826 32.3569 19.6103 32.0488 22.4528 30.8715C25.2952 29.6941 27.7246 27.7003 29.4339 25.1422C31.1431 22.5841 32.0555 19.5766 32.0555 16.5C32.0555 12.3744 30.4166 8.41781 27.4993 5.50058C24.5821 2.58334 20.6255 0.944458 16.4999 0.944458ZM26.6596 11.2792L13.8846 24.0445L6.34018 16.5C6.08233 16.2422 5.93747 15.8924 5.93747 15.5278C5.93747 15.1631 6.08233 14.8134 6.34018 14.5556C6.59803 14.2977 6.94774 14.1529 7.3124 14.1529C7.67705 14.1529 8.02677 14.2977 8.28462 14.5556L13.9041 20.175L24.7346 9.35418C24.8623 9.22651 25.0139 9.12523 25.1807 9.05613C25.3475 8.98704 25.5263 8.95147 25.7068 8.95147C25.8874 8.95147 26.0662 8.98704 26.233 9.05613C26.3998 9.12523 26.5514 9.22651 26.6791 9.35418C26.8067 9.48185 26.908 9.63343 26.9771 9.80024C27.0462 9.96705 27.0818 10.1458 27.0818 10.3264C27.0818 10.507 27.0462 10.6858 26.9771 10.8526C26.908 11.0194 26.8067 11.171 26.6791 11.2986L26.6596 11.2792Z" fill="url(#paint0_linear_122_689)"/>
<defs>
<linearGradient id="paint0_linear_122_689" x1="16.4999" y1="0.944458" x2="16.4999" y2="32.0556" gradientUnits="userSpaceOnUse">
<stop stop-color="#5DF27E"/>
<stop offset="1" stop-color="#09AD2D"/>
</linearGradient>
</defs>
</svg>
