<svg id="Layer_1" data-name="Layer 1" xmlns="http://www.w3.org/2000/svg" viewBox="0 0 87.8 83.19"><defs><style>.cls-1{fill:#fff;}</style></defs><path class="cls-1" d="M89.65,13.79a2.65,2.65,0,0,0-2-.89H75.5c.06-1.45,0-2.37,0-2.56a2.62,2.62,0,0,0-2.62-2.58H19.87a2.62,2.62,0,0,0-2.62,2.58c0,.2,0,1.11.05,2.56H5.12a2.64,2.64,0,0,0-2,.89,2.61,2.61,0,0,0-.63,2.07c.1.73,2.48,18,13.3,29.23a2.61,2.61,0,0,0,1.88.8h8.94a31.15,31.15,0,0,0,4.88,5.57L33.66,62a9.13,9.13,0,0,0-2.78,6.56v.29a9.09,9.09,0,0,0,2,5.73,17.57,17.57,0,0,0-1.8,1.13,15.9,15.9,0,0,0-6.76,12.49A2.62,2.62,0,0,0,27,90.94H65.83a2.61,2.61,0,0,0,1.9-.81,2.66,2.66,0,0,0,.71-1.95,15.87,15.87,0,0,0-6.76-12.49,17.48,17.48,0,0,0-1.79-1.13,9.14,9.14,0,0,0,2-5.73v-.29A9.12,9.12,0,0,0,59.14,62l2.13-10.52a30.76,30.76,0,0,0,4.88-5.57H75.1a2.63,2.63,0,0,0,1.88-.8c10.82-11.18,13.2-28.5,13.3-29.23A2.68,2.68,0,0,0,89.65,13.79ZM36.12,68.54a3.93,3.93,0,0,1,3.93-3.93h12.7a3.93,3.93,0,0,1,3.92,3.93v.29a3.93,3.93,0,0,1-3.92,3.92H40.05a3.93,3.93,0,0,1-3.93-3.92ZM57.22,48a2.58,2.58,0,0,0-.9,1.5l-2,9.83H38.47l-2-9.83a2.63,2.63,0,0,0-.9-1.5c-10.82-8.94-12.7-28.1-13-35H70.24C69.92,19.94,68,39.1,57.22,48ZM18.84,40.65C12.25,33.34,9.35,23.12,8.27,18.14h9.4c.62,6.1,2.15,14.79,5.92,22.51ZM62.76,85.71H30c1.63-5.64,7-7.39,8.14-7.72H54.61C55.83,78.32,61.13,80.08,62.76,85.71ZM74,40.65H69.2c3.77-7.72,5.31-16.41,5.93-22.51h9.4C83.46,23.11,80.57,33.32,74,40.65Z" transform="translate(-2.5 -7.76)"/></svg>