<svg id="Layer_1" data-name="Layer 1" xmlns="http://www.w3.org/2000/svg" viewBox="0 0 107.53 105.05"><defs><style>.cls-1{fill:none;stroke:#fff;stroke-linecap:round;stroke-linejoin:round;stroke-width:5px;}</style></defs><path class="cls-1" d="M80.43,89.5l-10.09,14a20.58,20.58,0,0,1-28.72,4.65h0l-23-16.59A20.55,20.55,0,0,1,14,62.84h0l10.09-14" transform="translate(-7.61 -9.46)"/><path class="cls-1" d="M69.16,81.37l12-16.57a7,7,0,0,1,9.72-1.56h0a7,7,0,0,1,1.57,9.7l-12,16.56" transform="translate(-7.61 -9.46)"/><path class="cls-1" d="M68,59.27l18-24.88,14.13-19.57a7,7,0,0,1,9.7-1.56h0a6.94,6.94,0,0,1,1.59,9.68v0L85.22,59.17,69.16,81.37" transform="translate(-7.61 -9.46)"/><path class="cls-1" d="M55.58,52.69l14.2-19.62.8-1.14a7,7,0,0,1,9.7-1.57h0a6.94,6.94,0,0,1,1.58,9.69h0L68,59.27" transform="translate(-7.61 -9.46)"/><path class="cls-1" d="M41.4,48.6,54.27,30.81l.14-.19a7,7,0,0,1,9.67-1.68l.08.06h0a7,7,0,0,1,1.57,9.7L56.59,51.3" transform="translate(-7.61 -9.46)"/><path class="cls-1" d="M24.09,48.85h0L39,28.24a7,7,0,0,1,9.7-1.56h0a7,7,0,0,1,1.56,9.7l-8.8,12.17" transform="translate(-7.61 -9.46)"/></svg>