<svg id="Layer_1" data-name="Layer 1" xmlns="http://www.w3.org/2000/svg" viewBox="0 0 99.36 99.38"><defs><style>.cls-1{fill:#fff;}</style></defs><path class="cls-1" d="M93.08,57.6a48.17,48.17,0,0,1-5.63-1.38,5.11,5.11,0,0,0-6,1.3q-12,12.15-24.16,24.16a5.1,5.1,0,0,0-1.32,6c3.47,9.41-1.75,19-11.38,21.77-6.92,2-17.33-3.08-19.36-11.66a3.37,3.37,0,0,0-2.88-2.88C15.07,93,9.7,85.45,10.29,78.14a16.28,16.28,0,0,1,14.39-15,14.39,14.39,0,0,1,7.55.93,5.11,5.11,0,0,0,6.15-1.29q6.48-6.59,13-13.11C55,46,58.65,42.34,62.35,38.78a5.43,5.43,0,0,0,1.41-6.37A16.25,16.25,0,0,1,80,10.54,16.71,16.71,0,0,1,94.73,23a2.89,2.89,0,0,0,2.35,2.43A16.52,16.52,0,0,1,109.6,41.14C109.67,50,102.13,57.38,93.08,57.6Zm10.14-16.66a9.75,9.75,0,0,0-4.35-7.87,9.47,9.47,0,0,0-5.94-1.89c-3,0-3.91-.95-4-3.85a16.38,16.38,0,0,0-.12-1.72A10.46,10.46,0,0,0,80.53,17,9.78,9.78,0,0,0,70,22.47,10.69,10.69,0,0,0,70,31.11c1.66,4.4.67,8.27-2.6,11.55q-12.52,12.59-25.1,25.1A9.82,9.82,0,0,1,34,70.93a25.22,25.22,0,0,1-4.48-1.16A10.05,10.05,0,0,0,18.06,74,9.72,9.72,0,0,0,19.5,86a10.66,10.66,0,0,0,7.89,3.18c2.46,0,3.51,1.16,3.53,3.63,0,.26,0,.53,0,.79a10,10,0,0,0,13,9.3,9.89,9.89,0,0,0,6-13.22c-1.64-4.27-1.25-8.19,2.06-11.52Q65.16,65,78.38,51.88a8.58,8.58,0,0,1,7.54-2.44c1.88.27,3.71.82,5.57,1.22C97.51,52,103.12,47.54,103.22,40.94Z" transform="translate(-10.24 -10.51)"/><path class="cls-1" d="M79.69,19.4a3.24,3.24,0,0,1,3.25,2.73,2.92,2.92,0,0,1-2.15,3.34A2.85,2.85,0,0,0,78.26,28a2.93,2.93,0,0,1-3.5,2.1,3.32,3.32,0,0,1-2.57-3.53A7.86,7.86,0,0,1,79.69,19.4Z" transform="translate(-10.24 -10.51)"/></svg>