<svg width="30" height="34" viewBox="0 0 30 34" fill="none" xmlns="http://www.w3.org/2000/svg">
<path d="M10.7143 29.75L14.9985 25.5V27.625C17.1191 27.6253 19.192 27.0016 20.9549 25.833C22.7179 24.6644 24.0915 23.0034 24.902 21.0602C25.7125 19.1171 25.9235 16.9791 25.5081 14.917C25.0927 12.8549 24.0697 10.9613 22.5685 9.47608L25.5885 6.46708C26.989 7.84733 28.0999 9.48901 28.8571 11.2973C29.6142 13.1057 30.0027 15.0448 30 17.0028C30 25.2167 23.2857 31.875 15.0028 31.875H15V34L10.7143 29.75ZM-2.52574e-05 17C0.00997474 8.789 6.71997 2.13492 14.9985 2.125H15V0L19.2857 4.25L15 8.5V6.375H14.9971C12.8766 6.37512 10.8038 6.99905 9.041 8.16784C7.2782 9.33662 5.90467 10.9977 5.09422 12.9409C4.28377 14.8841 4.07283 17.022 4.4881 19.0842C4.90338 21.1463 5.9262 23.0399 7.42712 24.5253L4.40998 27.5343C3.01029 26.1623 1.89952 24.5282 1.14221 22.7268C0.384902 20.9254 -0.00385055 18.9927 -0.00145383 17.0411V16.9986V17.0014L-2.52574e-05 17Z" fill="#F8A93E"/>
</svg>
