<svg width="495" height="247" viewBox="0 0 495 247" fill="none" xmlns="http://www.w3.org/2000/svg">
<g clip-path="url(#clip0_270_3613)" filter="url(#filter0_d_270_3613)">
<path d="M71.9336 79.549C86.3695 71.0615 99.5317 62.0011 113.904 53.5136C114.098 53.3867 114.304 53.2801 114.52 53.1954C118.502 51.6773 122.915 51.7381 126.854 53.3651C133.053 55.9114 165.831 75.666 172.412 79.6551C173.001 80.0045 173.508 80.4777 173.896 81.0419C174.285 81.606 174.546 82.2478 174.662 82.9228C174.705 83.2964 174.705 83.6737 174.662 84.0474C174.439 84.9972 174.022 85.8907 173.438 86.6721C172.853 87.4534 172.114 88.1057 171.265 88.5882C157.594 97.9881 142.67 105.563 128.807 114.708C126.705 116.177 124.251 117.063 121.695 117.276C119.034 117.407 116.388 116.821 114.031 115.578C97.5786 107.452 75.8186 93.8716 69.8531 90.1159C69.2653 89.7273 68.7703 89.2141 68.4034 88.6126C68.0365 88.0112 67.8066 87.3363 67.7302 86.6361C67.6147 85.7912 67.6147 84.9346 67.7302 84.0898C68.1123 81.7345 70.49 80.6312 71.2755 79.9734C71.473 79.8007 71.6947 79.6577 71.9336 79.549Z" fill="#181220"/>
<path d="M67.688 84.981V75.7084L73.4836 76.9391L71.7852 85.1719L67.688 84.981Z" fill="#181220"/>
<path d="M174.662 82.6893V73.4167L168.867 74.6474L170.565 82.8803L174.662 82.6893Z" fill="#181220"/>
<path d="M71.9337 69.8732C86.3696 61.3857 99.5318 52.3465 113.904 43.8378L114.52 43.5407C118.5 42.0119 122.917 42.0726 126.854 43.7105C133.032 46.2567 165.81 66.0114 172.391 70.0217C172.985 70.3655 173.495 70.837 173.884 71.4022C174.273 71.9674 174.532 72.612 174.641 73.2894C174.684 73.6559 174.684 74.0262 174.641 74.3928C174.422 75.3469 174.007 76.2451 173.422 77.0304C172.837 77.8157 172.096 78.471 171.244 78.9548C157.573 88.3547 142.649 95.8237 128.786 105.075C126.684 106.544 124.23 107.429 121.674 107.642C119.011 107.767 116.364 107.173 114.01 105.924C97.5575 97.8182 75.7975 84.2382 69.832 80.4613C69.2462 80.0706 68.7527 79.5568 68.386 78.9557C68.0194 78.3547 67.7883 77.6809 67.7091 76.9814C67.5937 76.1295 67.5937 75.2659 67.7091 74.414C68.0912 72.0799 70.4689 70.9766 71.2544 70.2976L71.9337 69.8732Z" fill="url(#paint0_linear_270_3613)"/>
<path d="M260.874 37.1115C275.31 28.624 288.472 19.5636 302.845 11.0761C303.038 10.9492 303.245 10.8426 303.46 10.7579C307.443 9.23983 311.855 9.30055 315.795 10.9276C321.993 13.4739 354.772 33.2285 361.353 37.2176C361.942 37.567 362.448 38.0402 362.837 38.6044C363.225 39.1685 363.487 39.8103 363.603 40.4853C363.646 40.8589 363.646 41.2362 363.603 41.6099C363.38 42.5597 362.963 43.4532 362.379 44.2346C361.794 45.0159 361.055 45.6682 360.206 46.1507C346.535 55.5506 331.61 63.1257 317.854 72.2709C315.752 73.7395 313.298 74.6253 310.742 74.8384C308.081 74.9693 305.434 74.383 303.078 73.1409C286.625 65.0141 264.865 51.4341 258.9 47.6784C258.312 47.2898 257.817 46.7766 257.45 46.1751C257.083 45.5737 256.854 44.8988 256.777 44.1986C256.662 43.3537 256.662 42.4971 256.777 41.6523C257.159 39.297 259.537 38.1937 260.322 37.5359C260.487 37.3712 260.673 37.2285 260.874 37.1115Z" fill="#181220"/>
<path d="M256.628 42.5436V33.271L262.424 34.5017L260.726 42.7345L256.628 42.5436Z" fill="#181220"/>
<path d="M363.603 40.2519V30.9794L357.808 32.2101L359.506 40.4429L363.603 40.2519Z" fill="#181220"/>
<path d="M260.874 27.4358C275.31 18.9483 288.472 9.90914 302.845 1.40043L303.46 1.10337C307.441 -0.425515 311.857 -0.364731 315.794 1.27312C321.993 3.81937 354.771 23.574 361.352 27.5631C361.947 27.9069 362.457 28.3784 362.846 28.9436C363.235 29.5088 363.494 30.1534 363.603 30.8308C363.645 31.1973 363.645 31.5676 363.603 31.9342C363.384 32.8883 362.969 33.7865 362.384 34.5718C361.799 35.3571 361.058 36.0124 360.206 36.4962C346.534 45.8961 331.61 53.4712 317.854 62.6164C315.751 64.085 313.298 64.9708 310.742 65.1839C308.079 65.3083 305.432 64.7147 303.078 63.4652C286.625 55.3596 264.865 41.7796 258.9 38.0027C258.314 37.612 257.821 37.0982 257.454 36.4971C257.087 35.8961 256.856 35.2223 256.777 34.5229C256.662 33.6709 256.662 32.8073 256.777 31.9554C257.159 29.6213 259.537 28.518 260.322 27.839L260.874 27.4358Z" fill="url(#paint1_linear_270_3613)"/>
<path d="M324.562 75.3052C338.998 66.8177 352.16 57.7573 366.533 49.2699C366.726 49.1429 366.933 49.0363 367.148 48.9516C371.131 47.4336 375.543 47.4943 379.482 49.1213C385.681 51.6676 418.459 71.4222 425.041 75.4113C425.63 75.7608 426.136 76.2339 426.525 76.7981C426.913 77.3623 427.175 78.004 427.291 78.679C427.334 79.0527 427.334 79.43 427.291 79.8036C427.068 80.7534 426.651 81.6469 426.067 82.4283C425.482 83.2096 424.743 83.862 423.894 84.3444C410.222 93.7443 395.298 101.319 381.542 110.465C379.44 111.933 376.986 112.819 374.43 113.032C371.769 113.163 369.122 112.577 366.766 111.335C350.313 103.208 328.553 89.6279 322.588 85.8722C322 85.4836 321.505 84.9703 321.138 84.3689C320.771 83.7674 320.541 83.0926 320.465 82.3923C320.35 81.5475 320.35 80.6909 320.465 79.846C320.847 77.4908 323.225 76.3874 324.01 75.7296C324.175 75.5649 324.361 75.4222 324.562 75.3052Z" fill="#181220"/>
<path d="M320.316 80.7372V71.4646L326.112 72.6953L324.414 80.9281L320.316 80.7372Z" fill="#181220"/>
<path d="M427.291 78.4456V69.173L421.495 70.4037L423.193 78.6365L427.291 78.4456Z" fill="#181220"/>
<path d="M324.562 65.6295C338.998 57.142 352.16 48.1029 366.533 39.5942L367.148 39.2971C371.129 37.7682 375.545 37.829 379.482 39.4668C385.681 42.0131 418.459 61.7677 425.04 65.7568C425.635 66.1006 426.145 66.5722 426.534 67.1373C426.923 67.7025 427.182 68.3471 427.291 69.0245C427.333 69.3911 427.333 69.7613 427.291 70.1279C427.072 71.082 426.657 71.9802 426.072 72.7655C425.487 73.5508 424.746 74.2062 423.894 74.6899C410.222 84.0898 395.298 91.5588 381.542 100.81C379.439 102.279 376.986 103.165 374.43 103.378C371.767 103.502 369.12 102.908 366.766 101.659C350.313 93.5533 328.553 79.9734 322.588 76.1964C322.002 75.8057 321.509 75.2919 321.142 74.6909C320.775 74.0898 320.544 73.4161 320.465 72.7166C320.35 71.8646 320.35 71.001 320.465 70.1491C320.847 67.8151 323.225 66.7117 324.01 66.0327L324.562 65.6295Z" fill="url(#paint2_linear_270_3613)"/>
<path d="M388.25 113.499C402.686 105.011 415.848 95.9511 430.221 87.4636C430.414 87.3367 430.621 87.23 430.836 87.1453C434.819 85.6273 439.231 85.688 443.17 87.3151C449.369 89.8613 482.147 109.616 488.729 113.605C489.318 113.954 489.824 114.428 490.213 114.992C490.601 115.556 490.863 116.198 490.979 116.873C491.022 117.246 491.022 117.624 490.979 117.997C490.756 118.947 490.339 119.841 489.755 120.622C489.17 121.403 488.431 122.056 487.582 122.538C473.91 131.938 458.986 139.513 445.23 148.658C443.128 150.127 440.674 151.013 438.118 151.226C435.457 151.357 432.81 150.77 430.454 149.528C414.001 141.402 392.241 127.822 386.276 124.066C385.688 123.677 385.193 123.164 384.826 122.563C384.459 121.961 384.229 121.286 384.153 120.586C384.038 119.741 384.038 118.885 384.153 118.04C384.535 115.684 386.913 114.581 387.698 113.923C387.863 113.759 388.049 113.616 388.25 113.499Z" fill="#181220"/>
<path d="M384.004 118.931V109.658L389.8 110.889L388.102 119.122L384.004 118.931Z" fill="#181220"/>
<path d="M490.979 116.639V107.367L485.183 108.597L486.881 116.83L490.979 116.639Z" fill="#181220"/>
<path d="M388.25 103.823C402.686 95.3356 415.848 86.2965 430.221 77.7878L430.836 77.4907C434.817 75.9618 439.233 76.0226 443.17 77.6604C449.369 80.2067 482.147 99.9613 488.728 103.95C489.323 104.294 489.833 104.766 490.222 105.331C490.611 105.896 490.87 106.541 490.979 107.218C491.021 107.585 491.021 107.955 490.979 108.321C490.76 109.276 490.345 110.174 489.76 110.959C489.175 111.744 488.434 112.4 487.582 112.884C473.91 122.283 458.986 129.752 445.23 139.004C443.127 140.472 440.674 141.358 438.118 141.571C435.455 141.696 432.808 141.102 430.454 139.853C414.001 131.747 392.241 118.167 386.276 114.39C385.69 113.999 385.197 113.486 384.83 112.884C384.463 112.283 384.232 111.61 384.153 110.91C384.038 110.058 384.038 109.195 384.153 108.343C384.535 106.009 386.913 104.905 387.698 104.226L388.25 103.823Z" fill="url(#paint3_linear_270_3613)"/>
<path d="M324.562 65.6295C338.998 57.142 352.16 48.1029 366.533 39.5942L367.148 39.2971C371.129 37.7682 375.545 37.829 379.482 39.4668C385.681 42.0131 418.459 61.7677 425.04 65.7568C425.635 66.1006 426.145 66.5722 426.534 67.1373C426.923 67.7025 427.182 68.3471 427.291 69.0245C427.333 69.3911 427.333 69.7613 427.291 70.1279C427.072 71.082 426.657 71.9802 426.072 72.7655C425.487 73.5508 424.746 74.2062 423.894 74.6899C410.222 84.0898 395.298 91.5588 381.542 100.81C379.439 102.279 376.986 103.165 374.43 103.378C371.767 103.502 369.12 102.908 366.766 101.659C350.313 93.5533 328.553 79.9734 322.588 76.1964C322.002 75.8057 321.509 75.2919 321.142 74.6909C320.775 74.0898 320.544 73.4161 320.465 72.7166C320.35 71.8646 320.35 71.001 320.465 70.1491C320.847 67.8151 323.225 66.7117 324.01 66.0327L324.562 65.6295Z" fill="url(#paint4_linear_270_3613)"/>
<path d="M135.622 117.743C150.058 109.255 163.22 100.195 177.592 91.7072C177.786 91.5803 177.992 91.4737 178.208 91.389C182.19 89.8709 186.603 89.9317 190.542 91.5587C196.741 94.105 229.519 113.86 236.1 117.849C236.689 118.198 237.196 118.671 237.584 119.235C237.973 119.8 238.234 120.441 238.35 121.116C238.393 121.49 238.393 121.867 238.35 122.241C238.127 123.191 237.71 124.084 237.126 124.866C236.541 125.647 235.802 126.299 234.953 126.782C221.282 136.182 206.358 143.757 192.495 152.902C190.393 154.371 187.939 155.256 185.383 155.469C182.722 155.6 180.075 155.014 177.719 153.772C161.267 145.645 139.507 132.065 133.541 128.31C132.953 127.921 132.458 127.408 132.091 126.806C131.724 126.205 131.495 125.53 131.418 124.83C131.303 123.985 131.303 123.128 131.418 122.283C131.8 119.928 134.178 118.825 134.963 118.167C135.161 117.994 135.383 117.851 135.622 117.743Z" fill="#181220"/>
<path d="M131.376 123.175V113.902L137.172 115.133L135.473 123.366L131.376 123.175Z" fill="#181220"/>
<path d="M238.35 120.883V111.61L232.555 112.841L234.253 121.074L238.35 120.883Z" fill="#181220"/>
<path d="M135.621 108.067C150.057 99.5794 163.22 90.5402 177.592 82.0315L178.207 81.7345C182.188 80.2056 186.605 80.2664 190.542 81.9042C196.741 84.4505 229.519 104.205 236.1 108.194C236.694 108.538 237.204 109.01 237.593 109.575C237.982 110.14 238.241 110.785 238.35 111.462C238.393 111.828 238.393 112.199 238.35 112.565C238.131 113.519 237.716 114.418 237.131 115.203C236.546 115.988 235.805 116.644 234.953 117.127C221.282 126.527 206.357 133.996 192.495 143.248C190.393 144.716 187.939 145.602 185.383 145.815C182.72 145.939 180.073 145.346 177.719 144.096C161.266 135.991 139.506 122.411 133.541 118.634C132.955 118.243 132.462 117.729 132.095 117.128C131.728 116.527 131.497 115.853 131.418 115.154C131.303 114.302 131.303 113.438 131.418 112.586C131.8 110.252 134.178 109.149 134.963 108.47L135.621 108.067Z" fill="url(#paint5_linear_270_3613)"/>
<path d="M260.874 115.621C275.31 107.133 288.472 98.0729 302.845 89.5854C303.038 89.4585 303.245 89.3518 303.46 89.2671C307.443 87.7491 311.855 87.8098 315.795 89.4369C321.993 91.9831 354.772 111.738 361.353 115.727C361.942 116.076 362.448 116.549 362.837 117.114C363.225 117.678 363.487 118.32 363.603 118.995C363.646 119.368 363.646 119.746 363.603 120.119C363.38 121.069 362.963 121.962 362.379 122.744C361.794 123.525 361.055 124.178 360.206 124.66C346.535 134.06 331.61 141.635 317.854 150.78C315.752 152.249 313.298 153.135 310.742 153.348C308.081 153.479 305.434 152.892 303.078 151.65C286.625 143.523 264.865 129.943 258.9 126.188C258.312 125.799 257.817 125.286 257.45 124.684C257.083 124.083 256.854 123.408 256.777 122.708C256.662 121.863 256.662 121.006 256.777 120.162C257.159 117.806 259.537 116.703 260.322 116.045C260.487 115.88 260.673 115.738 260.874 115.621Z" fill="#560F04"/>
<path d="M256.628 121.053V111.78L262.424 113.011L260.726 121.244L256.628 121.053Z" fill="#560F04"/>
<path d="M363.603 118.761V109.489L357.808 110.719L359.506 118.952L363.603 118.761Z" fill="#560F04"/>
<path d="M260.874 105.945C275.31 97.4576 288.472 88.4184 302.845 79.9097L303.46 79.6126C307.441 78.0838 311.857 78.1445 315.794 79.7824C321.993 82.3286 354.771 102.083 361.352 106.072C361.947 106.416 362.457 106.888 362.846 107.453C363.235 108.018 363.494 108.663 363.603 109.34C363.645 109.707 363.645 110.077 363.603 110.443C363.384 111.398 362.969 112.296 362.384 113.081C361.799 113.866 361.058 114.522 360.206 115.005C346.534 124.405 331.61 131.874 317.854 141.126C315.751 142.594 313.298 143.48 310.742 143.693C308.079 143.818 305.432 143.224 303.078 141.974C286.625 133.869 264.865 120.289 258.9 116.512C258.314 116.121 257.821 115.607 257.454 115.006C257.087 114.405 256.856 113.732 256.777 113.032C256.662 112.18 256.662 111.317 256.777 110.465C257.159 108.131 259.537 107.027 260.322 106.348L260.874 105.945Z" fill="url(#paint6_linear_270_3613)"/>
<path d="M199.309 155.936C213.745 147.449 226.907 138.388 241.28 129.901C241.473 129.774 241.68 129.667 241.895 129.583C245.878 128.065 250.29 128.125 254.23 129.752C260.429 132.299 293.207 152.053 299.788 156.042C300.377 156.392 300.883 156.865 301.272 157.429C301.66 157.993 301.922 158.635 302.038 159.31C302.081 159.684 302.081 160.061 302.038 160.435C301.815 161.384 301.398 162.278 300.814 163.059C300.229 163.841 299.49 164.493 298.641 164.976C284.97 174.375 270.045 181.95 256.289 191.096C254.187 192.564 251.733 193.45 249.177 193.663C246.516 193.794 243.869 193.208 241.513 191.966C225.061 183.839 203.301 170.259 197.335 166.503C196.747 166.115 196.252 165.601 195.885 165C195.518 164.399 195.289 163.724 195.212 163.023C195.097 162.179 195.097 161.322 195.212 160.477C195.594 158.122 197.972 157.018 198.757 156.361C198.922 156.196 199.108 156.053 199.309 155.936Z" fill="#181220"/>
<path d="M195.063 161.368V152.096L200.859 153.326L199.161 161.559L195.063 161.368Z" fill="#181220"/>
<path d="M302.038 159.077V149.804L296.243 151.035L297.941 159.268L302.038 159.077Z" fill="#181220"/>
<path d="M199.309 146.261C213.745 137.773 226.907 128.734 241.28 120.225L241.895 119.928C245.876 118.399 250.292 118.46 254.229 120.098C260.428 122.644 293.206 142.399 299.788 146.388C300.382 146.732 300.892 147.203 301.281 147.768C301.67 148.334 301.929 148.978 302.038 149.656C302.081 150.022 302.081 150.392 302.038 150.759C301.819 151.713 301.404 152.611 300.819 153.397C300.234 154.182 299.493 154.837 298.641 155.321C284.969 164.721 270.045 172.296 256.289 181.441C254.187 182.91 251.733 183.796 249.177 184.009C246.514 184.133 243.867 183.54 241.513 182.29C225.06 174.184 203.3 160.604 197.335 156.828C196.749 156.437 196.256 155.923 195.889 155.322C195.522 154.721 195.291 154.047 195.212 153.348C195.097 152.496 195.097 151.632 195.212 150.78C195.594 148.446 197.972 147.343 198.757 146.664L199.309 146.261Z" fill="url(#paint7_linear_270_3613)"/>
<path d="M260.874 194.13C275.31 185.643 288.472 176.582 302.845 168.095C303.038 167.968 303.245 167.861 303.46 167.776C307.443 166.258 311.855 166.319 315.795 167.946C321.993 170.492 354.772 190.247 361.353 194.236C361.942 194.586 362.448 195.059 362.837 195.623C363.225 196.187 363.487 196.829 363.603 197.504C363.646 197.877 363.646 198.255 363.603 198.628C363.38 199.578 362.963 200.472 362.379 201.253C361.794 202.034 361.055 202.687 360.206 203.169C346.535 212.569 331.61 220.144 317.854 229.289C315.752 230.758 313.298 231.644 310.742 231.857C308.081 231.988 305.434 231.402 303.078 230.159C286.625 222.033 264.865 208.453 258.9 204.697C258.312 204.308 257.817 203.795 257.45 203.194C257.083 202.592 256.854 201.917 256.777 201.217C256.662 200.372 256.662 199.516 256.777 198.671C257.159 196.316 259.537 195.212 260.322 194.554C260.487 194.39 260.673 194.247 260.874 194.13Z" fill="#181220"/>
<path d="M256.628 199.562V190.289L262.424 191.52L260.726 199.753L256.628 199.562Z" fill="#181220"/>
<path d="M363.603 197.27V187.998L357.808 189.228L359.506 197.461L363.603 197.27Z" fill="#181220"/>
<path d="M260.874 184.454C275.31 175.967 288.472 166.928 302.845 158.419L303.46 158.122C307.441 156.593 311.857 156.654 315.794 158.292C321.993 160.838 354.771 180.592 361.352 184.582C361.947 184.925 362.457 185.397 362.846 185.962C363.235 186.527 363.494 187.172 363.603 187.849C363.645 188.216 363.645 188.586 363.603 188.953C363.384 189.907 362.969 190.805 362.384 191.59C361.799 192.376 361.058 193.031 360.206 193.515C346.534 202.915 331.61 210.49 317.854 219.635C315.751 221.103 313.298 221.989 310.742 222.202C308.079 222.327 305.432 221.733 303.078 220.484C286.625 212.378 264.865 198.798 258.9 195.021C258.314 194.63 257.821 194.117 257.454 193.516C257.087 192.915 256.856 192.241 256.777 191.541C256.662 190.689 256.662 189.826 256.777 188.974C257.159 186.64 259.537 185.536 260.322 184.857L260.874 184.454Z" fill="url(#paint8_linear_270_3613)"/>
<path d="M8.24592 119.865C22.6818 111.377 35.844 102.317 50.2162 93.8292C50.41 93.7023 50.6163 93.5956 50.8319 93.5109C54.8144 91.9929 59.2269 92.0536 63.1661 93.6807C69.3651 96.2269 102.143 115.982 108.724 119.971C109.314 120.32 109.82 120.793 110.208 121.357C110.597 121.922 110.858 122.563 110.974 123.238C111.017 123.612 111.017 123.989 110.974 124.363C110.752 125.313 110.335 126.206 109.75 126.988C109.166 127.769 108.426 128.421 107.578 128.904C93.9061 138.304 78.9819 145.879 65.2254 155.024C63.1232 156.493 60.6694 157.378 58.1135 157.591C55.4529 157.722 52.806 157.136 50.4498 155.894C33.9971 147.767 12.237 134.187 6.2716 130.431C5.68374 130.043 5.18876 129.53 4.82184 128.928C4.45493 128.327 4.22509 127.652 4.14867 126.952C4.03313 126.107 4.03313 125.25 4.14867 124.405C4.48834 122.008 6.86602 120.947 7.6515 120.246C7.83202 120.094 8.03188 119.965 8.24592 119.865Z" fill="#181220"/>
<path d="M4 125.297V116.024L9.7956 117.255L8.09725 125.487L4 125.297Z" fill="#181220"/>
<path d="M110.974 123.005V113.732L105.179 114.963L106.877 123.196L110.974 123.005Z" fill="#181220"/>
<path d="M8.24604 110.189C22.682 101.701 35.8441 92.6622 50.2164 84.1535L50.832 83.8564C54.8126 82.3275 59.2292 82.3883 63.1662 84.0262C69.3439 86.5724 102.122 106.327 108.703 110.337C109.297 110.681 109.807 111.153 110.196 111.718C110.586 112.283 110.844 112.928 110.953 113.605C110.996 113.972 110.996 114.342 110.953 114.708C110.734 115.663 110.319 116.561 109.734 117.346C109.15 118.131 108.408 118.787 107.557 119.27C93.885 128.67 78.9608 136.245 65.2042 145.391C63.1021 146.859 60.6483 147.745 58.0924 147.958C55.4298 148.083 52.7828 147.489 50.4286 146.239C33.9759 138.134 12.2159 124.554 6.25048 120.777C5.66463 120.386 5.17115 119.872 4.80448 119.271C4.43782 118.67 4.2068 117.997 4.12755 117.297C4.01217 116.445 4.01217 115.582 4.12755 114.73C4.50968 112.396 6.88736 111.292 7.67285 110.613L8.24604 110.189Z" fill="url(#paint9_linear_270_3613)"/>
<path d="M71.9336 158.058C86.3695 149.571 99.5317 140.51 113.904 132.023C114.098 131.896 114.304 131.789 114.52 131.705C118.502 130.186 122.915 130.247 126.854 131.874C133.053 134.421 165.831 154.175 172.412 158.164C173.001 158.514 173.508 158.987 173.896 159.551C174.285 160.115 174.546 160.757 174.662 161.432C174.705 161.806 174.705 162.183 174.662 162.557C174.439 163.506 174.022 164.4 173.438 165.181C172.853 165.963 172.114 166.615 171.265 167.097C157.594 176.497 142.67 184.072 128.807 193.218C126.705 194.686 124.251 195.572 121.695 195.785C119.034 195.916 116.388 195.33 114.031 194.088C97.5786 185.961 75.8186 172.381 69.8531 168.625C69.2653 168.237 68.7703 167.723 68.4034 167.122C68.0365 166.52 67.8066 165.846 67.7302 165.145C67.6147 164.3 67.6147 163.444 67.7302 162.599C68.1123 160.244 70.49 159.14 71.2755 158.483C71.473 158.31 71.6947 158.167 71.9336 158.058Z" fill="#181220"/>
<path d="M67.688 163.49V154.218L73.4836 155.448L71.7852 163.681L67.688 163.49Z" fill="#181220"/>
<path d="M174.662 161.199V151.926L168.867 153.157L170.565 161.39L174.662 161.199Z" fill="#181220"/>
<path d="M71.9337 148.382C86.3696 139.895 99.5318 130.856 113.904 122.347L114.52 122.05C118.5 120.521 122.917 120.582 126.854 122.22C133.032 124.766 165.81 144.521 172.391 148.531C172.985 148.875 173.495 149.346 173.884 149.911C174.273 150.477 174.532 151.121 174.641 151.799C174.684 152.165 174.684 152.535 174.641 152.902C174.422 153.856 174.007 154.754 173.422 155.54C172.837 156.325 172.096 156.98 171.244 157.464C157.573 166.864 142.649 174.439 128.786 183.584C126.684 185.053 124.23 185.939 121.674 186.152C119.011 186.276 116.364 185.683 114.01 184.433C97.5575 176.327 75.7975 162.748 69.832 158.971C69.2462 158.58 68.7527 158.066 68.386 157.465C68.0194 156.864 67.7883 156.19 67.7091 155.491C67.5937 154.639 67.5937 153.775 67.7091 152.923C68.0912 150.589 70.4689 149.486 71.2544 148.807L71.9337 148.382Z" fill="url(#paint10_linear_270_3613)"/>
<path d="M135.622 196.252C150.058 187.764 163.22 178.704 177.592 170.217C177.786 170.09 177.992 169.983 178.208 169.898C182.19 168.38 186.603 168.441 190.542 170.068C196.741 172.614 229.519 192.369 236.1 196.358C236.689 196.707 237.196 197.181 237.584 197.745C237.973 198.309 238.234 198.951 238.35 199.626C238.393 199.999 238.393 200.377 238.35 200.75C238.127 201.7 237.71 202.594 237.126 203.375C236.541 204.156 235.802 204.809 234.953 205.291C221.282 214.691 206.358 222.266 192.495 231.411C190.393 232.88 187.939 233.766 185.383 233.979C182.722 234.11 180.075 233.523 177.719 232.281C161.267 224.154 139.507 210.575 133.541 206.819C132.953 206.43 132.458 205.917 132.091 205.316C131.724 204.714 131.495 204.039 131.418 203.339C131.303 202.494 131.303 201.637 131.418 200.793C131.8 198.437 134.178 197.334 134.963 196.676C135.161 196.504 135.383 196.361 135.622 196.252Z" fill="#181220"/>
<path d="M131.376 201.684V192.411L137.172 193.642L135.473 201.875L131.376 201.684Z" fill="#181220"/>
<path d="M238.35 199.392V190.12L232.555 191.35L234.253 199.583L238.35 199.392Z" fill="#181220"/>
<path d="M135.621 186.576C150.057 178.089 163.22 169.05 177.592 160.541L178.207 160.244C182.188 158.715 186.605 158.776 190.542 160.414C196.741 162.96 229.519 182.714 236.1 186.703C236.694 187.047 237.204 187.519 237.593 188.084C237.982 188.649 238.241 189.294 238.35 189.971C238.393 190.338 238.393 190.708 238.35 191.075C238.131 192.029 237.716 192.927 237.131 193.712C236.546 194.498 235.805 195.153 234.953 195.637C221.282 205.036 206.357 212.612 192.495 221.757C190.393 223.225 187.939 224.111 185.383 224.324C182.72 224.449 180.073 223.855 177.719 222.606C161.266 214.5 139.506 200.92 133.541 197.143C132.955 196.752 132.462 196.239 132.095 195.638C131.728 195.036 131.497 194.363 131.418 193.663C131.303 192.811 131.303 191.948 131.418 191.096C131.8 188.762 134.178 187.658 134.963 186.979L135.621 186.576Z" fill="url(#paint11_linear_270_3613)"/>
</g>
<defs>
<filter id="filter0_d_270_3613" x="0" y="0" width="495" height="247" filterUnits="userSpaceOnUse" color-interpolation-filters="sRGB">
<feFlood flood-opacity="0" result="BackgroundImageFix"/>
<feColorMatrix in="SourceAlpha" type="matrix" values="0 0 0 0 0 0 0 0 0 0 0 0 0 0 0 0 0 0 127 0" result="hardAlpha"/>
<feOffset dy="9"/>
<feGaussianBlur stdDeviation="2"/>
<feColorMatrix type="matrix" values="0 0 0 0 0 0 0 0 0 0 0 0 0 0 0 0 0 0 0.2 0"/>
<feBlend mode="normal" in2="BackgroundImageFix" result="effect1_dropShadow_270_3613"/>
<feBlend mode="normal" in="SourceGraphic" in2="effect1_dropShadow_270_3613" result="shape"/>
</filter>
<linearGradient id="paint0_linear_270_3613" x1="89.0233" y1="48.2301" x2="152.727" y2="101.711" gradientUnits="userSpaceOnUse">
<stop stop-color="#363755"/>
<stop offset="0.18" stop-color="#2E2C41"/>
<stop offset="0.39" stop-color="#272432"/>
<stop offset="0.64" stop-color="#231F29"/>
<stop offset="0.99" stop-color="#221D26"/>
</linearGradient>
<linearGradient id="paint1_linear_270_3613" x1="277.964" y1="5.79271" x2="341.668" y2="59.2739" gradientUnits="userSpaceOnUse">
<stop stop-color="#363755"/>
<stop offset="0.18" stop-color="#2E2C41"/>
<stop offset="0.39" stop-color="#272432"/>
<stop offset="0.64" stop-color="#231F29"/>
<stop offset="0.99" stop-color="#221D26"/>
</linearGradient>
<linearGradient id="paint2_linear_270_3613" x1="341.652" y1="43.9864" x2="405.356" y2="97.4676" gradientUnits="userSpaceOnUse">
<stop stop-color="#363755"/>
<stop offset="0.18" stop-color="#2E2C41"/>
<stop offset="0.39" stop-color="#272432"/>
<stop offset="0.64" stop-color="#231F29"/>
<stop offset="0.99" stop-color="#221D26"/>
</linearGradient>
<linearGradient id="paint3_linear_270_3613" x1="405.34" y1="82.18" x2="469.044" y2="135.661" gradientUnits="userSpaceOnUse">
<stop stop-color="#363755"/>
<stop offset="0.18" stop-color="#2E2C41"/>
<stop offset="0.39" stop-color="#272432"/>
<stop offset="0.64" stop-color="#231F29"/>
<stop offset="0.99" stop-color="#221D26"/>
</linearGradient>
<linearGradient id="paint4_linear_270_3613" x1="341.652" y1="43.9864" x2="405.356" y2="97.4676" gradientUnits="userSpaceOnUse">
<stop stop-color="#363755"/>
<stop offset="0.18" stop-color="#2E2C41"/>
<stop offset="0.39" stop-color="#272432"/>
<stop offset="0.64" stop-color="#231F29"/>
<stop offset="0.99" stop-color="#221D26"/>
</linearGradient>
<linearGradient id="paint5_linear_270_3613" x1="152.711" y1="86.4238" x2="216.415" y2="139.905" gradientUnits="userSpaceOnUse">
<stop stop-color="#363755"/>
<stop offset="0.18" stop-color="#2E2C41"/>
<stop offset="0.39" stop-color="#272432"/>
<stop offset="0.64" stop-color="#231F29"/>
<stop offset="0.99" stop-color="#221D26"/>
</linearGradient>
<linearGradient id="paint6_linear_270_3613" x1="282.486" y1="83.623" x2="337.166" y2="138.352" gradientUnits="userSpaceOnUse">
<stop stop-color="#D56766"/>
<stop offset="0.11" stop-color="#C95856"/>
<stop offset="0.35" stop-color="#B23D39"/>
<stop offset="0.56" stop-color="#A52C27"/>
<stop offset="0.71" stop-color="#A02621"/>
</linearGradient>
<linearGradient id="paint7_linear_270_3613" x1="195.063" y1="151.438" x2="302.059" y2="151.438" gradientUnits="userSpaceOnUse">
<stop stop-color="#363755"/>
<stop offset="0.18" stop-color="#2E2C41"/>
<stop offset="0.39" stop-color="#272432"/>
<stop offset="0.64" stop-color="#231F29"/>
<stop offset="0.99" stop-color="#221D26"/>
</linearGradient>
<linearGradient id="paint8_linear_270_3613" x1="277.964" y1="162.811" x2="341.668" y2="216.292" gradientUnits="userSpaceOnUse">
<stop stop-color="#363755"/>
<stop offset="0.18" stop-color="#2E2C41"/>
<stop offset="0.39" stop-color="#272432"/>
<stop offset="0.64" stop-color="#231F29"/>
<stop offset="0.99" stop-color="#221D26"/>
</linearGradient>
<linearGradient id="paint9_linear_270_3613" x1="25.3356" y1="88.5458" x2="89.0397" y2="142.027" gradientUnits="userSpaceOnUse">
<stop stop-color="#363755"/>
<stop offset="0.18" stop-color="#2E2C41"/>
<stop offset="0.39" stop-color="#272432"/>
<stop offset="0.64" stop-color="#231F29"/>
<stop offset="0.99" stop-color="#221D26"/>
</linearGradient>
<linearGradient id="paint10_linear_270_3613" x1="89.0233" y1="126.739" x2="152.727" y2="180.221" gradientUnits="userSpaceOnUse">
<stop stop-color="#363755"/>
<stop offset="0.18" stop-color="#2E2C41"/>
<stop offset="0.39" stop-color="#272432"/>
<stop offset="0.64" stop-color="#231F29"/>
<stop offset="0.99" stop-color="#221D26"/>
</linearGradient>
<linearGradient id="paint11_linear_270_3613" x1="152.711" y1="164.933" x2="216.415" y2="218.414" gradientUnits="userSpaceOnUse">
<stop stop-color="#363755"/>
<stop offset="0.18" stop-color="#2E2C41"/>
<stop offset="0.39" stop-color="#272432"/>
<stop offset="0.64" stop-color="#231F29"/>
<stop offset="0.99" stop-color="#221D26"/>
</linearGradient>
<clipPath id="clip0_270_3613">
<rect width="487" height="234" fill="white" transform="translate(4)"/>
</clipPath>
</defs>
</svg>
