<svg width="560" height="333" viewBox="0 0 560 333" fill="none" xmlns="http://www.w3.org/2000/svg">
<g clip-path="url(#clip0_266_1471)" filter="url(#filter0_d_266_1471)">
<path d="M252.225 23.4883C261.349 18.1165 269.668 12.3821 278.752 7.01024C278.874 6.9299 279.005 6.8624 279.141 6.80879C281.658 5.84802 284.447 5.88645 286.937 6.91623C290.855 8.52778 311.571 21.0307 315.731 23.5555C316.103 23.7766 316.423 24.0761 316.669 24.4332C316.915 24.7903 317.08 25.1964 317.153 25.6236C317.18 25.8601 317.18 26.0989 317.153 26.3354C317.012 26.9365 316.749 27.5021 316.379 27.9966C316.01 28.4911 315.543 28.904 315.006 29.2093C306.365 35.1586 296.933 39.953 288.238 45.7411C286.91 46.6706 285.359 47.2313 283.743 47.3661C282.062 47.449 280.389 47.0779 278.9 46.2918C268.501 41.1482 254.748 32.5533 250.978 30.1763C250.606 29.9303 250.293 29.6055 250.061 29.2248C249.829 28.8442 249.684 28.417 249.636 27.9738C249.563 27.4391 249.563 26.897 249.636 26.3623C249.877 24.8716 251.38 24.1732 251.877 23.7569C251.981 23.6527 252.098 23.5624 252.225 23.4883Z" fill="#181220"/>
<path d="M249.542 26.9263V21.0576L253.205 21.8365L252.132 27.0472L249.542 26.9263Z" fill="#181220"/>
<path d="M317.153 25.4759V19.6072L313.49 20.3861L314.564 25.5968L317.153 25.4759Z" fill="#181220"/>
<path d="M252.225 17.3644C261.349 11.9926 269.668 6.2716 278.752 0.886341L279.141 0.698327C281.657 -0.269322 284.448 -0.230851 286.937 0.805764C290.855 2.41731 311.571 14.9202 315.731 17.445C316.106 17.6626 316.429 17.961 316.675 18.3187C316.921 18.6764 317.084 19.0844 317.153 19.5132C317.18 19.7452 317.18 19.9795 317.153 20.2115C317.015 20.8154 316.752 21.3839 316.383 21.8809C316.013 22.3779 315.544 22.7927 315.006 23.0989C306.365 29.0482 296.933 33.8425 288.238 39.6307C286.91 40.5601 285.359 41.1208 283.743 41.2557C282.06 41.3344 280.387 40.9587 278.9 40.1679C268.501 35.0378 254.748 26.4428 250.978 24.0524C250.607 23.8051 250.295 23.4799 250.064 23.0995C249.832 22.7191 249.686 22.2926 249.636 21.8499C249.563 21.3107 249.563 20.7641 249.636 20.2249C249.877 18.7477 251.38 18.0493 251.876 17.6196L252.225 17.3644Z" fill="url(#paint0_linear_266_1471)"/>
<path d="M292.479 47.6616C301.603 42.2898 309.921 36.5553 319.005 31.1835C319.128 31.1032 319.258 31.0357 319.394 30.9821C321.911 30.0213 324.7 30.0597 327.19 31.0895C331.108 32.7011 351.825 45.204 355.984 47.7288C356.357 47.9499 356.677 48.2494 356.922 48.6065C357.168 48.9635 357.333 49.3697 357.406 49.7969C357.433 50.0334 357.433 50.2722 357.406 50.5087C357.265 51.1098 357.002 51.6754 356.633 52.1699C356.263 52.6644 355.796 53.0773 355.26 53.3826C346.619 59.3319 337.186 64.1263 328.424 69.9144C327.096 70.8439 325.545 71.4046 323.929 71.5394C322.248 71.6223 320.575 71.2512 319.086 70.465C308.687 65.3215 294.934 56.7266 291.164 54.3495C290.792 54.1036 290.479 53.7788 290.247 53.3981C290.015 53.0174 289.87 52.5903 289.822 52.1471C289.749 51.6124 289.749 51.0702 289.822 50.5355C290.063 49.0449 291.566 48.3465 292.063 47.9302C292.187 47.8209 292.328 47.7304 292.479 47.6616Z" fill="#181220"/>
<path d="M289.795 51.0996V45.2308L293.458 46.0097L292.385 51.2204L289.795 51.0996Z" fill="#181220"/>
<path d="M357.406 49.6492V43.7805L353.743 44.5594L354.817 49.7701L357.406 49.6492Z" fill="#181220"/>
<path d="M292.478 41.5377C301.602 36.1659 309.921 30.4449 319.005 25.0596L319.394 24.8716C321.91 23.904 324.701 23.9424 327.19 24.979C331.108 26.5906 351.824 39.0935 355.984 41.6183C356.359 41.8359 356.682 42.1343 356.928 42.492C357.174 42.8497 357.337 43.2577 357.406 43.6864C357.433 43.9184 357.433 44.1528 357.406 44.3848C357.268 44.9886 357.005 45.5571 356.636 46.0542C356.266 46.5512 355.798 46.966 355.259 47.2721C346.618 53.2214 337.186 57.9487 328.424 63.8039C327.096 64.7334 325.545 65.2941 323.929 65.4289C322.246 65.5077 320.573 65.132 319.086 64.3411C308.687 59.211 294.934 50.6161 291.164 48.2256C290.793 47.9783 290.481 47.6531 290.25 47.2727C290.018 46.8923 289.872 46.4659 289.822 46.0232C289.749 45.484 289.749 44.9374 289.822 44.3982C290.063 42.921 291.566 42.2226 292.063 41.7929L292.478 41.5377Z" fill="url(#paint1_linear_266_1471)"/>
<path d="M331.389 71.8348C340.513 66.463 348.832 60.7286 357.916 55.3567C358.038 55.2764 358.169 55.2089 358.305 55.1553C360.822 54.1945 363.611 54.2329 366.101 55.2627C370.018 56.8743 390.735 69.3772 394.895 71.902C395.267 72.1231 395.587 72.4226 395.833 72.7797C396.078 73.1367 396.244 73.5429 396.317 73.9701C396.344 74.2066 396.344 74.4454 396.317 74.6819C396.176 75.283 395.913 75.8486 395.543 76.3431C395.174 76.8376 394.706 77.2505 394.17 77.5558C385.529 83.5051 376.097 88.2995 367.335 94.0876C366.006 95.0171 364.455 95.5778 362.84 95.7126C361.158 95.7955 359.485 95.4244 357.996 94.6383C347.598 89.4947 333.845 80.8998 330.074 78.5228C329.703 78.2768 329.39 77.952 329.158 77.5713C328.926 77.1906 328.781 76.7635 328.733 76.3203C328.659 75.7856 328.659 75.2435 328.733 74.7088C328.974 73.2181 330.477 72.5197 330.973 72.1034C331.098 71.9941 331.238 71.9036 331.389 71.8348Z" fill="#181220"/>
<path d="M328.706 75.2728V69.4041L332.369 70.183L331.296 75.3936L328.706 75.2728Z" fill="#181220"/>
<path d="M396.317 73.8224V67.9537L392.654 68.7326L393.728 73.9433L396.317 73.8224Z" fill="#181220"/>
<path d="M331.39 65.7109C340.514 60.3391 348.832 54.6181 357.916 49.2328L358.305 49.0448C360.821 48.0772 363.613 48.1156 366.101 49.1523C370.019 50.7638 390.736 63.2668 394.895 65.7915C395.271 66.0091 395.593 66.3075 395.839 66.6652C396.085 67.0229 396.248 67.4309 396.317 67.8597C396.344 68.0917 396.344 68.326 396.317 68.558C396.179 69.1619 395.916 69.7304 395.547 70.2274C395.177 70.7244 394.709 71.1392 394.171 71.4454C385.53 77.3947 376.097 82.1219 367.335 87.9772C366.007 88.9066 364.456 89.4673 362.84 89.6022C361.158 89.6809 359.485 89.3052 357.997 88.5144C347.598 83.3843 333.845 74.7893 330.075 72.3989C329.704 72.1516 329.392 71.8264 329.161 71.446C328.929 71.0656 328.783 70.6391 328.733 70.1964C328.66 69.6572 328.66 69.1106 328.733 68.5714C328.974 67.0942 330.477 66.3958 330.974 65.9661L331.39 65.7109Z" fill="url(#paint2_linear_266_1471)"/>
<path d="M371.642 95.5112C380.847 90.2737 389.219 84.687 398.477 79.3957C398.608 79.325 398.742 79.2622 398.88 79.2077C401.408 78.2889 404.192 78.3706 406.662 79.436C410.567 81.1147 431.082 93.9399 435.188 96.5318C435.553 96.7595 435.863 97.0657 436.095 97.428C436.327 97.7904 436.475 98.1999 436.53 98.6269C436.563 98.8584 436.563 99.0936 436.53 99.3252C436.38 99.9264 436.107 100.49 435.728 100.98C435.35 101.47 434.873 101.876 434.329 102.172C425.594 107.987 416.095 112.567 407.306 118.288C405.961 119.191 404.401 119.723 402.785 119.832C401.1 119.888 399.432 119.489 397.954 118.677C387.636 113.386 374.057 104.576 370.301 102.105C369.927 101.858 369.613 101.531 369.382 101.148C369.15 100.765 369.005 100.335 368.959 99.8892C368.887 99.3499 368.887 98.8036 368.959 98.2643C369.214 96.787 370.73 96.1021 371.226 95.6992C371.36 95.6254 371.499 95.5626 371.642 95.5112Z" fill="#181220"/>
<path d="M368.905 98.9089L368.999 93.0536L372.662 93.8862L371.494 99.0835L368.905 98.9089Z" fill="#181220"/>
<path d="M436.543 98.5194L436.637 92.6641L432.96 93.3759L433.953 98.6L436.543 98.5194Z" fill="#181220"/>
<path d="M371.723 89.4007C380.941 84.1632 389.3 78.5765 398.558 73.2852L398.947 73.0972C401.474 72.1716 404.26 72.2533 406.729 73.3255C410.634 75.0042 431.149 87.8294 435.268 90.4079C435.632 90.6405 435.94 90.9497 436.172 91.3138C436.404 91.678 436.553 92.0884 436.61 92.5164C436.644 92.7479 436.644 92.9831 436.61 93.2147C436.461 93.8159 436.188 94.3795 435.809 94.8696C435.43 95.3597 434.954 95.7657 434.41 96.0618C425.675 101.877 416.175 106.456 407.387 112.177C406.045 113.079 404.49 113.611 402.878 113.722C401.189 113.78 399.516 113.381 398.035 112.567C387.73 107.275 374.138 98.4522 370.381 95.9946C370.008 95.7473 369.694 95.4203 369.462 95.0372C369.23 94.6541 369.086 94.2243 369.039 93.7787C368.99 93.2365 369.012 92.6901 369.106 92.1538C369.361 90.6765 370.877 89.9916 371.387 89.5887C371.493 89.5155 371.605 89.4526 371.723 89.4007Z" fill="url(#paint3_linear_266_1471)"/>
<path d="M211.06 49.0985C220.171 43.7267 228.423 38.0191 237.546 32.6607C237.664 32.5806 237.79 32.513 237.922 32.4593C240.435 31.4993 243.219 31.5378 245.704 32.5667C249.622 34.1783 270.299 46.6544 274.445 49.1657C274.817 49.3869 275.137 49.6863 275.383 50.0434C275.629 50.4005 275.794 50.8066 275.867 51.2338C275.894 51.4703 275.894 51.7091 275.867 51.9456C275.731 52.5468 275.469 53.1124 275.099 53.6054C274.729 54.0983 274.259 54.5075 273.72 54.8061C265.093 60.7554 255.687 65.4692 247.006 71.3245C245.677 72.2414 244.133 72.7967 242.524 72.936C240.843 73.0189 239.17 72.6478 237.681 71.8617C227.309 66.7316 213.609 58.1501 209.826 55.7462C209.456 55.5017 209.144 55.1789 208.912 54.8007C208.68 54.4225 208.534 53.998 208.484 53.5572C208.411 53.0225 208.411 52.4803 208.484 51.9456C208.725 50.4549 210.228 49.7566 210.725 49.3403C210.828 49.2485 210.94 49.1675 211.06 49.0985Z" fill="#181220"/>
<path d="M208.404 52.5365V46.6812L212.067 47.4601L210.98 52.6574L208.404 52.5365Z" fill="#181220"/>
<path d="M275.881 51.0861V45.2308L272.231 46.0097L273.305 51.207L275.881 51.0861Z" fill="#181220"/>
<path d="M211.061 42.9747C220.171 37.6028 228.423 31.8953 237.547 26.5234L237.923 26.3354C240.434 25.3766 243.217 25.4102 245.705 26.4294C249.623 28.041 270.299 40.5305 274.445 43.0418C274.818 43.263 275.138 43.5624 275.383 43.9195C275.629 44.2766 275.794 44.6828 275.868 45.11C275.895 45.342 275.895 45.5763 275.868 45.8083C275.731 46.4113 275.47 46.9788 275.1 47.474C274.73 47.9691 274.26 48.3808 273.721 48.6822C265.093 54.6181 255.687 59.3453 247.006 65.1872C245.682 66.1144 244.136 66.675 242.525 66.8122C240.842 66.8909 239.169 66.5152 237.681 65.7244C227.309 60.6077 213.61 52.0262 209.826 49.6089C209.456 49.3643 209.144 49.0416 208.913 48.6634C208.681 48.2852 208.535 47.8607 208.484 47.4199C208.411 46.8807 208.411 46.3341 208.484 45.7949C208.726 44.3176 210.229 43.6193 210.725 43.203C210.829 43.1158 210.941 43.0393 211.061 42.9747Z" fill="url(#paint4_linear_266_1471)"/>
<path d="M251.233 73.2181C260.343 67.8462 268.595 62.1387 277.719 56.7803C277.837 56.7044 277.963 56.6413 278.095 56.5922C280.604 55.6183 283.392 55.652 285.877 56.6862C289.795 58.2978 310.471 70.7873 314.617 73.2986C314.993 73.5162 315.315 73.8147 315.561 74.1724C315.807 74.5301 315.971 74.9381 316.04 75.3668C316.067 75.5988 316.067 75.8331 316.04 76.0651C315.901 76.6672 315.638 77.2337 315.269 77.7286C314.899 78.2234 314.43 78.6357 313.893 78.9391C305.265 84.8749 295.859 89.5887 287.178 95.444C285.852 96.3665 284.306 96.9224 282.697 97.0556C281.015 97.1431 279.341 96.7718 277.853 95.9812C267.481 90.8645 253.782 82.283 249.998 79.8657C249.628 79.6184 249.316 79.2932 249.084 78.9128C248.852 78.5324 248.706 78.106 248.656 77.6633C248.583 77.1286 248.583 76.5864 248.656 76.0517C248.898 74.5744 250.401 73.8761 250.897 73.4464L251.233 73.2181Z" fill="#181220"/>
<path d="M248.576 76.6561V70.8142L252.239 71.5797L251.166 76.7769L248.576 76.6561Z" fill="#181220"/>
<path d="M316.053 75.2056V69.3638L312.39 70.1293L313.477 75.3399L316.053 75.2056Z" fill="#181220"/>
<path d="M251.233 67.1479C260.343 61.7761 268.595 56.0685 277.719 50.7101C277.837 50.6299 277.963 50.5624 278.095 50.5087C280.607 49.5487 283.392 49.5872 285.877 50.6161C289.795 52.2008 310.471 64.6769 314.618 67.1479C315.102 67.4203 315.496 67.8287 315.751 68.3228C316.006 68.8168 316.111 69.3748 316.053 69.9278C315.917 70.5291 315.655 71.0947 315.285 71.5876C314.915 72.0805 314.445 72.4897 313.906 72.7883C305.279 78.7376 295.873 83.4514 287.192 89.3067C285.866 90.2292 284.32 90.7851 282.71 90.9183C281.029 91.0012 279.356 90.6301 277.867 89.8439C267.495 84.7138 253.796 76.1323 250.012 73.7284C249.641 73.4853 249.328 73.1629 249.096 72.7844C248.864 72.4059 248.718 71.9808 248.67 71.5394C248.597 71.0047 248.597 70.4625 248.67 69.9278C248.912 68.4372 250.414 67.7388 250.911 67.3225C251.013 67.2547 251.12 67.1963 251.233 67.1479Z" fill="url(#paint5_linear_266_1471)"/>
<path d="M290.063 97.351C299.174 91.9792 307.426 86.2716 316.55 80.8998L316.939 80.7118C319.446 79.7525 322.224 79.7861 324.708 80.8058C328.625 82.4173 349.302 94.9068 353.448 97.4182C353.82 97.6393 354.141 97.9388 354.386 98.2959C354.632 98.6529 354.797 99.0591 354.87 99.4863C354.904 99.7179 354.904 99.9531 354.87 100.185C354.734 100.788 354.472 101.355 354.103 101.85C353.733 102.345 353.263 102.757 352.723 103.059C344.123 108.994 334.704 113.722 326.022 119.523C324.698 120.451 323.152 121.011 321.541 121.148C319.858 121.227 318.185 120.851 316.697 120.06C306.325 114.944 292.626 106.362 288.842 103.945C288.472 103.7 288.16 103.378 287.929 102.999C287.697 102.621 287.551 102.197 287.5 101.756C287.428 101.217 287.428 100.67 287.5 100.131C287.729 98.6537 289.231 97.9553 289.728 97.539C289.833 97.4659 289.946 97.4029 290.063 97.351Z" fill="#181220"/>
<path d="M287.407 100.789V94.9337L291.07 95.6992L289.996 100.91L287.407 100.789Z" fill="#181220"/>
<path d="M354.883 99.3386V93.4833L351.234 94.2623L352.307 99.4595L354.883 99.3386Z" fill="#181220"/>
<path d="M290.063 91.2406C299.174 85.8688 307.426 80.1746 316.549 74.8028L316.939 74.6148C319.443 73.6403 322.227 73.674 324.707 74.7088C328.625 76.3203 349.302 88.8098 353.448 91.3212C353.822 91.5402 354.144 91.8391 354.389 92.1965C354.635 92.554 354.799 92.9612 354.87 93.3893C354.904 93.6209 354.904 93.8561 354.87 94.0877C354.731 94.6897 354.469 95.2562 354.099 95.7511C353.73 96.2459 353.261 96.6582 352.723 96.9616C344.109 102.897 334.69 107.625 326.009 113.467C324.683 114.389 323.137 114.945 321.527 115.078C319.845 115.166 318.171 114.794 316.684 114.004C306.312 108.887 292.612 100.306 288.829 97.8882C288.459 97.6437 288.147 97.321 287.915 96.9428C287.683 96.5646 287.537 96.1401 287.487 95.6992C287.415 95.16 287.415 94.6135 287.487 94.0742C287.715 92.597 289.218 91.8986 289.714 91.4823C289.825 91.3944 289.942 91.3137 290.063 91.2406Z" fill="url(#paint6_linear_266_1471)"/>
<path d="M330.249 120.987C339.44 115.763 347.786 110.243 356.977 104.952C357.101 104.883 357.232 104.824 357.366 104.778C359.891 103.845 362.678 103.922 365.148 104.992C369.039 106.671 389.515 119.47 393.62 122.048C393.983 122.278 394.292 122.585 394.524 122.947C394.755 123.308 394.905 123.717 394.962 124.143C394.996 124.375 394.996 124.61 394.962 124.841C394.817 125.443 394.546 126.007 394.166 126.495C393.787 126.984 393.308 127.386 392.762 127.675C384.054 133.477 374.567 138.056 365.792 143.791C364.46 144.7 362.907 145.233 361.297 145.335C359.613 145.391 357.944 144.992 356.467 144.18C346.229 138.875 332.731 130.079 328.921 127.581C328.549 127.332 328.236 127.005 328.004 126.622C327.772 126.239 327.627 125.81 327.579 125.365C327.53 124.823 327.552 124.277 327.646 123.74C327.901 122.263 329.417 121.591 329.914 121.175L330.249 120.987Z" fill="#181220"/>
<path d="M327.539 124.371L327.632 118.529L331.269 119.362L330.115 124.546L327.539 124.371Z" fill="#181220"/>
<path d="M395.029 123.995L395.123 118.14L391.447 118.852L392.44 124.076L395.029 123.995Z" fill="#181220"/>
<path d="M330.343 114.89C339.534 109.666 347.88 104.146 357.071 98.8552L357.46 98.6672C359.988 97.7484 362.772 97.8301 365.242 98.8955C369.133 100.574 389.608 113.373 393.714 115.951C394.186 116.235 394.564 116.65 394.803 117.147C395.041 117.643 395.129 118.199 395.056 118.744C394.908 119.345 394.636 119.907 394.257 120.396C393.878 120.884 393.4 121.287 392.855 121.578C384.147 127.38 374.661 131.959 365.899 137.694C364.558 138.595 363.003 139.128 361.391 139.238C359.707 139.294 358.038 138.895 356.561 138.083C346.269 132.805 332.704 124.009 328.961 121.538C328.585 121.296 328.269 120.972 328.037 120.591C327.805 120.209 327.662 119.78 327.619 119.335C327.54 118.796 327.54 118.249 327.619 117.71C327.874 116.233 329.39 115.562 329.887 115.145L330.343 114.89Z" fill="url(#paint7_linear_266_1471)"/>
<path d="M211.061 98.694C220.171 93.3221 228.423 87.6146 237.547 82.2427L237.923 82.0547C240.433 81.0891 243.218 81.1228 245.705 82.1487C249.623 83.7603 270.299 96.2498 274.445 98.7611C274.82 98.9802 275.141 99.279 275.387 99.6365C275.633 99.9939 275.797 100.401 275.868 100.829C275.895 101.061 275.895 101.296 275.868 101.528C275.729 102.13 275.466 102.696 275.097 103.191C274.727 103.686 274.258 104.098 273.721 104.402C265.093 110.337 255.687 115.065 247.006 120.906C245.68 121.829 244.134 122.385 242.525 122.518C240.843 122.606 239.169 122.234 237.681 121.444C227.309 116.327 213.61 107.746 209.826 105.328C209.456 105.084 209.144 104.761 208.913 104.383C208.681 104.005 208.535 103.58 208.484 103.139C208.411 102.6 208.411 102.053 208.484 101.514C208.726 100.037 210.229 99.3386 210.725 98.9223C210.829 98.8351 210.941 98.7586 211.061 98.694Z" fill="#181220"/>
<path d="M208.404 102.119V96.2767L212.067 97.0422L210.98 102.253L208.404 102.119Z" fill="#181220"/>
<path d="M275.881 100.682V94.8263L272.231 95.5918L273.305 100.802L275.881 100.682Z" fill="#181220"/>
<path d="M211.061 92.5835C220.171 87.2117 228.423 81.5041 237.547 76.1457C237.668 76.0706 237.793 76.0034 237.923 75.9443C240.435 74.9843 243.22 75.0228 245.705 76.0517C249.623 77.6633 270.299 90.1528 274.445 92.6641C274.821 92.8817 275.143 93.1801 275.389 93.5378C275.635 93.8955 275.799 94.3035 275.868 94.7323C275.895 94.9642 275.895 95.1986 275.868 95.4306C275.726 96.035 275.459 96.603 275.085 97.098C274.711 97.593 274.237 98.004 273.694 98.3045C265.066 104.24 255.661 108.954 246.98 114.809C245.653 115.732 244.108 116.288 242.498 116.421C240.816 116.509 239.142 116.137 237.654 115.347C227.282 110.23 213.583 101.635 209.799 99.2312C209.429 98.9839 209.117 98.6587 208.885 98.2783C208.654 97.8979 208.508 97.4714 208.458 97.0287C208.385 96.494 208.385 95.9519 208.458 95.4172C208.699 93.9265 210.202 93.2281 210.698 92.8118L211.061 92.5835Z" fill="url(#paint8_linear_266_1471)"/>
<path d="M249.891 122.813C259.001 117.442 267.253 111.734 276.377 106.362L276.766 106.174C279.274 105.214 282.055 105.252 284.535 106.282C288.453 107.893 309.13 120.369 313.276 122.881C313.642 123.096 313.958 123.387 314.204 123.734C314.449 124.082 314.617 124.477 314.698 124.895C314.732 125.131 314.732 125.371 314.698 125.607C314.575 126.213 314.324 126.786 313.963 127.288C313.603 127.791 313.14 128.211 312.605 128.521C303.991 134.47 294.571 139.184 285.89 145.039C284.561 145.956 283.017 146.512 281.409 146.651C279.728 146.725 278.057 146.355 276.565 145.577C266.193 140.447 252.494 131.865 248.71 129.461C248.34 129.217 248.028 128.894 247.797 128.516C247.565 128.137 247.419 127.713 247.368 127.272C247.296 126.737 247.296 126.195 247.368 125.661C247.596 124.17 249.099 123.472 249.596 123.055C249.686 122.966 249.785 122.885 249.891 122.813Z" fill="#181220"/>
<path d="M247.234 126.251V120.396L250.897 121.162L249.824 126.372L247.234 126.251Z" fill="#181220"/>
<path d="M314.711 124.801V118.946L311.062 119.725L312.135 124.922L314.711 124.801Z" fill="#181220"/>
<path d="M249.891 116.716C259.002 111.345 267.254 105.637 276.377 100.265L276.767 100.077C279.272 99.1097 282.054 99.1434 284.535 100.171C288.453 101.783 309.13 114.272 313.276 116.837C313.648 117.059 313.968 117.358 314.214 117.715C314.46 118.072 314.625 118.478 314.698 118.905C314.732 119.137 314.732 119.372 314.698 119.604C314.562 120.207 314.3 120.774 313.93 121.27C313.56 121.765 313.091 122.176 312.551 122.478C303.937 128.414 294.518 133.141 285.837 138.983C284.514 139.911 282.966 140.467 281.355 140.594C279.673 140.682 277.999 140.31 276.512 139.52C266.14 134.403 252.44 125.822 248.657 123.404C248.287 123.16 247.975 122.837 247.743 122.459C247.511 122.081 247.365 121.656 247.315 121.215C247.243 120.676 247.243 120.13 247.315 119.59C247.543 118.113 249.046 117.415 249.542 116.999C249.648 116.892 249.765 116.797 249.891 116.716Z" fill="url(#paint9_linear_266_1471)"/>
<path d="M289.795 146.544C298.999 141.306 307.345 135.719 316.563 130.428L316.952 130.24C319.48 129.321 322.264 129.403 324.734 130.468C328.639 132.147 349.127 144.972 353.233 147.564C353.596 147.794 353.904 148.101 354.136 148.463C354.368 148.825 354.518 149.233 354.575 149.659C354.608 149.891 354.608 150.126 354.575 150.358C354.425 150.959 354.152 151.522 353.773 152.013C353.395 152.503 352.918 152.909 352.374 153.205C343.653 159.02 334.153 163.599 325.378 169.32C324.032 170.223 322.473 170.756 320.856 170.865C319.172 170.92 317.504 170.521 316.026 169.71C305.721 164.418 292.143 155.609 288.399 153.138C288.026 152.89 287.712 152.563 287.48 152.18C287.248 151.797 287.104 151.367 287.058 150.922C287.008 150.379 287.031 149.833 287.125 149.297C287.38 147.819 288.896 147.135 289.392 146.732C289.521 146.658 289.656 146.596 289.795 146.544Z" fill="#00372D"/>
<path d="M287.071 149.941L287.152 144.086L290.801 144.919L289.647 150.116L287.071 149.941Z" fill="#00372D"/>
<path d="M354.642 149.552L354.723 143.697L351.06 144.408L352.052 149.632L354.642 149.552Z" fill="#00372D"/>
<path d="M289.875 140.433C299.08 135.196 307.425 129.609 316.643 124.318L317.032 124.13C319.56 123.204 322.346 123.286 324.815 124.358C328.719 126.037 349.208 138.862 353.327 141.44C353.69 141.673 353.999 141.982 354.23 142.346C354.462 142.71 354.612 143.121 354.669 143.549C354.702 143.78 354.702 144.016 354.669 144.247C354.519 144.848 354.246 145.412 353.867 145.902C353.488 146.392 353.012 146.798 352.468 147.094C343.747 152.909 334.247 157.489 325.472 163.21C324.106 164.163 322.496 164.705 320.833 164.774C319.169 164.843 317.52 164.436 316.08 163.599C305.762 158.308 292.196 149.485 288.439 147.027C288.066 146.78 287.752 146.453 287.52 146.07C287.288 145.686 287.144 145.257 287.098 144.811C287.026 144.272 287.026 143.725 287.098 143.186C287.353 141.709 288.869 141.024 289.365 140.621L289.875 140.433Z" fill="url(#paint10_linear_266_1471)"/>
<path d="M128.784 100.037C137.907 94.6651 146.226 88.9307 155.31 83.5589C155.433 83.4786 155.563 83.411 155.699 83.3574C158.216 82.3967 161.005 82.4351 163.495 83.4649C167.413 85.0764 188.13 97.5794 192.289 100.104C192.662 100.325 192.982 100.625 193.227 100.982C193.473 101.339 193.638 101.745 193.711 102.172C193.738 102.409 193.738 102.648 193.711 102.884C193.57 103.485 193.307 104.051 192.938 104.545C192.568 105.04 192.101 105.453 191.564 105.758C182.924 111.707 173.491 116.502 164.796 122.29C163.468 123.219 161.917 123.78 160.301 123.915C158.62 123.998 156.947 123.627 155.458 122.84C145.059 117.697 131.306 109.102 127.536 106.725C127.164 106.479 126.851 106.154 126.619 105.773C126.388 105.393 126.242 104.966 126.194 104.522C126.121 103.988 126.121 103.446 126.194 102.911C126.435 101.42 127.938 100.722 128.435 100.306C128.539 100.201 128.656 100.111 128.784 100.037Z" fill="#181220"/>
<path d="M126.1 103.475V97.6062L129.763 98.3851L128.69 103.596L126.1 103.475Z" fill="#181220"/>
<path d="M193.711 102.025V96.1558L190.048 96.9347L191.122 102.145L193.711 102.025Z" fill="#181220"/>
<path d="M128.783 93.9131C137.907 88.5412 146.226 82.8202 155.31 77.435L155.699 77.247C158.215 76.2793 161.006 76.3178 163.495 77.3544C167.413 78.966 188.13 91.4689 192.289 93.9937C192.664 94.2112 192.987 94.5097 193.233 94.8674C193.479 95.2251 193.642 95.6331 193.711 96.0618C193.738 96.2938 193.738 96.5282 193.711 96.7602C193.573 97.364 193.31 97.9325 192.941 98.4295C192.571 98.9266 192.103 99.3413 191.564 99.6475C182.923 105.597 173.491 110.391 164.796 116.179C163.468 117.109 161.917 117.669 160.301 117.804C158.619 117.883 156.946 117.507 155.458 116.717C145.059 111.586 131.306 102.991 127.536 100.601C127.165 100.354 126.853 100.029 126.622 99.6481C126.39 99.2677 126.244 98.8413 126.194 98.3986C126.121 97.8594 126.121 97.3128 126.194 96.7736C126.435 95.2963 127.938 94.598 128.435 94.1682L128.783 93.9131Z" fill="url(#paint11_linear_266_1471)"/>
<path d="M169.546 124.156C178.657 118.785 186.909 113.077 196.033 107.705L196.422 107.517C198.929 106.558 201.707 106.591 204.191 107.611C208.122 109.223 228.785 121.712 232.931 124.224C233.298 124.439 233.614 124.73 233.859 125.077C234.104 125.425 234.273 125.82 234.353 126.238C234.387 126.47 234.387 126.705 234.353 126.936C234.217 127.539 233.956 128.107 233.586 128.602C233.216 129.097 232.746 129.509 232.207 129.81C223.593 135.746 214.173 140.473 205.492 146.315C204.169 147.245 202.622 147.806 201.011 147.94C199.332 148.021 197.663 147.645 196.18 146.852C185.795 141.736 172.029 133.154 168.312 130.737C167.942 130.492 167.63 130.17 167.398 129.791C167.167 129.413 167.02 128.989 166.97 128.548C166.898 128.009 166.898 127.462 166.97 126.923C167.198 125.446 168.701 124.747 169.198 124.331C169.308 124.262 169.425 124.203 169.546 124.156Z" fill="#181220"/>
<path d="M166.89 127.594V121.739L170.553 122.505L169.479 127.715L166.89 127.594Z" fill="#181220"/>
<path d="M234.367 126.144V120.289L230.717 121.054L231.791 126.265L234.367 126.144Z" fill="#181220"/>
<path d="M169.547 118.046C178.657 112.674 186.909 106.98 196.033 101.608L196.422 101.42C198.926 100.446 201.711 100.479 204.191 101.514C208.122 103.126 228.785 115.615 232.931 118.127C233.306 118.346 233.627 118.644 233.873 119.002C234.119 119.359 234.283 119.767 234.354 120.195C234.387 120.426 234.387 120.662 234.354 120.893C234.215 121.495 233.952 122.062 233.583 122.557C233.213 123.051 232.744 123.464 232.207 123.767C223.593 129.703 214.173 134.43 205.492 140.272C204.149 141.233 202.562 141.794 200.914 141.889C199.266 141.984 197.625 141.609 196.18 140.809C185.795 135.692 172.029 127.111 168.312 124.694C167.942 124.449 167.63 124.126 167.399 123.748C167.167 123.37 167.021 122.945 166.97 122.505C166.898 121.965 166.898 121.419 166.97 120.88C167.198 119.402 168.701 118.704 169.198 118.274L169.547 118.046Z" fill="url(#paint12_linear_266_1471)"/>
<path d="M208.39 148.276C217.487 142.904 225.752 137.197 234.863 131.838C234.985 131.758 235.116 131.69 235.252 131.637C237.76 130.676 240.54 130.715 243.021 131.744C246.952 133.356 267.615 145.832 271.761 148.343C272.24 148.623 272.631 149.032 272.887 149.524C273.143 150.016 273.256 150.57 273.211 151.123C273.072 151.725 272.808 152.291 272.435 152.784C272.063 153.277 271.591 153.686 271.05 153.984C262.436 159.933 253.017 164.647 244.336 170.502C243.011 171.427 241.464 171.983 239.854 172.114C238.177 172.194 236.509 171.823 235.024 171.039C224.639 165.909 210.872 157.328 207.169 154.924C206.797 154.682 206.483 154.36 206.251 153.981C206.019 153.602 205.874 153.177 205.827 152.735C205.755 152.2 205.755 151.658 205.827 151.123C206.055 149.632 207.558 148.934 208.055 148.518C208.161 148.43 208.273 148.35 208.39 148.276Z" fill="#181220"/>
<path d="M205.72 151.714V145.859L209.383 146.638L208.31 151.835L205.72 151.714Z" fill="#181220"/>
<path d="M273.197 150.264V144.408L269.548 145.187L270.621 150.384L273.197 150.264Z" fill="#181220"/>
<path d="M208.39 142.179C217.488 136.807 225.753 131.1 234.863 125.728L235.252 125.54C237.76 124.58 240.538 124.614 243.021 125.634C246.953 127.259 267.616 139.735 271.762 142.246C272.241 142.522 272.631 142.929 272.888 143.419C273.144 143.908 273.256 144.461 273.211 145.013C273.072 145.616 272.808 146.184 272.436 146.68C272.064 147.175 271.592 147.586 271.051 147.887C262.436 153.822 253.017 158.55 244.336 164.391C243.013 165.321 241.466 165.882 239.855 166.016C238.178 166.091 236.512 165.72 235.024 164.942C224.639 159.812 210.873 151.23 207.169 148.827C206.798 148.583 206.485 148.261 206.253 147.883C206.021 147.504 205.876 147.079 205.828 146.638C205.755 146.098 205.755 145.552 205.828 145.013C206.056 143.535 207.559 142.837 208.055 142.421C208.159 142.329 208.271 142.248 208.39 142.179Z" fill="url(#paint13_linear_266_1471)"/>
<path d="M411.895 120.181C421.019 114.809 429.338 109.075 438.422 103.703C438.544 103.623 438.675 103.555 438.811 103.502C441.328 102.541 444.117 102.579 446.606 103.609C450.524 105.221 471.241 117.724 475.401 120.248C475.773 120.47 476.093 120.769 476.339 121.126C476.584 121.483 476.749 121.889 476.823 122.317C476.85 122.553 476.85 122.792 476.823 123.028C476.682 123.63 476.418 124.195 476.049 124.69C475.68 125.184 475.212 125.597 474.676 125.902C466.035 131.852 456.603 136.646 447.841 142.434C446.512 143.364 444.961 143.924 443.346 144.059C441.664 144.142 439.991 143.771 438.502 142.985C428.104 137.841 414.35 129.246 410.58 126.869C410.209 126.623 409.896 126.298 409.664 125.918C409.432 125.537 409.287 125.11 409.238 124.667C409.165 124.132 409.165 123.59 409.238 123.055C409.48 121.565 410.983 120.866 411.479 120.45C411.604 120.341 411.744 120.25 411.895 120.181Z" fill="#181220"/>
<path d="M409.211 123.619V117.751L412.874 118.529L411.801 123.74L409.211 123.619Z" fill="#181220"/>
<path d="M476.823 122.169V116.3L473.16 117.079L474.233 122.29L476.823 122.169Z" fill="#181220"/>
<path d="M411.895 114.057C421.019 108.686 429.338 102.965 438.422 97.5793L438.811 97.3913C441.327 96.4237 444.118 96.4621 446.606 97.4988C450.524 99.1103 471.241 111.613 475.4 114.138C475.776 114.356 476.098 114.654 476.344 115.012C476.59 115.369 476.754 115.777 476.823 116.206C476.85 116.438 476.85 116.673 476.823 116.905C476.684 117.508 476.422 118.077 476.052 118.574C475.683 119.071 475.214 119.486 474.676 119.792C466.035 125.741 456.602 130.536 447.841 136.324C446.512 137.253 444.961 137.814 443.346 137.949C441.663 138.027 439.99 137.652 438.502 136.861C428.103 131.731 414.35 123.136 410.58 120.745C410.21 120.498 409.898 120.173 409.666 119.792C409.434 119.412 409.288 118.986 409.238 118.543C409.165 118.004 409.165 117.457 409.238 116.918C409.48 115.441 410.983 114.742 411.479 114.313L411.895 114.057Z" fill="url(#paint14_linear_266_1471)"/>
<path d="M452.148 144.355C461.272 138.983 469.591 133.248 478.675 127.876C478.797 127.796 478.927 127.729 479.064 127.675C481.581 126.714 484.37 126.753 486.859 127.782C490.777 129.394 511.494 141.897 515.653 144.422C516.026 144.643 516.346 144.942 516.592 145.299C516.837 145.656 517.002 146.063 517.076 146.49C517.103 146.726 517.103 146.965 517.076 147.202C516.935 147.803 516.671 148.368 516.302 148.863C515.933 149.357 515.465 149.77 514.929 150.076C506.288 156.025 496.855 160.819 488.094 166.607C486.765 167.537 485.214 168.097 483.599 168.232C481.917 168.315 480.244 167.944 478.755 167.158C468.356 162.014 454.603 153.42 450.833 151.042C450.462 150.797 450.149 150.472 449.917 150.091C449.685 149.71 449.54 149.283 449.491 148.84C449.418 148.305 449.418 147.763 449.491 147.228C449.733 145.738 451.236 145.039 451.732 144.623C451.857 144.514 451.997 144.423 452.148 144.355Z" fill="#181220"/>
<path d="M449.464 147.793V141.924L453.127 142.703L452.054 147.913L449.464 147.793Z" fill="#181220"/>
<path d="M517.076 146.342V140.473L513.413 141.252L514.486 146.463L517.076 146.342Z" fill="#181220"/>
<path d="M452.148 138.231C461.272 132.859 469.591 127.138 478.675 121.753L479.064 121.565C481.58 120.597 484.371 120.635 486.859 121.672C490.777 123.284 511.494 135.786 515.653 138.311C516.029 138.529 516.351 138.827 516.597 139.185C516.843 139.543 517.007 139.951 517.076 140.379C517.103 140.611 517.103 140.846 517.076 141.078C516.937 141.682 516.675 142.25 516.305 142.747C515.936 143.244 515.467 143.659 514.929 143.965C506.288 149.914 496.855 154.709 488.094 160.497C486.765 161.426 485.214 161.987 483.599 162.122C481.916 162.201 480.243 161.825 478.755 161.034C468.356 155.904 454.603 147.309 450.833 144.919C450.463 144.671 450.151 144.346 449.919 143.966C449.687 143.585 449.541 143.159 449.491 142.716C449.418 142.177 449.418 141.63 449.491 141.091C449.733 139.614 451.236 138.916 451.732 138.486L452.148 138.231Z" fill="url(#paint15_linear_266_1471)"/>
<path d="M491.059 168.528C500.183 163.156 508.501 157.422 517.585 152.05C517.708 151.969 517.838 151.902 517.974 151.848C520.491 150.888 523.28 150.926 525.77 151.956C529.688 153.567 550.405 166.07 554.564 168.595C554.937 168.816 555.257 169.116 555.502 169.473C555.748 169.83 555.913 170.236 555.986 170.663C556.013 170.9 556.013 171.138 555.986 171.375C555.845 171.976 555.582 172.542 555.213 173.036C554.843 173.531 554.376 173.943 553.84 174.249C545.199 180.198 535.766 184.925 527.004 190.781C525.676 191.71 524.125 192.271 522.509 192.406C520.828 192.488 519.155 192.117 517.666 191.331C507.267 186.188 493.514 177.593 489.744 175.216C489.372 174.97 489.059 174.645 488.827 174.264C488.596 173.884 488.45 173.457 488.402 173.013C488.329 172.479 488.329 171.936 488.402 171.402C488.643 169.911 490.146 169.213 490.643 168.796C490.768 168.687 490.908 168.597 491.059 168.528Z" fill="#181220"/>
<path d="M488.375 171.966V166.097L492.039 166.876L490.965 172.087L488.375 171.966Z" fill="#181220"/>
<path d="M555.987 170.515V164.647L552.324 165.426L553.397 170.636L555.987 170.515Z" fill="#181220"/>
<path d="M491.059 162.404C500.183 157.032 508.502 151.311 517.586 145.926L517.975 145.738C520.491 144.77 523.282 144.809 525.77 145.845C529.688 147.457 550.405 159.96 554.565 162.485C554.94 162.702 555.262 163.001 555.508 163.358C555.754 163.716 555.918 164.124 555.987 164.553C556.014 164.785 556.014 165.019 555.987 165.251C555.848 165.855 555.586 166.423 555.216 166.92C554.847 167.417 554.378 167.832 553.84 168.138C545.199 174.088 535.767 178.882 527.005 184.67C525.676 185.6 524.125 186.16 522.51 186.295C520.827 186.374 519.154 185.998 517.666 185.207C507.267 180.077 493.514 171.482 489.744 169.092C489.374 168.845 489.062 168.519 488.83 168.139C488.598 167.759 488.452 167.332 488.402 166.889C488.329 166.35 488.329 165.804 488.402 165.264C488.644 163.787 490.147 163.089 490.643 162.659L491.059 162.404Z" fill="url(#paint16_linear_266_1471)"/>
<path d="M370.408 145.604C379.518 140.232 387.77 134.524 396.894 129.152L397.27 128.964C399.779 127.99 402.567 128.024 405.052 129.058C408.97 130.67 429.647 143.159 433.793 145.671C434.167 145.89 434.488 146.189 434.734 146.546C434.98 146.903 435.144 147.311 435.215 147.739C435.242 147.971 435.242 148.205 435.215 148.437C435.076 149.039 434.814 149.606 434.444 150.101C434.074 150.595 433.606 151.008 433.068 151.311C424.441 157.247 415.035 161.974 406.354 167.816C405.027 168.739 403.482 169.294 401.872 169.428C400.19 169.515 398.516 169.144 397.028 168.353C386.657 163.237 372.957 154.655 369.173 152.238C368.804 151.993 368.492 151.67 368.26 151.292C368.028 150.914 367.882 150.49 367.832 150.049C367.759 149.509 367.759 148.963 367.832 148.424C368.06 146.946 369.563 146.248 370.059 145.832C370.167 145.744 370.284 145.667 370.408 145.604Z" fill="#181220"/>
<path d="M367.751 149.028V143.186L371.414 143.952L370.341 149.162L367.751 149.028Z" fill="#181220"/>
<path d="M435.228 147.578V141.736L431.579 142.501L432.652 147.712L435.228 147.578Z" fill="#181220"/>
<path d="M370.408 139.493C379.518 134.121 387.77 128.414 396.894 123.055C397.013 122.978 397.139 122.91 397.27 122.854C399.782 121.894 402.567 121.932 405.052 122.961C408.97 124.573 429.646 137.062 433.792 139.56C434.277 139.833 434.671 140.241 434.926 140.735C435.181 141.229 435.286 141.787 435.228 142.34C435.089 142.942 434.827 143.509 434.457 144.004C434.088 144.498 433.619 144.911 433.081 145.214C424.454 151.15 415.048 155.864 406.367 161.719C405.041 162.641 403.495 163.197 401.885 163.331C400.204 163.413 398.531 163.042 397.042 162.256C386.67 157.14 372.97 148.545 369.187 146.141C368.816 145.893 368.504 145.568 368.273 145.188C368.041 144.807 367.895 144.381 367.845 143.938C367.772 143.404 367.772 142.861 367.845 142.327C368.073 140.836 369.576 140.138 370.072 139.721C370.179 139.638 370.291 139.562 370.408 139.493Z" fill="url(#paint17_linear_266_1471)"/>
<path d="M330.048 170.717C339.252 165.479 347.598 159.893 356.816 154.601L357.205 154.413C359.733 153.495 362.517 153.576 364.987 154.642C368.892 156.32 389.38 169.146 393.486 171.737C393.849 171.967 394.157 172.274 394.389 172.636C394.621 172.998 394.771 173.406 394.828 173.832C394.861 174.064 394.861 174.299 394.828 174.531C394.678 175.132 394.405 175.696 394.026 176.186C393.648 176.676 393.171 177.082 392.627 177.378C383.906 183.193 374.406 187.772 365.631 193.493C364.285 194.396 362.726 194.929 361.109 195.038C359.425 195.094 357.756 194.695 356.279 193.883C345.974 188.592 332.396 179.782 328.652 177.311C328.279 177.063 327.965 176.736 327.733 176.353C327.501 175.97 327.357 175.54 327.31 175.095C327.261 174.553 327.284 174.006 327.378 173.47C327.632 171.993 329.149 171.308 329.645 170.905C329.774 170.832 329.909 170.769 330.048 170.717Z" fill="#00372D"/>
<path d="M327.324 174.115L327.404 168.259L331.054 169.092L329.9 174.289L327.324 174.115Z" fill="#00372D"/>
<path d="M394.895 173.725L394.976 167.87L391.312 168.582L392.305 173.819L394.895 173.725Z" fill="#00372D"/>
<path d="M330.128 164.606C339.333 159.369 347.678 153.782 356.896 148.491L357.285 148.303C359.813 147.377 362.599 147.459 365.067 148.531C368.972 150.21 389.461 163.035 393.58 165.614C393.943 165.846 394.252 166.155 394.483 166.52C394.715 166.884 394.865 167.294 394.922 167.722C394.955 167.954 394.955 168.189 394.922 168.42C394.772 169.022 394.499 169.585 394.12 170.075C393.741 170.565 393.265 170.971 392.721 171.267C384 177.082 374.5 181.662 365.725 187.383C364.359 188.336 362.749 188.879 361.085 188.948C359.422 189.017 357.773 188.609 356.333 187.772C346.014 182.481 332.449 173.658 328.692 171.2C328.319 170.953 328.005 170.626 327.773 170.243C327.541 169.86 327.397 169.43 327.351 168.984C327.279 168.445 327.279 167.899 327.351 167.359C327.606 165.882 329.122 165.197 329.618 164.794L330.128 164.606Z" fill="url(#paint18_linear_266_1471)"/>
<path d="M248.2 172.06C257.405 166.822 265.751 161.236 274.969 155.944L275.358 155.756C277.886 154.838 280.67 154.919 283.14 155.985C287.044 157.663 307.533 170.489 311.639 173.08C312.002 173.31 312.31 173.617 312.542 173.979C312.774 174.341 312.924 174.749 312.981 175.175C313.014 175.407 313.014 175.642 312.981 175.874C312.831 176.475 312.558 177.039 312.179 177.529C311.8 178.019 311.324 178.425 310.78 178.721C302.059 184.536 292.559 189.115 283.784 194.836C282.438 195.739 280.879 196.272 279.262 196.381C277.578 196.437 275.909 196.038 274.432 195.226C264.127 189.935 250.549 181.125 246.805 178.654C246.432 178.406 246.118 178.079 245.886 177.696C245.654 177.313 245.51 176.883 245.463 176.438C245.414 175.896 245.437 175.349 245.53 174.813C245.785 173.336 247.301 172.651 247.798 172.248C247.927 172.175 248.062 172.112 248.2 172.06Z" fill="#00372D"/>
<path d="M245.477 175.457L245.557 169.602L249.207 170.435L248.053 175.632L245.477 175.457Z" fill="#00372D"/>
<path d="M313.047 175.068L313.141 169.213L309.465 169.924L310.458 175.162L313.047 175.068Z" fill="#00372D"/>
<path d="M248.281 165.949C257.485 160.712 265.831 155.125 275.049 149.834L275.438 149.646C277.965 148.72 280.751 148.802 283.22 149.874C287.125 151.553 307.613 164.378 311.733 166.957C312.096 167.189 312.404 167.498 312.636 167.862C312.868 168.227 313.017 168.637 313.074 169.065C313.108 169.297 313.108 169.532 313.074 169.763C312.925 170.365 312.652 170.928 312.273 171.418C311.894 171.908 311.418 172.314 310.874 172.61C302.153 178.425 292.653 183.005 283.878 188.726C282.512 189.679 280.902 190.222 279.238 190.291C277.575 190.36 275.926 189.952 274.485 189.115C264.167 183.824 250.602 175.001 246.845 172.543C246.472 172.296 246.158 171.969 245.926 171.586C245.694 171.203 245.55 170.773 245.503 170.327C245.432 169.788 245.432 169.242 245.503 168.702C245.758 167.225 247.275 166.54 247.771 166.137L248.281 165.949Z" fill="url(#paint19_linear_266_1471)"/>
<path d="M288.453 196.233C297.657 190.995 306.003 185.409 315.221 180.118L315.61 179.929C318.139 179.011 320.922 179.092 323.392 180.158C327.297 181.836 347.786 194.662 351.891 197.254C352.254 197.483 352.563 197.79 352.794 198.152C353.026 198.514 353.176 198.923 353.233 199.349C353.267 199.58 353.267 199.815 353.233 200.047C353.083 200.648 352.81 201.212 352.432 201.702C352.053 202.192 351.576 202.598 351.033 202.894C342.311 208.709 332.811 213.289 324.036 219.01C322.691 219.913 321.131 220.445 319.515 220.554C317.83 220.61 316.162 220.211 314.684 219.399C304.38 214.108 290.801 205.298 287.057 202.827C286.684 202.58 286.37 202.253 286.138 201.87C285.906 201.486 285.762 201.057 285.716 200.611C285.667 200.069 285.689 199.522 285.783 198.986C286.038 197.509 287.554 196.824 288.05 196.421C288.179 196.348 288.314 196.285 288.453 196.233Z" fill="#00372D"/>
<path d="M285.729 199.631L285.81 193.775L289.46 194.608L288.306 199.805L285.729 199.631Z" fill="#00372D"/>
<path d="M353.3 199.241L353.381 193.386L349.718 194.098L350.711 199.335L353.3 199.241Z" fill="#00372D"/>
<path d="M288.533 190.123C297.738 184.885 306.084 179.298 315.301 174.007L315.691 173.819C318.218 172.893 321.004 172.975 323.473 174.047C327.377 175.726 347.866 188.551 351.985 191.13C352.349 191.362 352.657 191.672 352.889 192.036C353.12 192.4 353.27 192.81 353.327 193.238C353.361 193.47 353.361 193.705 353.327 193.937C353.177 194.538 352.904 195.101 352.526 195.591C352.147 196.082 351.67 196.488 351.126 196.784C342.405 202.599 332.905 207.178 324.13 212.899C322.764 213.852 321.155 214.395 319.491 214.464C317.827 214.533 316.178 214.125 314.738 213.289C304.42 207.997 290.855 199.174 287.098 196.716C286.724 196.469 286.411 196.142 286.179 195.759C285.947 195.376 285.802 194.946 285.756 194.501C285.684 193.961 285.684 193.415 285.756 192.876C286.011 191.398 287.527 190.713 288.023 190.311L288.533 190.123Z" fill="url(#paint20_linear_266_1471)"/>
<path d="M328.706 220.903C337.83 215.531 346.149 209.797 355.233 204.425C355.355 204.345 355.486 204.277 355.622 204.224C358.139 203.263 360.928 203.301 363.417 204.331C367.335 205.943 388.052 218.446 392.212 220.97C392.584 221.191 392.904 221.491 393.15 221.848C393.395 222.205 393.56 222.611 393.634 223.038C393.661 223.275 393.661 223.514 393.634 223.75C393.493 224.351 393.229 224.917 392.86 225.411C392.491 225.906 392.023 226.319 391.487 226.624C382.846 232.573 373.414 237.301 364.652 243.156C363.323 244.085 361.772 244.646 360.157 244.781C358.475 244.864 356.802 244.493 355.313 243.707C344.915 238.563 331.162 229.968 327.391 227.591C327.02 227.345 326.707 227.02 326.475 226.64C326.243 226.259 326.098 225.832 326.049 225.389C325.976 224.854 325.976 224.312 326.049 223.777C326.291 222.286 327.794 221.588 328.29 221.172C328.415 221.062 328.555 220.972 328.706 220.903Z" fill="#181220"/>
<path d="M326.022 224.341V218.472L329.685 219.251L328.612 224.462L326.022 224.341Z" fill="#181220"/>
<path d="M393.634 222.891V217.022L389.971 217.801L391.044 223.012L393.634 222.891Z" fill="#181220"/>
<path d="M328.706 214.779C337.83 209.407 346.149 203.686 355.233 198.301L355.622 198.113C358.138 197.146 360.929 197.184 363.417 198.221C367.335 199.832 388.052 212.335 392.211 214.86C392.587 215.077 392.909 215.376 393.155 215.734C393.401 216.091 393.565 216.499 393.634 216.928C393.661 217.16 393.661 217.394 393.634 217.626C393.495 218.23 393.233 218.799 392.863 219.296C392.494 219.793 392.025 220.208 391.487 220.514C382.846 226.463 373.413 231.257 364.652 237.046C363.323 237.975 361.772 238.536 360.157 238.671C358.474 238.749 356.801 238.374 355.313 237.583C344.914 232.453 331.161 223.858 327.391 221.467C327.021 221.22 326.709 220.895 326.477 220.514C326.245 220.134 326.099 219.707 326.049 219.265C325.976 218.726 325.976 218.179 326.049 217.64C326.291 216.163 327.794 215.464 328.29 215.034L328.706 214.779Z" fill="url(#paint21_linear_266_1471)"/>
<path d="M367.617 245.076C376.741 239.705 385.06 233.97 394.143 228.598C394.266 228.518 394.396 228.45 394.532 228.397C397.05 227.436 399.838 227.475 402.328 228.504C406.246 230.116 426.963 242.619 431.122 245.144C431.495 245.365 431.815 245.664 432.06 246.021C432.306 246.378 432.471 246.784 432.545 247.212C432.572 247.448 432.572 247.687 432.545 247.923C432.404 248.525 432.14 249.09 431.771 249.585C431.401 250.079 430.934 250.492 430.398 250.797C421.757 256.747 412.324 261.474 403.563 267.329C402.234 268.259 400.683 268.819 399.068 268.954C397.386 269.037 395.713 268.666 394.224 267.88C383.825 262.736 370.072 254.141 366.302 251.764C365.93 251.518 365.617 251.194 365.386 250.813C365.154 250.432 365.008 250.005 364.96 249.562C364.887 249.027 364.887 248.485 364.96 247.95C365.202 246.46 366.704 245.761 367.201 245.345C367.326 245.236 367.466 245.145 367.617 245.076Z" fill="#181220"/>
<path d="M364.934 248.514V242.646L368.597 243.425L367.523 248.635L364.934 248.514Z" fill="#181220"/>
<path d="M432.545 247.064V241.195L428.882 241.974L429.955 247.185L432.545 247.064Z" fill="#181220"/>
<path d="M367.617 238.952C376.741 233.581 385.06 227.86 394.143 222.474L394.532 222.286C397.048 221.319 399.84 221.357 402.328 222.394C406.246 224.005 426.963 236.508 431.122 239.033C431.498 239.251 431.82 239.549 432.066 239.907C432.312 240.265 432.475 240.673 432.544 241.101C432.571 241.333 432.571 241.568 432.544 241.8C432.406 242.403 432.144 242.972 431.774 243.469C431.404 243.966 430.936 244.381 430.398 244.687C421.757 250.636 412.324 255.431 403.562 261.219C402.234 262.148 400.683 262.709 399.068 262.844C397.385 262.922 395.712 262.547 394.224 261.756C383.825 256.626 370.072 248.031 366.302 245.64C365.931 245.393 365.62 245.068 365.388 244.688C365.156 244.307 365.01 243.881 364.96 243.438C364.887 242.899 364.887 242.352 364.96 241.813C365.201 240.336 366.704 239.637 367.201 239.208L367.617 238.952Z" fill="url(#paint22_linear_266_1471)"/>
<path d="M88.5308 125.553C97.6548 120.181 105.974 114.447 115.057 109.075C115.18 108.995 115.31 108.927 115.446 108.874C117.964 107.913 120.752 107.951 123.242 108.981C127.16 110.593 147.877 123.096 152.036 125.62C152.409 125.841 152.729 126.141 152.974 126.498C153.22 126.855 153.385 127.261 153.459 127.688C153.486 127.925 153.486 128.164 153.459 128.4C153.318 129.001 153.054 129.567 152.685 130.061C152.315 130.556 151.848 130.969 151.312 131.274C142.671 137.223 133.238 142.018 124.477 147.806C123.148 148.735 121.597 149.296 119.982 149.431C118.3 149.514 116.627 149.143 115.138 148.357C104.739 143.213 90.9862 134.618 87.2159 132.241C86.8443 131.995 86.5315 131.67 86.2996 131.29C86.0677 130.909 85.9224 130.482 85.8741 130.039C85.8011 129.504 85.8011 128.962 85.8741 128.427C86.1156 126.936 87.6184 126.238 88.1148 125.822C88.2397 125.712 88.3798 125.622 88.5308 125.553Z" fill="#181220"/>
<path d="M85.8472 128.991V123.122L89.5102 123.901L88.4368 129.112L85.8472 128.991Z" fill="#181220"/>
<path d="M153.458 127.541V121.672L149.795 122.451L150.869 127.662L153.458 127.541Z" fill="#181220"/>
<path d="M88.5307 119.429C97.6547 114.057 105.974 108.336 115.057 102.951L115.446 102.763C117.962 101.795 120.754 101.834 123.242 102.871C127.16 104.482 147.877 116.985 152.036 119.51C152.412 119.727 152.734 120.026 152.98 120.384C153.226 120.741 153.389 121.149 153.458 121.578C153.485 121.81 153.485 122.044 153.458 122.276C153.32 122.88 153.058 123.449 152.688 123.946C152.319 124.443 151.85 124.858 151.312 125.164C142.671 131.113 133.238 135.907 124.476 141.696C123.148 142.625 121.597 143.186 119.982 143.32C118.299 143.399 116.626 143.024 115.138 142.233C104.739 137.103 90.9861 128.508 87.2158 126.117C86.8455 125.87 86.5336 125.545 86.3019 125.164C86.0701 124.784 85.9241 124.357 85.874 123.915C85.8011 123.376 85.8011 122.829 85.874 122.29C86.1155 120.813 87.6183 120.114 88.1148 119.684L88.5307 119.429Z" fill="url(#paint23_linear_266_1471)"/>
<path d="M128.784 149.726C137.907 144.355 146.226 138.62 155.31 133.248C155.433 133.168 155.563 133.1 155.699 133.047C158.216 132.086 161.005 132.124 163.495 133.154C167.413 134.766 188.13 147.269 192.289 149.794C192.662 150.015 192.982 150.314 193.227 150.671C193.473 151.028 193.638 151.434 193.711 151.862C193.738 152.098 193.738 152.337 193.711 152.573C193.57 153.175 193.307 153.74 192.938 154.235C192.568 154.729 192.101 155.142 191.564 155.447C182.924 161.397 173.491 166.191 164.796 171.979C163.468 172.909 161.917 173.469 160.301 173.604C158.62 173.687 156.947 173.316 155.458 172.53C145.059 167.386 131.306 158.791 127.536 156.414C127.164 156.168 126.851 155.844 126.619 155.463C126.388 155.082 126.242 154.655 126.194 154.212C126.121 153.677 126.121 153.135 126.194 152.6C126.435 151.11 127.938 150.411 128.435 149.995C128.539 149.891 128.656 149.8 128.784 149.726Z" fill="#181220"/>
<path d="M126.1 153.164V147.296L129.763 148.075L128.69 153.285L126.1 153.164Z" fill="#181220"/>
<path d="M193.711 151.714V145.845L190.048 146.624L191.122 151.835L193.711 151.714Z" fill="#181220"/>
<path d="M128.783 143.602C137.907 138.231 146.226 132.51 155.31 127.124L155.699 126.936C158.215 125.969 161.006 126.007 163.495 127.044C167.413 128.655 188.13 141.158 192.289 143.683C192.664 143.901 192.987 144.199 193.233 144.557C193.479 144.914 193.642 145.322 193.711 145.751C193.738 145.983 193.738 146.218 193.711 146.45C193.573 147.053 193.31 147.622 192.941 148.119C192.571 148.616 192.103 149.031 191.564 149.337C182.923 155.286 173.491 160.081 164.796 165.869C163.468 166.798 161.917 167.359 160.301 167.494C158.619 167.572 156.946 167.197 155.458 166.406C145.059 161.276 131.306 152.681 127.536 150.29C127.165 150.043 126.853 149.718 126.622 149.338C126.39 148.957 126.244 148.531 126.194 148.088C126.121 147.549 126.121 147.002 126.194 146.463C126.435 144.986 127.938 144.287 128.435 143.858L128.783 143.602Z" fill="url(#paint24_linear_266_1471)"/>
<path d="M167.695 173.9C176.819 168.528 185.138 162.793 194.221 157.422C194.344 157.341 194.474 157.274 194.61 157.22C197.127 156.259 199.916 156.298 202.406 157.328C206.324 158.939 227.041 171.442 231.2 173.967C231.573 174.188 231.893 174.487 232.138 174.844C232.384 175.202 232.549 175.608 232.622 176.035C232.649 176.271 232.649 176.51 232.622 176.747C232.481 177.348 232.218 177.913 231.849 178.408C231.479 178.902 231.012 179.315 230.476 179.621C221.835 185.57 212.402 190.297 203.707 196.152C202.379 197.082 200.828 197.643 199.213 197.777C197.531 197.86 195.858 197.489 194.369 196.703C183.97 191.56 170.217 182.965 166.447 180.588C166.075 180.342 165.762 180.017 165.531 179.636C165.299 179.255 165.153 178.828 165.105 178.385C165.032 177.85 165.032 177.308 165.105 176.774C165.347 175.283 166.849 174.585 167.346 174.168C167.45 174.064 167.567 173.974 167.695 173.9Z" fill="#181220"/>
<path d="M165.011 177.338V171.469L168.674 172.248L167.601 177.458L165.011 177.338Z" fill="#181220"/>
<path d="M232.622 175.887V170.018L228.959 170.797L230.033 176.008L232.622 175.887Z" fill="#181220"/>
<path d="M167.695 167.776C176.819 162.404 185.137 156.683 194.221 151.298L194.61 151.11C197.126 150.142 199.918 150.18 202.406 151.217C206.324 152.829 227.041 165.332 231.2 167.856C231.576 168.074 231.898 168.372 232.144 168.73C232.39 169.088 232.553 169.496 232.622 169.924C232.649 170.156 232.649 170.391 232.622 170.623C232.484 171.227 232.222 171.795 231.852 172.292C231.482 172.789 231.014 173.204 230.476 173.51C221.835 179.459 212.402 184.254 203.707 190.042C202.379 190.971 200.828 191.532 199.213 191.667C197.53 191.746 195.857 191.37 194.369 190.579C183.97 185.449 170.217 176.854 166.447 174.464C166.076 174.216 165.765 173.891 165.533 173.511C165.301 173.13 165.155 172.704 165.105 172.261C165.032 171.722 165.032 171.175 165.105 170.636C165.347 169.159 166.849 168.461 167.346 168.031L167.695 167.776Z" fill="url(#paint25_linear_266_1471)"/>
<path d="M207.948 197.576C217.152 192.338 225.525 186.752 234.783 181.46C234.913 181.39 235.047 181.327 235.185 181.272C237.714 180.354 240.497 180.435 242.967 181.501C246.872 183.179 267.388 196.005 271.493 198.597C271.858 198.824 272.168 199.13 272.4 199.493C272.632 199.855 272.781 200.265 272.835 200.692C272.869 200.923 272.869 201.158 272.835 201.39C272.685 201.991 272.412 202.555 272.034 203.045C271.655 203.535 271.178 203.941 270.635 204.237C261.9 210.052 252.4 214.632 243.612 220.353C242.266 221.256 240.706 221.788 239.09 221.897C237.405 221.953 235.737 221.554 234.259 220.742C223.941 215.451 210.363 206.641 206.606 204.17C206.233 203.923 205.919 203.596 205.687 203.212C205.455 202.829 205.31 202.4 205.264 201.954C205.215 201.412 205.237 200.865 205.331 200.329C205.586 198.852 207.102 198.167 207.599 197.764C207.71 197.693 207.827 197.63 207.948 197.576Z" fill="#181220"/>
<path d="M205.224 200.974L205.304 195.118L208.967 195.951L207.8 201.148L205.224 200.974Z" fill="#181220"/>
<path d="M272.849 200.584L272.943 194.729L269.266 195.441L270.259 200.678L272.849 200.584Z" fill="#181220"/>
<path d="M208.028 191.466C217.246 186.228 225.605 180.641 234.863 175.35L235.252 175.162C237.779 174.236 240.565 174.318 243.034 175.39C246.939 177.069 267.454 189.894 271.574 192.473C271.937 192.705 272.245 193.014 272.477 193.379C272.709 193.743 272.858 194.153 272.915 194.581C272.949 194.813 272.949 195.048 272.915 195.28C272.766 195.881 272.493 196.444 272.114 196.934C271.735 197.425 271.259 197.83 270.715 198.127C261.98 203.942 252.48 208.521 243.692 214.242C242.35 215.143 240.795 215.676 239.183 215.786C237.494 215.845 235.821 215.446 234.34 214.632C224.035 209.34 210.443 200.517 206.686 198.059C206.313 197.812 205.999 197.485 205.767 197.102C205.535 196.719 205.391 196.289 205.344 195.844C205.273 195.304 205.273 194.758 205.344 194.219C205.599 192.741 207.115 192.056 207.625 191.654C207.752 191.576 207.887 191.513 208.028 191.466Z" fill="url(#paint26_linear_266_1471)"/>
<path d="M46.9366 151.069C56.0605 145.697 64.3794 139.963 73.4631 134.591C73.5856 134.511 73.716 134.443 73.8523 134.39C76.3694 133.429 79.1582 133.467 81.6479 134.497C85.5658 136.109 106.283 148.612 110.442 151.136C110.815 151.358 111.135 151.657 111.38 152.014C111.626 152.371 111.791 152.777 111.864 153.205C111.891 153.441 111.891 153.68 111.864 153.916C111.723 154.518 111.46 155.083 111.091 155.578C110.721 156.072 110.254 156.485 109.717 156.79C101.077 162.74 91.644 167.534 82.8823 173.322C81.5537 174.252 80.0028 174.812 78.3874 174.947C76.7058 175.03 75.0328 174.659 73.5436 173.873C63.145 168.729 49.392 160.134 45.6216 157.757C45.2501 157.511 44.9372 157.186 44.7053 156.806C44.4734 156.425 44.3282 155.998 44.2799 155.555C44.2068 155.02 44.2068 154.478 44.2799 153.943C44.5214 152.453 46.0242 151.754 46.5206 151.338C46.6455 151.229 46.7856 151.138 46.9366 151.069Z" fill="#181220"/>
<path d="M44.2529 154.507V148.639L47.9159 149.418L46.8425 154.628L44.2529 154.507Z" fill="#181220"/>
<path d="M111.864 153.057V147.188L108.201 147.967L109.275 153.178L111.864 153.057Z" fill="#181220"/>
<path d="M46.9365 144.945C56.0604 139.574 64.3794 133.853 73.4631 128.467L73.8522 128.279C76.3681 127.312 79.1595 127.35 81.6478 128.387C85.5657 129.998 106.283 142.501 110.442 145.026C110.817 145.244 111.14 145.542 111.386 145.9C111.632 146.257 111.795 146.665 111.864 147.094C111.891 147.326 111.891 147.561 111.864 147.793C111.726 148.396 111.463 148.965 111.094 149.462C110.724 149.959 110.256 150.374 109.717 150.68C101.076 156.629 91.6439 161.424 82.8822 167.212C81.5536 168.141 80.0027 168.702 78.3873 168.837C76.7045 168.915 75.0315 168.54 73.5436 167.749C63.1449 162.619 49.3919 154.024 45.6216 151.633C45.2513 151.386 44.9394 151.061 44.7076 150.68C44.4759 150.3 44.3299 149.874 44.2798 149.431C44.2069 148.892 44.2069 148.345 44.2798 147.806C44.5213 146.329 46.0241 145.63 46.5205 145.201L46.9365 144.945Z" fill="url(#paint27_linear_266_1471)"/>
<path d="M87.1892 174.746C96.3937 169.508 104.739 163.921 113.957 158.63L114.346 158.442C116.875 157.523 119.658 157.605 122.129 158.67C126.033 160.349 146.522 173.174 150.628 175.766C150.991 175.996 151.299 176.303 151.531 176.665C151.763 177.027 151.912 177.435 151.969 177.861C152.003 178.093 152.003 178.328 151.969 178.56C151.82 179.161 151.547 179.724 151.168 180.215C150.789 180.705 150.313 181.111 149.769 181.407C141.047 187.222 131.548 191.801 122.773 197.522C121.427 198.425 119.868 198.958 118.251 199.067C116.566 199.122 114.898 198.723 113.421 197.912C103.116 192.62 89.5373 183.811 85.7938 181.34C85.4206 181.092 85.1068 180.765 84.8748 180.382C84.6428 179.999 84.4984 179.569 84.452 179.124C84.4029 178.581 84.4255 178.035 84.5191 177.499C84.7741 176.021 86.2902 175.337 86.7867 174.934C86.9157 174.861 87.0503 174.798 87.1892 174.746Z" fill="#00372D"/>
<path d="M84.4653 178.143L84.5458 172.288L88.1954 173.121L87.0415 178.318L84.4653 178.143Z" fill="#00372D"/>
<path d="M152.037 177.754L152.117 171.899L148.454 172.61L149.447 177.848L152.037 177.754Z" fill="#00372D"/>
<path d="M87.2695 168.635C96.474 163.398 104.82 157.811 114.105 152.52L114.494 152.332C117.021 151.406 119.807 151.488 122.276 152.56C126.181 154.239 146.669 167.064 150.788 169.642C151.152 169.875 151.46 170.184 151.692 170.548C151.924 170.913 152.073 171.323 152.13 171.751C152.164 171.982 152.164 172.218 152.13 172.449C151.98 173.051 151.708 173.614 151.329 174.104C150.95 174.594 150.474 175 149.93 175.296C141.208 181.111 131.709 185.691 122.934 191.412C121.567 192.365 119.958 192.907 118.294 192.976C116.63 193.045 114.981 192.638 113.541 191.801C103.223 186.51 89.6579 177.687 85.9009 175.229C85.5278 174.982 85.2139 174.655 84.9819 174.272C84.7499 173.889 84.6056 173.459 84.5592 173.013C84.5097 172.471 84.5323 171.925 84.6263 171.388C84.8812 169.911 86.3974 169.226 86.8938 168.823L87.2695 168.635Z" fill="url(#paint28_linear_266_1471)"/>
<path d="M6.68343 176.586C15.8074 171.214 24.1263 165.479 33.21 160.107C33.3325 160.027 33.4629 159.96 33.5991 159.906C36.1162 158.945 38.905 158.984 41.3948 160.013C45.3127 161.625 66.0295 174.128 70.1889 176.653C70.5614 176.874 70.8815 177.173 71.1271 177.53C71.3726 177.887 71.5378 178.294 71.6112 178.721C71.6382 178.957 71.6382 179.196 71.6112 179.433C71.4703 180.034 71.2068 180.599 70.8374 181.094C70.468 181.588 70.0006 182.001 69.4644 182.307C60.8234 188.256 51.3909 192.983 42.6963 198.838C41.3676 199.768 39.8168 200.329 38.2014 200.463C36.5198 200.546 34.8468 200.175 33.3576 199.389C22.959 194.245 9.20594 185.651 5.43559 183.273C5.06405 183.028 4.7512 182.703 4.5193 182.322C4.2874 181.941 4.14213 181.514 4.09383 181.071C4.02081 180.536 4.02081 179.994 4.09383 179.459C4.33535 177.969 5.83812 177.27 6.33457 176.854C6.43877 176.75 6.55603 176.66 6.68343 176.586Z" fill="#181220"/>
<path d="M4 180.024V174.155L7.663 174.934L6.5896 180.144L4 180.024Z" fill="#181220"/>
<path d="M71.6112 178.573V172.704L67.9482 173.483L69.0216 178.694L71.6112 178.573Z" fill="#181220"/>
<path d="M6.68335 170.462C15.8073 165.09 24.1262 159.369 33.2099 153.984L33.5991 153.796C36.1149 152.828 38.9064 152.866 41.3947 153.903C45.3126 155.515 66.0294 168.017 70.1889 170.542C70.5643 170.76 70.8867 171.058 71.1327 171.416C71.3787 171.774 71.5421 172.182 71.6111 172.61C71.6381 172.842 71.6381 173.077 71.6111 173.309C71.4726 173.913 71.2103 174.481 70.8407 174.978C70.4712 175.475 70.0024 175.89 69.4643 176.196C60.8234 182.145 51.3908 186.94 42.6962 192.728C41.3676 193.657 39.8167 194.218 38.2013 194.353C36.5185 194.432 34.8454 194.056 33.3575 193.265C22.9589 188.135 9.20586 179.54 5.43552 177.15C5.06524 176.902 4.75334 176.577 4.5216 176.197C4.28985 175.816 4.14384 175.39 4.09376 174.947C4.02083 174.408 4.02083 173.861 4.09376 173.322C4.33527 171.845 5.83805 171.147 6.3345 170.717L6.68335 170.462Z" fill="url(#paint29_linear_266_1471)"/>
<path d="M46.9366 200.759C56.0605 195.387 64.3794 189.653 73.4631 184.281C73.5856 184.2 73.716 184.133 73.8523 184.079C76.3694 183.118 79.1582 183.157 81.6479 184.187C85.5658 185.798 106.283 198.301 110.442 200.826C110.815 201.047 111.135 201.347 111.38 201.704C111.626 202.061 111.791 202.467 111.864 202.894C111.891 203.131 111.891 203.369 111.864 203.606C111.723 204.207 111.46 204.773 111.091 205.267C110.721 205.762 110.254 206.174 109.717 206.48C101.077 212.429 91.644 217.156 82.8823 223.012C81.5537 223.941 80.0028 224.502 78.3874 224.637C76.7058 224.719 75.0328 224.348 73.5436 223.562C63.145 218.419 49.392 209.824 45.6216 207.447C45.2501 207.201 44.9372 206.876 44.7053 206.495C44.4734 206.115 44.3282 205.687 44.2799 205.244C44.2068 204.71 44.2068 204.167 44.2799 203.633C44.5214 202.142 46.0242 201.444 46.5206 201.027C46.6455 200.918 46.7856 200.828 46.9366 200.759Z" fill="#181220"/>
<path d="M44.2529 204.197V198.328L47.9159 199.107L46.8425 204.318L44.2529 204.197Z" fill="#181220"/>
<path d="M111.864 202.746V196.878L108.201 197.657L109.275 202.867L111.864 202.746Z" fill="#181220"/>
<path d="M46.9365 194.635C56.0604 189.263 64.3794 183.542 73.4631 178.157L73.8522 177.969C76.3681 177.001 79.1595 177.04 81.6478 178.076C85.5657 179.688 106.283 192.191 110.442 194.715C110.817 194.933 111.14 195.231 111.386 195.589C111.632 195.947 111.795 196.355 111.864 196.784C111.891 197.016 111.891 197.25 111.864 197.482C111.726 198.086 111.463 198.654 111.094 199.151C110.724 199.648 110.256 200.063 109.717 200.369C101.076 206.319 91.6439 211.113 82.8822 216.901C81.5536 217.831 80.0027 218.391 78.3873 218.526C76.7045 218.605 75.0315 218.229 73.5436 217.438C63.1449 212.308 49.3919 203.713 45.6216 201.323C45.2513 201.076 44.9394 200.75 44.7076 200.37C44.4759 199.99 44.3299 199.563 44.2798 199.12C44.2069 198.581 44.2069 198.035 44.2798 197.495C44.5213 196.018 46.0241 195.32 46.5205 194.89L46.9365 194.635Z" fill="url(#paint30_linear_266_1471)"/>
<path d="M248.201 222.246C257.324 216.874 265.643 211.14 274.727 205.768C274.85 205.688 274.98 205.62 275.116 205.567C277.633 204.606 280.422 204.644 282.912 205.674C286.83 207.286 307.547 219.788 311.706 222.313C312.078 222.534 312.399 222.834 312.644 223.191C312.89 223.548 313.055 223.954 313.128 224.381C313.155 224.618 313.155 224.857 313.128 225.093C312.987 225.694 312.724 226.26 312.354 226.754C311.985 227.249 311.518 227.662 310.981 227.967C302.34 233.916 292.908 238.644 284.213 244.499C282.885 245.428 281.334 245.989 279.718 246.124C278.037 246.207 276.364 245.836 274.875 245.05C264.476 239.906 250.723 231.311 246.953 228.934C246.581 228.688 246.268 228.363 246.036 227.983C245.804 227.602 245.659 227.175 245.611 226.732C245.538 226.197 245.538 225.655 245.611 225.12C245.852 223.629 247.355 222.931 247.852 222.515C247.956 222.41 248.073 222.32 248.201 222.246Z" fill="#181220"/>
<path d="M245.517 225.684V219.815L249.18 220.594L248.106 225.805L245.517 225.684Z" fill="#181220"/>
<path d="M313.128 224.234V218.365L309.465 219.144L310.538 224.355L313.128 224.234Z" fill="#181220"/>
<path d="M248.2 216.122C257.324 210.75 265.643 205.029 274.727 199.644L275.116 199.456C277.632 198.488 280.423 198.527 282.912 199.564C286.83 201.175 307.546 213.678 311.706 216.203C312.081 216.42 312.404 216.719 312.65 217.077C312.896 217.434 313.059 217.842 313.128 218.271C313.155 218.503 313.155 218.737 313.128 218.969C312.99 219.573 312.727 220.142 312.358 220.639C311.988 221.136 311.52 221.55 310.981 221.857C302.34 227.806 292.908 232.6 284.213 238.388C282.885 239.318 281.334 239.879 279.718 240.013C278.036 240.092 276.363 239.716 274.875 238.926C264.476 233.796 250.723 225.201 246.953 222.81C246.582 222.563 246.27 222.238 246.039 221.857C245.807 221.477 245.661 221.05 245.611 220.608C245.538 220.069 245.538 219.522 245.611 218.983C245.852 217.505 247.355 216.807 247.852 216.377L248.2 216.122Z" fill="url(#paint31_linear_266_1471)"/>
<path d="M288.453 246.419C297.577 241.048 305.896 235.313 314.98 229.941C315.102 229.861 315.233 229.793 315.369 229.74C317.886 228.779 320.675 228.817 323.164 229.847C327.082 231.459 347.799 243.962 351.959 246.486C352.331 246.708 352.651 247.007 352.897 247.364C353.142 247.721 353.308 248.127 353.381 248.555C353.408 248.791 353.408 249.03 353.381 249.266C353.24 249.868 352.977 250.433 352.607 250.928C352.238 251.422 351.77 251.835 351.234 252.14C342.593 258.09 333.161 262.817 324.399 268.672C323.07 269.602 321.519 270.162 319.904 270.297C318.222 270.38 316.549 270.009 315.06 269.223C304.662 264.079 290.909 255.484 287.138 253.107C286.767 252.861 286.454 252.536 286.222 252.156C285.99 251.775 285.845 251.348 285.796 250.905C285.723 250.37 285.723 249.828 285.796 249.293C286.038 247.803 287.541 247.104 288.037 246.688C288.162 246.579 288.302 246.488 288.453 246.419Z" fill="#181220"/>
<path d="M285.77 249.857V243.989L289.433 244.768L288.359 249.978L285.77 249.857Z" fill="#181220"/>
<path d="M353.381 248.407V242.538L349.718 243.317L350.791 248.528L353.381 248.407Z" fill="#181220"/>
<path d="M288.453 240.295C297.577 234.924 305.896 229.203 314.98 223.817L315.369 223.629C317.885 222.662 320.676 222.7 323.164 223.737C327.082 225.348 347.799 237.851 351.959 240.376C352.334 240.594 352.656 240.892 352.902 241.25C353.148 241.607 353.312 242.015 353.381 242.444C353.408 242.676 353.408 242.911 353.381 243.143C353.242 243.746 352.98 244.315 352.61 244.812C352.241 245.309 351.772 245.724 351.234 246.03C342.593 251.979 333.16 256.774 324.399 262.562C323.07 263.491 321.519 264.052 319.904 264.187C318.221 264.265 316.548 263.89 315.06 263.099C304.662 257.969 290.908 249.374 287.138 246.983C286.768 246.736 286.456 246.411 286.224 246.03C285.992 245.65 285.846 245.224 285.796 244.781C285.723 244.242 285.723 243.695 285.796 243.156C286.038 241.679 287.541 240.98 288.037 240.551L288.453 240.295Z" fill="url(#paint32_linear_266_1471)"/>
<path d="M206.606 247.265C215.81 242.028 224.156 236.441 233.374 231.15L233.763 230.962C236.291 230.043 239.075 230.125 241.545 231.19C245.45 232.869 265.938 245.694 270.044 248.286C270.407 248.516 270.715 248.823 270.947 249.185C271.179 249.547 271.329 249.955 271.386 250.381C271.419 250.613 271.419 250.848 271.386 251.079C271.236 251.681 270.963 252.244 270.584 252.734C270.206 253.224 269.729 253.63 269.185 253.926C260.464 259.741 250.964 264.321 242.189 270.042C240.843 270.945 239.284 271.478 237.667 271.586C235.983 271.642 234.315 271.243 232.837 270.431C222.532 265.14 208.954 256.33 205.21 253.859C204.837 253.612 204.523 253.285 204.291 252.902C204.059 252.519 203.915 252.089 203.869 251.643C203.819 251.101 203.842 250.555 203.936 250.018C204.191 248.541 205.707 247.856 206.203 247.453C206.332 247.38 206.467 247.317 206.606 247.265Z" fill="#00372D"/>
<path d="M203.882 250.663L203.962 244.808L207.612 245.64L206.458 250.838L203.882 250.663Z" fill="#00372D"/>
<path d="M271.453 250.274L271.547 244.418L267.871 245.13L268.863 250.368L271.453 250.274Z" fill="#00372D"/>
<path d="M206.686 241.155C215.891 235.917 224.236 230.331 233.454 225.039L233.843 224.851C236.371 223.926 239.157 224.008 241.626 225.08C245.53 226.758 266.019 239.584 270.138 242.162C270.501 242.395 270.81 242.704 271.041 243.068C271.273 243.432 271.423 243.843 271.48 244.271C271.514 244.502 271.514 244.737 271.48 244.969C271.33 245.57 271.057 246.134 270.678 246.624C270.3 247.114 269.823 247.52 269.279 247.816C260.558 253.631 251.058 258.211 242.283 263.932C240.917 264.884 239.307 265.427 237.644 265.496C235.98 265.565 234.331 265.157 232.891 264.321C222.573 259.03 209.007 250.206 205.25 247.749C204.877 247.502 204.563 247.175 204.331 246.791C204.099 246.408 203.955 245.979 203.909 245.533C203.837 244.994 203.837 244.447 203.909 243.908C204.164 242.431 205.68 241.746 206.176 241.343L206.686 241.155Z" fill="url(#paint33_linear_266_1471)"/>
<path d="M246.859 271.439C256.063 266.201 264.409 260.614 273.627 255.323L274.016 255.135C276.544 254.216 279.328 254.298 281.798 255.363C285.703 257.042 306.191 269.867 310.297 272.459C310.66 272.689 310.968 272.996 311.2 273.358C311.432 273.72 311.582 274.128 311.639 274.554C311.672 274.786 311.672 275.021 311.639 275.253C311.489 275.854 311.216 276.417 310.837 276.908C310.459 277.398 309.982 277.804 309.438 278.1C300.717 283.915 291.217 288.494 282.442 294.215C281.096 295.118 279.537 295.651 277.92 295.76C276.236 295.815 274.567 295.416 273.09 294.605C262.785 289.313 249.207 280.504 245.463 278.033C245.09 277.785 244.776 277.458 244.544 277.075C244.312 276.692 244.168 276.262 244.121 275.817C244.072 275.274 244.095 274.728 244.189 274.192C244.443 272.714 245.96 272.03 246.456 271.627C246.585 271.554 246.72 271.491 246.859 271.439Z" fill="#00372D"/>
<path d="M244.135 274.836L244.215 268.981L247.865 269.814L246.711 275.011L244.135 274.836Z" fill="#00372D"/>
<path d="M311.706 274.447L311.799 268.592L308.123 269.303L309.116 274.541L311.706 274.447Z" fill="#00372D"/>
<path d="M246.939 265.328C256.144 260.091 264.489 254.504 273.707 249.213L274.096 249.025C276.624 248.099 279.41 248.181 281.879 249.253C285.783 250.932 306.272 263.757 310.391 266.335C310.754 266.568 311.063 266.877 311.294 267.241C311.526 267.605 311.676 268.016 311.733 268.444C311.766 268.675 311.766 268.911 311.733 269.142C311.583 269.743 311.31 270.307 310.931 270.797C310.552 271.287 310.076 271.693 309.532 271.989C300.811 277.804 291.311 282.384 282.536 288.105C281.17 289.058 279.56 289.6 277.897 289.669C276.233 289.738 274.584 289.331 273.144 288.494C262.826 283.203 249.26 274.38 245.503 271.922C245.13 271.675 244.816 271.348 244.584 270.965C244.352 270.582 244.208 270.152 244.162 269.706C244.09 269.167 244.09 268.621 244.162 268.081C244.417 266.604 245.933 265.919 246.429 265.516L246.939 265.328Z" fill="url(#paint34_linear_266_1471)"/>
<path d="M327.364 270.593C336.488 265.221 344.807 259.486 353.891 254.114C354.013 254.034 354.144 253.967 354.28 253.913C356.797 252.952 359.586 252.991 362.076 254.02C365.994 255.632 386.71 268.135 390.87 270.66C391.242 270.881 391.562 271.18 391.808 271.537C392.053 271.894 392.219 272.301 392.292 272.728C392.319 272.964 392.319 273.203 392.292 273.44C392.151 274.041 391.888 274.606 391.518 275.101C391.149 275.595 390.681 276.008 390.145 276.314C381.504 282.263 372.072 286.99 363.31 292.845C361.981 293.775 360.431 294.336 358.815 294.47C357.134 294.553 355.461 294.182 353.971 293.396C343.573 288.252 329.82 279.658 326.049 277.281C325.678 277.035 325.365 276.71 325.133 276.329C324.901 275.948 324.756 275.521 324.708 275.078C324.635 274.543 324.635 274.001 324.708 273.467C324.949 271.976 326.452 271.277 326.948 270.861C327.073 270.752 327.213 270.661 327.364 270.593Z" fill="#181220"/>
<path d="M324.681 274.031V268.162L328.344 268.941L327.27 274.151L324.681 274.031Z" fill="#181220"/>
<path d="M392.292 272.58V266.711L388.629 267.49L389.702 272.701L392.292 272.58Z" fill="#181220"/>
<path d="M327.364 264.469C336.488 259.097 344.807 253.376 353.891 247.991L354.28 247.803C356.796 246.835 359.587 246.873 362.076 247.91C365.993 249.522 386.71 262.025 390.87 264.549C391.245 264.767 391.568 265.065 391.814 265.423C392.06 265.781 392.223 266.189 392.292 266.617C392.319 266.849 392.319 267.084 392.292 267.316C392.153 267.92 391.891 268.488 391.522 268.985C391.152 269.482 390.683 269.897 390.145 270.203C381.504 276.152 372.072 280.947 363.31 286.735C361.981 287.664 360.43 288.225 358.815 288.36C357.132 288.439 355.459 288.063 353.971 287.272C343.573 282.142 329.82 273.547 326.049 271.157C325.679 270.909 325.367 270.584 325.135 270.204C324.904 269.823 324.758 269.397 324.708 268.954C324.635 268.415 324.635 267.868 324.708 267.329C324.949 265.852 326.452 265.154 326.948 264.724L327.364 264.469Z" fill="url(#paint35_linear_266_1471)"/>
<path d="M285.77 296.109C294.894 290.737 303.212 285.003 312.296 279.631C312.419 279.55 312.549 279.483 312.685 279.429C315.202 278.469 317.991 278.507 320.481 279.537C324.399 281.148 345.116 293.651 349.275 296.176C349.648 296.397 349.968 296.697 350.213 297.054C350.459 297.411 350.624 297.817 350.697 298.244C350.724 298.481 350.724 298.719 350.697 298.956C350.556 299.557 350.293 300.123 349.924 300.617C349.554 301.112 349.087 301.524 348.551 301.83C339.91 307.779 330.477 312.506 321.715 318.362C320.387 319.291 318.836 319.852 317.22 319.987C315.539 320.069 313.866 319.698 312.377 318.912C301.978 313.769 288.225 305.174 284.455 302.797C284.083 302.551 283.77 302.226 283.538 301.845C283.306 301.465 283.161 301.037 283.113 300.594C283.04 300.06 283.04 299.517 283.113 298.983C283.354 297.492 284.857 296.794 285.354 296.377C285.478 296.268 285.619 296.178 285.77 296.109Z" fill="#181220"/>
<path d="M283.086 299.547V293.678L286.749 294.457L285.676 299.668L283.086 299.547Z" fill="#181220"/>
<path d="M350.697 298.096V292.228L347.034 293.007L348.108 298.217L350.697 298.096Z" fill="#181220"/>
<path d="M285.769 289.985C294.893 284.613 303.212 278.892 312.296 273.507L312.685 273.319C315.201 272.351 317.992 272.39 320.481 273.426C324.399 275.038 345.115 287.541 349.275 290.066C349.65 290.283 349.973 290.582 350.219 290.939C350.465 291.297 350.628 291.705 350.697 292.134C350.724 292.366 350.724 292.6 350.697 292.832C350.559 293.436 350.296 294.004 349.927 294.501C349.557 294.998 349.089 295.413 348.55 295.719C339.909 301.669 330.477 306.463 321.715 312.251C320.387 313.181 318.836 313.741 317.22 313.876C315.537 313.955 313.864 313.579 312.377 312.788C301.978 307.658 288.225 299.063 284.455 296.673C284.084 296.426 283.772 296.1 283.541 295.72C283.309 295.34 283.163 294.913 283.113 294.47C283.04 293.931 283.04 293.385 283.113 292.845C283.354 291.368 284.857 290.67 285.354 290.24L285.769 289.985Z" fill="url(#paint36_linear_266_1471)"/>
<path d="M166.353 273.278C175.477 267.907 183.796 262.172 192.879 256.8C193.002 256.72 193.132 256.653 193.269 256.599C195.786 255.638 198.574 255.677 201.064 256.706C204.982 258.318 225.699 270.821 229.858 273.346C230.231 273.567 230.551 273.866 230.796 274.223C231.042 274.58 231.207 274.987 231.281 275.414C231.308 275.65 231.308 275.889 231.281 276.126C231.14 276.727 230.876 277.292 230.507 277.787C230.137 278.281 229.67 278.694 229.134 278.999C220.493 284.949 211.06 289.676 202.366 295.531C201.037 296.461 199.486 297.021 197.871 297.156C196.189 297.239 194.516 296.868 193.027 296.082C182.628 290.938 168.875 282.343 165.105 279.966C164.733 279.72 164.421 279.396 164.189 279.015C163.957 278.634 163.812 278.207 163.763 277.764C163.69 277.229 163.69 276.687 163.763 276.152C164.005 274.662 165.508 273.963 166.004 273.547C166.108 273.443 166.225 273.353 166.353 273.278Z" fill="#181220"/>
<path d="M163.669 276.717V270.848L167.332 271.627L166.259 276.837L163.669 276.717Z" fill="#181220"/>
<path d="M231.281 275.266V269.397L227.618 270.176L228.691 275.387L231.281 275.266Z" fill="#181220"/>
<path d="M166.353 267.155C175.477 261.783 183.796 256.062 192.879 250.677L193.268 250.489C195.784 249.521 198.576 249.559 201.064 250.596C204.982 252.208 225.699 264.71 229.858 267.235C230.234 267.453 230.556 267.751 230.802 268.109C231.048 268.467 231.212 268.875 231.281 269.303C231.308 269.535 231.308 269.77 231.281 270.002C231.142 270.606 230.88 271.174 230.51 271.671C230.141 272.168 229.672 272.583 229.134 272.889C220.493 278.838 211.06 283.633 202.366 289.421C201.037 290.35 199.486 290.911 197.871 291.046C196.188 291.125 194.515 290.749 193.027 289.958C182.628 284.828 168.875 276.233 165.105 273.843C164.735 273.595 164.423 273.27 164.191 272.89C163.959 272.509 163.813 272.083 163.763 271.64C163.69 271.101 163.69 270.554 163.763 270.015C164.005 268.538 165.507 267.84 166.004 267.41L166.353 267.155Z" fill="url(#paint37_linear_266_1471)"/>
</g>
<defs>
<filter id="filter0_d_266_1471" x="0" y="0" width="560" height="333" filterUnits="userSpaceOnUse" color-interpolation-filters="sRGB">
<feFlood flood-opacity="0" result="BackgroundImageFix"/>
<feColorMatrix in="SourceAlpha" type="matrix" values="0 0 0 0 0 0 0 0 0 0 0 0 0 0 0 0 0 0 127 0" result="hardAlpha"/>
<feOffset dy="9"/>
<feGaussianBlur stdDeviation="2"/>
<feColorMatrix type="matrix" values="0 0 0 0 0 0 0 0 0 0 0 0 0 0 0 0 0 0 0.2 0"/>
<feBlend mode="normal" in2="BackgroundImageFix" result="effect1_dropShadow_266_1471"/>
<feBlend mode="normal" in="SourceGraphic" in2="effect1_dropShadow_266_1471" result="shape"/>
</filter>
<linearGradient id="paint0_linear_266_1471" x1="249.542" y1="20.6412" x2="317.167" y2="20.6412" gradientUnits="userSpaceOnUse">
<stop stop-color="#363755"/>
<stop offset="0.18" stop-color="#2E2C41"/>
<stop offset="0.39" stop-color="#272432"/>
<stop offset="0.64" stop-color="#231F29"/>
<stop offset="0.99" stop-color="#221D26"/>
</linearGradient>
<linearGradient id="paint1_linear_266_1471" x1="303.28" y1="27.8395" x2="343.589" y2="61.6332" gradientUnits="userSpaceOnUse">
<stop stop-color="#363755"/>
<stop offset="0.18" stop-color="#2E2C41"/>
<stop offset="0.39" stop-color="#272432"/>
<stop offset="0.64" stop-color="#231F29"/>
<stop offset="0.99" stop-color="#221D26"/>
</linearGradient>
<linearGradient id="paint2_linear_266_1471" x1="342.191" y1="52.0128" x2="382.5" y2="85.8064" gradientUnits="userSpaceOnUse">
<stop stop-color="#363755"/>
<stop offset="0.18" stop-color="#2E2C41"/>
<stop offset="0.39" stop-color="#272432"/>
<stop offset="0.64" stop-color="#231F29"/>
<stop offset="0.99" stop-color="#221D26"/>
</linearGradient>
<linearGradient id="paint3_linear_266_1471" x1="382.752" y1="75.8728" x2="422.54" y2="110.296" gradientUnits="userSpaceOnUse">
<stop stop-color="#363755"/>
<stop offset="0.18" stop-color="#2E2C41"/>
<stop offset="0.39" stop-color="#272432"/>
<stop offset="0.64" stop-color="#231F29"/>
<stop offset="0.99" stop-color="#221D26"/>
</linearGradient>
<linearGradient id="paint4_linear_266_1471" x1="221.862" y1="29.3168" x2="262.09" y2="63.0434" gradientUnits="userSpaceOnUse">
<stop stop-color="#363755"/>
<stop offset="0.18" stop-color="#2E2C41"/>
<stop offset="0.39" stop-color="#272432"/>
<stop offset="0.64" stop-color="#231F29"/>
<stop offset="0.99" stop-color="#221D26"/>
</linearGradient>
<linearGradient id="paint5_linear_266_1471" x1="262.034" y1="53.4497" x2="302.263" y2="87.1764" gradientUnits="userSpaceOnUse">
<stop stop-color="#363755"/>
<stop offset="0.18" stop-color="#2E2C41"/>
<stop offset="0.39" stop-color="#272432"/>
<stop offset="0.64" stop-color="#231F29"/>
<stop offset="0.99" stop-color="#221D26"/>
</linearGradient>
<linearGradient id="paint6_linear_266_1471" x1="300.864" y1="77.5693" x2="341.093" y2="111.296" gradientUnits="userSpaceOnUse">
<stop stop-color="#363755"/>
<stop offset="0.18" stop-color="#2E2C41"/>
<stop offset="0.39" stop-color="#272432"/>
<stop offset="0.64" stop-color="#231F29"/>
<stop offset="0.99" stop-color="#221D26"/>
</linearGradient>
<linearGradient id="paint7_linear_266_1471" x1="341.342" y1="101.386" x2="381.05" y2="135.741" gradientUnits="userSpaceOnUse">
<stop stop-color="#363755"/>
<stop offset="0.18" stop-color="#2E2C41"/>
<stop offset="0.39" stop-color="#272432"/>
<stop offset="0.64" stop-color="#231F29"/>
<stop offset="0.99" stop-color="#221D26"/>
</linearGradient>
<linearGradient id="paint8_linear_266_1471" x1="221.862" y1="78.9122" x2="262.091" y2="112.639" gradientUnits="userSpaceOnUse">
<stop stop-color="#363755"/>
<stop offset="0.18" stop-color="#2E2C41"/>
<stop offset="0.39" stop-color="#272432"/>
<stop offset="0.64" stop-color="#231F29"/>
<stop offset="0.99" stop-color="#221D26"/>
</linearGradient>
<linearGradient id="paint9_linear_266_1471" x1="260.692" y1="103.032" x2="300.921" y2="136.758" gradientUnits="userSpaceOnUse">
<stop stop-color="#363755"/>
<stop offset="0.18" stop-color="#2E2C41"/>
<stop offset="0.39" stop-color="#272432"/>
<stop offset="0.64" stop-color="#231F29"/>
<stop offset="0.99" stop-color="#221D26"/>
</linearGradient>
<linearGradient id="paint10_linear_266_1471" x1="287.151" y1="144.18" x2="354.736" y2="144.18" gradientUnits="userSpaceOnUse">
<stop stop-color="#328476"/>
<stop offset="0.2" stop-color="#207061"/>
<stop offset="0.47" stop-color="#0E5C4D"/>
<stop offset="0.74" stop-color="#045041"/>
<stop offset="1" stop-color="#004C3D"/>
</linearGradient>
<linearGradient id="paint11_linear_266_1471" x1="139.585" y1="80.2149" x2="179.894" y2="114.009" gradientUnits="userSpaceOnUse">
<stop stop-color="#363755"/>
<stop offset="0.18" stop-color="#2E2C41"/>
<stop offset="0.39" stop-color="#272432"/>
<stop offset="0.64" stop-color="#231F29"/>
<stop offset="0.99" stop-color="#221D26"/>
</linearGradient>
<linearGradient id="paint12_linear_266_1471" x1="180.348" y1="104.375" x2="220.59" y2="138.101" gradientUnits="userSpaceOnUse">
<stop stop-color="#363755"/>
<stop offset="0.18" stop-color="#2E2C41"/>
<stop offset="0.39" stop-color="#272432"/>
<stop offset="0.64" stop-color="#231F29"/>
<stop offset="0.99" stop-color="#221D26"/>
</linearGradient>
<linearGradient id="paint13_linear_266_1471" x1="219.178" y1="128.494" x2="259.42" y2="162.234" gradientUnits="userSpaceOnUse">
<stop stop-color="#363755"/>
<stop offset="0.18" stop-color="#2E2C41"/>
<stop offset="0.39" stop-color="#272432"/>
<stop offset="0.64" stop-color="#231F29"/>
<stop offset="0.99" stop-color="#221D26"/>
</linearGradient>
<linearGradient id="paint14_linear_266_1471" x1="422.696" y1="100.359" x2="463.005" y2="134.153" gradientUnits="userSpaceOnUse">
<stop stop-color="#363755"/>
<stop offset="0.18" stop-color="#2E2C41"/>
<stop offset="0.39" stop-color="#272432"/>
<stop offset="0.64" stop-color="#231F29"/>
<stop offset="0.99" stop-color="#221D26"/>
</linearGradient>
<linearGradient id="paint15_linear_266_1471" x1="462.949" y1="124.532" x2="503.258" y2="158.326" gradientUnits="userSpaceOnUse">
<stop stop-color="#363755"/>
<stop offset="0.18" stop-color="#2E2C41"/>
<stop offset="0.39" stop-color="#272432"/>
<stop offset="0.64" stop-color="#231F29"/>
<stop offset="0.99" stop-color="#221D26"/>
</linearGradient>
<linearGradient id="paint16_linear_266_1471" x1="501.86" y1="148.706" x2="542.17" y2="182.499" gradientUnits="userSpaceOnUse">
<stop stop-color="#363755"/>
<stop offset="0.18" stop-color="#2E2C41"/>
<stop offset="0.39" stop-color="#272432"/>
<stop offset="0.64" stop-color="#231F29"/>
<stop offset="0.99" stop-color="#221D26"/>
</linearGradient>
<linearGradient id="paint17_linear_266_1471" x1="381.209" y1="125.822" x2="421.438" y2="159.548" gradientUnits="userSpaceOnUse">
<stop stop-color="#363755"/>
<stop offset="0.18" stop-color="#2E2C41"/>
<stop offset="0.39" stop-color="#272432"/>
<stop offset="0.64" stop-color="#231F29"/>
<stop offset="0.99" stop-color="#221D26"/>
</linearGradient>
<linearGradient id="paint18_linear_266_1471" x1="327.404" y1="168.353" x2="394.989" y2="168.353" gradientUnits="userSpaceOnUse">
<stop stop-color="#328476"/>
<stop offset="0.2" stop-color="#207061"/>
<stop offset="0.47" stop-color="#0E5C4D"/>
<stop offset="0.74" stop-color="#045041"/>
<stop offset="1" stop-color="#004C3D"/>
</linearGradient>
<linearGradient id="paint19_linear_266_1471" x1="245.557" y1="169.696" x2="313.142" y2="169.696" gradientUnits="userSpaceOnUse">
<stop stop-color="#328476"/>
<stop offset="0.2" stop-color="#207061"/>
<stop offset="0.47" stop-color="#0E5C4D"/>
<stop offset="0.74" stop-color="#045041"/>
<stop offset="1" stop-color="#004C3D"/>
</linearGradient>
<linearGradient id="paint20_linear_266_1471" x1="285.81" y1="193.869" x2="353.394" y2="193.869" gradientUnits="userSpaceOnUse">
<stop stop-color="#328476"/>
<stop offset="0.2" stop-color="#207061"/>
<stop offset="0.47" stop-color="#0E5C4D"/>
<stop offset="0.74" stop-color="#045041"/>
<stop offset="1" stop-color="#004C3D"/>
</linearGradient>
<linearGradient id="paint21_linear_266_1471" x1="326.022" y1="218.056" x2="393.647" y2="218.056" gradientUnits="userSpaceOnUse">
<stop stop-color="#363755"/>
<stop offset="0.18" stop-color="#2E2C41"/>
<stop offset="0.39" stop-color="#272432"/>
<stop offset="0.64" stop-color="#231F29"/>
<stop offset="0.99" stop-color="#221D26"/>
</linearGradient>
<linearGradient id="paint22_linear_266_1471" x1="378.418" y1="225.254" x2="418.727" y2="259.048" gradientUnits="userSpaceOnUse">
<stop stop-color="#363755"/>
<stop offset="0.18" stop-color="#2E2C41"/>
<stop offset="0.39" stop-color="#272432"/>
<stop offset="0.64" stop-color="#231F29"/>
<stop offset="0.99" stop-color="#221D26"/>
</linearGradient>
<linearGradient id="paint23_linear_266_1471" x1="99.3319" y1="105.731" x2="139.641" y2="139.525" gradientUnits="userSpaceOnUse">
<stop stop-color="#363755"/>
<stop offset="0.18" stop-color="#2E2C41"/>
<stop offset="0.39" stop-color="#272432"/>
<stop offset="0.64" stop-color="#231F29"/>
<stop offset="0.99" stop-color="#221D26"/>
</linearGradient>
<linearGradient id="paint24_linear_266_1471" x1="139.585" y1="129.904" x2="179.894" y2="163.698" gradientUnits="userSpaceOnUse">
<stop stop-color="#363755"/>
<stop offset="0.18" stop-color="#2E2C41"/>
<stop offset="0.39" stop-color="#272432"/>
<stop offset="0.64" stop-color="#231F29"/>
<stop offset="0.99" stop-color="#221D26"/>
</linearGradient>
<linearGradient id="paint25_linear_266_1471" x1="178.496" y1="154.078" x2="218.805" y2="187.871" gradientUnits="userSpaceOnUse">
<stop stop-color="#363755"/>
<stop offset="0.18" stop-color="#2E2C41"/>
<stop offset="0.39" stop-color="#272432"/>
<stop offset="0.64" stop-color="#231F29"/>
<stop offset="0.99" stop-color="#221D26"/>
</linearGradient>
<linearGradient id="paint26_linear_266_1471" x1="205.304" y1="195.212" x2="272.942" y2="195.212" gradientUnits="userSpaceOnUse">
<stop stop-color="#363755"/>
<stop offset="0.18" stop-color="#2E2C41"/>
<stop offset="0.39" stop-color="#272432"/>
<stop offset="0.64" stop-color="#231F29"/>
<stop offset="0.99" stop-color="#221D26"/>
</linearGradient>
<linearGradient id="paint27_linear_266_1471" x1="57.7376" y1="131.247" x2="98.047" y2="165.041" gradientUnits="userSpaceOnUse">
<stop stop-color="#363755"/>
<stop offset="0.18" stop-color="#2E2C41"/>
<stop offset="0.39" stop-color="#272432"/>
<stop offset="0.64" stop-color="#231F29"/>
<stop offset="0.99" stop-color="#221D26"/>
</linearGradient>
<linearGradient id="paint28_linear_266_1471" x1="97.7889" y1="155.233" x2="138.555" y2="189.402" gradientUnits="userSpaceOnUse">
<stop stop-color="#328476"/>
<stop offset="0.2" stop-color="#207061"/>
<stop offset="0.47" stop-color="#0E5C4D"/>
<stop offset="0.74" stop-color="#045041"/>
<stop offset="1" stop-color="#004C3D"/>
</linearGradient>
<linearGradient id="paint29_linear_266_1471" x1="17.4845" y1="156.763" x2="57.7939" y2="190.557" gradientUnits="userSpaceOnUse">
<stop stop-color="#363755"/>
<stop offset="0.18" stop-color="#2E2C41"/>
<stop offset="0.39" stop-color="#272432"/>
<stop offset="0.64" stop-color="#231F29"/>
<stop offset="0.99" stop-color="#221D26"/>
</linearGradient>
<linearGradient id="paint30_linear_266_1471" x1="57.7376" y1="180.937" x2="98.047" y2="214.73" gradientUnits="userSpaceOnUse">
<stop stop-color="#363755"/>
<stop offset="0.18" stop-color="#2E2C41"/>
<stop offset="0.39" stop-color="#272432"/>
<stop offset="0.64" stop-color="#231F29"/>
<stop offset="0.99" stop-color="#221D26"/>
</linearGradient>
<linearGradient id="paint31_linear_266_1471" x1="245.517" y1="219.399" x2="313.142" y2="219.399" gradientUnits="userSpaceOnUse">
<stop stop-color="#363755"/>
<stop offset="0.18" stop-color="#2E2C41"/>
<stop offset="0.39" stop-color="#272432"/>
<stop offset="0.64" stop-color="#231F29"/>
<stop offset="0.99" stop-color="#221D26"/>
</linearGradient>
<linearGradient id="paint32_linear_266_1471" x1="299.254" y1="226.597" x2="339.564" y2="260.391" gradientUnits="userSpaceOnUse">
<stop stop-color="#363755"/>
<stop offset="0.18" stop-color="#2E2C41"/>
<stop offset="0.39" stop-color="#272432"/>
<stop offset="0.64" stop-color="#231F29"/>
<stop offset="0.99" stop-color="#221D26"/>
</linearGradient>
<linearGradient id="paint33_linear_266_1471" x1="203.962" y1="244.902" x2="271.547" y2="244.902" gradientUnits="userSpaceOnUse">
<stop stop-color="#328476"/>
<stop offset="0.2" stop-color="#207061"/>
<stop offset="0.47" stop-color="#0E5C4D"/>
<stop offset="0.74" stop-color="#045041"/>
<stop offset="1" stop-color="#004C3D"/>
</linearGradient>
<linearGradient id="paint34_linear_266_1471" x1="244.215" y1="269.075" x2="311.8" y2="269.075" gradientUnits="userSpaceOnUse">
<stop stop-color="#328476"/>
<stop offset="0.2" stop-color="#207061"/>
<stop offset="0.47" stop-color="#0E5C4D"/>
<stop offset="0.74" stop-color="#045041"/>
<stop offset="1" stop-color="#004C3D"/>
</linearGradient>
<linearGradient id="paint35_linear_266_1471" x1="338.165" y1="250.771" x2="378.475" y2="284.564" gradientUnits="userSpaceOnUse">
<stop stop-color="#363755"/>
<stop offset="0.18" stop-color="#2E2C41"/>
<stop offset="0.39" stop-color="#272432"/>
<stop offset="0.64" stop-color="#231F29"/>
<stop offset="0.99" stop-color="#221D26"/>
</linearGradient>
<linearGradient id="paint36_linear_266_1471" x1="296.571" y1="276.287" x2="336.88" y2="310.08" gradientUnits="userSpaceOnUse">
<stop stop-color="#363755"/>
<stop offset="0.18" stop-color="#2E2C41"/>
<stop offset="0.39" stop-color="#272432"/>
<stop offset="0.64" stop-color="#231F29"/>
<stop offset="0.99" stop-color="#221D26"/>
</linearGradient>
<linearGradient id="paint37_linear_266_1471" x1="177.154" y1="253.456" x2="217.463" y2="287.25" gradientUnits="userSpaceOnUse">
<stop stop-color="#363755"/>
<stop offset="0.18" stop-color="#2E2C41"/>
<stop offset="0.39" stop-color="#272432"/>
<stop offset="0.64" stop-color="#231F29"/>
<stop offset="0.99" stop-color="#221D26"/>
</linearGradient>
<clipPath id="clip0_266_1471">
<rect width="552" height="320" fill="white" transform="translate(4)"/>
</clipPath>
</defs>
</svg>
