<svg width="163" height="56" viewBox="0 0 163 56" fill="none" xmlns="http://www.w3.org/2000/svg">
<rect x="0.759766" width="68.7582" height="56" rx="24" fill="#B96A05"/>
<path d="M33.584 37.168C32.352 37.168 31.248 36.968 30.272 36.568C29.296 36.168 28.512 35.576 27.92 34.792C27.344 34.008 27.04 33.064 27.008 31.96H31.376C31.44 32.584 31.656 33.064 32.024 33.4C32.392 33.72 32.872 33.88 33.464 33.88C34.072 33.88 34.552 33.744 34.904 33.472C35.256 33.184 35.432 32.792 35.432 32.296C35.432 31.88 35.288 31.536 35 31.264C34.728 30.992 34.384 30.768 33.968 30.592C33.568 30.416 32.992 30.216 32.24 29.992C31.152 29.656 30.264 29.32 29.576 28.984C28.888 28.648 28.296 28.152 27.8 27.496C27.304 26.84 27.056 25.984 27.056 24.928C27.056 23.36 27.624 22.136 28.76 21.256C29.896 20.36 31.376 19.912 33.2 19.912C35.056 19.912 36.552 20.36 37.688 21.256C38.824 22.136 39.432 23.368 39.512 24.952H35.072C35.04 24.408 34.84 23.984 34.472 23.68C34.104 23.36 33.632 23.2 33.056 23.2C32.56 23.2 32.16 23.336 31.856 23.608C31.552 23.864 31.4 24.24 31.4 24.736C31.4 25.28 31.656 25.704 32.168 26.008C32.68 26.312 33.48 26.64 34.568 26.992C35.656 27.36 36.536 27.712 37.208 28.048C37.896 28.384 38.488 28.872 38.984 29.512C39.48 30.152 39.728 30.976 39.728 31.984C39.728 32.944 39.48 33.816 38.984 34.6C38.504 35.384 37.8 36.008 36.872 36.472C35.944 36.936 34.848 37.168 33.584 37.168ZM60.4456 20.152V37H56.3416V30.064H49.9576V37H45.8536V20.152H49.9576V26.752H56.3416V20.152H60.4456ZM71.1123 20.152V37H67.0083V20.152H71.1123ZM87.8864 28.36C88.8624 28.568 89.6464 29.056 90.2384 29.824C90.8304 30.576 91.1264 31.44 91.1264 32.416C91.1264 33.824 90.6304 34.944 89.6384 35.776C88.6624 36.592 87.2944 37 85.5344 37H77.6864V20.152H85.2704C86.9824 20.152 88.3184 20.544 89.2784 21.328C90.2544 22.112 90.7424 23.176 90.7424 24.52C90.7424 25.512 90.4784 26.336 89.9504 26.992C89.4384 27.648 88.7504 28.104 87.8864 28.36ZM81.7904 26.968H84.4784C85.1504 26.968 85.6624 26.824 86.0144 26.536C86.3824 26.232 86.5664 25.792 86.5664 25.216C86.5664 24.64 86.3824 24.2 86.0144 23.896C85.6624 23.592 85.1504 23.44 84.4784 23.44H81.7904V26.968ZM84.8144 33.688C85.5024 33.688 86.0304 33.536 86.3984 33.232C86.7824 32.912 86.9744 32.456 86.9744 31.864C86.9744 31.272 86.7744 30.808 86.3744 30.472C85.9904 30.136 85.4544 29.968 84.7664 29.968H81.7904V33.688H84.8144ZM101.211 23.44V26.848H106.707V30.016H101.211V33.712H107.427V37H97.1068V20.152H107.427V23.44H101.211ZM122.283 37L118.779 30.64H117.795V37H113.691V20.152H120.579C121.907 20.152 123.035 20.384 123.963 20.848C124.907 21.312 125.611 21.952 126.075 22.768C126.539 23.568 126.771 24.464 126.771 25.456C126.771 26.576 126.451 27.576 125.811 28.456C125.187 29.336 124.259 29.96 123.027 30.328L126.915 37H122.283ZM117.795 27.736H120.339C121.091 27.736 121.651 27.552 122.019 27.184C122.403 26.816 122.595 26.296 122.595 25.624C122.595 24.984 122.403 24.48 122.019 24.112C121.651 23.744 121.091 23.56 120.339 23.56H117.795V27.736ZM139.043 37.168C137.811 37.168 136.707 36.968 135.731 36.568C134.755 36.168 133.971 35.576 133.379 34.792C132.803 34.008 132.499 33.064 132.467 31.96H136.835C136.899 32.584 137.115 33.064 137.483 33.4C137.851 33.72 138.331 33.88 138.923 33.88C139.531 33.88 140.011 33.744 140.363 33.472C140.715 33.184 140.891 32.792 140.891 32.296C140.891 31.88 140.747 31.536 140.459 31.264C140.187 30.992 139.843 30.768 139.427 30.592C139.027 30.416 138.451 30.216 137.699 29.992C136.611 29.656 135.723 29.32 135.035 28.984C134.347 28.648 133.755 28.152 133.259 27.496C132.763 26.84 132.515 25.984 132.515 24.928C132.515 23.36 133.083 22.136 134.219 21.256C135.355 20.36 136.835 19.912 138.659 19.912C140.515 19.912 142.011 20.36 143.147 21.256C144.283 22.136 144.891 23.368 144.971 24.952H140.531C140.499 24.408 140.299 23.984 139.931 23.68C139.563 23.36 139.091 23.2 138.515 23.2C138.019 23.2 137.619 23.336 137.315 23.608C137.011 23.864 136.859 24.24 136.859 24.736C136.859 25.28 137.115 25.704 137.627 26.008C138.139 26.312 138.939 26.64 140.027 26.992C141.115 27.36 141.995 27.712 142.667 28.048C143.355 28.384 143.947 28.872 144.443 29.512C144.939 30.152 145.187 30.976 145.187 31.984C145.187 32.944 144.939 33.816 144.443 34.6C143.963 35.384 143.259 36.008 142.331 36.472C141.403 36.936 140.307 37.168 139.043 37.168ZM155.417 23.44V26.848H160.913V30.016H155.417V33.712H161.633V37H151.313V20.152H161.633V23.44H155.417Z" fill="white"/>
</svg>
