<svg width="26" height="20" viewBox="0 0 26 20" fill="none" xmlns="http://www.w3.org/2000/svg">
<path d="M21.8265 2.03272C20.2029 1.30047 18.4625 0.75925 16.6425 0.451495C16.6263 0.448383 16.6095 0.450389 16.5945 0.457233C16.5794 0.464078 16.5669 0.475424 16.5586 0.489699C16.3358 0.881291 16.0874 1.39174 15.9134 1.79501C13.9831 1.5066 12.0207 1.5066 10.0905 1.79501C9.89661 1.34808 9.67802 0.912304 9.43569 0.489699C9.42747 0.475248 9.41505 0.463646 9.40007 0.45644C9.38509 0.449235 9.36827 0.446769 9.35185 0.449372C7.53291 0.757128 5.7925 1.29835 4.16777 2.03166C4.15379 2.03752 4.14194 2.04752 4.13381 2.06031C0.831279 6.91541 -0.0739451 11.6506 0.370708 16.3264C0.371945 16.3378 0.3755 16.3489 0.381156 16.3589C0.386811 16.369 0.39445 16.3777 0.403606 16.3847C2.33121 17.7881 4.48119 18.8572 6.76352 19.5472C6.77943 19.5521 6.79645 19.5521 6.81235 19.5471C6.82826 19.5422 6.84231 19.5326 6.85267 19.5196C7.3438 18.8628 7.77901 18.1659 8.15373 17.4364C8.15893 17.4264 8.16193 17.4154 8.16252 17.4042C8.16311 17.393 8.16128 17.3817 8.15715 17.3713C8.15303 17.3608 8.1467 17.3514 8.1386 17.3436C8.13051 17.3357 8.12083 17.3298 8.11022 17.326C7.42467 17.0679 6.76043 16.7563 6.12361 16.3943C6.11216 16.3877 6.10252 16.3785 6.09554 16.3673C6.08857 16.3561 6.08448 16.3434 6.08363 16.3302C6.08279 16.3171 6.08523 16.3039 6.09072 16.292C6.09622 16.28 6.1046 16.2696 6.11512 16.2616C6.24883 16.1629 6.38254 16.06 6.50989 15.957C6.52135 15.9478 6.53516 15.9419 6.54978 15.94C6.56439 15.9381 6.57924 15.9404 6.59267 15.9464C10.7601 17.8184 15.2735 17.8184 19.3921 15.9464C19.4056 15.94 19.4206 15.9375 19.4354 15.9392C19.4502 15.9409 19.4643 15.9467 19.4759 15.956C19.6033 16.06 19.7359 16.1629 19.8707 16.2616C19.8813 16.2694 19.8899 16.2797 19.8955 16.2915C19.9012 16.3034 19.9038 16.3165 19.9032 16.3297C19.9026 16.3428 19.8987 16.3556 19.8919 16.3669C19.8851 16.3781 19.8757 16.3876 19.8643 16.3943C19.2297 16.7593 18.5696 17.0681 17.8767 17.325C17.866 17.3288 17.8563 17.3349 17.8482 17.3428C17.8401 17.3507 17.8338 17.3603 17.8297 17.3708C17.8256 17.3814 17.8237 17.3927 17.8243 17.404C17.8249 17.4153 17.828 17.4263 17.8332 17.4364C18.2152 18.1655 18.6524 18.8595 19.1332 19.5185C19.1432 19.532 19.1571 19.5421 19.173 19.5475C19.189 19.5528 19.2062 19.5531 19.2223 19.5482C21.5086 18.8602 23.662 17.7906 25.5918 16.3847C25.6012 16.3781 25.6091 16.3696 25.6149 16.3597C25.6208 16.3499 25.6245 16.3388 25.6257 16.3274C26.1563 10.9215 24.7364 6.22456 21.8594 2.06243C21.8524 2.04891 21.8407 2.03836 21.8265 2.03272ZM8.77667 13.4791C7.5223 13.4791 6.48761 12.3446 6.48761 10.9534C6.48761 9.56105 7.50214 8.42766 8.77667 8.42766C10.0608 8.42766 11.0859 9.5706 11.0657 10.9534C11.0657 12.3457 10.0512 13.4791 8.77667 13.4791ZM17.2399 13.4791C15.9845 13.4791 14.9509 12.3446 14.9509 10.9534C14.9509 9.56105 15.9643 8.42766 17.2399 8.42766C18.524 8.42766 19.5492 9.5706 19.529 10.9534C19.529 12.3457 18.5251 13.4791 17.2399 13.4791Z" fill="white"/>
</svg>
