<?xml version="1.0" encoding="utf-8"?>
<!-- Generator: Adobe Illustrator 25.0.1, SVG Export Plug-In . SVG Version: 6.00 Build 0)  -->
<svg version="1.1" id="Capa_1" xmlns="http://www.w3.org/2000/svg" xmlns:xlink="http://www.w3.org/1999/xlink" x="0px" y="0px"
	 viewBox="0 0 592 126.5" style="enable-background:new 0 0 592 126.5;" xml:space="preserve">
<style type="text/css">
	.st0{enable-background:new    ;}
	.st1{fill:#D6D6D8;}
</style>
<g id="Capa_2_1_">
	<g id="Capa_1-2">
		<g class="st0">
			<path class="st1" d="M179,23.2l11.3,43.3l10.2-43.3h19.4l-19.4,73.7h-17.6l-11.4-43.2l-11.5,43.2h-17.6L123,23.2h19.7L153,66.5
				l11.4-43.3H179z"/>
		</g>
		<g class="st0">
			<path class="st1" d="M259.3,98C238,98,223.4,82,223.4,60c0-22.1,14.6-38,35.9-38c21.4,0,36.1,16,36.1,38
				C295.4,82,280.6,98,259.3,98z M259.3,38.9c-10,0-16.4,8.4-16.4,21.1c0,12.7,6.5,21.1,16.4,21.1c10,0,16.7-8.4,16.7-21.1
				C276,47.3,269.2,38.9,259.3,38.9z"/>
		</g>
		<g class="st0">
			<path class="st1" d="M337.5,98c-21.2,0-35.9-16.1-35.9-38c0-22.1,14.6-38,35.9-38c21.4,0,36.1,16,36.1,38
				C373.6,82,358.9,98,337.5,98z M337.5,38.9c-10,0-16.4,8.4-16.4,21.1c0,12.7,6.5,21.1,16.4,21.1s16.7-8.4,16.7-21.1
				C354.2,47.3,347.5,38.9,337.5,38.9z"/>
			<path class="st1" d="M381.7,96.8V23.2h51.8v16.7h-32.8v14.6h30.1v16.3h-30.1v26H381.7z"/>
			<path class="st1" d="M439.9,23.2h22.9l-4.2,49h-14.5L439.9,23.2z M451.4,76.4c6.1,0,11.2,4.6,11.2,10.6c0,6.1-5,10.7-11.2,10.7
				c-6.2,0-11.3-4.6-11.3-10.7C440.1,81,445.2,76.4,451.4,76.4z"/>
		</g>
	</g>
</g>
</svg>
